<?xml version="1.0" encoding="utf-8"?>
<svg xmlns="http://www.w3.org/2000/svg" xmlns:xlink="http://www.w3.org/1999/xlink" width="600" height="400" viewBox="0 0 2400 1600">
<defs>
  <clipPath id="clip540">
    <rect x="0" y="0" width="2400" height="1600"/>
  </clipPath>
</defs>
<path clip-path="url(#clip540)" d="M0 1600 L2400 1600 L2400 0 L0 0  Z" fill="#ffffff" fill-rule="evenodd" fill-opacity="1"/>
<defs>
  <clipPath id="clip541">
    <rect x="242" y="123" width="2112" height="1301"/>
  </clipPath>
</defs>
<path clip-path="url(#clip540)" d="M204.218 1423.18 L2352.76 1423.18 L2352.76 123.472 L204.218 123.472  Z" fill="#ffffff" fill-rule="evenodd" fill-opacity="1"/>
<defs>
  <clipPath id="clip542">
    <rect x="204" y="123" width="2150" height="1301"/>
  </clipPath>
</defs>
<polyline clip-path="url(#clip542)" style="stroke:#000000; stroke-linecap:round; stroke-linejoin:round; stroke-width:2; stroke-opacity:0.1; fill:none" points="645.473,1423.18 645.473,123.472 "/>
<polyline clip-path="url(#clip542)" style="stroke:#000000; stroke-linecap:round; stroke-linejoin:round; stroke-width:2; stroke-opacity:0.1; fill:none" points="1194.48,1423.18 1194.48,123.472 "/>
<polyline clip-path="url(#clip542)" style="stroke:#000000; stroke-linecap:round; stroke-linejoin:round; stroke-width:2; stroke-opacity:0.1; fill:none" points="1743.49,1423.18 1743.49,123.472 "/>
<polyline clip-path="url(#clip542)" style="stroke:#000000; stroke-linecap:round; stroke-linejoin:round; stroke-width:2; stroke-opacity:0.1; fill:none" points="2292.5,1423.18 2292.5,123.472 "/>
<polyline clip-path="url(#clip542)" style="stroke:#000000; stroke-linecap:round; stroke-linejoin:round; stroke-width:2; stroke-opacity:0.1; fill:none" points="204.218,1299.53 2352.76,1299.53 "/>
<polyline clip-path="url(#clip542)" style="stroke:#000000; stroke-linecap:round; stroke-linejoin:round; stroke-width:2; stroke-opacity:0.1; fill:none" points="204.218,918.319 2352.76,918.319 "/>
<polyline clip-path="url(#clip542)" style="stroke:#000000; stroke-linecap:round; stroke-linejoin:round; stroke-width:2; stroke-opacity:0.1; fill:none" points="204.218,537.112 2352.76,537.112 "/>
<polyline clip-path="url(#clip542)" style="stroke:#000000; stroke-linecap:round; stroke-linejoin:round; stroke-width:2; stroke-opacity:0.1; fill:none" points="204.218,155.904 2352.76,155.904 "/>
<polyline clip-path="url(#clip540)" style="stroke:#000000; stroke-linecap:round; stroke-linejoin:round; stroke-width:4; stroke-opacity:1; fill:none" points="204.218,1423.18 2352.76,1423.18 "/>
<polyline clip-path="url(#clip540)" style="stroke:#000000; stroke-linecap:round; stroke-linejoin:round; stroke-width:4; stroke-opacity:1; fill:none" points="645.473,1423.18 645.473,1404.28 "/>
<polyline clip-path="url(#clip540)" style="stroke:#000000; stroke-linecap:round; stroke-linejoin:round; stroke-width:4; stroke-opacity:1; fill:none" points="1194.48,1423.18 1194.48,1404.28 "/>
<polyline clip-path="url(#clip540)" style="stroke:#000000; stroke-linecap:round; stroke-linejoin:round; stroke-width:4; stroke-opacity:1; fill:none" points="1743.49,1423.18 1743.49,1404.28 "/>
<polyline clip-path="url(#clip540)" style="stroke:#000000; stroke-linecap:round; stroke-linejoin:round; stroke-width:4; stroke-opacity:1; fill:none" points="2292.5,1423.18 2292.5,1404.28 "/>
<path clip-path="url(#clip540)" d="M598.043 1481.64 L605.682 1481.64 L605.682 1455.28 L597.372 1456.95 L597.372 1452.69 L605.635 1451.02 L610.311 1451.02 L610.311 1481.64 L617.95 1481.64 L617.95 1485.58 L598.043 1485.58 L598.043 1481.64 Z" fill="#000000" fill-rule="nonzero" fill-opacity="1" /><path clip-path="url(#clip540)" d="M627.394 1479.7 L632.279 1479.7 L632.279 1485.58 L627.394 1485.58 L627.394 1479.7 Z" fill="#000000" fill-rule="nonzero" fill-opacity="1" /><path clip-path="url(#clip540)" d="M641.283 1451.02 L663.505 1451.02 L663.505 1453.01 L650.959 1485.58 L646.075 1485.58 L657.88 1454.96 L641.283 1454.96 L641.283 1451.02 Z" fill="#000000" fill-rule="nonzero" fill-opacity="1" /><path clip-path="url(#clip540)" d="M672.672 1451.02 L691.028 1451.02 L691.028 1454.96 L676.954 1454.96 L676.954 1463.43 Q677.973 1463.08 678.991 1462.92 Q680.01 1462.73 681.028 1462.73 Q686.815 1462.73 690.195 1465.9 Q693.575 1469.08 693.575 1474.49 Q693.575 1480.07 690.102 1483.17 Q686.63 1486.25 680.311 1486.25 Q678.135 1486.25 675.866 1485.88 Q673.621 1485.51 671.214 1484.77 L671.214 1480.07 Q673.297 1481.2 675.519 1481.76 Q677.741 1482.32 680.218 1482.32 Q684.223 1482.32 686.561 1480.21 Q688.899 1478.1 688.899 1474.49 Q688.899 1470.88 686.561 1468.77 Q684.223 1466.67 680.218 1466.67 Q678.343 1466.67 676.468 1467.08 Q674.616 1467.5 672.672 1468.38 L672.672 1451.02 Z" fill="#000000" fill-rule="nonzero" fill-opacity="1" /><path clip-path="url(#clip540)" d="M1146.55 1481.64 L1154.19 1481.64 L1154.19 1455.28 L1145.88 1456.95 L1145.88 1452.69 L1154.15 1451.02 L1158.82 1451.02 L1158.82 1481.64 L1166.46 1481.64 L1166.46 1485.58 L1146.55 1485.58 L1146.55 1481.64 Z" fill="#000000" fill-rule="nonzero" fill-opacity="1" /><path clip-path="url(#clip540)" d="M1175.91 1479.7 L1180.79 1479.7 L1180.79 1485.58 L1175.91 1485.58 L1175.91 1479.7 Z" fill="#000000" fill-rule="nonzero" fill-opacity="1" /><path clip-path="url(#clip540)" d="M1200.97 1469.17 Q1197.64 1469.17 1195.72 1470.95 Q1193.82 1472.73 1193.82 1475.86 Q1193.82 1478.98 1195.72 1480.77 Q1197.64 1482.55 1200.97 1482.55 Q1204.31 1482.55 1206.23 1480.77 Q1208.15 1478.96 1208.15 1475.86 Q1208.15 1472.73 1206.23 1470.95 Q1204.33 1469.17 1200.97 1469.17 M1196.3 1467.18 Q1193.29 1466.44 1191.6 1464.38 Q1189.93 1462.32 1189.93 1459.35 Q1189.93 1455.21 1192.87 1452.8 Q1195.84 1450.39 1200.97 1450.39 Q1206.14 1450.39 1209.08 1452.8 Q1212.02 1455.21 1212.02 1459.35 Q1212.02 1462.32 1210.33 1464.38 Q1208.66 1466.44 1205.67 1467.18 Q1209.05 1467.96 1210.93 1470.26 Q1212.83 1472.55 1212.83 1475.86 Q1212.83 1480.88 1209.75 1483.57 Q1206.69 1486.25 1200.97 1486.25 Q1195.26 1486.25 1192.18 1483.57 Q1189.12 1480.88 1189.12 1475.86 Q1189.12 1472.55 1191.02 1470.26 Q1192.92 1467.96 1196.3 1467.18 M1194.59 1459.79 Q1194.59 1462.48 1196.25 1463.98 Q1197.94 1465.49 1200.97 1465.49 Q1203.98 1465.49 1205.67 1463.98 Q1207.39 1462.48 1207.39 1459.79 Q1207.39 1457.11 1205.67 1455.6 Q1203.98 1454.1 1200.97 1454.1 Q1197.94 1454.1 1196.25 1455.6 Q1194.59 1457.11 1194.59 1459.79 Z" fill="#000000" fill-rule="nonzero" fill-opacity="1" /><path clip-path="url(#clip540)" d="M1231.14 1454.1 Q1227.53 1454.1 1225.7 1457.66 Q1223.89 1461.2 1223.89 1468.33 Q1223.89 1475.44 1225.7 1479.01 Q1227.53 1482.55 1231.14 1482.55 Q1234.77 1482.55 1236.58 1479.01 Q1238.41 1475.44 1238.41 1468.33 Q1238.41 1461.2 1236.58 1457.66 Q1234.77 1454.1 1231.14 1454.1 M1231.14 1450.39 Q1236.95 1450.39 1240 1455 Q1243.08 1459.58 1243.08 1468.33 Q1243.08 1477.06 1240 1481.67 Q1236.95 1486.25 1231.14 1486.25 Q1225.33 1486.25 1222.25 1481.67 Q1219.19 1477.06 1219.19 1468.33 Q1219.19 1459.58 1222.25 1455 Q1225.33 1450.39 1231.14 1450.39 Z" fill="#000000" fill-rule="nonzero" fill-opacity="1" /><path clip-path="url(#clip540)" d="M1696.06 1481.64 L1703.7 1481.64 L1703.7 1455.28 L1695.39 1456.95 L1695.39 1452.69 L1703.65 1451.02 L1708.33 1451.02 L1708.33 1481.64 L1715.97 1481.64 L1715.97 1485.58 L1696.06 1485.58 L1696.06 1481.64 Z" fill="#000000" fill-rule="nonzero" fill-opacity="1" /><path clip-path="url(#clip540)" d="M1725.41 1479.7 L1730.3 1479.7 L1730.3 1485.58 L1725.41 1485.58 L1725.41 1479.7 Z" fill="#000000" fill-rule="nonzero" fill-opacity="1" /><path clip-path="url(#clip540)" d="M1750.48 1469.17 Q1747.15 1469.17 1745.23 1470.95 Q1743.33 1472.73 1743.33 1475.86 Q1743.33 1478.98 1745.23 1480.77 Q1747.15 1482.55 1750.48 1482.55 Q1753.81 1482.55 1755.74 1480.77 Q1757.66 1478.96 1757.66 1475.86 Q1757.66 1472.73 1755.74 1470.95 Q1753.84 1469.17 1750.48 1469.17 M1745.81 1467.18 Q1742.8 1466.44 1741.11 1464.38 Q1739.44 1462.32 1739.44 1459.35 Q1739.44 1455.21 1742.38 1452.8 Q1745.34 1450.39 1750.48 1450.39 Q1755.64 1450.39 1758.58 1452.8 Q1761.52 1455.21 1761.52 1459.35 Q1761.52 1462.32 1759.83 1464.38 Q1758.17 1466.44 1755.18 1467.18 Q1758.56 1467.96 1760.43 1470.26 Q1762.33 1472.55 1762.33 1475.86 Q1762.33 1480.88 1759.25 1483.57 Q1756.2 1486.25 1750.48 1486.25 Q1744.76 1486.25 1741.68 1483.57 Q1738.63 1480.88 1738.63 1475.86 Q1738.63 1472.55 1740.53 1470.26 Q1742.43 1467.96 1745.81 1467.18 M1744.09 1459.79 Q1744.09 1462.48 1745.76 1463.98 Q1747.45 1465.49 1750.48 1465.49 Q1753.49 1465.49 1755.18 1463.98 Q1756.89 1462.48 1756.89 1459.79 Q1756.89 1457.11 1755.18 1455.6 Q1753.49 1454.1 1750.48 1454.1 Q1747.45 1454.1 1745.76 1455.6 Q1744.09 1457.11 1744.09 1459.79 Z" fill="#000000" fill-rule="nonzero" fill-opacity="1" /><path clip-path="url(#clip540)" d="M1770.69 1451.02 L1789.05 1451.02 L1789.05 1454.96 L1774.97 1454.96 L1774.97 1463.43 Q1775.99 1463.08 1777.01 1462.92 Q1778.03 1462.73 1779.05 1462.73 Q1784.83 1462.73 1788.21 1465.9 Q1791.59 1469.08 1791.59 1474.49 Q1791.59 1480.07 1788.12 1483.17 Q1784.65 1486.25 1778.33 1486.25 Q1776.15 1486.25 1773.88 1485.88 Q1771.64 1485.51 1769.23 1484.77 L1769.23 1480.07 Q1771.31 1481.2 1773.54 1481.76 Q1775.76 1482.32 1778.24 1482.32 Q1782.24 1482.32 1784.58 1480.21 Q1786.92 1478.1 1786.92 1474.49 Q1786.92 1470.88 1784.58 1468.77 Q1782.24 1466.67 1778.24 1466.67 Q1776.36 1466.67 1774.49 1467.08 Q1772.63 1467.5 1770.69 1468.38 L1770.69 1451.02 Z" fill="#000000" fill-rule="nonzero" fill-opacity="1" /><path clip-path="url(#clip540)" d="M2244.57 1481.64 L2252.21 1481.64 L2252.21 1455.28 L2243.9 1456.95 L2243.9 1452.69 L2252.16 1451.02 L2256.84 1451.02 L2256.84 1481.64 L2264.48 1481.64 L2264.48 1485.58 L2244.57 1485.58 L2244.57 1481.64 Z" fill="#000000" fill-rule="nonzero" fill-opacity="1" /><path clip-path="url(#clip540)" d="M2273.92 1479.7 L2278.81 1479.7 L2278.81 1485.58 L2273.92 1485.58 L2273.92 1479.7 Z" fill="#000000" fill-rule="nonzero" fill-opacity="1" /><path clip-path="url(#clip540)" d="M2289.13 1484.86 L2289.13 1480.6 Q2290.89 1481.44 2292.7 1481.88 Q2294.5 1482.32 2296.24 1482.32 Q2300.87 1482.32 2303.3 1479.21 Q2305.75 1476.09 2306.1 1469.75 Q2304.76 1471.74 2302.7 1472.8 Q2300.64 1473.87 2298.14 1473.87 Q2292.95 1473.87 2289.92 1470.74 Q2286.91 1467.59 2286.91 1462.15 Q2286.91 1456.83 2290.06 1453.61 Q2293.21 1450.39 2298.44 1450.39 Q2304.43 1450.39 2307.58 1455 Q2310.75 1459.58 2310.75 1468.33 Q2310.75 1476.51 2306.86 1481.39 Q2303 1486.25 2296.45 1486.25 Q2294.69 1486.25 2292.88 1485.9 Q2291.08 1485.56 2289.13 1484.86 M2298.44 1470.21 Q2301.58 1470.21 2303.41 1468.06 Q2305.27 1465.9 2305.27 1462.15 Q2305.27 1458.43 2303.41 1456.27 Q2301.58 1454.1 2298.44 1454.1 Q2295.29 1454.1 2293.44 1456.27 Q2291.61 1458.43 2291.61 1462.15 Q2291.61 1465.9 2293.44 1468.06 Q2295.29 1470.21 2298.44 1470.21 Z" fill="#000000" fill-rule="nonzero" fill-opacity="1" /><path clip-path="url(#clip540)" d="M2329.15 1454.1 Q2325.54 1454.1 2323.71 1457.66 Q2321.91 1461.2 2321.91 1468.33 Q2321.91 1475.44 2323.71 1479.01 Q2325.54 1482.55 2329.15 1482.55 Q2332.79 1482.55 2334.59 1479.01 Q2336.42 1475.44 2336.42 1468.33 Q2336.42 1461.2 2334.59 1457.66 Q2332.79 1454.1 2329.15 1454.1 M2329.15 1450.39 Q2334.96 1450.39 2338.02 1455 Q2341.1 1459.58 2341.1 1468.33 Q2341.1 1477.06 2338.02 1481.67 Q2334.96 1486.25 2329.15 1486.25 Q2323.34 1486.25 2320.27 1481.67 Q2317.21 1477.06 2317.21 1468.33 Q2317.21 1459.58 2320.27 1455 Q2323.34 1450.39 2329.15 1450.39 Z" fill="#000000" fill-rule="nonzero" fill-opacity="1" /><path clip-path="url(#clip540)" d="M1054.26 1520.52 L1060.68 1520.52 L1060.68 1562.63 L1083.82 1562.63 L1083.82 1568.04 L1054.26 1568.04 L1054.26 1520.52 Z" fill="#000000" fill-rule="nonzero" fill-opacity="1" /><path clip-path="url(#clip540)" d="M1119.66 1548.76 L1119.66 1551.62 L1092.74 1551.62 Q1093.12 1557.67 1096.36 1560.85 Q1099.64 1564 1105.47 1564 Q1108.84 1564 1111.99 1563.17 Q1115.17 1562.35 1118.29 1560.69 L1118.29 1566.23 Q1115.14 1567.57 1111.83 1568.27 Q1108.52 1568.97 1105.12 1568.97 Q1096.59 1568.97 1091.59 1564 Q1086.62 1559.04 1086.62 1550.57 Q1086.62 1541.82 1091.34 1536.69 Q1096.08 1531.54 1104.1 1531.54 Q1111.29 1531.54 1115.46 1536.18 Q1119.66 1540.8 1119.66 1548.76 M1113.81 1547.04 Q1113.74 1542.23 1111.1 1539.37 Q1108.49 1536.5 1104.16 1536.5 Q1099.26 1536.5 1096.3 1539.27 Q1093.37 1542.04 1092.93 1547.07 L1113.81 1547.04 Z" fill="#000000" fill-rule="nonzero" fill-opacity="1" /><path clip-path="url(#clip540)" d="M1145.48 1550.12 Q1138.38 1550.12 1135.64 1551.75 Q1132.9 1553.37 1132.9 1557.29 Q1132.9 1560.4 1134.94 1562.25 Q1137.01 1564.07 1140.54 1564.07 Q1145.41 1564.07 1148.34 1560.63 Q1151.3 1557.16 1151.3 1551.43 L1151.3 1550.12 L1145.48 1550.12 M1157.16 1547.71 L1157.16 1568.04 L1151.3 1568.04 L1151.3 1562.63 Q1149.3 1565.88 1146.3 1567.44 Q1143.31 1568.97 1138.98 1568.97 Q1133.51 1568.97 1130.26 1565.91 Q1127.05 1562.82 1127.05 1557.67 Q1127.05 1551.65 1131.06 1548.6 Q1135.1 1545.54 1143.09 1545.54 L1151.3 1545.54 L1151.3 1544.97 Q1151.3 1540.93 1148.63 1538.73 Q1145.98 1536.5 1141.18 1536.5 Q1138.12 1536.5 1135.23 1537.23 Q1132.33 1537.97 1129.66 1539.43 L1129.66 1534.02 Q1132.87 1532.78 1135.9 1532.17 Q1138.92 1531.54 1141.78 1531.54 Q1149.52 1531.54 1153.34 1535.55 Q1157.16 1539.56 1157.16 1547.71 Z" fill="#000000" fill-rule="nonzero" fill-opacity="1" /><path clip-path="url(#clip540)" d="M1192.68 1537.81 L1192.68 1518.52 L1198.53 1518.52 L1198.53 1568.04 L1192.68 1568.04 L1192.68 1562.7 Q1190.83 1565.88 1188 1567.44 Q1185.2 1568.97 1181.25 1568.97 Q1174.79 1568.97 1170.72 1563.81 Q1166.67 1558.65 1166.67 1550.25 Q1166.67 1541.85 1170.72 1536.69 Q1174.79 1531.54 1181.25 1531.54 Q1185.2 1531.54 1188 1533.1 Q1190.83 1534.62 1192.68 1537.81 M1172.72 1550.25 Q1172.72 1556.71 1175.36 1560.4 Q1178.04 1564.07 1182.68 1564.07 Q1187.33 1564.07 1190 1560.4 Q1192.68 1556.71 1192.68 1550.25 Q1192.68 1543.79 1190 1540.13 Q1187.33 1536.44 1182.68 1536.44 Q1178.04 1536.44 1175.36 1540.13 Q1172.72 1543.79 1172.72 1550.25 Z" fill="#000000" fill-rule="nonzero" fill-opacity="1" /><path clip-path="url(#clip540)" d="M1241.09 1548.76 L1241.09 1551.62 L1214.16 1551.62 Q1214.54 1557.67 1217.79 1560.85 Q1221.07 1564 1226.89 1564 Q1230.27 1564 1233.42 1563.17 Q1236.6 1562.35 1239.72 1560.69 L1239.72 1566.23 Q1236.57 1567.57 1233.26 1568.27 Q1229.95 1568.97 1226.54 1568.97 Q1218.01 1568.97 1213.02 1564 Q1208.05 1559.04 1208.05 1550.57 Q1208.05 1541.82 1212.76 1536.69 Q1217.5 1531.54 1225.52 1531.54 Q1232.72 1531.54 1236.89 1536.18 Q1241.09 1540.8 1241.09 1548.76 M1235.23 1547.04 Q1235.17 1542.23 1232.53 1539.37 Q1229.92 1536.5 1225.59 1536.5 Q1220.69 1536.5 1217.73 1539.27 Q1214.8 1542.04 1214.35 1547.07 L1235.23 1547.04 Z" fill="#000000" fill-rule="nonzero" fill-opacity="1" /><path clip-path="url(#clip540)" d="M1271.36 1537.87 Q1270.37 1537.3 1269.19 1537.04 Q1268.05 1536.76 1266.65 1536.76 Q1261.68 1536.76 1259.01 1540 Q1256.37 1543.22 1256.37 1549.27 L1256.37 1568.04 L1250.48 1568.04 L1250.48 1532.4 L1256.37 1532.4 L1256.37 1537.93 Q1258.21 1534.69 1261.17 1533.13 Q1264.13 1531.54 1268.37 1531.54 Q1268.97 1531.54 1269.7 1531.63 Q1270.43 1531.7 1271.33 1531.85 L1271.36 1537.87 Z" fill="#000000" fill-rule="nonzero" fill-opacity="1" /><path clip-path="url(#clip540)" d="M1283.04 1520.52 L1283.04 1538.19 L1277.63 1538.19 L1277.63 1520.52 L1283.04 1520.52 Z" fill="#000000" fill-rule="nonzero" fill-opacity="1" /><path clip-path="url(#clip540)" d="M1318.15 1533.45 L1318.15 1538.98 Q1315.66 1537.71 1312.99 1537.07 Q1310.32 1536.44 1307.45 1536.44 Q1303.09 1536.44 1300.89 1537.77 Q1298.73 1539.11 1298.73 1541.79 Q1298.73 1543.82 1300.29 1545 Q1301.85 1546.15 1306.56 1547.2 L1308.57 1547.64 Q1314.8 1548.98 1317.41 1551.43 Q1320.06 1553.85 1320.06 1558.21 Q1320.06 1563.17 1316.11 1566.07 Q1312.19 1568.97 1305.32 1568.97 Q1302.45 1568.97 1299.33 1568.39 Q1296.25 1567.85 1292.81 1566.74 L1292.81 1560.69 Q1296.06 1562.38 1299.21 1563.24 Q1302.36 1564.07 1305.45 1564.07 Q1309.58 1564.07 1311.81 1562.66 Q1314.04 1561.23 1314.04 1558.65 Q1314.04 1556.27 1312.42 1554.99 Q1310.82 1553.72 1305.38 1552.54 L1303.35 1552.07 Q1297.9 1550.92 1295.48 1548.56 Q1293.06 1546.18 1293.06 1542.04 Q1293.06 1537.01 1296.63 1534.27 Q1300.19 1531.54 1306.75 1531.54 Q1310 1531.54 1312.86 1532.01 Q1315.73 1532.49 1318.15 1533.45 Z" fill="#000000" fill-rule="nonzero" fill-opacity="1" /><path clip-path="url(#clip540)" d="M1355.77 1562.7 L1355.77 1581.6 L1349.88 1581.6 L1349.88 1532.4 L1355.77 1532.4 L1355.77 1537.81 Q1357.61 1534.62 1360.41 1533.1 Q1363.25 1531.54 1367.16 1531.54 Q1373.65 1531.54 1377.7 1536.69 Q1381.77 1541.85 1381.77 1550.25 Q1381.77 1558.65 1377.7 1563.81 Q1373.65 1568.97 1367.16 1568.97 Q1363.25 1568.97 1360.41 1567.44 Q1357.61 1565.88 1355.77 1562.7 M1375.69 1550.25 Q1375.69 1543.79 1373.02 1540.13 Q1370.38 1536.44 1365.73 1536.44 Q1361.08 1536.44 1358.41 1540.13 Q1355.77 1543.79 1355.77 1550.25 Q1355.77 1556.71 1358.41 1560.4 Q1361.08 1564.07 1365.73 1564.07 Q1370.38 1564.07 1373.02 1560.4 Q1375.69 1556.71 1375.69 1550.25 Z" fill="#000000" fill-rule="nonzero" fill-opacity="1" /><path clip-path="url(#clip540)" d="M1412.14 1537.87 Q1411.15 1537.3 1409.97 1537.04 Q1408.82 1536.76 1407.42 1536.76 Q1402.46 1536.76 1399.79 1540 Q1397.14 1543.22 1397.14 1549.27 L1397.14 1568.04 L1391.26 1568.04 L1391.26 1532.4 L1397.14 1532.4 L1397.14 1537.93 Q1398.99 1534.69 1401.95 1533.13 Q1404.91 1531.54 1409.14 1531.54 Q1409.75 1531.54 1410.48 1531.63 Q1411.21 1531.7 1412.1 1531.85 L1412.14 1537.87 Z" fill="#000000" fill-rule="nonzero" fill-opacity="1" /><path clip-path="url(#clip540)" d="M1418.28 1532.4 L1424.13 1532.4 L1424.13 1568.04 L1418.28 1568.04 L1418.28 1532.4 M1418.28 1518.52 L1424.13 1518.52 L1424.13 1525.93 L1418.28 1525.93 L1418.28 1518.52 Z" fill="#000000" fill-rule="nonzero" fill-opacity="1" /><path clip-path="url(#clip540)" d="M1462.04 1533.76 L1462.04 1539.24 Q1459.56 1537.87 1457.05 1537.2 Q1454.56 1536.5 1452.02 1536.5 Q1446.32 1536.5 1443.17 1540.13 Q1440.02 1543.73 1440.02 1550.25 Q1440.02 1556.78 1443.17 1560.4 Q1446.32 1564 1452.02 1564 Q1454.56 1564 1457.05 1563.33 Q1459.56 1562.63 1462.04 1561.26 L1462.04 1566.68 Q1459.59 1567.82 1456.95 1568.39 Q1454.34 1568.97 1451.38 1568.97 Q1443.33 1568.97 1438.58 1563.91 Q1433.84 1558.85 1433.84 1550.25 Q1433.84 1541.53 1438.62 1536.53 Q1443.42 1531.54 1451.76 1531.54 Q1454.47 1531.54 1457.05 1532.11 Q1459.62 1532.65 1462.04 1533.76 Z" fill="#000000" fill-rule="nonzero" fill-opacity="1" /><path clip-path="url(#clip540)" d="M1502.72 1548.76 L1502.72 1551.62 L1475.79 1551.62 Q1476.17 1557.67 1479.42 1560.85 Q1482.7 1564 1488.52 1564 Q1491.9 1564 1495.05 1563.17 Q1498.23 1562.35 1501.35 1560.69 L1501.35 1566.23 Q1498.2 1567.57 1494.89 1568.27 Q1491.58 1568.97 1488.17 1568.97 Q1479.64 1568.97 1474.65 1564 Q1469.68 1559.04 1469.68 1550.57 Q1469.68 1541.82 1474.39 1536.69 Q1479.13 1531.54 1487.15 1531.54 Q1494.35 1531.54 1498.52 1536.18 Q1502.72 1540.8 1502.72 1548.76 M1496.86 1547.04 Q1496.8 1542.23 1494.16 1539.37 Q1491.55 1536.5 1487.22 1536.5 Q1482.32 1536.5 1479.36 1539.27 Q1476.43 1542.04 1475.98 1547.07 L1496.86 1547.04 Z" fill="#000000" fill-rule="nonzero" fill-opacity="1" /><polyline clip-path="url(#clip540)" style="stroke:#000000; stroke-linecap:round; stroke-linejoin:round; stroke-width:4; stroke-opacity:1; fill:none" points="204.218,1423.18 204.218,123.472 "/>
<polyline clip-path="url(#clip540)" style="stroke:#000000; stroke-linecap:round; stroke-linejoin:round; stroke-width:4; stroke-opacity:1; fill:none" points="204.218,1299.53 223.116,1299.53 "/>
<polyline clip-path="url(#clip540)" style="stroke:#000000; stroke-linecap:round; stroke-linejoin:round; stroke-width:4; stroke-opacity:1; fill:none" points="204.218,918.319 223.116,918.319 "/>
<polyline clip-path="url(#clip540)" style="stroke:#000000; stroke-linecap:round; stroke-linejoin:round; stroke-width:4; stroke-opacity:1; fill:none" points="204.218,537.112 223.116,537.112 "/>
<polyline clip-path="url(#clip540)" style="stroke:#000000; stroke-linecap:round; stroke-linejoin:round; stroke-width:4; stroke-opacity:1; fill:none" points="204.218,155.904 223.116,155.904 "/>
<path clip-path="url(#clip540)" d="M114.931 1282.25 L137.154 1282.25 L137.154 1284.24 L124.607 1316.81 L119.723 1316.81 L131.529 1286.18 L114.931 1286.18 L114.931 1282.25 Z" fill="#000000" fill-rule="nonzero" fill-opacity="1" /><path clip-path="url(#clip540)" d="M156.274 1285.33 Q152.663 1285.33 150.834 1288.89 Q149.028 1292.43 149.028 1299.56 Q149.028 1306.67 150.834 1310.23 Q152.663 1313.77 156.274 1313.77 Q159.908 1313.77 161.714 1310.23 Q163.542 1306.67 163.542 1299.56 Q163.542 1292.43 161.714 1288.89 Q159.908 1285.33 156.274 1285.33 M156.274 1281.62 Q162.084 1281.62 165.14 1286.23 Q168.218 1290.81 168.218 1299.56 Q168.218 1308.29 165.14 1312.89 Q162.084 1317.48 156.274 1317.48 Q150.464 1317.48 147.385 1312.89 Q144.329 1308.29 144.329 1299.56 Q144.329 1290.81 147.385 1286.23 Q150.464 1281.62 156.274 1281.62 Z" fill="#000000" fill-rule="nonzero" fill-opacity="1" /><path clip-path="url(#clip540)" d="M115.927 901.039 L138.149 901.039 L138.149 903.03 L125.603 935.599 L120.718 935.599 L132.524 904.974 L115.927 904.974 L115.927 901.039 Z" fill="#000000" fill-rule="nonzero" fill-opacity="1" /><path clip-path="url(#clip540)" d="M147.316 901.039 L165.672 901.039 L165.672 904.974 L151.598 904.974 L151.598 913.447 Q152.616 913.099 153.635 912.937 Q154.653 912.752 155.672 912.752 Q161.459 912.752 164.839 915.923 Q168.218 919.095 168.218 924.511 Q168.218 930.09 164.746 933.192 Q161.274 936.271 154.954 936.271 Q152.778 936.271 150.51 935.9 Q148.265 935.53 145.857 934.789 L145.857 930.09 Q147.941 931.224 150.163 931.78 Q152.385 932.335 154.862 932.335 Q158.866 932.335 161.204 930.229 Q163.542 928.122 163.542 924.511 Q163.542 920.9 161.204 918.794 Q158.866 916.687 154.862 916.687 Q152.987 916.687 151.112 917.104 Q149.26 917.521 147.316 918.4 L147.316 901.039 Z" fill="#000000" fill-rule="nonzero" fill-opacity="1" /><path clip-path="url(#clip540)" d="M126.112 537.98 Q122.779 537.98 120.857 539.762 Q118.959 541.545 118.959 544.67 Q118.959 547.795 120.857 549.577 Q122.779 551.359 126.112 551.359 Q129.445 551.359 131.367 549.577 Q133.288 547.771 133.288 544.67 Q133.288 541.545 131.367 539.762 Q129.468 537.98 126.112 537.98 M121.436 535.989 Q118.427 535.248 116.737 533.188 Q115.07 531.128 115.07 528.165 Q115.07 524.022 118.01 521.614 Q120.973 519.207 126.112 519.207 Q131.274 519.207 134.214 521.614 Q137.154 524.022 137.154 528.165 Q137.154 531.128 135.464 533.188 Q133.797 535.248 130.811 535.989 Q134.191 536.776 136.066 539.068 Q137.964 541.359 137.964 544.67 Q137.964 549.693 134.885 552.378 Q131.83 555.063 126.112 555.063 Q120.394 555.063 117.316 552.378 Q114.26 549.693 114.26 544.67 Q114.26 541.359 116.158 539.068 Q118.056 536.776 121.436 535.989 M119.723 528.605 Q119.723 531.29 121.39 532.795 Q123.08 534.299 126.112 534.299 Q129.121 534.299 130.811 532.795 Q132.524 531.29 132.524 528.605 Q132.524 525.92 130.811 524.415 Q129.121 522.91 126.112 522.91 Q123.08 522.91 121.39 524.415 Q119.723 525.92 119.723 528.605 Z" fill="#000000" fill-rule="nonzero" fill-opacity="1" /><path clip-path="url(#clip540)" d="M156.274 522.91 Q152.663 522.91 150.834 526.475 Q149.028 530.017 149.028 537.147 Q149.028 544.253 150.834 547.818 Q152.663 551.359 156.274 551.359 Q159.908 551.359 161.714 547.818 Q163.542 544.253 163.542 537.147 Q163.542 530.017 161.714 526.475 Q159.908 522.91 156.274 522.91 M156.274 519.207 Q162.084 519.207 165.14 523.813 Q168.218 528.397 168.218 537.147 Q168.218 545.873 165.14 550.48 Q162.084 555.063 156.274 555.063 Q150.464 555.063 147.385 550.48 Q144.329 545.873 144.329 537.147 Q144.329 528.397 147.385 523.813 Q150.464 519.207 156.274 519.207 Z" fill="#000000" fill-rule="nonzero" fill-opacity="1" /><path clip-path="url(#clip540)" d="M127.107 156.772 Q123.774 156.772 121.853 158.555 Q119.955 160.337 119.955 163.462 Q119.955 166.587 121.853 168.369 Q123.774 170.152 127.107 170.152 Q130.441 170.152 132.362 168.369 Q134.283 166.564 134.283 163.462 Q134.283 160.337 132.362 158.555 Q130.464 156.772 127.107 156.772 M122.431 154.782 Q119.422 154.041 117.732 151.981 Q116.066 149.921 116.066 146.958 Q116.066 142.814 119.006 140.407 Q121.968 137.999 127.107 137.999 Q132.269 137.999 135.209 140.407 Q138.149 142.814 138.149 146.958 Q138.149 149.921 136.459 151.981 Q134.792 154.041 131.806 154.782 Q135.186 155.569 137.061 157.86 Q138.959 160.152 138.959 163.462 Q138.959 168.485 135.88 171.17 Q132.825 173.856 127.107 173.856 Q121.39 173.856 118.311 171.17 Q115.256 168.485 115.256 163.462 Q115.256 160.152 117.154 157.86 Q119.052 155.569 122.431 154.782 M120.718 147.397 Q120.718 150.083 122.385 151.587 Q124.075 153.092 127.107 153.092 Q130.117 153.092 131.806 151.587 Q133.519 150.083 133.519 147.397 Q133.519 144.712 131.806 143.208 Q130.117 141.703 127.107 141.703 Q124.075 141.703 122.385 143.208 Q120.718 144.712 120.718 147.397 Z" fill="#000000" fill-rule="nonzero" fill-opacity="1" /><path clip-path="url(#clip540)" d="M147.316 138.624 L165.672 138.624 L165.672 142.559 L151.598 142.559 L151.598 151.032 Q152.616 150.684 153.635 150.522 Q154.653 150.337 155.672 150.337 Q161.459 150.337 164.839 153.508 Q168.218 156.68 168.218 162.096 Q168.218 167.675 164.746 170.777 Q161.274 173.856 154.954 173.856 Q152.778 173.856 150.51 173.485 Q148.265 173.115 145.857 172.374 L145.857 167.675 Q147.941 168.809 150.163 169.365 Q152.385 169.92 154.862 169.92 Q158.866 169.92 161.204 167.814 Q163.542 165.707 163.542 162.096 Q163.542 158.485 161.204 156.379 Q158.866 154.272 154.862 154.272 Q152.987 154.272 151.112 154.689 Q149.26 155.106 147.316 155.985 L147.316 138.624 Z" fill="#000000" fill-rule="nonzero" fill-opacity="1" /><path clip-path="url(#clip540)" d="M21.7677 847.932 L39.6235 847.932 L39.6235 839.848 Q39.6235 835.36 37.3 832.909 Q34.9765 830.458 30.6797 830.458 Q26.4147 830.458 24.0912 832.909 Q21.7677 835.36 21.7677 839.848 L21.7677 847.932 M16.4842 854.361 L16.4842 839.848 Q16.4842 831.859 20.1126 827.785 Q23.7092 823.679 30.6797 823.679 Q37.7138 823.679 41.3104 827.785 Q44.907 831.859 44.907 839.848 L44.907 847.932 L64.0042 847.932 L64.0042 854.361 L16.4842 854.361 Z" fill="#000000" fill-rule="nonzero" fill-opacity="1" /><path clip-path="url(#clip540)" d="M33.8307 795.797 Q33.2578 796.784 33.0032 797.961 Q32.7167 799.107 32.7167 800.508 Q32.7167 805.473 35.9632 808.146 Q39.1779 810.788 45.2253 810.788 L64.0042 810.788 L64.0042 816.676 L28.3562 816.676 L28.3562 810.788 L33.8944 810.788 Q30.6479 808.942 29.0883 805.982 Q27.4968 803.022 27.4968 798.789 Q27.4968 798.184 27.5923 797.452 Q27.656 796.72 27.8151 795.829 L33.8307 795.797 Z" fill="#000000" fill-rule="nonzero" fill-opacity="1" /><path clip-path="url(#clip540)" d="M32.4621 777.273 Q32.4621 781.983 36.1542 784.721 Q39.8145 787.458 46.212 787.458 Q52.6095 787.458 56.3017 784.752 Q59.9619 782.015 59.9619 777.273 Q59.9619 772.594 56.2698 769.857 Q52.5777 767.119 46.212 767.119 Q39.8781 767.119 36.186 769.857 Q32.4621 772.594 32.4621 777.273 M27.4968 777.273 Q27.4968 769.634 32.4621 765.273 Q37.4273 760.913 46.212 760.913 Q54.9649 760.913 59.9619 765.273 Q64.9272 769.634 64.9272 777.273 Q64.9272 784.943 59.9619 789.304 Q54.9649 793.633 46.212 793.633 Q37.4273 793.633 32.4621 789.304 Q27.4968 784.943 27.4968 777.273 Z" fill="#000000" fill-rule="nonzero" fill-opacity="1" /><path clip-path="url(#clip540)" d="M14.479 733.158 L19.3487 733.158 L19.3487 738.76 Q19.3487 741.911 20.6219 743.153 Q21.895 744.362 25.2052 744.362 L28.3562 744.362 L28.3562 734.718 L32.9077 734.718 L32.9077 744.362 L64.0042 744.362 L64.0042 750.25 L32.9077 750.25 L32.9077 755.852 L28.3562 755.852 L28.3562 750.25 L25.8736 750.25 Q19.9216 750.25 17.2162 747.481 Q14.479 744.712 14.479 738.697 L14.479 733.158 Z" fill="#000000" fill-rule="nonzero" fill-opacity="1" /><path clip-path="url(#clip540)" d="M28.3562 728.257 L28.3562 722.4 L64.0042 722.4 L64.0042 728.257 L28.3562 728.257 M14.479 728.257 L14.479 722.4 L21.895 722.4 L21.895 728.257 L14.479 728.257 Z" fill="#000000" fill-rule="nonzero" fill-opacity="1" /><path clip-path="url(#clip540)" d="M18.2347 704.354 L28.3562 704.354 L28.3562 692.291 L32.9077 692.291 L32.9077 704.354 L52.2594 704.354 Q56.6199 704.354 57.8613 703.176 Q59.1026 701.966 59.1026 698.306 L59.1026 692.291 L64.0042 692.291 L64.0042 698.306 Q64.0042 705.086 61.4897 707.664 Q58.9434 710.242 52.2594 710.242 L32.9077 710.242 L32.9077 714.539 L28.3562 714.539 L28.3562 710.242 L18.2347 710.242 L18.2347 704.354 Z" fill="#000000" fill-rule="nonzero" fill-opacity="1" /><path clip-path="url(#clip540)" d="M374.345 16.7545 L374.345 25.383 Q370.214 21.5346 365.515 19.6307 Q360.856 17.7268 355.59 17.7268 Q345.219 17.7268 339.71 24.0867 Q334.201 30.4061 334.201 42.3968 Q334.201 54.3469 339.71 60.7069 Q345.219 67.0263 355.59 67.0263 Q360.856 67.0263 365.515 65.1223 Q370.214 63.2184 374.345 59.3701 L374.345 67.9175 Q370.052 70.8341 365.231 72.2924 Q360.451 73.7508 355.104 73.7508 Q341.371 73.7508 333.472 65.3654 Q325.573 56.9395 325.573 42.3968 Q325.573 27.8135 333.472 19.4281 Q341.371 11.0023 355.104 11.0023 Q360.532 11.0023 365.312 12.4606 Q370.133 13.8784 374.345 16.7545 Z" fill="#000000" fill-rule="nonzero" fill-opacity="1" /><path clip-path="url(#clip540)" d="M404.241 32.4315 Q398.246 32.4315 394.762 37.1306 Q391.278 41.7891 391.278 49.9314 Q391.278 58.0738 394.722 62.7728 Q398.205 67.4314 404.241 67.4314 Q410.196 67.4314 413.68 62.7323 Q417.164 58.0333 417.164 49.9314 Q417.164 41.8701 413.68 37.1711 Q410.196 32.4315 404.241 32.4315 M404.241 26.1121 Q413.963 26.1121 419.513 32.4315 Q425.063 38.7509 425.063 49.9314 Q425.063 61.0714 419.513 67.4314 Q413.963 73.7508 404.241 73.7508 Q394.478 73.7508 388.929 67.4314 Q383.42 61.0714 383.42 49.9314 Q383.42 38.7509 388.929 32.4315 Q394.478 26.1121 404.241 26.1121 Z" fill="#000000" fill-rule="nonzero" fill-opacity="1" /><path clip-path="url(#clip540)" d="M463.708 34.1734 Q462.453 33.4443 460.954 33.1202 Q459.495 32.7556 457.713 32.7556 Q451.394 32.7556 447.991 36.8875 Q444.629 40.9789 444.629 48.6757 L444.629 72.576 L437.135 72.576 L437.135 27.2059 L444.629 27.2059 L444.629 34.2544 Q446.978 30.1225 450.746 28.1376 Q454.513 26.1121 459.901 26.1121 Q460.67 26.1121 461.602 26.2337 Q462.534 26.3147 463.668 26.5172 L463.708 34.1734 Z" fill="#000000" fill-rule="nonzero" fill-opacity="1" /><path clip-path="url(#clip540)" d="M496.359 34.1734 Q495.103 33.4443 493.604 33.1202 Q492.146 32.7556 490.363 32.7556 Q484.044 32.7556 480.641 36.8875 Q477.279 40.9789 477.279 48.6757 L477.279 72.576 L469.785 72.576 L469.785 27.2059 L477.279 27.2059 L477.279 34.2544 Q479.628 30.1225 483.396 28.1376 Q487.163 26.1121 492.551 26.1121 Q493.321 26.1121 494.252 26.2337 Q495.184 26.3147 496.318 26.5172 L496.359 34.1734 Z" fill="#000000" fill-rule="nonzero" fill-opacity="1" /><path clip-path="url(#clip540)" d="M541.162 48.0275 L541.162 51.6733 L506.891 51.6733 Q507.377 59.3701 511.509 63.421 Q515.682 67.4314 523.095 67.4314 Q527.389 67.4314 531.399 66.3781 Q535.45 65.3249 539.42 63.2184 L539.42 70.267 Q535.409 71.9684 531.196 72.8596 Q526.984 73.7508 522.649 73.7508 Q511.793 73.7508 505.433 67.4314 Q499.113 61.1119 499.113 50.3365 Q499.113 39.1965 505.109 32.6746 Q511.145 26.1121 521.353 26.1121 Q530.508 26.1121 535.815 32.0264 Q541.162 37.9003 541.162 48.0275 M533.708 45.84 Q533.627 39.7232 530.265 36.0774 Q526.943 32.4315 521.434 32.4315 Q515.195 32.4315 511.428 35.9558 Q507.701 39.4801 507.134 45.8805 L533.708 45.84 Z" fill="#000000" fill-rule="nonzero" fill-opacity="1" /><path clip-path="url(#clip540)" d="M574.015 49.7694 Q564.981 49.7694 561.497 51.8354 Q558.013 53.9013 558.013 58.8839 Q558.013 62.8538 560.606 65.2034 Q563.239 67.5124 567.736 67.5124 Q573.934 67.5124 577.66 63.1374 Q581.428 58.7219 581.428 51.4303 L581.428 49.7694 L574.015 49.7694 M588.881 46.6907 L588.881 72.576 L581.428 72.576 L581.428 65.6895 Q578.876 69.8214 575.068 71.8063 Q571.26 73.7508 565.751 73.7508 Q558.783 73.7508 554.651 69.8619 Q550.56 65.9325 550.56 59.3701 Q550.56 51.7138 555.664 47.825 Q560.809 43.9361 570.976 43.9361 L581.428 43.9361 L581.428 43.2069 Q581.428 38.0623 578.025 35.2672 Q574.663 32.4315 568.546 32.4315 Q564.657 32.4315 560.971 33.3632 Q557.284 34.295 553.882 36.1584 L553.882 29.2718 Q557.973 27.692 561.821 26.9223 Q565.67 26.1121 569.316 26.1121 Q579.159 26.1121 584.02 31.2163 Q588.881 36.3204 588.881 46.6907 Z" fill="#000000" fill-rule="nonzero" fill-opacity="1" /><path clip-path="url(#clip540)" d="M604.234 9.54393 L611.688 9.54393 L611.688 72.576 L604.234 72.576 L604.234 9.54393 Z" fill="#000000" fill-rule="nonzero" fill-opacity="1" /><path clip-path="url(#clip540)" d="M634.657 14.324 L634.657 27.2059 L650.01 27.2059 L650.01 32.9987 L634.657 32.9987 L634.657 57.6282 Q634.657 63.1779 636.155 64.7578 Q637.695 66.3376 642.353 66.3376 L650.01 66.3376 L650.01 72.576 L642.353 72.576 Q633.725 72.576 630.444 69.3758 Q627.162 66.1351 627.162 57.6282 L627.162 32.9987 L621.694 32.9987 L621.694 27.2059 L627.162 27.2059 L627.162 14.324 L634.657 14.324 Z" fill="#000000" fill-rule="nonzero" fill-opacity="1" /><path clip-path="url(#clip540)" d="M659.813 27.2059 L667.266 27.2059 L667.266 72.576 L659.813 72.576 L659.813 27.2059 M659.813 9.54393 L667.266 9.54393 L667.266 18.9825 L659.813 18.9825 L659.813 9.54393 Z" fill="#000000" fill-rule="nonzero" fill-opacity="1" /><path clip-path="url(#clip540)" d="M700.443 32.4315 Q694.448 32.4315 690.964 37.1306 Q687.48 41.7891 687.48 49.9314 Q687.48 58.0738 690.924 62.7728 Q694.407 67.4314 700.443 67.4314 Q706.398 67.4314 709.882 62.7323 Q713.366 58.0333 713.366 49.9314 Q713.366 41.8701 709.882 37.1711 Q706.398 32.4315 700.443 32.4315 M700.443 26.1121 Q710.165 26.1121 715.715 32.4315 Q721.265 38.7509 721.265 49.9314 Q721.265 61.0714 715.715 67.4314 Q710.165 73.7508 700.443 73.7508 Q690.681 73.7508 685.131 67.4314 Q679.622 61.0714 679.622 49.9314 Q679.622 38.7509 685.131 32.4315 Q690.681 26.1121 700.443 26.1121 Z" fill="#000000" fill-rule="nonzero" fill-opacity="1" /><path clip-path="url(#clip540)" d="M771.334 45.1919 L771.334 72.576 L763.88 72.576 L763.88 45.4349 Q763.88 38.994 761.369 35.7938 Q758.857 32.5936 753.834 32.5936 Q747.798 32.5936 744.315 36.4419 Q740.831 40.2903 740.831 46.9338 L740.831 72.576 L733.337 72.576 L733.337 27.2059 L740.831 27.2059 L740.831 34.2544 Q743.504 30.163 747.11 28.1376 Q750.756 26.1121 755.495 26.1121 Q763.313 26.1121 767.324 30.9732 Q771.334 35.7938 771.334 45.1919 Z" fill="#000000" fill-rule="nonzero" fill-opacity="1" /><path clip-path="url(#clip540)" d="M845.142 49.9314 Q845.142 41.7081 841.739 37.0496 Q838.377 32.3505 832.462 32.3505 Q826.548 32.3505 823.145 37.0496 Q819.783 41.7081 819.783 49.9314 Q819.783 58.1548 823.145 62.8538 Q826.548 67.5124 832.462 67.5124 Q838.377 67.5124 841.739 62.8538 Q845.142 58.1548 845.142 49.9314 M819.783 34.0924 Q822.132 30.0415 825.697 28.0971 Q829.303 26.1121 834.285 26.1121 Q842.549 26.1121 847.694 32.6746 Q852.879 39.2371 852.879 49.9314 Q852.879 60.6258 847.694 67.1883 Q842.549 73.7508 834.285 73.7508 Q829.303 73.7508 825.697 71.8063 Q822.132 69.8214 819.783 65.7705 L819.783 72.576 L812.289 72.576 L812.289 9.54393 L819.783 9.54393 L819.783 34.0924 Z" fill="#000000" fill-rule="nonzero" fill-opacity="1" /><path clip-path="url(#clip540)" d="M904.042 48.0275 L904.042 51.6733 L869.771 51.6733 Q870.257 59.3701 874.389 63.421 Q878.562 67.4314 885.975 67.4314 Q890.269 67.4314 894.279 66.3781 Q898.33 65.3249 902.3 63.2184 L902.3 70.267 Q898.289 71.9684 894.076 72.8596 Q889.864 73.7508 885.529 73.7508 Q874.673 73.7508 868.313 67.4314 Q861.993 61.1119 861.993 50.3365 Q861.993 39.1965 867.989 32.6746 Q874.025 26.1121 884.233 26.1121 Q893.388 26.1121 898.695 32.0264 Q904.042 37.9003 904.042 48.0275 M896.588 45.84 Q896.507 39.7232 893.145 36.0774 Q889.823 32.4315 884.314 32.4315 Q878.075 32.4315 874.308 35.9558 Q870.581 39.4801 870.014 45.8805 L896.588 45.84 Z" fill="#000000" fill-rule="nonzero" fill-opacity="1" /><path clip-path="url(#clip540)" d="M923.648 14.324 L923.648 27.2059 L939.001 27.2059 L939.001 32.9987 L923.648 32.9987 L923.648 57.6282 Q923.648 63.1779 925.147 64.7578 Q926.686 66.3376 931.345 66.3376 L939.001 66.3376 L939.001 72.576 L931.345 72.576 Q922.716 72.576 919.435 69.3758 Q916.154 66.1351 916.154 57.6282 L916.154 32.9987 L910.685 32.9987 L910.685 27.2059 L916.154 27.2059 L916.154 14.324 L923.648 14.324 Z" fill="#000000" fill-rule="nonzero" fill-opacity="1" /><path clip-path="url(#clip540)" d="M944.47 27.2059 L951.923 27.2059 L961.24 62.6108 L970.517 27.2059 L979.308 27.2059 L988.625 62.6108 L997.901 27.2059 L1005.35 27.2059 L993.486 72.576 L984.695 72.576 L974.933 35.3887 L965.129 72.576 L956.339 72.576 L944.47 27.2059 Z" fill="#000000" fill-rule="nonzero" fill-opacity="1" /><path clip-path="url(#clip540)" d="M1055.46 48.0275 L1055.46 51.6733 L1021.19 51.6733 Q1021.68 59.3701 1025.81 63.421 Q1029.98 67.4314 1037.4 67.4314 Q1041.69 67.4314 1045.7 66.3781 Q1049.75 65.3249 1053.72 63.2184 L1053.72 70.267 Q1049.71 71.9684 1045.5 72.8596 Q1041.29 73.7508 1036.95 73.7508 Q1026.1 73.7508 1019.74 67.4314 Q1013.42 61.1119 1013.42 50.3365 Q1013.42 39.1965 1019.41 32.6746 Q1025.45 26.1121 1035.66 26.1121 Q1044.81 26.1121 1050.12 32.0264 Q1055.46 37.9003 1055.46 48.0275 M1048.01 45.84 Q1047.93 39.7232 1044.57 36.0774 Q1041.25 32.4315 1035.74 32.4315 Q1029.5 32.4315 1025.73 35.9558 Q1022 39.4801 1021.44 45.8805 L1048.01 45.84 Z" fill="#000000" fill-rule="nonzero" fill-opacity="1" /><path clip-path="url(#clip540)" d="M1106.51 48.0275 L1106.51 51.6733 L1072.24 51.6733 Q1072.72 59.3701 1076.85 63.421 Q1081.03 67.4314 1088.44 67.4314 Q1092.73 67.4314 1096.74 66.3781 Q1100.79 65.3249 1104.76 63.2184 L1104.76 70.267 Q1100.75 71.9684 1096.54 72.8596 Q1092.33 73.7508 1087.99 73.7508 Q1077.14 73.7508 1070.78 67.4314 Q1064.46 61.1119 1064.46 50.3365 Q1064.46 39.1965 1070.45 32.6746 Q1076.49 26.1121 1086.7 26.1121 Q1095.85 26.1121 1101.16 32.0264 Q1106.51 37.9003 1106.51 48.0275 M1099.05 45.84 Q1098.97 39.7232 1095.61 36.0774 Q1092.29 32.4315 1086.78 32.4315 Q1080.54 32.4315 1076.77 35.9558 Q1073.05 39.4801 1072.48 45.8805 L1099.05 45.84 Z" fill="#000000" fill-rule="nonzero" fill-opacity="1" /><path clip-path="url(#clip540)" d="M1156.45 45.1919 L1156.45 72.576 L1149 72.576 L1149 45.4349 Q1149 38.994 1146.49 35.7938 Q1143.98 32.5936 1138.95 32.5936 Q1132.92 32.5936 1129.43 36.4419 Q1125.95 40.2903 1125.95 46.9338 L1125.95 72.576 L1118.46 72.576 L1118.46 27.2059 L1125.95 27.2059 L1125.95 34.2544 Q1128.62 30.163 1132.23 28.1376 Q1135.87 26.1121 1140.61 26.1121 Q1148.43 26.1121 1152.44 30.9732 Q1156.45 35.7938 1156.45 45.1919 Z" fill="#000000" fill-rule="nonzero" fill-opacity="1" /><path clip-path="url(#clip540)" d="M1209.03 45.1919 L1209.03 72.576 L1201.58 72.576 L1201.58 45.4349 Q1201.58 38.994 1199.07 35.7938 Q1196.56 32.5936 1191.53 32.5936 Q1185.5 32.5936 1182.01 36.4419 Q1178.53 40.2903 1178.53 46.9338 L1178.53 72.576 L1171.04 72.576 L1171.04 27.2059 L1178.53 27.2059 L1178.53 34.2544 Q1181.2 30.163 1184.81 28.1376 Q1188.46 26.1121 1193.2 26.1121 Q1201.01 26.1121 1205.02 30.9732 Q1209.03 35.7938 1209.03 45.1919 Z" fill="#000000" fill-rule="nonzero" fill-opacity="1" /><path clip-path="url(#clip540)" d="M1250.27 9.54393 L1257.73 9.54393 L1257.73 72.576 L1250.27 72.576 L1250.27 9.54393 Z" fill="#000000" fill-rule="nonzero" fill-opacity="1" /><path clip-path="url(#clip540)" d="M1312.13 48.0275 L1312.13 51.6733 L1277.86 51.6733 Q1278.35 59.3701 1282.48 63.421 Q1286.65 67.4314 1294.06 67.4314 Q1298.36 67.4314 1302.37 66.3781 Q1306.42 65.3249 1310.39 63.2184 L1310.39 70.267 Q1306.38 71.9684 1302.16 72.8596 Q1297.95 73.7508 1293.62 73.7508 Q1282.76 73.7508 1276.4 67.4314 Q1270.08 61.1119 1270.08 50.3365 Q1270.08 39.1965 1276.08 32.6746 Q1282.11 26.1121 1292.32 26.1121 Q1301.48 26.1121 1306.78 32.0264 Q1312.13 37.9003 1312.13 48.0275 M1304.68 45.84 Q1304.6 39.7232 1301.23 36.0774 Q1297.91 32.4315 1292.4 32.4315 Q1286.16 32.4315 1282.4 35.9558 Q1278.67 39.4801 1278.1 45.8805 L1304.68 45.84 Z" fill="#000000" fill-rule="nonzero" fill-opacity="1" /><path clip-path="url(#clip540)" d="M1344.98 49.7694 Q1335.95 49.7694 1332.47 51.8354 Q1328.98 53.9013 1328.98 58.8839 Q1328.98 62.8538 1331.57 65.2034 Q1334.21 67.5124 1338.7 67.5124 Q1344.9 67.5124 1348.63 63.1374 Q1352.4 58.7219 1352.4 51.4303 L1352.4 49.7694 L1344.98 49.7694 M1359.85 46.6907 L1359.85 72.576 L1352.4 72.576 L1352.4 65.6895 Q1349.84 69.8214 1346.04 71.8063 Q1342.23 73.7508 1336.72 73.7508 Q1329.75 73.7508 1325.62 69.8619 Q1321.53 65.9325 1321.53 59.3701 Q1321.53 51.7138 1326.63 47.825 Q1331.78 43.9361 1341.94 43.9361 L1352.4 43.9361 L1352.4 43.2069 Q1352.4 38.0623 1348.99 35.2672 Q1345.63 32.4315 1339.51 32.4315 Q1335.63 32.4315 1331.94 33.3632 Q1328.25 34.295 1324.85 36.1584 L1324.85 29.2718 Q1328.94 27.692 1332.79 26.9223 Q1336.64 26.1121 1340.28 26.1121 Q1350.13 26.1121 1354.99 31.2163 Q1359.85 36.3204 1359.85 46.6907 Z" fill="#000000" fill-rule="nonzero" fill-opacity="1" /><path clip-path="url(#clip540)" d="M1405.06 34.0924 L1405.06 9.54393 L1412.51 9.54393 L1412.51 72.576 L1405.06 72.576 L1405.06 65.7705 Q1402.71 69.8214 1399.1 71.8063 Q1395.54 73.7508 1390.51 73.7508 Q1382.29 73.7508 1377.11 67.1883 Q1371.96 60.6258 1371.96 49.9314 Q1371.96 39.2371 1377.11 32.6746 Q1382.29 26.1121 1390.51 26.1121 Q1395.54 26.1121 1399.1 28.0971 Q1402.71 30.0415 1405.06 34.0924 M1379.66 49.9314 Q1379.66 58.1548 1383.02 62.8538 Q1386.42 67.5124 1392.34 67.5124 Q1398.25 67.5124 1401.65 62.8538 Q1405.06 58.1548 1405.06 49.9314 Q1405.06 41.7081 1401.65 37.0496 Q1398.25 32.3505 1392.34 32.3505 Q1386.42 32.3505 1383.02 37.0496 Q1379.66 41.7081 1379.66 49.9314 Z" fill="#000000" fill-rule="nonzero" fill-opacity="1" /><path clip-path="url(#clip540)" d="M1466.67 48.0275 L1466.67 51.6733 L1432.4 51.6733 Q1432.89 59.3701 1437.02 63.421 Q1441.19 67.4314 1448.6 67.4314 Q1452.9 67.4314 1456.91 66.3781 Q1460.96 65.3249 1464.93 63.2184 L1464.93 70.267 Q1460.92 71.9684 1456.71 72.8596 Q1452.49 73.7508 1448.16 73.7508 Q1437.3 73.7508 1430.94 67.4314 Q1424.62 61.1119 1424.62 50.3365 Q1424.62 39.1965 1430.62 32.6746 Q1436.65 26.1121 1446.86 26.1121 Q1456.02 26.1121 1461.32 32.0264 Q1466.67 37.9003 1466.67 48.0275 M1459.22 45.84 Q1459.14 39.7232 1455.77 36.0774 Q1452.45 32.4315 1446.94 32.4315 Q1440.71 32.4315 1436.94 35.9558 Q1433.21 39.4801 1432.64 45.8805 L1459.22 45.84 Z" fill="#000000" fill-rule="nonzero" fill-opacity="1" /><path clip-path="url(#clip540)" d="M1505.2 34.1734 Q1503.94 33.4443 1502.44 33.1202 Q1500.98 32.7556 1499.2 32.7556 Q1492.88 32.7556 1489.48 36.8875 Q1486.12 40.9789 1486.12 48.6757 L1486.12 72.576 L1478.62 72.576 L1478.62 27.2059 L1486.12 27.2059 L1486.12 34.2544 Q1488.47 30.1225 1492.23 28.1376 Q1496 26.1121 1501.39 26.1121 Q1502.16 26.1121 1503.09 26.2337 Q1504.02 26.3147 1505.16 26.5172 L1505.2 34.1734 Z" fill="#000000" fill-rule="nonzero" fill-opacity="1" /><path clip-path="url(#clip540)" d="M1520.06 12.096 L1520.06 34.5785 L1513.18 34.5785 L1513.18 12.096 L1520.06 12.096 Z" fill="#000000" fill-rule="nonzero" fill-opacity="1" /><path clip-path="url(#clip540)" d="M1564.74 28.5427 L1564.74 35.5912 Q1561.58 33.9709 1558.18 33.1607 Q1554.78 32.3505 1551.13 32.3505 Q1545.58 32.3505 1542.79 34.0519 Q1540.03 35.7533 1540.03 39.156 Q1540.03 41.7486 1542.02 43.2475 Q1544 44.7058 1550 46.0426 L1552.55 46.6097 Q1560.49 48.3111 1563.81 51.4303 Q1567.17 54.509 1567.17 60.0587 Q1567.17 66.3781 1562.15 70.0644 Q1557.17 73.7508 1548.42 73.7508 Q1544.77 73.7508 1540.8 73.0216 Q1536.87 72.3329 1532.5 70.9151 L1532.5 63.2184 Q1536.63 65.3654 1540.64 66.4591 Q1544.65 67.5124 1548.58 67.5124 Q1553.85 67.5124 1556.68 65.73 Q1559.52 63.9071 1559.52 60.6258 Q1559.52 57.5877 1557.45 55.9673 Q1555.43 54.3469 1548.5 52.8481 L1545.91 52.2405 Q1538.98 50.7821 1535.9 47.7845 Q1532.82 44.7463 1532.82 39.4801 Q1532.82 33.0797 1537.36 29.5959 Q1541.9 26.1121 1550.24 26.1121 Q1554.37 26.1121 1558.02 26.7198 Q1561.67 27.3274 1564.74 28.5427 Z" fill="#000000" fill-rule="nonzero" fill-opacity="1" /><path clip-path="url(#clip540)" d="M1612.63 65.7705 L1612.63 89.8329 L1605.13 89.8329 L1605.13 27.2059 L1612.63 27.2059 L1612.63 34.0924 Q1614.98 30.0415 1618.54 28.0971 Q1622.15 26.1121 1627.13 26.1121 Q1635.39 26.1121 1640.54 32.6746 Q1645.72 39.2371 1645.72 49.9314 Q1645.72 60.6258 1640.54 67.1883 Q1635.39 73.7508 1627.13 73.7508 Q1622.15 73.7508 1618.54 71.8063 Q1614.98 69.8214 1612.63 65.7705 M1637.98 49.9314 Q1637.98 41.7081 1634.58 37.0496 Q1631.22 32.3505 1625.31 32.3505 Q1619.39 32.3505 1615.99 37.0496 Q1612.63 41.7081 1612.63 49.9314 Q1612.63 58.1548 1615.99 62.8538 Q1619.39 67.5124 1625.31 67.5124 Q1631.22 67.5124 1634.58 62.8538 Q1637.98 58.1548 1637.98 49.9314 Z" fill="#000000" fill-rule="nonzero" fill-opacity="1" /><path clip-path="url(#clip540)" d="M1684.37 34.1734 Q1683.11 33.4443 1681.61 33.1202 Q1680.15 32.7556 1678.37 32.7556 Q1672.05 32.7556 1668.65 36.8875 Q1665.29 40.9789 1665.29 48.6757 L1665.29 72.576 L1657.79 72.576 L1657.79 27.2059 L1665.29 27.2059 L1665.29 34.2544 Q1667.64 30.1225 1671.4 28.1376 Q1675.17 26.1121 1680.56 26.1121 Q1681.33 26.1121 1682.26 26.2337 Q1683.19 26.3147 1684.33 26.5172 L1684.37 34.1734 Z" fill="#000000" fill-rule="nonzero" fill-opacity="1" /><path clip-path="url(#clip540)" d="M1692.19 27.2059 L1699.64 27.2059 L1699.64 72.576 L1692.19 72.576 L1692.19 27.2059 M1692.19 9.54393 L1699.64 9.54393 L1699.64 18.9825 L1692.19 18.9825 L1692.19 9.54393 Z" fill="#000000" fill-rule="nonzero" fill-opacity="1" /><path clip-path="url(#clip540)" d="M1747.89 28.9478 L1747.89 35.9153 Q1744.73 34.1734 1741.53 33.3227 Q1738.37 32.4315 1735.13 32.4315 Q1727.87 32.4315 1723.86 37.0496 Q1719.85 41.6271 1719.85 49.9314 Q1719.85 58.2358 1723.86 62.8538 Q1727.87 67.4314 1735.13 67.4314 Q1738.37 67.4314 1741.53 66.5807 Q1744.73 65.6895 1747.89 63.9476 L1747.89 70.8341 Q1744.77 72.2924 1741.4 73.0216 Q1738.08 73.7508 1734.32 73.7508 Q1724.07 73.7508 1718.03 67.3098 Q1711.99 60.8689 1711.99 49.9314 Q1711.99 38.832 1718.07 32.472 Q1724.19 26.1121 1734.8 26.1121 Q1738.24 26.1121 1741.53 26.8413 Q1744.81 27.5299 1747.89 28.9478 Z" fill="#000000" fill-rule="nonzero" fill-opacity="1" /><path clip-path="url(#clip540)" d="M1799.66 48.0275 L1799.66 51.6733 L1765.39 51.6733 Q1765.87 59.3701 1770 63.421 Q1774.18 67.4314 1781.59 67.4314 Q1785.88 67.4314 1789.89 66.3781 Q1793.94 65.3249 1797.91 63.2184 L1797.91 70.267 Q1793.9 71.9684 1789.69 72.8596 Q1785.48 73.7508 1781.14 73.7508 Q1770.29 73.7508 1763.93 67.4314 Q1757.61 61.1119 1757.61 50.3365 Q1757.61 39.1965 1763.6 32.6746 Q1769.64 26.1121 1779.85 26.1121 Q1789 26.1121 1794.31 32.0264 Q1799.66 37.9003 1799.66 48.0275 M1792.2 45.84 Q1792.12 39.7232 1788.76 36.0774 Q1785.44 32.4315 1779.93 32.4315 Q1773.69 32.4315 1769.92 35.9558 Q1766.2 39.4801 1765.63 45.8805 L1792.2 45.84 Z" fill="#000000" fill-rule="nonzero" fill-opacity="1" /><path clip-path="url(#clip540)" d="M1858.88 49.7694 Q1849.85 49.7694 1846.36 51.8354 Q1842.88 53.9013 1842.88 58.8839 Q1842.88 62.8538 1845.47 65.2034 Q1848.1 67.5124 1852.6 67.5124 Q1858.8 67.5124 1862.53 63.1374 Q1866.29 58.7219 1866.29 51.4303 L1866.29 49.7694 L1858.88 49.7694 M1873.75 46.6907 L1873.75 72.576 L1866.29 72.576 L1866.29 65.6895 Q1863.74 69.8214 1859.93 71.8063 Q1856.13 73.7508 1850.62 73.7508 Q1843.65 73.7508 1839.52 69.8619 Q1835.43 65.9325 1835.43 59.3701 Q1835.43 51.7138 1840.53 47.825 Q1845.67 43.9361 1855.84 43.9361 L1866.29 43.9361 L1866.29 43.2069 Q1866.29 38.0623 1862.89 35.2672 Q1859.53 32.4315 1853.41 32.4315 Q1849.52 32.4315 1845.84 33.3632 Q1842.15 34.295 1838.75 36.1584 L1838.75 29.2718 Q1842.84 27.692 1846.69 26.9223 Q1850.54 26.1121 1854.18 26.1121 Q1864.03 26.1121 1868.89 31.2163 Q1873.75 36.3204 1873.75 46.6907 Z" fill="#000000" fill-rule="nonzero" fill-opacity="1" /><path clip-path="url(#clip540)" d="M1926.81 45.1919 L1926.81 72.576 L1919.36 72.576 L1919.36 45.4349 Q1919.36 38.994 1916.85 35.7938 Q1914.34 32.5936 1909.31 32.5936 Q1903.28 32.5936 1899.79 36.4419 Q1896.31 40.2903 1896.31 46.9338 L1896.31 72.576 L1888.82 72.576 L1888.82 27.2059 L1896.31 27.2059 L1896.31 34.2544 Q1898.98 30.163 1902.59 28.1376 Q1906.24 26.1121 1910.97 26.1121 Q1918.79 26.1121 1922.8 30.9732 Q1926.81 35.7938 1926.81 45.1919 Z" fill="#000000" fill-rule="nonzero" fill-opacity="1" /><path clip-path="url(#clip540)" d="M1971.54 34.0924 L1971.54 9.54393 L1978.99 9.54393 L1978.99 72.576 L1971.54 72.576 L1971.54 65.7705 Q1969.19 69.8214 1965.58 71.8063 Q1962.02 73.7508 1956.99 73.7508 Q1948.77 73.7508 1943.58 67.1883 Q1938.44 60.6258 1938.44 49.9314 Q1938.44 39.2371 1943.58 32.6746 Q1948.77 26.1121 1956.99 26.1121 Q1962.02 26.1121 1965.58 28.0971 Q1969.19 30.0415 1971.54 34.0924 M1946.14 49.9314 Q1946.14 58.1548 1949.5 62.8538 Q1952.9 67.5124 1958.82 67.5124 Q1964.73 67.5124 1968.13 62.8538 Q1971.54 58.1548 1971.54 49.9314 Q1971.54 41.7081 1968.13 37.0496 Q1964.73 32.3505 1958.82 32.3505 Q1952.9 32.3505 1949.5 37.0496 Q1946.14 41.7081 1946.14 49.9314 Z" fill="#000000" fill-rule="nonzero" fill-opacity="1" /><path clip-path="url(#clip540)" d="M2027.92 65.7705 L2027.92 89.8329 L2020.43 89.8329 L2020.43 27.2059 L2027.92 27.2059 L2027.92 34.0924 Q2030.27 30.0415 2033.84 28.0971 Q2037.44 26.1121 2042.43 26.1121 Q2050.69 26.1121 2055.84 32.6746 Q2061.02 39.2371 2061.02 49.9314 Q2061.02 60.6258 2055.84 67.1883 Q2050.69 73.7508 2042.43 73.7508 Q2037.44 73.7508 2033.84 71.8063 Q2030.27 69.8214 2027.92 65.7705 M2053.28 49.9314 Q2053.28 41.7081 2049.88 37.0496 Q2046.52 32.3505 2040.6 32.3505 Q2034.69 32.3505 2031.29 37.0496 Q2027.92 41.7081 2027.92 49.9314 Q2027.92 58.1548 2031.29 62.8538 Q2034.69 67.5124 2040.6 67.5124 Q2046.52 67.5124 2049.88 62.8538 Q2053.28 58.1548 2053.28 49.9314 Z" fill="#000000" fill-rule="nonzero" fill-opacity="1" /><path clip-path="url(#clip540)" d="M2099.67 34.1734 Q2098.41 33.4443 2096.91 33.1202 Q2095.45 32.7556 2093.67 32.7556 Q2087.35 32.7556 2083.95 36.8875 Q2080.59 40.9789 2080.59 48.6757 L2080.59 72.576 L2073.09 72.576 L2073.09 27.2059 L2080.59 27.2059 L2080.59 34.2544 Q2082.94 30.1225 2086.7 28.1376 Q2090.47 26.1121 2095.86 26.1121 Q2096.63 26.1121 2097.56 26.2337 Q2098.49 26.3147 2099.63 26.5172 L2099.67 34.1734 Z" fill="#000000" fill-rule="nonzero" fill-opacity="1" /><path clip-path="url(#clip540)" d="M2123.24 32.4315 Q2117.25 32.4315 2113.76 37.1306 Q2110.28 41.7891 2110.28 49.9314 Q2110.28 58.0738 2113.72 62.7728 Q2117.21 67.4314 2123.24 67.4314 Q2129.2 67.4314 2132.68 62.7323 Q2136.16 58.0333 2136.16 49.9314 Q2136.16 41.8701 2132.68 37.1711 Q2129.2 32.4315 2123.24 32.4315 M2123.24 26.1121 Q2132.96 26.1121 2138.51 32.4315 Q2144.06 38.7509 2144.06 49.9314 Q2144.06 61.0714 2138.51 67.4314 Q2132.96 73.7508 2123.24 73.7508 Q2113.48 73.7508 2107.93 67.4314 Q2102.42 61.0714 2102.42 49.9314 Q2102.42 38.7509 2107.93 32.4315 Q2113.48 26.1121 2123.24 26.1121 Z" fill="#000000" fill-rule="nonzero" fill-opacity="1" /><path clip-path="url(#clip540)" d="M2179.39 9.54393 L2179.39 15.7418 L2172.26 15.7418 Q2168.25 15.7418 2166.67 17.3622 Q2165.13 18.9825 2165.13 23.1955 L2165.13 27.2059 L2177.4 27.2059 L2177.4 32.9987 L2165.13 32.9987 L2165.13 72.576 L2157.63 72.576 L2157.63 32.9987 L2150.5 32.9987 L2150.5 27.2059 L2157.63 27.2059 L2157.63 24.0462 Q2157.63 16.471 2161.16 13.0277 Q2164.68 9.54393 2172.34 9.54393 L2179.39 9.54393 Z" fill="#000000" fill-rule="nonzero" fill-opacity="1" /><path clip-path="url(#clip540)" d="M2185.63 27.2059 L2193.08 27.2059 L2193.08 72.576 L2185.63 72.576 L2185.63 27.2059 M2185.63 9.54393 L2193.08 9.54393 L2193.08 18.9825 L2185.63 18.9825 L2185.63 9.54393 Z" fill="#000000" fill-rule="nonzero" fill-opacity="1" /><path clip-path="url(#clip540)" d="M2216.05 14.324 L2216.05 27.2059 L2231.4 27.2059 L2231.4 32.9987 L2216.05 32.9987 L2216.05 57.6282 Q2216.05 63.1779 2217.55 64.7578 Q2219.09 66.3376 2223.75 66.3376 L2231.4 66.3376 L2231.4 72.576 L2223.75 72.576 Q2215.12 72.576 2211.84 69.3758 Q2208.55 66.1351 2208.55 57.6282 L2208.55 32.9987 L2203.09 32.9987 L2203.09 27.2059 L2208.55 27.2059 L2208.55 14.324 L2216.05 14.324 Z" fill="#000000" fill-rule="nonzero" fill-opacity="1" /><circle clip-path="url(#clip542)" cx="983.466" cy="985.412" r="14.4" fill="#009af9" fill-rule="evenodd" fill-opacity="1" stroke="#000000" stroke-opacity="1" stroke-width="3.2"/>
<circle clip-path="url(#clip542)" cx="434.4" cy="1306.75" r="14.4" fill="#009af9" fill-rule="evenodd" fill-opacity="1" stroke="#000000" stroke-opacity="1" stroke-width="3.2"/>
<circle clip-path="url(#clip542)" cx="1488.34" cy="673.081" r="14.4" fill="#009af9" fill-rule="evenodd" fill-opacity="1" stroke="#000000" stroke-opacity="1" stroke-width="3.2"/>
<circle clip-path="url(#clip542)" cx="300.375" cy="1422.64" r="14.4" fill="#009af9" fill-rule="evenodd" fill-opacity="1" stroke="#000000" stroke-opacity="1" stroke-width="3.2"/>
<circle clip-path="url(#clip542)" cx="1449.85" cy="673.073" r="14.4" fill="#009af9" fill-rule="evenodd" fill-opacity="1" stroke="#000000" stroke-opacity="1" stroke-width="3.2"/>
<circle clip-path="url(#clip542)" cx="575.612" cy="1213.74" r="14.4" fill="#009af9" fill-rule="evenodd" fill-opacity="1" stroke="#000000" stroke-opacity="1" stroke-width="3.2"/>
<circle clip-path="url(#clip542)" cx="536.696" cy="1266.41" r="14.4" fill="#009af9" fill-rule="evenodd" fill-opacity="1" stroke="#000000" stroke-opacity="1" stroke-width="3.2"/>
<circle clip-path="url(#clip542)" cx="1745.23" cy="480.649" r="14.4" fill="#009af9" fill-rule="evenodd" fill-opacity="1" stroke="#000000" stroke-opacity="1" stroke-width="3.2"/>
<circle clip-path="url(#clip542)" cx="1053.28" cy="934.789" r="14.4" fill="#009af9" fill-rule="evenodd" fill-opacity="1" stroke="#000000" stroke-opacity="1" stroke-width="3.2"/>
<circle clip-path="url(#clip542)" cx="1995.71" cy="333.019" r="14.4" fill="#009af9" fill-rule="evenodd" fill-opacity="1" stroke="#000000" stroke-opacity="1" stroke-width="3.2"/>
<circle clip-path="url(#clip542)" cx="809.58" cy="1070.1" r="14.4" fill="#009af9" fill-rule="evenodd" fill-opacity="1" stroke="#000000" stroke-opacity="1" stroke-width="3.2"/>
<circle clip-path="url(#clip542)" cx="1038.42" cy="947.413" r="14.4" fill="#009af9" fill-rule="evenodd" fill-opacity="1" stroke="#000000" stroke-opacity="1" stroke-width="3.2"/>
<circle clip-path="url(#clip542)" cx="1424.18" cy="708.863" r="14.4" fill="#009af9" fill-rule="evenodd" fill-opacity="1" stroke="#000000" stroke-opacity="1" stroke-width="3.2"/>
<circle clip-path="url(#clip542)" cx="1013.06" cy="963.123" r="14.4" fill="#009af9" fill-rule="evenodd" fill-opacity="1" stroke="#000000" stroke-opacity="1" stroke-width="3.2"/>
<circle clip-path="url(#clip542)" cx="939.241" cy="1008.3" r="14.4" fill="#009af9" fill-rule="evenodd" fill-opacity="1" stroke="#000000" stroke-opacity="1" stroke-width="3.2"/>
<circle clip-path="url(#clip542)" cx="920.056" cy="989.122" r="14.4" fill="#009af9" fill-rule="evenodd" fill-opacity="1" stroke="#000000" stroke-opacity="1" stroke-width="3.2"/>
<circle clip-path="url(#clip542)" cx="403.25" cy="1331.52" r="14.4" fill="#009af9" fill-rule="evenodd" fill-opacity="1" stroke="#000000" stroke-opacity="1" stroke-width="3.2"/>
<circle clip-path="url(#clip542)" cx="2275.19" cy="178.237" r="14.4" fill="#009af9" fill-rule="evenodd" fill-opacity="1" stroke="#000000" stroke-opacity="1" stroke-width="3.2"/>
<circle clip-path="url(#clip542)" cx="987.694" cy="990.156" r="14.4" fill="#009af9" fill-rule="evenodd" fill-opacity="1" stroke="#000000" stroke-opacity="1" stroke-width="3.2"/>
<circle clip-path="url(#clip542)" cx="1322.24" cy="771.523" r="14.4" fill="#009af9" fill-rule="evenodd" fill-opacity="1" stroke="#000000" stroke-opacity="1" stroke-width="3.2"/>
<circle clip-path="url(#clip542)" cx="948.957" cy="985.824" r="14.4" fill="#009af9" fill-rule="evenodd" fill-opacity="1" stroke="#000000" stroke-opacity="1" stroke-width="3.2"/>
<circle clip-path="url(#clip542)" cx="730.474" cy="1127.28" r="14.4" fill="#009af9" fill-rule="evenodd" fill-opacity="1" stroke="#000000" stroke-opacity="1" stroke-width="3.2"/>
<circle clip-path="url(#clip542)" cx="788.587" cy="1067.17" r="14.4" fill="#009af9" fill-rule="evenodd" fill-opacity="1" stroke="#000000" stroke-opacity="1" stroke-width="3.2"/>
<circle clip-path="url(#clip542)" cx="378.383" cy="1369.62" r="14.4" fill="#009af9" fill-rule="evenodd" fill-opacity="1" stroke="#000000" stroke-opacity="1" stroke-width="3.2"/>
<circle clip-path="url(#clip542)" cx="1008.83" cy="969.967" r="14.4" fill="#009af9" fill-rule="evenodd" fill-opacity="1" stroke="#000000" stroke-opacity="1" stroke-width="3.2"/>
<circle clip-path="url(#clip542)" cx="2180.65" cy="216.316" r="14.4" fill="#009af9" fill-rule="evenodd" fill-opacity="1" stroke="#000000" stroke-opacity="1" stroke-width="3.2"/>
<circle clip-path="url(#clip542)" cx="911.601" cy="1036.81" r="14.4" fill="#009af9" fill-rule="evenodd" fill-opacity="1" stroke="#000000" stroke-opacity="1" stroke-width="3.2"/>
<circle clip-path="url(#clip542)" cx="2135.77" cy="241.953" r="14.4" fill="#009af9" fill-rule="evenodd" fill-opacity="1" stroke="#000000" stroke-opacity="1" stroke-width="3.2"/>
<circle clip-path="url(#clip542)" cx="928.511" cy="1002.84" r="14.4" fill="#009af9" fill-rule="evenodd" fill-opacity="1" stroke="#000000" stroke-opacity="1" stroke-width="3.2"/>
<circle clip-path="url(#clip542)" cx="1880.53" cy="424.092" r="14.4" fill="#009af9" fill-rule="evenodd" fill-opacity="1" stroke="#000000" stroke-opacity="1" stroke-width="3.2"/>
<circle clip-path="url(#clip542)" cx="2046.39" cy="319.835" r="14.4" fill="#009af9" fill-rule="evenodd" fill-opacity="1" stroke="#000000" stroke-opacity="1" stroke-width="3.2"/>
<circle clip-path="url(#clip542)" cx="991.921" cy="943.824" r="14.4" fill="#009af9" fill-rule="evenodd" fill-opacity="1" stroke="#000000" stroke-opacity="1" stroke-width="3.2"/>
<circle clip-path="url(#clip542)" cx="355.395" cy="1384.85" r="14.4" fill="#009af9" fill-rule="evenodd" fill-opacity="1" stroke="#000000" stroke-opacity="1" stroke-width="3.2"/>
<circle clip-path="url(#clip542)" cx="886.237" cy="1044.34" r="14.4" fill="#009af9" fill-rule="evenodd" fill-opacity="1" stroke="#000000" stroke-opacity="1" stroke-width="3.2"/>
<circle clip-path="url(#clip542)" cx="421.16" cy="1345.71" r="14.4" fill="#009af9" fill-rule="evenodd" fill-opacity="1" stroke="#000000" stroke-opacity="1" stroke-width="3.2"/>
<circle clip-path="url(#clip542)" cx="299.994" cy="1415.61" r="14.4" fill="#009af9" fill-rule="evenodd" fill-opacity="1" stroke="#000000" stroke-opacity="1" stroke-width="3.2"/>
<circle clip-path="url(#clip542)" cx="769.612" cy="1105.34" r="14.4" fill="#009af9" fill-rule="evenodd" fill-opacity="1" stroke="#000000" stroke-opacity="1" stroke-width="3.2"/>
<circle clip-path="url(#clip542)" cx="1993.4" cy="290.708" r="14.4" fill="#009af9" fill-rule="evenodd" fill-opacity="1" stroke="#000000" stroke-opacity="1" stroke-width="3.2"/>
<circle clip-path="url(#clip542)" cx="2289.44" cy="139.822" r="14.4" fill="#009af9" fill-rule="evenodd" fill-opacity="1" stroke="#000000" stroke-opacity="1" stroke-width="3.2"/>
<circle clip-path="url(#clip542)" cx="1042.65" cy="934.151" r="14.4" fill="#009af9" fill-rule="evenodd" fill-opacity="1" stroke="#000000" stroke-opacity="1" stroke-width="3.2"/>
<circle clip-path="url(#clip542)" cx="1021.51" cy="931.899" r="14.4" fill="#009af9" fill-rule="evenodd" fill-opacity="1" stroke="#000000" stroke-opacity="1" stroke-width="3.2"/>
<circle clip-path="url(#clip542)" cx="1089.71" cy="916.439" r="14.4" fill="#009af9" fill-rule="evenodd" fill-opacity="1" stroke="#000000" stroke-opacity="1" stroke-width="3.2"/>
<circle clip-path="url(#clip542)" cx="1046.88" cy="934.118" r="14.4" fill="#009af9" fill-rule="evenodd" fill-opacity="1" stroke="#000000" stroke-opacity="1" stroke-width="3.2"/>
<circle clip-path="url(#clip542)" cx="1255.97" cy="815.723" r="14.4" fill="#009af9" fill-rule="evenodd" fill-opacity="1" stroke="#000000" stroke-opacity="1" stroke-width="3.2"/>
<circle clip-path="url(#clip542)" cx="265.026" cy="1423.18" r="14.4" fill="#009af9" fill-rule="evenodd" fill-opacity="1" stroke="#000000" stroke-opacity="1" stroke-width="3.2"/>
<circle clip-path="url(#clip542)" cx="1004.6" cy="964.779" r="14.4" fill="#009af9" fill-rule="evenodd" fill-opacity="1" stroke="#000000" stroke-opacity="1" stroke-width="3.2"/>
<circle clip-path="url(#clip542)" cx="979.239" cy="979.081" r="14.4" fill="#009af9" fill-rule="evenodd" fill-opacity="1" stroke="#000000" stroke-opacity="1" stroke-width="3.2"/>
<circle clip-path="url(#clip542)" cx="1025.74" cy="944.943" r="14.4" fill="#009af9" fill-rule="evenodd" fill-opacity="1" stroke="#000000" stroke-opacity="1" stroke-width="3.2"/>
<circle clip-path="url(#clip542)" cx="2196.93" cy="191.33" r="14.4" fill="#009af9" fill-rule="evenodd" fill-opacity="1" stroke="#000000" stroke-opacity="1" stroke-width="3.2"/>
<circle clip-path="url(#clip542)" cx="907.374" cy="1026.69" r="14.4" fill="#009af9" fill-rule="evenodd" fill-opacity="1" stroke="#000000" stroke-opacity="1" stroke-width="3.2"/>
<circle clip-path="url(#clip542)" cx="1834.51" cy="447.259" r="14.4" fill="#009af9" fill-rule="evenodd" fill-opacity="1" stroke="#000000" stroke-opacity="1" stroke-width="3.2"/>
<circle clip-path="url(#clip542)" cx="2013.78" cy="337.035" r="14.4" fill="#009af9" fill-rule="evenodd" fill-opacity="1" stroke="#000000" stroke-opacity="1" stroke-width="3.2"/>
<circle clip-path="url(#clip542)" cx="1034.19" cy="918.63" r="14.4" fill="#009af9" fill-rule="evenodd" fill-opacity="1" stroke="#000000" stroke-opacity="1" stroke-width="3.2"/>
<circle clip-path="url(#clip542)" cx="1610" cy="571.601" r="14.4" fill="#009af9" fill-rule="evenodd" fill-opacity="1" stroke="#000000" stroke-opacity="1" stroke-width="3.2"/>
<circle clip-path="url(#clip542)" cx="894.692" cy="1047.79" r="14.4" fill="#009af9" fill-rule="evenodd" fill-opacity="1" stroke="#000000" stroke-opacity="1" stroke-width="3.2"/>
<circle clip-path="url(#clip542)" cx="1035.65" cy="955.157" r="14.4" fill="#009af9" fill-rule="evenodd" fill-opacity="1" stroke="#000000" stroke-opacity="1" stroke-width="3.2"/>
<circle clip-path="url(#clip542)" cx="308.427" cy="1407.43" r="14.4" fill="#009af9" fill-rule="evenodd" fill-opacity="1" stroke="#000000" stroke-opacity="1" stroke-width="3.2"/>
<circle clip-path="url(#clip542)" cx="945.42" cy="1007.73" r="14.4" fill="#009af9" fill-rule="evenodd" fill-opacity="1" stroke="#000000" stroke-opacity="1" stroke-width="3.2"/>
<circle clip-path="url(#clip542)" cx="857.209" cy="1061.81" r="14.4" fill="#009af9" fill-rule="evenodd" fill-opacity="1" stroke="#000000" stroke-opacity="1" stroke-width="3.2"/>
<circle clip-path="url(#clip542)" cx="1040.22" cy="934.223" r="14.4" fill="#009af9" fill-rule="evenodd" fill-opacity="1" stroke="#000000" stroke-opacity="1" stroke-width="3.2"/>
<circle clip-path="url(#clip542)" cx="966.557" cy="992.311" r="14.4" fill="#009af9" fill-rule="evenodd" fill-opacity="1" stroke="#000000" stroke-opacity="1" stroke-width="3.2"/>
<circle clip-path="url(#clip542)" cx="970.784" cy="962.101" r="14.4" fill="#009af9" fill-rule="evenodd" fill-opacity="1" stroke="#000000" stroke-opacity="1" stroke-width="3.2"/>
<circle clip-path="url(#clip542)" cx="382.418" cy="1368.82" r="14.4" fill="#009af9" fill-rule="evenodd" fill-opacity="1" stroke="#000000" stroke-opacity="1" stroke-width="3.2"/>
<circle clip-path="url(#clip542)" cx="417.908" cy="1336.85" r="14.4" fill="#009af9" fill-rule="evenodd" fill-opacity="1" stroke="#000000" stroke-opacity="1" stroke-width="3.2"/>
<circle clip-path="url(#clip542)" cx="1029.97" cy="952.639" r="14.4" fill="#009af9" fill-rule="evenodd" fill-opacity="1" stroke="#000000" stroke-opacity="1" stroke-width="3.2"/>
<circle clip-path="url(#clip542)" cx="1017.29" cy="963.827" r="14.4" fill="#009af9" fill-rule="evenodd" fill-opacity="1" stroke="#000000" stroke-opacity="1" stroke-width="3.2"/>
<circle clip-path="url(#clip542)" cx="890.465" cy="1039.81" r="14.4" fill="#009af9" fill-rule="evenodd" fill-opacity="1" stroke="#000000" stroke-opacity="1" stroke-width="3.2"/>
<circle clip-path="url(#clip542)" cx="924.283" cy="1000.32" r="14.4" fill="#009af9" fill-rule="evenodd" fill-opacity="1" stroke="#000000" stroke-opacity="1" stroke-width="3.2"/>
<circle clip-path="url(#clip542)" cx="603.691" cy="1215.64" r="14.4" fill="#009af9" fill-rule="evenodd" fill-opacity="1" stroke="#000000" stroke-opacity="1" stroke-width="3.2"/>
<circle clip-path="url(#clip542)" cx="2059.52" cy="305.232" r="14.4" fill="#009af9" fill-rule="evenodd" fill-opacity="1" stroke="#000000" stroke-opacity="1" stroke-width="3.2"/>
<circle clip-path="url(#clip542)" cx="898.919" cy="1015.74" r="14.4" fill="#009af9" fill-rule="evenodd" fill-opacity="1" stroke="#000000" stroke-opacity="1" stroke-width="3.2"/>
<circle clip-path="url(#clip542)" cx="1573.85" cy="588.765" r="14.4" fill="#009af9" fill-rule="evenodd" fill-opacity="1" stroke="#000000" stroke-opacity="1" stroke-width="3.2"/>
<circle clip-path="url(#clip542)" cx="1000.38" cy="971.743" r="14.4" fill="#009af9" fill-rule="evenodd" fill-opacity="1" stroke="#000000" stroke-opacity="1" stroke-width="3.2"/>
<circle clip-path="url(#clip542)" cx="1051.1" cy="936.367" r="14.4" fill="#009af9" fill-rule="evenodd" fill-opacity="1" stroke="#000000" stroke-opacity="1" stroke-width="3.2"/>
<circle clip-path="url(#clip542)" cx="908.589" cy="1007.11" r="14.4" fill="#009af9" fill-rule="evenodd" fill-opacity="1" stroke="#000000" stroke-opacity="1" stroke-width="3.2"/>
<circle clip-path="url(#clip542)" cx="996.148" cy="951.837" r="14.4" fill="#009af9" fill-rule="evenodd" fill-opacity="1" stroke="#000000" stroke-opacity="1" stroke-width="3.2"/>
<circle clip-path="url(#clip542)" cx="941.193" cy="1010.11" r="14.4" fill="#009af9" fill-rule="evenodd" fill-opacity="1" stroke="#000000" stroke-opacity="1" stroke-width="3.2"/>
<circle clip-path="url(#clip542)" cx="2146.75" cy="239.852" r="14.4" fill="#009af9" fill-rule="evenodd" fill-opacity="1" stroke="#000000" stroke-opacity="1" stroke-width="3.2"/>
<circle clip-path="url(#clip542)" cx="958.102" cy="989.37" r="14.4" fill="#009af9" fill-rule="evenodd" fill-opacity="1" stroke="#000000" stroke-opacity="1" stroke-width="3.2"/>
<circle clip-path="url(#clip542)" cx="915.829" cy="1024.3" r="14.4" fill="#009af9" fill-rule="evenodd" fill-opacity="1" stroke="#000000" stroke-opacity="1" stroke-width="3.2"/>
<circle clip-path="url(#clip542)" cx="936.965" cy="1011.66" r="14.4" fill="#009af9" fill-rule="evenodd" fill-opacity="1" stroke="#000000" stroke-opacity="1" stroke-width="3.2"/>
<circle clip-path="url(#clip542)" cx="904.418" cy="1043.35" r="14.4" fill="#009af9" fill-rule="evenodd" fill-opacity="1" stroke="#000000" stroke-opacity="1" stroke-width="3.2"/>
<circle clip-path="url(#clip542)" cx="336.134" cy="1400.07" r="14.4" fill="#009af9" fill-rule="evenodd" fill-opacity="1" stroke="#000000" stroke-opacity="1" stroke-width="3.2"/>
<circle clip-path="url(#clip542)" cx="975.012" cy="995.775" r="14.4" fill="#009af9" fill-rule="evenodd" fill-opacity="1" stroke="#000000" stroke-opacity="1" stroke-width="3.2"/>
<circle clip-path="url(#clip542)" cx="982.04" cy="960.784" r="14.4" fill="#009af9" fill-rule="evenodd" fill-opacity="1" stroke="#000000" stroke-opacity="1" stroke-width="3.2"/>
<circle clip-path="url(#clip542)" cx="932.738" cy="1004.1" r="14.4" fill="#009af9" fill-rule="evenodd" fill-opacity="1" stroke="#000000" stroke-opacity="1" stroke-width="3.2"/>
<circle clip-path="url(#clip542)" cx="737.5" cy="1142.07" r="14.4" fill="#009af9" fill-rule="evenodd" fill-opacity="1" stroke="#000000" stroke-opacity="1" stroke-width="3.2"/>
<circle clip-path="url(#clip542)" cx="717.765" cy="1157.44" r="14.4" fill="#009af9" fill-rule="evenodd" fill-opacity="1" stroke="#000000" stroke-opacity="1" stroke-width="3.2"/>
<circle clip-path="url(#clip542)" cx="577.206" cy="1243.55" r="14.4" fill="#009af9" fill-rule="evenodd" fill-opacity="1" stroke="#000000" stroke-opacity="1" stroke-width="3.2"/>
<circle clip-path="url(#clip542)" cx="1944.22" cy="334.452" r="14.4" fill="#009af9" fill-rule="evenodd" fill-opacity="1" stroke="#000000" stroke-opacity="1" stroke-width="3.2"/>
<circle clip-path="url(#clip542)" cx="1620.88" cy="576.783" r="14.4" fill="#009af9" fill-rule="evenodd" fill-opacity="1" stroke="#000000" stroke-opacity="1" stroke-width="3.2"/>
<circle clip-path="url(#clip542)" cx="962.33" cy="989.45" r="14.4" fill="#009af9" fill-rule="evenodd" fill-opacity="1" stroke="#000000" stroke-opacity="1" stroke-width="3.2"/>
<circle clip-path="url(#clip542)" cx="953.875" cy="982.678" r="14.4" fill="#009af9" fill-rule="evenodd" fill-opacity="1" stroke="#000000" stroke-opacity="1" stroke-width="3.2"/>
<circle clip-path="url(#clip542)" cx="949.648" cy="986.292" r="14.4" fill="#009af9" fill-rule="evenodd" fill-opacity="1" stroke="#000000" stroke-opacity="1" stroke-width="3.2"/>
<circle clip-path="url(#clip542)" cx="1341.03" cy="741.238" r="14.4" fill="#009af9" fill-rule="evenodd" fill-opacity="1" stroke="#000000" stroke-opacity="1" stroke-width="3.2"/>
<circle clip-path="url(#clip542)" cx="906.39" cy="1038.16" r="14.4" fill="#009af9" fill-rule="evenodd" fill-opacity="1" stroke="#000000" stroke-opacity="1" stroke-width="3.2"/>
<circle clip-path="url(#clip542)" cx="1942.69" cy="356.259" r="14.4" fill="#009af9" fill-rule="evenodd" fill-opacity="1" stroke="#000000" stroke-opacity="1" stroke-width="3.2"/>
<circle clip-path="url(#clip542)" cx="903.147" cy="1009.25" r="14.4" fill="#009af9" fill-rule="evenodd" fill-opacity="1" stroke="#000000" stroke-opacity="1" stroke-width="3.2"/>
<circle clip-path="url(#clip542)" cx="927.962" cy="1014.22" r="14.4" fill="#009af9" fill-rule="evenodd" fill-opacity="1" stroke="#000000" stroke-opacity="1" stroke-width="3.2"/>
<path clip-path="url(#clip540)" d="M275.836 270.476 L583.814 270.476 L583.814 166.796 L275.836 166.796  Z" fill="#ffffff" fill-rule="evenodd" fill-opacity="1"/>
<polyline clip-path="url(#clip540)" style="stroke:#000000; stroke-linecap:round; stroke-linejoin:round; stroke-width:4; stroke-opacity:1; fill:none" points="275.836,270.476 583.814,270.476 583.814,166.796 275.836,166.796 275.836,270.476 "/>
<circle clip-path="url(#clip540)" cx="371.327" cy="218.636" r="20.48" fill="#009af9" fill-rule="evenodd" fill-opacity="1" stroke="#000000" stroke-opacity="1" stroke-width="4.55111"/>
<path clip-path="url(#clip540)" d="M466.817 201.356 L473.785 201.356 L482.604 224.874 L491.47 201.356 L498.437 201.356 L498.437 235.916 L493.877 235.916 L493.877 205.569 L484.965 229.272 L480.266 229.272 L471.354 205.569 L471.354 235.916 L466.817 235.916 L466.817 201.356 Z" fill="#000000" fill-rule="nonzero" fill-opacity="1" /><path clip-path="url(#clip540)" d="M507.72 201.356 L512.396 201.356 L512.396 215.962 L527.905 201.356 L533.923 201.356 L516.771 217.467 L535.15 235.916 L528.993 235.916 L512.396 219.272 L512.396 235.916 L507.72 235.916 L507.72 201.356 Z" fill="#000000" fill-rule="nonzero" fill-opacity="1" /><path clip-path="url(#clip540)" d="M540.034 231.981 L547.673 231.981 L547.673 205.615 L539.363 207.282 L539.363 203.022 L547.627 201.356 L552.303 201.356 L552.303 231.981 L559.942 231.981 L559.942 235.916 L540.034 235.916 L540.034 231.981 Z" fill="#000000" fill-rule="nonzero" fill-opacity="1" /></svg>
