<?xml version="1.0" encoding="utf-8"?>
<svg xmlns="http://www.w3.org/2000/svg" xmlns:xlink="http://www.w3.org/1999/xlink" width="600" height="400" viewBox="0 0 2400 1600">
<defs>
  <clipPath id="clip230">
    <rect x="0" y="0" width="2400" height="1600"/>
  </clipPath>
</defs>
<path clip-path="url(#clip230)" d="M0 1600 L2400 1600 L2400 0 L0 0  Z" fill="#ffffff" fill-rule="evenodd" fill-opacity="1"/>
<defs>
  <clipPath id="clip231">
    <rect x="212" y="123" width="2142" height="1301"/>
  </clipPath>
</defs>
<path clip-path="url(#clip230)" d="M212.459 1423.18 L2352.76 1423.18 L2352.76 123.472 L212.459 123.472  Z" fill="#ffffff" fill-rule="evenodd" fill-opacity="1"/>
<defs>
  <clipPath id="clip232">
    <rect x="212" y="123" width="2141" height="1301"/>
  </clipPath>
</defs>
<polyline clip-path="url(#clip232)" style="stroke:#000000; stroke-linecap:round; stroke-linejoin:round; stroke-width:2; stroke-opacity:0.1; fill:none" points="676.119,1423.18 676.119,123.472 "/>
<polyline clip-path="url(#clip232)" style="stroke:#000000; stroke-linecap:round; stroke-linejoin:round; stroke-width:2; stroke-opacity:0.1; fill:none" points="1149.23,1423.18 1149.23,123.472 "/>
<polyline clip-path="url(#clip232)" style="stroke:#000000; stroke-linecap:round; stroke-linejoin:round; stroke-width:2; stroke-opacity:0.1; fill:none" points="1622.35,1423.18 1622.35,123.472 "/>
<polyline clip-path="url(#clip232)" style="stroke:#000000; stroke-linecap:round; stroke-linejoin:round; stroke-width:2; stroke-opacity:0.1; fill:none" points="2095.46,1423.18 2095.46,123.472 "/>
<polyline clip-path="url(#clip232)" style="stroke:#000000; stroke-linecap:round; stroke-linejoin:round; stroke-width:2; stroke-opacity:0.1; fill:none" points="212.459,1396.53 2352.76,1396.53 "/>
<polyline clip-path="url(#clip232)" style="stroke:#000000; stroke-linecap:round; stroke-linejoin:round; stroke-width:2; stroke-opacity:0.1; fill:none" points="212.459,1130.7 2352.76,1130.7 "/>
<polyline clip-path="url(#clip232)" style="stroke:#000000; stroke-linecap:round; stroke-linejoin:round; stroke-width:2; stroke-opacity:0.1; fill:none" points="212.459,864.861 2352.76,864.861 "/>
<polyline clip-path="url(#clip232)" style="stroke:#000000; stroke-linecap:round; stroke-linejoin:round; stroke-width:2; stroke-opacity:0.1; fill:none" points="212.459,599.026 2352.76,599.026 "/>
<polyline clip-path="url(#clip232)" style="stroke:#000000; stroke-linecap:round; stroke-linejoin:round; stroke-width:2; stroke-opacity:0.1; fill:none" points="212.459,333.191 2352.76,333.191 "/>
<polyline clip-path="url(#clip230)" style="stroke:#000000; stroke-linecap:round; stroke-linejoin:round; stroke-width:4; stroke-opacity:1; fill:none" points="212.459,1423.18 2352.76,1423.18 "/>
<polyline clip-path="url(#clip230)" style="stroke:#000000; stroke-linecap:round; stroke-linejoin:round; stroke-width:4; stroke-opacity:1; fill:none" points="676.119,1423.18 676.119,1404.28 "/>
<polyline clip-path="url(#clip230)" style="stroke:#000000; stroke-linecap:round; stroke-linejoin:round; stroke-width:4; stroke-opacity:1; fill:none" points="1149.23,1423.18 1149.23,1404.28 "/>
<polyline clip-path="url(#clip230)" style="stroke:#000000; stroke-linecap:round; stroke-linejoin:round; stroke-width:4; stroke-opacity:1; fill:none" points="1622.35,1423.18 1622.35,1404.28 "/>
<polyline clip-path="url(#clip230)" style="stroke:#000000; stroke-linecap:round; stroke-linejoin:round; stroke-width:4; stroke-opacity:1; fill:none" points="2095.46,1423.18 2095.46,1404.28 "/>
<path clip-path="url(#clip230)" d="M592.983 1468.75 L622.659 1468.75 L622.659 1472.69 L592.983 1472.69 L592.983 1468.75 Z" fill="#000000" fill-rule="nonzero" fill-opacity="1" /><path clip-path="url(#clip230)" d="M642.751 1454.1 Q639.14 1454.1 637.312 1457.66 Q635.506 1461.2 635.506 1468.33 Q635.506 1475.44 637.312 1479.01 Q639.14 1482.55 642.751 1482.55 Q646.386 1482.55 648.191 1479.01 Q650.02 1475.44 650.02 1468.33 Q650.02 1461.2 648.191 1457.66 Q646.386 1454.1 642.751 1454.1 M642.751 1450.39 Q648.562 1450.39 651.617 1455 Q654.696 1459.58 654.696 1468.33 Q654.696 1477.06 651.617 1481.67 Q648.562 1486.25 642.751 1486.25 Q636.941 1486.25 633.863 1481.67 Q630.807 1477.06 630.807 1468.33 Q630.807 1459.58 633.863 1455 Q636.941 1450.39 642.751 1450.39 Z" fill="#000000" fill-rule="nonzero" fill-opacity="1" /><path clip-path="url(#clip230)" d="M662.913 1479.7 L667.798 1479.7 L667.798 1485.58 L662.913 1485.58 L662.913 1479.7 Z" fill="#000000" fill-rule="nonzero" fill-opacity="1" /><path clip-path="url(#clip230)" d="M687.983 1454.1 Q684.372 1454.1 682.543 1457.66 Q680.737 1461.2 680.737 1468.33 Q680.737 1475.44 682.543 1479.01 Q684.372 1482.55 687.983 1482.55 Q691.617 1482.55 693.422 1479.01 Q695.251 1475.44 695.251 1468.33 Q695.251 1461.2 693.422 1457.66 Q691.617 1454.1 687.983 1454.1 M687.983 1450.39 Q693.793 1450.39 696.848 1455 Q699.927 1459.58 699.927 1468.33 Q699.927 1477.06 696.848 1481.67 Q693.793 1486.25 687.983 1486.25 Q682.173 1486.25 679.094 1481.67 Q676.038 1477.06 676.038 1468.33 Q676.038 1459.58 679.094 1455 Q682.173 1450.39 687.983 1450.39 Z" fill="#000000" fill-rule="nonzero" fill-opacity="1" /><path clip-path="url(#clip230)" d="M712.172 1481.64 L728.492 1481.64 L728.492 1485.58 L706.547 1485.58 L706.547 1481.64 Q709.209 1478.89 713.793 1474.26 Q718.399 1469.61 719.58 1468.27 Q721.825 1465.74 722.705 1464.01 Q723.607 1462.25 723.607 1460.56 Q723.607 1457.8 721.663 1456.07 Q719.742 1454.33 716.64 1454.33 Q714.441 1454.33 711.987 1455.09 Q709.557 1455.86 706.779 1457.41 L706.779 1452.69 Q709.603 1451.55 712.057 1450.97 Q714.51 1450.39 716.547 1450.39 Q721.918 1450.39 725.112 1453.08 Q728.307 1455.77 728.307 1460.26 Q728.307 1462.39 727.496 1464.31 Q726.709 1466.2 724.603 1468.8 Q724.024 1469.47 720.922 1472.69 Q717.82 1475.88 712.172 1481.64 Z" fill="#000000" fill-rule="nonzero" fill-opacity="1" /><path clip-path="url(#clip230)" d="M738.353 1451.02 L756.709 1451.02 L756.709 1454.96 L742.635 1454.96 L742.635 1463.43 Q743.654 1463.08 744.672 1462.92 Q745.691 1462.73 746.709 1462.73 Q752.496 1462.73 755.876 1465.9 Q759.255 1469.08 759.255 1474.49 Q759.255 1480.07 755.783 1483.17 Q752.311 1486.25 745.992 1486.25 Q743.816 1486.25 741.547 1485.88 Q739.302 1485.51 736.894 1484.77 L736.894 1480.07 Q738.978 1481.2 741.2 1481.76 Q743.422 1482.32 745.899 1482.32 Q749.904 1482.32 752.242 1480.21 Q754.58 1478.1 754.58 1474.49 Q754.58 1470.88 752.242 1468.77 Q749.904 1466.67 745.899 1466.67 Q744.024 1466.67 742.149 1467.08 Q740.297 1467.5 738.353 1468.38 L738.353 1451.02 Z" fill="#000000" fill-rule="nonzero" fill-opacity="1" /><path clip-path="url(#clip230)" d="M1096.45 1454.1 Q1092.84 1454.1 1091.02 1457.66 Q1089.21 1461.2 1089.21 1468.33 Q1089.21 1475.44 1091.02 1479.01 Q1092.84 1482.55 1096.45 1482.55 Q1100.09 1482.55 1101.89 1479.01 Q1103.72 1475.44 1103.72 1468.33 Q1103.72 1461.2 1101.89 1457.66 Q1100.09 1454.1 1096.45 1454.1 M1096.45 1450.39 Q1102.26 1450.39 1105.32 1455 Q1108.4 1459.58 1108.4 1468.33 Q1108.4 1477.06 1105.32 1481.67 Q1102.26 1486.25 1096.45 1486.25 Q1090.64 1486.25 1087.57 1481.67 Q1084.51 1477.06 1084.51 1468.33 Q1084.51 1459.58 1087.57 1455 Q1090.64 1450.39 1096.45 1450.39 Z" fill="#000000" fill-rule="nonzero" fill-opacity="1" /><path clip-path="url(#clip230)" d="M1116.62 1479.7 L1121.5 1479.7 L1121.5 1485.58 L1116.62 1485.58 L1116.62 1479.7 Z" fill="#000000" fill-rule="nonzero" fill-opacity="1" /><path clip-path="url(#clip230)" d="M1141.69 1454.1 Q1138.07 1454.1 1136.25 1457.66 Q1134.44 1461.2 1134.44 1468.33 Q1134.44 1475.44 1136.25 1479.01 Q1138.07 1482.55 1141.69 1482.55 Q1145.32 1482.55 1147.13 1479.01 Q1148.95 1475.44 1148.95 1468.33 Q1148.95 1461.2 1147.13 1457.66 Q1145.32 1454.1 1141.69 1454.1 M1141.69 1450.39 Q1147.5 1450.39 1150.55 1455 Q1153.63 1459.58 1153.63 1468.33 Q1153.63 1477.06 1150.55 1481.67 Q1147.5 1486.25 1141.69 1486.25 Q1135.88 1486.25 1132.8 1481.67 Q1129.74 1477.06 1129.74 1468.33 Q1129.74 1459.58 1132.8 1455 Q1135.88 1450.39 1141.69 1450.39 Z" fill="#000000" fill-rule="nonzero" fill-opacity="1" /><path clip-path="url(#clip230)" d="M1171.85 1454.1 Q1168.24 1454.1 1166.41 1457.66 Q1164.6 1461.2 1164.6 1468.33 Q1164.6 1475.44 1166.41 1479.01 Q1168.24 1482.55 1171.85 1482.55 Q1175.48 1482.55 1177.29 1479.01 Q1179.12 1475.44 1179.12 1468.33 Q1179.12 1461.2 1177.29 1457.66 Q1175.48 1454.1 1171.85 1454.1 M1171.85 1450.39 Q1177.66 1450.39 1180.71 1455 Q1183.79 1459.58 1183.79 1468.33 Q1183.79 1477.06 1180.71 1481.67 Q1177.66 1486.25 1171.85 1486.25 Q1166.04 1486.25 1162.96 1481.67 Q1159.9 1477.06 1159.9 1468.33 Q1159.9 1459.58 1162.96 1455 Q1166.04 1450.39 1171.85 1450.39 Z" fill="#000000" fill-rule="nonzero" fill-opacity="1" /><path clip-path="url(#clip230)" d="M1202.01 1454.1 Q1198.4 1454.1 1196.57 1457.66 Q1194.76 1461.2 1194.76 1468.33 Q1194.76 1475.44 1196.57 1479.01 Q1198.4 1482.55 1202.01 1482.55 Q1205.64 1482.55 1207.45 1479.01 Q1209.28 1475.44 1209.28 1468.33 Q1209.28 1461.2 1207.45 1457.66 Q1205.64 1454.1 1202.01 1454.1 M1202.01 1450.39 Q1207.82 1450.39 1210.88 1455 Q1213.95 1459.58 1213.95 1468.33 Q1213.95 1477.06 1210.88 1481.67 Q1207.82 1486.25 1202.01 1486.25 Q1196.2 1486.25 1193.12 1481.67 Q1190.07 1477.06 1190.07 1468.33 Q1190.07 1459.58 1193.12 1455 Q1196.2 1450.39 1202.01 1450.39 Z" fill="#000000" fill-rule="nonzero" fill-opacity="1" /><path clip-path="url(#clip230)" d="M1570.07 1454.1 Q1566.45 1454.1 1564.63 1457.66 Q1562.82 1461.2 1562.82 1468.33 Q1562.82 1475.44 1564.63 1479.01 Q1566.45 1482.55 1570.07 1482.55 Q1573.7 1482.55 1575.51 1479.01 Q1577.33 1475.44 1577.33 1468.33 Q1577.33 1461.2 1575.51 1457.66 Q1573.7 1454.1 1570.07 1454.1 M1570.07 1450.39 Q1575.88 1450.39 1578.93 1455 Q1582.01 1459.58 1582.01 1468.33 Q1582.01 1477.06 1578.93 1481.67 Q1575.88 1486.25 1570.07 1486.25 Q1564.26 1486.25 1561.18 1481.67 Q1558.12 1477.06 1558.12 1468.33 Q1558.12 1459.58 1561.18 1455 Q1564.26 1450.39 1570.07 1450.39 Z" fill="#000000" fill-rule="nonzero" fill-opacity="1" /><path clip-path="url(#clip230)" d="M1590.23 1479.7 L1595.11 1479.7 L1595.11 1485.58 L1590.23 1485.58 L1590.23 1479.7 Z" fill="#000000" fill-rule="nonzero" fill-opacity="1" /><path clip-path="url(#clip230)" d="M1615.3 1454.1 Q1611.69 1454.1 1609.86 1457.66 Q1608.05 1461.2 1608.05 1468.33 Q1608.05 1475.44 1609.86 1479.01 Q1611.69 1482.55 1615.3 1482.55 Q1618.93 1482.55 1620.74 1479.01 Q1622.57 1475.44 1622.57 1468.33 Q1622.57 1461.2 1620.74 1457.66 Q1618.93 1454.1 1615.3 1454.1 M1615.3 1450.39 Q1621.11 1450.39 1624.16 1455 Q1627.24 1459.58 1627.24 1468.33 Q1627.24 1477.06 1624.16 1481.67 Q1621.11 1486.25 1615.3 1486.25 Q1609.49 1486.25 1606.41 1481.67 Q1603.35 1477.06 1603.35 1468.33 Q1603.35 1459.58 1606.41 1455 Q1609.49 1450.39 1615.3 1450.39 Z" fill="#000000" fill-rule="nonzero" fill-opacity="1" /><path clip-path="url(#clip230)" d="M1639.49 1481.64 L1655.81 1481.64 L1655.81 1485.58 L1633.86 1485.58 L1633.86 1481.64 Q1636.52 1478.89 1641.11 1474.26 Q1645.71 1469.61 1646.89 1468.27 Q1649.14 1465.74 1650.02 1464.01 Q1650.92 1462.25 1650.92 1460.56 Q1650.92 1457.8 1648.98 1456.07 Q1647.06 1454.33 1643.95 1454.33 Q1641.75 1454.33 1639.3 1455.09 Q1636.87 1455.86 1634.09 1457.41 L1634.09 1452.69 Q1636.92 1451.55 1639.37 1450.97 Q1641.82 1450.39 1643.86 1450.39 Q1649.23 1450.39 1652.43 1453.08 Q1655.62 1455.77 1655.62 1460.26 Q1655.62 1462.39 1654.81 1464.31 Q1654.02 1466.2 1651.92 1468.8 Q1651.34 1469.47 1648.24 1472.69 Q1645.13 1475.88 1639.49 1481.64 Z" fill="#000000" fill-rule="nonzero" fill-opacity="1" /><path clip-path="url(#clip230)" d="M1665.67 1451.02 L1684.02 1451.02 L1684.02 1454.96 L1669.95 1454.96 L1669.95 1463.43 Q1670.97 1463.08 1671.99 1462.92 Q1673 1462.73 1674.02 1462.73 Q1679.81 1462.73 1683.19 1465.9 Q1686.57 1469.08 1686.57 1474.49 Q1686.57 1480.07 1683.1 1483.17 Q1679.63 1486.25 1673.31 1486.25 Q1671.13 1486.25 1668.86 1485.88 Q1666.62 1485.51 1664.21 1484.77 L1664.21 1480.07 Q1666.29 1481.2 1668.51 1481.76 Q1670.74 1482.32 1673.21 1482.32 Q1677.22 1482.32 1679.56 1480.21 Q1681.89 1478.1 1681.89 1474.49 Q1681.89 1470.88 1679.56 1468.77 Q1677.22 1466.67 1673.21 1466.67 Q1671.34 1466.67 1669.46 1467.08 Q1667.61 1467.5 1665.67 1468.38 L1665.67 1451.02 Z" fill="#000000" fill-rule="nonzero" fill-opacity="1" /><path clip-path="url(#clip230)" d="M2042.68 1454.1 Q2039.07 1454.1 2037.24 1457.66 Q2035.44 1461.2 2035.44 1468.33 Q2035.44 1475.44 2037.24 1479.01 Q2039.07 1482.55 2042.68 1482.55 Q2046.32 1482.55 2048.12 1479.01 Q2049.95 1475.44 2049.95 1468.33 Q2049.95 1461.2 2048.12 1457.66 Q2046.32 1454.1 2042.68 1454.1 M2042.68 1450.39 Q2048.49 1450.39 2051.55 1455 Q2054.63 1459.58 2054.63 1468.33 Q2054.63 1477.06 2051.55 1481.67 Q2048.49 1486.25 2042.68 1486.25 Q2036.87 1486.25 2033.79 1481.67 Q2030.74 1477.06 2030.74 1468.33 Q2030.74 1459.58 2033.79 1455 Q2036.87 1450.39 2042.68 1450.39 Z" fill="#000000" fill-rule="nonzero" fill-opacity="1" /><path clip-path="url(#clip230)" d="M2062.84 1479.7 L2067.73 1479.7 L2067.73 1485.58 L2062.84 1485.58 L2062.84 1479.7 Z" fill="#000000" fill-rule="nonzero" fill-opacity="1" /><path clip-path="url(#clip230)" d="M2087.91 1454.1 Q2084.3 1454.1 2082.47 1457.66 Q2080.67 1461.2 2080.67 1468.33 Q2080.67 1475.44 2082.47 1479.01 Q2084.3 1482.55 2087.91 1482.55 Q2091.55 1482.55 2093.35 1479.01 Q2095.18 1475.44 2095.18 1468.33 Q2095.18 1461.2 2093.35 1457.66 Q2091.55 1454.1 2087.91 1454.1 M2087.91 1450.39 Q2093.72 1450.39 2096.78 1455 Q2099.86 1459.58 2099.86 1468.33 Q2099.86 1477.06 2096.78 1481.67 Q2093.72 1486.25 2087.91 1486.25 Q2082.1 1486.25 2079.02 1481.67 Q2075.97 1477.06 2075.97 1468.33 Q2075.97 1459.58 2079.02 1455 Q2082.1 1450.39 2087.91 1450.39 Z" fill="#000000" fill-rule="nonzero" fill-opacity="1" /><path clip-path="url(#clip230)" d="M2108.12 1451.02 L2126.48 1451.02 L2126.48 1454.96 L2112.4 1454.96 L2112.4 1463.43 Q2113.42 1463.08 2114.44 1462.92 Q2115.46 1462.73 2116.48 1462.73 Q2122.26 1462.73 2125.64 1465.9 Q2129.02 1469.08 2129.02 1474.49 Q2129.02 1480.07 2125.55 1483.17 Q2122.08 1486.25 2115.76 1486.25 Q2113.58 1486.25 2111.31 1485.88 Q2109.07 1485.51 2106.66 1484.77 L2106.66 1480.07 Q2108.75 1481.2 2110.97 1481.76 Q2113.19 1482.32 2115.67 1482.32 Q2119.67 1482.32 2122.01 1480.21 Q2124.35 1478.1 2124.35 1474.49 Q2124.35 1470.88 2122.01 1468.77 Q2119.67 1466.67 2115.67 1466.67 Q2113.79 1466.67 2111.92 1467.08 Q2110.06 1467.5 2108.12 1468.38 L2108.12 1451.02 Z" fill="#000000" fill-rule="nonzero" fill-opacity="1" /><path clip-path="url(#clip230)" d="M2148.24 1454.1 Q2144.62 1454.1 2142.8 1457.66 Q2140.99 1461.2 2140.99 1468.33 Q2140.99 1475.44 2142.8 1479.01 Q2144.62 1482.55 2148.24 1482.55 Q2151.87 1482.55 2153.68 1479.01 Q2155.5 1475.44 2155.5 1468.33 Q2155.5 1461.2 2153.68 1457.66 Q2151.87 1454.1 2148.24 1454.1 M2148.24 1450.39 Q2154.05 1450.39 2157.1 1455 Q2160.18 1459.58 2160.18 1468.33 Q2160.18 1477.06 2157.1 1481.67 Q2154.05 1486.25 2148.24 1486.25 Q2142.43 1486.25 2139.35 1481.67 Q2136.29 1477.06 2136.29 1468.33 Q2136.29 1459.58 2139.35 1455 Q2142.43 1450.39 2148.24 1450.39 Z" fill="#000000" fill-rule="nonzero" fill-opacity="1" /><path clip-path="url(#clip230)" d="M725.544 1520.52 L731.974 1520.52 L731.974 1562.63 L755.113 1562.63 L755.113 1568.04 L725.544 1568.04 L725.544 1520.52 Z" fill="#000000" fill-rule="nonzero" fill-opacity="1" /><path clip-path="url(#clip230)" d="M790.952 1548.76 L790.952 1551.62 L764.025 1551.62 Q764.407 1557.67 767.654 1560.85 Q770.932 1564 776.757 1564 Q780.13 1564 783.281 1563.17 Q786.464 1562.35 789.583 1560.69 L789.583 1566.23 Q786.432 1567.57 783.122 1568.27 Q779.812 1568.97 776.406 1568.97 Q767.876 1568.97 762.879 1564 Q757.914 1559.04 757.914 1550.57 Q757.914 1541.82 762.625 1536.69 Q767.367 1531.54 775.388 1531.54 Q782.581 1531.54 786.751 1536.18 Q790.952 1540.8 790.952 1548.76 M785.096 1547.04 Q785.032 1542.23 782.39 1539.37 Q779.78 1536.5 775.452 1536.5 Q770.55 1536.5 767.59 1539.27 Q764.662 1542.04 764.216 1547.07 L785.096 1547.04 Z" fill="#000000" fill-rule="nonzero" fill-opacity="1" /><path clip-path="url(#clip230)" d="M816.765 1550.12 Q809.667 1550.12 806.93 1551.75 Q804.193 1553.37 804.193 1557.29 Q804.193 1560.4 806.23 1562.25 Q808.299 1564.07 811.832 1564.07 Q816.701 1564.07 819.63 1560.63 Q822.59 1557.16 822.59 1551.43 L822.59 1550.12 L816.765 1550.12 M828.446 1547.71 L828.446 1568.04 L822.59 1568.04 L822.59 1562.63 Q820.584 1565.88 817.593 1567.44 Q814.601 1568.97 810.272 1568.97 Q804.797 1568.97 801.551 1565.91 Q798.336 1562.82 798.336 1557.67 Q798.336 1551.65 802.347 1548.6 Q806.389 1545.54 814.378 1545.54 L822.59 1545.54 L822.59 1544.97 Q822.59 1540.93 819.916 1538.73 Q817.274 1536.5 812.468 1536.5 Q809.413 1536.5 806.516 1537.23 Q803.62 1537.97 800.946 1539.43 L800.946 1534.02 Q804.161 1532.78 807.185 1532.17 Q810.208 1531.54 813.073 1531.54 Q820.807 1531.54 824.627 1535.55 Q828.446 1539.56 828.446 1547.71 Z" fill="#000000" fill-rule="nonzero" fill-opacity="1" /><path clip-path="url(#clip230)" d="M863.967 1537.81 L863.967 1518.52 L869.823 1518.52 L869.823 1568.04 L863.967 1568.04 L863.967 1562.7 Q862.121 1565.88 859.288 1567.44 Q856.487 1568.97 852.54 1568.97 Q846.079 1568.97 842.005 1563.81 Q837.963 1558.65 837.963 1550.25 Q837.963 1541.85 842.005 1536.69 Q846.079 1531.54 852.54 1531.54 Q856.487 1531.54 859.288 1533.1 Q862.121 1534.62 863.967 1537.81 M844.01 1550.25 Q844.01 1556.71 846.652 1560.4 Q849.326 1564.07 853.973 1564.07 Q858.62 1564.07 861.293 1560.4 Q863.967 1556.71 863.967 1550.25 Q863.967 1543.79 861.293 1540.13 Q858.62 1536.44 853.973 1536.44 Q849.326 1536.44 846.652 1540.13 Q844.01 1543.79 844.01 1550.25 Z" fill="#000000" fill-rule="nonzero" fill-opacity="1" /><path clip-path="url(#clip230)" d="M912.378 1548.76 L912.378 1551.62 L885.451 1551.62 Q885.833 1557.67 889.079 1560.85 Q892.358 1564 898.182 1564 Q901.556 1564 904.707 1563.17 Q907.89 1562.35 911.009 1560.69 L911.009 1566.23 Q907.858 1567.57 904.548 1568.27 Q901.238 1568.97 897.832 1568.97 Q889.302 1568.97 884.305 1564 Q879.34 1559.04 879.34 1550.57 Q879.34 1541.82 884.051 1536.69 Q888.793 1531.54 896.814 1531.54 Q904.007 1531.54 908.177 1536.18 Q912.378 1540.8 912.378 1548.76 M906.521 1547.04 Q906.458 1542.23 903.816 1539.37 Q901.206 1536.5 896.877 1536.5 Q891.976 1536.5 889.016 1539.27 Q886.088 1542.04 885.642 1547.07 L906.521 1547.04 Z" fill="#000000" fill-rule="nonzero" fill-opacity="1" /><path clip-path="url(#clip230)" d="M942.647 1537.87 Q941.66 1537.3 940.482 1537.04 Q939.337 1536.76 937.936 1536.76 Q932.971 1536.76 930.297 1540 Q927.656 1543.22 927.656 1549.27 L927.656 1568.04 L921.767 1568.04 L921.767 1532.4 L927.656 1532.4 L927.656 1537.93 Q929.502 1534.69 932.462 1533.13 Q935.422 1531.54 939.655 1531.54 Q940.26 1531.54 940.992 1531.63 Q941.724 1531.7 942.615 1531.85 L942.647 1537.87 Z" fill="#000000" fill-rule="nonzero" fill-opacity="1" /><path clip-path="url(#clip230)" d="M954.328 1520.52 L954.328 1538.19 L948.917 1538.19 L948.917 1520.52 L954.328 1520.52 Z" fill="#000000" fill-rule="nonzero" fill-opacity="1" /><path clip-path="url(#clip230)" d="M989.435 1533.45 L989.435 1538.98 Q986.952 1537.71 984.279 1537.07 Q981.605 1536.44 978.74 1536.44 Q974.38 1536.44 972.184 1537.77 Q970.019 1539.11 970.019 1541.79 Q970.019 1543.82 971.579 1545 Q973.139 1546.15 977.849 1547.2 L979.854 1547.64 Q986.093 1548.98 988.703 1551.43 Q991.344 1553.85 991.344 1558.21 Q991.344 1563.17 987.398 1566.07 Q983.483 1568.97 976.608 1568.97 Q973.743 1568.97 970.624 1568.39 Q967.537 1567.85 964.099 1566.74 L964.099 1560.69 Q967.346 1562.38 970.497 1563.24 Q973.648 1564.07 976.735 1564.07 Q980.873 1564.07 983.101 1562.66 Q985.329 1561.23 985.329 1558.65 Q985.329 1556.27 983.706 1554.99 Q982.114 1553.72 976.672 1552.54 L974.635 1552.07 Q969.192 1550.92 966.773 1548.56 Q964.354 1546.18 964.354 1542.04 Q964.354 1537.01 967.919 1534.27 Q971.483 1531.54 978.04 1531.54 Q981.287 1531.54 984.151 1532.01 Q987.016 1532.49 989.435 1533.45 Z" fill="#000000" fill-rule="nonzero" fill-opacity="1" /><path clip-path="url(#clip230)" d="M1027.06 1562.7 L1027.06 1581.6 L1021.17 1581.6 L1021.17 1532.4 L1027.06 1532.4 L1027.06 1537.81 Q1028.9 1534.62 1031.7 1533.1 Q1034.54 1531.54 1038.45 1531.54 Q1044.94 1531.54 1048.99 1536.69 Q1053.06 1541.85 1053.06 1550.25 Q1053.06 1558.65 1048.99 1563.81 Q1044.94 1568.97 1038.45 1568.97 Q1034.54 1568.97 1031.7 1567.44 Q1028.9 1565.88 1027.06 1562.7 M1046.98 1550.25 Q1046.98 1543.79 1044.31 1540.13 Q1041.67 1536.44 1037.02 1536.44 Q1032.37 1536.44 1029.7 1540.13 Q1027.06 1543.79 1027.06 1550.25 Q1027.06 1556.71 1029.7 1560.4 Q1032.37 1564.07 1037.02 1564.07 Q1041.67 1564.07 1044.31 1560.4 Q1046.98 1556.71 1046.98 1550.25 Z" fill="#000000" fill-rule="nonzero" fill-opacity="1" /><path clip-path="url(#clip230)" d="M1083.42 1537.87 Q1082.44 1537.3 1081.26 1537.04 Q1080.11 1536.76 1078.71 1536.76 Q1073.75 1536.76 1071.07 1540 Q1068.43 1543.22 1068.43 1549.27 L1068.43 1568.04 L1062.54 1568.04 L1062.54 1532.4 L1068.43 1532.4 L1068.43 1537.93 Q1070.28 1534.69 1073.24 1533.13 Q1076.2 1531.54 1080.43 1531.54 Q1081.04 1531.54 1081.77 1531.63 Q1082.5 1531.7 1083.39 1531.85 L1083.42 1537.87 Z" fill="#000000" fill-rule="nonzero" fill-opacity="1" /><path clip-path="url(#clip230)" d="M1089.57 1532.4 L1095.42 1532.4 L1095.42 1568.04 L1089.57 1568.04 L1089.57 1532.4 M1089.57 1518.52 L1095.42 1518.52 L1095.42 1525.93 L1089.57 1525.93 L1089.57 1518.52 Z" fill="#000000" fill-rule="nonzero" fill-opacity="1" /><path clip-path="url(#clip230)" d="M1133.33 1533.76 L1133.33 1539.24 Q1130.85 1537.87 1128.33 1537.2 Q1125.85 1536.5 1123.31 1536.5 Q1117.61 1536.5 1114.46 1540.13 Q1111.31 1543.73 1111.31 1550.25 Q1111.31 1556.78 1114.46 1560.4 Q1117.61 1564 1123.31 1564 Q1125.85 1564 1128.33 1563.33 Q1130.85 1562.63 1133.33 1561.26 L1133.33 1566.68 Q1130.88 1567.82 1128.24 1568.39 Q1125.63 1568.97 1122.67 1568.97 Q1114.62 1568.97 1109.87 1563.91 Q1105.13 1558.85 1105.13 1550.25 Q1105.13 1541.53 1109.91 1536.53 Q1114.71 1531.54 1123.05 1531.54 Q1125.76 1531.54 1128.33 1532.11 Q1130.91 1532.65 1133.33 1533.76 Z" fill="#000000" fill-rule="nonzero" fill-opacity="1" /><path clip-path="url(#clip230)" d="M1174.01 1548.76 L1174.01 1551.62 L1147.08 1551.62 Q1147.46 1557.67 1150.71 1560.85 Q1153.99 1564 1159.81 1564 Q1163.19 1564 1166.34 1563.17 Q1169.52 1562.35 1172.64 1560.69 L1172.64 1566.23 Q1169.49 1567.57 1166.18 1568.27 Q1162.87 1568.97 1159.46 1568.97 Q1150.93 1568.97 1145.94 1564 Q1140.97 1559.04 1140.97 1550.57 Q1140.97 1541.82 1145.68 1536.69 Q1150.42 1531.54 1158.44 1531.54 Q1165.64 1531.54 1169.81 1536.18 Q1174.01 1540.8 1174.01 1548.76 M1168.15 1547.04 Q1168.09 1542.23 1165.45 1539.37 Q1162.84 1536.5 1158.51 1536.5 Q1153.61 1536.5 1150.65 1539.27 Q1147.72 1542.04 1147.27 1547.07 L1168.15 1547.04 Z" fill="#000000" fill-rule="nonzero" fill-opacity="1" /><path clip-path="url(#clip230)" d="M1206.28 1562.63 L1216.79 1562.63 L1216.79 1526.38 L1205.36 1528.67 L1205.36 1522.82 L1216.72 1520.52 L1223.15 1520.52 L1223.15 1562.63 L1233.66 1562.63 L1233.66 1568.04 L1206.28 1568.04 L1206.28 1562.63 Z" fill="#000000" fill-rule="nonzero" fill-opacity="1" /><path clip-path="url(#clip230)" d="M1268.54 1533.45 L1268.54 1538.98 Q1266.06 1537.71 1263.38 1537.07 Q1260.71 1536.44 1257.84 1536.44 Q1253.48 1536.44 1251.29 1537.77 Q1249.12 1539.11 1249.12 1541.79 Q1249.12 1543.82 1250.68 1545 Q1252.24 1546.15 1256.95 1547.2 L1258.96 1547.64 Q1265.2 1548.98 1267.81 1551.43 Q1270.45 1553.85 1270.45 1558.21 Q1270.45 1563.17 1266.5 1566.07 Q1262.59 1568.97 1255.71 1568.97 Q1252.85 1568.97 1249.73 1568.39 Q1246.64 1567.85 1243.2 1566.74 L1243.2 1560.69 Q1246.45 1562.38 1249.6 1563.24 Q1252.75 1564.07 1255.84 1564.07 Q1259.98 1564.07 1262.21 1562.66 Q1264.43 1561.23 1264.43 1558.65 Q1264.43 1556.27 1262.81 1554.99 Q1261.22 1553.72 1255.78 1552.54 L1253.74 1552.07 Q1248.3 1550.92 1245.88 1548.56 Q1243.46 1546.18 1243.46 1542.04 Q1243.46 1537.01 1247.02 1534.27 Q1250.59 1531.54 1257.14 1531.54 Q1260.39 1531.54 1263.26 1532.01 Q1266.12 1532.49 1268.54 1533.45 Z" fill="#000000" fill-rule="nonzero" fill-opacity="1" /><path clip-path="url(#clip230)" d="M1285.57 1522.27 L1285.57 1532.4 L1297.63 1532.4 L1297.63 1536.95 L1285.57 1536.95 L1285.57 1556.3 Q1285.57 1560.66 1286.75 1561.9 Q1287.95 1563.14 1291.61 1563.14 L1297.63 1563.14 L1297.63 1568.04 L1291.61 1568.04 Q1284.84 1568.04 1282.26 1565.53 Q1279.68 1562.98 1279.68 1556.3 L1279.68 1536.95 L1275.38 1536.95 L1275.38 1532.4 L1279.68 1532.4 L1279.68 1522.27 L1285.57 1522.27 Z" fill="#000000" fill-rule="nonzero" fill-opacity="1" /><path clip-path="url(#clip230)" d="M1349.51 1537.81 L1349.51 1518.52 L1355.37 1518.52 L1355.37 1568.04 L1349.51 1568.04 L1349.51 1562.7 Q1347.66 1565.88 1344.83 1567.44 Q1342.03 1568.97 1338.08 1568.97 Q1331.62 1568.97 1327.55 1563.81 Q1323.51 1558.65 1323.51 1550.25 Q1323.51 1541.85 1327.55 1536.69 Q1331.62 1531.54 1338.08 1531.54 Q1342.03 1531.54 1344.83 1533.1 Q1347.66 1534.62 1349.51 1537.81 M1329.55 1550.25 Q1329.55 1556.71 1332.2 1560.4 Q1334.87 1564.07 1339.52 1564.07 Q1344.16 1564.07 1346.84 1560.4 Q1349.51 1556.71 1349.51 1550.25 Q1349.51 1543.79 1346.84 1540.13 Q1344.16 1536.44 1339.52 1536.44 Q1334.87 1536.44 1332.2 1540.13 Q1329.55 1543.79 1329.55 1550.25 Z" fill="#000000" fill-rule="nonzero" fill-opacity="1" /><path clip-path="url(#clip230)" d="M1397.92 1548.76 L1397.92 1551.62 L1371 1551.62 Q1371.38 1557.67 1374.62 1560.85 Q1377.9 1564 1383.73 1564 Q1387.1 1564 1390.25 1563.17 Q1393.43 1562.35 1396.55 1560.69 L1396.55 1566.23 Q1393.4 1567.57 1390.09 1568.27 Q1386.78 1568.97 1383.38 1568.97 Q1374.85 1568.97 1369.85 1564 Q1364.88 1559.04 1364.88 1550.57 Q1364.88 1541.82 1369.59 1536.69 Q1374.34 1531.54 1382.36 1531.54 Q1389.55 1531.54 1393.72 1536.18 Q1397.92 1540.8 1397.92 1548.76 M1392.07 1547.04 Q1392 1542.23 1389.36 1539.37 Q1386.75 1536.5 1382.42 1536.5 Q1377.52 1536.5 1374.56 1539.27 Q1371.63 1542.04 1371.19 1547.07 L1392.07 1547.04 Z" fill="#000000" fill-rule="nonzero" fill-opacity="1" /><path clip-path="url(#clip230)" d="M1428.19 1537.87 Q1427.2 1537.3 1426.03 1537.04 Q1424.88 1536.76 1423.48 1536.76 Q1418.52 1536.76 1415.84 1540 Q1413.2 1543.22 1413.2 1549.27 L1413.2 1568.04 L1407.31 1568.04 L1407.31 1532.4 L1413.2 1532.4 L1413.2 1537.93 Q1415.05 1534.69 1418.01 1533.13 Q1420.97 1531.54 1425.2 1531.54 Q1425.8 1531.54 1426.54 1531.63 Q1427.27 1531.7 1428.16 1531.85 L1428.19 1537.87 Z" fill="#000000" fill-rule="nonzero" fill-opacity="1" /><path clip-path="url(#clip230)" d="M1434.33 1532.4 L1440.19 1532.4 L1440.19 1568.04 L1434.33 1568.04 L1434.33 1532.4 M1434.33 1518.52 L1440.19 1518.52 L1440.19 1525.93 L1434.33 1525.93 L1434.33 1518.52 Z" fill="#000000" fill-rule="nonzero" fill-opacity="1" /><path clip-path="url(#clip230)" d="M1448.24 1532.4 L1454.45 1532.4 L1465.59 1562.31 L1476.73 1532.4 L1482.94 1532.4 L1469.57 1568.04 L1461.61 1568.04 L1448.24 1532.4 Z" fill="#000000" fill-rule="nonzero" fill-opacity="1" /><path clip-path="url(#clip230)" d="M1511.74 1518.52 L1517.6 1518.52 L1517.6 1568.04 L1511.74 1568.04 L1511.74 1518.52 Z" fill="#000000" fill-rule="nonzero" fill-opacity="1" /><path clip-path="url(#clip230)" d="M1546.05 1550.12 Q1538.95 1550.12 1536.22 1551.75 Q1533.48 1553.37 1533.48 1557.29 Q1533.48 1560.4 1535.52 1562.25 Q1537.59 1564.07 1541.12 1564.07 Q1545.99 1564.07 1548.92 1560.63 Q1551.88 1557.16 1551.88 1551.43 L1551.88 1550.12 L1546.05 1550.12 M1557.73 1547.71 L1557.73 1568.04 L1551.88 1568.04 L1551.88 1562.63 Q1549.87 1565.88 1546.88 1567.44 Q1543.89 1568.97 1539.56 1568.97 Q1534.08 1568.97 1530.84 1565.91 Q1527.62 1562.82 1527.62 1557.67 Q1527.62 1551.65 1531.63 1548.6 Q1535.68 1545.54 1543.67 1545.54 L1551.88 1545.54 L1551.88 1544.97 Q1551.88 1540.93 1549.2 1538.73 Q1546.56 1536.5 1541.76 1536.5 Q1538.7 1536.5 1535.8 1537.23 Q1532.91 1537.97 1530.23 1539.43 L1530.23 1534.02 Q1533.45 1532.78 1536.47 1532.17 Q1539.5 1531.54 1542.36 1531.54 Q1550.09 1531.54 1553.91 1535.55 Q1557.73 1539.56 1557.73 1547.71 Z" fill="#000000" fill-rule="nonzero" fill-opacity="1" /><path clip-path="url(#clip230)" d="M1592.52 1533.45 L1592.52 1538.98 Q1590.04 1537.71 1587.37 1537.07 Q1584.69 1536.44 1581.83 1536.44 Q1577.47 1536.44 1575.27 1537.77 Q1573.11 1539.11 1573.11 1541.79 Q1573.11 1543.82 1574.67 1545 Q1576.23 1546.15 1580.94 1547.2 L1582.94 1547.64 Q1589.18 1548.98 1591.79 1551.43 Q1594.43 1553.85 1594.43 1558.21 Q1594.43 1563.17 1590.48 1566.07 Q1586.57 1568.97 1579.69 1568.97 Q1576.83 1568.97 1573.71 1568.39 Q1570.62 1567.85 1567.19 1566.74 L1567.19 1560.69 Q1570.43 1562.38 1573.58 1563.24 Q1576.73 1564.07 1579.82 1564.07 Q1583.96 1564.07 1586.19 1562.66 Q1588.42 1561.23 1588.42 1558.65 Q1588.42 1556.27 1586.79 1554.99 Q1585.2 1553.72 1579.76 1552.54 L1577.72 1552.07 Q1572.28 1550.92 1569.86 1548.56 Q1567.44 1546.18 1567.44 1542.04 Q1567.44 1537.01 1571.01 1534.27 Q1574.57 1531.54 1581.13 1531.54 Q1584.37 1531.54 1587.24 1532.01 Q1590.1 1532.49 1592.52 1533.45 Z" fill="#000000" fill-rule="nonzero" fill-opacity="1" /><path clip-path="url(#clip230)" d="M1609.55 1522.27 L1609.55 1532.4 L1621.61 1532.4 L1621.61 1536.95 L1609.55 1536.95 L1609.55 1556.3 Q1609.55 1560.66 1610.73 1561.9 Q1611.94 1563.14 1615.6 1563.14 L1621.61 1563.14 L1621.61 1568.04 L1615.6 1568.04 Q1608.82 1568.04 1606.24 1565.53 Q1603.66 1562.98 1603.66 1556.3 L1603.66 1536.95 L1599.36 1536.95 L1599.36 1532.4 L1603.66 1532.4 L1603.66 1522.27 L1609.55 1522.27 Z" fill="#000000" fill-rule="nonzero" fill-opacity="1" /><path clip-path="url(#clip230)" d="M1670.34 1542.42 Q1674.96 1543.41 1677.54 1546.53 Q1680.15 1549.65 1680.15 1554.23 Q1680.15 1561.26 1675.31 1565.12 Q1670.47 1568.97 1661.56 1568.97 Q1658.57 1568.97 1655.38 1568.36 Q1652.23 1567.79 1648.86 1566.61 L1648.86 1560.4 Q1651.53 1561.96 1654.71 1562.76 Q1657.9 1563.56 1661.37 1563.56 Q1667.41 1563.56 1670.57 1561.17 Q1673.75 1558.78 1673.75 1554.23 Q1673.75 1550.03 1670.79 1547.67 Q1667.86 1545.29 1662.61 1545.29 L1657.07 1545.29 L1657.07 1540 L1662.86 1540 Q1667.61 1540 1670.12 1538.13 Q1672.63 1536.22 1672.63 1532.65 Q1672.63 1528.99 1670.02 1527.05 Q1667.45 1525.08 1662.61 1525.08 Q1659.97 1525.08 1656.94 1525.65 Q1653.92 1526.22 1650.29 1527.43 L1650.29 1521.7 Q1653.95 1520.68 1657.13 1520.17 Q1660.35 1519.66 1663.18 1519.66 Q1670.5 1519.66 1674.77 1523.01 Q1679.03 1526.32 1679.03 1531.98 Q1679.03 1535.93 1676.77 1538.67 Q1674.51 1541.37 1670.34 1542.42 Z" fill="#000000" fill-rule="nonzero" fill-opacity="1" /><path clip-path="url(#clip230)" d="M1728.43 1550.12 Q1721.33 1550.12 1718.59 1551.75 Q1715.86 1553.37 1715.86 1557.29 Q1715.86 1560.4 1717.89 1562.25 Q1719.96 1564.07 1723.5 1564.07 Q1728.37 1564.07 1731.29 1560.63 Q1734.25 1557.16 1734.25 1551.43 L1734.25 1550.12 L1728.43 1550.12 M1740.11 1547.71 L1740.11 1568.04 L1734.25 1568.04 L1734.25 1562.63 Q1732.25 1565.88 1729.26 1567.44 Q1726.27 1568.97 1721.94 1568.97 Q1716.46 1568.97 1713.22 1565.91 Q1710 1562.82 1710 1557.67 Q1710 1551.65 1714.01 1548.6 Q1718.05 1545.54 1726.04 1545.54 L1734.25 1545.54 L1734.25 1544.97 Q1734.25 1540.93 1731.58 1538.73 Q1728.94 1536.5 1724.13 1536.5 Q1721.08 1536.5 1718.18 1537.23 Q1715.28 1537.97 1712.61 1539.43 L1712.61 1534.02 Q1715.83 1532.78 1718.85 1532.17 Q1721.87 1531.54 1724.74 1531.54 Q1732.47 1531.54 1736.29 1535.55 Q1740.11 1539.56 1740.11 1547.71 Z" fill="#000000" fill-rule="nonzero" fill-opacity="1" /><path clip-path="url(#clip230)" d="M1747.97 1532.4 L1754.18 1532.4 L1765.32 1562.31 L1776.46 1532.4 L1782.67 1532.4 L1769.3 1568.04 L1761.34 1568.04 L1747.97 1532.4 Z" fill="#000000" fill-rule="nonzero" fill-opacity="1" /><path clip-path="url(#clip230)" d="M1814.21 1549.81 Q1814.21 1543.44 1811.57 1539.94 Q1808.96 1536.44 1804.21 1536.44 Q1799.5 1536.44 1796.86 1539.94 Q1794.25 1543.44 1794.25 1549.81 Q1794.25 1556.14 1796.86 1559.64 Q1799.5 1563.14 1804.21 1563.14 Q1808.96 1563.14 1811.57 1559.64 Q1814.21 1556.14 1814.21 1549.81 M1820.06 1563.62 Q1820.06 1572.72 1816.02 1577.15 Q1811.98 1581.6 1803.64 1581.6 Q1800.55 1581.6 1797.82 1581.13 Q1795.08 1580.68 1792.5 1579.72 L1792.5 1574.03 Q1795.08 1575.43 1797.59 1576.1 Q1800.11 1576.76 1802.72 1576.76 Q1808.48 1576.76 1811.34 1573.74 Q1814.21 1570.75 1814.21 1564.67 L1814.21 1561.77 Q1812.39 1564.92 1809.56 1566.48 Q1806.73 1568.04 1802.78 1568.04 Q1796.22 1568.04 1792.21 1563.05 Q1788.2 1558.05 1788.2 1549.81 Q1788.2 1541.53 1792.21 1536.53 Q1796.22 1531.54 1802.78 1531.54 Q1806.73 1531.54 1809.56 1533.1 Q1812.39 1534.66 1814.21 1537.81 L1814.21 1532.4 L1820.06 1532.4 L1820.06 1563.62 Z" fill="#000000" fill-rule="nonzero" fill-opacity="1" /><path clip-path="url(#clip230)" d="M1832.95 1559.96 L1839.67 1559.96 L1839.67 1568.04 L1832.95 1568.04 L1832.95 1559.96 Z" fill="#000000" fill-rule="nonzero" fill-opacity="1" /><polyline clip-path="url(#clip230)" style="stroke:#000000; stroke-linecap:round; stroke-linejoin:round; stroke-width:4; stroke-opacity:1; fill:none" points="212.459,1423.18 212.459,123.472 "/>
<polyline clip-path="url(#clip230)" style="stroke:#000000; stroke-linecap:round; stroke-linejoin:round; stroke-width:4; stroke-opacity:1; fill:none" points="212.459,1396.53 231.357,1396.53 "/>
<polyline clip-path="url(#clip230)" style="stroke:#000000; stroke-linecap:round; stroke-linejoin:round; stroke-width:4; stroke-opacity:1; fill:none" points="212.459,1130.7 231.357,1130.7 "/>
<polyline clip-path="url(#clip230)" style="stroke:#000000; stroke-linecap:round; stroke-linejoin:round; stroke-width:4; stroke-opacity:1; fill:none" points="212.459,864.861 231.357,864.861 "/>
<polyline clip-path="url(#clip230)" style="stroke:#000000; stroke-linecap:round; stroke-linejoin:round; stroke-width:4; stroke-opacity:1; fill:none" points="212.459,599.026 231.357,599.026 "/>
<polyline clip-path="url(#clip230)" style="stroke:#000000; stroke-linecap:round; stroke-linejoin:round; stroke-width:4; stroke-opacity:1; fill:none" points="212.459,333.191 231.357,333.191 "/>
<path clip-path="url(#clip230)" d="M114.26 1396.98 L143.936 1396.98 L143.936 1400.92 L114.26 1400.92 L114.26 1396.98 Z" fill="#000000" fill-rule="nonzero" fill-opacity="1" /><path clip-path="url(#clip230)" d="M166.876 1383.32 L155.07 1401.77 L166.876 1401.77 L166.876 1383.32 M165.649 1379.25 L171.528 1379.25 L171.528 1401.77 L176.459 1401.77 L176.459 1405.66 L171.528 1405.66 L171.528 1413.81 L166.876 1413.81 L166.876 1405.66 L151.274 1405.66 L151.274 1401.15 L165.649 1379.25 Z" fill="#000000" fill-rule="nonzero" fill-opacity="1" /><path clip-path="url(#clip230)" d="M116.343 1131.15 L146.019 1131.15 L146.019 1135.08 L116.343 1135.08 L116.343 1131.15 Z" fill="#000000" fill-rule="nonzero" fill-opacity="1" /><path clip-path="url(#clip230)" d="M160.14 1144.04 L176.459 1144.04 L176.459 1147.98 L154.515 1147.98 L154.515 1144.04 Q157.177 1141.29 161.76 1136.66 Q166.366 1132 167.547 1130.66 Q169.792 1128.14 170.672 1126.4 Q171.575 1124.64 171.575 1122.95 Q171.575 1120.2 169.63 1118.46 Q167.709 1116.73 164.607 1116.73 Q162.408 1116.73 159.954 1117.49 Q157.524 1118.25 154.746 1119.8 L154.746 1115.08 Q157.57 1113.95 160.024 1113.37 Q162.477 1112.79 164.515 1112.79 Q169.885 1112.79 173.079 1115.48 Q176.274 1118.16 176.274 1122.65 Q176.274 1124.78 175.464 1126.7 Q174.677 1128.6 172.57 1131.19 Q171.991 1131.86 168.889 1135.08 Q165.788 1138.28 160.14 1144.04 Z" fill="#000000" fill-rule="nonzero" fill-opacity="1" /><path clip-path="url(#clip230)" d="M164.515 850.659 Q160.903 850.659 159.075 854.224 Q157.269 857.766 157.269 864.895 Q157.269 872.002 159.075 875.567 Q160.903 879.108 164.515 879.108 Q168.149 879.108 169.954 875.567 Q171.783 872.002 171.783 864.895 Q171.783 857.766 169.954 854.224 Q168.149 850.659 164.515 850.659 M164.515 846.956 Q170.325 846.956 173.38 851.562 Q176.459 856.145 176.459 864.895 Q176.459 873.622 173.38 878.229 Q170.325 882.812 164.515 882.812 Q158.704 882.812 155.626 878.229 Q152.57 873.622 152.57 864.895 Q152.57 856.145 155.626 851.562 Q158.704 846.956 164.515 846.956 Z" fill="#000000" fill-rule="nonzero" fill-opacity="1" /><path clip-path="url(#clip230)" d="M160.14 612.371 L176.459 612.371 L176.459 616.306 L154.515 616.306 L154.515 612.371 Q157.177 609.616 161.76 604.987 Q166.366 600.334 167.547 598.991 Q169.792 596.468 170.672 594.732 Q171.575 592.973 171.575 591.283 Q171.575 588.528 169.63 586.792 Q167.709 585.056 164.607 585.056 Q162.408 585.056 159.954 585.82 Q157.524 586.584 154.746 588.135 L154.746 583.413 Q157.57 582.278 160.024 581.7 Q162.477 581.121 164.515 581.121 Q169.885 581.121 173.079 583.806 Q176.274 586.491 176.274 590.982 Q176.274 593.112 175.464 595.033 Q174.677 596.931 172.57 599.524 Q171.991 600.195 168.889 603.413 Q165.788 606.607 160.14 612.371 Z" fill="#000000" fill-rule="nonzero" fill-opacity="1" /><path clip-path="url(#clip230)" d="M166.876 319.985 L155.07 338.434 L166.876 338.434 L166.876 319.985 M165.649 315.911 L171.528 315.911 L171.528 338.434 L176.459 338.434 L176.459 342.323 L171.528 342.323 L171.528 350.471 L166.876 350.471 L166.876 342.323 L151.274 342.323 L151.274 337.809 L165.649 315.911 Z" fill="#000000" fill-rule="nonzero" fill-opacity="1" /><path clip-path="url(#clip230)" d="M21.7677 1179.81 L39.6235 1179.81 L39.6235 1171.72 Q39.6235 1167.24 37.3 1164.79 Q34.9765 1162.33 30.6797 1162.33 Q26.4147 1162.33 24.0912 1164.79 Q21.7677 1167.24 21.7677 1171.72 L21.7677 1179.81 M16.4842 1186.24 L16.4842 1171.72 Q16.4842 1163.73 20.1126 1159.66 Q23.7092 1155.55 30.6797 1155.55 Q37.7138 1155.55 41.3104 1159.66 Q44.907 1163.73 44.907 1171.72 L44.907 1179.81 L64.0042 1179.81 L64.0042 1186.24 L16.4842 1186.24 Z" fill="#000000" fill-rule="nonzero" fill-opacity="1" /><path clip-path="url(#clip230)" d="M33.8307 1127.67 Q33.2578 1128.66 33.0032 1129.84 Q32.7167 1130.98 32.7167 1132.38 Q32.7167 1137.35 35.9632 1140.02 Q39.1779 1142.66 45.2253 1142.66 L64.0042 1142.66 L64.0042 1148.55 L28.3562 1148.55 L28.3562 1142.66 L33.8944 1142.66 Q30.6479 1140.82 29.0883 1137.86 Q27.4968 1134.9 27.4968 1130.66 Q27.4968 1130.06 27.5923 1129.33 Q27.656 1128.6 27.8151 1127.7 L33.8307 1127.67 Z" fill="#000000" fill-rule="nonzero" fill-opacity="1" /><path clip-path="url(#clip230)" d="M32.4621 1109.15 Q32.4621 1113.86 36.1542 1116.6 Q39.8145 1119.33 46.212 1119.33 Q52.6095 1119.33 56.3017 1116.63 Q59.9619 1113.89 59.9619 1109.15 Q59.9619 1104.47 56.2698 1101.73 Q52.5777 1099 46.212 1099 Q39.8781 1099 36.186 1101.73 Q32.4621 1104.47 32.4621 1109.15 M27.4968 1109.15 Q27.4968 1101.51 32.4621 1097.15 Q37.4273 1092.79 46.212 1092.79 Q54.9649 1092.79 59.9619 1097.15 Q64.9272 1101.51 64.9272 1109.15 Q64.9272 1116.82 59.9619 1121.18 Q54.9649 1125.51 46.212 1125.51 Q37.4273 1125.51 32.4621 1121.18 Q27.4968 1116.82 27.4968 1109.15 Z" fill="#000000" fill-rule="nonzero" fill-opacity="1" /><path clip-path="url(#clip230)" d="M14.479 1065.03 L19.3487 1065.03 L19.3487 1070.64 Q19.3487 1073.79 20.6219 1075.03 Q21.895 1076.24 25.2052 1076.24 L28.3562 1076.24 L28.3562 1066.59 L32.9077 1066.59 L32.9077 1076.24 L64.0042 1076.24 L64.0042 1082.13 L32.9077 1082.13 L32.9077 1087.73 L28.3562 1087.73 L28.3562 1082.13 L25.8736 1082.13 Q19.9216 1082.13 17.2162 1079.36 Q14.479 1076.59 14.479 1070.57 L14.479 1065.03 Z" fill="#000000" fill-rule="nonzero" fill-opacity="1" /><path clip-path="url(#clip230)" d="M28.3562 1060.13 L28.3562 1054.28 L64.0042 1054.28 L64.0042 1060.13 L28.3562 1060.13 M14.479 1060.13 L14.479 1054.28 L21.895 1054.28 L21.895 1060.13 L14.479 1060.13 Z" fill="#000000" fill-rule="nonzero" fill-opacity="1" /><path clip-path="url(#clip230)" d="M18.2347 1036.23 L28.3562 1036.23 L28.3562 1024.17 L32.9077 1024.17 L32.9077 1036.23 L52.2594 1036.23 Q56.6199 1036.23 57.8613 1035.05 Q59.1026 1033.84 59.1026 1030.18 L59.1026 1024.17 L64.0042 1024.17 L64.0042 1030.18 Q64.0042 1036.96 61.4897 1039.54 Q58.9434 1042.12 52.2594 1042.12 L32.9077 1042.12 L32.9077 1046.41 L28.3562 1046.41 L28.3562 1042.12 L18.2347 1042.12 L18.2347 1036.23 Z" fill="#000000" fill-rule="nonzero" fill-opacity="1" /><path clip-path="url(#clip230)" d="M58.5933 993.802 L58.5933 983.299 L22.3406 983.299 L24.6323 994.725 L18.7758 994.725 L16.4842 983.362 L16.4842 976.933 L58.5933 976.933 L58.5933 966.43 L64.0042 966.43 L64.0042 993.802 L58.5933 993.802 Z" fill="#000000" fill-rule="nonzero" fill-opacity="1" /><path clip-path="url(#clip230)" d="M29.4065 931.546 L34.9447 931.546 Q33.6716 934.028 33.035 936.702 Q32.3984 939.375 32.3984 942.24 Q32.3984 946.601 33.7352 948.797 Q35.072 950.961 37.7456 950.961 Q39.7826 950.961 40.9603 949.401 Q42.1061 947.842 43.1565 943.131 L43.6021 941.126 Q44.9389 934.888 47.3897 932.278 Q49.8086 929.636 54.1691 929.636 Q59.1344 929.636 62.0308 933.583 Q64.9272 937.498 64.9272 944.373 Q64.9272 947.237 64.3543 950.356 Q63.8132 953.444 62.6992 956.881 L56.6518 956.881 Q58.3387 953.635 59.198 950.484 Q60.0256 947.333 60.0256 944.245 Q60.0256 940.107 58.6251 937.88 Q57.1929 935.652 54.6147 935.652 Q52.2276 935.652 50.9545 937.275 Q49.6813 938.866 48.5037 944.309 L48.0262 946.346 Q46.8804 951.789 44.5251 954.208 Q42.138 956.627 38.0002 956.627 Q32.9713 956.627 30.2341 953.062 Q27.4968 949.497 27.4968 942.94 Q27.4968 939.694 27.9743 936.829 Q28.4517 933.965 29.4065 931.546 Z" fill="#000000" fill-rule="nonzero" fill-opacity="1" /><path clip-path="url(#clip230)" d="M18.2347 914.517 L28.3562 914.517 L28.3562 902.454 L32.9077 902.454 L32.9077 914.517 L52.2594 914.517 Q56.6199 914.517 57.8613 913.34 Q59.1026 912.13 59.1026 908.47 L59.1026 902.454 L64.0042 902.454 L64.0042 908.47 Q64.0042 915.249 61.4897 917.828 Q58.9434 920.406 52.2594 920.406 L32.9077 920.406 L32.9077 924.702 L28.3562 924.702 L28.3562 920.406 L18.2347 920.406 L18.2347 914.517 Z" fill="#000000" fill-rule="nonzero" fill-opacity="1" /><path clip-path="url(#clip230)" d="M33.7671 850.574 L14.479 850.574 L14.479 844.717 L64.0042 844.717 L64.0042 850.574 L58.657 850.574 Q61.8398 852.42 63.3994 855.253 Q64.9272 858.054 64.9272 862 Q64.9272 868.461 59.771 872.536 Q54.6147 876.578 46.212 876.578 Q37.8093 876.578 32.6531 872.536 Q27.4968 868.461 27.4968 862 Q27.4968 858.054 29.0564 855.253 Q30.5842 852.42 33.7671 850.574 M46.212 870.53 Q52.6732 870.53 56.3653 867.889 Q60.0256 865.215 60.0256 860.568 Q60.0256 855.921 56.3653 853.247 Q52.6732 850.574 46.212 850.574 Q39.7508 850.574 36.0905 853.247 Q32.3984 855.921 32.3984 860.568 Q32.3984 865.215 36.0905 867.889 Q39.7508 870.53 46.212 870.53 Z" fill="#000000" fill-rule="nonzero" fill-opacity="1" /><path clip-path="url(#clip230)" d="M44.7161 802.163 L47.5806 802.163 L47.5806 829.09 Q53.6281 828.708 56.8109 825.461 Q59.9619 822.183 59.9619 816.358 Q59.9619 812.984 59.1344 809.833 Q58.3069 806.65 56.6518 803.531 L62.1899 803.531 Q63.5267 806.682 64.227 809.992 Q64.9272 813.303 64.9272 816.708 Q64.9272 825.238 59.9619 830.235 Q54.9967 835.201 46.5303 835.201 Q37.7774 835.201 32.6531 830.49 Q27.4968 825.748 27.4968 817.727 Q27.4968 810.534 32.1438 806.364 Q36.7589 802.163 44.7161 802.163 M42.9973 808.019 Q38.1912 808.083 35.3266 810.725 Q32.4621 813.334 32.4621 817.663 Q32.4621 822.565 35.2312 825.525 Q38.0002 828.453 43.0292 828.899 L42.9973 808.019 Z" fill="#000000" fill-rule="nonzero" fill-opacity="1" /><path clip-path="url(#clip230)" d="M33.8307 771.894 Q33.2578 772.88 33.0032 774.058 Q32.7167 775.204 32.7167 776.604 Q32.7167 781.57 35.9632 784.243 Q39.1779 786.885 45.2253 786.885 L64.0042 786.885 L64.0042 792.773 L28.3562 792.773 L28.3562 786.885 L33.8944 786.885 Q30.6479 785.039 29.0883 782.079 Q27.4968 779.119 27.4968 774.886 Q27.4968 774.281 27.5923 773.549 Q27.656 772.817 27.8151 771.926 L33.8307 771.894 Z" fill="#000000" fill-rule="nonzero" fill-opacity="1" /><path clip-path="url(#clip230)" d="M28.3562 765.751 L28.3562 759.894 L64.0042 759.894 L64.0042 765.751 L28.3562 765.751 M14.479 765.751 L14.479 759.894 L21.895 759.894 L21.895 765.751 L14.479 765.751 Z" fill="#000000" fill-rule="nonzero" fill-opacity="1" /><path clip-path="url(#clip230)" d="M28.3562 751.842 L28.3562 745.635 L58.275 734.495 L28.3562 723.355 L28.3562 717.149 L64.0042 730.517 L64.0042 738.474 L28.3562 751.842 Z" fill="#000000" fill-rule="nonzero" fill-opacity="1" /><path clip-path="url(#clip230)" d="M14.479 688.344 L14.479 682.487 L64.0042 682.487 L64.0042 688.344 L14.479 688.344 Z" fill="#000000" fill-rule="nonzero" fill-opacity="1" /><path clip-path="url(#clip230)" d="M46.0847 654.033 Q46.0847 661.13 47.7079 663.868 Q49.3312 666.605 53.2461 666.605 Q56.3653 666.605 58.2114 664.568 Q60.0256 662.499 60.0256 658.966 Q60.0256 654.096 56.5881 651.168 Q53.1188 648.208 47.3897 648.208 L46.0847 648.208 L46.0847 654.033 M43.6657 642.352 L64.0042 642.352 L64.0042 648.208 L58.5933 648.208 Q61.8398 650.213 63.3994 653.205 Q64.9272 656.197 64.9272 660.526 Q64.9272 666 61.8716 669.247 Q58.7843 672.461 53.6281 672.461 Q47.6125 672.461 44.5569 668.451 Q41.5014 664.409 41.5014 656.42 L41.5014 648.208 L40.9285 648.208 Q36.8862 648.208 34.6901 650.882 Q32.4621 653.523 32.4621 658.329 Q32.4621 661.385 33.1941 664.281 Q33.9262 667.178 35.3903 669.851 L29.9795 669.851 Q28.7381 666.637 28.1334 663.613 Q27.4968 660.589 27.4968 657.725 Q27.4968 649.99 31.5072 646.171 Q35.5176 642.352 43.6657 642.352 Z" fill="#000000" fill-rule="nonzero" fill-opacity="1" /><path clip-path="url(#clip230)" d="M29.4065 607.563 L34.9447 607.563 Q33.6716 610.046 33.035 612.719 Q32.3984 615.393 32.3984 618.257 Q32.3984 622.618 33.7352 624.814 Q35.072 626.978 37.7456 626.978 Q39.7826 626.978 40.9603 625.419 Q42.1061 623.859 43.1565 619.149 L43.6021 617.143 Q44.9389 610.905 47.3897 608.295 Q49.8086 605.653 54.1691 605.653 Q59.1344 605.653 62.0308 609.6 Q64.9272 613.515 64.9272 620.39 Q64.9272 623.254 64.3543 626.374 Q63.8132 629.461 62.6992 632.898 L56.6518 632.898 Q58.3387 629.652 59.198 626.501 Q60.0256 623.35 60.0256 620.263 Q60.0256 616.125 58.6251 613.897 Q57.1929 611.669 54.6147 611.669 Q52.2276 611.669 50.9545 613.292 Q49.6813 614.884 48.5037 620.326 L48.0262 622.363 Q46.8804 627.806 44.5251 630.225 Q42.138 632.644 38.0002 632.644 Q32.9713 632.644 30.2341 629.079 Q27.4968 625.514 27.4968 618.958 Q27.4968 615.711 27.9743 612.847 Q28.4517 609.982 29.4065 607.563 Z" fill="#000000" fill-rule="nonzero" fill-opacity="1" /><path clip-path="url(#clip230)" d="M18.2347 590.535 L28.3562 590.535 L28.3562 578.472 L32.9077 578.472 L32.9077 590.535 L52.2594 590.535 Q56.6199 590.535 57.8613 589.357 Q59.1026 588.148 59.1026 584.487 L59.1026 578.472 L64.0042 578.472 L64.0042 584.487 Q64.0042 591.267 61.4897 593.845 Q58.9434 596.423 52.2594 596.423 L32.9077 596.423 L32.9077 600.72 L28.3562 600.72 L28.3562 596.423 L18.2347 596.423 L18.2347 590.535 Z" fill="#000000" fill-rule="nonzero" fill-opacity="1" /><path clip-path="url(#clip230)" d="M38.3822 529.742 Q39.3689 525.127 42.4881 522.549 Q45.6073 519.939 50.1906 519.939 Q57.2247 519.939 61.0759 524.777 Q64.9272 529.615 64.9272 538.527 Q64.9272 541.519 64.3224 544.702 Q63.7495 547.853 62.5719 551.226 L56.3653 551.226 Q57.9249 548.553 58.7206 545.37 Q59.5163 542.187 59.5163 538.718 Q59.5163 532.67 57.1292 529.519 Q54.7421 526.337 50.1906 526.337 Q45.9892 526.337 43.6339 529.297 Q41.2468 532.225 41.2468 537.477 L41.2468 543.015 L35.9632 543.015 L35.9632 537.222 Q35.9632 532.479 34.0853 529.965 Q32.1756 527.451 28.6108 527.451 Q24.9505 527.451 23.009 530.061 Q21.0356 532.639 21.0356 537.477 Q21.0356 540.118 21.6086 543.142 Q22.1815 546.166 23.3909 549.794 L17.6618 549.794 Q16.6433 546.134 16.134 542.951 Q15.6248 539.736 15.6248 536.904 Q15.6248 529.583 18.9668 525.318 Q22.277 521.053 27.9424 521.053 Q31.8892 521.053 34.6264 523.313 Q37.3318 525.573 38.3822 529.742 Z" fill="#000000" fill-rule="nonzero" fill-opacity="1" /><path clip-path="url(#clip230)" d="M46.0847 471.655 Q46.0847 478.753 47.7079 481.49 Q49.3312 484.227 53.2461 484.227 Q56.3653 484.227 58.2114 482.19 Q60.0256 480.122 60.0256 476.589 Q60.0256 471.719 56.5881 468.791 Q53.1188 465.831 47.3897 465.831 L46.0847 465.831 L46.0847 471.655 M43.6657 459.974 L64.0042 459.974 L64.0042 465.831 L58.5933 465.831 Q61.8398 467.836 63.3994 470.828 Q64.9272 473.819 64.9272 478.148 Q64.9272 483.623 61.8716 486.869 Q58.7843 490.084 53.6281 490.084 Q47.6125 490.084 44.5569 486.073 Q41.5014 482.031 41.5014 474.042 L41.5014 465.831 L40.9285 465.831 Q36.8862 465.831 34.6901 468.504 Q32.4621 471.146 32.4621 475.952 Q32.4621 479.008 33.1941 481.904 Q33.9262 484.8 35.3903 487.474 L29.9795 487.474 Q28.7381 484.259 28.1334 481.236 Q27.4968 478.212 27.4968 475.347 Q27.4968 467.613 31.5072 463.793 Q35.5176 459.974 43.6657 459.974 Z" fill="#000000" fill-rule="nonzero" fill-opacity="1" /><path clip-path="url(#clip230)" d="M28.3562 452.112 L28.3562 445.906 L58.275 434.766 L28.3562 423.626 L28.3562 417.419 L64.0042 430.787 L64.0042 438.744 L28.3562 452.112 Z" fill="#000000" fill-rule="nonzero" fill-opacity="1" /><path clip-path="url(#clip230)" d="M45.7664 385.877 Q39.4007 385.877 35.8996 388.519 Q32.3984 391.129 32.3984 395.871 Q32.3984 400.582 35.8996 403.224 Q39.4007 405.834 45.7664 405.834 Q52.1003 405.834 55.6014 403.224 Q59.1026 400.582 59.1026 395.871 Q59.1026 391.129 55.6014 388.519 Q52.1003 385.877 45.7664 385.877 M59.58 380.021 Q68.683 380.021 73.1071 384.063 Q77.5631 388.105 77.5631 396.444 Q77.5631 399.532 77.0857 402.269 Q76.6401 405.006 75.6852 407.584 L69.9879 407.584 Q71.3884 405.006 72.0568 402.492 Q72.7252 399.977 72.7252 397.367 Q72.7252 391.606 69.7015 388.742 Q66.7096 385.877 60.6303 385.877 L57.7339 385.877 Q60.885 387.691 62.4446 390.524 Q64.0042 393.357 64.0042 397.304 Q64.0042 403.86 59.0071 407.871 Q54.01 411.881 45.7664 411.881 Q37.491 411.881 32.4939 407.871 Q27.4968 403.86 27.4968 397.304 Q27.4968 393.357 29.0564 390.524 Q30.616 387.691 33.7671 385.877 L28.3562 385.877 L28.3562 380.021 L59.58 380.021 Z" fill="#000000" fill-rule="nonzero" fill-opacity="1" /><path clip-path="url(#clip230)" d="M55.9197 367.13 L55.9197 360.414 L64.0042 360.414 L64.0042 367.13 L55.9197 367.13 Z" fill="#000000" fill-rule="nonzero" fill-opacity="1" /><path clip-path="url(#clip230)" d="M228.501 65.6895 L241.869 65.6895 L241.869 19.5497 L227.327 22.4663 L227.327 15.0127 L241.788 12.096 L249.971 12.096 L249.971 65.6895 L263.339 65.6895 L263.339 72.576 L228.501 72.576 L228.501 65.6895 Z" fill="#000000" fill-rule="nonzero" fill-opacity="1" /><path clip-path="url(#clip230)" d="M307.737 28.5427 L307.737 35.5912 Q304.577 33.9709 301.175 33.1607 Q297.772 32.3505 294.126 32.3505 Q288.576 32.3505 285.781 34.0519 Q283.027 35.7533 283.027 39.156 Q283.027 41.7486 285.011 43.2475 Q286.996 44.7058 292.992 46.0426 L295.544 46.6097 Q303.484 48.3111 306.805 51.4303 Q310.168 54.509 310.168 60.0587 Q310.168 66.3781 305.144 70.0644 Q300.162 73.7508 291.412 73.7508 Q287.766 73.7508 283.796 73.0216 Q279.867 72.3329 275.492 70.9151 L275.492 63.2184 Q279.624 65.3654 283.634 66.4591 Q287.645 67.5124 291.574 67.5124 Q296.84 67.5124 299.676 65.73 Q302.511 63.9071 302.511 60.6258 Q302.511 57.5877 300.445 55.9673 Q298.42 54.3469 291.493 52.8481 L288.9 52.2405 Q281.973 50.7821 278.895 47.7845 Q275.816 44.7463 275.816 39.4801 Q275.816 33.0797 280.353 29.5959 Q284.89 26.1121 293.235 26.1121 Q297.367 26.1121 301.013 26.7198 Q304.658 27.3274 307.737 28.5427 Z" fill="#000000" fill-rule="nonzero" fill-opacity="1" /><path clip-path="url(#clip230)" d="M329.409 14.324 L329.409 27.2059 L344.762 27.2059 L344.762 32.9987 L329.409 32.9987 L329.409 57.6282 Q329.409 63.1779 330.908 64.7578 Q332.448 66.3376 337.106 66.3376 L344.762 66.3376 L344.762 72.576 L337.106 72.576 Q328.478 72.576 325.196 69.3758 Q321.915 66.1351 321.915 57.6282 L321.915 32.9987 L316.446 32.9987 L316.446 27.2059 L321.915 27.2059 L321.915 14.324 L329.409 14.324 Z" fill="#000000" fill-rule="nonzero" fill-opacity="1" /><path clip-path="url(#clip230)" d="M410.792 34.0924 L410.792 9.54393 L418.246 9.54393 L418.246 72.576 L410.792 72.576 L410.792 65.7705 Q408.443 69.8214 404.837 71.8063 Q401.272 73.7508 396.249 73.7508 Q388.026 73.7508 382.841 67.1883 Q377.696 60.6258 377.696 49.9314 Q377.696 39.2371 382.841 32.6746 Q388.026 26.1121 396.249 26.1121 Q401.272 26.1121 404.837 28.0971 Q408.443 30.0415 410.792 34.0924 M385.393 49.9314 Q385.393 58.1548 388.755 62.8538 Q392.158 67.5124 398.072 67.5124 Q403.987 67.5124 407.389 62.8538 Q410.792 58.1548 410.792 49.9314 Q410.792 41.7081 407.389 37.0496 Q403.987 32.3505 398.072 32.3505 Q392.158 32.3505 388.755 37.0496 Q385.393 41.7081 385.393 49.9314 Z" fill="#000000" fill-rule="nonzero" fill-opacity="1" /><path clip-path="url(#clip230)" d="M472.406 48.0275 L472.406 51.6733 L438.136 51.6733 Q438.622 59.3701 442.754 63.421 Q446.926 67.4314 454.339 67.4314 Q458.633 67.4314 462.644 66.3781 Q466.695 65.3249 470.664 63.2184 L470.664 70.267 Q466.654 71.9684 462.441 72.8596 Q458.228 73.7508 453.894 73.7508 Q443.037 73.7508 436.677 67.4314 Q430.358 61.1119 430.358 50.3365 Q430.358 39.1965 436.353 32.6746 Q442.389 26.1121 452.597 26.1121 Q461.752 26.1121 467.059 32.0264 Q472.406 37.9003 472.406 48.0275 M464.953 45.84 Q464.872 39.7232 461.509 36.0774 Q458.188 32.4315 452.678 32.4315 Q446.44 32.4315 442.673 35.9558 Q438.946 39.4801 438.379 45.8805 L464.953 45.84 Z" fill="#000000" fill-rule="nonzero" fill-opacity="1" /><path clip-path="url(#clip230)" d="M510.93 34.1734 Q509.675 33.4443 508.176 33.1202 Q506.717 32.7556 504.935 32.7556 Q498.616 32.7556 495.213 36.8875 Q491.851 40.9789 491.851 48.6757 L491.851 72.576 L484.356 72.576 L484.356 27.2059 L491.851 27.2059 L491.851 34.2544 Q494.2 30.1225 497.968 28.1376 Q501.735 26.1121 507.123 26.1121 Q507.892 26.1121 508.824 26.2337 Q509.756 26.3147 510.89 26.5172 L510.93 34.1734 Z" fill="#000000" fill-rule="nonzero" fill-opacity="1" /><path clip-path="url(#clip230)" d="M518.749 27.2059 L526.202 27.2059 L526.202 72.576 L518.749 72.576 L518.749 27.2059 M518.749 9.54393 L526.202 9.54393 L526.202 18.9825 L518.749 18.9825 L518.749 9.54393 Z" fill="#000000" fill-rule="nonzero" fill-opacity="1" /><path clip-path="url(#clip230)" d="M536.451 27.2059 L544.35 27.2059 L558.529 65.2844 L572.707 27.2059 L580.606 27.2059 L563.592 72.576 L553.465 72.576 L536.451 27.2059 Z" fill="#000000" fill-rule="nonzero" fill-opacity="1" /><path clip-path="url(#clip230)" d="M611.514 49.7694 Q602.481 49.7694 598.997 51.8354 Q595.513 53.9013 595.513 58.8839 Q595.513 62.8538 598.106 65.2034 Q600.739 67.5124 605.235 67.5124 Q611.433 67.5124 615.16 63.1374 Q618.928 58.7219 618.928 51.4303 L618.928 49.7694 L611.514 49.7694 M626.381 46.6907 L626.381 72.576 L618.928 72.576 L618.928 65.6895 Q616.375 69.8214 612.568 71.8063 Q608.76 73.7508 603.251 73.7508 Q596.283 73.7508 592.151 69.8619 Q588.06 65.9325 588.06 59.3701 Q588.06 51.7138 593.164 47.825 Q598.308 43.9361 608.476 43.9361 L618.928 43.9361 L618.928 43.2069 Q618.928 38.0623 615.525 35.2672 Q612.162 32.4315 606.046 32.4315 Q602.157 32.4315 598.47 33.3632 Q594.784 34.295 591.381 36.1584 L591.381 29.2718 Q595.473 27.692 599.321 26.9223 Q603.169 26.1121 606.815 26.1121 Q616.659 26.1121 621.52 31.2163 Q626.381 36.3204 626.381 46.6907 Z" fill="#000000" fill-rule="nonzero" fill-opacity="1" /><path clip-path="url(#clip230)" d="M649.107 14.324 L649.107 27.2059 L664.46 27.2059 L664.46 32.9987 L649.107 32.9987 L649.107 57.6282 Q649.107 63.1779 650.606 64.7578 Q652.145 66.3376 656.803 66.3376 L664.46 66.3376 L664.46 72.576 L656.803 72.576 Q648.175 72.576 644.894 69.3758 Q641.613 66.1351 641.613 57.6282 L641.613 32.9987 L636.144 32.9987 L636.144 27.2059 L641.613 27.2059 L641.613 14.324 L649.107 14.324 Z" fill="#000000" fill-rule="nonzero" fill-opacity="1" /><path clip-path="url(#clip230)" d="M674.263 27.2059 L681.717 27.2059 L681.717 72.576 L674.263 72.576 L674.263 27.2059 M674.263 9.54393 L681.717 9.54393 L681.717 18.9825 L674.263 18.9825 L674.263 9.54393 Z" fill="#000000" fill-rule="nonzero" fill-opacity="1" /><path clip-path="url(#clip230)" d="M691.965 27.2059 L699.865 27.2059 L714.043 65.2844 L728.221 27.2059 L736.12 27.2059 L719.106 72.576 L708.979 72.576 L691.965 27.2059 Z" fill="#000000" fill-rule="nonzero" fill-opacity="1" /><path clip-path="url(#clip230)" d="M785.217 48.0275 L785.217 51.6733 L750.946 51.6733 Q751.433 59.3701 755.565 63.421 Q759.737 67.4314 767.15 67.4314 Q771.444 67.4314 775.454 66.3781 Q779.505 65.3249 783.475 63.2184 L783.475 70.267 Q779.465 71.9684 775.252 72.8596 Q771.039 73.7508 766.704 73.7508 Q755.848 73.7508 749.488 67.4314 Q743.169 61.1119 743.169 50.3365 Q743.169 39.1965 749.164 32.6746 Q755.2 26.1121 765.408 26.1121 Q774.563 26.1121 779.87 32.0264 Q785.217 37.9003 785.217 48.0275 M777.763 45.84 Q777.682 39.7232 774.32 36.0774 Q770.998 32.4315 765.489 32.4315 Q759.251 32.4315 755.483 35.9558 Q751.757 39.4801 751.19 45.8805 L777.763 45.84 Z" fill="#000000" fill-rule="nonzero" fill-opacity="1" /><path clip-path="url(#clip230)" d="M844.441 49.7694 Q835.408 49.7694 831.924 51.8354 Q828.44 53.9013 828.44 58.8839 Q828.44 62.8538 831.033 65.2034 Q833.666 67.5124 838.162 67.5124 Q844.36 67.5124 848.087 63.1374 Q851.855 58.7219 851.855 51.4303 L851.855 49.7694 L844.441 49.7694 M859.308 46.6907 L859.308 72.576 L851.855 72.576 L851.855 65.6895 Q849.302 69.8214 845.495 71.8063 Q841.687 73.7508 836.178 73.7508 Q829.21 73.7508 825.078 69.8619 Q820.987 65.9325 820.987 59.3701 Q820.987 51.7138 826.091 47.825 Q831.235 43.9361 841.403 43.9361 L851.855 43.9361 L851.855 43.2069 Q851.855 38.0623 848.452 35.2672 Q845.089 32.4315 838.973 32.4315 Q835.084 32.4315 831.397 33.3632 Q827.711 34.295 824.308 36.1584 L824.308 29.2718 Q828.4 27.692 832.248 26.9223 Q836.096 26.1121 839.742 26.1121 Q849.586 26.1121 854.447 31.2163 Q859.308 36.3204 859.308 46.6907 Z" fill="#000000" fill-rule="nonzero" fill-opacity="1" /><path clip-path="url(#clip230)" d="M869.314 27.2059 L877.213 27.2059 L891.391 65.2844 L905.569 27.2059 L913.469 27.2059 L896.455 72.576 L886.328 72.576 L869.314 27.2059 Z" fill="#000000" fill-rule="nonzero" fill-opacity="1" /><path clip-path="url(#clip230)" d="M962.566 48.0275 L962.566 51.6733 L928.295 51.6733 Q928.781 59.3701 932.913 63.421 Q937.086 67.4314 944.499 67.4314 Q948.793 67.4314 952.803 66.3781 Q956.854 65.3249 960.824 63.2184 L960.824 70.267 Q956.813 71.9684 952.6 72.8596 Q948.388 73.7508 944.053 73.7508 Q933.197 73.7508 926.837 67.4314 Q920.517 61.1119 920.517 50.3365 Q920.517 39.1965 926.513 32.6746 Q932.549 26.1121 942.757 26.1121 Q951.912 26.1121 957.219 32.0264 Q962.566 37.9003 962.566 48.0275 M955.112 45.84 Q955.031 39.7232 951.669 36.0774 Q948.347 32.4315 942.838 32.4315 Q936.599 32.4315 932.832 35.9558 Q929.105 39.4801 928.538 45.8805 L955.112 45.84 Z" fill="#000000" fill-rule="nonzero" fill-opacity="1" /><path clip-path="url(#clip230)" d="M1001.09 34.1734 Q999.834 33.4443 998.335 33.1202 Q996.877 32.7556 995.094 32.7556 Q988.775 32.7556 985.372 36.8875 Q982.01 40.9789 982.01 48.6757 L982.01 72.576 L974.516 72.576 L974.516 27.2059 L982.01 27.2059 L982.01 34.2544 Q984.36 30.1225 988.127 28.1376 Q991.894 26.1121 997.282 26.1121 Q998.052 26.1121 998.983 26.2337 Q999.915 26.3147 1001.05 26.5172 L1001.09 34.1734 Z" fill="#000000" fill-rule="nonzero" fill-opacity="1" /><path clip-path="url(#clip230)" d="M1029.53 49.7694 Q1020.49 49.7694 1017.01 51.8354 Q1013.53 53.9013 1013.53 58.8839 Q1013.53 62.8538 1016.12 65.2034 Q1018.75 67.5124 1023.25 67.5124 Q1029.45 67.5124 1033.17 63.1374 Q1036.94 58.7219 1036.94 51.4303 L1036.94 49.7694 L1029.53 49.7694 M1044.39 46.6907 L1044.39 72.576 L1036.94 72.576 L1036.94 65.6895 Q1034.39 69.8214 1030.58 71.8063 Q1026.77 73.7508 1021.26 73.7508 Q1014.3 73.7508 1010.16 69.8619 Q1006.07 65.9325 1006.07 59.3701 Q1006.07 51.7138 1011.18 47.825 Q1016.32 43.9361 1026.49 43.9361 L1036.94 43.9361 L1036.94 43.2069 Q1036.94 38.0623 1033.54 35.2672 Q1030.18 32.4315 1024.06 32.4315 Q1020.17 32.4315 1016.48 33.3632 Q1012.8 34.295 1009.39 36.1584 L1009.39 29.2718 Q1013.49 27.692 1017.33 26.9223 Q1021.18 26.1121 1024.83 26.1121 Q1034.67 26.1121 1039.53 31.2163 Q1044.39 36.3204 1044.39 46.6907 Z" fill="#000000" fill-rule="nonzero" fill-opacity="1" /><path clip-path="url(#clip230)" d="M1089.6 49.3643 Q1089.6 41.2625 1086.24 36.8065 Q1082.92 32.3505 1076.88 32.3505 Q1070.89 32.3505 1067.52 36.8065 Q1064.2 41.2625 1064.2 49.3643 Q1064.2 57.4256 1067.52 61.8816 Q1070.89 66.3376 1076.88 66.3376 Q1082.92 66.3376 1086.24 61.8816 Q1089.6 57.4256 1089.6 49.3643 M1097.06 66.9452 Q1097.06 78.5308 1091.91 84.1616 Q1086.77 89.8329 1076.15 89.8329 Q1072.22 89.8329 1068.74 89.2252 Q1065.26 88.6581 1061.97 87.4428 L1061.97 80.1917 Q1065.26 81.9741 1068.46 82.8248 Q1071.66 83.6755 1074.98 83.6755 Q1082.31 83.6755 1085.96 79.8271 Q1089.6 76.0193 1089.6 68.282 L1089.6 64.5957 Q1087.29 68.6061 1083.69 70.5911 Q1080.08 72.576 1075.06 72.576 Q1066.71 72.576 1061.61 66.2161 Q1056.51 59.8562 1056.51 49.3643 Q1056.51 38.832 1061.61 32.472 Q1066.71 26.1121 1075.06 26.1121 Q1080.08 26.1121 1083.69 28.0971 Q1087.29 30.082 1089.6 34.0924 L1089.6 27.2059 L1097.06 27.2059 L1097.06 66.9452 Z" fill="#000000" fill-rule="nonzero" fill-opacity="1" /><path clip-path="url(#clip230)" d="M1151.22 48.0275 L1151.22 51.6733 L1116.95 51.6733 Q1117.43 59.3701 1121.56 63.421 Q1125.74 67.4314 1133.15 67.4314 Q1137.44 67.4314 1141.45 66.3781 Q1145.5 65.3249 1149.47 63.2184 L1149.47 70.267 Q1145.46 71.9684 1141.25 72.8596 Q1137.04 73.7508 1132.7 73.7508 Q1121.85 73.7508 1115.49 67.4314 Q1109.17 61.1119 1109.17 50.3365 Q1109.17 39.1965 1115.16 32.6746 Q1121.2 26.1121 1131.41 26.1121 Q1140.56 26.1121 1145.87 32.0264 Q1151.22 37.9003 1151.22 48.0275 M1143.76 45.84 Q1143.68 39.7232 1140.32 36.0774 Q1137 32.4315 1131.49 32.4315 Q1125.25 32.4315 1121.48 35.9558 Q1117.76 39.4801 1117.19 45.8805 L1143.76 45.84 Z" fill="#000000" fill-rule="nonzero" fill-opacity="1" /><path clip-path="url(#clip230)" d="M1192.37 28.5427 L1192.37 35.5912 Q1189.21 33.9709 1185.81 33.1607 Q1182.41 32.3505 1178.76 32.3505 Q1173.21 32.3505 1170.42 34.0519 Q1167.66 35.7533 1167.66 39.156 Q1167.66 41.7486 1169.65 43.2475 Q1171.63 44.7058 1177.63 46.0426 L1180.18 46.6097 Q1188.12 48.3111 1191.44 51.4303 Q1194.8 54.509 1194.8 60.0587 Q1194.8 66.3781 1189.78 70.0644 Q1184.8 73.7508 1176.05 73.7508 Q1172.4 73.7508 1168.43 73.0216 Q1164.5 72.3329 1160.13 70.9151 L1160.13 63.2184 Q1164.26 65.3654 1168.27 66.4591 Q1172.28 67.5124 1176.21 67.5124 Q1181.48 67.5124 1184.31 65.73 Q1187.15 63.9071 1187.15 60.6258 Q1187.15 57.5877 1185.08 55.9673 Q1183.06 54.3469 1176.13 52.8481 L1173.54 52.2405 Q1166.61 50.7821 1163.53 47.7845 Q1160.45 44.7463 1160.45 39.4801 Q1160.45 33.0797 1164.99 29.5959 Q1169.53 26.1121 1177.87 26.1121 Q1182 26.1121 1185.65 26.7198 Q1189.29 27.3274 1192.37 28.5427 Z" fill="#000000" fill-rule="nonzero" fill-opacity="1" /><path clip-path="url(#clip230)" d="M1208.58 62.2867 L1217.12 62.2867 L1217.12 72.576 L1208.58 72.576 L1208.58 62.2867 M1208.58 29.6769 L1217.12 29.6769 L1217.12 39.9662 L1208.58 39.9662 L1208.58 29.6769 Z" fill="#000000" fill-rule="nonzero" fill-opacity="1" /><path clip-path="url(#clip230)" d="M1268.21 65.7705 L1268.21 89.8329 L1260.71 89.8329 L1260.71 27.2059 L1268.21 27.2059 L1268.21 34.0924 Q1270.56 30.0415 1274.12 28.0971 Q1277.73 26.1121 1282.71 26.1121 Q1290.97 26.1121 1296.12 32.6746 Q1301.3 39.2371 1301.3 49.9314 Q1301.3 60.6258 1296.12 67.1883 Q1290.97 73.7508 1282.71 73.7508 Q1277.73 73.7508 1274.12 71.8063 Q1270.56 69.8214 1268.21 65.7705 M1293.57 49.9314 Q1293.57 41.7081 1290.16 37.0496 Q1286.8 32.3505 1280.89 32.3505 Q1274.97 32.3505 1271.57 37.0496 Q1268.21 41.7081 1268.21 49.9314 Q1268.21 58.1548 1271.57 62.8538 Q1274.97 67.5124 1280.89 67.5124 Q1286.8 67.5124 1290.16 62.8538 Q1293.57 58.1548 1293.57 49.9314 Z" fill="#000000" fill-rule="nonzero" fill-opacity="1" /><path clip-path="url(#clip230)" d="M1339.95 34.1734 Q1338.69 33.4443 1337.19 33.1202 Q1335.74 32.7556 1333.95 32.7556 Q1327.63 32.7556 1324.23 36.8875 Q1320.87 40.9789 1320.87 48.6757 L1320.87 72.576 L1313.37 72.576 L1313.37 27.2059 L1320.87 27.2059 L1320.87 34.2544 Q1323.22 30.1225 1326.99 28.1376 Q1330.75 26.1121 1336.14 26.1121 Q1336.91 26.1121 1337.84 26.2337 Q1338.77 26.3147 1339.91 26.5172 L1339.95 34.1734 Z" fill="#000000" fill-rule="nonzero" fill-opacity="1" /><path clip-path="url(#clip230)" d="M1363.52 32.4315 Q1357.53 32.4315 1354.05 37.1306 Q1350.56 41.7891 1350.56 49.9314 Q1350.56 58.0738 1354 62.7728 Q1357.49 67.4314 1363.52 67.4314 Q1369.48 67.4314 1372.96 62.7323 Q1376.45 58.0333 1376.45 49.9314 Q1376.45 41.8701 1372.96 37.1711 Q1369.48 32.4315 1363.52 32.4315 M1363.52 26.1121 Q1373.25 26.1121 1378.8 32.4315 Q1384.35 38.7509 1384.35 49.9314 Q1384.35 61.0714 1378.8 67.4314 Q1373.25 73.7508 1363.52 73.7508 Q1353.76 73.7508 1348.21 67.4314 Q1342.7 61.0714 1342.7 49.9314 Q1342.7 38.7509 1348.21 32.4315 Q1353.76 26.1121 1363.52 26.1121 Z" fill="#000000" fill-rule="nonzero" fill-opacity="1" /><path clip-path="url(#clip230)" d="M1419.67 9.54393 L1419.67 15.7418 L1412.54 15.7418 Q1408.53 15.7418 1406.95 17.3622 Q1405.41 18.9825 1405.41 23.1955 L1405.41 27.2059 L1417.68 27.2059 L1417.68 32.9987 L1405.41 32.9987 L1405.41 72.576 L1397.92 72.576 L1397.92 32.9987 L1390.79 32.9987 L1390.79 27.2059 L1397.92 27.2059 L1397.92 24.0462 Q1397.92 16.471 1401.44 13.0277 Q1404.96 9.54393 1412.62 9.54393 L1419.67 9.54393 Z" fill="#000000" fill-rule="nonzero" fill-opacity="1" /><path clip-path="url(#clip230)" d="M1425.91 27.2059 L1433.36 27.2059 L1433.36 72.576 L1425.91 72.576 L1425.91 27.2059 M1425.91 9.54393 L1433.36 9.54393 L1433.36 18.9825 L1425.91 18.9825 L1425.91 9.54393 Z" fill="#000000" fill-rule="nonzero" fill-opacity="1" /><path clip-path="url(#clip230)" d="M1456.33 14.324 L1456.33 27.2059 L1471.68 27.2059 L1471.68 32.9987 L1456.33 32.9987 L1456.33 57.6282 Q1456.33 63.1779 1457.83 64.7578 Q1459.37 66.3376 1464.03 66.3376 L1471.68 66.3376 L1471.68 72.576 L1464.03 72.576 Q1455.4 72.576 1452.12 69.3758 Q1448.84 66.1351 1448.84 57.6282 L1448.84 32.9987 L1443.37 32.9987 L1443.37 27.2059 L1448.84 27.2059 L1448.84 14.324 L1456.33 14.324 Z" fill="#000000" fill-rule="nonzero" fill-opacity="1" /><path clip-path="url(#clip230)" d="M1502.11 49.7694 Q1493.07 49.7694 1489.59 51.8354 Q1486.1 53.9013 1486.1 58.8839 Q1486.1 62.8538 1488.7 65.2034 Q1491.33 67.5124 1495.83 67.5124 Q1502.02 67.5124 1505.75 63.1374 Q1509.52 58.7219 1509.52 51.4303 L1509.52 49.7694 L1502.11 49.7694 M1516.97 46.6907 L1516.97 72.576 L1509.52 72.576 L1509.52 65.6895 Q1506.97 69.8214 1503.16 71.8063 Q1499.35 73.7508 1493.84 73.7508 Q1486.87 73.7508 1482.74 69.8619 Q1478.65 65.9325 1478.65 59.3701 Q1478.65 51.7138 1483.76 47.825 Q1488.9 43.9361 1499.07 43.9361 L1509.52 43.9361 L1509.52 43.2069 Q1509.52 38.0623 1506.12 35.2672 Q1502.75 32.4315 1496.64 32.4315 Q1492.75 32.4315 1489.06 33.3632 Q1485.38 34.295 1481.97 36.1584 L1481.97 29.2718 Q1486.06 27.692 1489.91 26.9223 Q1493.76 26.1121 1497.41 26.1121 Q1507.25 26.1121 1512.11 31.2163 Q1516.97 36.3204 1516.97 46.6907 Z" fill="#000000" fill-rule="nonzero" fill-opacity="1" /><path clip-path="url(#clip230)" d="M1564.89 49.9314 Q1564.89 41.7081 1561.49 37.0496 Q1558.13 32.3505 1552.22 32.3505 Q1546.3 32.3505 1542.9 37.0496 Q1539.54 41.7081 1539.54 49.9314 Q1539.54 58.1548 1542.9 62.8538 Q1546.3 67.5124 1552.22 67.5124 Q1558.13 67.5124 1561.49 62.8538 Q1564.89 58.1548 1564.89 49.9314 M1539.54 34.0924 Q1541.89 30.0415 1545.45 28.0971 Q1549.06 26.1121 1554.04 26.1121 Q1562.3 26.1121 1567.45 32.6746 Q1572.63 39.2371 1572.63 49.9314 Q1572.63 60.6258 1567.45 67.1883 Q1562.3 73.7508 1554.04 73.7508 Q1549.06 73.7508 1545.45 71.8063 Q1541.89 69.8214 1539.54 65.7705 L1539.54 72.576 L1532.04 72.576 L1532.04 9.54393 L1539.54 9.54393 L1539.54 34.0924 Z" fill="#000000" fill-rule="nonzero" fill-opacity="1" /><path clip-path="url(#clip230)" d="M1584.99 27.2059 L1592.44 27.2059 L1592.44 72.576 L1584.99 72.576 L1584.99 27.2059 M1584.99 9.54393 L1592.44 9.54393 L1592.44 18.9825 L1584.99 18.9825 L1584.99 9.54393 Z" fill="#000000" fill-rule="nonzero" fill-opacity="1" /><path clip-path="url(#clip230)" d="M1608.04 9.54393 L1615.49 9.54393 L1615.49 72.576 L1608.04 72.576 L1608.04 9.54393 Z" fill="#000000" fill-rule="nonzero" fill-opacity="1" /><path clip-path="url(#clip230)" d="M1631.09 27.2059 L1638.54 27.2059 L1638.54 72.576 L1631.09 72.576 L1631.09 27.2059 M1631.09 9.54393 L1638.54 9.54393 L1638.54 18.9825 L1631.09 18.9825 L1631.09 9.54393 Z" fill="#000000" fill-rule="nonzero" fill-opacity="1" /><path clip-path="url(#clip230)" d="M1661.51 14.324 L1661.51 27.2059 L1676.86 27.2059 L1676.86 32.9987 L1661.51 32.9987 L1661.51 57.6282 Q1661.51 63.1779 1663.01 64.7578 Q1664.55 66.3376 1669.21 66.3376 L1676.86 66.3376 L1676.86 72.576 L1669.21 72.576 Q1660.58 72.576 1657.3 69.3758 Q1654.01 66.1351 1654.01 57.6282 L1654.01 32.9987 L1648.55 32.9987 L1648.55 27.2059 L1654.01 27.2059 L1654.01 14.324 L1661.51 14.324 Z" fill="#000000" fill-rule="nonzero" fill-opacity="1" /><path clip-path="url(#clip230)" d="M1705.54 76.7889 Q1702.38 84.8907 1699.38 87.3618 Q1696.39 89.8329 1691.36 89.8329 L1685.41 89.8329 L1685.41 83.5945 L1689.78 83.5945 Q1692.86 83.5945 1694.56 82.1361 Q1696.27 80.6778 1698.33 75.2496 L1699.67 71.8468 L1681.32 27.2059 L1689.22 27.2059 L1703.4 62.6918 L1717.57 27.2059 L1725.47 27.2059 L1705.54 76.7889 Z" fill="#000000" fill-rule="nonzero" fill-opacity="1" /><path clip-path="url(#clip230)" d="M1737.67 62.2867 L1746.21 62.2867 L1746.21 69.2543 L1739.57 82.2172 L1734.34 82.2172 L1737.67 69.2543 L1737.67 62.2867 Z" fill="#000000" fill-rule="nonzero" fill-opacity="1" /><path clip-path="url(#clip230)" d="M1788.5 9.54393 L1795.96 9.54393 L1795.96 72.576 L1788.5 72.576 L1788.5 9.54393 Z" fill="#000000" fill-rule="nonzero" fill-opacity="1" /><path clip-path="url(#clip230)" d="M1850.36 48.0275 L1850.36 51.6733 L1816.09 51.6733 Q1816.58 59.3701 1820.71 63.421 Q1824.88 67.4314 1832.29 67.4314 Q1836.59 67.4314 1840.6 66.3781 Q1844.65 65.3249 1848.62 63.2184 L1848.62 70.267 Q1844.61 71.9684 1840.4 72.8596 Q1836.18 73.7508 1831.85 73.7508 Q1820.99 73.7508 1814.63 67.4314 Q1808.31 61.1119 1808.31 50.3365 Q1808.31 39.1965 1814.31 32.6746 Q1820.34 26.1121 1830.55 26.1121 Q1839.71 26.1121 1845.01 32.0264 Q1850.36 37.9003 1850.36 48.0275 M1842.91 45.84 Q1842.83 39.7232 1839.46 36.0774 Q1836.14 32.4315 1830.63 32.4315 Q1824.4 32.4315 1820.63 35.9558 Q1816.9 39.4801 1816.33 45.8805 L1842.91 45.84 Z" fill="#000000" fill-rule="nonzero" fill-opacity="1" /><path clip-path="url(#clip230)" d="M1883.21 49.7694 Q1874.18 49.7694 1870.7 51.8354 Q1867.21 53.9013 1867.21 58.8839 Q1867.21 62.8538 1869.81 65.2034 Q1872.44 67.5124 1876.94 67.5124 Q1883.13 67.5124 1886.86 63.1374 Q1890.63 58.7219 1890.63 51.4303 L1890.63 49.7694 L1883.21 49.7694 M1898.08 46.6907 L1898.08 72.576 L1890.63 72.576 L1890.63 65.6895 Q1888.08 69.8214 1884.27 71.8063 Q1880.46 73.7508 1874.95 73.7508 Q1867.98 73.7508 1863.85 69.8619 Q1859.76 65.9325 1859.76 59.3701 Q1859.76 51.7138 1864.86 47.825 Q1870.01 43.9361 1880.18 43.9361 L1890.63 43.9361 L1890.63 43.2069 Q1890.63 38.0623 1887.23 35.2672 Q1883.86 32.4315 1877.75 32.4315 Q1873.86 32.4315 1870.17 33.3632 Q1866.48 34.295 1863.08 36.1584 L1863.08 29.2718 Q1867.17 27.692 1871.02 26.9223 Q1874.87 26.1121 1878.52 26.1121 Q1888.36 26.1121 1893.22 31.2163 Q1898.08 36.3204 1898.08 46.6907 Z" fill="#000000" fill-rule="nonzero" fill-opacity="1" /><path clip-path="url(#clip230)" d="M1943.29 34.0924 L1943.29 9.54393 L1950.74 9.54393 L1950.74 72.576 L1943.29 72.576 L1943.29 65.7705 Q1940.94 69.8214 1937.33 71.8063 Q1933.77 73.7508 1928.75 73.7508 Q1920.52 73.7508 1915.34 67.1883 Q1910.19 60.6258 1910.19 49.9314 Q1910.19 39.2371 1915.34 32.6746 Q1920.52 26.1121 1928.75 26.1121 Q1933.77 26.1121 1937.33 28.0971 Q1940.94 30.0415 1943.29 34.0924 M1917.89 49.9314 Q1917.89 58.1548 1921.25 62.8538 Q1924.66 67.5124 1930.57 67.5124 Q1936.48 67.5124 1939.89 62.8538 Q1943.29 58.1548 1943.29 49.9314 Q1943.29 41.7081 1939.89 37.0496 Q1936.48 32.3505 1930.57 32.3505 Q1924.66 32.3505 1921.25 37.0496 Q1917.89 41.7081 1917.89 49.9314 Z" fill="#000000" fill-rule="nonzero" fill-opacity="1" /><path clip-path="url(#clip230)" d="M2004.9 48.0275 L2004.9 51.6733 L1970.63 51.6733 Q1971.12 59.3701 1975.25 63.421 Q1979.42 67.4314 1986.84 67.4314 Q1991.13 67.4314 1995.14 66.3781 Q1999.19 65.3249 2003.16 63.2184 L2003.16 70.267 Q1999.15 71.9684 1994.94 72.8596 Q1990.73 73.7508 1986.39 73.7508 Q1975.53 73.7508 1969.17 67.4314 Q1962.86 61.1119 1962.86 50.3365 Q1962.86 39.1965 1968.85 32.6746 Q1974.89 26.1121 1985.09 26.1121 Q1994.25 26.1121 1999.56 32.0264 Q2004.9 37.9003 2004.9 48.0275 M1997.45 45.84 Q1997.37 39.7232 1994.01 36.0774 Q1990.69 32.4315 1985.18 32.4315 Q1978.94 32.4315 1975.17 35.9558 Q1971.44 39.4801 1970.88 45.8805 L1997.45 45.84 Z" fill="#000000" fill-rule="nonzero" fill-opacity="1" /><path clip-path="url(#clip230)" d="M2043.43 34.1734 Q2042.17 33.4443 2040.67 33.1202 Q2039.22 32.7556 2037.43 32.7556 Q2031.11 32.7556 2027.71 36.8875 Q2024.35 40.9789 2024.35 48.6757 L2024.35 72.576 L2016.85 72.576 L2016.85 27.2059 L2024.35 27.2059 L2024.35 34.2544 Q2026.7 30.1225 2030.47 28.1376 Q2034.23 26.1121 2039.62 26.1121 Q2040.39 26.1121 2041.32 26.2337 Q2042.25 26.3147 2043.39 26.5172 L2043.43 34.1734 Z" fill="#000000" fill-rule="nonzero" fill-opacity="1" /><path clip-path="url(#clip230)" d="M2058.29 12.096 L2058.29 34.5785 L2051.41 34.5785 L2051.41 12.096 L2058.29 12.096 Z" fill="#000000" fill-rule="nonzero" fill-opacity="1" /><path clip-path="url(#clip230)" d="M2102.98 28.5427 L2102.98 35.5912 Q2099.82 33.9709 2096.41 33.1607 Q2093.01 32.3505 2089.37 32.3505 Q2083.82 32.3505 2081.02 34.0519 Q2078.27 35.7533 2078.27 39.156 Q2078.27 41.7486 2080.25 43.2475 Q2082.24 44.7058 2088.23 46.0426 L2090.78 46.6097 Q2098.72 48.3111 2102.04 51.4303 Q2105.41 54.509 2105.41 60.0587 Q2105.41 66.3781 2100.38 70.0644 Q2095.4 73.7508 2086.65 73.7508 Q2083.01 73.7508 2079.04 73.0216 Q2075.11 72.3329 2070.73 70.9151 L2070.73 63.2184 Q2074.86 65.3654 2078.87 66.4591 Q2082.88 67.5124 2086.81 67.5124 Q2092.08 67.5124 2094.91 65.73 Q2097.75 63.9071 2097.75 60.6258 Q2097.75 57.5877 2095.68 55.9673 Q2093.66 54.3469 2086.73 52.8481 L2084.14 52.2405 Q2077.21 50.7821 2074.13 47.7845 Q2071.06 44.7463 2071.06 39.4801 Q2071.06 33.0797 2075.59 29.5959 Q2080.13 26.1121 2088.47 26.1121 Q2092.61 26.1121 2096.25 26.7198 Q2099.9 27.3274 2102.98 28.5427 Z" fill="#000000" fill-rule="nonzero" fill-opacity="1" /><path clip-path="url(#clip230)" d="M2150.86 65.7705 L2150.86 89.8329 L2143.36 89.8329 L2143.36 27.2059 L2150.86 27.2059 L2150.86 34.0924 Q2153.21 30.0415 2156.77 28.0971 Q2160.38 26.1121 2165.36 26.1121 Q2173.62 26.1121 2178.77 32.6746 Q2183.95 39.2371 2183.95 49.9314 Q2183.95 60.6258 2178.77 67.1883 Q2173.62 73.7508 2165.36 73.7508 Q2160.38 73.7508 2156.77 71.8063 Q2153.21 69.8214 2150.86 65.7705 M2176.22 49.9314 Q2176.22 41.7081 2172.81 37.0496 Q2169.45 32.3505 2163.54 32.3505 Q2157.62 32.3505 2154.22 37.0496 Q2150.86 41.7081 2150.86 49.9314 Q2150.86 58.1548 2154.22 62.8538 Q2157.62 67.5124 2163.54 67.5124 Q2169.45 67.5124 2172.81 62.8538 Q2176.22 58.1548 2176.22 49.9314 Z" fill="#000000" fill-rule="nonzero" fill-opacity="1" /><path clip-path="url(#clip230)" d="M2222.6 34.1734 Q2221.34 33.4443 2219.84 33.1202 Q2218.39 32.7556 2216.6 32.7556 Q2210.28 32.7556 2206.88 36.8875 Q2203.52 40.9789 2203.52 48.6757 L2203.52 72.576 L2196.03 72.576 L2196.03 27.2059 L2203.52 27.2059 L2203.52 34.2544 Q2205.87 30.1225 2209.64 28.1376 Q2213.4 26.1121 2218.79 26.1121 Q2219.56 26.1121 2220.49 26.2337 Q2221.42 26.3147 2222.56 26.5172 L2222.6 34.1734 Z" fill="#000000" fill-rule="nonzero" fill-opacity="1" /><path clip-path="url(#clip230)" d="M2230.42 27.2059 L2237.87 27.2059 L2237.87 72.576 L2230.42 72.576 L2230.42 27.2059 M2230.42 9.54393 L2237.87 9.54393 L2237.87 18.9825 L2230.42 18.9825 L2230.42 9.54393 Z" fill="#000000" fill-rule="nonzero" fill-opacity="1" /><path clip-path="url(#clip230)" d="M2286.12 28.9478 L2286.12 35.9153 Q2282.96 34.1734 2279.76 33.3227 Q2276.6 32.4315 2273.36 32.4315 Q2266.11 32.4315 2262.1 37.0496 Q2258.09 41.6271 2258.09 49.9314 Q2258.09 58.2358 2262.1 62.8538 Q2266.11 67.4314 2273.36 67.4314 Q2276.6 67.4314 2279.76 66.5807 Q2282.96 65.6895 2286.12 63.9476 L2286.12 70.8341 Q2283 72.2924 2279.64 73.0216 Q2276.31 73.7508 2272.55 73.7508 Q2262.3 73.7508 2256.26 67.3098 Q2250.23 60.8689 2250.23 49.9314 Q2250.23 38.832 2256.3 32.472 Q2262.42 26.1121 2273.03 26.1121 Q2276.48 26.1121 2279.76 26.8413 Q2283.04 27.5299 2286.12 28.9478 Z" fill="#000000" fill-rule="nonzero" fill-opacity="1" /><path clip-path="url(#clip230)" d="M2337.89 48.0275 L2337.89 51.6733 L2303.62 51.6733 Q2304.1 59.3701 2308.24 63.421 Q2312.41 67.4314 2319.82 67.4314 Q2324.12 67.4314 2328.13 66.3781 Q2332.18 65.3249 2336.15 63.2184 L2336.15 70.267 Q2332.14 71.9684 2327.92 72.8596 Q2323.71 73.7508 2319.38 73.7508 Q2308.52 73.7508 2302.16 67.4314 Q2295.84 61.1119 2295.84 50.3365 Q2295.84 39.1965 2301.84 32.6746 Q2307.87 26.1121 2318.08 26.1121 Q2327.23 26.1121 2332.54 32.0264 Q2337.89 37.9003 2337.89 48.0275 M2330.43 45.84 Q2330.35 39.7232 2326.99 36.0774 Q2323.67 32.4315 2318.16 32.4315 Q2311.92 32.4315 2308.15 35.9558 Q2304.43 39.4801 2303.86 45.8805 L2330.43 45.84 Z" fill="#000000" fill-rule="nonzero" fill-opacity="1" /><circle clip-path="url(#clip232)" cx="1149.23" cy="864.861" r="14.4" fill="#009af9" fill-rule="evenodd" fill-opacity="1" stroke="#000000" stroke-opacity="1" stroke-width="3.2"/>
<circle clip-path="url(#clip232)" cx="1149.23" cy="864.861" r="14.4" fill="#009af9" fill-rule="evenodd" fill-opacity="1" stroke="#000000" stroke-opacity="1" stroke-width="3.2"/>
<circle clip-path="url(#clip232)" cx="1439.29" cy="683.358" r="14.4" fill="#009af9" fill-rule="evenodd" fill-opacity="1" stroke="#000000" stroke-opacity="1" stroke-width="3.2"/>
<circle clip-path="url(#clip232)" cx="756.793" cy="1118.95" r="14.4" fill="#009af9" fill-rule="evenodd" fill-opacity="1" stroke="#000000" stroke-opacity="1" stroke-width="3.2"/>
<circle clip-path="url(#clip232)" cx="1732.62" cy="496.618" r="14.4" fill="#009af9" fill-rule="evenodd" fill-opacity="1" stroke="#000000" stroke-opacity="1" stroke-width="3.2"/>
<circle clip-path="url(#clip232)" cx="624.864" cy="1179.05" r="14.4" fill="#009af9" fill-rule="evenodd" fill-opacity="1" stroke="#000000" stroke-opacity="1" stroke-width="3.2"/>
<circle clip-path="url(#clip232)" cx="1285" cy="774.073" r="14.4" fill="#009af9" fill-rule="evenodd" fill-opacity="1" stroke="#000000" stroke-opacity="1" stroke-width="3.2"/>
<circle clip-path="url(#clip232)" cx="1318.93" cy="753.038" r="14.4" fill="#009af9" fill-rule="evenodd" fill-opacity="1" stroke="#000000" stroke-opacity="1" stroke-width="3.2"/>
<circle clip-path="url(#clip232)" cx="1423.66" cy="702.756" r="14.4" fill="#009af9" fill-rule="evenodd" fill-opacity="1" stroke="#000000" stroke-opacity="1" stroke-width="3.2"/>
<circle clip-path="url(#clip232)" cx="1987.44" cy="322.443" r="14.4" fill="#009af9" fill-rule="evenodd" fill-opacity="1" stroke="#000000" stroke-opacity="1" stroke-width="3.2"/>
<circle clip-path="url(#clip232)" cx="611.693" cy="1207.41" r="14.4" fill="#009af9" fill-rule="evenodd" fill-opacity="1" stroke="#000000" stroke-opacity="1" stroke-width="3.2"/>
<circle clip-path="url(#clip232)" cx="1140.7" cy="872.196" r="14.4" fill="#009af9" fill-rule="evenodd" fill-opacity="1" stroke="#000000" stroke-opacity="1" stroke-width="3.2"/>
<circle clip-path="url(#clip232)" cx="820.887" cy="1083.27" r="14.4" fill="#009af9" fill-rule="evenodd" fill-opacity="1" stroke="#000000" stroke-opacity="1" stroke-width="3.2"/>
<circle clip-path="url(#clip232)" cx="1266.13" cy="802.691" r="14.4" fill="#009af9" fill-rule="evenodd" fill-opacity="1" stroke="#000000" stroke-opacity="1" stroke-width="3.2"/>
<circle clip-path="url(#clip232)" cx="1092.25" cy="900.243" r="14.4" fill="#009af9" fill-rule="evenodd" fill-opacity="1" stroke="#000000" stroke-opacity="1" stroke-width="3.2"/>
<circle clip-path="url(#clip232)" cx="859.608" cy="1027.73" r="14.4" fill="#009af9" fill-rule="evenodd" fill-opacity="1" stroke="#000000" stroke-opacity="1" stroke-width="3.2"/>
<circle clip-path="url(#clip232)" cx="798.894" cy="1078.95" r="14.4" fill="#009af9" fill-rule="evenodd" fill-opacity="1" stroke="#000000" stroke-opacity="1" stroke-width="3.2"/>
<circle clip-path="url(#clip232)" cx="1916.74" cy="382.491" r="14.4" fill="#009af9" fill-rule="evenodd" fill-opacity="1" stroke="#000000" stroke-opacity="1" stroke-width="3.2"/>
<circle clip-path="url(#clip232)" cx="1188.09" cy="865.462" r="14.4" fill="#009af9" fill-rule="evenodd" fill-opacity="1" stroke="#000000" stroke-opacity="1" stroke-width="3.2"/>
<circle clip-path="url(#clip232)" cx="1677.2" cy="539.43" r="14.4" fill="#009af9" fill-rule="evenodd" fill-opacity="1" stroke="#000000" stroke-opacity="1" stroke-width="3.2"/>
<circle clip-path="url(#clip232)" cx="387.306" cy="1334.17" r="14.4" fill="#009af9" fill-rule="evenodd" fill-opacity="1" stroke="#000000" stroke-opacity="1" stroke-width="3.2"/>
<circle clip-path="url(#clip232)" cx="1001.46" cy="944.548" r="14.4" fill="#009af9" fill-rule="evenodd" fill-opacity="1" stroke="#000000" stroke-opacity="1" stroke-width="3.2"/>
<circle clip-path="url(#clip232)" cx="842.643" cy="1036.67" r="14.4" fill="#009af9" fill-rule="evenodd" fill-opacity="1" stroke="#000000" stroke-opacity="1" stroke-width="3.2"/>
<circle clip-path="url(#clip232)" cx="821.435" cy="1087.89" r="14.4" fill="#009af9" fill-rule="evenodd" fill-opacity="1" stroke="#000000" stroke-opacity="1" stroke-width="3.2"/>
<circle clip-path="url(#clip232)" cx="1309.15" cy="773.44" r="14.4" fill="#009af9" fill-rule="evenodd" fill-opacity="1" stroke="#000000" stroke-opacity="1" stroke-width="3.2"/>
<circle clip-path="url(#clip232)" cx="1948.98" cy="370.409" r="14.4" fill="#009af9" fill-rule="evenodd" fill-opacity="1" stroke="#000000" stroke-opacity="1" stroke-width="3.2"/>
<circle clip-path="url(#clip232)" cx="1455.57" cy="671.454" r="14.4" fill="#009af9" fill-rule="evenodd" fill-opacity="1" stroke="#000000" stroke-opacity="1" stroke-width="3.2"/>
<circle clip-path="url(#clip232)" cx="1796.66" cy="441.794" r="14.4" fill="#009af9" fill-rule="evenodd" fill-opacity="1" stroke="#000000" stroke-opacity="1" stroke-width="3.2"/>
<circle clip-path="url(#clip232)" cx="429.87" cy="1321.93" r="14.4" fill="#009af9" fill-rule="evenodd" fill-opacity="1" stroke="#000000" stroke-opacity="1" stroke-width="3.2"/>
<circle clip-path="url(#clip232)" cx="1705.89" cy="508.798" r="14.4" fill="#009af9" fill-rule="evenodd" fill-opacity="1" stroke="#000000" stroke-opacity="1" stroke-width="3.2"/>
<circle clip-path="url(#clip232)" cx="1097.89" cy="910.119" r="14.4" fill="#009af9" fill-rule="evenodd" fill-opacity="1" stroke="#000000" stroke-opacity="1" stroke-width="3.2"/>
<circle clip-path="url(#clip232)" cx="1185.66" cy="830.562" r="14.4" fill="#009af9" fill-rule="evenodd" fill-opacity="1" stroke="#000000" stroke-opacity="1" stroke-width="3.2"/>
<circle clip-path="url(#clip232)" cx="273.033" cy="1423.18" r="14.4" fill="#009af9" fill-rule="evenodd" fill-opacity="1" stroke="#000000" stroke-opacity="1" stroke-width="3.2"/>
<circle clip-path="url(#clip232)" cx="482.715" cy="1285.89" r="14.4" fill="#009af9" fill-rule="evenodd" fill-opacity="1" stroke="#000000" stroke-opacity="1" stroke-width="3.2"/>
<circle clip-path="url(#clip232)" cx="821.327" cy="1098.41" r="14.4" fill="#009af9" fill-rule="evenodd" fill-opacity="1" stroke="#000000" stroke-opacity="1" stroke-width="3.2"/>
<circle clip-path="url(#clip232)" cx="1117.4" cy="882.733" r="14.4" fill="#009af9" fill-rule="evenodd" fill-opacity="1" stroke="#000000" stroke-opacity="1" stroke-width="3.2"/>
<circle clip-path="url(#clip232)" cx="1082.23" cy="900.31" r="14.4" fill="#009af9" fill-rule="evenodd" fill-opacity="1" stroke="#000000" stroke-opacity="1" stroke-width="3.2"/>
<circle clip-path="url(#clip232)" cx="2052.49" cy="251.77" r="14.4" fill="#009af9" fill-rule="evenodd" fill-opacity="1" stroke="#000000" stroke-opacity="1" stroke-width="3.2"/>
<circle clip-path="url(#clip232)" cx="2292.18" cy="123.472" r="14.4" fill="#009af9" fill-rule="evenodd" fill-opacity="1" stroke="#000000" stroke-opacity="1" stroke-width="3.2"/>
<circle clip-path="url(#clip232)" cx="1306.09" cy="765.378" r="14.4" fill="#009af9" fill-rule="evenodd" fill-opacity="1" stroke="#000000" stroke-opacity="1" stroke-width="3.2"/>
<circle clip-path="url(#clip232)" cx="590.88" cy="1237.47" r="14.4" fill="#009af9" fill-rule="evenodd" fill-opacity="1" stroke="#000000" stroke-opacity="1" stroke-width="3.2"/>
<circle clip-path="url(#clip232)" cx="459.98" cy="1316.17" r="14.4" fill="#009af9" fill-rule="evenodd" fill-opacity="1" stroke="#000000" stroke-opacity="1" stroke-width="3.2"/>
<circle clip-path="url(#clip232)" cx="1151.66" cy="864.842" r="14.4" fill="#009af9" fill-rule="evenodd" fill-opacity="1" stroke="#000000" stroke-opacity="1" stroke-width="3.2"/>
<circle clip-path="url(#clip232)" cx="1283.93" cy="797.348" r="14.4" fill="#009af9" fill-rule="evenodd" fill-opacity="1" stroke="#000000" stroke-opacity="1" stroke-width="3.2"/>
<circle clip-path="url(#clip232)" cx="1839.93" cy="404.048" r="14.4" fill="#009af9" fill-rule="evenodd" fill-opacity="1" stroke="#000000" stroke-opacity="1" stroke-width="3.2"/>
<circle clip-path="url(#clip232)" cx="700.055" cy="1149.07" r="14.4" fill="#009af9" fill-rule="evenodd" fill-opacity="1" stroke="#000000" stroke-opacity="1" stroke-width="3.2"/>
<circle clip-path="url(#clip232)" cx="1004.82" cy="951.481" r="14.4" fill="#009af9" fill-rule="evenodd" fill-opacity="1" stroke="#000000" stroke-opacity="1" stroke-width="3.2"/>
<circle clip-path="url(#clip232)" cx="395.073" cy="1362.08" r="14.4" fill="#009af9" fill-rule="evenodd" fill-opacity="1" stroke="#000000" stroke-opacity="1" stroke-width="3.2"/>
<circle clip-path="url(#clip232)" cx="1586.27" cy="586.945" r="14.4" fill="#009af9" fill-rule="evenodd" fill-opacity="1" stroke="#000000" stroke-opacity="1" stroke-width="3.2"/>
<circle clip-path="url(#clip232)" cx="1834.23" cy="415.391" r="14.4" fill="#009af9" fill-rule="evenodd" fill-opacity="1" stroke="#000000" stroke-opacity="1" stroke-width="3.2"/>
<circle clip-path="url(#clip232)" cx="1107.95" cy="892.528" r="14.4" fill="#009af9" fill-rule="evenodd" fill-opacity="1" stroke="#000000" stroke-opacity="1" stroke-width="3.2"/>
<circle clip-path="url(#clip232)" cx="1613.88" cy="575.645" r="14.4" fill="#009af9" fill-rule="evenodd" fill-opacity="1" stroke="#000000" stroke-opacity="1" stroke-width="3.2"/>
<circle clip-path="url(#clip232)" cx="1044.01" cy="949.533" r="14.4" fill="#009af9" fill-rule="evenodd" fill-opacity="1" stroke="#000000" stroke-opacity="1" stroke-width="3.2"/>
<circle clip-path="url(#clip232)" cx="1222.09" cy="802.063" r="14.4" fill="#009af9" fill-rule="evenodd" fill-opacity="1" stroke="#000000" stroke-opacity="1" stroke-width="3.2"/>
<circle clip-path="url(#clip232)" cx="1020.25" cy="937.119" r="14.4" fill="#009af9" fill-rule="evenodd" fill-opacity="1" stroke="#000000" stroke-opacity="1" stroke-width="3.2"/>
<circle clip-path="url(#clip232)" cx="506.307" cy="1277.9" r="14.4" fill="#009af9" fill-rule="evenodd" fill-opacity="1" stroke="#000000" stroke-opacity="1" stroke-width="3.2"/>
<circle clip-path="url(#clip232)" cx="1150.07" cy="886.087" r="14.4" fill="#009af9" fill-rule="evenodd" fill-opacity="1" stroke="#000000" stroke-opacity="1" stroke-width="3.2"/>
<circle clip-path="url(#clip232)" cx="401.474" cy="1350.58" r="14.4" fill="#009af9" fill-rule="evenodd" fill-opacity="1" stroke="#000000" stroke-opacity="1" stroke-width="3.2"/>
<circle clip-path="url(#clip232)" cx="1178.38" cy="841.58" r="14.4" fill="#009af9" fill-rule="evenodd" fill-opacity="1" stroke="#000000" stroke-opacity="1" stroke-width="3.2"/>
<circle clip-path="url(#clip232)" cx="1046.71" cy="926.838" r="14.4" fill="#009af9" fill-rule="evenodd" fill-opacity="1" stroke="#000000" stroke-opacity="1" stroke-width="3.2"/>
<circle clip-path="url(#clip232)" cx="1569.65" cy="589.866" r="14.4" fill="#009af9" fill-rule="evenodd" fill-opacity="1" stroke="#000000" stroke-opacity="1" stroke-width="3.2"/>
<circle clip-path="url(#clip232)" cx="1161.38" cy="855.901" r="14.4" fill="#009af9" fill-rule="evenodd" fill-opacity="1" stroke="#000000" stroke-opacity="1" stroke-width="3.2"/>
<circle clip-path="url(#clip232)" cx="1214.48" cy="806.919" r="14.4" fill="#009af9" fill-rule="evenodd" fill-opacity="1" stroke="#000000" stroke-opacity="1" stroke-width="3.2"/>
<circle clip-path="url(#clip232)" cx="771.319" cy="1117.41" r="14.4" fill="#009af9" fill-rule="evenodd" fill-opacity="1" stroke="#000000" stroke-opacity="1" stroke-width="3.2"/>
<circle clip-path="url(#clip232)" cx="834.031" cy="1065.08" r="14.4" fill="#009af9" fill-rule="evenodd" fill-opacity="1" stroke="#000000" stroke-opacity="1" stroke-width="3.2"/>
<circle clip-path="url(#clip232)" cx="1183.23" cy="859.362" r="14.4" fill="#009af9" fill-rule="evenodd" fill-opacity="1" stroke="#000000" stroke-opacity="1" stroke-width="3.2"/>
<circle clip-path="url(#clip232)" cx="1513.97" cy="629.512" r="14.4" fill="#009af9" fill-rule="evenodd" fill-opacity="1" stroke="#000000" stroke-opacity="1" stroke-width="3.2"/>
<circle clip-path="url(#clip232)" cx="1420.72" cy="692.244" r="14.4" fill="#009af9" fill-rule="evenodd" fill-opacity="1" stroke="#000000" stroke-opacity="1" stroke-width="3.2"/>
<circle clip-path="url(#clip232)" cx="1088.52" cy="892.57" r="14.4" fill="#009af9" fill-rule="evenodd" fill-opacity="1" stroke="#000000" stroke-opacity="1" stroke-width="3.2"/>
<circle clip-path="url(#clip232)" cx="911.62" cy="1011.19" r="14.4" fill="#009af9" fill-rule="evenodd" fill-opacity="1" stroke="#000000" stroke-opacity="1" stroke-width="3.2"/>
<circle clip-path="url(#clip232)" cx="1820.86" cy="437.98" r="14.4" fill="#009af9" fill-rule="evenodd" fill-opacity="1" stroke="#000000" stroke-opacity="1" stroke-width="3.2"/>
<circle clip-path="url(#clip232)" cx="1134.66" cy="873.82" r="14.4" fill="#009af9" fill-rule="evenodd" fill-opacity="1" stroke="#000000" stroke-opacity="1" stroke-width="3.2"/>
<circle clip-path="url(#clip232)" cx="1706.59" cy="500.57" r="14.4" fill="#009af9" fill-rule="evenodd" fill-opacity="1" stroke="#000000" stroke-opacity="1" stroke-width="3.2"/>
<circle clip-path="url(#clip232)" cx="540.746" cy="1252.19" r="14.4" fill="#009af9" fill-rule="evenodd" fill-opacity="1" stroke="#000000" stroke-opacity="1" stroke-width="3.2"/>
<circle clip-path="url(#clip232)" cx="1236.66" cy="818.736" r="14.4" fill="#009af9" fill-rule="evenodd" fill-opacity="1" stroke="#000000" stroke-opacity="1" stroke-width="3.2"/>
<circle clip-path="url(#clip232)" cx="767.036" cy="1107.97" r="14.4" fill="#009af9" fill-rule="evenodd" fill-opacity="1" stroke="#000000" stroke-opacity="1" stroke-width="3.2"/>
<circle clip-path="url(#clip232)" cx="1146.8" cy="853.293" r="14.4" fill="#009af9" fill-rule="evenodd" fill-opacity="1" stroke="#000000" stroke-opacity="1" stroke-width="3.2"/>
<circle clip-path="url(#clip232)" cx="1086.09" cy="907.714" r="14.4" fill="#009af9" fill-rule="evenodd" fill-opacity="1" stroke="#000000" stroke-opacity="1" stroke-width="3.2"/>
<circle clip-path="url(#clip232)" cx="1860.56" cy="418.991" r="14.4" fill="#009af9" fill-rule="evenodd" fill-opacity="1" stroke="#000000" stroke-opacity="1" stroke-width="3.2"/>
<circle clip-path="url(#clip232)" cx="1127.37" cy="886.671" r="14.4" fill="#009af9" fill-rule="evenodd" fill-opacity="1" stroke="#000000" stroke-opacity="1" stroke-width="3.2"/>
<circle clip-path="url(#clip232)" cx="1134.66" cy="873.11" r="14.4" fill="#009af9" fill-rule="evenodd" fill-opacity="1" stroke="#000000" stroke-opacity="1" stroke-width="3.2"/>
<circle clip-path="url(#clip232)" cx="454.204" cy="1313.37" r="14.4" fill="#009af9" fill-rule="evenodd" fill-opacity="1" stroke="#000000" stroke-opacity="1" stroke-width="3.2"/>
<circle clip-path="url(#clip232)" cx="1118.39" cy="896.229" r="14.4" fill="#009af9" fill-rule="evenodd" fill-opacity="1" stroke="#000000" stroke-opacity="1" stroke-width="3.2"/>
<circle clip-path="url(#clip232)" cx="816.194" cy="1083.23" r="14.4" fill="#009af9" fill-rule="evenodd" fill-opacity="1" stroke="#000000" stroke-opacity="1" stroke-width="3.2"/>
<circle clip-path="url(#clip232)" cx="1171.09" cy="855.632" r="14.4" fill="#009af9" fill-rule="evenodd" fill-opacity="1" stroke="#000000" stroke-opacity="1" stroke-width="3.2"/>
<circle clip-path="url(#clip232)" cx="1193.83" cy="816.88" r="14.4" fill="#009af9" fill-rule="evenodd" fill-opacity="1" stroke="#000000" stroke-opacity="1" stroke-width="3.2"/>
<circle clip-path="url(#clip232)" cx="1491.98" cy="634.754" r="14.4" fill="#009af9" fill-rule="evenodd" fill-opacity="1" stroke="#000000" stroke-opacity="1" stroke-width="3.2"/>
<circle clip-path="url(#clip232)" cx="1012.78" cy="949.876" r="14.4" fill="#009af9" fill-rule="evenodd" fill-opacity="1" stroke="#000000" stroke-opacity="1" stroke-width="3.2"/>
<circle clip-path="url(#clip232)" cx="997.405" cy="979.14" r="14.4" fill="#009af9" fill-rule="evenodd" fill-opacity="1" stroke="#000000" stroke-opacity="1" stroke-width="3.2"/>
<circle clip-path="url(#clip232)" cx="944.977" cy="1004.01" r="14.4" fill="#009af9" fill-rule="evenodd" fill-opacity="1" stroke="#000000" stroke-opacity="1" stroke-width="3.2"/>
<circle clip-path="url(#clip232)" cx="1842.5" cy="395.534" r="14.4" fill="#009af9" fill-rule="evenodd" fill-opacity="1" stroke="#000000" stroke-opacity="1" stroke-width="3.2"/>
<circle clip-path="url(#clip232)" cx="1668.08" cy="527.429" r="14.4" fill="#009af9" fill-rule="evenodd" fill-opacity="1" stroke="#000000" stroke-opacity="1" stroke-width="3.2"/>
<circle clip-path="url(#clip232)" cx="1370.49" cy="717.195" r="14.4" fill="#009af9" fill-rule="evenodd" fill-opacity="1" stroke="#000000" stroke-opacity="1" stroke-width="3.2"/>
<circle clip-path="url(#clip232)" cx="580.276" cy="1241.56" r="14.4" fill="#009af9" fill-rule="evenodd" fill-opacity="1" stroke="#000000" stroke-opacity="1" stroke-width="3.2"/>
<circle clip-path="url(#clip232)" cx="763.605" cy="1102.84" r="14.4" fill="#009af9" fill-rule="evenodd" fill-opacity="1" stroke="#000000" stroke-opacity="1" stroke-width="3.2"/>
<circle clip-path="url(#clip232)" cx="1366.8" cy="720.618" r="14.4" fill="#009af9" fill-rule="evenodd" fill-opacity="1" stroke="#000000" stroke-opacity="1" stroke-width="3.2"/>
<circle clip-path="url(#clip232)" cx="1121.95" cy="897.103" r="14.4" fill="#009af9" fill-rule="evenodd" fill-opacity="1" stroke="#000000" stroke-opacity="1" stroke-width="3.2"/>
<circle clip-path="url(#clip232)" cx="1719.74" cy="498.733" r="14.4" fill="#009af9" fill-rule="evenodd" fill-opacity="1" stroke="#000000" stroke-opacity="1" stroke-width="3.2"/>
<circle clip-path="url(#clip232)" cx="897.666" cy="1020.61" r="14.4" fill="#009af9" fill-rule="evenodd" fill-opacity="1" stroke="#000000" stroke-opacity="1" stroke-width="3.2"/>
<circle clip-path="url(#clip232)" cx="1161.63" cy="850.947" r="14.4" fill="#009af9" fill-rule="evenodd" fill-opacity="1" stroke="#000000" stroke-opacity="1" stroke-width="3.2"/>
<path clip-path="url(#clip230)" d="M283.802 270.476 L590.956 270.476 L590.956 166.796 L283.802 166.796  Z" fill="#ffffff" fill-rule="evenodd" fill-opacity="1"/>
<polyline clip-path="url(#clip230)" style="stroke:#000000; stroke-linecap:round; stroke-linejoin:round; stroke-width:4; stroke-opacity:1; fill:none" points="283.802,270.476 590.956,270.476 590.956,166.796 283.802,166.796 283.802,270.476 "/>
<circle clip-path="url(#clip230)" cx="378.926" cy="218.636" r="20.48" fill="#009af9" fill-rule="evenodd" fill-opacity="1" stroke="#000000" stroke-opacity="1" stroke-width="4.55111"/>
<path clip-path="url(#clip230)" d="M474.051 201.356 L481.018 201.356 L489.838 224.874 L498.703 201.356 L505.671 201.356 L505.671 235.916 L501.111 235.916 L501.111 205.569 L492.199 229.272 L487.5 229.272 L478.588 205.569 L478.588 235.916 L474.051 235.916 L474.051 201.356 Z" fill="#000000" fill-rule="nonzero" fill-opacity="1" /><path clip-path="url(#clip230)" d="M514.953 201.356 L519.629 201.356 L519.629 215.962 L535.138 201.356 L541.157 201.356 L524.004 217.467 L542.384 235.916 L536.226 235.916 L519.629 219.272 L519.629 235.916 L514.953 235.916 L514.953 201.356 Z" fill="#000000" fill-rule="nonzero" fill-opacity="1" /><path clip-path="url(#clip230)" d="M547.268 231.981 L554.907 231.981 L554.907 205.615 L546.597 207.282 L546.597 203.022 L554.861 201.356 L559.536 201.356 L559.536 231.981 L567.175 231.981 L567.175 235.916 L547.268 235.916 L547.268 231.981 Z" fill="#000000" fill-rule="nonzero" fill-opacity="1" /></svg>
