<?xml version="1.0" encoding="utf-8"?>
<svg xmlns="http://www.w3.org/2000/svg" xmlns:xlink="http://www.w3.org/1999/xlink" width="600" height="400" viewBox="0 0 2400 1600">
<defs>
  <clipPath id="clip030">
    <rect x="0" y="0" width="2400" height="1600"/>
  </clipPath>
</defs>
<path clip-path="url(#clip030)" d="M0 1600 L2400 1600 L2400 0 L0 0  Z" fill="#ffffff" fill-rule="evenodd" fill-opacity="1"/>
<defs>
  <clipPath id="clip031">
    <rect x="204" y="123" width="2149" height="1301"/>
  </clipPath>
</defs>
<path clip-path="url(#clip030)" d="M204.45 1423.18 L2352.76 1423.18 L2352.76 123.472 L204.45 123.472  Z" fill="#ffffff" fill-rule="evenodd" fill-opacity="1"/>
<polyline clip-path="url(#clip031)" style="stroke:#000000; stroke-linecap:round; stroke-linejoin:round; stroke-width:2; stroke-opacity:0.1; fill:none" points="645.657,1423.18 645.657,123.472 "/>
<polyline clip-path="url(#clip031)" style="stroke:#000000; stroke-linecap:round; stroke-linejoin:round; stroke-width:2; stroke-opacity:0.1; fill:none" points="1194.61,1423.18 1194.61,123.472 "/>
<polyline clip-path="url(#clip031)" style="stroke:#000000; stroke-linecap:round; stroke-linejoin:round; stroke-width:2; stroke-opacity:0.1; fill:none" points="1743.56,1423.18 1743.56,123.472 "/>
<polyline clip-path="url(#clip031)" style="stroke:#000000; stroke-linecap:round; stroke-linejoin:round; stroke-width:2; stroke-opacity:0.1; fill:none" points="2292.51,1423.18 2292.51,123.472 "/>
<polyline clip-path="url(#clip031)" style="stroke:#000000; stroke-linecap:round; stroke-linejoin:round; stroke-width:2; stroke-opacity:0.1; fill:none" points="204.45,1256.86 2352.76,1256.86 "/>
<polyline clip-path="url(#clip031)" style="stroke:#000000; stroke-linecap:round; stroke-linejoin:round; stroke-width:2; stroke-opacity:0.1; fill:none" points="204.45,916.848 2352.76,916.848 "/>
<polyline clip-path="url(#clip031)" style="stroke:#000000; stroke-linecap:round; stroke-linejoin:round; stroke-width:2; stroke-opacity:0.1; fill:none" points="204.45,576.834 2352.76,576.834 "/>
<polyline clip-path="url(#clip031)" style="stroke:#000000; stroke-linecap:round; stroke-linejoin:round; stroke-width:2; stroke-opacity:0.1; fill:none" points="204.45,236.821 2352.76,236.821 "/>
<polyline clip-path="url(#clip030)" style="stroke:#000000; stroke-linecap:round; stroke-linejoin:round; stroke-width:4; stroke-opacity:1; fill:none" points="204.45,1423.18 2352.76,1423.18 "/>
<polyline clip-path="url(#clip030)" style="stroke:#000000; stroke-linecap:round; stroke-linejoin:round; stroke-width:4; stroke-opacity:1; fill:none" points="645.657,1423.18 645.657,1404.28 "/>
<polyline clip-path="url(#clip030)" style="stroke:#000000; stroke-linecap:round; stroke-linejoin:round; stroke-width:4; stroke-opacity:1; fill:none" points="1194.61,1423.18 1194.61,1404.28 "/>
<polyline clip-path="url(#clip030)" style="stroke:#000000; stroke-linecap:round; stroke-linejoin:round; stroke-width:4; stroke-opacity:1; fill:none" points="1743.56,1423.18 1743.56,1404.28 "/>
<polyline clip-path="url(#clip030)" style="stroke:#000000; stroke-linecap:round; stroke-linejoin:round; stroke-width:4; stroke-opacity:1; fill:none" points="2292.51,1423.18 2292.51,1404.28 "/>
<path clip-path="url(#clip030)" d="M598.227 1481.64 L605.866 1481.64 L605.866 1455.28 L597.555 1456.95 L597.555 1452.69 L605.819 1451.02 L610.495 1451.02 L610.495 1481.64 L618.134 1481.64 L618.134 1485.58 L598.227 1485.58 L598.227 1481.64 Z" fill="#000000" fill-rule="nonzero" fill-opacity="1" /><path clip-path="url(#clip030)" d="M627.578 1479.7 L632.463 1479.7 L632.463 1485.58 L627.578 1485.58 L627.578 1479.7 Z" fill="#000000" fill-rule="nonzero" fill-opacity="1" /><path clip-path="url(#clip030)" d="M641.467 1451.02 L663.689 1451.02 L663.689 1453.01 L651.143 1485.58 L646.259 1485.58 L658.064 1454.96 L641.467 1454.96 L641.467 1451.02 Z" fill="#000000" fill-rule="nonzero" fill-opacity="1" /><path clip-path="url(#clip030)" d="M672.856 1451.02 L691.212 1451.02 L691.212 1454.96 L677.138 1454.96 L677.138 1463.43 Q678.157 1463.08 679.175 1462.92 Q680.194 1462.73 681.212 1462.73 Q686.999 1462.73 690.379 1465.9 Q693.759 1469.08 693.759 1474.49 Q693.759 1480.07 690.286 1483.17 Q686.814 1486.25 680.495 1486.25 Q678.319 1486.25 676.05 1485.88 Q673.805 1485.51 671.398 1484.77 L671.398 1480.07 Q673.481 1481.2 675.703 1481.76 Q677.925 1482.32 680.402 1482.32 Q684.407 1482.32 686.745 1480.21 Q689.083 1478.1 689.083 1474.49 Q689.083 1470.88 686.745 1468.77 Q684.407 1466.67 680.402 1466.67 Q678.527 1466.67 676.652 1467.08 Q674.8 1467.5 672.856 1468.38 L672.856 1451.02 Z" fill="#000000" fill-rule="nonzero" fill-opacity="1" /><path clip-path="url(#clip030)" d="M1146.68 1481.64 L1154.32 1481.64 L1154.32 1455.28 L1146.01 1456.95 L1146.01 1452.69 L1154.27 1451.02 L1158.95 1451.02 L1158.95 1481.64 L1166.59 1481.64 L1166.59 1485.58 L1146.68 1485.58 L1146.68 1481.64 Z" fill="#000000" fill-rule="nonzero" fill-opacity="1" /><path clip-path="url(#clip030)" d="M1176.03 1479.7 L1180.91 1479.7 L1180.91 1485.58 L1176.03 1485.58 L1176.03 1479.7 Z" fill="#000000" fill-rule="nonzero" fill-opacity="1" /><path clip-path="url(#clip030)" d="M1201.1 1469.17 Q1197.77 1469.17 1195.84 1470.95 Q1193.95 1472.73 1193.95 1475.86 Q1193.95 1478.98 1195.84 1480.77 Q1197.77 1482.55 1201.1 1482.55 Q1204.43 1482.55 1206.35 1480.77 Q1208.28 1478.96 1208.28 1475.86 Q1208.28 1472.73 1206.35 1470.95 Q1204.46 1469.17 1201.1 1469.17 M1196.42 1467.18 Q1193.41 1466.44 1191.72 1464.38 Q1190.06 1462.32 1190.06 1459.35 Q1190.06 1455.21 1193 1452.8 Q1195.96 1450.39 1201.1 1450.39 Q1206.26 1450.39 1209.2 1452.8 Q1212.14 1455.21 1212.14 1459.35 Q1212.14 1462.32 1210.45 1464.38 Q1208.78 1466.44 1205.8 1467.18 Q1209.18 1467.96 1211.05 1470.26 Q1212.95 1472.55 1212.95 1475.86 Q1212.95 1480.88 1209.87 1483.57 Q1206.82 1486.25 1201.1 1486.25 Q1195.38 1486.25 1192.3 1483.57 Q1189.25 1480.88 1189.25 1475.86 Q1189.25 1472.55 1191.15 1470.26 Q1193.04 1467.96 1196.42 1467.18 M1194.71 1459.79 Q1194.71 1462.48 1196.38 1463.98 Q1198.07 1465.49 1201.1 1465.49 Q1204.11 1465.49 1205.8 1463.98 Q1207.51 1462.48 1207.51 1459.79 Q1207.51 1457.11 1205.8 1455.6 Q1204.11 1454.1 1201.1 1454.1 Q1198.07 1454.1 1196.38 1455.6 Q1194.71 1457.11 1194.71 1459.79 Z" fill="#000000" fill-rule="nonzero" fill-opacity="1" /><path clip-path="url(#clip030)" d="M1231.26 1454.1 Q1227.65 1454.1 1225.82 1457.66 Q1224.02 1461.2 1224.02 1468.33 Q1224.02 1475.44 1225.82 1479.01 Q1227.65 1482.55 1231.26 1482.55 Q1234.9 1482.55 1236.7 1479.01 Q1238.53 1475.44 1238.53 1468.33 Q1238.53 1461.2 1236.7 1457.66 Q1234.9 1454.1 1231.26 1454.1 M1231.26 1450.39 Q1237.07 1450.39 1240.13 1455 Q1243.21 1459.58 1243.21 1468.33 Q1243.21 1477.06 1240.13 1481.67 Q1237.07 1486.25 1231.26 1486.25 Q1225.45 1486.25 1222.37 1481.67 Q1219.32 1477.06 1219.32 1468.33 Q1219.32 1459.58 1222.37 1455 Q1225.45 1450.39 1231.26 1450.39 Z" fill="#000000" fill-rule="nonzero" fill-opacity="1" /><path clip-path="url(#clip030)" d="M1696.13 1481.64 L1703.76 1481.64 L1703.76 1455.28 L1695.45 1456.95 L1695.45 1452.69 L1703.72 1451.02 L1708.39 1451.02 L1708.39 1481.64 L1716.03 1481.64 L1716.03 1485.58 L1696.13 1485.58 L1696.13 1481.64 Z" fill="#000000" fill-rule="nonzero" fill-opacity="1" /><path clip-path="url(#clip030)" d="M1725.48 1479.7 L1730.36 1479.7 L1730.36 1485.58 L1725.48 1485.58 L1725.48 1479.7 Z" fill="#000000" fill-rule="nonzero" fill-opacity="1" /><path clip-path="url(#clip030)" d="M1750.55 1469.17 Q1747.21 1469.17 1745.29 1470.95 Q1743.39 1472.73 1743.39 1475.86 Q1743.39 1478.98 1745.29 1480.77 Q1747.21 1482.55 1750.55 1482.55 Q1753.88 1482.55 1755.8 1480.77 Q1757.72 1478.96 1757.72 1475.86 Q1757.72 1472.73 1755.8 1470.95 Q1753.9 1469.17 1750.55 1469.17 M1745.87 1467.18 Q1742.86 1466.44 1741.17 1464.38 Q1739.51 1462.32 1739.51 1459.35 Q1739.51 1455.21 1742.44 1452.8 Q1745.41 1450.39 1750.55 1450.39 Q1755.71 1450.39 1758.65 1452.8 Q1761.59 1455.21 1761.59 1459.35 Q1761.59 1462.32 1759.9 1464.38 Q1758.23 1466.44 1755.25 1467.18 Q1758.63 1467.96 1760.5 1470.26 Q1762.4 1472.55 1762.4 1475.86 Q1762.4 1480.88 1759.32 1483.57 Q1756.26 1486.25 1750.55 1486.25 Q1744.83 1486.25 1741.75 1483.57 Q1738.7 1480.88 1738.7 1475.86 Q1738.7 1472.55 1740.59 1470.26 Q1742.49 1467.96 1745.87 1467.18 M1744.16 1459.79 Q1744.16 1462.48 1745.82 1463.98 Q1747.51 1465.49 1750.55 1465.49 Q1753.56 1465.49 1755.25 1463.98 Q1756.96 1462.48 1756.96 1459.79 Q1756.96 1457.11 1755.25 1455.6 Q1753.56 1454.1 1750.55 1454.1 Q1747.51 1454.1 1745.82 1455.6 Q1744.16 1457.11 1744.16 1459.79 Z" fill="#000000" fill-rule="nonzero" fill-opacity="1" /><path clip-path="url(#clip030)" d="M1770.76 1451.02 L1789.11 1451.02 L1789.11 1454.96 L1775.04 1454.96 L1775.04 1463.43 Q1776.06 1463.08 1777.07 1462.92 Q1778.09 1462.73 1779.11 1462.73 Q1784.9 1462.73 1788.28 1465.9 Q1791.66 1469.08 1791.66 1474.49 Q1791.66 1480.07 1788.19 1483.17 Q1784.71 1486.25 1778.39 1486.25 Q1776.22 1486.25 1773.95 1485.88 Q1771.7 1485.51 1769.3 1484.77 L1769.3 1480.07 Q1771.38 1481.2 1773.6 1481.76 Q1775.82 1482.32 1778.3 1482.32 Q1782.31 1482.32 1784.64 1480.21 Q1786.98 1478.1 1786.98 1474.49 Q1786.98 1470.88 1784.64 1468.77 Q1782.31 1466.67 1778.3 1466.67 Q1776.43 1466.67 1774.55 1467.08 Q1772.7 1467.5 1770.76 1468.38 L1770.76 1451.02 Z" fill="#000000" fill-rule="nonzero" fill-opacity="1" /><path clip-path="url(#clip030)" d="M2244.58 1481.64 L2252.22 1481.64 L2252.22 1455.28 L2243.91 1456.95 L2243.91 1452.69 L2252.17 1451.02 L2256.85 1451.02 L2256.85 1481.64 L2264.48 1481.64 L2264.48 1485.58 L2244.58 1485.58 L2244.58 1481.64 Z" fill="#000000" fill-rule="nonzero" fill-opacity="1" /><path clip-path="url(#clip030)" d="M2273.93 1479.7 L2278.81 1479.7 L2278.81 1485.58 L2273.93 1485.58 L2273.93 1479.7 Z" fill="#000000" fill-rule="nonzero" fill-opacity="1" /><path clip-path="url(#clip030)" d="M2289.14 1484.86 L2289.14 1480.6 Q2290.9 1481.44 2292.7 1481.88 Q2294.51 1482.32 2296.24 1482.32 Q2300.87 1482.32 2303.3 1479.21 Q2305.76 1476.09 2306.11 1469.75 Q2304.76 1471.74 2302.7 1472.8 Q2300.64 1473.87 2298.14 1473.87 Q2292.96 1473.87 2289.92 1470.74 Q2286.92 1467.59 2286.92 1462.15 Q2286.92 1456.83 2290.06 1453.61 Q2293.21 1450.39 2298.44 1450.39 Q2304.44 1450.39 2307.59 1455 Q2310.76 1459.58 2310.76 1468.33 Q2310.76 1476.51 2306.87 1481.39 Q2303 1486.25 2296.45 1486.25 Q2294.69 1486.25 2292.89 1485.9 Q2291.08 1485.56 2289.14 1484.86 M2298.44 1470.21 Q2301.59 1470.21 2303.42 1468.06 Q2305.27 1465.9 2305.27 1462.15 Q2305.27 1458.43 2303.42 1456.27 Q2301.59 1454.1 2298.44 1454.1 Q2295.29 1454.1 2293.44 1456.27 Q2291.61 1458.43 2291.61 1462.15 Q2291.61 1465.9 2293.44 1468.06 Q2295.29 1470.21 2298.44 1470.21 Z" fill="#000000" fill-rule="nonzero" fill-opacity="1" /><path clip-path="url(#clip030)" d="M2329.16 1454.1 Q2325.55 1454.1 2323.72 1457.66 Q2321.92 1461.2 2321.92 1468.33 Q2321.92 1475.44 2323.72 1479.01 Q2325.55 1482.55 2329.16 1482.55 Q2332.79 1482.55 2334.6 1479.01 Q2336.43 1475.44 2336.43 1468.33 Q2336.43 1461.2 2334.6 1457.66 Q2332.79 1454.1 2329.16 1454.1 M2329.16 1450.39 Q2334.97 1450.39 2338.03 1455 Q2341.1 1459.58 2341.1 1468.33 Q2341.1 1477.06 2338.03 1481.67 Q2334.97 1486.25 2329.16 1486.25 Q2323.35 1486.25 2320.27 1481.67 Q2317.22 1477.06 2317.22 1468.33 Q2317.22 1459.58 2320.27 1455 Q2323.35 1450.39 2329.16 1450.39 Z" fill="#000000" fill-rule="nonzero" fill-opacity="1" /><path clip-path="url(#clip030)" d="M1054.37 1520.52 L1060.8 1520.52 L1060.8 1562.63 L1083.94 1562.63 L1083.94 1568.04 L1054.37 1568.04 L1054.37 1520.52 Z" fill="#000000" fill-rule="nonzero" fill-opacity="1" /><path clip-path="url(#clip030)" d="M1119.78 1548.76 L1119.78 1551.62 L1092.85 1551.62 Q1093.23 1557.67 1096.48 1560.85 Q1099.76 1564 1105.58 1564 Q1108.96 1564 1112.11 1563.17 Q1115.29 1562.35 1118.41 1560.69 L1118.41 1566.23 Q1115.26 1567.57 1111.95 1568.27 Q1108.64 1568.97 1105.23 1568.97 Q1096.7 1568.97 1091.71 1564 Q1086.74 1559.04 1086.74 1550.57 Q1086.74 1541.82 1091.45 1536.69 Q1096.19 1531.54 1104.21 1531.54 Q1111.41 1531.54 1115.58 1536.18 Q1119.78 1540.8 1119.78 1548.76 M1113.92 1547.04 Q1113.86 1542.23 1111.22 1539.37 Q1108.61 1536.5 1104.28 1536.5 Q1099.38 1536.5 1096.42 1539.27 Q1093.49 1542.04 1093.04 1547.07 L1113.92 1547.04 Z" fill="#000000" fill-rule="nonzero" fill-opacity="1" /><path clip-path="url(#clip030)" d="M1145.59 1550.12 Q1138.49 1550.12 1135.76 1551.75 Q1133.02 1553.37 1133.02 1557.29 Q1133.02 1560.4 1135.06 1562.25 Q1137.12 1564.07 1140.66 1564.07 Q1145.53 1564.07 1148.46 1560.63 Q1151.42 1557.16 1151.42 1551.43 L1151.42 1550.12 L1145.59 1550.12 M1157.27 1547.71 L1157.27 1568.04 L1151.42 1568.04 L1151.42 1562.63 Q1149.41 1565.88 1146.42 1567.44 Q1143.43 1568.97 1139.1 1568.97 Q1133.62 1568.97 1130.38 1565.91 Q1127.16 1562.82 1127.16 1557.67 Q1127.16 1551.65 1131.17 1548.6 Q1135.22 1545.54 1143.2 1545.54 L1151.42 1545.54 L1151.42 1544.97 Q1151.42 1540.93 1148.74 1538.73 Q1146.1 1536.5 1141.29 1536.5 Q1138.24 1536.5 1135.34 1537.23 Q1132.45 1537.97 1129.77 1539.43 L1129.77 1534.02 Q1132.99 1532.78 1136.01 1532.17 Q1139.03 1531.54 1141.9 1531.54 Q1149.63 1531.54 1153.45 1535.55 Q1157.27 1539.56 1157.27 1547.71 Z" fill="#000000" fill-rule="nonzero" fill-opacity="1" /><path clip-path="url(#clip030)" d="M1192.79 1537.81 L1192.79 1518.52 L1198.65 1518.52 L1198.65 1568.04 L1192.79 1568.04 L1192.79 1562.7 Q1190.95 1565.88 1188.11 1567.44 Q1185.31 1568.97 1181.37 1568.97 Q1174.91 1568.97 1170.83 1563.81 Q1166.79 1558.65 1166.79 1550.25 Q1166.79 1541.85 1170.83 1536.69 Q1174.91 1531.54 1181.37 1531.54 Q1185.31 1531.54 1188.11 1533.1 Q1190.95 1534.62 1192.79 1537.81 M1172.84 1550.25 Q1172.84 1556.71 1175.48 1560.4 Q1178.15 1564.07 1182.8 1564.07 Q1187.45 1564.07 1190.12 1560.4 Q1192.79 1556.71 1192.79 1550.25 Q1192.79 1543.79 1190.12 1540.13 Q1187.45 1536.44 1182.8 1536.44 Q1178.15 1536.44 1175.48 1540.13 Q1172.84 1543.79 1172.84 1550.25 Z" fill="#000000" fill-rule="nonzero" fill-opacity="1" /><path clip-path="url(#clip030)" d="M1241.2 1548.76 L1241.2 1551.62 L1214.28 1551.62 Q1214.66 1557.67 1217.91 1560.85 Q1221.18 1564 1227.01 1564 Q1230.38 1564 1233.53 1563.17 Q1236.72 1562.35 1239.84 1560.69 L1239.84 1566.23 Q1236.68 1567.57 1233.37 1568.27 Q1230.06 1568.97 1226.66 1568.97 Q1218.13 1568.97 1213.13 1564 Q1208.17 1559.04 1208.17 1550.57 Q1208.17 1541.82 1212.88 1536.69 Q1217.62 1531.54 1225.64 1531.54 Q1232.83 1531.54 1237 1536.18 Q1241.2 1540.8 1241.2 1548.76 M1235.35 1547.04 Q1235.28 1542.23 1232.64 1539.37 Q1230.03 1536.5 1225.7 1536.5 Q1220.8 1536.5 1217.84 1539.27 Q1214.91 1542.04 1214.47 1547.07 L1235.35 1547.04 Z" fill="#000000" fill-rule="nonzero" fill-opacity="1" /><path clip-path="url(#clip030)" d="M1271.47 1537.87 Q1270.49 1537.3 1269.31 1537.04 Q1268.16 1536.76 1266.76 1536.76 Q1261.8 1536.76 1259.12 1540 Q1256.48 1543.22 1256.48 1549.27 L1256.48 1568.04 L1250.59 1568.04 L1250.59 1532.4 L1256.48 1532.4 L1256.48 1537.93 Q1258.33 1534.69 1261.29 1533.13 Q1264.25 1531.54 1268.48 1531.54 Q1269.09 1531.54 1269.82 1531.63 Q1270.55 1531.7 1271.44 1531.85 L1271.47 1537.87 Z" fill="#000000" fill-rule="nonzero" fill-opacity="1" /><path clip-path="url(#clip030)" d="M1283.15 1520.52 L1283.15 1538.19 L1277.74 1538.19 L1277.74 1520.52 L1283.15 1520.52 Z" fill="#000000" fill-rule="nonzero" fill-opacity="1" /><path clip-path="url(#clip030)" d="M1318.26 1533.45 L1318.26 1538.98 Q1315.78 1537.71 1313.1 1537.07 Q1310.43 1536.44 1307.57 1536.44 Q1303.21 1536.44 1301.01 1537.77 Q1298.85 1539.11 1298.85 1541.79 Q1298.85 1543.82 1300.41 1545 Q1301.96 1546.15 1306.68 1547.2 L1308.68 1547.64 Q1314.92 1548.98 1317.53 1551.43 Q1320.17 1553.85 1320.17 1558.21 Q1320.17 1563.17 1316.22 1566.07 Q1312.31 1568.97 1305.43 1568.97 Q1302.57 1568.97 1299.45 1568.39 Q1296.36 1567.85 1292.93 1566.74 L1292.93 1560.69 Q1296.17 1562.38 1299.32 1563.24 Q1302.47 1564.07 1305.56 1564.07 Q1309.7 1564.07 1311.93 1562.66 Q1314.16 1561.23 1314.16 1558.65 Q1314.16 1556.27 1312.53 1554.99 Q1310.94 1553.72 1305.5 1552.54 L1303.46 1552.07 Q1298.02 1550.92 1295.6 1548.56 Q1293.18 1546.18 1293.18 1542.04 Q1293.18 1537.01 1296.75 1534.27 Q1300.31 1531.54 1306.87 1531.54 Q1310.11 1531.54 1312.98 1532.01 Q1315.84 1532.49 1318.26 1533.45 Z" fill="#000000" fill-rule="nonzero" fill-opacity="1" /><path clip-path="url(#clip030)" d="M1355.88 1562.7 L1355.88 1581.6 L1349.99 1581.6 L1349.99 1532.4 L1355.88 1532.4 L1355.88 1537.81 Q1357.73 1534.62 1360.53 1533.1 Q1363.36 1531.54 1367.28 1531.54 Q1373.77 1531.54 1377.81 1536.69 Q1381.89 1541.85 1381.89 1550.25 Q1381.89 1558.65 1377.81 1563.81 Q1373.77 1568.97 1367.28 1568.97 Q1363.36 1568.97 1360.53 1567.44 Q1357.73 1565.88 1355.88 1562.7 M1375.81 1550.25 Q1375.81 1543.79 1373.13 1540.13 Q1370.49 1536.44 1365.84 1536.44 Q1361.2 1536.44 1358.52 1540.13 Q1355.88 1543.79 1355.88 1550.25 Q1355.88 1556.71 1358.52 1560.4 Q1361.2 1564.07 1365.84 1564.07 Q1370.49 1564.07 1373.13 1560.4 Q1375.81 1556.71 1375.81 1550.25 Z" fill="#000000" fill-rule="nonzero" fill-opacity="1" /><path clip-path="url(#clip030)" d="M1412.25 1537.87 Q1411.26 1537.3 1410.09 1537.04 Q1408.94 1536.76 1407.54 1536.76 Q1402.57 1536.76 1399.9 1540 Q1397.26 1543.22 1397.26 1549.27 L1397.26 1568.04 L1391.37 1568.04 L1391.37 1532.4 L1397.26 1532.4 L1397.26 1537.93 Q1399.11 1534.69 1402.07 1533.13 Q1405.03 1531.54 1409.26 1531.54 Q1409.86 1531.54 1410.6 1531.63 Q1411.33 1531.7 1412.22 1531.85 L1412.25 1537.87 Z" fill="#000000" fill-rule="nonzero" fill-opacity="1" /><path clip-path="url(#clip030)" d="M1418.39 1532.4 L1424.25 1532.4 L1424.25 1568.04 L1418.39 1568.04 L1418.39 1532.4 M1418.39 1518.52 L1424.25 1518.52 L1424.25 1525.93 L1418.39 1525.93 L1418.39 1518.52 Z" fill="#000000" fill-rule="nonzero" fill-opacity="1" /><path clip-path="url(#clip030)" d="M1462.16 1533.76 L1462.16 1539.24 Q1459.68 1537.87 1457.16 1537.2 Q1454.68 1536.5 1452.13 1536.5 Q1446.43 1536.5 1443.28 1540.13 Q1440.13 1543.73 1440.13 1550.25 Q1440.13 1556.78 1443.28 1560.4 Q1446.43 1564 1452.13 1564 Q1454.68 1564 1457.16 1563.33 Q1459.68 1562.63 1462.16 1561.26 L1462.16 1566.68 Q1459.71 1567.82 1457.07 1568.39 Q1454.46 1568.97 1451.5 1568.97 Q1443.44 1568.97 1438.7 1563.91 Q1433.96 1558.85 1433.96 1550.25 Q1433.96 1541.53 1438.73 1536.53 Q1443.54 1531.54 1451.88 1531.54 Q1454.58 1531.54 1457.16 1532.11 Q1459.74 1532.65 1462.16 1533.76 Z" fill="#000000" fill-rule="nonzero" fill-opacity="1" /><path clip-path="url(#clip030)" d="M1502.83 1548.76 L1502.83 1551.62 L1475.91 1551.62 Q1476.29 1557.67 1479.54 1560.85 Q1482.81 1564 1488.64 1564 Q1492.01 1564 1495.16 1563.17 Q1498.35 1562.35 1501.47 1560.69 L1501.47 1566.23 Q1498.32 1567.57 1495 1568.27 Q1491.69 1568.97 1488.29 1568.97 Q1479.76 1568.97 1474.76 1564 Q1469.8 1559.04 1469.8 1550.57 Q1469.8 1541.82 1474.51 1536.69 Q1479.25 1531.54 1487.27 1531.54 Q1494.46 1531.54 1498.63 1536.18 Q1502.83 1540.8 1502.83 1548.76 M1496.98 1547.04 Q1496.91 1542.23 1494.27 1539.37 Q1491.66 1536.5 1487.33 1536.5 Q1482.43 1536.5 1479.47 1539.27 Q1476.54 1542.04 1476.1 1547.07 L1496.98 1547.04 Z" fill="#000000" fill-rule="nonzero" fill-opacity="1" /><polyline clip-path="url(#clip030)" style="stroke:#000000; stroke-linecap:round; stroke-linejoin:round; stroke-width:4; stroke-opacity:1; fill:none" points="204.45,1423.18 204.45,123.472 "/>
<polyline clip-path="url(#clip030)" style="stroke:#000000; stroke-linecap:round; stroke-linejoin:round; stroke-width:4; stroke-opacity:1; fill:none" points="204.45,1256.86 223.347,1256.86 "/>
<polyline clip-path="url(#clip030)" style="stroke:#000000; stroke-linecap:round; stroke-linejoin:round; stroke-width:4; stroke-opacity:1; fill:none" points="204.45,916.848 223.347,916.848 "/>
<polyline clip-path="url(#clip030)" style="stroke:#000000; stroke-linecap:round; stroke-linejoin:round; stroke-width:4; stroke-opacity:1; fill:none" points="204.45,576.834 223.347,576.834 "/>
<polyline clip-path="url(#clip030)" style="stroke:#000000; stroke-linecap:round; stroke-linejoin:round; stroke-width:4; stroke-opacity:1; fill:none" points="204.45,236.821 223.347,236.821 "/>
<path clip-path="url(#clip030)" d="M116.158 1239.58 L138.38 1239.58 L138.38 1241.57 L125.834 1274.14 L120.95 1274.14 L132.755 1243.52 L116.158 1243.52 L116.158 1239.58 Z" fill="#000000" fill-rule="nonzero" fill-opacity="1" /><path clip-path="url(#clip030)" d="M147.547 1239.58 L165.903 1239.58 L165.903 1243.52 L151.829 1243.52 L151.829 1251.99 Q152.848 1251.64 153.866 1251.48 Q154.885 1251.29 155.903 1251.29 Q161.69 1251.29 165.07 1254.47 Q168.45 1257.64 168.45 1263.05 Q168.45 1268.63 164.977 1271.73 Q161.505 1274.81 155.186 1274.81 Q153.01 1274.81 150.741 1274.44 Q148.496 1274.07 146.089 1273.33 L146.089 1268.63 Q148.172 1269.77 150.394 1270.32 Q152.616 1270.88 155.093 1270.88 Q159.098 1270.88 161.436 1268.77 Q163.774 1266.66 163.774 1263.05 Q163.774 1259.44 161.436 1257.34 Q159.098 1255.23 155.093 1255.23 Q153.218 1255.23 151.343 1255.65 Q149.491 1256.06 147.547 1256.94 L147.547 1239.58 Z" fill="#000000" fill-rule="nonzero" fill-opacity="1" /><path clip-path="url(#clip030)" d="M126.343 917.716 Q123.01 917.716 121.089 919.498 Q119.191 921.28 119.191 924.405 Q119.191 927.53 121.089 929.313 Q123.01 931.095 126.343 931.095 Q129.677 931.095 131.598 929.313 Q133.519 927.507 133.519 924.405 Q133.519 921.28 131.598 919.498 Q129.7 917.716 126.343 917.716 M121.668 915.725 Q118.658 914.984 116.968 912.924 Q115.302 910.864 115.302 907.901 Q115.302 903.757 118.242 901.35 Q121.205 898.943 126.343 898.943 Q131.505 898.943 134.445 901.35 Q137.385 903.757 137.385 907.901 Q137.385 910.864 135.695 912.924 Q134.029 914.984 131.042 915.725 Q134.422 916.512 136.297 918.804 Q138.195 921.095 138.195 924.405 Q138.195 929.428 135.117 932.114 Q132.061 934.799 126.343 934.799 Q120.626 934.799 117.547 932.114 Q114.492 929.428 114.492 924.405 Q114.492 921.095 116.39 918.804 Q118.288 916.512 121.668 915.725 M119.955 908.341 Q119.955 911.026 121.621 912.53 Q123.311 914.035 126.343 914.035 Q129.353 914.035 131.042 912.53 Q132.755 911.026 132.755 908.341 Q132.755 905.655 131.042 904.151 Q129.353 902.646 126.343 902.646 Q123.311 902.646 121.621 904.151 Q119.955 905.655 119.955 908.341 Z" fill="#000000" fill-rule="nonzero" fill-opacity="1" /><path clip-path="url(#clip030)" d="M156.505 902.646 Q152.894 902.646 151.066 906.211 Q149.26 909.753 149.26 916.882 Q149.26 923.989 151.066 927.553 Q152.894 931.095 156.505 931.095 Q160.14 931.095 161.945 927.553 Q163.774 923.989 163.774 916.882 Q163.774 909.753 161.945 906.211 Q160.14 902.646 156.505 902.646 M156.505 898.943 Q162.315 898.943 165.371 903.549 Q168.45 908.132 168.45 916.882 Q168.45 925.609 165.371 930.215 Q162.315 934.799 156.505 934.799 Q150.695 934.799 147.616 930.215 Q144.561 925.609 144.561 916.882 Q144.561 908.132 147.616 903.549 Q150.695 898.943 156.505 898.943 Z" fill="#000000" fill-rule="nonzero" fill-opacity="1" /><path clip-path="url(#clip030)" d="M127.339 577.702 Q124.005 577.702 122.084 579.485 Q120.186 581.267 120.186 584.392 Q120.186 587.517 122.084 589.299 Q124.005 591.082 127.339 591.082 Q130.672 591.082 132.593 589.299 Q134.515 587.494 134.515 584.392 Q134.515 581.267 132.593 579.485 Q130.695 577.702 127.339 577.702 M122.663 575.711 Q119.654 574.971 117.964 572.911 Q116.297 570.85 116.297 567.887 Q116.297 563.744 119.237 561.337 Q122.2 558.929 127.339 558.929 Q132.501 558.929 135.441 561.337 Q138.38 563.744 138.38 567.887 Q138.38 570.85 136.691 572.911 Q135.024 574.971 132.038 575.711 Q135.417 576.499 137.292 578.79 Q139.191 581.082 139.191 584.392 Q139.191 589.415 136.112 592.1 Q133.056 594.785 127.339 594.785 Q121.621 594.785 118.543 592.1 Q115.487 589.415 115.487 584.392 Q115.487 581.082 117.385 578.79 Q119.283 576.499 122.663 575.711 M120.95 568.327 Q120.95 571.012 122.617 572.517 Q124.306 574.022 127.339 574.022 Q130.348 574.022 132.038 572.517 Q133.751 571.012 133.751 568.327 Q133.751 565.642 132.038 564.137 Q130.348 562.633 127.339 562.633 Q124.306 562.633 122.617 564.137 Q120.95 565.642 120.95 568.327 Z" fill="#000000" fill-rule="nonzero" fill-opacity="1" /><path clip-path="url(#clip030)" d="M147.547 559.554 L165.903 559.554 L165.903 563.489 L151.829 563.489 L151.829 571.961 Q152.848 571.614 153.866 571.452 Q154.885 571.267 155.903 571.267 Q161.69 571.267 165.07 574.438 Q168.45 577.61 168.45 583.026 Q168.45 588.605 164.977 591.707 Q161.505 594.785 155.186 594.785 Q153.01 594.785 150.741 594.415 Q148.496 594.045 146.089 593.304 L146.089 588.605 Q148.172 589.739 150.394 590.295 Q152.616 590.85 155.093 590.85 Q159.098 590.85 161.436 588.744 Q163.774 586.637 163.774 583.026 Q163.774 579.415 161.436 577.309 Q159.098 575.202 155.093 575.202 Q153.218 575.202 151.343 575.619 Q149.491 576.036 147.547 576.915 L147.547 559.554 Z" fill="#000000" fill-rule="nonzero" fill-opacity="1" /><path clip-path="url(#clip030)" d="M116.482 253.383 L116.482 249.124 Q118.242 249.957 120.047 250.397 Q121.853 250.837 123.589 250.837 Q128.218 250.837 130.649 247.735 Q133.103 244.61 133.45 238.268 Q132.107 240.258 130.047 241.323 Q127.987 242.388 125.487 242.388 Q120.302 242.388 117.269 239.263 Q114.26 236.115 114.26 230.675 Q114.26 225.351 117.408 222.133 Q120.556 218.916 125.788 218.916 Q131.783 218.916 134.931 223.522 Q138.103 228.106 138.103 236.856 Q138.103 245.027 134.214 249.911 Q130.348 254.772 123.797 254.772 Q122.038 254.772 120.232 254.425 Q118.427 254.078 116.482 253.383 M125.788 238.731 Q128.936 238.731 130.765 236.578 Q132.617 234.425 132.617 230.675 Q132.617 226.948 130.765 224.795 Q128.936 222.619 125.788 222.619 Q122.64 222.619 120.788 224.795 Q118.959 226.948 118.959 230.675 Q118.959 234.425 120.788 236.578 Q122.64 238.731 125.788 238.731 Z" fill="#000000" fill-rule="nonzero" fill-opacity="1" /><path clip-path="url(#clip030)" d="M156.505 222.619 Q152.894 222.619 151.066 226.184 Q149.26 229.726 149.26 236.856 Q149.26 243.962 151.066 247.527 Q152.894 251.068 156.505 251.068 Q160.14 251.068 161.945 247.527 Q163.774 243.962 163.774 236.856 Q163.774 229.726 161.945 226.184 Q160.14 222.619 156.505 222.619 M156.505 218.916 Q162.315 218.916 165.371 223.522 Q168.45 228.106 168.45 236.856 Q168.45 245.582 165.371 250.189 Q162.315 254.772 156.505 254.772 Q150.695 254.772 147.616 250.189 Q144.561 245.582 144.561 236.856 Q144.561 228.106 147.616 223.522 Q150.695 218.916 156.505 218.916 Z" fill="#000000" fill-rule="nonzero" fill-opacity="1" /><path clip-path="url(#clip030)" d="M21.7677 847.932 L39.6235 847.932 L39.6235 839.848 Q39.6235 835.36 37.3 832.909 Q34.9765 830.458 30.6797 830.458 Q26.4147 830.458 24.0912 832.909 Q21.7677 835.36 21.7677 839.848 L21.7677 847.932 M16.4842 854.361 L16.4842 839.848 Q16.4842 831.859 20.1126 827.785 Q23.7092 823.679 30.6797 823.679 Q37.7138 823.679 41.3104 827.785 Q44.907 831.859 44.907 839.848 L44.907 847.932 L64.0042 847.932 L64.0042 854.361 L16.4842 854.361 Z" fill="#000000" fill-rule="nonzero" fill-opacity="1" /><path clip-path="url(#clip030)" d="M33.8307 795.797 Q33.2578 796.784 33.0032 797.961 Q32.7167 799.107 32.7167 800.508 Q32.7167 805.473 35.9632 808.146 Q39.1779 810.788 45.2253 810.788 L64.0042 810.788 L64.0042 816.676 L28.3562 816.676 L28.3562 810.788 L33.8944 810.788 Q30.6479 808.942 29.0883 805.982 Q27.4968 803.022 27.4968 798.789 Q27.4968 798.184 27.5923 797.452 Q27.656 796.72 27.8151 795.829 L33.8307 795.797 Z" fill="#000000" fill-rule="nonzero" fill-opacity="1" /><path clip-path="url(#clip030)" d="M32.4621 777.273 Q32.4621 781.983 36.1542 784.721 Q39.8145 787.458 46.212 787.458 Q52.6095 787.458 56.3017 784.752 Q59.9619 782.015 59.9619 777.273 Q59.9619 772.594 56.2698 769.857 Q52.5777 767.119 46.212 767.119 Q39.8781 767.119 36.186 769.857 Q32.4621 772.594 32.4621 777.273 M27.4968 777.273 Q27.4968 769.634 32.4621 765.273 Q37.4273 760.913 46.212 760.913 Q54.9649 760.913 59.9619 765.273 Q64.9272 769.634 64.9272 777.273 Q64.9272 784.943 59.9619 789.304 Q54.9649 793.633 46.212 793.633 Q37.4273 793.633 32.4621 789.304 Q27.4968 784.943 27.4968 777.273 Z" fill="#000000" fill-rule="nonzero" fill-opacity="1" /><path clip-path="url(#clip030)" d="M14.479 733.158 L19.3487 733.158 L19.3487 738.76 Q19.3487 741.911 20.6219 743.153 Q21.895 744.362 25.2052 744.362 L28.3562 744.362 L28.3562 734.718 L32.9077 734.718 L32.9077 744.362 L64.0042 744.362 L64.0042 750.25 L32.9077 750.25 L32.9077 755.852 L28.3562 755.852 L28.3562 750.25 L25.8736 750.25 Q19.9216 750.25 17.2162 747.481 Q14.479 744.712 14.479 738.697 L14.479 733.158 Z" fill="#000000" fill-rule="nonzero" fill-opacity="1" /><path clip-path="url(#clip030)" d="M28.3562 728.257 L28.3562 722.4 L64.0042 722.4 L64.0042 728.257 L28.3562 728.257 M14.479 728.257 L14.479 722.4 L21.895 722.4 L21.895 728.257 L14.479 728.257 Z" fill="#000000" fill-rule="nonzero" fill-opacity="1" /><path clip-path="url(#clip030)" d="M18.2347 704.354 L28.3562 704.354 L28.3562 692.291 L32.9077 692.291 L32.9077 704.354 L52.2594 704.354 Q56.6199 704.354 57.8613 703.176 Q59.1026 701.966 59.1026 698.306 L59.1026 692.291 L64.0042 692.291 L64.0042 698.306 Q64.0042 705.086 61.4897 707.664 Q58.9434 710.242 52.2594 710.242 L32.9077 710.242 L32.9077 714.539 L28.3562 714.539 L28.3562 710.242 L18.2347 710.242 L18.2347 704.354 Z" fill="#000000" fill-rule="nonzero" fill-opacity="1" /><path clip-path="url(#clip030)" d="M374.461 16.7545 L374.461 25.383 Q370.329 21.5346 365.63 19.6307 Q360.972 17.7268 355.706 17.7268 Q345.335 17.7268 339.826 24.0867 Q334.317 30.4061 334.317 42.3968 Q334.317 54.3469 339.826 60.7069 Q345.335 67.0263 355.706 67.0263 Q360.972 67.0263 365.63 65.1223 Q370.329 63.2184 374.461 59.3701 L374.461 67.9175 Q370.167 70.8341 365.347 72.2924 Q360.567 73.7508 355.219 73.7508 Q341.487 73.7508 333.588 65.3654 Q325.688 56.9395 325.688 42.3968 Q325.688 27.8135 333.588 19.4281 Q341.487 11.0023 355.219 11.0023 Q360.648 11.0023 365.428 12.4606 Q370.248 13.8784 374.461 16.7545 Z" fill="#000000" fill-rule="nonzero" fill-opacity="1" /><path clip-path="url(#clip030)" d="M404.357 32.4315 Q398.362 32.4315 394.878 37.1306 Q391.394 41.7891 391.394 49.9314 Q391.394 58.0738 394.837 62.7728 Q398.321 67.4314 404.357 67.4314 Q410.312 67.4314 413.796 62.7323 Q417.279 58.0333 417.279 49.9314 Q417.279 41.8701 413.796 37.1711 Q410.312 32.4315 404.357 32.4315 M404.357 26.1121 Q414.079 26.1121 419.629 32.4315 Q425.179 38.7509 425.179 49.9314 Q425.179 61.0714 419.629 67.4314 Q414.079 73.7508 404.357 73.7508 Q394.594 73.7508 389.044 67.4314 Q383.535 61.0714 383.535 49.9314 Q383.535 38.7509 389.044 32.4315 Q394.594 26.1121 404.357 26.1121 Z" fill="#000000" fill-rule="nonzero" fill-opacity="1" /><path clip-path="url(#clip030)" d="M463.824 34.1734 Q462.568 33.4443 461.07 33.1202 Q459.611 32.7556 457.829 32.7556 Q451.509 32.7556 448.107 36.8875 Q444.744 40.9789 444.744 48.6757 L444.744 72.576 L437.25 72.576 L437.25 27.2059 L444.744 27.2059 L444.744 34.2544 Q447.094 30.1225 450.861 28.1376 Q454.629 26.1121 460.016 26.1121 Q460.786 26.1121 461.718 26.2337 Q462.649 26.3147 463.784 26.5172 L463.824 34.1734 Z" fill="#000000" fill-rule="nonzero" fill-opacity="1" /><path clip-path="url(#clip030)" d="M496.474 34.1734 Q495.219 33.4443 493.72 33.1202 Q492.262 32.7556 490.479 32.7556 Q484.16 32.7556 480.757 36.8875 Q477.395 40.9789 477.395 48.6757 L477.395 72.576 L469.901 72.576 L469.901 27.2059 L477.395 27.2059 L477.395 34.2544 Q479.744 30.1225 483.512 28.1376 Q487.279 26.1121 492.667 26.1121 Q493.436 26.1121 494.368 26.2337 Q495.3 26.3147 496.434 26.5172 L496.474 34.1734 Z" fill="#000000" fill-rule="nonzero" fill-opacity="1" /><path clip-path="url(#clip030)" d="M541.277 48.0275 L541.277 51.6733 L507.007 51.6733 Q507.493 59.3701 511.625 63.421 Q515.797 67.4314 523.21 67.4314 Q527.504 67.4314 531.515 66.3781 Q535.566 65.3249 539.536 63.2184 L539.536 70.267 Q535.525 71.9684 531.312 72.8596 Q527.099 73.7508 522.765 73.7508 Q511.908 73.7508 505.548 67.4314 Q499.229 61.1119 499.229 50.3365 Q499.229 39.1965 505.224 32.6746 Q511.26 26.1121 521.469 26.1121 Q530.624 26.1121 535.93 32.0264 Q541.277 37.9003 541.277 48.0275 M533.824 45.84 Q533.743 39.7232 530.381 36.0774 Q527.059 32.4315 521.55 32.4315 Q515.311 32.4315 511.544 35.9558 Q507.817 39.4801 507.25 45.8805 L533.824 45.84 Z" fill="#000000" fill-rule="nonzero" fill-opacity="1" /><path clip-path="url(#clip030)" d="M574.13 49.7694 Q565.097 49.7694 561.613 51.8354 Q558.129 53.9013 558.129 58.8839 Q558.129 62.8538 560.722 65.2034 Q563.355 67.5124 567.851 67.5124 Q574.049 67.5124 577.776 63.1374 Q581.543 58.7219 581.543 51.4303 L581.543 49.7694 L574.13 49.7694 M588.997 46.6907 L588.997 72.576 L581.543 72.576 L581.543 65.6895 Q578.991 69.8214 575.184 71.8063 Q571.376 73.7508 565.866 73.7508 Q558.899 73.7508 554.767 69.8619 Q550.676 65.9325 550.676 59.3701 Q550.676 51.7138 555.78 47.825 Q560.924 43.9361 571.092 43.9361 L581.543 43.9361 L581.543 43.2069 Q581.543 38.0623 578.141 35.2672 Q574.778 32.4315 568.662 32.4315 Q564.773 32.4315 561.086 33.3632 Q557.4 34.295 553.997 36.1584 L553.997 29.2718 Q558.089 27.692 561.937 26.9223 Q565.785 26.1121 569.431 26.1121 Q579.275 26.1121 584.136 31.2163 Q588.997 36.3204 588.997 46.6907 Z" fill="#000000" fill-rule="nonzero" fill-opacity="1" /><path clip-path="url(#clip030)" d="M604.35 9.54393 L611.804 9.54393 L611.804 72.576 L604.35 72.576 L604.35 9.54393 Z" fill="#000000" fill-rule="nonzero" fill-opacity="1" /><path clip-path="url(#clip030)" d="M634.772 14.324 L634.772 27.2059 L650.125 27.2059 L650.125 32.9987 L634.772 32.9987 L634.772 57.6282 Q634.772 63.1779 636.271 64.7578 Q637.811 66.3376 642.469 66.3376 L650.125 66.3376 L650.125 72.576 L642.469 72.576 Q633.841 72.576 630.559 69.3758 Q627.278 66.1351 627.278 57.6282 L627.278 32.9987 L621.809 32.9987 L621.809 27.2059 L627.278 27.2059 L627.278 14.324 L634.772 14.324 Z" fill="#000000" fill-rule="nonzero" fill-opacity="1" /><path clip-path="url(#clip030)" d="M659.928 27.2059 L667.382 27.2059 L667.382 72.576 L659.928 72.576 L659.928 27.2059 M659.928 9.54393 L667.382 9.54393 L667.382 18.9825 L659.928 18.9825 L659.928 9.54393 Z" fill="#000000" fill-rule="nonzero" fill-opacity="1" /><path clip-path="url(#clip030)" d="M700.559 32.4315 Q694.564 32.4315 691.08 37.1306 Q687.596 41.7891 687.596 49.9314 Q687.596 58.0738 691.039 62.7728 Q694.523 67.4314 700.559 67.4314 Q706.514 67.4314 709.998 62.7323 Q713.481 58.0333 713.481 49.9314 Q713.481 41.8701 709.998 37.1711 Q706.514 32.4315 700.559 32.4315 M700.559 26.1121 Q710.281 26.1121 715.831 32.4315 Q721.381 38.7509 721.381 49.9314 Q721.381 61.0714 715.831 67.4314 Q710.281 73.7508 700.559 73.7508 Q690.796 73.7508 685.247 67.4314 Q679.737 61.0714 679.737 49.9314 Q679.737 38.7509 685.247 32.4315 Q690.796 26.1121 700.559 26.1121 Z" fill="#000000" fill-rule="nonzero" fill-opacity="1" /><path clip-path="url(#clip030)" d="M771.45 45.1919 L771.45 72.576 L763.996 72.576 L763.996 45.4349 Q763.996 38.994 761.485 35.7938 Q758.973 32.5936 753.95 32.5936 Q747.914 32.5936 744.43 36.4419 Q740.947 40.2903 740.947 46.9338 L740.947 72.576 L733.452 72.576 L733.452 27.2059 L740.947 27.2059 L740.947 34.2544 Q743.62 30.163 747.225 28.1376 Q750.871 26.1121 755.611 26.1121 Q763.429 26.1121 767.439 30.9732 Q771.45 35.7938 771.45 45.1919 Z" fill="#000000" fill-rule="nonzero" fill-opacity="1" /><path clip-path="url(#clip030)" d="M845.257 49.9314 Q845.257 41.7081 841.855 37.0496 Q838.492 32.3505 832.578 32.3505 Q826.664 32.3505 823.261 37.0496 Q819.899 41.7081 819.899 49.9314 Q819.899 58.1548 823.261 62.8538 Q826.664 67.5124 832.578 67.5124 Q838.492 67.5124 841.855 62.8538 Q845.257 58.1548 845.257 49.9314 M819.899 34.0924 Q822.248 30.0415 825.813 28.0971 Q829.418 26.1121 834.401 26.1121 Q842.665 26.1121 847.809 32.6746 Q852.995 39.2371 852.995 49.9314 Q852.995 60.6258 847.809 67.1883 Q842.665 73.7508 834.401 73.7508 Q829.418 73.7508 825.813 71.8063 Q822.248 69.8214 819.899 65.7705 L819.899 72.576 L812.404 72.576 L812.404 9.54393 L819.899 9.54393 L819.899 34.0924 Z" fill="#000000" fill-rule="nonzero" fill-opacity="1" /><path clip-path="url(#clip030)" d="M904.157 48.0275 L904.157 51.6733 L869.887 51.6733 Q870.373 59.3701 874.505 63.421 Q878.677 67.4314 886.09 67.4314 Q890.384 67.4314 894.395 66.3781 Q898.446 65.3249 902.416 63.2184 L902.416 70.267 Q898.405 71.9684 894.192 72.8596 Q889.979 73.7508 885.645 73.7508 Q874.788 73.7508 868.428 67.4314 Q862.109 61.1119 862.109 50.3365 Q862.109 39.1965 868.104 32.6746 Q874.14 26.1121 884.349 26.1121 Q893.504 26.1121 898.81 32.0264 Q904.157 37.9003 904.157 48.0275 M896.704 45.84 Q896.623 39.7232 893.261 36.0774 Q889.939 32.4315 884.43 32.4315 Q878.191 32.4315 874.424 35.9558 Q870.697 39.4801 870.13 45.8805 L896.704 45.84 Z" fill="#000000" fill-rule="nonzero" fill-opacity="1" /><path clip-path="url(#clip030)" d="M923.764 14.324 L923.764 27.2059 L939.117 27.2059 L939.117 32.9987 L923.764 32.9987 L923.764 57.6282 Q923.764 63.1779 925.263 64.7578 Q926.802 66.3376 931.461 66.3376 L939.117 66.3376 L939.117 72.576 L931.461 72.576 Q922.832 72.576 919.551 69.3758 Q916.27 66.1351 916.27 57.6282 L916.27 32.9987 L910.801 32.9987 L910.801 27.2059 L916.27 27.2059 L916.27 14.324 L923.764 14.324 Z" fill="#000000" fill-rule="nonzero" fill-opacity="1" /><path clip-path="url(#clip030)" d="M944.585 27.2059 L952.039 27.2059 L961.356 62.6108 L970.633 27.2059 L979.423 27.2059 L988.74 62.6108 L998.017 27.2059 L1005.47 27.2059 L993.601 72.576 L984.811 72.576 L975.048 35.3887 L965.245 72.576 L956.455 72.576 L944.585 27.2059 Z" fill="#000000" fill-rule="nonzero" fill-opacity="1" /><path clip-path="url(#clip030)" d="M1055.58 48.0275 L1055.58 51.6733 L1021.31 51.6733 Q1021.8 59.3701 1025.93 63.421 Q1030.1 67.4314 1037.51 67.4314 Q1041.81 67.4314 1045.82 66.3781 Q1049.87 65.3249 1053.84 63.2184 L1053.84 70.267 Q1049.83 71.9684 1045.62 72.8596 Q1041.4 73.7508 1037.07 73.7508 Q1026.21 73.7508 1019.85 67.4314 Q1013.53 61.1119 1013.53 50.3365 Q1013.53 39.1965 1019.53 32.6746 Q1025.56 26.1121 1035.77 26.1121 Q1044.93 26.1121 1050.23 32.0264 Q1055.58 37.9003 1055.58 48.0275 M1048.13 45.84 Q1048.05 39.7232 1044.68 36.0774 Q1041.36 32.4315 1035.85 32.4315 Q1029.61 32.4315 1025.85 35.9558 Q1022.12 39.4801 1021.55 45.8805 L1048.13 45.84 Z" fill="#000000" fill-rule="nonzero" fill-opacity="1" /><path clip-path="url(#clip030)" d="M1106.62 48.0275 L1106.62 51.6733 L1072.35 51.6733 Q1072.84 59.3701 1076.97 63.421 Q1081.14 67.4314 1088.55 67.4314 Q1092.85 67.4314 1096.86 66.3781 Q1100.91 65.3249 1104.88 63.2184 L1104.88 70.267 Q1100.87 71.9684 1096.66 72.8596 Q1092.44 73.7508 1088.11 73.7508 Q1077.25 73.7508 1070.89 67.4314 Q1064.57 61.1119 1064.57 50.3365 Q1064.57 39.1965 1070.57 32.6746 Q1076.6 26.1121 1086.81 26.1121 Q1095.97 26.1121 1101.27 32.0264 Q1106.62 37.9003 1106.62 48.0275 M1099.17 45.84 Q1099.09 39.7232 1095.72 36.0774 Q1092.4 32.4315 1086.89 32.4315 Q1080.66 32.4315 1076.89 35.9558 Q1073.16 39.4801 1072.59 45.8805 L1099.17 45.84 Z" fill="#000000" fill-rule="nonzero" fill-opacity="1" /><path clip-path="url(#clip030)" d="M1156.57 45.1919 L1156.57 72.576 L1149.12 72.576 L1149.12 45.4349 Q1149.12 38.994 1146.6 35.7938 Q1144.09 32.5936 1139.07 32.5936 Q1133.03 32.5936 1129.55 36.4419 Q1126.07 40.2903 1126.07 46.9338 L1126.07 72.576 L1118.57 72.576 L1118.57 27.2059 L1126.07 27.2059 L1126.07 34.2544 Q1128.74 30.163 1132.34 28.1376 Q1135.99 26.1121 1140.73 26.1121 Q1148.55 26.1121 1152.56 30.9732 Q1156.57 35.7938 1156.57 45.1919 Z" fill="#000000" fill-rule="nonzero" fill-opacity="1" /><path clip-path="url(#clip030)" d="M1209.15 45.1919 L1209.15 72.576 L1201.7 72.576 L1201.7 45.4349 Q1201.7 38.994 1199.18 35.7938 Q1196.67 32.5936 1191.65 32.5936 Q1185.61 32.5936 1182.13 36.4419 Q1178.65 40.2903 1178.65 46.9338 L1178.65 72.576 L1171.15 72.576 L1171.15 27.2059 L1178.65 27.2059 L1178.65 34.2544 Q1181.32 30.163 1184.93 28.1376 Q1188.57 26.1121 1193.31 26.1121 Q1201.13 26.1121 1205.14 30.9732 Q1209.15 35.7938 1209.15 45.1919 Z" fill="#000000" fill-rule="nonzero" fill-opacity="1" /><path clip-path="url(#clip030)" d="M1250.39 9.54393 L1257.84 9.54393 L1257.84 72.576 L1250.39 72.576 L1250.39 9.54393 Z" fill="#000000" fill-rule="nonzero" fill-opacity="1" /><path clip-path="url(#clip030)" d="M1312.25 48.0275 L1312.25 51.6733 L1277.97 51.6733 Q1278.46 59.3701 1282.59 63.421 Q1286.77 67.4314 1294.18 67.4314 Q1298.47 67.4314 1302.48 66.3781 Q1306.53 65.3249 1310.5 63.2184 L1310.5 70.267 Q1306.49 71.9684 1302.28 72.8596 Q1298.07 73.7508 1293.73 73.7508 Q1282.88 73.7508 1276.52 67.4314 Q1270.2 61.1119 1270.2 50.3365 Q1270.2 39.1965 1276.19 32.6746 Q1282.23 26.1121 1292.44 26.1121 Q1301.59 26.1121 1306.9 32.0264 Q1312.25 37.9003 1312.25 48.0275 M1304.79 45.84 Q1304.71 39.7232 1301.35 36.0774 Q1298.03 32.4315 1292.52 32.4315 Q1286.28 32.4315 1282.51 35.9558 Q1278.79 39.4801 1278.22 45.8805 L1304.79 45.84 Z" fill="#000000" fill-rule="nonzero" fill-opacity="1" /><path clip-path="url(#clip030)" d="M1345.1 49.7694 Q1336.06 49.7694 1332.58 51.8354 Q1329.1 53.9013 1329.1 58.8839 Q1329.1 62.8538 1331.69 65.2034 Q1334.32 67.5124 1338.82 67.5124 Q1345.02 67.5124 1348.74 63.1374 Q1352.51 58.7219 1352.51 51.4303 L1352.51 49.7694 L1345.1 49.7694 M1359.97 46.6907 L1359.97 72.576 L1352.51 72.576 L1352.51 65.6895 Q1349.96 69.8214 1346.15 71.8063 Q1342.34 73.7508 1336.83 73.7508 Q1329.87 73.7508 1325.74 69.8619 Q1321.64 65.9325 1321.64 59.3701 Q1321.64 51.7138 1326.75 47.825 Q1331.89 43.9361 1342.06 43.9361 L1352.51 43.9361 L1352.51 43.2069 Q1352.51 38.0623 1349.11 35.2672 Q1345.75 32.4315 1339.63 32.4315 Q1335.74 32.4315 1332.05 33.3632 Q1328.37 34.295 1324.97 36.1584 L1324.97 29.2718 Q1329.06 27.692 1332.91 26.9223 Q1336.75 26.1121 1340.4 26.1121 Q1350.24 26.1121 1355.1 31.2163 Q1359.97 36.3204 1359.97 46.6907 Z" fill="#000000" fill-rule="nonzero" fill-opacity="1" /><path clip-path="url(#clip030)" d="M1405.17 34.0924 L1405.17 9.54393 L1412.63 9.54393 L1412.63 72.576 L1405.17 72.576 L1405.17 65.7705 Q1402.82 69.8214 1399.22 71.8063 Q1395.65 73.7508 1390.63 73.7508 Q1382.41 73.7508 1377.22 67.1883 Q1372.08 60.6258 1372.08 49.9314 Q1372.08 39.2371 1377.22 32.6746 Q1382.41 26.1121 1390.63 26.1121 Q1395.65 26.1121 1399.22 28.0971 Q1402.82 30.0415 1405.17 34.0924 M1379.77 49.9314 Q1379.77 58.1548 1383.14 62.8538 Q1386.54 67.5124 1392.45 67.5124 Q1398.37 67.5124 1401.77 62.8538 Q1405.17 58.1548 1405.17 49.9314 Q1405.17 41.7081 1401.77 37.0496 Q1398.37 32.3505 1392.45 32.3505 Q1386.54 32.3505 1383.14 37.0496 Q1379.77 41.7081 1379.77 49.9314 Z" fill="#000000" fill-rule="nonzero" fill-opacity="1" /><path clip-path="url(#clip030)" d="M1466.79 48.0275 L1466.79 51.6733 L1432.52 51.6733 Q1433 59.3701 1437.13 63.421 Q1441.31 67.4314 1448.72 67.4314 Q1453.01 67.4314 1457.02 66.3781 Q1461.08 65.3249 1465.05 63.2184 L1465.05 70.267 Q1461.04 71.9684 1456.82 72.8596 Q1452.61 73.7508 1448.27 73.7508 Q1437.42 73.7508 1431.06 67.4314 Q1424.74 61.1119 1424.74 50.3365 Q1424.74 39.1965 1430.73 32.6746 Q1436.77 26.1121 1446.98 26.1121 Q1456.13 26.1121 1461.44 32.0264 Q1466.79 37.9003 1466.79 48.0275 M1459.33 45.84 Q1459.25 39.7232 1455.89 36.0774 Q1452.57 32.4315 1447.06 32.4315 Q1440.82 32.4315 1437.05 35.9558 Q1433.33 39.4801 1432.76 45.8805 L1459.33 45.84 Z" fill="#000000" fill-rule="nonzero" fill-opacity="1" /><path clip-path="url(#clip030)" d="M1505.31 34.1734 Q1504.06 33.4443 1502.56 33.1202 Q1501.1 32.7556 1499.32 32.7556 Q1493 32.7556 1489.59 36.8875 Q1486.23 40.9789 1486.23 48.6757 L1486.23 72.576 L1478.74 72.576 L1478.74 27.2059 L1486.23 27.2059 L1486.23 34.2544 Q1488.58 30.1225 1492.35 28.1376 Q1496.12 26.1121 1501.5 26.1121 Q1502.27 26.1121 1503.21 26.2337 Q1504.14 26.3147 1505.27 26.5172 L1505.31 34.1734 Z" fill="#000000" fill-rule="nonzero" fill-opacity="1" /><path clip-path="url(#clip030)" d="M1520.18 12.096 L1520.18 34.5785 L1513.29 34.5785 L1513.29 12.096 L1520.18 12.096 Z" fill="#000000" fill-rule="nonzero" fill-opacity="1" /><path clip-path="url(#clip030)" d="M1564.86 28.5427 L1564.86 35.5912 Q1561.7 33.9709 1558.3 33.1607 Q1554.89 32.3505 1551.25 32.3505 Q1545.7 32.3505 1542.9 34.0519 Q1540.15 35.7533 1540.15 39.156 Q1540.15 41.7486 1542.13 43.2475 Q1544.12 44.7058 1550.11 46.0426 L1552.67 46.6097 Q1560.61 48.3111 1563.93 51.4303 Q1567.29 54.509 1567.29 60.0587 Q1567.29 66.3781 1562.27 70.0644 Q1557.28 73.7508 1548.53 73.7508 Q1544.89 73.7508 1540.92 73.0216 Q1536.99 72.3329 1532.61 70.9151 L1532.61 63.2184 Q1536.75 65.3654 1540.76 66.4591 Q1544.77 67.5124 1548.7 67.5124 Q1553.96 67.5124 1556.8 65.73 Q1559.63 63.9071 1559.63 60.6258 Q1559.63 57.5877 1557.57 55.9673 Q1555.54 54.3469 1548.62 52.8481 L1546.02 52.2405 Q1539.1 50.7821 1536.02 47.7845 Q1532.94 44.7463 1532.94 39.4801 Q1532.94 33.0797 1537.48 29.5959 Q1542.01 26.1121 1550.36 26.1121 Q1554.49 26.1121 1558.14 26.7198 Q1561.78 27.3274 1564.86 28.5427 Z" fill="#000000" fill-rule="nonzero" fill-opacity="1" /><path clip-path="url(#clip030)" d="M1612.74 65.7705 L1612.74 89.8329 L1605.25 89.8329 L1605.25 27.2059 L1612.74 27.2059 L1612.74 34.0924 Q1615.09 30.0415 1618.66 28.0971 Q1622.26 26.1121 1627.24 26.1121 Q1635.51 26.1121 1640.65 32.6746 Q1645.84 39.2371 1645.84 49.9314 Q1645.84 60.6258 1640.65 67.1883 Q1635.51 73.7508 1627.24 73.7508 Q1622.26 73.7508 1618.66 71.8063 Q1615.09 69.8214 1612.74 65.7705 M1638.1 49.9314 Q1638.1 41.7081 1634.7 37.0496 Q1631.34 32.3505 1625.42 32.3505 Q1619.51 32.3505 1616.1 37.0496 Q1612.74 41.7081 1612.74 49.9314 Q1612.74 58.1548 1616.1 62.8538 Q1619.51 67.5124 1625.42 67.5124 Q1631.34 67.5124 1634.7 62.8538 Q1638.1 58.1548 1638.1 49.9314 Z" fill="#000000" fill-rule="nonzero" fill-opacity="1" /><path clip-path="url(#clip030)" d="M1684.48 34.1734 Q1683.23 33.4443 1681.73 33.1202 Q1680.27 32.7556 1678.49 32.7556 Q1672.17 32.7556 1668.77 36.8875 Q1665.4 40.9789 1665.4 48.6757 L1665.4 72.576 L1657.91 72.576 L1657.91 27.2059 L1665.4 27.2059 L1665.4 34.2544 Q1667.75 30.1225 1671.52 28.1376 Q1675.29 26.1121 1680.68 26.1121 Q1681.44 26.1121 1682.38 26.2337 Q1683.31 26.3147 1684.44 26.5172 L1684.48 34.1734 Z" fill="#000000" fill-rule="nonzero" fill-opacity="1" /><path clip-path="url(#clip030)" d="M1692.3 27.2059 L1699.76 27.2059 L1699.76 72.576 L1692.3 72.576 L1692.3 27.2059 M1692.3 9.54393 L1699.76 9.54393 L1699.76 18.9825 L1692.3 18.9825 L1692.3 9.54393 Z" fill="#000000" fill-rule="nonzero" fill-opacity="1" /><path clip-path="url(#clip030)" d="M1748 28.9478 L1748 35.9153 Q1744.84 34.1734 1741.64 33.3227 Q1738.48 32.4315 1735.24 32.4315 Q1727.99 32.4315 1723.98 37.0496 Q1719.97 41.6271 1719.97 49.9314 Q1719.97 58.2358 1723.98 62.8538 Q1727.99 67.4314 1735.24 67.4314 Q1738.48 67.4314 1741.64 66.5807 Q1744.84 65.6895 1748 63.9476 L1748 70.8341 Q1744.88 72.2924 1741.52 73.0216 Q1738.2 73.7508 1734.43 73.7508 Q1724.18 73.7508 1718.15 67.3098 Q1712.11 60.8689 1712.11 49.9314 Q1712.11 38.832 1718.19 32.472 Q1724.3 26.1121 1734.92 26.1121 Q1738.36 26.1121 1741.64 26.8413 Q1744.92 27.5299 1748 28.9478 Z" fill="#000000" fill-rule="nonzero" fill-opacity="1" /><path clip-path="url(#clip030)" d="M1799.77 48.0275 L1799.77 51.6733 L1765.5 51.6733 Q1765.99 59.3701 1770.12 63.421 Q1774.29 67.4314 1781.7 67.4314 Q1786 67.4314 1790.01 66.3781 Q1794.06 65.3249 1798.03 63.2184 L1798.03 70.267 Q1794.02 71.9684 1789.81 72.8596 Q1785.59 73.7508 1781.26 73.7508 Q1770.4 73.7508 1764.04 67.4314 Q1757.72 61.1119 1757.72 50.3365 Q1757.72 39.1965 1763.72 32.6746 Q1769.75 26.1121 1779.96 26.1121 Q1789.12 26.1121 1794.42 32.0264 Q1799.77 37.9003 1799.77 48.0275 M1792.32 45.84 Q1792.24 39.7232 1788.87 36.0774 Q1785.55 32.4315 1780.04 32.4315 Q1773.81 32.4315 1770.04 35.9558 Q1766.31 39.4801 1765.74 45.8805 L1792.32 45.84 Z" fill="#000000" fill-rule="nonzero" fill-opacity="1" /><path clip-path="url(#clip030)" d="M1859 49.7694 Q1849.96 49.7694 1846.48 51.8354 Q1843 53.9013 1843 58.8839 Q1843 62.8538 1845.59 65.2034 Q1848.22 67.5124 1852.72 67.5124 Q1858.92 67.5124 1862.64 63.1374 Q1866.41 58.7219 1866.41 51.4303 L1866.41 49.7694 L1859 49.7694 M1873.86 46.6907 L1873.86 72.576 L1866.41 72.576 L1866.41 65.6895 Q1863.86 69.8214 1860.05 71.8063 Q1856.24 73.7508 1850.73 73.7508 Q1843.76 73.7508 1839.63 69.8619 Q1835.54 65.9325 1835.54 59.3701 Q1835.54 51.7138 1840.65 47.825 Q1845.79 43.9361 1855.96 43.9361 L1866.41 43.9361 L1866.41 43.2069 Q1866.41 38.0623 1863.01 35.2672 Q1859.64 32.4315 1853.53 32.4315 Q1849.64 32.4315 1845.95 33.3632 Q1842.27 34.295 1838.86 36.1584 L1838.86 29.2718 Q1842.95 27.692 1846.8 26.9223 Q1850.65 26.1121 1854.3 26.1121 Q1864.14 26.1121 1869 31.2163 Q1873.86 36.3204 1873.86 46.6907 Z" fill="#000000" fill-rule="nonzero" fill-opacity="1" /><path clip-path="url(#clip030)" d="M1926.93 45.1919 L1926.93 72.576 L1919.48 72.576 L1919.48 45.4349 Q1919.48 38.994 1916.96 35.7938 Q1914.45 32.5936 1909.43 32.5936 Q1903.39 32.5936 1899.91 36.4419 Q1896.43 40.2903 1896.43 46.9338 L1896.43 72.576 L1888.93 72.576 L1888.93 27.2059 L1896.43 27.2059 L1896.43 34.2544 Q1899.1 30.163 1902.71 28.1376 Q1906.35 26.1121 1911.09 26.1121 Q1918.91 26.1121 1922.92 30.9732 Q1926.93 35.7938 1926.93 45.1919 Z" fill="#000000" fill-rule="nonzero" fill-opacity="1" /><path clip-path="url(#clip030)" d="M1971.65 34.0924 L1971.65 9.54393 L1979.11 9.54393 L1979.11 72.576 L1971.65 72.576 L1971.65 65.7705 Q1969.3 69.8214 1965.7 71.8063 Q1962.13 73.7508 1957.11 73.7508 Q1948.89 73.7508 1943.7 67.1883 Q1938.56 60.6258 1938.56 49.9314 Q1938.56 39.2371 1943.7 32.6746 Q1948.89 26.1121 1957.11 26.1121 Q1962.13 26.1121 1965.7 28.0971 Q1969.3 30.0415 1971.65 34.0924 M1946.25 49.9314 Q1946.25 58.1548 1949.61 62.8538 Q1953.02 67.5124 1958.93 67.5124 Q1964.85 67.5124 1968.25 62.8538 Q1971.65 58.1548 1971.65 49.9314 Q1971.65 41.7081 1968.25 37.0496 Q1964.85 32.3505 1958.93 32.3505 Q1953.02 32.3505 1949.61 37.0496 Q1946.25 41.7081 1946.25 49.9314 Z" fill="#000000" fill-rule="nonzero" fill-opacity="1" /><path clip-path="url(#clip030)" d="M2028.04 65.7705 L2028.04 89.8329 L2020.55 89.8329 L2020.55 27.2059 L2028.04 27.2059 L2028.04 34.0924 Q2030.39 30.0415 2033.95 28.0971 Q2037.56 26.1121 2042.54 26.1121 Q2050.81 26.1121 2055.95 32.6746 Q2061.14 39.2371 2061.14 49.9314 Q2061.14 60.6258 2055.95 67.1883 Q2050.81 73.7508 2042.54 73.7508 Q2037.56 73.7508 2033.95 71.8063 Q2030.39 69.8214 2028.04 65.7705 M2053.4 49.9314 Q2053.4 41.7081 2050 37.0496 Q2046.63 32.3505 2040.72 32.3505 Q2034.81 32.3505 2031.4 37.0496 Q2028.04 41.7081 2028.04 49.9314 Q2028.04 58.1548 2031.4 62.8538 Q2034.81 67.5124 2040.72 67.5124 Q2046.63 67.5124 2050 62.8538 Q2053.4 58.1548 2053.4 49.9314 Z" fill="#000000" fill-rule="nonzero" fill-opacity="1" /><path clip-path="url(#clip030)" d="M2099.78 34.1734 Q2098.53 33.4443 2097.03 33.1202 Q2095.57 32.7556 2093.79 32.7556 Q2087.47 32.7556 2084.06 36.8875 Q2080.7 40.9789 2080.7 48.6757 L2080.7 72.576 L2073.21 72.576 L2073.21 27.2059 L2080.7 27.2059 L2080.7 34.2544 Q2083.05 30.1225 2086.82 28.1376 Q2090.59 26.1121 2095.97 26.1121 Q2096.74 26.1121 2097.68 26.2337 Q2098.61 26.3147 2099.74 26.5172 L2099.78 34.1734 Z" fill="#000000" fill-rule="nonzero" fill-opacity="1" /><path clip-path="url(#clip030)" d="M2123.36 32.4315 Q2117.36 32.4315 2113.88 37.1306 Q2110.4 41.7891 2110.4 49.9314 Q2110.4 58.0738 2113.84 62.7728 Q2117.32 67.4314 2123.36 67.4314 Q2129.31 67.4314 2132.8 62.7323 Q2136.28 58.0333 2136.28 49.9314 Q2136.28 41.8701 2132.8 37.1711 Q2129.31 32.4315 2123.36 32.4315 M2123.36 26.1121 Q2133.08 26.1121 2138.63 32.4315 Q2144.18 38.7509 2144.18 49.9314 Q2144.18 61.0714 2138.63 67.4314 Q2133.08 73.7508 2123.36 73.7508 Q2113.6 73.7508 2108.05 67.4314 Q2102.54 61.0714 2102.54 49.9314 Q2102.54 38.7509 2108.05 32.4315 Q2113.6 26.1121 2123.36 26.1121 Z" fill="#000000" fill-rule="nonzero" fill-opacity="1" /><path clip-path="url(#clip030)" d="M2179.5 9.54393 L2179.5 15.7418 L2172.37 15.7418 Q2168.36 15.7418 2166.78 17.3622 Q2165.24 18.9825 2165.24 23.1955 L2165.24 27.2059 L2177.52 27.2059 L2177.52 32.9987 L2165.24 32.9987 L2165.24 72.576 L2157.75 72.576 L2157.75 32.9987 L2150.62 32.9987 L2150.62 27.2059 L2157.75 27.2059 L2157.75 24.0462 Q2157.75 16.471 2161.27 13.0277 Q2164.8 9.54393 2172.46 9.54393 L2179.5 9.54393 Z" fill="#000000" fill-rule="nonzero" fill-opacity="1" /><path clip-path="url(#clip030)" d="M2185.74 27.2059 L2193.2 27.2059 L2193.2 72.576 L2185.74 72.576 L2185.74 27.2059 M2185.74 9.54393 L2193.2 9.54393 L2193.2 18.9825 L2185.74 18.9825 L2185.74 9.54393 Z" fill="#000000" fill-rule="nonzero" fill-opacity="1" /><path clip-path="url(#clip030)" d="M2216.16 14.324 L2216.16 27.2059 L2231.52 27.2059 L2231.52 32.9987 L2216.16 32.9987 L2216.16 57.6282 Q2216.16 63.1779 2217.66 64.7578 Q2219.2 66.3376 2223.86 66.3376 L2231.52 66.3376 L2231.52 72.576 L2223.86 72.576 Q2215.23 72.576 2211.95 69.3758 Q2208.67 66.1351 2208.67 57.6282 L2208.67 32.9987 L2203.2 32.9987 L2203.2 27.2059 L2208.67 27.2059 L2208.67 14.324 L2216.16 14.324 Z" fill="#000000" fill-rule="nonzero" fill-opacity="1" /><circle clip-path="url(#clip031)" cx="336.352" cy="1353.59" r="14.4" fill="#009af9" fill-rule="evenodd" fill-opacity="1" stroke="#000000" stroke-opacity="1" stroke-width="3.2"/>
<circle clip-path="url(#clip031)" cx="966.706" cy="994.413" r="14.4" fill="#009af9" fill-rule="evenodd" fill-opacity="1" stroke="#000000" stroke-opacity="1" stroke-width="3.2"/>
<circle clip-path="url(#clip031)" cx="1053.42" cy="883.227" r="14.4" fill="#009af9" fill-rule="evenodd" fill-opacity="1" stroke="#000000" stroke-opacity="1" stroke-width="3.2"/>
<circle clip-path="url(#clip031)" cx="903.303" cy="998.296" r="14.4" fill="#009af9" fill-rule="evenodd" fill-opacity="1" stroke="#000000" stroke-opacity="1" stroke-width="3.2"/>
<circle clip-path="url(#clip031)" cx="603.879" cy="1175.11" r="14.4" fill="#009af9" fill-rule="evenodd" fill-opacity="1" stroke="#000000" stroke-opacity="1" stroke-width="3.2"/>
<circle clip-path="url(#clip031)" cx="1038.56" cy="953.772" r="14.4" fill="#009af9" fill-rule="evenodd" fill-opacity="1" stroke="#000000" stroke-opacity="1" stroke-width="3.2"/>
<circle clip-path="url(#clip031)" cx="769.782" cy="1136.13" r="14.4" fill="#009af9" fill-rule="evenodd" fill-opacity="1" stroke="#000000" stroke-opacity="1" stroke-width="3.2"/>
<circle clip-path="url(#clip031)" cx="2180.67" cy="207.019" r="14.4" fill="#009af9" fill-rule="evenodd" fill-opacity="1" stroke="#000000" stroke-opacity="1" stroke-width="3.2"/>
<circle clip-path="url(#clip031)" cx="300.596" cy="1404.91" r="14.4" fill="#009af9" fill-rule="evenodd" fill-opacity="1" stroke="#000000" stroke-opacity="1" stroke-width="3.2"/>
<circle clip-path="url(#clip031)" cx="1944.26" cy="367.132" r="14.4" fill="#009af9" fill-rule="evenodd" fill-opacity="1" stroke="#000000" stroke-opacity="1" stroke-width="3.2"/>
<circle clip-path="url(#clip031)" cx="536.892" cy="1247.91" r="14.4" fill="#009af9" fill-rule="evenodd" fill-opacity="1" stroke="#000000" stroke-opacity="1" stroke-width="3.2"/>
<circle clip-path="url(#clip031)" cx="809.746" cy="1114.68" r="14.4" fill="#009af9" fill-rule="evenodd" fill-opacity="1" stroke="#000000" stroke-opacity="1" stroke-width="3.2"/>
<circle clip-path="url(#clip031)" cx="911.757" cy="967.133" r="14.4" fill="#009af9" fill-rule="evenodd" fill-opacity="1" stroke="#000000" stroke-opacity="1" stroke-width="3.2"/>
<circle clip-path="url(#clip031)" cx="1488.43" cy="611.446" r="14.4" fill="#009af9" fill-rule="evenodd" fill-opacity="1" stroke="#000000" stroke-opacity="1" stroke-width="3.2"/>
<circle clip-path="url(#clip031)" cx="2289.45" cy="175.766" r="14.4" fill="#009af9" fill-rule="evenodd" fill-opacity="1" stroke="#000000" stroke-opacity="1" stroke-width="3.2"/>
<circle clip-path="url(#clip031)" cx="1834.57" cy="452.772" r="14.4" fill="#009af9" fill-rule="evenodd" fill-opacity="1" stroke="#000000" stroke-opacity="1" stroke-width="3.2"/>
<circle clip-path="url(#clip031)" cx="904.574" cy="1041.48" r="14.4" fill="#009af9" fill-rule="evenodd" fill-opacity="1" stroke="#000000" stroke-opacity="1" stroke-width="3.2"/>
<circle clip-path="url(#clip031)" cx="403.46" cy="1288.66" r="14.4" fill="#009af9" fill-rule="evenodd" fill-opacity="1" stroke="#000000" stroke-opacity="1" stroke-width="3.2"/>
<circle clip-path="url(#clip031)" cx="2046.43" cy="261.82" r="14.4" fill="#009af9" fill-rule="evenodd" fill-opacity="1" stroke="#000000" stroke-opacity="1" stroke-width="3.2"/>
<circle clip-path="url(#clip031)" cx="575.804" cy="1234.65" r="14.4" fill="#009af9" fill-rule="evenodd" fill-opacity="1" stroke="#000000" stroke-opacity="1" stroke-width="3.2"/>
<circle clip-path="url(#clip031)" cx="970.933" cy="989.174" r="14.4" fill="#009af9" fill-rule="evenodd" fill-opacity="1" stroke="#000000" stroke-opacity="1" stroke-width="3.2"/>
<circle clip-path="url(#clip031)" cx="1449.95" cy="672.224" r="14.4" fill="#009af9" fill-rule="evenodd" fill-opacity="1" stroke="#000000" stroke-opacity="1" stroke-width="3.2"/>
<circle clip-path="url(#clip031)" cx="992.068" cy="927.218" r="14.4" fill="#009af9" fill-rule="evenodd" fill-opacity="1" stroke="#000000" stroke-opacity="1" stroke-width="3.2"/>
<circle clip-path="url(#clip031)" cx="1051.24" cy="882.199" r="14.4" fill="#009af9" fill-rule="evenodd" fill-opacity="1" stroke="#000000" stroke-opacity="1" stroke-width="3.2"/>
<circle clip-path="url(#clip031)" cx="962.479" cy="984.165" r="14.4" fill="#009af9" fill-rule="evenodd" fill-opacity="1" stroke="#000000" stroke-opacity="1" stroke-width="3.2"/>
<circle clip-path="url(#clip031)" cx="1256.09" cy="821.605" r="14.4" fill="#009af9" fill-rule="evenodd" fill-opacity="1" stroke="#000000" stroke-opacity="1" stroke-width="3.2"/>
<circle clip-path="url(#clip031)" cx="421.368" cy="1313.35" r="14.4" fill="#009af9" fill-rule="evenodd" fill-opacity="1" stroke="#000000" stroke-opacity="1" stroke-width="3.2"/>
<circle clip-path="url(#clip031)" cx="717.941" cy="1108.97" r="14.4" fill="#009af9" fill-rule="evenodd" fill-opacity="1" stroke="#000000" stroke-opacity="1" stroke-width="3.2"/>
<circle clip-path="url(#clip031)" cx="300.215" cy="1405.91" r="14.4" fill="#009af9" fill-rule="evenodd" fill-opacity="1" stroke="#000000" stroke-opacity="1" stroke-width="3.2"/>
<circle clip-path="url(#clip031)" cx="1610.08" cy="540.975" r="14.4" fill="#009af9" fill-rule="evenodd" fill-opacity="1" stroke="#000000" stroke-opacity="1" stroke-width="3.2"/>
<circle clip-path="url(#clip031)" cx="1013.2" cy="936.59" r="14.4" fill="#009af9" fill-rule="evenodd" fill-opacity="1" stroke="#000000" stroke-opacity="1" stroke-width="3.2"/>
<circle clip-path="url(#clip031)" cx="1995.75" cy="327.518" r="14.4" fill="#009af9" fill-rule="evenodd" fill-opacity="1" stroke="#000000" stroke-opacity="1" stroke-width="3.2"/>
<circle clip-path="url(#clip031)" cx="949.108" cy="960.048" r="14.4" fill="#009af9" fill-rule="evenodd" fill-opacity="1" stroke="#000000" stroke-opacity="1" stroke-width="3.2"/>
<circle clip-path="url(#clip031)" cx="945.572" cy="979.442" r="14.4" fill="#009af9" fill-rule="evenodd" fill-opacity="1" stroke="#000000" stroke-opacity="1" stroke-width="3.2"/>
<circle clip-path="url(#clip031)" cx="886.395" cy="1010.6" r="14.4" fill="#009af9" fill-rule="evenodd" fill-opacity="1" stroke="#000000" stroke-opacity="1" stroke-width="3.2"/>
<circle clip-path="url(#clip031)" cx="920.21" cy="1029.97" r="14.4" fill="#009af9" fill-rule="evenodd" fill-opacity="1" stroke="#000000" stroke-opacity="1" stroke-width="3.2"/>
<circle clip-path="url(#clip031)" cx="378.596" cy="1333.49" r="14.4" fill="#009af9" fill-rule="evenodd" fill-opacity="1" stroke="#000000" stroke-opacity="1" stroke-width="3.2"/>
<circle clip-path="url(#clip031)" cx="1021.66" cy="958.469" r="14.4" fill="#009af9" fill-rule="evenodd" fill-opacity="1" stroke="#000000" stroke-opacity="1" stroke-width="3.2"/>
<circle clip-path="url(#clip031)" cx="932.891" cy="993.614" r="14.4" fill="#009af9" fill-rule="evenodd" fill-opacity="1" stroke="#000000" stroke-opacity="1" stroke-width="3.2"/>
<circle clip-path="url(#clip031)" cx="941.345" cy="973.067" r="14.4" fill="#009af9" fill-rule="evenodd" fill-opacity="1" stroke="#000000" stroke-opacity="1" stroke-width="3.2"/>
<circle clip-path="url(#clip031)" cx="958.252" cy="999.552" r="14.4" fill="#009af9" fill-rule="evenodd" fill-opacity="1" stroke="#000000" stroke-opacity="1" stroke-width="3.2"/>
<circle clip-path="url(#clip031)" cx="382.631" cy="1357.85" r="14.4" fill="#009af9" fill-rule="evenodd" fill-opacity="1" stroke="#000000" stroke-opacity="1" stroke-width="3.2"/>
<circle clip-path="url(#clip031)" cx="1620.96" cy="589.828" r="14.4" fill="#009af9" fill-rule="evenodd" fill-opacity="1" stroke="#000000" stroke-opacity="1" stroke-width="3.2"/>
<circle clip-path="url(#clip031)" cx="2146.77" cy="271.991" r="14.4" fill="#009af9" fill-rule="evenodd" fill-opacity="1" stroke="#000000" stroke-opacity="1" stroke-width="3.2"/>
<circle clip-path="url(#clip031)" cx="1942.73" cy="347.218" r="14.4" fill="#009af9" fill-rule="evenodd" fill-opacity="1" stroke="#000000" stroke-opacity="1" stroke-width="3.2"/>
<circle clip-path="url(#clip031)" cx="2275.19" cy="199.171" r="14.4" fill="#009af9" fill-rule="evenodd" fill-opacity="1" stroke="#000000" stroke-opacity="1" stroke-width="3.2"/>
<circle clip-path="url(#clip031)" cx="730.649" cy="1101.14" r="14.4" fill="#009af9" fill-rule="evenodd" fill-opacity="1" stroke="#000000" stroke-opacity="1" stroke-width="3.2"/>
<circle clip-path="url(#clip031)" cx="1341.14" cy="713.744" r="14.4" fill="#009af9" fill-rule="evenodd" fill-opacity="1" stroke="#000000" stroke-opacity="1" stroke-width="3.2"/>
<circle clip-path="url(#clip031)" cx="265.251" cy="1423.18" r="14.4" fill="#009af9" fill-rule="evenodd" fill-opacity="1" stroke="#000000" stroke-opacity="1" stroke-width="3.2"/>
<circle clip-path="url(#clip031)" cx="894.849" cy="1058.31" r="14.4" fill="#009af9" fill-rule="evenodd" fill-opacity="1" stroke="#000000" stroke-opacity="1" stroke-width="3.2"/>
<circle clip-path="url(#clip031)" cx="1993.43" cy="325.012" r="14.4" fill="#009af9" fill-rule="evenodd" fill-opacity="1" stroke="#000000" stroke-opacity="1" stroke-width="3.2"/>
<circle clip-path="url(#clip031)" cx="939.394" cy="991.694" r="14.4" fill="#009af9" fill-rule="evenodd" fill-opacity="1" stroke="#000000" stroke-opacity="1" stroke-width="3.2"/>
<circle clip-path="url(#clip031)" cx="928.115" cy="998.977" r="14.4" fill="#009af9" fill-rule="evenodd" fill-opacity="1" stroke="#000000" stroke-opacity="1" stroke-width="3.2"/>
<circle clip-path="url(#clip031)" cx="308.647" cy="1352.2" r="14.4" fill="#009af9" fill-rule="evenodd" fill-opacity="1" stroke="#000000" stroke-opacity="1" stroke-width="3.2"/>
<circle clip-path="url(#clip031)" cx="2059.56" cy="252.797" r="14.4" fill="#009af9" fill-rule="evenodd" fill-opacity="1" stroke="#000000" stroke-opacity="1" stroke-width="3.2"/>
<circle clip-path="url(#clip031)" cx="577.397" cy="1218.22" r="14.4" fill="#009af9" fill-rule="evenodd" fill-opacity="1" stroke="#000000" stroke-opacity="1" stroke-width="3.2"/>
<circle clip-path="url(#clip031)" cx="996.295" cy="954.134" r="14.4" fill="#009af9" fill-rule="evenodd" fill-opacity="1" stroke="#000000" stroke-opacity="1" stroke-width="3.2"/>
<circle clip-path="url(#clip031)" cx="355.61" cy="1390.08" r="14.4" fill="#009af9" fill-rule="evenodd" fill-opacity="1" stroke="#000000" stroke-opacity="1" stroke-width="3.2"/>
<circle clip-path="url(#clip031)" cx="949.799" cy="1041.41" r="14.4" fill="#009af9" fill-rule="evenodd" fill-opacity="1" stroke="#000000" stroke-opacity="1" stroke-width="3.2"/>
<circle clip-path="url(#clip031)" cx="2196.95" cy="193.076" r="14.4" fill="#009af9" fill-rule="evenodd" fill-opacity="1" stroke="#000000" stroke-opacity="1" stroke-width="3.2"/>
<circle clip-path="url(#clip031)" cx="1035.8" cy="933.456" r="14.4" fill="#009af9" fill-rule="evenodd" fill-opacity="1" stroke="#000000" stroke-opacity="1" stroke-width="3.2"/>
<circle clip-path="url(#clip031)" cx="924.437" cy="1013.73" r="14.4" fill="#009af9" fill-rule="evenodd" fill-opacity="1" stroke="#000000" stroke-opacity="1" stroke-width="3.2"/>
<circle clip-path="url(#clip031)" cx="915.984" cy="981.648" r="14.4" fill="#009af9" fill-rule="evenodd" fill-opacity="1" stroke="#000000" stroke-opacity="1" stroke-width="3.2"/>
<circle clip-path="url(#clip031)" cx="899.076" cy="1039.74" r="14.4" fill="#009af9" fill-rule="evenodd" fill-opacity="1" stroke="#000000" stroke-opacity="1" stroke-width="3.2"/>
<circle clip-path="url(#clip031)" cx="1089.85" cy="903.751" r="14.4" fill="#009af9" fill-rule="evenodd" fill-opacity="1" stroke="#000000" stroke-opacity="1" stroke-width="3.2"/>
<circle clip-path="url(#clip031)" cx="857.37" cy="1040.94" r="14.4" fill="#009af9" fill-rule="evenodd" fill-opacity="1" stroke="#000000" stroke-opacity="1" stroke-width="3.2"/>
<circle clip-path="url(#clip031)" cx="1008.98" cy="915.479" r="14.4" fill="#009af9" fill-rule="evenodd" fill-opacity="1" stroke="#000000" stroke-opacity="1" stroke-width="3.2"/>
<circle clip-path="url(#clip031)" cx="1017.43" cy="921.013" r="14.4" fill="#009af9" fill-rule="evenodd" fill-opacity="1" stroke="#000000" stroke-opacity="1" stroke-width="3.2"/>
<circle clip-path="url(#clip031)" cx="1880.58" cy="395.83" r="14.4" fill="#009af9" fill-rule="evenodd" fill-opacity="1" stroke="#000000" stroke-opacity="1" stroke-width="3.2"/>
<circle clip-path="url(#clip031)" cx="975.16" cy="967.251" r="14.4" fill="#009af9" fill-rule="evenodd" fill-opacity="1" stroke="#000000" stroke-opacity="1" stroke-width="3.2"/>
<circle clip-path="url(#clip031)" cx="1042.79" cy="972.75" r="14.4" fill="#009af9" fill-rule="evenodd" fill-opacity="1" stroke="#000000" stroke-opacity="1" stroke-width="3.2"/>
<circle clip-path="url(#clip031)" cx="907.53" cy="1018.95" r="14.4" fill="#009af9" fill-rule="evenodd" fill-opacity="1" stroke="#000000" stroke-opacity="1" stroke-width="3.2"/>
<circle clip-path="url(#clip031)" cx="434.607" cy="1294.5" r="14.4" fill="#009af9" fill-rule="evenodd" fill-opacity="1" stroke="#000000" stroke-opacity="1" stroke-width="3.2"/>
<circle clip-path="url(#clip031)" cx="2291.95" cy="123.472" r="14.4" fill="#009af9" fill-rule="evenodd" fill-opacity="1" stroke="#000000" stroke-opacity="1" stroke-width="3.2"/>
<circle clip-path="url(#clip031)" cx="1034.34" cy="952.218" r="14.4" fill="#009af9" fill-rule="evenodd" fill-opacity="1" stroke="#000000" stroke-opacity="1" stroke-width="3.2"/>
<circle clip-path="url(#clip031)" cx="928.664" cy="990.743" r="14.4" fill="#009af9" fill-rule="evenodd" fill-opacity="1" stroke="#000000" stroke-opacity="1" stroke-width="3.2"/>
<circle clip-path="url(#clip031)" cx="908.744" cy="1103.29" r="14.4" fill="#009af9" fill-rule="evenodd" fill-opacity="1" stroke="#000000" stroke-opacity="1" stroke-width="3.2"/>
<circle clip-path="url(#clip031)" cx="890.622" cy="1027.83" r="14.4" fill="#009af9" fill-rule="evenodd" fill-opacity="1" stroke="#000000" stroke-opacity="1" stroke-width="3.2"/>
<circle clip-path="url(#clip031)" cx="737.674" cy="1112.91" r="14.4" fill="#009af9" fill-rule="evenodd" fill-opacity="1" stroke="#000000" stroke-opacity="1" stroke-width="3.2"/>
<circle clip-path="url(#clip031)" cx="1047.02" cy="886.007" r="14.4" fill="#009af9" fill-rule="evenodd" fill-opacity="1" stroke="#000000" stroke-opacity="1" stroke-width="3.2"/>
<circle clip-path="url(#clip031)" cx="987.841" cy="972.278" r="14.4" fill="#009af9" fill-rule="evenodd" fill-opacity="1" stroke="#000000" stroke-opacity="1" stroke-width="3.2"/>
<circle clip-path="url(#clip031)" cx="1000.52" cy="912.141" r="14.4" fill="#009af9" fill-rule="evenodd" fill-opacity="1" stroke="#000000" stroke-opacity="1" stroke-width="3.2"/>
<circle clip-path="url(#clip031)" cx="1322.36" cy="711.956" r="14.4" fill="#009af9" fill-rule="evenodd" fill-opacity="1" stroke="#000000" stroke-opacity="1" stroke-width="3.2"/>
<circle clip-path="url(#clip031)" cx="1025.88" cy="899.467" r="14.4" fill="#009af9" fill-rule="evenodd" fill-opacity="1" stroke="#000000" stroke-opacity="1" stroke-width="3.2"/>
<circle clip-path="url(#clip031)" cx="788.755" cy="1073.39" r="14.4" fill="#009af9" fill-rule="evenodd" fill-opacity="1" stroke="#000000" stroke-opacity="1" stroke-width="3.2"/>
<circle clip-path="url(#clip031)" cx="954.026" cy="995.104" r="14.4" fill="#009af9" fill-rule="evenodd" fill-opacity="1" stroke="#000000" stroke-opacity="1" stroke-width="3.2"/>
<circle clip-path="url(#clip031)" cx="2013.82" cy="348.352" r="14.4" fill="#009af9" fill-rule="evenodd" fill-opacity="1" stroke="#000000" stroke-opacity="1" stroke-width="3.2"/>
<circle clip-path="url(#clip031)" cx="418.117" cy="1288.96" r="14.4" fill="#009af9" fill-rule="evenodd" fill-opacity="1" stroke="#000000" stroke-opacity="1" stroke-width="3.2"/>
<circle clip-path="url(#clip031)" cx="1040.37" cy="886.949" r="14.4" fill="#009af9" fill-rule="evenodd" fill-opacity="1" stroke="#000000" stroke-opacity="1" stroke-width="3.2"/>
<circle clip-path="url(#clip031)" cx="906.545" cy="1035.34" r="14.4" fill="#009af9" fill-rule="evenodd" fill-opacity="1" stroke="#000000" stroke-opacity="1" stroke-width="3.2"/>
<circle clip-path="url(#clip031)" cx="2135.79" cy="216.939" r="14.4" fill="#009af9" fill-rule="evenodd" fill-opacity="1" stroke="#000000" stroke-opacity="1" stroke-width="3.2"/>
<circle clip-path="url(#clip031)" cx="1424.28" cy="729.865" r="14.4" fill="#009af9" fill-rule="evenodd" fill-opacity="1" stroke="#000000" stroke-opacity="1" stroke-width="3.2"/>
<circle clip-path="url(#clip031)" cx="979.387" cy="963.821" r="14.4" fill="#009af9" fill-rule="evenodd" fill-opacity="1" stroke="#000000" stroke-opacity="1" stroke-width="3.2"/>
<circle clip-path="url(#clip031)" cx="1745.3" cy="486.901" r="14.4" fill="#009af9" fill-rule="evenodd" fill-opacity="1" stroke="#000000" stroke-opacity="1" stroke-width="3.2"/>
<circle clip-path="url(#clip031)" cx="983.614" cy="973.275" r="14.4" fill="#009af9" fill-rule="evenodd" fill-opacity="1" stroke="#000000" stroke-opacity="1" stroke-width="3.2"/>
<circle clip-path="url(#clip031)" cx="1573.93" cy="563.045" r="14.4" fill="#009af9" fill-rule="evenodd" fill-opacity="1" stroke="#000000" stroke-opacity="1" stroke-width="3.2"/>
<circle clip-path="url(#clip031)" cx="937.118" cy="1043.5" r="14.4" fill="#009af9" fill-rule="evenodd" fill-opacity="1" stroke="#000000" stroke-opacity="1" stroke-width="3.2"/>
<circle clip-path="url(#clip031)" cx="1004.75" cy="920.992" r="14.4" fill="#009af9" fill-rule="evenodd" fill-opacity="1" stroke="#000000" stroke-opacity="1" stroke-width="3.2"/>
<circle clip-path="url(#clip031)" cx="1030.11" cy="930.147" r="14.4" fill="#009af9" fill-rule="evenodd" fill-opacity="1" stroke="#000000" stroke-opacity="1" stroke-width="3.2"/>
<circle clip-path="url(#clip031)" cx="982.187" cy="968.65" r="14.4" fill="#009af9" fill-rule="evenodd" fill-opacity="1" stroke="#000000" stroke-opacity="1" stroke-width="3.2"/>
<path clip-path="url(#clip030)" d="M276.06 270.476 L793.227 270.476 L793.227 166.796 L276.06 166.796  Z" fill="#ffffff" fill-rule="evenodd" fill-opacity="1"/>
<polyline clip-path="url(#clip030)" style="stroke:#000000; stroke-linecap:round; stroke-linejoin:round; stroke-width:4; stroke-opacity:1; fill:none" points="276.06,270.476 793.227,270.476 793.227,166.796 276.06,166.796 276.06,270.476 "/>
<circle clip-path="url(#clip030)" cx="371.54" cy="218.636" r="20.48" fill="#009af9" fill-rule="evenodd" fill-opacity="1" stroke="#000000" stroke-opacity="1" stroke-width="4.55111"/>
<path clip-path="url(#clip030)" d="M467.02 201.356 L473.988 201.356 L482.807 224.874 L491.673 201.356 L498.641 201.356 L498.641 235.916 L494.08 235.916 L494.08 205.569 L485.168 229.272 L480.469 229.272 L471.557 205.569 L471.557 235.916 L467.02 235.916 L467.02 201.356 Z" fill="#000000" fill-rule="nonzero" fill-opacity="1" /><path clip-path="url(#clip030)" d="M507.923 201.356 L512.599 201.356 L512.599 215.962 L528.108 201.356 L534.127 201.356 L516.974 217.467 L535.353 235.916 L529.196 235.916 L512.599 219.272 L512.599 235.916 L507.923 235.916 L507.923 201.356 Z" fill="#000000" fill-rule="nonzero" fill-opacity="1" /><path clip-path="url(#clip030)" d="M553.594 217.282 Q556.951 217.999 558.826 220.268 Q560.724 222.536 560.724 225.869 Q560.724 230.985 557.205 233.786 Q553.687 236.587 547.205 236.587 Q545.029 236.587 542.714 236.147 Q540.423 235.731 537.969 234.874 L537.969 230.36 Q539.914 231.494 542.228 232.073 Q544.543 232.652 547.066 232.652 Q551.464 232.652 553.756 230.916 Q556.071 229.18 556.071 225.869 Q556.071 222.814 553.918 221.101 Q551.789 219.365 547.969 219.365 L543.941 219.365 L543.941 215.522 L548.154 215.522 Q551.603 215.522 553.432 214.157 Q555.261 212.768 555.261 210.175 Q555.261 207.513 553.363 206.101 Q551.488 204.666 547.969 204.666 Q546.048 204.666 543.849 205.083 Q541.65 205.499 539.011 206.379 L539.011 202.212 Q541.673 201.471 543.988 201.101 Q546.326 200.731 548.386 200.731 Q553.71 200.731 556.812 203.161 Q559.913 205.569 559.913 209.689 Q559.913 212.559 558.27 214.55 Q556.626 216.518 553.594 217.282 Z" fill="#000000" fill-rule="nonzero" fill-opacity="1" /><path clip-path="url(#clip030)" d="M570.075 230.036 L574.96 230.036 L574.96 234.018 L571.163 241.425 L568.177 241.425 L570.075 234.018 L570.075 230.036 Z" fill="#000000" fill-rule="nonzero" fill-opacity="1" /><path clip-path="url(#clip030)" d="M617.737 222.976 Q617.737 218.277 615.793 215.615 Q613.872 212.93 610.492 212.93 Q607.112 212.93 605.168 215.615 Q603.247 218.277 603.247 222.976 Q603.247 227.675 605.168 230.36 Q607.112 233.022 610.492 233.022 Q613.872 233.022 615.793 230.36 Q617.737 227.675 617.737 222.976 M603.247 213.925 Q604.589 211.61 606.626 210.499 Q608.686 209.365 611.534 209.365 Q616.256 209.365 619.196 213.115 Q622.159 216.865 622.159 222.976 Q622.159 229.087 619.196 232.837 Q616.256 236.587 611.534 236.587 Q608.686 236.587 606.626 235.476 Q604.589 234.342 603.247 232.027 L603.247 235.916 L598.964 235.916 L598.964 199.897 L603.247 199.897 L603.247 213.925 Z" fill="#000000" fill-rule="nonzero" fill-opacity="1" /><path clip-path="url(#clip030)" d="M641.001 222.883 Q635.839 222.883 633.848 224.064 Q631.858 225.244 631.858 228.092 Q631.858 230.36 633.339 231.703 Q634.844 233.022 637.413 233.022 Q640.955 233.022 643.084 230.522 Q645.237 227.999 645.237 223.832 L645.237 222.883 L641.001 222.883 M649.496 221.124 L649.496 235.916 L645.237 235.916 L645.237 231.981 Q643.779 234.342 641.603 235.476 Q639.427 236.587 636.279 236.587 Q632.297 236.587 629.936 234.365 Q627.598 232.119 627.598 228.369 Q627.598 223.994 630.515 221.772 Q633.455 219.55 639.265 219.55 L645.237 219.55 L645.237 219.133 Q645.237 216.194 643.293 214.596 Q641.371 212.976 637.876 212.976 Q635.654 212.976 633.547 213.508 Q631.441 214.041 629.496 215.106 L629.496 211.17 Q631.834 210.268 634.033 209.828 Q636.232 209.365 638.316 209.365 Q643.941 209.365 646.719 212.282 Q649.496 215.198 649.496 221.124 Z" fill="#000000" fill-rule="nonzero" fill-opacity="1" /><path clip-path="url(#clip030)" d="M662.482 202.629 L662.482 209.99 L671.255 209.99 L671.255 213.3 L662.482 213.3 L662.482 227.374 Q662.482 230.545 663.339 231.448 Q664.218 232.351 666.88 232.351 L671.255 232.351 L671.255 235.916 L666.88 235.916 Q661.95 235.916 660.075 234.087 Q658.2 232.235 658.2 227.374 L658.2 213.3 L655.075 213.3 L655.075 209.99 L658.2 209.99 L658.2 202.629 L662.482 202.629 Z" fill="#000000" fill-rule="nonzero" fill-opacity="1" /><path clip-path="url(#clip030)" d="M695.515 210.985 L695.515 214.967 Q693.709 213.971 691.88 213.485 Q690.075 212.976 688.223 212.976 Q684.079 212.976 681.788 215.615 Q679.496 218.231 679.496 222.976 Q679.496 227.721 681.788 230.36 Q684.079 232.976 688.223 232.976 Q690.075 232.976 691.88 232.49 Q693.709 231.981 695.515 230.985 L695.515 234.92 Q693.732 235.754 691.811 236.17 Q689.913 236.587 687.76 236.587 Q681.904 236.587 678.454 232.906 Q675.005 229.226 675.005 222.976 Q675.005 216.633 678.478 212.999 Q681.973 209.365 688.038 209.365 Q690.005 209.365 691.88 209.782 Q693.755 210.175 695.515 210.985 Z" fill="#000000" fill-rule="nonzero" fill-opacity="1" /><path clip-path="url(#clip030)" d="M724.473 220.268 L724.473 235.916 L720.214 235.916 L720.214 220.407 Q720.214 216.726 718.778 214.897 Q717.343 213.069 714.473 213.069 Q711.024 213.069 709.033 215.268 Q707.042 217.467 707.042 221.263 L707.042 235.916 L702.76 235.916 L702.76 199.897 L707.042 199.897 L707.042 214.018 Q708.57 211.68 710.63 210.522 Q712.714 209.365 715.422 209.365 Q719.889 209.365 722.181 212.143 Q724.473 214.897 724.473 220.268 Z" fill="#000000" fill-rule="nonzero" fill-opacity="1" /><path clip-path="url(#clip030)" d="M749.449 231.981 L757.088 231.981 L757.088 205.615 L748.778 207.282 L748.778 203.022 L757.042 201.356 L761.718 201.356 L761.718 231.981 L769.357 231.981 L769.357 235.916 L749.449 235.916 L749.449 231.981 Z" fill="#000000" fill-rule="nonzero" fill-opacity="1" /></svg>
