<?xml version="1.0" encoding="utf-8"?>
<svg xmlns="http://www.w3.org/2000/svg" xmlns:xlink="http://www.w3.org/1999/xlink" width="600" height="400" viewBox="0 0 2400 1600">
<defs>
  <clipPath id="clip910">
    <rect x="0" y="0" width="2400" height="1600"/>
  </clipPath>
</defs>
<path clip-path="url(#clip910)" d="M0 1600 L2400 1600 L2400 0 L0 0  Z" fill="#ffffff" fill-rule="evenodd" fill-opacity="1"/>
<defs>
  <clipPath id="clip911">
    <rect x="242" y="123" width="2112" height="1301"/>
  </clipPath>
</defs>
<path clip-path="url(#clip910)" d="M272.297 1423.18 L2352.76 1423.18 L2352.76 123.472 L272.297 123.472  Z" fill="#ffffff" fill-rule="evenodd" fill-opacity="1"/>
<defs>
  <clipPath id="clip912">
    <rect x="272" y="123" width="2081" height="1301"/>
  </clipPath>
</defs>
<polyline clip-path="url(#clip912)" style="stroke:#000000; stroke-linecap:round; stroke-linejoin:round; stroke-width:2; stroke-opacity:0.1; fill:none" points="311.352,1423.18 311.352,123.472 "/>
<polyline clip-path="url(#clip912)" style="stroke:#000000; stroke-linecap:round; stroke-linejoin:round; stroke-width:2; stroke-opacity:0.1; fill:none" points="806.983,1423.18 806.983,123.472 "/>
<polyline clip-path="url(#clip912)" style="stroke:#000000; stroke-linecap:round; stroke-linejoin:round; stroke-width:2; stroke-opacity:0.1; fill:none" points="1302.61,1423.18 1302.61,123.472 "/>
<polyline clip-path="url(#clip912)" style="stroke:#000000; stroke-linecap:round; stroke-linejoin:round; stroke-width:2; stroke-opacity:0.1; fill:none" points="1798.24,1423.18 1798.24,123.472 "/>
<polyline clip-path="url(#clip912)" style="stroke:#000000; stroke-linecap:round; stroke-linejoin:round; stroke-width:2; stroke-opacity:0.1; fill:none" points="2293.87,1423.18 2293.87,123.472 "/>
<polyline clip-path="url(#clip912)" style="stroke:#000000; stroke-linecap:round; stroke-linejoin:round; stroke-width:2; stroke-opacity:0.1; fill:none" points="272.297,1377.47 2352.76,1377.47 "/>
<polyline clip-path="url(#clip912)" style="stroke:#000000; stroke-linecap:round; stroke-linejoin:round; stroke-width:2; stroke-opacity:0.1; fill:none" points="272.297,1075.36 2352.76,1075.36 "/>
<polyline clip-path="url(#clip912)" style="stroke:#000000; stroke-linecap:round; stroke-linejoin:round; stroke-width:2; stroke-opacity:0.1; fill:none" points="272.297,773.255 2352.76,773.255 "/>
<polyline clip-path="url(#clip912)" style="stroke:#000000; stroke-linecap:round; stroke-linejoin:round; stroke-width:2; stroke-opacity:0.1; fill:none" points="272.297,471.147 2352.76,471.147 "/>
<polyline clip-path="url(#clip912)" style="stroke:#000000; stroke-linecap:round; stroke-linejoin:round; stroke-width:2; stroke-opacity:0.1; fill:none" points="272.297,169.038 2352.76,169.038 "/>
<polyline clip-path="url(#clip910)" style="stroke:#000000; stroke-linecap:round; stroke-linejoin:round; stroke-width:4; stroke-opacity:1; fill:none" points="272.297,1423.18 2352.76,1423.18 "/>
<polyline clip-path="url(#clip910)" style="stroke:#000000; stroke-linecap:round; stroke-linejoin:round; stroke-width:4; stroke-opacity:1; fill:none" points="311.352,1423.18 311.352,1404.28 "/>
<polyline clip-path="url(#clip910)" style="stroke:#000000; stroke-linecap:round; stroke-linejoin:round; stroke-width:4; stroke-opacity:1; fill:none" points="806.983,1423.18 806.983,1404.28 "/>
<polyline clip-path="url(#clip910)" style="stroke:#000000; stroke-linecap:round; stroke-linejoin:round; stroke-width:4; stroke-opacity:1; fill:none" points="1302.61,1423.18 1302.61,1404.28 "/>
<polyline clip-path="url(#clip910)" style="stroke:#000000; stroke-linecap:round; stroke-linejoin:round; stroke-width:4; stroke-opacity:1; fill:none" points="1798.24,1423.18 1798.24,1404.28 "/>
<polyline clip-path="url(#clip910)" style="stroke:#000000; stroke-linecap:round; stroke-linejoin:round; stroke-width:4; stroke-opacity:1; fill:none" points="2293.87,1423.18 2293.87,1404.28 "/>
<path clip-path="url(#clip910)" d="M311.352 1454.1 Q307.741 1454.1 305.912 1457.66 Q304.107 1461.2 304.107 1468.33 Q304.107 1475.44 305.912 1479.01 Q307.741 1482.55 311.352 1482.55 Q314.986 1482.55 316.792 1479.01 Q318.621 1475.44 318.621 1468.33 Q318.621 1461.2 316.792 1457.66 Q314.986 1454.1 311.352 1454.1 M311.352 1450.39 Q317.162 1450.39 320.218 1455 Q323.297 1459.58 323.297 1468.33 Q323.297 1477.06 320.218 1481.67 Q317.162 1486.25 311.352 1486.25 Q305.542 1486.25 302.463 1481.67 Q299.408 1477.06 299.408 1468.33 Q299.408 1459.58 302.463 1455 Q305.542 1450.39 311.352 1450.39 Z" fill="#000000" fill-rule="nonzero" fill-opacity="1" /><path clip-path="url(#clip910)" d="M786.254 1481.64 L802.573 1481.64 L802.573 1485.58 L780.629 1485.58 L780.629 1481.64 Q783.291 1478.89 787.874 1474.26 Q792.481 1469.61 793.661 1468.27 Q795.907 1465.74 796.786 1464.01 Q797.689 1462.25 797.689 1460.56 Q797.689 1457.8 795.745 1456.07 Q793.823 1454.33 790.721 1454.33 Q788.522 1454.33 786.069 1455.09 Q783.638 1455.86 780.86 1457.41 L780.86 1452.69 Q783.684 1451.55 786.138 1450.97 Q788.592 1450.39 790.629 1450.39 Q795.999 1450.39 799.194 1453.08 Q802.388 1455.77 802.388 1460.26 Q802.388 1462.39 801.578 1464.31 Q800.791 1466.2 798.684 1468.8 Q798.106 1469.47 795.004 1472.69 Q791.902 1475.88 786.254 1481.64 Z" fill="#000000" fill-rule="nonzero" fill-opacity="1" /><path clip-path="url(#clip910)" d="M812.434 1451.02 L830.791 1451.02 L830.791 1454.96 L816.717 1454.96 L816.717 1463.43 Q817.735 1463.08 818.754 1462.92 Q819.772 1462.73 820.791 1462.73 Q826.578 1462.73 829.957 1465.9 Q833.337 1469.08 833.337 1474.49 Q833.337 1480.07 829.865 1483.17 Q826.393 1486.25 820.073 1486.25 Q817.897 1486.25 815.629 1485.88 Q813.383 1485.51 810.976 1484.77 L810.976 1480.07 Q813.059 1481.2 815.281 1481.76 Q817.504 1482.32 819.981 1482.32 Q823.985 1482.32 826.323 1480.21 Q828.661 1478.1 828.661 1474.49 Q828.661 1470.88 826.323 1468.77 Q823.985 1466.67 819.981 1466.67 Q818.106 1466.67 816.231 1467.08 Q814.379 1467.5 812.434 1468.38 L812.434 1451.02 Z" fill="#000000" fill-rule="nonzero" fill-opacity="1" /><path clip-path="url(#clip910)" d="M1277.31 1451.02 L1295.67 1451.02 L1295.67 1454.96 L1281.6 1454.96 L1281.6 1463.43 Q1282.61 1463.08 1283.63 1462.92 Q1284.65 1462.73 1285.67 1462.73 Q1291.46 1462.73 1294.84 1465.9 Q1298.22 1469.08 1298.22 1474.49 Q1298.22 1480.07 1294.74 1483.17 Q1291.27 1486.25 1284.95 1486.25 Q1282.78 1486.25 1280.51 1485.88 Q1278.26 1485.51 1275.85 1484.77 L1275.85 1480.07 Q1277.94 1481.2 1280.16 1481.76 Q1282.38 1482.32 1284.86 1482.32 Q1288.86 1482.32 1291.2 1480.21 Q1293.54 1478.1 1293.54 1474.49 Q1293.54 1470.88 1291.2 1468.77 Q1288.86 1466.67 1284.86 1466.67 Q1282.98 1466.67 1281.11 1467.08 Q1279.26 1467.5 1277.31 1468.38 L1277.31 1451.02 Z" fill="#000000" fill-rule="nonzero" fill-opacity="1" /><path clip-path="url(#clip910)" d="M1317.43 1454.1 Q1313.82 1454.1 1311.99 1457.66 Q1310.18 1461.2 1310.18 1468.33 Q1310.18 1475.44 1311.99 1479.01 Q1313.82 1482.55 1317.43 1482.55 Q1321.06 1482.55 1322.87 1479.01 Q1324.7 1475.44 1324.7 1468.33 Q1324.7 1461.2 1322.87 1457.66 Q1321.06 1454.1 1317.43 1454.1 M1317.43 1450.39 Q1323.24 1450.39 1326.29 1455 Q1329.37 1459.58 1329.37 1468.33 Q1329.37 1477.06 1326.29 1481.67 Q1323.24 1486.25 1317.43 1486.25 Q1311.62 1486.25 1308.54 1481.67 Q1305.48 1477.06 1305.48 1468.33 Q1305.48 1459.58 1308.54 1455 Q1311.62 1450.39 1317.43 1450.39 Z" fill="#000000" fill-rule="nonzero" fill-opacity="1" /><path clip-path="url(#clip910)" d="M1772.1 1451.02 L1794.32 1451.02 L1794.32 1453.01 L1781.77 1485.58 L1776.89 1485.58 L1788.7 1454.96 L1772.1 1454.96 L1772.1 1451.02 Z" fill="#000000" fill-rule="nonzero" fill-opacity="1" /><path clip-path="url(#clip910)" d="M1803.49 1451.02 L1821.84 1451.02 L1821.84 1454.96 L1807.77 1454.96 L1807.77 1463.43 Q1808.79 1463.08 1809.81 1462.92 Q1810.83 1462.73 1811.84 1462.73 Q1817.63 1462.73 1821.01 1465.9 Q1824.39 1469.08 1824.39 1474.49 Q1824.39 1480.07 1820.92 1483.17 Q1817.45 1486.25 1811.13 1486.25 Q1808.95 1486.25 1806.68 1485.88 Q1804.44 1485.51 1802.03 1484.77 L1802.03 1480.07 Q1804.11 1481.2 1806.33 1481.76 Q1808.56 1482.32 1811.03 1482.32 Q1815.04 1482.32 1817.38 1480.21 Q1819.71 1478.1 1819.71 1474.49 Q1819.71 1470.88 1817.38 1468.77 Q1815.04 1466.67 1811.03 1466.67 Q1809.16 1466.67 1807.28 1467.08 Q1805.43 1467.5 1803.49 1468.38 L1803.49 1451.02 Z" fill="#000000" fill-rule="nonzero" fill-opacity="1" /><path clip-path="url(#clip910)" d="M2253.48 1481.64 L2261.12 1481.64 L2261.12 1455.28 L2252.81 1456.95 L2252.81 1452.69 L2261.07 1451.02 L2265.75 1451.02 L2265.75 1481.64 L2273.39 1481.64 L2273.39 1485.58 L2253.48 1485.58 L2253.48 1481.64 Z" fill="#000000" fill-rule="nonzero" fill-opacity="1" /><path clip-path="url(#clip910)" d="M2292.83 1454.1 Q2289.22 1454.1 2287.39 1457.66 Q2285.59 1461.2 2285.59 1468.33 Q2285.59 1475.44 2287.39 1479.01 Q2289.22 1482.55 2292.83 1482.55 Q2296.47 1482.55 2298.27 1479.01 Q2300.1 1475.44 2300.1 1468.33 Q2300.1 1461.2 2298.27 1457.66 Q2296.47 1454.1 2292.83 1454.1 M2292.83 1450.39 Q2298.64 1450.39 2301.7 1455 Q2304.78 1459.58 2304.78 1468.33 Q2304.78 1477.06 2301.7 1481.67 Q2298.64 1486.25 2292.83 1486.25 Q2287.02 1486.25 2283.94 1481.67 Q2280.89 1477.06 2280.89 1468.33 Q2280.89 1459.58 2283.94 1455 Q2287.02 1450.39 2292.83 1450.39 Z" fill="#000000" fill-rule="nonzero" fill-opacity="1" /><path clip-path="url(#clip910)" d="M2323 1454.1 Q2319.38 1454.1 2317.56 1457.66 Q2315.75 1461.2 2315.75 1468.33 Q2315.75 1475.44 2317.56 1479.01 Q2319.38 1482.55 2323 1482.55 Q2326.63 1482.55 2328.43 1479.01 Q2330.26 1475.44 2330.26 1468.33 Q2330.26 1461.2 2328.43 1457.66 Q2326.63 1454.1 2323 1454.1 M2323 1450.39 Q2328.81 1450.39 2331.86 1455 Q2334.94 1459.58 2334.94 1468.33 Q2334.94 1477.06 2331.86 1481.67 Q2328.81 1486.25 2323 1486.25 Q2317.19 1486.25 2314.11 1481.67 Q2311.05 1477.06 2311.05 1468.33 Q2311.05 1459.58 2314.11 1455 Q2317.19 1450.39 2323 1450.39 Z" fill="#000000" fill-rule="nonzero" fill-opacity="1" /><path clip-path="url(#clip910)" d="M1245.99 1525.81 L1245.99 1562.76 L1253.75 1562.76 Q1263.59 1562.76 1268.14 1558.3 Q1272.72 1553.85 1272.72 1544.24 Q1272.72 1534.69 1268.14 1530.26 Q1263.59 1525.81 1253.75 1525.81 L1245.99 1525.81 M1239.56 1520.52 L1252.77 1520.52 Q1266.58 1520.52 1273.04 1526.28 Q1279.5 1532.01 1279.5 1544.24 Q1279.5 1556.52 1273.01 1562.28 Q1266.52 1568.04 1252.77 1568.04 L1239.56 1568.04 L1239.56 1520.52 Z" fill="#000000" fill-rule="nonzero" fill-opacity="1" /><path clip-path="url(#clip910)" d="M1305.7 1550.12 Q1298.6 1550.12 1295.86 1551.75 Q1293.13 1553.37 1293.13 1557.29 Q1293.13 1560.4 1295.16 1562.25 Q1297.23 1564.07 1300.77 1564.07 Q1305.64 1564.07 1308.56 1560.63 Q1311.52 1557.16 1311.52 1551.43 L1311.52 1550.12 L1305.7 1550.12 M1317.38 1547.71 L1317.38 1568.04 L1311.52 1568.04 L1311.52 1562.63 Q1309.52 1565.88 1306.53 1567.44 Q1303.53 1568.97 1299.21 1568.97 Q1293.73 1568.97 1290.48 1565.91 Q1287.27 1562.82 1287.27 1557.67 Q1287.27 1551.65 1291.28 1548.6 Q1295.32 1545.54 1303.31 1545.54 L1311.52 1545.54 L1311.52 1544.97 Q1311.52 1540.93 1308.85 1538.73 Q1306.21 1536.5 1301.4 1536.5 Q1298.35 1536.5 1295.45 1537.23 Q1292.55 1537.97 1289.88 1539.43 L1289.88 1534.02 Q1293.09 1532.78 1296.12 1532.17 Q1299.14 1531.54 1302.01 1531.54 Q1309.74 1531.54 1313.56 1535.55 Q1317.38 1539.56 1317.38 1547.71 Z" fill="#000000" fill-rule="nonzero" fill-opacity="1" /><path clip-path="url(#clip910)" d="M1335.24 1522.27 L1335.24 1532.4 L1347.3 1532.4 L1347.3 1536.95 L1335.24 1536.95 L1335.24 1556.3 Q1335.24 1560.66 1336.41 1561.9 Q1337.62 1563.14 1341.28 1563.14 L1347.3 1563.14 L1347.3 1568.04 L1341.28 1568.04 Q1334.5 1568.04 1331.93 1565.53 Q1329.35 1562.98 1329.35 1556.3 L1329.35 1536.95 L1325.05 1536.95 L1325.05 1532.4 L1329.35 1532.4 L1329.35 1522.27 L1335.24 1522.27 Z" fill="#000000" fill-rule="nonzero" fill-opacity="1" /><path clip-path="url(#clip910)" d="M1385.49 1548.76 L1385.49 1551.62 L1358.57 1551.62 Q1358.95 1557.67 1362.19 1560.85 Q1365.47 1564 1371.3 1564 Q1374.67 1564 1377.82 1563.17 Q1381.01 1562.35 1384.12 1560.69 L1384.12 1566.23 Q1380.97 1567.57 1377.66 1568.27 Q1374.35 1568.97 1370.95 1568.97 Q1362.42 1568.97 1357.42 1564 Q1352.46 1559.04 1352.46 1550.57 Q1352.46 1541.82 1357.17 1536.69 Q1361.91 1531.54 1369.93 1531.54 Q1377.12 1531.54 1381.29 1536.18 Q1385.49 1540.8 1385.49 1548.76 M1379.64 1547.04 Q1379.57 1542.23 1376.93 1539.37 Q1374.32 1536.5 1369.99 1536.5 Q1365.09 1536.5 1362.13 1539.27 Q1359.2 1542.04 1358.76 1547.07 L1379.64 1547.04 Z" fill="#000000" fill-rule="nonzero" fill-opacity="1" /><polyline clip-path="url(#clip910)" style="stroke:#000000; stroke-linecap:round; stroke-linejoin:round; stroke-width:4; stroke-opacity:1; fill:none" points="272.297,1423.18 272.297,123.472 "/>
<polyline clip-path="url(#clip910)" style="stroke:#000000; stroke-linecap:round; stroke-linejoin:round; stroke-width:4; stroke-opacity:1; fill:none" points="272.297,1377.47 291.194,1377.47 "/>
<polyline clip-path="url(#clip910)" style="stroke:#000000; stroke-linecap:round; stroke-linejoin:round; stroke-width:4; stroke-opacity:1; fill:none" points="272.297,1075.36 291.194,1075.36 "/>
<polyline clip-path="url(#clip910)" style="stroke:#000000; stroke-linecap:round; stroke-linejoin:round; stroke-width:4; stroke-opacity:1; fill:none" points="272.297,773.255 291.194,773.255 "/>
<polyline clip-path="url(#clip910)" style="stroke:#000000; stroke-linecap:round; stroke-linejoin:round; stroke-width:4; stroke-opacity:1; fill:none" points="272.297,471.147 291.194,471.147 "/>
<polyline clip-path="url(#clip910)" style="stroke:#000000; stroke-linecap:round; stroke-linejoin:round; stroke-width:4; stroke-opacity:1; fill:none" points="272.297,169.038 291.194,169.038 "/>
<path clip-path="url(#clip910)" d="M114.26 1377.92 L143.936 1377.92 L143.936 1381.86 L114.26 1381.86 L114.26 1377.92 Z" fill="#000000" fill-rule="nonzero" fill-opacity="1" /><path clip-path="url(#clip910)" d="M154.839 1390.82 L162.477 1390.82 L162.477 1364.45 L154.167 1366.12 L154.167 1361.86 L162.431 1360.19 L167.107 1360.19 L167.107 1390.82 L174.746 1390.82 L174.746 1394.75 L154.839 1394.75 L154.839 1390.82 Z" fill="#000000" fill-rule="nonzero" fill-opacity="1" /><path clip-path="url(#clip910)" d="M194.19 1363.27 Q190.579 1363.27 188.75 1366.84 Q186.945 1370.38 186.945 1377.51 Q186.945 1384.61 188.75 1388.18 Q190.579 1391.72 194.19 1391.72 Q197.825 1391.72 199.63 1388.18 Q201.459 1384.61 201.459 1377.51 Q201.459 1370.38 199.63 1366.84 Q197.825 1363.27 194.19 1363.27 M194.19 1359.57 Q200 1359.57 203.056 1364.17 Q206.135 1368.76 206.135 1377.51 Q206.135 1386.23 203.056 1390.84 Q200 1395.42 194.19 1395.42 Q188.38 1395.42 185.301 1390.84 Q182.246 1386.23 182.246 1377.51 Q182.246 1368.76 185.301 1364.17 Q188.38 1359.57 194.19 1359.57 Z" fill="#000000" fill-rule="nonzero" fill-opacity="1" /><path clip-path="url(#clip910)" d="M224.352 1363.27 Q220.741 1363.27 218.912 1366.84 Q217.107 1370.38 217.107 1377.51 Q217.107 1384.61 218.912 1388.18 Q220.741 1391.72 224.352 1391.72 Q227.986 1391.72 229.792 1388.18 Q231.621 1384.61 231.621 1377.51 Q231.621 1370.38 229.792 1366.84 Q227.986 1363.27 224.352 1363.27 M224.352 1359.57 Q230.162 1359.57 233.218 1364.17 Q236.297 1368.76 236.297 1377.51 Q236.297 1386.23 233.218 1390.84 Q230.162 1395.42 224.352 1395.42 Q218.542 1395.42 215.463 1390.84 Q212.408 1386.23 212.408 1377.51 Q212.408 1368.76 215.463 1364.17 Q218.542 1359.57 224.352 1359.57 Z" fill="#000000" fill-rule="nonzero" fill-opacity="1" /><path clip-path="url(#clip910)" d="M144.422 1075.82 L174.098 1075.82 L174.098 1079.75 L144.422 1079.75 L144.422 1075.82 Z" fill="#000000" fill-rule="nonzero" fill-opacity="1" /><path clip-path="url(#clip910)" d="M184.237 1058.08 L202.593 1058.08 L202.593 1062.02 L188.519 1062.02 L188.519 1070.49 Q189.538 1070.14 190.556 1069.98 Q191.575 1069.8 192.593 1069.8 Q198.38 1069.8 201.76 1072.97 Q205.139 1076.14 205.139 1081.56 Q205.139 1087.14 201.667 1090.24 Q198.195 1093.32 191.875 1093.32 Q189.7 1093.32 187.431 1092.95 Q185.186 1092.57 182.778 1091.83 L182.778 1087.14 Q184.862 1088.27 187.084 1088.82 Q189.306 1089.38 191.783 1089.38 Q195.787 1089.38 198.125 1087.27 Q200.463 1085.17 200.463 1081.56 Q200.463 1077.95 198.125 1075.84 Q195.787 1073.73 191.783 1073.73 Q189.908 1073.73 188.033 1074.15 Q186.181 1074.57 184.237 1075.45 L184.237 1058.08 Z" fill="#000000" fill-rule="nonzero" fill-opacity="1" /><path clip-path="url(#clip910)" d="M224.352 1061.16 Q220.741 1061.16 218.912 1064.73 Q217.107 1068.27 217.107 1075.4 Q217.107 1082.51 218.912 1086.07 Q220.741 1089.61 224.352 1089.61 Q227.986 1089.61 229.792 1086.07 Q231.621 1082.51 231.621 1075.4 Q231.621 1068.27 229.792 1064.73 Q227.986 1061.16 224.352 1061.16 M224.352 1057.46 Q230.162 1057.46 233.218 1062.07 Q236.297 1066.65 236.297 1075.4 Q236.297 1084.13 233.218 1088.73 Q230.162 1093.32 224.352 1093.32 Q218.542 1093.32 215.463 1088.73 Q212.408 1084.13 212.408 1075.4 Q212.408 1066.65 215.463 1062.07 Q218.542 1057.46 224.352 1057.46 Z" fill="#000000" fill-rule="nonzero" fill-opacity="1" /><path clip-path="url(#clip910)" d="M224.352 759.054 Q220.741 759.054 218.912 762.619 Q217.107 766.161 217.107 773.29 Q217.107 780.397 218.912 783.961 Q220.741 787.503 224.352 787.503 Q227.986 787.503 229.792 783.961 Q231.621 780.397 231.621 773.29 Q231.621 766.161 229.792 762.619 Q227.986 759.054 224.352 759.054 M224.352 755.35 Q230.162 755.35 233.218 759.957 Q236.297 764.54 236.297 773.29 Q236.297 782.017 233.218 786.623 Q230.162 791.207 224.352 791.207 Q218.542 791.207 215.463 786.623 Q212.408 782.017 212.408 773.29 Q212.408 764.54 215.463 759.957 Q218.542 755.35 224.352 755.35 Z" fill="#000000" fill-rule="nonzero" fill-opacity="1" /><path clip-path="url(#clip910)" d="M184.237 453.867 L202.593 453.867 L202.593 457.802 L188.519 457.802 L188.519 466.274 Q189.538 465.927 190.556 465.765 Q191.575 465.58 192.593 465.58 Q198.38 465.58 201.76 468.751 Q205.139 471.922 205.139 477.339 Q205.139 482.917 201.667 486.019 Q198.195 489.098 191.875 489.098 Q189.7 489.098 187.431 488.728 Q185.186 488.357 182.778 487.616 L182.778 482.917 Q184.862 484.052 187.084 484.607 Q189.306 485.163 191.783 485.163 Q195.787 485.163 198.125 483.056 Q200.463 480.95 200.463 477.339 Q200.463 473.728 198.125 471.621 Q195.787 469.515 191.783 469.515 Q189.908 469.515 188.033 469.931 Q186.181 470.348 184.237 471.228 L184.237 453.867 Z" fill="#000000" fill-rule="nonzero" fill-opacity="1" /><path clip-path="url(#clip910)" d="M224.352 456.945 Q220.741 456.945 218.912 460.51 Q217.107 464.052 217.107 471.181 Q217.107 478.288 218.912 481.853 Q220.741 485.394 224.352 485.394 Q227.986 485.394 229.792 481.853 Q231.621 478.288 231.621 471.181 Q231.621 464.052 229.792 460.51 Q227.986 456.945 224.352 456.945 M224.352 453.242 Q230.162 453.242 233.218 457.848 Q236.297 462.431 236.297 471.181 Q236.297 479.908 233.218 484.515 Q230.162 489.098 224.352 489.098 Q218.542 489.098 215.463 484.515 Q212.408 479.908 212.408 471.181 Q212.408 462.431 215.463 457.848 Q218.542 453.242 224.352 453.242 Z" fill="#000000" fill-rule="nonzero" fill-opacity="1" /><path clip-path="url(#clip910)" d="M154.839 182.383 L162.477 182.383 L162.477 156.017 L154.167 157.684 L154.167 153.424 L162.431 151.758 L167.107 151.758 L167.107 182.383 L174.746 182.383 L174.746 186.318 L154.839 186.318 L154.839 182.383 Z" fill="#000000" fill-rule="nonzero" fill-opacity="1" /><path clip-path="url(#clip910)" d="M194.19 154.836 Q190.579 154.836 188.75 158.401 Q186.945 161.943 186.945 169.073 Q186.945 176.179 188.75 179.744 Q190.579 183.285 194.19 183.285 Q197.825 183.285 199.63 179.744 Q201.459 176.179 201.459 169.073 Q201.459 161.943 199.63 158.401 Q197.825 154.836 194.19 154.836 M194.19 151.133 Q200 151.133 203.056 155.739 Q206.135 160.323 206.135 169.073 Q206.135 177.799 203.056 182.406 Q200 186.989 194.19 186.989 Q188.38 186.989 185.301 182.406 Q182.246 177.799 182.246 169.073 Q182.246 160.323 185.301 155.739 Q188.38 151.133 194.19 151.133 Z" fill="#000000" fill-rule="nonzero" fill-opacity="1" /><path clip-path="url(#clip910)" d="M224.352 154.836 Q220.741 154.836 218.912 158.401 Q217.107 161.943 217.107 169.073 Q217.107 176.179 218.912 179.744 Q220.741 183.285 224.352 183.285 Q227.986 183.285 229.792 179.744 Q231.621 176.179 231.621 169.073 Q231.621 161.943 229.792 158.401 Q227.986 154.836 224.352 154.836 M224.352 151.133 Q230.162 151.133 233.218 155.739 Q236.297 160.323 236.297 169.073 Q236.297 177.799 233.218 182.406 Q230.162 186.989 224.352 186.989 Q218.542 186.989 215.463 182.406 Q212.408 177.799 212.408 169.073 Q212.408 160.323 215.463 155.739 Q218.542 151.133 224.352 151.133 Z" fill="#000000" fill-rule="nonzero" fill-opacity="1" /><path clip-path="url(#clip910)" d="M21.7677 1179.81 L39.6235 1179.81 L39.6235 1171.72 Q39.6235 1167.24 37.3 1164.79 Q34.9765 1162.33 30.6797 1162.33 Q26.4147 1162.33 24.0912 1164.79 Q21.7677 1167.24 21.7677 1171.72 L21.7677 1179.81 M16.4842 1186.24 L16.4842 1171.72 Q16.4842 1163.73 20.1126 1159.66 Q23.7092 1155.55 30.6797 1155.55 Q37.7138 1155.55 41.3104 1159.66 Q44.907 1163.73 44.907 1171.72 L44.907 1179.81 L64.0042 1179.81 L64.0042 1186.24 L16.4842 1186.24 Z" fill="#000000" fill-rule="nonzero" fill-opacity="1" /><path clip-path="url(#clip910)" d="M33.8307 1127.67 Q33.2578 1128.66 33.0032 1129.84 Q32.7167 1130.98 32.7167 1132.38 Q32.7167 1137.35 35.9632 1140.02 Q39.1779 1142.66 45.2253 1142.66 L64.0042 1142.66 L64.0042 1148.55 L28.3562 1148.55 L28.3562 1142.66 L33.8944 1142.66 Q30.6479 1140.82 29.0883 1137.86 Q27.4968 1134.9 27.4968 1130.66 Q27.4968 1130.06 27.5923 1129.33 Q27.656 1128.6 27.8151 1127.7 L33.8307 1127.67 Z" fill="#000000" fill-rule="nonzero" fill-opacity="1" /><path clip-path="url(#clip910)" d="M32.4621 1109.15 Q32.4621 1113.86 36.1542 1116.6 Q39.8145 1119.33 46.212 1119.33 Q52.6095 1119.33 56.3017 1116.63 Q59.9619 1113.89 59.9619 1109.15 Q59.9619 1104.47 56.2698 1101.73 Q52.5777 1099 46.212 1099 Q39.8781 1099 36.186 1101.73 Q32.4621 1104.47 32.4621 1109.15 M27.4968 1109.15 Q27.4968 1101.51 32.4621 1097.15 Q37.4273 1092.79 46.212 1092.79 Q54.9649 1092.79 59.9619 1097.15 Q64.9272 1101.51 64.9272 1109.15 Q64.9272 1116.82 59.9619 1121.18 Q54.9649 1125.51 46.212 1125.51 Q37.4273 1125.51 32.4621 1121.18 Q27.4968 1116.82 27.4968 1109.15 Z" fill="#000000" fill-rule="nonzero" fill-opacity="1" /><path clip-path="url(#clip910)" d="M14.479 1065.03 L19.3487 1065.03 L19.3487 1070.64 Q19.3487 1073.79 20.6219 1075.03 Q21.895 1076.24 25.2052 1076.24 L28.3562 1076.24 L28.3562 1066.59 L32.9077 1066.59 L32.9077 1076.24 L64.0042 1076.24 L64.0042 1082.13 L32.9077 1082.13 L32.9077 1087.73 L28.3562 1087.73 L28.3562 1082.13 L25.8736 1082.13 Q19.9216 1082.13 17.2162 1079.36 Q14.479 1076.59 14.479 1070.57 L14.479 1065.03 Z" fill="#000000" fill-rule="nonzero" fill-opacity="1" /><path clip-path="url(#clip910)" d="M28.3562 1060.13 L28.3562 1054.28 L64.0042 1054.28 L64.0042 1060.13 L28.3562 1060.13 M14.479 1060.13 L14.479 1054.28 L21.895 1054.28 L21.895 1060.13 L14.479 1060.13 Z" fill="#000000" fill-rule="nonzero" fill-opacity="1" /><path clip-path="url(#clip910)" d="M18.2347 1036.23 L28.3562 1036.23 L28.3562 1024.17 L32.9077 1024.17 L32.9077 1036.23 L52.2594 1036.23 Q56.6199 1036.23 57.8613 1035.05 Q59.1026 1033.84 59.1026 1030.18 L59.1026 1024.17 L64.0042 1024.17 L64.0042 1030.18 Q64.0042 1036.96 61.4897 1039.54 Q58.9434 1042.12 52.2594 1042.12 L32.9077 1042.12 L32.9077 1046.41 L28.3562 1046.41 L28.3562 1042.12 L18.2347 1042.12 L18.2347 1036.23 Z" fill="#000000" fill-rule="nonzero" fill-opacity="1" /><path clip-path="url(#clip910)" d="M58.5933 993.802 L58.5933 983.299 L22.3406 983.299 L24.6323 994.725 L18.7758 994.725 L16.4842 983.362 L16.4842 976.933 L58.5933 976.933 L58.5933 966.43 L64.0042 966.43 L64.0042 993.802 L58.5933 993.802 Z" fill="#000000" fill-rule="nonzero" fill-opacity="1" /><path clip-path="url(#clip910)" d="M29.4065 931.546 L34.9447 931.546 Q33.6716 934.028 33.035 936.702 Q32.3984 939.375 32.3984 942.24 Q32.3984 946.601 33.7352 948.797 Q35.072 950.961 37.7456 950.961 Q39.7826 950.961 40.9603 949.401 Q42.1061 947.842 43.1565 943.131 L43.6021 941.126 Q44.9389 934.888 47.3897 932.278 Q49.8086 929.636 54.1691 929.636 Q59.1344 929.636 62.0308 933.583 Q64.9272 937.498 64.9272 944.373 Q64.9272 947.237 64.3543 950.356 Q63.8132 953.444 62.6992 956.881 L56.6518 956.881 Q58.3387 953.635 59.198 950.484 Q60.0256 947.333 60.0256 944.245 Q60.0256 940.107 58.6251 937.88 Q57.1929 935.652 54.6147 935.652 Q52.2276 935.652 50.9545 937.275 Q49.6813 938.866 48.5037 944.309 L48.0262 946.346 Q46.8804 951.789 44.5251 954.208 Q42.138 956.627 38.0002 956.627 Q32.9713 956.627 30.2341 953.062 Q27.4968 949.497 27.4968 942.94 Q27.4968 939.694 27.9743 936.829 Q28.4517 933.965 29.4065 931.546 Z" fill="#000000" fill-rule="nonzero" fill-opacity="1" /><path clip-path="url(#clip910)" d="M18.2347 914.517 L28.3562 914.517 L28.3562 902.454 L32.9077 902.454 L32.9077 914.517 L52.2594 914.517 Q56.6199 914.517 57.8613 913.34 Q59.1026 912.13 59.1026 908.47 L59.1026 902.454 L64.0042 902.454 L64.0042 908.47 Q64.0042 915.249 61.4897 917.828 Q58.9434 920.406 52.2594 920.406 L32.9077 920.406 L32.9077 924.702 L28.3562 924.702 L28.3562 920.406 L18.2347 920.406 L18.2347 914.517 Z" fill="#000000" fill-rule="nonzero" fill-opacity="1" /><path clip-path="url(#clip910)" d="M33.7671 850.574 L14.479 850.574 L14.479 844.717 L64.0042 844.717 L64.0042 850.574 L58.657 850.574 Q61.8398 852.42 63.3994 855.253 Q64.9272 858.054 64.9272 862 Q64.9272 868.461 59.771 872.536 Q54.6147 876.578 46.212 876.578 Q37.8093 876.578 32.6531 872.536 Q27.4968 868.461 27.4968 862 Q27.4968 858.054 29.0564 855.253 Q30.5842 852.42 33.7671 850.574 M46.212 870.53 Q52.6732 870.53 56.3653 867.889 Q60.0256 865.215 60.0256 860.568 Q60.0256 855.921 56.3653 853.247 Q52.6732 850.574 46.212 850.574 Q39.7508 850.574 36.0905 853.247 Q32.3984 855.921 32.3984 860.568 Q32.3984 865.215 36.0905 867.889 Q39.7508 870.53 46.212 870.53 Z" fill="#000000" fill-rule="nonzero" fill-opacity="1" /><path clip-path="url(#clip910)" d="M44.7161 802.163 L47.5806 802.163 L47.5806 829.09 Q53.6281 828.708 56.8109 825.461 Q59.9619 822.183 59.9619 816.358 Q59.9619 812.984 59.1344 809.833 Q58.3069 806.65 56.6518 803.531 L62.1899 803.531 Q63.5267 806.682 64.227 809.992 Q64.9272 813.303 64.9272 816.708 Q64.9272 825.238 59.9619 830.235 Q54.9967 835.201 46.5303 835.201 Q37.7774 835.201 32.6531 830.49 Q27.4968 825.748 27.4968 817.727 Q27.4968 810.534 32.1438 806.364 Q36.7589 802.163 44.7161 802.163 M42.9973 808.019 Q38.1912 808.083 35.3266 810.725 Q32.4621 813.334 32.4621 817.663 Q32.4621 822.565 35.2312 825.525 Q38.0002 828.453 43.0292 828.899 L42.9973 808.019 Z" fill="#000000" fill-rule="nonzero" fill-opacity="1" /><path clip-path="url(#clip910)" d="M33.8307 771.894 Q33.2578 772.88 33.0032 774.058 Q32.7167 775.204 32.7167 776.604 Q32.7167 781.57 35.9632 784.243 Q39.1779 786.885 45.2253 786.885 L64.0042 786.885 L64.0042 792.773 L28.3562 792.773 L28.3562 786.885 L33.8944 786.885 Q30.6479 785.039 29.0883 782.079 Q27.4968 779.119 27.4968 774.886 Q27.4968 774.281 27.5923 773.549 Q27.656 772.817 27.8151 771.926 L33.8307 771.894 Z" fill="#000000" fill-rule="nonzero" fill-opacity="1" /><path clip-path="url(#clip910)" d="M28.3562 765.751 L28.3562 759.894 L64.0042 759.894 L64.0042 765.751 L28.3562 765.751 M14.479 765.751 L14.479 759.894 L21.895 759.894 L21.895 765.751 L14.479 765.751 Z" fill="#000000" fill-rule="nonzero" fill-opacity="1" /><path clip-path="url(#clip910)" d="M28.3562 751.842 L28.3562 745.635 L58.275 734.495 L28.3562 723.355 L28.3562 717.149 L64.0042 730.517 L64.0042 738.474 L28.3562 751.842 Z" fill="#000000" fill-rule="nonzero" fill-opacity="1" /><path clip-path="url(#clip910)" d="M14.479 688.344 L14.479 682.487 L64.0042 682.487 L64.0042 688.344 L14.479 688.344 Z" fill="#000000" fill-rule="nonzero" fill-opacity="1" /><path clip-path="url(#clip910)" d="M46.0847 654.033 Q46.0847 661.13 47.7079 663.868 Q49.3312 666.605 53.2461 666.605 Q56.3653 666.605 58.2114 664.568 Q60.0256 662.499 60.0256 658.966 Q60.0256 654.096 56.5881 651.168 Q53.1188 648.208 47.3897 648.208 L46.0847 648.208 L46.0847 654.033 M43.6657 642.352 L64.0042 642.352 L64.0042 648.208 L58.5933 648.208 Q61.8398 650.213 63.3994 653.205 Q64.9272 656.197 64.9272 660.526 Q64.9272 666 61.8716 669.247 Q58.7843 672.461 53.6281 672.461 Q47.6125 672.461 44.5569 668.451 Q41.5014 664.409 41.5014 656.42 L41.5014 648.208 L40.9285 648.208 Q36.8862 648.208 34.6901 650.882 Q32.4621 653.523 32.4621 658.329 Q32.4621 661.385 33.1941 664.281 Q33.9262 667.178 35.3903 669.851 L29.9795 669.851 Q28.7381 666.637 28.1334 663.613 Q27.4968 660.589 27.4968 657.725 Q27.4968 649.99 31.5072 646.171 Q35.5176 642.352 43.6657 642.352 Z" fill="#000000" fill-rule="nonzero" fill-opacity="1" /><path clip-path="url(#clip910)" d="M29.4065 607.563 L34.9447 607.563 Q33.6716 610.046 33.035 612.719 Q32.3984 615.393 32.3984 618.257 Q32.3984 622.618 33.7352 624.814 Q35.072 626.978 37.7456 626.978 Q39.7826 626.978 40.9603 625.419 Q42.1061 623.859 43.1565 619.149 L43.6021 617.143 Q44.9389 610.905 47.3897 608.295 Q49.8086 605.653 54.1691 605.653 Q59.1344 605.653 62.0308 609.6 Q64.9272 613.515 64.9272 620.39 Q64.9272 623.254 64.3543 626.374 Q63.8132 629.461 62.6992 632.898 L56.6518 632.898 Q58.3387 629.652 59.198 626.501 Q60.0256 623.35 60.0256 620.263 Q60.0256 616.125 58.6251 613.897 Q57.1929 611.669 54.6147 611.669 Q52.2276 611.669 50.9545 613.292 Q49.6813 614.884 48.5037 620.326 L48.0262 622.363 Q46.8804 627.806 44.5251 630.225 Q42.138 632.644 38.0002 632.644 Q32.9713 632.644 30.2341 629.079 Q27.4968 625.514 27.4968 618.958 Q27.4968 615.711 27.9743 612.847 Q28.4517 609.982 29.4065 607.563 Z" fill="#000000" fill-rule="nonzero" fill-opacity="1" /><path clip-path="url(#clip910)" d="M18.2347 590.535 L28.3562 590.535 L28.3562 578.472 L32.9077 578.472 L32.9077 590.535 L52.2594 590.535 Q56.6199 590.535 57.8613 589.357 Q59.1026 588.148 59.1026 584.487 L59.1026 578.472 L64.0042 578.472 L64.0042 584.487 Q64.0042 591.267 61.4897 593.845 Q58.9434 596.423 52.2594 596.423 L32.9077 596.423 L32.9077 600.72 L28.3562 600.72 L28.3562 596.423 L18.2347 596.423 L18.2347 590.535 Z" fill="#000000" fill-rule="nonzero" fill-opacity="1" /><path clip-path="url(#clip910)" d="M58.5933 548.107 L58.5933 537.604 L22.3406 537.604 L24.6323 549.03 L18.7758 549.03 L16.4842 537.668 L16.4842 531.238 L58.5933 531.238 L58.5933 520.735 L64.0042 520.735 L64.0042 548.107 L58.5933 548.107 Z" fill="#000000" fill-rule="nonzero" fill-opacity="1" /><path clip-path="url(#clip910)" d="M46.0847 471.655 Q46.0847 478.753 47.7079 481.49 Q49.3312 484.227 53.2461 484.227 Q56.3653 484.227 58.2114 482.19 Q60.0256 480.122 60.0256 476.589 Q60.0256 471.719 56.5881 468.791 Q53.1188 465.831 47.3897 465.831 L46.0847 465.831 L46.0847 471.655 M43.6657 459.974 L64.0042 459.974 L64.0042 465.831 L58.5933 465.831 Q61.8398 467.836 63.3994 470.828 Q64.9272 473.819 64.9272 478.148 Q64.9272 483.623 61.8716 486.869 Q58.7843 490.084 53.6281 490.084 Q47.6125 490.084 44.5569 486.073 Q41.5014 482.031 41.5014 474.042 L41.5014 465.831 L40.9285 465.831 Q36.8862 465.831 34.6901 468.504 Q32.4621 471.146 32.4621 475.952 Q32.4621 479.008 33.1941 481.904 Q33.9262 484.8 35.3903 487.474 L29.9795 487.474 Q28.7381 484.259 28.1334 481.236 Q27.4968 478.212 27.4968 475.347 Q27.4968 467.613 31.5072 463.793 Q35.5176 459.974 43.6657 459.974 Z" fill="#000000" fill-rule="nonzero" fill-opacity="1" /><path clip-path="url(#clip910)" d="M28.3562 452.112 L28.3562 445.906 L58.275 434.766 L28.3562 423.626 L28.3562 417.419 L64.0042 430.787 L64.0042 438.744 L28.3562 452.112 Z" fill="#000000" fill-rule="nonzero" fill-opacity="1" /><path clip-path="url(#clip910)" d="M45.7664 385.877 Q39.4007 385.877 35.8996 388.519 Q32.3984 391.129 32.3984 395.871 Q32.3984 400.582 35.8996 403.224 Q39.4007 405.834 45.7664 405.834 Q52.1003 405.834 55.6014 403.224 Q59.1026 400.582 59.1026 395.871 Q59.1026 391.129 55.6014 388.519 Q52.1003 385.877 45.7664 385.877 M59.58 380.021 Q68.683 380.021 73.1071 384.063 Q77.5631 388.105 77.5631 396.444 Q77.5631 399.532 77.0857 402.269 Q76.6401 405.006 75.6852 407.584 L69.9879 407.584 Q71.3884 405.006 72.0568 402.492 Q72.7252 399.977 72.7252 397.367 Q72.7252 391.606 69.7015 388.742 Q66.7096 385.877 60.6303 385.877 L57.7339 385.877 Q60.885 387.691 62.4446 390.524 Q64.0042 393.357 64.0042 397.304 Q64.0042 403.86 59.0071 407.871 Q54.01 411.881 45.7664 411.881 Q37.491 411.881 32.4939 407.871 Q27.4968 403.86 27.4968 397.304 Q27.4968 393.357 29.0564 390.524 Q30.616 387.691 33.7671 385.877 L28.3562 385.877 L28.3562 380.021 L59.58 380.021 Z" fill="#000000" fill-rule="nonzero" fill-opacity="1" /><path clip-path="url(#clip910)" d="M55.9197 367.13 L55.9197 360.414 L64.0042 360.414 L64.0042 367.13 L55.9197 367.13 Z" fill="#000000" fill-rule="nonzero" fill-opacity="1" /><path clip-path="url(#clip910)" d="M282.543 65.6895 L295.911 65.6895 L295.911 19.5497 L281.369 22.4663 L281.369 15.0127 L295.83 12.096 L304.013 12.096 L304.013 65.6895 L317.381 65.6895 L317.381 72.576 L282.543 72.576 L282.543 65.6895 Z" fill="#000000" fill-rule="nonzero" fill-opacity="1" /><path clip-path="url(#clip910)" d="M361.779 28.5427 L361.779 35.5912 Q358.619 33.9709 355.217 33.1607 Q351.814 32.3505 348.168 32.3505 Q342.618 32.3505 339.823 34.0519 Q337.068 35.7533 337.068 39.156 Q337.068 41.7486 339.053 43.2475 Q341.038 44.7058 347.034 46.0426 L349.586 46.6097 Q357.526 48.3111 360.847 51.4303 Q364.21 54.509 364.21 60.0587 Q364.21 66.3781 359.186 70.0644 Q354.204 73.7508 345.454 73.7508 Q341.808 73.7508 337.838 73.0216 Q333.909 72.3329 329.534 70.9151 L329.534 63.2184 Q333.666 65.3654 337.676 66.4591 Q341.687 67.5124 345.616 67.5124 Q350.882 67.5124 353.718 65.73 Q356.553 63.9071 356.553 60.6258 Q356.553 57.5877 354.487 55.9673 Q352.462 54.3469 345.535 52.8481 L342.942 52.2405 Q336.015 50.7821 332.937 47.7845 Q329.858 44.7463 329.858 39.4801 Q329.858 33.0797 334.395 29.5959 Q338.932 26.1121 347.277 26.1121 Q351.409 26.1121 355.055 26.7198 Q358.7 27.3274 361.779 28.5427 Z" fill="#000000" fill-rule="nonzero" fill-opacity="1" /><path clip-path="url(#clip910)" d="M383.451 14.324 L383.451 27.2059 L398.804 27.2059 L398.804 32.9987 L383.451 32.9987 L383.451 57.6282 Q383.451 63.1779 384.95 64.7578 Q386.49 66.3376 391.148 66.3376 L398.804 66.3376 L398.804 72.576 L391.148 72.576 Q382.52 72.576 379.238 69.3758 Q375.957 66.1351 375.957 57.6282 L375.957 32.9987 L370.488 32.9987 L370.488 27.2059 L375.957 27.2059 L375.957 14.324 L383.451 14.324 Z" fill="#000000" fill-rule="nonzero" fill-opacity="1" /><path clip-path="url(#clip910)" d="M464.834 34.0924 L464.834 9.54393 L472.288 9.54393 L472.288 72.576 L464.834 72.576 L464.834 65.7705 Q462.484 69.8214 458.879 71.8063 Q455.314 73.7508 450.291 73.7508 Q442.068 73.7508 436.883 67.1883 Q431.738 60.6258 431.738 49.9314 Q431.738 39.2371 436.883 32.6746 Q442.068 26.1121 450.291 26.1121 Q455.314 26.1121 458.879 28.0971 Q462.484 30.0415 464.834 34.0924 M439.435 49.9314 Q439.435 58.1548 442.797 62.8538 Q446.2 67.5124 452.114 67.5124 Q458.028 67.5124 461.431 62.8538 Q464.834 58.1548 464.834 49.9314 Q464.834 41.7081 461.431 37.0496 Q458.028 32.3505 452.114 32.3505 Q446.2 32.3505 442.797 37.0496 Q439.435 41.7081 439.435 49.9314 Z" fill="#000000" fill-rule="nonzero" fill-opacity="1" /><path clip-path="url(#clip910)" d="M526.448 48.0275 L526.448 51.6733 L492.178 51.6733 Q492.664 59.3701 496.796 63.421 Q500.968 67.4314 508.381 67.4314 Q512.675 67.4314 516.686 66.3781 Q520.736 65.3249 524.706 63.2184 L524.706 70.267 Q520.696 71.9684 516.483 72.8596 Q512.27 73.7508 507.936 73.7508 Q497.079 73.7508 490.719 67.4314 Q484.4 61.1119 484.4 50.3365 Q484.4 39.1965 490.395 32.6746 Q496.431 26.1121 506.639 26.1121 Q515.794 26.1121 521.101 32.0264 Q526.448 37.9003 526.448 48.0275 M518.995 45.84 Q518.914 39.7232 515.551 36.0774 Q512.23 32.4315 506.72 32.4315 Q500.482 32.4315 496.715 35.9558 Q492.988 39.4801 492.421 45.8805 L518.995 45.84 Z" fill="#000000" fill-rule="nonzero" fill-opacity="1" /><path clip-path="url(#clip910)" d="M564.972 34.1734 Q563.717 33.4443 562.218 33.1202 Q560.759 32.7556 558.977 32.7556 Q552.658 32.7556 549.255 36.8875 Q545.893 40.9789 545.893 48.6757 L545.893 72.576 L538.398 72.576 L538.398 27.2059 L545.893 27.2059 L545.893 34.2544 Q548.242 30.1225 552.009 28.1376 Q555.777 26.1121 561.165 26.1121 Q561.934 26.1121 562.866 26.2337 Q563.798 26.3147 564.932 26.5172 L564.972 34.1734 Z" fill="#000000" fill-rule="nonzero" fill-opacity="1" /><path clip-path="url(#clip910)" d="M572.791 27.2059 L580.244 27.2059 L580.244 72.576 L572.791 72.576 L572.791 27.2059 M572.791 9.54393 L580.244 9.54393 L580.244 18.9825 L572.791 18.9825 L572.791 9.54393 Z" fill="#000000" fill-rule="nonzero" fill-opacity="1" /><path clip-path="url(#clip910)" d="M590.493 27.2059 L598.392 27.2059 L612.57 65.2844 L626.749 27.2059 L634.648 27.2059 L617.634 72.576 L607.507 72.576 L590.493 27.2059 Z" fill="#000000" fill-rule="nonzero" fill-opacity="1" /><path clip-path="url(#clip910)" d="M665.556 49.7694 Q656.523 49.7694 653.039 51.8354 Q649.555 53.9013 649.555 58.8839 Q649.555 62.8538 652.148 65.2034 Q654.781 67.5124 659.277 67.5124 Q665.475 67.5124 669.202 63.1374 Q672.969 58.7219 672.969 51.4303 L672.969 49.7694 L665.556 49.7694 M680.423 46.6907 L680.423 72.576 L672.969 72.576 L672.969 65.6895 Q670.417 69.8214 666.61 71.8063 Q662.802 73.7508 657.292 73.7508 Q650.325 73.7508 646.193 69.8619 Q642.102 65.9325 642.102 59.3701 Q642.102 51.7138 647.206 47.825 Q652.35 43.9361 662.518 43.9361 L672.969 43.9361 L672.969 43.2069 Q672.969 38.0623 669.567 35.2672 Q666.204 32.4315 660.088 32.4315 Q656.199 32.4315 652.512 33.3632 Q648.826 34.295 645.423 36.1584 L645.423 29.2718 Q649.515 27.692 653.363 26.9223 Q657.211 26.1121 660.857 26.1121 Q670.701 26.1121 675.562 31.2163 Q680.423 36.3204 680.423 46.6907 Z" fill="#000000" fill-rule="nonzero" fill-opacity="1" /><path clip-path="url(#clip910)" d="M703.149 14.324 L703.149 27.2059 L718.502 27.2059 L718.502 32.9987 L703.149 32.9987 L703.149 57.6282 Q703.149 63.1779 704.648 64.7578 Q706.187 66.3376 710.845 66.3376 L718.502 66.3376 L718.502 72.576 L710.845 72.576 Q702.217 72.576 698.936 69.3758 Q695.655 66.1351 695.655 57.6282 L695.655 32.9987 L690.186 32.9987 L690.186 27.2059 L695.655 27.2059 L695.655 14.324 L703.149 14.324 Z" fill="#000000" fill-rule="nonzero" fill-opacity="1" /><path clip-path="url(#clip910)" d="M728.305 27.2059 L735.758 27.2059 L735.758 72.576 L728.305 72.576 L728.305 27.2059 M728.305 9.54393 L735.758 9.54393 L735.758 18.9825 L728.305 18.9825 L728.305 9.54393 Z" fill="#000000" fill-rule="nonzero" fill-opacity="1" /><path clip-path="url(#clip910)" d="M746.007 27.2059 L753.907 27.2059 L768.085 65.2844 L782.263 27.2059 L790.162 27.2059 L773.148 72.576 L763.021 72.576 L746.007 27.2059 Z" fill="#000000" fill-rule="nonzero" fill-opacity="1" /><path clip-path="url(#clip910)" d="M839.259 48.0275 L839.259 51.6733 L804.988 51.6733 Q805.475 59.3701 809.606 63.421 Q813.779 67.4314 821.192 67.4314 Q825.486 67.4314 829.496 66.3781 Q833.547 65.3249 837.517 63.2184 L837.517 70.267 Q833.507 71.9684 829.294 72.8596 Q825.081 73.7508 820.746 73.7508 Q809.89 73.7508 803.53 67.4314 Q797.211 61.1119 797.211 50.3365 Q797.211 39.1965 803.206 32.6746 Q809.242 26.1121 819.45 26.1121 Q828.605 26.1121 833.912 32.0264 Q839.259 37.9003 839.259 48.0275 M831.805 45.84 Q831.724 39.7232 828.362 36.0774 Q825.04 32.4315 819.531 32.4315 Q813.293 32.4315 809.525 35.9558 Q805.799 39.4801 805.231 45.8805 L831.805 45.84 Z" fill="#000000" fill-rule="nonzero" fill-opacity="1" /><path clip-path="url(#clip910)" d="M898.483 49.7694 Q889.45 49.7694 885.966 51.8354 Q882.482 53.9013 882.482 58.8839 Q882.482 62.8538 885.075 65.2034 Q887.708 67.5124 892.204 67.5124 Q898.402 67.5124 902.129 63.1374 Q905.896 58.7219 905.896 51.4303 L905.896 49.7694 L898.483 49.7694 M913.35 46.6907 L913.35 72.576 L905.896 72.576 L905.896 65.6895 Q903.344 69.8214 899.537 71.8063 Q895.729 73.7508 890.219 73.7508 Q883.252 73.7508 879.12 69.8619 Q875.029 65.9325 875.029 59.3701 Q875.029 51.7138 880.133 47.825 Q885.277 43.9361 895.445 43.9361 L905.896 43.9361 L905.896 43.2069 Q905.896 38.0623 902.494 35.2672 Q899.131 32.4315 893.015 32.4315 Q889.126 32.4315 885.439 33.3632 Q881.753 34.295 878.35 36.1584 L878.35 29.2718 Q882.442 27.692 886.29 26.9223 Q890.138 26.1121 893.784 26.1121 Q903.628 26.1121 908.489 31.2163 Q913.35 36.3204 913.35 46.6907 Z" fill="#000000" fill-rule="nonzero" fill-opacity="1" /><path clip-path="url(#clip910)" d="M923.356 27.2059 L931.255 27.2059 L945.433 65.2844 L959.611 27.2059 L967.511 27.2059 L950.497 72.576 L940.37 72.576 L923.356 27.2059 Z" fill="#000000" fill-rule="nonzero" fill-opacity="1" /><path clip-path="url(#clip910)" d="M1016.61 48.0275 L1016.61 51.6733 L982.337 51.6733 Q982.823 59.3701 986.955 63.421 Q991.127 67.4314 998.541 67.4314 Q1002.83 67.4314 1006.84 66.3781 Q1010.9 65.3249 1014.87 63.2184 L1014.87 70.267 Q1010.86 71.9684 1006.64 72.8596 Q1002.43 73.7508 998.095 73.7508 Q987.239 73.7508 980.879 67.4314 Q974.559 61.1119 974.559 50.3365 Q974.559 39.1965 980.555 32.6746 Q986.59 26.1121 996.799 26.1121 Q1005.95 26.1121 1011.26 32.0264 Q1016.61 37.9003 1016.61 48.0275 M1009.15 45.84 Q1009.07 39.7232 1005.71 36.0774 Q1002.39 32.4315 996.88 32.4315 Q990.641 32.4315 986.874 35.9558 Q983.147 39.4801 982.58 45.8805 L1009.15 45.84 Z" fill="#000000" fill-rule="nonzero" fill-opacity="1" /><path clip-path="url(#clip910)" d="M1055.13 34.1734 Q1053.88 33.4443 1052.38 33.1202 Q1050.92 32.7556 1049.14 32.7556 Q1042.82 32.7556 1039.41 36.8875 Q1036.05 40.9789 1036.05 48.6757 L1036.05 72.576 L1028.56 72.576 L1028.56 27.2059 L1036.05 27.2059 L1036.05 34.2544 Q1038.4 30.1225 1042.17 28.1376 Q1045.94 26.1121 1051.32 26.1121 Q1052.09 26.1121 1053.03 26.2337 Q1053.96 26.3147 1055.09 26.5172 L1055.13 34.1734 Z" fill="#000000" fill-rule="nonzero" fill-opacity="1" /><path clip-path="url(#clip910)" d="M1083.57 49.7694 Q1074.54 49.7694 1071.05 51.8354 Q1067.57 53.9013 1067.57 58.8839 Q1067.57 62.8538 1070.16 65.2034 Q1072.79 67.5124 1077.29 67.5124 Q1083.49 67.5124 1087.21 63.1374 Q1090.98 58.7219 1090.98 51.4303 L1090.98 49.7694 L1083.57 49.7694 M1098.44 46.6907 L1098.44 72.576 L1090.98 72.576 L1090.98 65.6895 Q1088.43 69.8214 1084.62 71.8063 Q1080.81 73.7508 1075.31 73.7508 Q1068.34 73.7508 1064.21 69.8619 Q1060.11 65.9325 1060.11 59.3701 Q1060.11 51.7138 1065.22 47.825 Q1070.36 43.9361 1080.53 43.9361 L1090.98 43.9361 L1090.98 43.2069 Q1090.98 38.0623 1087.58 35.2672 Q1084.22 32.4315 1078.1 32.4315 Q1074.21 32.4315 1070.53 33.3632 Q1066.84 34.295 1063.44 36.1584 L1063.44 29.2718 Q1067.53 27.692 1071.38 26.9223 Q1075.22 26.1121 1078.87 26.1121 Q1088.71 26.1121 1093.57 31.2163 Q1098.44 36.3204 1098.44 46.6907 Z" fill="#000000" fill-rule="nonzero" fill-opacity="1" /><path clip-path="url(#clip910)" d="M1143.64 49.3643 Q1143.64 41.2625 1140.28 36.8065 Q1136.96 32.3505 1130.92 32.3505 Q1124.93 32.3505 1121.57 36.8065 Q1118.24 41.2625 1118.24 49.3643 Q1118.24 57.4256 1121.57 61.8816 Q1124.93 66.3376 1130.92 66.3376 Q1136.96 66.3376 1140.28 61.8816 Q1143.64 57.4256 1143.64 49.3643 M1151.1 66.9452 Q1151.1 78.5308 1145.95 84.1616 Q1140.81 89.8329 1130.2 89.8329 Q1126.27 89.8329 1122.78 89.2252 Q1119.3 88.6581 1116.02 87.4428 L1116.02 80.1917 Q1119.3 81.9741 1122.5 82.8248 Q1125.7 83.6755 1129.02 83.6755 Q1136.35 83.6755 1140 79.8271 Q1143.64 76.0193 1143.64 68.282 L1143.64 64.5957 Q1141.34 68.6061 1137.73 70.5911 Q1134.12 72.576 1129.1 72.576 Q1120.76 72.576 1115.65 66.2161 Q1110.55 59.8562 1110.55 49.3643 Q1110.55 38.832 1115.65 32.472 Q1120.76 26.1121 1129.1 26.1121 Q1134.12 26.1121 1137.73 28.0971 Q1141.34 30.082 1143.64 34.0924 L1143.64 27.2059 L1151.1 27.2059 L1151.1 66.9452 Z" fill="#000000" fill-rule="nonzero" fill-opacity="1" /><path clip-path="url(#clip910)" d="M1205.26 48.0275 L1205.26 51.6733 L1170.99 51.6733 Q1171.47 59.3701 1175.61 63.421 Q1179.78 67.4314 1187.19 67.4314 Q1191.49 67.4314 1195.5 66.3781 Q1199.55 65.3249 1203.52 63.2184 L1203.52 70.267 Q1199.51 71.9684 1195.29 72.8596 Q1191.08 73.7508 1186.75 73.7508 Q1175.89 73.7508 1169.53 67.4314 Q1163.21 61.1119 1163.21 50.3365 Q1163.21 39.1965 1169.21 32.6746 Q1175.24 26.1121 1185.45 26.1121 Q1194.6 26.1121 1199.91 32.0264 Q1205.26 37.9003 1205.26 48.0275 M1197.8 45.84 Q1197.72 39.7232 1194.36 36.0774 Q1191.04 32.4315 1185.53 32.4315 Q1179.29 32.4315 1175.52 35.9558 Q1171.8 39.4801 1171.23 45.8805 L1197.8 45.84 Z" fill="#000000" fill-rule="nonzero" fill-opacity="1" /><path clip-path="url(#clip910)" d="M1246.42 28.5427 L1246.42 35.5912 Q1243.26 33.9709 1239.85 33.1607 Q1236.45 32.3505 1232.8 32.3505 Q1227.25 32.3505 1224.46 34.0519 Q1221.7 35.7533 1221.7 39.156 Q1221.7 41.7486 1223.69 43.2475 Q1225.67 44.7058 1231.67 46.0426 L1234.22 46.6097 Q1242.16 48.3111 1245.48 51.4303 Q1248.85 54.509 1248.85 60.0587 Q1248.85 66.3781 1243.82 70.0644 Q1238.84 73.7508 1230.09 73.7508 Q1226.44 73.7508 1222.47 73.0216 Q1218.55 72.3329 1214.17 70.9151 L1214.17 63.2184 Q1218.3 65.3654 1222.31 66.4591 Q1226.32 67.5124 1230.25 67.5124 Q1235.52 67.5124 1238.35 65.73 Q1241.19 63.9071 1241.19 60.6258 Q1241.19 57.5877 1239.12 55.9673 Q1237.1 54.3469 1230.17 52.8481 L1227.58 52.2405 Q1220.65 50.7821 1217.57 47.7845 Q1214.49 44.7463 1214.49 39.4801 Q1214.49 33.0797 1219.03 29.5959 Q1223.57 26.1121 1231.91 26.1121 Q1236.05 26.1121 1239.69 26.7198 Q1243.34 27.3274 1246.42 28.5427 Z" fill="#000000" fill-rule="nonzero" fill-opacity="1" /><path clip-path="url(#clip910)" d="M1304.67 32.4315 Q1298.67 32.4315 1295.19 37.1306 Q1291.7 41.7891 1291.7 49.9314 Q1291.7 58.0738 1295.15 62.7728 Q1298.63 67.4314 1304.67 67.4314 Q1310.62 67.4314 1314.11 62.7323 Q1317.59 58.0333 1317.59 49.9314 Q1317.59 41.8701 1314.11 37.1711 Q1310.62 32.4315 1304.67 32.4315 M1304.67 26.1121 Q1314.39 26.1121 1319.94 32.4315 Q1325.49 38.7509 1325.49 49.9314 Q1325.49 61.0714 1319.94 67.4314 Q1314.39 73.7508 1304.67 73.7508 Q1294.9 73.7508 1289.36 67.4314 Q1283.85 61.0714 1283.85 49.9314 Q1283.85 38.7509 1289.36 32.4315 Q1294.9 26.1121 1304.67 26.1121 Z" fill="#000000" fill-rule="nonzero" fill-opacity="1" /><path clip-path="url(#clip910)" d="M1332.5 27.2059 L1340.4 27.2059 L1354.57 65.2844 L1368.75 27.2059 L1376.65 27.2059 L1359.64 72.576 L1349.51 72.576 L1332.5 27.2059 Z" fill="#000000" fill-rule="nonzero" fill-opacity="1" /><path clip-path="url(#clip910)" d="M1425.75 48.0275 L1425.75 51.6733 L1391.48 51.6733 Q1391.96 59.3701 1396.1 63.421 Q1400.27 67.4314 1407.68 67.4314 Q1411.98 67.4314 1415.99 66.3781 Q1420.04 65.3249 1424.01 63.2184 L1424.01 70.267 Q1420 71.9684 1415.78 72.8596 Q1411.57 73.7508 1407.24 73.7508 Q1396.38 73.7508 1390.02 67.4314 Q1383.7 61.1119 1383.7 50.3365 Q1383.7 39.1965 1389.7 32.6746 Q1395.73 26.1121 1405.94 26.1121 Q1415.1 26.1121 1420.4 32.0264 Q1425.75 37.9003 1425.75 48.0275 M1418.3 45.84 Q1418.21 39.7232 1414.85 36.0774 Q1411.53 32.4315 1406.02 32.4315 Q1399.78 32.4315 1396.02 35.9558 Q1392.29 39.4801 1391.72 45.8805 L1418.3 45.84 Z" fill="#000000" fill-rule="nonzero" fill-opacity="1" /><path clip-path="url(#clip910)" d="M1464.27 34.1734 Q1463.02 33.4443 1461.52 33.1202 Q1460.06 32.7556 1458.28 32.7556 Q1451.96 32.7556 1448.56 36.8875 Q1445.19 40.9789 1445.19 48.6757 L1445.19 72.576 L1437.7 72.576 L1437.7 27.2059 L1445.19 27.2059 L1445.19 34.2544 Q1447.54 30.1225 1451.31 28.1376 Q1455.08 26.1121 1460.47 26.1121 Q1461.23 26.1121 1462.17 26.2337 Q1463.1 26.3147 1464.23 26.5172 L1464.27 34.1734 Z" fill="#000000" fill-rule="nonzero" fill-opacity="1" /><path clip-path="url(#clip910)" d="M1505.84 14.324 L1505.84 27.2059 L1521.19 27.2059 L1521.19 32.9987 L1505.84 32.9987 L1505.84 57.6282 Q1505.84 63.1779 1507.33 64.7578 Q1508.87 66.3376 1513.53 66.3376 L1521.19 66.3376 L1521.19 72.576 L1513.53 72.576 Q1504.9 72.576 1501.62 69.3758 Q1498.34 66.1351 1498.34 57.6282 L1498.34 32.9987 L1492.87 32.9987 L1492.87 27.2059 L1498.34 27.2059 L1498.34 14.324 L1505.84 14.324 Z" fill="#000000" fill-rule="nonzero" fill-opacity="1" /><path clip-path="url(#clip910)" d="M1530.99 27.2059 L1538.45 27.2059 L1538.45 72.576 L1530.99 72.576 L1530.99 27.2059 M1530.99 9.54393 L1538.45 9.54393 L1538.45 18.9825 L1530.99 18.9825 L1530.99 9.54393 Z" fill="#000000" fill-rule="nonzero" fill-opacity="1" /><path clip-path="url(#clip910)" d="M1589.37 35.9153 Q1592.16 30.8922 1596.05 28.5022 Q1599.94 26.1121 1605.2 26.1121 Q1612.29 26.1121 1616.14 31.0947 Q1619.99 36.0368 1619.99 45.1919 L1619.99 72.576 L1612.5 72.576 L1612.5 45.4349 Q1612.5 38.913 1610.19 35.7533 Q1607.88 32.5936 1603.14 32.5936 Q1597.35 32.5936 1593.98 36.4419 Q1590.62 40.2903 1590.62 46.9338 L1590.62 72.576 L1583.13 72.576 L1583.13 45.4349 Q1583.13 38.8725 1580.82 35.7533 Q1578.51 32.5936 1573.69 32.5936 Q1567.98 32.5936 1564.61 36.4824 Q1561.25 40.3308 1561.25 46.9338 L1561.25 72.576 L1553.76 72.576 L1553.76 27.2059 L1561.25 27.2059 L1561.25 34.2544 Q1563.8 30.082 1567.37 28.0971 Q1570.93 26.1121 1575.83 26.1121 Q1580.78 26.1121 1584.22 28.6237 Q1587.7 31.1352 1589.37 35.9153 Z" fill="#000000" fill-rule="nonzero" fill-opacity="1" /><path clip-path="url(#clip910)" d="M1673.66 48.0275 L1673.66 51.6733 L1639.39 51.6733 Q1639.88 59.3701 1644.01 63.421 Q1648.18 67.4314 1655.6 67.4314 Q1659.89 67.4314 1663.9 66.3781 Q1667.95 65.3249 1671.92 63.2184 L1671.92 70.267 Q1667.91 71.9684 1663.7 72.8596 Q1659.49 73.7508 1655.15 73.7508 Q1644.3 73.7508 1637.94 67.4314 Q1631.62 61.1119 1631.62 50.3365 Q1631.62 39.1965 1637.61 32.6746 Q1643.65 26.1121 1653.86 26.1121 Q1663.01 26.1121 1668.32 32.0264 Q1673.66 37.9003 1673.66 48.0275 M1666.21 45.84 Q1666.13 39.7232 1662.77 36.0774 Q1659.45 32.4315 1653.94 32.4315 Q1647.7 32.4315 1643.93 35.9558 Q1640.2 39.4801 1639.64 45.8805 L1666.21 45.84 Z" fill="#000000" fill-rule="nonzero" fill-opacity="1" /><path clip-path="url(#clip910)" d="M1735.24 9.54393 L1735.24 15.7418 L1728.11 15.7418 Q1724.1 15.7418 1722.52 17.3622 Q1720.98 18.9825 1720.98 23.1955 L1720.98 27.2059 L1733.25 27.2059 L1733.25 32.9987 L1720.98 32.9987 L1720.98 72.576 L1713.48 72.576 L1713.48 32.9987 L1706.36 32.9987 L1706.36 27.2059 L1713.48 27.2059 L1713.48 24.0462 Q1713.48 16.471 1717.01 13.0277 Q1720.53 9.54393 1728.19 9.54393 L1735.24 9.54393 Z" fill="#000000" fill-rule="nonzero" fill-opacity="1" /><path clip-path="url(#clip910)" d="M1759.06 32.4315 Q1753.06 32.4315 1749.58 37.1306 Q1746.09 41.7891 1746.09 49.9314 Q1746.09 58.0738 1749.54 62.7728 Q1753.02 67.4314 1759.06 67.4314 Q1765.01 67.4314 1768.5 62.7323 Q1771.98 58.0333 1771.98 49.9314 Q1771.98 41.8701 1768.5 37.1711 Q1765.01 32.4315 1759.06 32.4315 M1759.06 26.1121 Q1768.78 26.1121 1774.33 32.4315 Q1779.88 38.7509 1779.88 49.9314 Q1779.88 61.0714 1774.33 67.4314 Q1768.78 73.7508 1759.06 73.7508 Q1749.29 73.7508 1743.74 67.4314 Q1738.24 61.0714 1738.24 49.9314 Q1738.24 38.7509 1743.74 32.4315 Q1749.29 26.1121 1759.06 26.1121 Z" fill="#000000" fill-rule="nonzero" fill-opacity="1" /><path clip-path="url(#clip910)" d="M1818.52 34.1734 Q1817.27 33.4443 1815.77 33.1202 Q1814.31 32.7556 1812.53 32.7556 Q1806.21 32.7556 1802.81 36.8875 Q1799.44 40.9789 1799.44 48.6757 L1799.44 72.576 L1791.95 72.576 L1791.95 27.2059 L1799.44 27.2059 L1799.44 34.2544 Q1801.79 30.1225 1805.56 28.1376 Q1809.33 26.1121 1814.72 26.1121 Q1815.49 26.1121 1816.42 26.2337 Q1817.35 26.3147 1818.48 26.5172 L1818.52 34.1734 Z" fill="#000000" fill-rule="nonzero" fill-opacity="1" /><path clip-path="url(#clip910)" d="M1826.79 62.2867 L1835.34 62.2867 L1835.34 72.576 L1826.79 72.576 L1826.79 62.2867 M1826.79 29.6769 L1835.34 29.6769 L1835.34 39.9662 L1826.79 39.9662 L1826.79 29.6769 Z" fill="#000000" fill-rule="nonzero" fill-opacity="1" /><path clip-path="url(#clip910)" d="M1886.42 65.7705 L1886.42 89.8329 L1878.92 89.8329 L1878.92 27.2059 L1886.42 27.2059 L1886.42 34.0924 Q1888.77 30.0415 1892.33 28.0971 Q1895.94 26.1121 1900.92 26.1121 Q1909.18 26.1121 1914.33 32.6746 Q1919.51 39.2371 1919.51 49.9314 Q1919.51 60.6258 1914.33 67.1883 Q1909.18 73.7508 1900.92 73.7508 Q1895.94 73.7508 1892.33 71.8063 Q1888.77 69.8214 1886.42 65.7705 M1911.78 49.9314 Q1911.78 41.7081 1908.37 37.0496 Q1905.01 32.3505 1899.1 32.3505 Q1893.18 32.3505 1889.78 37.0496 Q1886.42 41.7081 1886.42 49.9314 Q1886.42 58.1548 1889.78 62.8538 Q1893.18 67.5124 1899.1 67.5124 Q1905.01 67.5124 1908.37 62.8538 Q1911.78 58.1548 1911.78 49.9314 Z" fill="#000000" fill-rule="nonzero" fill-opacity="1" /><path clip-path="url(#clip910)" d="M1958.16 34.1734 Q1956.9 33.4443 1955.4 33.1202 Q1953.95 32.7556 1952.16 32.7556 Q1945.84 32.7556 1942.44 36.8875 Q1939.08 40.9789 1939.08 48.6757 L1939.08 72.576 L1931.59 72.576 L1931.59 27.2059 L1939.08 27.2059 L1939.08 34.2544 Q1941.43 30.1225 1945.2 28.1376 Q1948.96 26.1121 1954.35 26.1121 Q1955.12 26.1121 1956.05 26.2337 Q1956.98 26.3147 1958.12 26.5172 L1958.16 34.1734 Z" fill="#000000" fill-rule="nonzero" fill-opacity="1" /><path clip-path="url(#clip910)" d="M1981.74 32.4315 Q1975.74 32.4315 1972.26 37.1306 Q1968.77 41.7891 1968.77 49.9314 Q1968.77 58.0738 1972.22 62.7728 Q1975.7 67.4314 1981.74 67.4314 Q1987.69 67.4314 1991.17 62.7323 Q1994.66 58.0333 1994.66 49.9314 Q1994.66 41.8701 1991.17 37.1711 Q1987.69 32.4315 1981.74 32.4315 M1981.74 26.1121 Q1991.46 26.1121 1997.01 32.4315 Q2002.56 38.7509 2002.56 49.9314 Q2002.56 61.0714 1997.01 67.4314 Q1991.46 73.7508 1981.74 73.7508 Q1971.97 73.7508 1966.42 67.4314 Q1960.91 61.0714 1960.91 49.9314 Q1960.91 38.7509 1966.42 32.4315 Q1971.97 26.1121 1981.74 26.1121 Z" fill="#000000" fill-rule="nonzero" fill-opacity="1" /><path clip-path="url(#clip910)" d="M2037.88 9.54393 L2037.88 15.7418 L2030.75 15.7418 Q2026.74 15.7418 2025.16 17.3622 Q2023.62 18.9825 2023.62 23.1955 L2023.62 27.2059 L2035.9 27.2059 L2035.9 32.9987 L2023.62 32.9987 L2023.62 72.576 L2016.13 72.576 L2016.13 32.9987 L2009 32.9987 L2009 27.2059 L2016.13 27.2059 L2016.13 24.0462 Q2016.13 16.471 2019.65 13.0277 Q2023.18 9.54393 2030.83 9.54393 L2037.88 9.54393 Z" fill="#000000" fill-rule="nonzero" fill-opacity="1" /><path clip-path="url(#clip910)" d="M2044.12 27.2059 L2051.57 27.2059 L2051.57 72.576 L2044.12 72.576 L2044.12 27.2059 M2044.12 9.54393 L2051.57 9.54393 L2051.57 18.9825 L2044.12 18.9825 L2044.12 9.54393 Z" fill="#000000" fill-rule="nonzero" fill-opacity="1" /><path clip-path="url(#clip910)" d="M2074.54 14.324 L2074.54 27.2059 L2089.89 27.2059 L2089.89 32.9987 L2074.54 32.9987 L2074.54 57.6282 Q2074.54 63.1779 2076.04 64.7578 Q2077.58 66.3376 2082.24 66.3376 L2089.89 66.3376 L2089.89 72.576 L2082.24 72.576 Q2073.61 72.576 2070.33 69.3758 Q2067.05 66.1351 2067.05 57.6282 L2067.05 32.9987 L2061.58 32.9987 L2061.58 27.2059 L2067.05 27.2059 L2067.05 14.324 L2074.54 14.324 Z" fill="#000000" fill-rule="nonzero" fill-opacity="1" /><path clip-path="url(#clip910)" d="M2120.32 49.7694 Q2111.28 49.7694 2107.8 51.8354 Q2104.32 53.9013 2104.32 58.8839 Q2104.32 62.8538 2106.91 65.2034 Q2109.54 67.5124 2114.04 67.5124 Q2120.24 67.5124 2123.96 63.1374 Q2127.73 58.7219 2127.73 51.4303 L2127.73 49.7694 L2120.32 49.7694 M2135.18 46.6907 L2135.18 72.576 L2127.73 72.576 L2127.73 65.6895 Q2125.18 69.8214 2121.37 71.8063 Q2117.56 73.7508 2112.05 73.7508 Q2105.09 73.7508 2100.95 69.8619 Q2096.86 65.9325 2096.86 59.3701 Q2096.86 51.7138 2101.97 47.825 Q2107.11 43.9361 2117.28 43.9361 L2127.73 43.9361 L2127.73 43.2069 Q2127.73 38.0623 2124.33 35.2672 Q2120.97 32.4315 2114.85 32.4315 Q2110.96 32.4315 2107.27 33.3632 Q2103.59 34.295 2100.18 36.1584 L2100.18 29.2718 Q2104.28 27.692 2108.12 26.9223 Q2111.97 26.1121 2115.62 26.1121 Q2125.46 26.1121 2130.32 31.2163 Q2135.18 36.3204 2135.18 46.6907 Z" fill="#000000" fill-rule="nonzero" fill-opacity="1" /><path clip-path="url(#clip910)" d="M2183.11 49.9314 Q2183.11 41.7081 2179.7 37.0496 Q2176.34 32.3505 2170.43 32.3505 Q2164.51 32.3505 2161.11 37.0496 Q2157.75 41.7081 2157.75 49.9314 Q2157.75 58.1548 2161.11 62.8538 Q2164.51 67.5124 2170.43 67.5124 Q2176.34 67.5124 2179.7 62.8538 Q2183.11 58.1548 2183.11 49.9314 M2157.75 34.0924 Q2160.1 30.0415 2163.66 28.0971 Q2167.27 26.1121 2172.25 26.1121 Q2180.51 26.1121 2185.66 32.6746 Q2190.84 39.2371 2190.84 49.9314 Q2190.84 60.6258 2185.66 67.1883 Q2180.51 73.7508 2172.25 73.7508 Q2167.27 73.7508 2163.66 71.8063 Q2160.1 69.8214 2157.75 65.7705 L2157.75 72.576 L2150.25 72.576 L2150.25 9.54393 L2157.75 9.54393 L2157.75 34.0924 Z" fill="#000000" fill-rule="nonzero" fill-opacity="1" /><path clip-path="url(#clip910)" d="M2203.2 27.2059 L2210.65 27.2059 L2210.65 72.576 L2203.2 72.576 L2203.2 27.2059 M2203.2 9.54393 L2210.65 9.54393 L2210.65 18.9825 L2203.2 18.9825 L2203.2 9.54393 Z" fill="#000000" fill-rule="nonzero" fill-opacity="1" /><path clip-path="url(#clip910)" d="M2226.25 9.54393 L2233.7 9.54393 L2233.7 72.576 L2226.25 72.576 L2226.25 9.54393 Z" fill="#000000" fill-rule="nonzero" fill-opacity="1" /><path clip-path="url(#clip910)" d="M2249.3 27.2059 L2256.75 27.2059 L2256.75 72.576 L2249.3 72.576 L2249.3 27.2059 M2249.3 9.54393 L2256.75 9.54393 L2256.75 18.9825 L2249.3 18.9825 L2249.3 9.54393 Z" fill="#000000" fill-rule="nonzero" fill-opacity="1" /><path clip-path="url(#clip910)" d="M2279.72 14.324 L2279.72 27.2059 L2295.07 27.2059 L2295.07 32.9987 L2279.72 32.9987 L2279.72 57.6282 Q2279.72 63.1779 2281.22 64.7578 Q2282.76 66.3376 2287.42 66.3376 L2295.07 66.3376 L2295.07 72.576 L2287.42 72.576 Q2278.79 72.576 2275.51 69.3758 Q2272.23 66.1351 2272.23 57.6282 L2272.23 32.9987 L2266.76 32.9987 L2266.76 27.2059 L2272.23 27.2059 L2272.23 14.324 L2279.72 14.324 Z" fill="#000000" fill-rule="nonzero" fill-opacity="1" /><path clip-path="url(#clip910)" d="M2323.75 76.7889 Q2320.59 84.8907 2317.6 87.3618 Q2314.6 89.8329 2309.58 89.8329 L2303.62 89.8329 L2303.62 83.5945 L2308 83.5945 Q2311.07 83.5945 2312.78 82.1361 Q2314.48 80.6778 2316.54 75.2496 L2317.88 71.8468 L2299.53 27.2059 L2307.43 27.2059 L2321.61 62.6918 L2335.78 27.2059 L2343.68 27.2059 L2323.75 76.7889 Z" fill="#000000" fill-rule="nonzero" fill-opacity="1" /><circle clip-path="url(#clip912)" cx="331.177" cy="773.255" r="14.4" fill="#009af9" fill-rule="evenodd" fill-opacity="1" stroke="#000000" stroke-opacity="1" stroke-width="3.2"/>
<circle clip-path="url(#clip912)" cx="351.003" cy="768.414" r="14.4" fill="#009af9" fill-rule="evenodd" fill-opacity="1" stroke="#000000" stroke-opacity="1" stroke-width="3.2"/>
<circle clip-path="url(#clip912)" cx="370.828" cy="784.372" r="14.4" fill="#009af9" fill-rule="evenodd" fill-opacity="1" stroke="#000000" stroke-opacity="1" stroke-width="3.2"/>
<circle clip-path="url(#clip912)" cx="390.653" cy="740.327" r="14.4" fill="#009af9" fill-rule="evenodd" fill-opacity="1" stroke="#000000" stroke-opacity="1" stroke-width="3.2"/>
<circle clip-path="url(#clip912)" cx="410.478" cy="806.475" r="14.4" fill="#009af9" fill-rule="evenodd" fill-opacity="1" stroke="#000000" stroke-opacity="1" stroke-width="3.2"/>
<circle clip-path="url(#clip912)" cx="430.304" cy="723.14" r="14.4" fill="#009af9" fill-rule="evenodd" fill-opacity="1" stroke="#000000" stroke-opacity="1" stroke-width="3.2"/>
<circle clip-path="url(#clip912)" cx="450.129" cy="840.486" r="14.4" fill="#009af9" fill-rule="evenodd" fill-opacity="1" stroke="#000000" stroke-opacity="1" stroke-width="3.2"/>
<circle clip-path="url(#clip912)" cx="469.954" cy="752.96" r="14.4" fill="#009af9" fill-rule="evenodd" fill-opacity="1" stroke="#000000" stroke-opacity="1" stroke-width="3.2"/>
<circle clip-path="url(#clip912)" cx="489.779" cy="776.995" r="14.4" fill="#009af9" fill-rule="evenodd" fill-opacity="1" stroke="#000000" stroke-opacity="1" stroke-width="3.2"/>
<circle clip-path="url(#clip912)" cx="509.605" cy="757.282" r="14.4" fill="#009af9" fill-rule="evenodd" fill-opacity="1" stroke="#000000" stroke-opacity="1" stroke-width="3.2"/>
<circle clip-path="url(#clip912)" cx="529.43" cy="729.7" r="14.4" fill="#009af9" fill-rule="evenodd" fill-opacity="1" stroke="#000000" stroke-opacity="1" stroke-width="3.2"/>
<circle clip-path="url(#clip912)" cx="549.255" cy="816.358" r="14.4" fill="#009af9" fill-rule="evenodd" fill-opacity="1" stroke="#000000" stroke-opacity="1" stroke-width="3.2"/>
<circle clip-path="url(#clip912)" cx="569.08" cy="775.129" r="14.4" fill="#009af9" fill-rule="evenodd" fill-opacity="1" stroke="#000000" stroke-opacity="1" stroke-width="3.2"/>
<circle clip-path="url(#clip912)" cx="588.905" cy="714.088" r="14.4" fill="#009af9" fill-rule="evenodd" fill-opacity="1" stroke="#000000" stroke-opacity="1" stroke-width="3.2"/>
<circle clip-path="url(#clip912)" cx="608.731" cy="776.743" r="14.4" fill="#009af9" fill-rule="evenodd" fill-opacity="1" stroke="#000000" stroke-opacity="1" stroke-width="3.2"/>
<circle clip-path="url(#clip912)" cx="628.556" cy="827.303" r="14.4" fill="#009af9" fill-rule="evenodd" fill-opacity="1" stroke="#000000" stroke-opacity="1" stroke-width="3.2"/>
<circle clip-path="url(#clip912)" cx="648.381" cy="756.328" r="14.4" fill="#009af9" fill-rule="evenodd" fill-opacity="1" stroke="#000000" stroke-opacity="1" stroke-width="3.2"/>
<circle clip-path="url(#clip912)" cx="668.206" cy="794.405" r="14.4" fill="#009af9" fill-rule="evenodd" fill-opacity="1" stroke="#000000" stroke-opacity="1" stroke-width="3.2"/>
<circle clip-path="url(#clip912)" cx="688.032" cy="771.797" r="14.4" fill="#009af9" fill-rule="evenodd" fill-opacity="1" stroke="#000000" stroke-opacity="1" stroke-width="3.2"/>
<circle clip-path="url(#clip912)" cx="707.857" cy="775.144" r="14.4" fill="#009af9" fill-rule="evenodd" fill-opacity="1" stroke="#000000" stroke-opacity="1" stroke-width="3.2"/>
<circle clip-path="url(#clip912)" cx="727.682" cy="771.638" r="14.4" fill="#009af9" fill-rule="evenodd" fill-opacity="1" stroke="#000000" stroke-opacity="1" stroke-width="3.2"/>
<circle clip-path="url(#clip912)" cx="747.507" cy="768.817" r="14.4" fill="#009af9" fill-rule="evenodd" fill-opacity="1" stroke="#000000" stroke-opacity="1" stroke-width="3.2"/>
<circle clip-path="url(#clip912)" cx="767.332" cy="772.097" r="14.4" fill="#009af9" fill-rule="evenodd" fill-opacity="1" stroke="#000000" stroke-opacity="1" stroke-width="3.2"/>
<circle clip-path="url(#clip912)" cx="787.158" cy="771.168" r="14.4" fill="#009af9" fill-rule="evenodd" fill-opacity="1" stroke="#000000" stroke-opacity="1" stroke-width="3.2"/>
<circle clip-path="url(#clip912)" cx="806.983" cy="778.695" r="14.4" fill="#009af9" fill-rule="evenodd" fill-opacity="1" stroke="#000000" stroke-opacity="1" stroke-width="3.2"/>
<circle clip-path="url(#clip912)" cx="826.808" cy="805.995" r="14.4" fill="#009af9" fill-rule="evenodd" fill-opacity="1" stroke="#000000" stroke-opacity="1" stroke-width="3.2"/>
<circle clip-path="url(#clip912)" cx="846.633" cy="733.979" r="14.4" fill="#009af9" fill-rule="evenodd" fill-opacity="1" stroke="#000000" stroke-opacity="1" stroke-width="3.2"/>
<circle clip-path="url(#clip912)" cx="866.459" cy="810.15" r="14.4" fill="#009af9" fill-rule="evenodd" fill-opacity="1" stroke="#000000" stroke-opacity="1" stroke-width="3.2"/>
<circle clip-path="url(#clip912)" cx="886.284" cy="776.685" r="14.4" fill="#009af9" fill-rule="evenodd" fill-opacity="1" stroke="#000000" stroke-opacity="1" stroke-width="3.2"/>
<circle clip-path="url(#clip912)" cx="906.109" cy="668.297" r="14.4" fill="#009af9" fill-rule="evenodd" fill-opacity="1" stroke="#000000" stroke-opacity="1" stroke-width="3.2"/>
<circle clip-path="url(#clip912)" cx="925.934" cy="843.425" r="14.4" fill="#009af9" fill-rule="evenodd" fill-opacity="1" stroke="#000000" stroke-opacity="1" stroke-width="3.2"/>
<circle clip-path="url(#clip912)" cx="945.76" cy="776.349" r="14.4" fill="#009af9" fill-rule="evenodd" fill-opacity="1" stroke="#000000" stroke-opacity="1" stroke-width="3.2"/>
<circle clip-path="url(#clip912)" cx="965.585" cy="771.29" r="14.4" fill="#009af9" fill-rule="evenodd" fill-opacity="1" stroke="#000000" stroke-opacity="1" stroke-width="3.2"/>
<circle clip-path="url(#clip912)" cx="985.41" cy="765.157" r="14.4" fill="#009af9" fill-rule="evenodd" fill-opacity="1" stroke="#000000" stroke-opacity="1" stroke-width="3.2"/>
<circle clip-path="url(#clip912)" cx="1005.24" cy="778.384" r="14.4" fill="#009af9" fill-rule="evenodd" fill-opacity="1" stroke="#000000" stroke-opacity="1" stroke-width="3.2"/>
<circle clip-path="url(#clip912)" cx="1025.06" cy="123.472" r="14.4" fill="#009af9" fill-rule="evenodd" fill-opacity="1" stroke="#000000" stroke-opacity="1" stroke-width="3.2"/>
<circle clip-path="url(#clip912)" cx="1044.89" cy="1423.18" r="14.4" fill="#009af9" fill-rule="evenodd" fill-opacity="1" stroke="#000000" stroke-opacity="1" stroke-width="3.2"/>
<circle clip-path="url(#clip912)" cx="1064.71" cy="774.182" r="14.4" fill="#009af9" fill-rule="evenodd" fill-opacity="1" stroke="#000000" stroke-opacity="1" stroke-width="3.2"/>
<circle clip-path="url(#clip912)" cx="1084.54" cy="706.102" r="14.4" fill="#009af9" fill-rule="evenodd" fill-opacity="1" stroke="#000000" stroke-opacity="1" stroke-width="3.2"/>
<circle clip-path="url(#clip912)" cx="1104.36" cy="857.125" r="14.4" fill="#009af9" fill-rule="evenodd" fill-opacity="1" stroke="#000000" stroke-opacity="1" stroke-width="3.2"/>
<circle clip-path="url(#clip912)" cx="1124.19" cy="782.076" r="14.4" fill="#009af9" fill-rule="evenodd" fill-opacity="1" stroke="#000000" stroke-opacity="1" stroke-width="3.2"/>
<circle clip-path="url(#clip912)" cx="1144.01" cy="741.758" r="14.4" fill="#009af9" fill-rule="evenodd" fill-opacity="1" stroke="#000000" stroke-opacity="1" stroke-width="3.2"/>
<circle clip-path="url(#clip912)" cx="1163.84" cy="718.132" r="14.4" fill="#009af9" fill-rule="evenodd" fill-opacity="1" stroke="#000000" stroke-opacity="1" stroke-width="3.2"/>
<circle clip-path="url(#clip912)" cx="1183.66" cy="829.732" r="14.4" fill="#009af9" fill-rule="evenodd" fill-opacity="1" stroke="#000000" stroke-opacity="1" stroke-width="3.2"/>
<circle clip-path="url(#clip912)" cx="1203.49" cy="708.185" r="14.4" fill="#009af9" fill-rule="evenodd" fill-opacity="1" stroke="#000000" stroke-opacity="1" stroke-width="3.2"/>
<circle clip-path="url(#clip912)" cx="1223.31" cy="792.178" r="14.4" fill="#009af9" fill-rule="evenodd" fill-opacity="1" stroke="#000000" stroke-opacity="1" stroke-width="3.2"/>
<circle clip-path="url(#clip912)" cx="1243.14" cy="821.299" r="14.4" fill="#009af9" fill-rule="evenodd" fill-opacity="1" stroke="#000000" stroke-opacity="1" stroke-width="3.2"/>
<circle clip-path="url(#clip912)" cx="1262.96" cy="782.533" r="14.4" fill="#009af9" fill-rule="evenodd" fill-opacity="1" stroke="#000000" stroke-opacity="1" stroke-width="3.2"/>
<circle clip-path="url(#clip912)" cx="1282.79" cy="791.926" r="14.4" fill="#009af9" fill-rule="evenodd" fill-opacity="1" stroke="#000000" stroke-opacity="1" stroke-width="3.2"/>
<circle clip-path="url(#clip912)" cx="1302.61" cy="737.51" r="14.4" fill="#009af9" fill-rule="evenodd" fill-opacity="1" stroke="#000000" stroke-opacity="1" stroke-width="3.2"/>
<circle clip-path="url(#clip912)" cx="1322.44" cy="707.564" r="14.4" fill="#009af9" fill-rule="evenodd" fill-opacity="1" stroke="#000000" stroke-opacity="1" stroke-width="3.2"/>
<circle clip-path="url(#clip912)" cx="1342.26" cy="788.529" r="14.4" fill="#009af9" fill-rule="evenodd" fill-opacity="1" stroke="#000000" stroke-opacity="1" stroke-width="3.2"/>
<circle clip-path="url(#clip912)" cx="1362.09" cy="820.797" r="14.4" fill="#009af9" fill-rule="evenodd" fill-opacity="1" stroke="#000000" stroke-opacity="1" stroke-width="3.2"/>
<circle clip-path="url(#clip912)" cx="1381.91" cy="780.574" r="14.4" fill="#009af9" fill-rule="evenodd" fill-opacity="1" stroke="#000000" stroke-opacity="1" stroke-width="3.2"/>
<circle clip-path="url(#clip912)" cx="1401.74" cy="785.305" r="14.4" fill="#009af9" fill-rule="evenodd" fill-opacity="1" stroke="#000000" stroke-opacity="1" stroke-width="3.2"/>
<circle clip-path="url(#clip912)" cx="1421.56" cy="759.134" r="14.4" fill="#009af9" fill-rule="evenodd" fill-opacity="1" stroke="#000000" stroke-opacity="1" stroke-width="3.2"/>
<circle clip-path="url(#clip912)" cx="1441.39" cy="777.196" r="14.4" fill="#009af9" fill-rule="evenodd" fill-opacity="1" stroke="#000000" stroke-opacity="1" stroke-width="3.2"/>
<circle clip-path="url(#clip912)" cx="1461.22" cy="770.742" r="14.4" fill="#009af9" fill-rule="evenodd" fill-opacity="1" stroke="#000000" stroke-opacity="1" stroke-width="3.2"/>
<circle clip-path="url(#clip912)" cx="1481.04" cy="756.612" r="14.4" fill="#009af9" fill-rule="evenodd" fill-opacity="1" stroke="#000000" stroke-opacity="1" stroke-width="3.2"/>
<circle clip-path="url(#clip912)" cx="1500.87" cy="823.581" r="14.4" fill="#009af9" fill-rule="evenodd" fill-opacity="1" stroke="#000000" stroke-opacity="1" stroke-width="3.2"/>
<circle clip-path="url(#clip912)" cx="1520.69" cy="737.503" r="14.4" fill="#009af9" fill-rule="evenodd" fill-opacity="1" stroke="#000000" stroke-opacity="1" stroke-width="3.2"/>
<circle clip-path="url(#clip912)" cx="1540.52" cy="775.045" r="14.4" fill="#009af9" fill-rule="evenodd" fill-opacity="1" stroke="#000000" stroke-opacity="1" stroke-width="3.2"/>
<circle clip-path="url(#clip912)" cx="1560.34" cy="768.75" r="14.4" fill="#009af9" fill-rule="evenodd" fill-opacity="1" stroke="#000000" stroke-opacity="1" stroke-width="3.2"/>
<circle clip-path="url(#clip912)" cx="1580.17" cy="720.273" r="14.4" fill="#009af9" fill-rule="evenodd" fill-opacity="1" stroke="#000000" stroke-opacity="1" stroke-width="3.2"/>
<circle clip-path="url(#clip912)" cx="1599.99" cy="825.17" r="14.4" fill="#009af9" fill-rule="evenodd" fill-opacity="1" stroke="#000000" stroke-opacity="1" stroke-width="3.2"/>
<circle clip-path="url(#clip912)" cx="1619.82" cy="780.374" r="14.4" fill="#009af9" fill-rule="evenodd" fill-opacity="1" stroke="#000000" stroke-opacity="1" stroke-width="3.2"/>
<circle clip-path="url(#clip912)" cx="1639.64" cy="717.121" r="14.4" fill="#009af9" fill-rule="evenodd" fill-opacity="1" stroke="#000000" stroke-opacity="1" stroke-width="3.2"/>
<circle clip-path="url(#clip912)" cx="1659.47" cy="821.952" r="14.4" fill="#009af9" fill-rule="evenodd" fill-opacity="1" stroke="#000000" stroke-opacity="1" stroke-width="3.2"/>
<circle clip-path="url(#clip912)" cx="1679.29" cy="805.965" r="14.4" fill="#009af9" fill-rule="evenodd" fill-opacity="1" stroke="#000000" stroke-opacity="1" stroke-width="3.2"/>
<circle clip-path="url(#clip912)" cx="1699.12" cy="744.627" r="14.4" fill="#009af9" fill-rule="evenodd" fill-opacity="1" stroke="#000000" stroke-opacity="1" stroke-width="3.2"/>
<circle clip-path="url(#clip912)" cx="1718.94" cy="737.513" r="14.4" fill="#009af9" fill-rule="evenodd" fill-opacity="1" stroke="#000000" stroke-opacity="1" stroke-width="3.2"/>
<circle clip-path="url(#clip912)" cx="1738.77" cy="807.547" r="14.4" fill="#009af9" fill-rule="evenodd" fill-opacity="1" stroke="#000000" stroke-opacity="1" stroke-width="3.2"/>
<circle clip-path="url(#clip912)" cx="1758.59" cy="808.686" r="14.4" fill="#009af9" fill-rule="evenodd" fill-opacity="1" stroke="#000000" stroke-opacity="1" stroke-width="3.2"/>
<circle clip-path="url(#clip912)" cx="1778.42" cy="734.457" r="14.4" fill="#009af9" fill-rule="evenodd" fill-opacity="1" stroke="#000000" stroke-opacity="1" stroke-width="3.2"/>
<circle clip-path="url(#clip912)" cx="1798.24" cy="776.085" r="14.4" fill="#009af9" fill-rule="evenodd" fill-opacity="1" stroke="#000000" stroke-opacity="1" stroke-width="3.2"/>
<circle clip-path="url(#clip912)" cx="1818.07" cy="774.284" r="14.4" fill="#009af9" fill-rule="evenodd" fill-opacity="1" stroke="#000000" stroke-opacity="1" stroke-width="3.2"/>
<circle clip-path="url(#clip912)" cx="1837.89" cy="736.901" r="14.4" fill="#009af9" fill-rule="evenodd" fill-opacity="1" stroke="#000000" stroke-opacity="1" stroke-width="3.2"/>
<circle clip-path="url(#clip912)" cx="1857.72" cy="839.799" r="14.4" fill="#009af9" fill-rule="evenodd" fill-opacity="1" stroke="#000000" stroke-opacity="1" stroke-width="3.2"/>
<circle clip-path="url(#clip912)" cx="1877.55" cy="774.134" r="14.4" fill="#009af9" fill-rule="evenodd" fill-opacity="1" stroke="#000000" stroke-opacity="1" stroke-width="3.2"/>
<circle clip-path="url(#clip912)" cx="1897.37" cy="741.102" r="14.4" fill="#009af9" fill-rule="evenodd" fill-opacity="1" stroke="#000000" stroke-opacity="1" stroke-width="3.2"/>
<circle clip-path="url(#clip912)" cx="1917.2" cy="791.797" r="14.4" fill="#009af9" fill-rule="evenodd" fill-opacity="1" stroke="#000000" stroke-opacity="1" stroke-width="3.2"/>
<circle clip-path="url(#clip912)" cx="1937.02" cy="757.156" r="14.4" fill="#009af9" fill-rule="evenodd" fill-opacity="1" stroke="#000000" stroke-opacity="1" stroke-width="3.2"/>
<circle clip-path="url(#clip912)" cx="1956.85" cy="792.744" r="14.4" fill="#009af9" fill-rule="evenodd" fill-opacity="1" stroke="#000000" stroke-opacity="1" stroke-width="3.2"/>
<circle clip-path="url(#clip912)" cx="1976.67" cy="729.932" r="14.4" fill="#009af9" fill-rule="evenodd" fill-opacity="1" stroke="#000000" stroke-opacity="1" stroke-width="3.2"/>
<circle clip-path="url(#clip912)" cx="1996.5" cy="722.33" r="14.4" fill="#009af9" fill-rule="evenodd" fill-opacity="1" stroke="#000000" stroke-opacity="1" stroke-width="3.2"/>
<circle clip-path="url(#clip912)" cx="2016.32" cy="841.822" r="14.4" fill="#009af9" fill-rule="evenodd" fill-opacity="1" stroke="#000000" stroke-opacity="1" stroke-width="3.2"/>
<circle clip-path="url(#clip912)" cx="2036.15" cy="749.213" r="14.4" fill="#009af9" fill-rule="evenodd" fill-opacity="1" stroke="#000000" stroke-opacity="1" stroke-width="3.2"/>
<circle clip-path="url(#clip912)" cx="2055.97" cy="735.955" r="14.4" fill="#009af9" fill-rule="evenodd" fill-opacity="1" stroke="#000000" stroke-opacity="1" stroke-width="3.2"/>
<circle clip-path="url(#clip912)" cx="2075.8" cy="864.878" r="14.4" fill="#009af9" fill-rule="evenodd" fill-opacity="1" stroke="#000000" stroke-opacity="1" stroke-width="3.2"/>
<circle clip-path="url(#clip912)" cx="2095.62" cy="744.998" r="14.4" fill="#009af9" fill-rule="evenodd" fill-opacity="1" stroke="#000000" stroke-opacity="1" stroke-width="3.2"/>
<circle clip-path="url(#clip912)" cx="2115.45" cy="719.954" r="14.4" fill="#009af9" fill-rule="evenodd" fill-opacity="1" stroke="#000000" stroke-opacity="1" stroke-width="3.2"/>
<circle clip-path="url(#clip912)" cx="2135.27" cy="820.893" r="14.4" fill="#009af9" fill-rule="evenodd" fill-opacity="1" stroke="#000000" stroke-opacity="1" stroke-width="3.2"/>
<circle clip-path="url(#clip912)" cx="2155.1" cy="774.099" r="14.4" fill="#009af9" fill-rule="evenodd" fill-opacity="1" stroke="#000000" stroke-opacity="1" stroke-width="3.2"/>
<circle clip-path="url(#clip912)" cx="2174.92" cy="775.964" r="14.4" fill="#009af9" fill-rule="evenodd" fill-opacity="1" stroke="#000000" stroke-opacity="1" stroke-width="3.2"/>
<circle clip-path="url(#clip912)" cx="2194.75" cy="741.235" r="14.4" fill="#009af9" fill-rule="evenodd" fill-opacity="1" stroke="#000000" stroke-opacity="1" stroke-width="3.2"/>
<circle clip-path="url(#clip912)" cx="2214.57" cy="777.731" r="14.4" fill="#009af9" fill-rule="evenodd" fill-opacity="1" stroke="#000000" stroke-opacity="1" stroke-width="3.2"/>
<circle clip-path="url(#clip912)" cx="2234.4" cy="745.945" r="14.4" fill="#009af9" fill-rule="evenodd" fill-opacity="1" stroke="#000000" stroke-opacity="1" stroke-width="3.2"/>
<circle clip-path="url(#clip912)" cx="2254.22" cy="832.378" r="14.4" fill="#009af9" fill-rule="evenodd" fill-opacity="1" stroke="#000000" stroke-opacity="1" stroke-width="3.2"/>
<circle clip-path="url(#clip912)" cx="2274.05" cy="772.472" r="14.4" fill="#009af9" fill-rule="evenodd" fill-opacity="1" stroke="#000000" stroke-opacity="1" stroke-width="3.2"/>
<circle clip-path="url(#clip912)" cx="2293.87" cy="769.279" r="14.4" fill="#009af9" fill-rule="evenodd" fill-opacity="1" stroke="#000000" stroke-opacity="1" stroke-width="3.2"/>
<path clip-path="url(#clip910)" d="M1773.02 270.476 L2283.41 270.476 L2283.41 166.796 L1773.02 166.796  Z" fill="#ffffff" fill-rule="evenodd" fill-opacity="1"/>
<polyline clip-path="url(#clip910)" style="stroke:#000000; stroke-linecap:round; stroke-linejoin:round; stroke-width:4; stroke-opacity:1; fill:none" points="1773.02,270.476 2283.41,270.476 2283.41,166.796 1773.02,166.796 1773.02,270.476 "/>
<circle clip-path="url(#clip910)" cx="1865.49" cy="218.636" r="20.48" fill="#009af9" fill-rule="evenodd" fill-opacity="1" stroke="#000000" stroke-opacity="1" stroke-width="4.55111"/>
<path clip-path="url(#clip910)" d="M1957.95 201.356 L1964.92 201.356 L1973.74 224.874 L1982.61 201.356 L1989.57 201.356 L1989.57 235.916 L1985.01 235.916 L1985.01 205.569 L1976.1 229.272 L1971.4 229.272 L1962.49 205.569 L1962.49 235.916 L1957.95 235.916 L1957.95 201.356 Z" fill="#000000" fill-rule="nonzero" fill-opacity="1" /><path clip-path="url(#clip910)" d="M1998.86 201.356 L2003.53 201.356 L2003.53 215.962 L2019.04 201.356 L2025.06 201.356 L2007.91 217.467 L2026.29 235.916 L2020.13 235.916 L2003.53 219.272 L2003.53 235.916 L1998.86 235.916 L1998.86 201.356 Z" fill="#000000" fill-rule="nonzero" fill-opacity="1" /><path clip-path="url(#clip910)" d="M2034.39 231.981 L2050.71 231.981 L2050.71 235.916 L2028.76 235.916 L2028.76 231.981 Q2031.43 229.226 2036.01 224.596 Q2040.62 219.944 2041.8 218.601 Q2044.04 216.078 2044.92 214.342 Q2045.82 212.583 2045.82 210.893 Q2045.82 208.138 2043.88 206.402 Q2041.96 204.666 2038.86 204.666 Q2036.66 204.666 2034.2 205.43 Q2031.77 206.194 2029 207.745 L2029 203.022 Q2031.82 201.888 2034.27 201.309 Q2036.73 200.731 2038.76 200.731 Q2044.13 200.731 2047.33 203.416 Q2050.52 206.101 2050.52 210.592 Q2050.52 212.721 2049.71 214.643 Q2048.93 216.541 2046.82 219.133 Q2046.24 219.805 2043.14 223.022 Q2040.04 226.217 2034.39 231.981 Z" fill="#000000" fill-rule="nonzero" fill-opacity="1" /><path clip-path="url(#clip910)" d="M2061.01 230.036 L2065.89 230.036 L2065.89 234.018 L2062.1 241.425 L2059.11 241.425 L2061.01 234.018 L2061.01 230.036 Z" fill="#000000" fill-rule="nonzero" fill-opacity="1" /><path clip-path="url(#clip910)" d="M2108.67 222.976 Q2108.67 218.277 2106.73 215.615 Q2104.81 212.93 2101.43 212.93 Q2098.05 212.93 2096.1 215.615 Q2094.18 218.277 2094.18 222.976 Q2094.18 227.675 2096.1 230.36 Q2098.05 233.022 2101.43 233.022 Q2104.81 233.022 2106.73 230.36 Q2108.67 227.675 2108.67 222.976 M2094.18 213.925 Q2095.52 211.61 2097.56 210.499 Q2099.62 209.365 2102.47 209.365 Q2107.19 209.365 2110.13 213.115 Q2113.09 216.865 2113.09 222.976 Q2113.09 229.087 2110.13 232.837 Q2107.19 236.587 2102.47 236.587 Q2099.62 236.587 2097.56 235.476 Q2095.52 234.342 2094.18 232.027 L2094.18 235.916 L2089.9 235.916 L2089.9 199.897 L2094.18 199.897 L2094.18 213.925 Z" fill="#000000" fill-rule="nonzero" fill-opacity="1" /><path clip-path="url(#clip910)" d="M2131.94 222.883 Q2126.77 222.883 2124.78 224.064 Q2122.79 225.244 2122.79 228.092 Q2122.79 230.36 2124.27 231.703 Q2125.78 233.022 2128.35 233.022 Q2131.89 233.022 2134.02 230.522 Q2136.17 227.999 2136.17 223.832 L2136.17 222.883 L2131.94 222.883 M2140.43 221.124 L2140.43 235.916 L2136.17 235.916 L2136.17 231.981 Q2134.71 234.342 2132.54 235.476 Q2130.36 236.587 2127.21 236.587 Q2123.23 236.587 2120.87 234.365 Q2118.53 232.119 2118.53 228.369 Q2118.53 223.994 2121.45 221.772 Q2124.39 219.55 2130.2 219.55 L2136.17 219.55 L2136.17 219.133 Q2136.17 216.194 2134.23 214.596 Q2132.31 212.976 2128.81 212.976 Q2126.59 212.976 2124.48 213.508 Q2122.38 214.041 2120.43 215.106 L2120.43 211.17 Q2122.77 210.268 2124.97 209.828 Q2127.17 209.365 2129.25 209.365 Q2134.88 209.365 2137.65 212.282 Q2140.43 215.198 2140.43 221.124 Z" fill="#000000" fill-rule="nonzero" fill-opacity="1" /><path clip-path="url(#clip910)" d="M2153.42 202.629 L2153.42 209.99 L2162.19 209.99 L2162.19 213.3 L2153.42 213.3 L2153.42 227.374 Q2153.42 230.545 2154.27 231.448 Q2155.15 232.351 2157.81 232.351 L2162.19 232.351 L2162.19 235.916 L2157.81 235.916 Q2152.88 235.916 2151.01 234.087 Q2149.13 232.235 2149.13 227.374 L2149.13 213.3 L2146.01 213.3 L2146.01 209.99 L2149.13 209.99 L2149.13 202.629 L2153.42 202.629 Z" fill="#000000" fill-rule="nonzero" fill-opacity="1" /><path clip-path="url(#clip910)" d="M2186.45 210.985 L2186.45 214.967 Q2184.64 213.971 2182.81 213.485 Q2181.01 212.976 2179.16 212.976 Q2175.01 212.976 2172.72 215.615 Q2170.43 218.231 2170.43 222.976 Q2170.43 227.721 2172.72 230.36 Q2175.01 232.976 2179.16 232.976 Q2181.01 232.976 2182.81 232.49 Q2184.64 231.981 2186.45 230.985 L2186.45 234.92 Q2184.67 235.754 2182.75 236.17 Q2180.85 236.587 2178.69 236.587 Q2172.84 236.587 2169.39 232.906 Q2165.94 229.226 2165.94 222.976 Q2165.94 216.633 2169.41 212.999 Q2172.91 209.365 2178.97 209.365 Q2180.94 209.365 2182.81 209.782 Q2184.69 210.175 2186.45 210.985 Z" fill="#000000" fill-rule="nonzero" fill-opacity="1" /><path clip-path="url(#clip910)" d="M2215.41 220.268 L2215.41 235.916 L2211.15 235.916 L2211.15 220.407 Q2211.15 216.726 2209.71 214.897 Q2208.28 213.069 2205.41 213.069 Q2201.96 213.069 2199.97 215.268 Q2197.98 217.467 2197.98 221.263 L2197.98 235.916 L2193.69 235.916 L2193.69 199.897 L2197.98 199.897 L2197.98 214.018 Q2199.5 211.68 2201.56 210.522 Q2203.65 209.365 2206.36 209.365 Q2210.82 209.365 2213.12 212.143 Q2215.41 214.897 2215.41 220.268 Z" fill="#000000" fill-rule="nonzero" fill-opacity="1" /><path clip-path="url(#clip910)" d="M2240.38 231.981 L2248.02 231.981 L2248.02 205.615 L2239.71 207.282 L2239.71 203.022 L2247.98 201.356 L2252.65 201.356 L2252.65 231.981 L2260.29 231.981 L2260.29 235.916 L2240.38 235.916 L2240.38 231.981 Z" fill="#000000" fill-rule="nonzero" fill-opacity="1" /></svg>
