<?xml version="1.0" encoding="utf-8"?>
<svg xmlns="http://www.w3.org/2000/svg" xmlns:xlink="http://www.w3.org/1999/xlink" width="600" height="400" viewBox="0 0 2400 1600">
<defs>
  <clipPath id="clip130">
    <rect x="0" y="0" width="2400" height="1600"/>
  </clipPath>
</defs>
<path clip-path="url(#clip130)" d="M0 1600 L2400 1600 L2400 0 L0 0  Z" fill="#ffffff" fill-rule="evenodd" fill-opacity="1"/>
<defs>
  <clipPath id="clip131">
    <rect x="210" y="123" width="2143" height="1301"/>
  </clipPath>
</defs>
<path clip-path="url(#clip130)" d="M174.149 1423.18 L2352.76 1423.18 L2352.76 123.472 L174.149 123.472  Z" fill="#ffffff" fill-rule="evenodd" fill-opacity="1"/>
<defs>
  <clipPath id="clip132">
    <rect x="174" y="123" width="2180" height="1301"/>
  </clipPath>
</defs>
<polyline clip-path="url(#clip132)" style="stroke:#000000; stroke-linecap:round; stroke-linejoin:round; stroke-width:2; stroke-opacity:0.1; fill:none" points="293.976,1423.18 293.976,123.472 "/>
<polyline clip-path="url(#clip132)" style="stroke:#000000; stroke-linecap:round; stroke-linejoin:round; stroke-width:2; stroke-opacity:0.1; fill:none" points="681.767,1423.18 681.767,123.472 "/>
<polyline clip-path="url(#clip132)" style="stroke:#000000; stroke-linecap:round; stroke-linejoin:round; stroke-width:2; stroke-opacity:0.1; fill:none" points="1069.56,1423.18 1069.56,123.472 "/>
<polyline clip-path="url(#clip132)" style="stroke:#000000; stroke-linecap:round; stroke-linejoin:round; stroke-width:2; stroke-opacity:0.1; fill:none" points="1457.35,1423.18 1457.35,123.472 "/>
<polyline clip-path="url(#clip132)" style="stroke:#000000; stroke-linecap:round; stroke-linejoin:round; stroke-width:2; stroke-opacity:0.1; fill:none" points="1845.14,1423.18 1845.14,123.472 "/>
<polyline clip-path="url(#clip132)" style="stroke:#000000; stroke-linecap:round; stroke-linejoin:round; stroke-width:2; stroke-opacity:0.1; fill:none" points="2232.93,1423.18 2232.93,123.472 "/>
<polyline clip-path="url(#clip132)" style="stroke:#000000; stroke-linecap:round; stroke-linejoin:round; stroke-width:2; stroke-opacity:0.1; fill:none" points="174.149,1423.18 2352.76,1423.18 "/>
<polyline clip-path="url(#clip132)" style="stroke:#000000; stroke-linecap:round; stroke-linejoin:round; stroke-width:2; stroke-opacity:0.1; fill:none" points="174.149,989.944 2352.76,989.944 "/>
<polyline clip-path="url(#clip132)" style="stroke:#000000; stroke-linecap:round; stroke-linejoin:round; stroke-width:2; stroke-opacity:0.1; fill:none" points="174.149,556.708 2352.76,556.708 "/>
<polyline clip-path="url(#clip132)" style="stroke:#000000; stroke-linecap:round; stroke-linejoin:round; stroke-width:2; stroke-opacity:0.1; fill:none" points="174.149,123.472 2352.76,123.472 "/>
<polyline clip-path="url(#clip130)" style="stroke:#000000; stroke-linecap:round; stroke-linejoin:round; stroke-width:4; stroke-opacity:1; fill:none" points="174.149,1423.18 2352.76,1423.18 "/>
<polyline clip-path="url(#clip130)" style="stroke:#000000; stroke-linecap:round; stroke-linejoin:round; stroke-width:4; stroke-opacity:1; fill:none" points="293.976,1423.18 293.976,1404.28 "/>
<polyline clip-path="url(#clip130)" style="stroke:#000000; stroke-linecap:round; stroke-linejoin:round; stroke-width:4; stroke-opacity:1; fill:none" points="681.767,1423.18 681.767,1404.28 "/>
<polyline clip-path="url(#clip130)" style="stroke:#000000; stroke-linecap:round; stroke-linejoin:round; stroke-width:4; stroke-opacity:1; fill:none" points="1069.56,1423.18 1069.56,1404.28 "/>
<polyline clip-path="url(#clip130)" style="stroke:#000000; stroke-linecap:round; stroke-linejoin:round; stroke-width:4; stroke-opacity:1; fill:none" points="1457.35,1423.18 1457.35,1404.28 "/>
<polyline clip-path="url(#clip130)" style="stroke:#000000; stroke-linecap:round; stroke-linejoin:round; stroke-width:4; stroke-opacity:1; fill:none" points="1845.14,1423.18 1845.14,1404.28 "/>
<polyline clip-path="url(#clip130)" style="stroke:#000000; stroke-linecap:round; stroke-linejoin:round; stroke-width:4; stroke-opacity:1; fill:none" points="2232.93,1423.18 2232.93,1404.28 "/>
<path clip-path="url(#clip130)" d="M272.159 1454.1 Q268.548 1454.1 266.719 1457.66 Q264.914 1461.2 264.914 1468.33 Q264.914 1475.44 266.719 1479.01 Q268.548 1482.55 272.159 1482.55 Q275.793 1482.55 277.599 1479.01 Q279.428 1475.44 279.428 1468.33 Q279.428 1461.2 277.599 1457.66 Q275.793 1454.1 272.159 1454.1 M272.159 1450.39 Q277.969 1450.39 281.025 1455 Q284.104 1459.58 284.104 1468.33 Q284.104 1477.06 281.025 1481.67 Q277.969 1486.25 272.159 1486.25 Q266.349 1486.25 263.27 1481.67 Q260.215 1477.06 260.215 1468.33 Q260.215 1459.58 263.27 1455 Q266.349 1450.39 272.159 1450.39 Z" fill="#000000" fill-rule="nonzero" fill-opacity="1" /><path clip-path="url(#clip130)" d="M292.321 1479.7 L297.205 1479.7 L297.205 1485.58 L292.321 1485.58 L292.321 1479.7 Z" fill="#000000" fill-rule="nonzero" fill-opacity="1" /><path clip-path="url(#clip130)" d="M311.418 1481.64 L327.738 1481.64 L327.738 1485.58 L305.793 1485.58 L305.793 1481.64 Q308.455 1478.89 313.039 1474.26 Q317.645 1469.61 318.826 1468.27 Q321.071 1465.74 321.951 1464.01 Q322.853 1462.25 322.853 1460.56 Q322.853 1457.8 320.909 1456.07 Q318.988 1454.33 315.886 1454.33 Q313.687 1454.33 311.233 1455.09 Q308.802 1455.86 306.025 1457.41 L306.025 1452.69 Q308.849 1451.55 311.302 1450.97 Q313.756 1450.39 315.793 1450.39 Q321.164 1450.39 324.358 1453.08 Q327.552 1455.77 327.552 1460.26 Q327.552 1462.39 326.742 1464.31 Q325.955 1466.2 323.849 1468.8 Q323.27 1469.47 320.168 1472.69 Q317.066 1475.88 311.418 1481.64 Z" fill="#000000" fill-rule="nonzero" fill-opacity="1" /><path clip-path="url(#clip130)" d="M659.475 1454.1 Q655.864 1454.1 654.035 1457.66 Q652.23 1461.2 652.23 1468.33 Q652.23 1475.44 654.035 1479.01 Q655.864 1482.55 659.475 1482.55 Q663.109 1482.55 664.915 1479.01 Q666.744 1475.44 666.744 1468.33 Q666.744 1461.2 664.915 1457.66 Q663.109 1454.1 659.475 1454.1 M659.475 1450.39 Q665.285 1450.39 668.341 1455 Q671.42 1459.58 671.42 1468.33 Q671.42 1477.06 668.341 1481.67 Q665.285 1486.25 659.475 1486.25 Q653.665 1486.25 650.586 1481.67 Q647.531 1477.06 647.531 1468.33 Q647.531 1459.58 650.586 1455 Q653.665 1450.39 659.475 1450.39 Z" fill="#000000" fill-rule="nonzero" fill-opacity="1" /><path clip-path="url(#clip130)" d="M679.637 1479.7 L684.521 1479.7 L684.521 1485.58 L679.637 1485.58 L679.637 1479.7 Z" fill="#000000" fill-rule="nonzero" fill-opacity="1" /><path clip-path="url(#clip130)" d="M708.873 1466.95 Q712.229 1467.66 714.104 1469.93 Q716.003 1472.2 716.003 1475.53 Q716.003 1480.65 712.484 1483.45 Q708.966 1486.25 702.484 1486.25 Q700.308 1486.25 697.993 1485.81 Q695.702 1485.39 693.248 1484.54 L693.248 1480.02 Q695.193 1481.16 697.507 1481.74 Q699.822 1482.32 702.345 1482.32 Q706.743 1482.32 709.035 1480.58 Q711.35 1478.84 711.35 1475.53 Q711.35 1472.48 709.197 1470.77 Q707.067 1469.03 703.248 1469.03 L699.22 1469.03 L699.22 1465.19 L703.433 1465.19 Q706.882 1465.19 708.711 1463.82 Q710.54 1462.43 710.54 1459.84 Q710.54 1457.18 708.642 1455.77 Q706.767 1454.33 703.248 1454.33 Q701.327 1454.33 699.128 1454.75 Q696.929 1455.16 694.29 1456.04 L694.29 1451.88 Q696.952 1451.14 699.267 1450.77 Q701.605 1450.39 703.665 1450.39 Q708.989 1450.39 712.091 1452.83 Q715.192 1455.23 715.192 1459.35 Q715.192 1462.22 713.549 1464.21 Q711.905 1466.18 708.873 1466.95 Z" fill="#000000" fill-rule="nonzero" fill-opacity="1" /><path clip-path="url(#clip130)" d="M1046.7 1454.1 Q1043.09 1454.1 1041.26 1457.66 Q1039.45 1461.2 1039.45 1468.33 Q1039.45 1475.44 1041.26 1479.01 Q1043.09 1482.55 1046.7 1482.55 Q1050.33 1482.55 1052.14 1479.01 Q1053.97 1475.44 1053.97 1468.33 Q1053.97 1461.2 1052.14 1457.66 Q1050.33 1454.1 1046.7 1454.1 M1046.7 1450.39 Q1052.51 1450.39 1055.56 1455 Q1058.64 1459.58 1058.64 1468.33 Q1058.64 1477.06 1055.56 1481.67 Q1052.51 1486.25 1046.7 1486.25 Q1040.89 1486.25 1037.81 1481.67 Q1034.75 1477.06 1034.75 1468.33 Q1034.75 1459.58 1037.81 1455 Q1040.89 1450.39 1046.7 1450.39 Z" fill="#000000" fill-rule="nonzero" fill-opacity="1" /><path clip-path="url(#clip130)" d="M1066.86 1479.7 L1071.74 1479.7 L1071.74 1485.58 L1066.86 1485.58 L1066.86 1479.7 Z" fill="#000000" fill-rule="nonzero" fill-opacity="1" /><path clip-path="url(#clip130)" d="M1094.78 1455.09 L1082.97 1473.54 L1094.78 1473.54 L1094.78 1455.09 M1093.55 1451.02 L1099.43 1451.02 L1099.43 1473.54 L1104.36 1473.54 L1104.36 1477.43 L1099.43 1477.43 L1099.43 1485.58 L1094.78 1485.58 L1094.78 1477.43 L1079.18 1477.43 L1079.18 1472.92 L1093.55 1451.02 Z" fill="#000000" fill-rule="nonzero" fill-opacity="1" /><path clip-path="url(#clip130)" d="M1435.23 1454.1 Q1431.62 1454.1 1429.79 1457.66 Q1427.98 1461.2 1427.98 1468.33 Q1427.98 1475.44 1429.79 1479.01 Q1431.62 1482.55 1435.23 1482.55 Q1438.86 1482.55 1440.67 1479.01 Q1442.5 1475.44 1442.5 1468.33 Q1442.5 1461.2 1440.67 1457.66 Q1438.86 1454.1 1435.23 1454.1 M1435.23 1450.39 Q1441.04 1450.39 1444.1 1455 Q1447.17 1459.58 1447.17 1468.33 Q1447.17 1477.06 1444.1 1481.67 Q1441.04 1486.25 1435.23 1486.25 Q1429.42 1486.25 1426.34 1481.67 Q1423.29 1477.06 1423.29 1468.33 Q1423.29 1459.58 1426.34 1455 Q1429.42 1450.39 1435.23 1450.39 Z" fill="#000000" fill-rule="nonzero" fill-opacity="1" /><path clip-path="url(#clip130)" d="M1455.39 1479.7 L1460.28 1479.7 L1460.28 1485.58 L1455.39 1485.58 L1455.39 1479.7 Z" fill="#000000" fill-rule="nonzero" fill-opacity="1" /><path clip-path="url(#clip130)" d="M1470.51 1451.02 L1488.86 1451.02 L1488.86 1454.96 L1474.79 1454.96 L1474.79 1463.43 Q1475.81 1463.08 1476.83 1462.92 Q1477.85 1462.73 1478.86 1462.73 Q1484.65 1462.73 1488.03 1465.9 Q1491.41 1469.08 1491.41 1474.49 Q1491.41 1480.07 1487.94 1483.17 Q1484.47 1486.25 1478.15 1486.25 Q1475.97 1486.25 1473.7 1485.88 Q1471.46 1485.51 1469.05 1484.77 L1469.05 1480.07 Q1471.13 1481.2 1473.35 1481.76 Q1475.58 1482.32 1478.05 1482.32 Q1482.06 1482.32 1484.4 1480.21 Q1486.73 1478.1 1486.73 1474.49 Q1486.73 1470.88 1484.4 1468.77 Q1482.06 1466.67 1478.05 1466.67 Q1476.18 1466.67 1474.3 1467.08 Q1472.45 1467.5 1470.51 1468.38 L1470.51 1451.02 Z" fill="#000000" fill-rule="nonzero" fill-opacity="1" /><path clip-path="url(#clip130)" d="M1822.44 1454.1 Q1818.83 1454.1 1817 1457.66 Q1815.2 1461.2 1815.2 1468.33 Q1815.2 1475.44 1817 1479.01 Q1818.83 1482.55 1822.44 1482.55 Q1826.08 1482.55 1827.88 1479.01 Q1829.71 1475.44 1829.71 1468.33 Q1829.71 1461.2 1827.88 1457.66 Q1826.08 1454.1 1822.44 1454.1 M1822.44 1450.39 Q1828.25 1450.39 1831.31 1455 Q1834.39 1459.58 1834.39 1468.33 Q1834.39 1477.06 1831.31 1481.67 Q1828.25 1486.25 1822.44 1486.25 Q1816.63 1486.25 1813.55 1481.67 Q1810.5 1477.06 1810.5 1468.33 Q1810.5 1459.58 1813.55 1455 Q1816.63 1450.39 1822.44 1450.39 Z" fill="#000000" fill-rule="nonzero" fill-opacity="1" /><path clip-path="url(#clip130)" d="M1842.6 1479.7 L1847.49 1479.7 L1847.49 1485.58 L1842.6 1485.58 L1842.6 1479.7 Z" fill="#000000" fill-rule="nonzero" fill-opacity="1" /><path clip-path="url(#clip130)" d="M1868.25 1466.44 Q1865.1 1466.44 1863.25 1468.59 Q1861.42 1470.74 1861.42 1474.49 Q1861.42 1478.22 1863.25 1480.39 Q1865.1 1482.55 1868.25 1482.55 Q1871.4 1482.55 1873.23 1480.39 Q1875.08 1478.22 1875.08 1474.49 Q1875.08 1470.74 1873.23 1468.59 Q1871.4 1466.44 1868.25 1466.44 M1877.53 1451.78 L1877.53 1456.04 Q1875.77 1455.21 1873.97 1454.77 Q1872.19 1454.33 1870.43 1454.33 Q1865.8 1454.33 1863.34 1457.45 Q1860.91 1460.58 1860.57 1466.9 Q1861.93 1464.89 1863.99 1463.82 Q1866.05 1462.73 1868.53 1462.73 Q1873.74 1462.73 1876.75 1465.9 Q1879.78 1469.05 1879.78 1474.49 Q1879.78 1479.82 1876.63 1483.03 Q1873.48 1486.25 1868.25 1486.25 Q1862.26 1486.25 1859.08 1481.67 Q1855.91 1477.06 1855.91 1468.33 Q1855.91 1460.14 1859.8 1455.28 Q1863.69 1450.39 1870.24 1450.39 Q1872 1450.39 1873.78 1450.74 Q1875.59 1451.09 1877.53 1451.78 Z" fill="#000000" fill-rule="nonzero" fill-opacity="1" /><path clip-path="url(#clip130)" d="M2210.76 1454.1 Q2207.15 1454.1 2205.32 1457.66 Q2203.52 1461.2 2203.52 1468.33 Q2203.52 1475.44 2205.32 1479.01 Q2207.15 1482.55 2210.76 1482.55 Q2214.4 1482.55 2216.2 1479.01 Q2218.03 1475.44 2218.03 1468.33 Q2218.03 1461.2 2216.2 1457.66 Q2214.4 1454.1 2210.76 1454.1 M2210.76 1450.39 Q2216.57 1450.39 2219.63 1455 Q2222.71 1459.58 2222.71 1468.33 Q2222.71 1477.06 2219.63 1481.67 Q2216.57 1486.25 2210.76 1486.25 Q2204.95 1486.25 2201.88 1481.67 Q2198.82 1477.06 2198.82 1468.33 Q2198.82 1459.58 2201.88 1455 Q2204.95 1450.39 2210.76 1450.39 Z" fill="#000000" fill-rule="nonzero" fill-opacity="1" /><path clip-path="url(#clip130)" d="M2230.93 1479.7 L2235.81 1479.7 L2235.81 1485.58 L2230.93 1485.58 L2230.93 1479.7 Z" fill="#000000" fill-rule="nonzero" fill-opacity="1" /><path clip-path="url(#clip130)" d="M2244.82 1451.02 L2267.04 1451.02 L2267.04 1453.01 L2254.49 1485.58 L2249.61 1485.58 L2261.41 1454.96 L2244.82 1454.96 L2244.82 1451.02 Z" fill="#000000" fill-rule="nonzero" fill-opacity="1" /><path clip-path="url(#clip130)" d="M1062.01 1525.81 L1062.01 1543.66 L1070.09 1543.66 Q1074.58 1543.66 1077.03 1541.34 Q1079.48 1539.02 1079.48 1534.72 Q1079.48 1530.45 1077.03 1528.13 Q1074.58 1525.81 1070.09 1525.81 L1062.01 1525.81 M1055.58 1520.52 L1070.09 1520.52 Q1078.08 1520.52 1082.16 1524.15 Q1086.26 1527.75 1086.26 1534.72 Q1086.26 1541.75 1082.16 1545.35 Q1078.08 1548.95 1070.09 1548.95 L1062.01 1548.95 L1062.01 1568.04 L1055.58 1568.04 L1055.58 1520.52 Z" fill="#000000" fill-rule="nonzero" fill-opacity="1" /><path clip-path="url(#clip130)" d="M1114.14 1537.87 Q1113.16 1537.3 1111.98 1537.04 Q1110.83 1536.76 1109.43 1536.76 Q1104.47 1536.76 1101.8 1540 Q1099.15 1543.22 1099.15 1549.27 L1099.15 1568.04 L1093.27 1568.04 L1093.27 1532.4 L1099.15 1532.4 L1099.15 1537.93 Q1101 1534.69 1103.96 1533.13 Q1106.92 1531.54 1111.15 1531.54 Q1111.76 1531.54 1112.49 1531.63 Q1113.22 1531.7 1114.11 1531.85 L1114.14 1537.87 Z" fill="#000000" fill-rule="nonzero" fill-opacity="1" /><path clip-path="url(#clip130)" d="M1120.29 1532.4 L1126.14 1532.4 L1126.14 1568.04 L1120.29 1568.04 L1120.29 1532.4 M1120.29 1518.52 L1126.14 1518.52 L1126.14 1525.93 L1120.29 1525.93 L1120.29 1518.52 Z" fill="#000000" fill-rule="nonzero" fill-opacity="1" /><path clip-path="url(#clip130)" d="M1164.05 1533.76 L1164.05 1539.24 Q1161.57 1537.87 1159.05 1537.2 Q1156.57 1536.5 1154.03 1536.5 Q1148.33 1536.5 1145.18 1540.13 Q1142.03 1543.73 1142.03 1550.25 Q1142.03 1556.78 1145.18 1560.4 Q1148.33 1564 1154.03 1564 Q1156.57 1564 1159.05 1563.33 Q1161.57 1562.63 1164.05 1561.26 L1164.05 1566.68 Q1161.6 1567.82 1158.96 1568.39 Q1156.35 1568.97 1153.39 1568.97 Q1145.34 1568.97 1140.59 1563.91 Q1135.85 1558.85 1135.85 1550.25 Q1135.85 1541.53 1140.63 1536.53 Q1145.43 1531.54 1153.77 1531.54 Q1156.48 1531.54 1159.05 1532.11 Q1161.63 1532.65 1164.05 1533.76 Z" fill="#000000" fill-rule="nonzero" fill-opacity="1" /><path clip-path="url(#clip130)" d="M1204.73 1548.76 L1204.73 1551.62 L1177.8 1551.62 Q1178.18 1557.67 1181.43 1560.85 Q1184.71 1564 1190.53 1564 Q1193.91 1564 1197.06 1563.17 Q1200.24 1562.35 1203.36 1560.69 L1203.36 1566.23 Q1200.21 1567.57 1196.9 1568.27 Q1193.59 1568.97 1190.18 1568.97 Q1181.65 1568.97 1176.66 1564 Q1171.69 1559.04 1171.69 1550.57 Q1171.69 1541.82 1176.4 1536.69 Q1181.14 1531.54 1189.16 1531.54 Q1196.36 1531.54 1200.53 1536.18 Q1204.73 1540.8 1204.73 1548.76 M1198.87 1547.04 Q1198.81 1542.23 1196.17 1539.37 Q1193.56 1536.5 1189.23 1536.5 Q1184.33 1536.5 1181.37 1539.27 Q1178.44 1542.04 1177.99 1547.07 L1198.87 1547.04 Z" fill="#000000" fill-rule="nonzero" fill-opacity="1" /><path clip-path="url(#clip130)" d="M1235.06 1532.4 L1240.92 1532.4 L1240.92 1568.04 L1235.06 1568.04 L1235.06 1532.4 M1235.06 1518.52 L1240.92 1518.52 L1240.92 1525.93 L1235.06 1525.93 L1235.06 1518.52 Z" fill="#000000" fill-rule="nonzero" fill-opacity="1" /><path clip-path="url(#clip130)" d="M1282.8 1546.53 L1282.8 1568.04 L1276.95 1568.04 L1276.95 1546.72 Q1276.95 1541.66 1274.97 1539.14 Q1273 1536.63 1269.05 1536.63 Q1264.31 1536.63 1261.57 1539.65 Q1258.84 1542.68 1258.84 1547.9 L1258.84 1568.04 L1252.95 1568.04 L1252.95 1532.4 L1258.84 1532.4 L1258.84 1537.93 Q1260.94 1534.72 1263.77 1533.13 Q1266.64 1531.54 1270.36 1531.54 Q1276.5 1531.54 1279.65 1535.36 Q1282.8 1539.14 1282.8 1546.53 Z" fill="#000000" fill-rule="nonzero" fill-opacity="1" /><path clip-path="url(#clip130)" d="M1300.28 1522.27 L1300.28 1532.4 L1312.34 1532.4 L1312.34 1536.95 L1300.28 1536.95 L1300.28 1556.3 Q1300.28 1560.66 1301.46 1561.9 Q1302.67 1563.14 1306.33 1563.14 L1312.34 1563.14 L1312.34 1568.04 L1306.33 1568.04 Q1299.55 1568.04 1296.97 1565.53 Q1294.39 1562.98 1294.39 1556.3 L1294.39 1536.95 L1290.09 1536.95 L1290.09 1532.4 L1294.39 1532.4 L1294.39 1522.27 L1300.28 1522.27 Z" fill="#000000" fill-rule="nonzero" fill-opacity="1" /><path clip-path="url(#clip130)" d="M1350.54 1548.76 L1350.54 1551.62 L1323.61 1551.62 Q1323.99 1557.67 1327.24 1560.85 Q1330.52 1564 1336.34 1564 Q1339.71 1564 1342.86 1563.17 Q1346.05 1562.35 1349.17 1560.69 L1349.17 1566.23 Q1346.02 1567.57 1342.71 1568.27 Q1339.4 1568.97 1335.99 1568.97 Q1327.46 1568.97 1322.46 1564 Q1317.5 1559.04 1317.5 1550.57 Q1317.5 1541.82 1322.21 1536.69 Q1326.95 1531.54 1334.97 1531.54 Q1342.16 1531.54 1346.33 1536.18 Q1350.54 1540.8 1350.54 1548.76 M1344.68 1547.04 Q1344.62 1542.23 1341.97 1539.37 Q1339.36 1536.5 1335.03 1536.5 Q1330.13 1536.5 1327.17 1539.27 Q1324.24 1542.04 1323.8 1547.07 L1344.68 1547.04 Z" fill="#000000" fill-rule="nonzero" fill-opacity="1" /><path clip-path="url(#clip130)" d="M1380.8 1537.87 Q1379.82 1537.3 1378.64 1537.04 Q1377.49 1536.76 1376.09 1536.76 Q1371.13 1536.76 1368.45 1540 Q1365.81 1543.22 1365.81 1549.27 L1365.81 1568.04 L1359.92 1568.04 L1359.92 1532.4 L1365.81 1532.4 L1365.81 1537.93 Q1367.66 1534.69 1370.62 1533.13 Q1373.58 1531.54 1377.81 1531.54 Q1378.42 1531.54 1379.15 1531.63 Q1379.88 1531.7 1380.77 1531.85 L1380.8 1537.87 Z" fill="#000000" fill-rule="nonzero" fill-opacity="1" /><path clip-path="url(#clip130)" d="M1382.75 1532.4 L1388.95 1532.4 L1400.09 1562.31 L1411.23 1532.4 L1417.44 1532.4 L1404.07 1568.04 L1396.11 1568.04 L1382.75 1532.4 Z" fill="#000000" fill-rule="nonzero" fill-opacity="1" /><path clip-path="url(#clip130)" d="M1441.72 1550.12 Q1434.63 1550.12 1431.89 1551.75 Q1429.15 1553.37 1429.15 1557.29 Q1429.15 1560.4 1431.19 1562.25 Q1433.26 1564.07 1436.79 1564.07 Q1441.66 1564.07 1444.59 1560.63 Q1447.55 1557.16 1447.55 1551.43 L1447.55 1550.12 L1441.72 1550.12 M1453.41 1547.71 L1453.41 1568.04 L1447.55 1568.04 L1447.55 1562.63 Q1445.54 1565.88 1442.55 1567.44 Q1439.56 1568.97 1435.23 1568.97 Q1429.76 1568.97 1426.51 1565.91 Q1423.3 1562.82 1423.3 1557.67 Q1423.3 1551.65 1427.31 1548.6 Q1431.35 1545.54 1439.34 1545.54 L1447.55 1545.54 L1447.55 1544.97 Q1447.55 1540.93 1444.88 1538.73 Q1442.23 1536.5 1437.43 1536.5 Q1434.37 1536.5 1431.48 1537.23 Q1428.58 1537.97 1425.91 1539.43 L1425.91 1534.02 Q1429.12 1532.78 1432.14 1532.17 Q1435.17 1531.54 1438.03 1531.54 Q1445.77 1531.54 1449.59 1535.55 Q1453.41 1539.56 1453.41 1547.71 Z" fill="#000000" fill-rule="nonzero" fill-opacity="1" /><path clip-path="url(#clip130)" d="M1465.47 1518.52 L1471.32 1518.52 L1471.32 1568.04 L1465.47 1568.04 L1465.47 1518.52 Z" fill="#000000" fill-rule="nonzero" fill-opacity="1" /><polyline clip-path="url(#clip130)" style="stroke:#000000; stroke-linecap:round; stroke-linejoin:round; stroke-width:4; stroke-opacity:1; fill:none" points="174.149,1423.18 174.149,123.472 "/>
<polyline clip-path="url(#clip130)" style="stroke:#000000; stroke-linecap:round; stroke-linejoin:round; stroke-width:4; stroke-opacity:1; fill:none" points="174.149,1423.18 193.047,1423.18 "/>
<polyline clip-path="url(#clip130)" style="stroke:#000000; stroke-linecap:round; stroke-linejoin:round; stroke-width:4; stroke-opacity:1; fill:none" points="174.149,989.944 193.047,989.944 "/>
<polyline clip-path="url(#clip130)" style="stroke:#000000; stroke-linecap:round; stroke-linejoin:round; stroke-width:4; stroke-opacity:1; fill:none" points="174.149,556.708 193.047,556.708 "/>
<polyline clip-path="url(#clip130)" style="stroke:#000000; stroke-linecap:round; stroke-linejoin:round; stroke-width:4; stroke-opacity:1; fill:none" points="174.149,123.472 193.047,123.472 "/>
<path clip-path="url(#clip130)" d="M126.205 1408.98 Q122.593 1408.98 120.765 1412.54 Q118.959 1416.08 118.959 1423.21 Q118.959 1430.32 120.765 1433.89 Q122.593 1437.43 126.205 1437.43 Q129.839 1437.43 131.644 1433.89 Q133.473 1430.32 133.473 1423.21 Q133.473 1416.08 131.644 1412.54 Q129.839 1408.98 126.205 1408.98 M126.205 1405.27 Q132.015 1405.27 135.07 1409.88 Q138.149 1414.46 138.149 1423.21 Q138.149 1431.94 135.07 1436.55 Q132.015 1441.13 126.205 1441.13 Q120.394 1441.13 117.316 1436.55 Q114.26 1431.94 114.26 1423.21 Q114.26 1414.46 117.316 1409.88 Q120.394 1405.27 126.205 1405.27 Z" fill="#000000" fill-rule="nonzero" fill-opacity="1" /><path clip-path="url(#clip130)" d="M131.019 988.59 Q134.376 989.307 136.251 991.576 Q138.149 993.844 138.149 997.178 Q138.149 1002.29 134.63 1005.09 Q131.112 1007.9 124.63 1007.9 Q122.455 1007.9 120.14 1007.46 Q117.848 1007.04 115.394 1006.18 L115.394 1001.67 Q117.339 1002.8 119.654 1003.38 Q121.968 1003.96 124.492 1003.96 Q128.89 1003.96 131.181 1002.22 Q133.496 1000.49 133.496 997.178 Q133.496 994.122 131.343 992.409 Q129.214 990.673 125.394 990.673 L121.367 990.673 L121.367 986.831 L125.58 986.831 Q129.029 986.831 130.857 985.465 Q132.686 984.076 132.686 981.483 Q132.686 978.821 130.788 977.409 Q128.913 975.974 125.394 975.974 Q123.473 975.974 121.274 976.391 Q119.075 976.807 116.436 977.687 L116.436 973.52 Q119.098 972.78 121.413 972.409 Q123.751 972.039 125.811 972.039 Q131.135 972.039 134.237 974.469 Q137.339 976.877 137.339 980.997 Q137.339 983.868 135.695 985.858 Q134.052 987.826 131.019 988.59 Z" fill="#000000" fill-rule="nonzero" fill-opacity="1" /><path clip-path="url(#clip130)" d="M126.621 554.845 Q123.473 554.845 121.621 556.997 Q119.793 559.15 119.793 562.9 Q119.793 566.627 121.621 568.803 Q123.473 570.956 126.621 570.956 Q129.769 570.956 131.598 568.803 Q133.45 566.627 133.45 562.9 Q133.45 559.15 131.598 556.997 Q129.769 554.845 126.621 554.845 M135.904 540.192 L135.904 544.451 Q134.144 543.618 132.339 543.178 Q130.556 542.738 128.797 542.738 Q124.168 542.738 121.714 545.863 Q119.283 548.988 118.936 555.308 Q120.302 553.294 122.362 552.229 Q124.422 551.141 126.899 551.141 Q132.107 551.141 135.117 554.312 Q138.149 557.46 138.149 562.9 Q138.149 568.224 135.001 571.442 Q131.853 574.659 126.621 574.659 Q120.626 574.659 117.455 570.076 Q114.283 565.47 114.283 556.743 Q114.283 548.548 118.172 543.687 Q122.061 538.803 128.612 538.803 Q130.371 538.803 132.154 539.15 Q133.959 539.497 135.904 540.192 Z" fill="#000000" fill-rule="nonzero" fill-opacity="1" /><path clip-path="url(#clip130)" d="M116.529 140.035 L116.529 135.775 Q118.288 136.609 120.093 137.048 Q121.899 137.488 123.635 137.488 Q128.265 137.488 130.695 134.386 Q133.149 131.261 133.496 124.919 Q132.154 126.91 130.093 127.974 Q128.033 129.039 125.533 129.039 Q120.348 129.039 117.316 125.914 Q114.306 122.766 114.306 117.326 Q114.306 112.002 117.455 108.785 Q120.603 105.567 125.834 105.567 Q131.83 105.567 134.978 110.174 Q138.149 114.757 138.149 123.507 Q138.149 131.678 134.26 136.562 Q130.394 141.423 123.843 141.423 Q122.084 141.423 120.279 141.076 Q118.473 140.729 116.529 140.035 M125.834 125.382 Q128.982 125.382 130.811 123.229 Q132.663 121.076 132.663 117.326 Q132.663 113.599 130.811 111.447 Q128.982 109.271 125.834 109.271 Q122.686 109.271 120.834 111.447 Q119.006 113.599 119.006 117.326 Q119.006 121.076 120.834 123.229 Q122.686 125.382 125.834 125.382 Z" fill="#000000" fill-rule="nonzero" fill-opacity="1" /><path clip-path="url(#clip130)" d="M16.4842 937.529 L16.4842 910.221 L21.895 910.221 L21.895 931.1 L35.8996 931.1 L35.8996 912.258 L41.3104 912.258 L41.3104 931.1 L64.0042 931.1 L64.0042 937.529 L16.4842 937.529 Z" fill="#000000" fill-rule="nonzero" fill-opacity="1" /><path clip-path="url(#clip130)" d="M33.8307 884.376 Q33.2578 885.362 33.0032 886.54 Q32.7167 887.686 32.7167 889.086 Q32.7167 894.052 35.9632 896.725 Q39.1779 899.367 45.2253 899.367 L64.0042 899.367 L64.0042 905.255 L28.3562 905.255 L28.3562 899.367 L33.8944 899.367 Q30.6479 897.521 29.0883 894.561 Q27.4968 891.601 27.4968 887.368 Q27.4968 886.763 27.5923 886.031 Q27.656 885.299 27.8151 884.408 L33.8307 884.376 Z" fill="#000000" fill-rule="nonzero" fill-opacity="1" /><path clip-path="url(#clip130)" d="M44.7161 849.173 L47.5806 849.173 L47.5806 876.1 Q53.6281 875.718 56.8109 872.472 Q59.9619 869.194 59.9619 863.369 Q59.9619 859.995 59.1344 856.844 Q58.3069 853.661 56.6518 850.542 L62.1899 850.542 Q63.5267 853.693 64.227 857.003 Q64.9272 860.313 64.9272 863.719 Q64.9272 872.249 59.9619 877.246 Q54.9967 882.211 46.5303 882.211 Q37.7774 882.211 32.6531 877.501 Q27.4968 872.758 27.4968 864.738 Q27.4968 857.544 32.1438 853.375 Q36.7589 849.173 44.7161 849.173 M42.9973 855.03 Q38.1912 855.093 35.3266 857.735 Q32.4621 860.345 32.4621 864.674 Q32.4621 869.575 35.2312 872.536 Q38.0002 875.464 43.0292 875.909 L42.9973 855.03 Z" fill="#000000" fill-rule="nonzero" fill-opacity="1" /><path clip-path="url(#clip130)" d="M46.212 836.06 Q52.6732 836.06 56.3653 833.418 Q60.0256 830.745 60.0256 826.098 Q60.0256 821.451 56.3653 818.777 Q52.6732 816.104 46.212 816.104 Q39.7508 816.104 36.0905 818.777 Q32.3984 821.451 32.3984 826.098 Q32.3984 830.745 36.0905 833.418 Q39.7508 836.06 46.212 836.06 M58.657 816.104 Q61.8398 817.95 63.3994 820.782 Q64.9272 823.583 64.9272 827.53 Q64.9272 833.991 59.771 838.065 Q54.6147 842.107 46.212 842.107 Q37.8093 842.107 32.6531 838.065 Q27.4968 833.991 27.4968 827.53 Q27.4968 823.583 29.0564 820.782 Q30.5842 817.95 33.7671 816.104 L28.3562 816.104 L28.3562 810.247 L77.5631 810.247 L77.5631 816.104 L58.657 816.104 Z" fill="#000000" fill-rule="nonzero" fill-opacity="1" /><path clip-path="url(#clip130)" d="M49.9359 798.789 L28.3562 798.789 L28.3562 792.932 L49.7131 792.932 Q54.7739 792.932 57.3202 790.959 Q59.8346 788.986 59.8346 785.039 Q59.8346 780.296 56.8109 777.559 Q53.7872 774.79 48.5673 774.79 L28.3562 774.79 L28.3562 768.934 L64.0042 768.934 L64.0042 774.79 L58.5296 774.79 Q61.7762 776.923 63.3676 779.755 Q64.9272 782.556 64.9272 786.28 Q64.9272 792.423 61.1078 795.606 Q57.2883 798.789 49.9359 798.789 M27.4968 784.052 L27.4968 784.052 Z" fill="#000000" fill-rule="nonzero" fill-opacity="1" /><path clip-path="url(#clip130)" d="M44.7161 726.379 L47.5806 726.379 L47.5806 753.306 Q53.6281 752.924 56.8109 749.677 Q59.9619 746.399 59.9619 740.574 Q59.9619 737.201 59.1344 734.05 Q58.3069 730.867 56.6518 727.748 L62.1899 727.748 Q63.5267 730.899 64.227 734.209 Q64.9272 737.519 64.9272 740.925 Q64.9272 749.455 59.9619 754.452 Q54.9967 759.417 46.5303 759.417 Q37.7774 759.417 32.6531 754.706 Q27.4968 749.964 27.4968 741.943 Q27.4968 734.75 32.1438 730.58 Q36.7589 726.379 44.7161 726.379 M42.9973 732.235 Q38.1912 732.299 35.3266 734.941 Q32.4621 737.551 32.4621 741.879 Q32.4621 746.781 35.2312 749.741 Q38.0002 752.669 43.0292 753.115 L42.9973 732.235 Z" fill="#000000" fill-rule="nonzero" fill-opacity="1" /><path clip-path="url(#clip130)" d="M42.4881 687.134 L64.0042 687.134 L64.0042 692.991 L42.679 692.991 Q37.6183 692.991 35.1038 694.964 Q32.5894 696.938 32.5894 700.884 Q32.5894 705.627 35.6131 708.364 Q38.6368 711.101 43.8567 711.101 L64.0042 711.101 L64.0042 716.989 L28.3562 716.989 L28.3562 711.101 L33.8944 711.101 Q30.6797 709.001 29.0883 706.168 Q27.4968 703.303 27.4968 699.579 Q27.4968 693.436 31.3163 690.285 Q35.1038 687.134 42.4881 687.134 Z" fill="#000000" fill-rule="nonzero" fill-opacity="1" /><path clip-path="url(#clip130)" d="M29.7248 649.799 L35.1993 649.799 Q33.8307 652.282 33.1623 654.797 Q32.4621 657.279 32.4621 659.825 Q32.4621 665.523 36.0905 668.674 Q39.6872 671.825 46.212 671.825 Q52.7369 671.825 56.3653 668.674 Q59.9619 665.523 59.9619 659.825 Q59.9619 657.279 59.2935 654.797 Q58.5933 652.282 57.2247 649.799 L62.6355 649.799 Q63.7814 652.25 64.3543 654.892 Q64.9272 657.502 64.9272 660.462 Q64.9272 668.515 59.8664 673.257 Q54.8057 678 46.212 678 Q37.491 678 32.4939 673.225 Q27.4968 668.419 27.4968 660.08 Q27.4968 657.375 28.0697 654.797 Q28.6108 652.218 29.7248 649.799 Z" fill="#000000" fill-rule="nonzero" fill-opacity="1" /><path clip-path="url(#clip130)" d="M67.3143 624.782 Q73.68 627.265 75.6216 629.62 Q77.5631 631.975 77.5631 635.922 L77.5631 640.601 L72.6615 640.601 L72.6615 637.164 Q72.6615 634.745 71.5157 633.408 Q70.3699 632.071 66.1048 630.448 L63.4312 629.397 L28.3562 643.816 L28.3562 637.609 L56.238 626.469 L28.3562 615.329 L28.3562 609.123 L67.3143 624.782 Z" fill="#000000" fill-rule="nonzero" fill-opacity="1" /><path clip-path="url(#clip130)" d="M340.575 18.8205 L340.575 65.8515 L350.46 65.8515 Q362.977 65.8515 368.77 60.1802 Q374.603 54.509 374.603 42.2752 Q374.603 30.1225 368.77 24.4918 Q362.977 18.8205 350.46 18.8205 L340.575 18.8205 M332.393 12.096 L349.204 12.096 Q366.785 12.096 375.008 19.4281 Q383.231 26.7198 383.231 42.2752 Q383.231 57.9117 374.968 65.2439 Q366.704 72.576 349.204 72.576 L332.393 72.576 L332.393 12.096 Z" fill="#000000" fill-rule="nonzero" fill-opacity="1" /><path clip-path="url(#clip130)" d="M395.951 27.2059 L403.405 27.2059 L403.405 72.576 L395.951 72.576 L395.951 27.2059 M395.951 9.54393 L403.405 9.54393 L403.405 18.9825 L395.951 18.9825 L395.951 9.54393 Z" fill="#000000" fill-rule="nonzero" fill-opacity="1" /><path clip-path="url(#clip130)" d="M441.97 9.54393 L441.97 15.7418 L434.84 15.7418 Q430.83 15.7418 429.25 17.3622 Q427.71 18.9825 427.71 23.1955 L427.71 27.2059 L439.985 27.2059 L439.985 32.9987 L427.71 32.9987 L427.71 72.576 L420.216 72.576 L420.216 32.9987 L413.087 32.9987 L413.087 27.2059 L420.216 27.2059 L420.216 24.0462 Q420.216 16.471 423.74 13.0277 Q427.265 9.54393 434.921 9.54393 L441.97 9.54393 Z" fill="#000000" fill-rule="nonzero" fill-opacity="1" /><path clip-path="url(#clip130)" d="M471.177 9.54393 L471.177 15.7418 L464.047 15.7418 Q460.037 15.7418 458.457 17.3622 Q456.917 18.9825 456.917 23.1955 L456.917 27.2059 L469.192 27.2059 L469.192 32.9987 L456.917 32.9987 L456.917 72.576 L449.423 72.576 L449.423 32.9987 L442.294 32.9987 L442.294 27.2059 L449.423 27.2059 L449.423 24.0462 Q449.423 16.471 452.947 13.0277 Q456.472 9.54393 464.128 9.54393 L471.177 9.54393 Z" fill="#000000" fill-rule="nonzero" fill-opacity="1" /><path clip-path="url(#clip130)" d="M516.223 48.0275 L516.223 51.6733 L481.952 51.6733 Q482.438 59.3701 486.57 63.421 Q490.742 67.4314 498.156 67.4314 Q502.45 67.4314 506.46 66.3781 Q510.511 65.3249 514.481 63.2184 L514.481 70.267 Q510.47 71.9684 506.257 72.8596 Q502.044 73.7508 497.71 73.7508 Q486.854 73.7508 480.494 67.4314 Q474.174 61.1119 474.174 50.3365 Q474.174 39.1965 480.17 32.6746 Q486.205 26.1121 496.414 26.1121 Q505.569 26.1121 510.875 32.0264 Q516.223 37.9003 516.223 48.0275 M508.769 45.84 Q508.688 39.7232 505.326 36.0774 Q502.004 32.4315 496.495 32.4315 Q490.256 32.4315 486.489 35.9558 Q482.762 39.4801 482.195 45.8805 L508.769 45.84 Z" fill="#000000" fill-rule="nonzero" fill-opacity="1" /><path clip-path="url(#clip130)" d="M554.747 34.1734 Q553.491 33.4443 551.992 33.1202 Q550.534 32.7556 548.751 32.7556 Q542.432 32.7556 539.029 36.8875 Q535.667 40.9789 535.667 48.6757 L535.667 72.576 L528.173 72.576 L528.173 27.2059 L535.667 27.2059 L535.667 34.2544 Q538.016 30.1225 541.784 28.1376 Q545.551 26.1121 550.939 26.1121 Q551.709 26.1121 552.64 26.2337 Q553.572 26.3147 554.706 26.5172 L554.747 34.1734 Z" fill="#000000" fill-rule="nonzero" fill-opacity="1" /><path clip-path="url(#clip130)" d="M599.55 48.0275 L599.55 51.6733 L565.279 51.6733 Q565.765 59.3701 569.897 63.421 Q574.07 67.4314 581.483 67.4314 Q585.777 67.4314 589.787 66.3781 Q593.838 65.3249 597.808 63.2184 L597.808 70.267 Q593.797 71.9684 589.584 72.8596 Q585.372 73.7508 581.037 73.7508 Q570.181 73.7508 563.821 67.4314 Q557.501 61.1119 557.501 50.3365 Q557.501 39.1965 563.497 32.6746 Q569.533 26.1121 579.741 26.1121 Q588.896 26.1121 594.203 32.0264 Q599.55 37.9003 599.55 48.0275 M592.096 45.84 Q592.015 39.7232 588.653 36.0774 Q585.331 32.4315 579.822 32.4315 Q573.583 32.4315 569.816 35.9558 Q566.089 39.4801 565.522 45.8805 L592.096 45.84 Z" fill="#000000" fill-rule="nonzero" fill-opacity="1" /><path clip-path="url(#clip130)" d="M649.497 45.1919 L649.497 72.576 L642.044 72.576 L642.044 45.4349 Q642.044 38.994 639.532 35.7938 Q637.021 32.5936 631.997 32.5936 Q625.962 32.5936 622.478 36.4419 Q618.994 40.2903 618.994 46.9338 L618.994 72.576 L611.5 72.576 L611.5 27.2059 L618.994 27.2059 L618.994 34.2544 Q621.668 30.163 625.273 28.1376 Q628.919 26.1121 633.658 26.1121 Q641.477 26.1121 645.487 30.9732 Q649.497 35.7938 649.497 45.1919 Z" fill="#000000" fill-rule="nonzero" fill-opacity="1" /><path clip-path="url(#clip130)" d="M697.014 28.9478 L697.014 35.9153 Q693.855 34.1734 690.655 33.3227 Q687.495 32.4315 684.254 32.4315 Q677.003 32.4315 672.993 37.0496 Q668.982 41.6271 668.982 49.9314 Q668.982 58.2358 672.993 62.8538 Q677.003 67.4314 684.254 67.4314 Q687.495 67.4314 690.655 66.5807 Q693.855 65.6895 697.014 63.9476 L697.014 70.8341 Q693.895 72.2924 690.533 73.0216 Q687.211 73.7508 683.444 73.7508 Q673.195 73.7508 667.159 67.3098 Q661.123 60.8689 661.123 49.9314 Q661.123 38.832 667.2 32.472 Q673.317 26.1121 683.93 26.1121 Q687.373 26.1121 690.655 26.8413 Q693.936 27.5299 697.014 28.9478 Z" fill="#000000" fill-rule="nonzero" fill-opacity="1" /><path clip-path="url(#clip130)" d="M748.785 48.0275 L748.785 51.6733 L714.514 51.6733 Q715 59.3701 719.132 63.421 Q723.305 67.4314 730.718 67.4314 Q735.012 67.4314 739.022 66.3781 Q743.073 65.3249 747.043 63.2184 L747.043 70.267 Q743.033 71.9684 738.82 72.8596 Q734.607 73.7508 730.272 73.7508 Q719.416 73.7508 713.056 67.4314 Q706.737 61.1119 706.737 50.3365 Q706.737 39.1965 712.732 32.6746 Q718.768 26.1121 728.976 26.1121 Q738.131 26.1121 743.438 32.0264 Q748.785 37.9003 748.785 48.0275 M741.331 45.84 Q741.25 39.7232 737.888 36.0774 Q734.566 32.4315 729.057 32.4315 Q722.819 32.4315 719.051 35.9558 Q715.325 39.4801 714.757 45.8805 L741.331 45.84 Z" fill="#000000" fill-rule="nonzero" fill-opacity="1" /><path clip-path="url(#clip130)" d="M819.959 49.9314 Q819.959 41.7081 816.557 37.0496 Q813.194 32.3505 807.28 32.3505 Q801.366 32.3505 797.963 37.0496 Q794.601 41.7081 794.601 49.9314 Q794.601 58.1548 797.963 62.8538 Q801.366 67.5124 807.28 67.5124 Q813.194 67.5124 816.557 62.8538 Q819.959 58.1548 819.959 49.9314 M794.601 34.0924 Q796.95 30.0415 800.515 28.0971 Q804.12 26.1121 809.103 26.1121 Q817.367 26.1121 822.511 32.6746 Q827.697 39.2371 827.697 49.9314 Q827.697 60.6258 822.511 67.1883 Q817.367 73.7508 809.103 73.7508 Q804.12 73.7508 800.515 71.8063 Q796.95 69.8214 794.601 65.7705 L794.601 72.576 L787.107 72.576 L787.107 9.54393 L794.601 9.54393 L794.601 34.0924 Z" fill="#000000" fill-rule="nonzero" fill-opacity="1" /><path clip-path="url(#clip130)" d="M878.86 48.0275 L878.86 51.6733 L844.589 51.6733 Q845.075 59.3701 849.207 63.421 Q853.379 67.4314 860.793 67.4314 Q865.086 67.4314 869.097 66.3781 Q873.148 65.3249 877.118 63.2184 L877.118 70.267 Q873.107 71.9684 868.894 72.8596 Q864.681 73.7508 860.347 73.7508 Q849.491 73.7508 843.131 67.4314 Q836.811 61.1119 836.811 50.3365 Q836.811 39.1965 842.807 32.6746 Q848.842 26.1121 859.051 26.1121 Q868.206 26.1121 873.512 32.0264 Q878.86 37.9003 878.86 48.0275 M871.406 45.84 Q871.325 39.7232 867.963 36.0774 Q864.641 32.4315 859.132 32.4315 Q852.893 32.4315 849.126 35.9558 Q845.399 39.4801 844.832 45.8805 L871.406 45.84 Z" fill="#000000" fill-rule="nonzero" fill-opacity="1" /><path clip-path="url(#clip130)" d="M898.466 14.324 L898.466 27.2059 L913.819 27.2059 L913.819 32.9987 L898.466 32.9987 L898.466 57.6282 Q898.466 63.1779 899.965 64.7578 Q901.504 66.3376 906.163 66.3376 L913.819 66.3376 L913.819 72.576 L906.163 72.576 Q897.534 72.576 894.253 69.3758 Q890.972 66.1351 890.972 57.6282 L890.972 32.9987 L885.503 32.9987 L885.503 27.2059 L890.972 27.2059 L890.972 14.324 L898.466 14.324 Z" fill="#000000" fill-rule="nonzero" fill-opacity="1" /><path clip-path="url(#clip130)" d="M919.288 27.2059 L926.741 27.2059 L936.058 62.6108 L945.335 27.2059 L954.125 27.2059 L963.442 62.6108 L972.719 27.2059 L980.173 27.2059 L968.304 72.576 L959.513 72.576 L949.75 35.3887 L939.947 72.576 L931.157 72.576 L919.288 27.2059 Z" fill="#000000" fill-rule="nonzero" fill-opacity="1" /><path clip-path="url(#clip130)" d="M1030.28 48.0275 L1030.28 51.6733 L996.012 51.6733 Q996.498 59.3701 1000.63 63.421 Q1004.8 67.4314 1012.22 67.4314 Q1016.51 67.4314 1020.52 66.3781 Q1024.57 65.3249 1028.54 63.2184 L1028.54 70.267 Q1024.53 71.9684 1020.32 72.8596 Q1016.1 73.7508 1011.77 73.7508 Q1000.91 73.7508 994.553 67.4314 Q988.234 61.1119 988.234 50.3365 Q988.234 39.1965 994.229 32.6746 Q1000.27 26.1121 1010.47 26.1121 Q1019.63 26.1121 1024.94 32.0264 Q1030.28 37.9003 1030.28 48.0275 M1022.83 45.84 Q1022.75 39.7232 1019.39 36.0774 Q1016.06 32.4315 1010.55 32.4315 Q1004.32 32.4315 1000.55 35.9558 Q996.822 39.4801 996.255 45.8805 L1022.83 45.84 Z" fill="#000000" fill-rule="nonzero" fill-opacity="1" /><path clip-path="url(#clip130)" d="M1081.32 48.0275 L1081.32 51.6733 L1047.05 51.6733 Q1047.54 59.3701 1051.67 63.421 Q1055.84 67.4314 1063.26 67.4314 Q1067.55 67.4314 1071.56 66.3781 Q1075.61 65.3249 1079.58 63.2184 L1079.58 70.267 Q1075.57 71.9684 1071.36 72.8596 Q1067.15 73.7508 1062.81 73.7508 Q1051.95 73.7508 1045.59 67.4314 Q1039.28 61.1119 1039.28 50.3365 Q1039.28 39.1965 1045.27 32.6746 Q1051.31 26.1121 1061.51 26.1121 Q1070.67 26.1121 1075.98 32.0264 Q1081.32 37.9003 1081.32 48.0275 M1073.87 45.84 Q1073.79 39.7232 1070.43 36.0774 Q1067.11 32.4315 1061.6 32.4315 Q1055.36 32.4315 1051.59 35.9558 Q1047.86 39.4801 1047.3 45.8805 L1073.87 45.84 Z" fill="#000000" fill-rule="nonzero" fill-opacity="1" /><path clip-path="url(#clip130)" d="M1131.27 45.1919 L1131.27 72.576 L1123.82 72.576 L1123.82 45.4349 Q1123.82 38.994 1121.31 35.7938 Q1118.79 32.5936 1113.77 32.5936 Q1107.74 32.5936 1104.25 36.4419 Q1100.77 40.2903 1100.77 46.9338 L1100.77 72.576 L1093.27 72.576 L1093.27 27.2059 L1100.77 27.2059 L1100.77 34.2544 Q1103.44 30.163 1107.05 28.1376 Q1110.69 26.1121 1115.43 26.1121 Q1123.25 26.1121 1127.26 30.9732 Q1131.27 35.7938 1131.27 45.1919 Z" fill="#000000" fill-rule="nonzero" fill-opacity="1" /><path clip-path="url(#clip130)" d="M1172.51 9.54393 L1179.96 9.54393 L1179.96 72.576 L1172.51 72.576 L1172.51 9.54393 Z" fill="#000000" fill-rule="nonzero" fill-opacity="1" /><path clip-path="url(#clip130)" d="M1234.37 48.0275 L1234.37 51.6733 L1200.1 51.6733 Q1200.58 59.3701 1204.71 63.421 Q1208.89 67.4314 1216.3 67.4314 Q1220.59 67.4314 1224.6 66.3781 Q1228.66 65.3249 1232.63 63.2184 L1232.63 70.267 Q1228.61 71.9684 1224.4 72.8596 Q1220.19 73.7508 1215.85 73.7508 Q1205 73.7508 1198.64 67.4314 Q1192.32 61.1119 1192.32 50.3365 Q1192.32 39.1965 1198.31 32.6746 Q1204.35 26.1121 1214.56 26.1121 Q1223.71 26.1121 1229.02 32.0264 Q1234.37 37.9003 1234.37 48.0275 M1226.91 45.84 Q1226.83 39.7232 1223.47 36.0774 Q1220.15 32.4315 1214.64 32.4315 Q1208.4 32.4315 1204.63 35.9558 Q1200.91 39.4801 1200.34 45.8805 L1226.91 45.84 Z" fill="#000000" fill-rule="nonzero" fill-opacity="1" /><path clip-path="url(#clip130)" d="M1267.22 49.7694 Q1258.19 49.7694 1254.7 51.8354 Q1251.22 53.9013 1251.22 58.8839 Q1251.22 62.8538 1253.81 65.2034 Q1256.44 67.5124 1260.94 67.5124 Q1267.14 67.5124 1270.87 63.1374 Q1274.63 58.7219 1274.63 51.4303 L1274.63 49.7694 L1267.22 49.7694 M1282.09 46.6907 L1282.09 72.576 L1274.63 72.576 L1274.63 65.6895 Q1272.08 69.8214 1268.27 71.8063 Q1264.47 73.7508 1258.96 73.7508 Q1251.99 73.7508 1247.86 69.8619 Q1243.77 65.9325 1243.77 59.3701 Q1243.77 51.7138 1248.87 47.825 Q1254.01 43.9361 1264.18 43.9361 L1274.63 43.9361 L1274.63 43.2069 Q1274.63 38.0623 1271.23 35.2672 Q1267.87 32.4315 1261.75 32.4315 Q1257.86 32.4315 1254.18 33.3632 Q1250.49 34.295 1247.09 36.1584 L1247.09 29.2718 Q1251.18 27.692 1255.03 26.9223 Q1258.87 26.1121 1262.52 26.1121 Q1272.36 26.1121 1277.23 31.2163 Q1282.09 36.3204 1282.09 46.6907 Z" fill="#000000" fill-rule="nonzero" fill-opacity="1" /><path clip-path="url(#clip130)" d="M1327.29 34.0924 L1327.29 9.54393 L1334.75 9.54393 L1334.75 72.576 L1327.29 72.576 L1327.29 65.7705 Q1324.95 69.8214 1321.34 71.8063 Q1317.78 73.7508 1312.75 73.7508 Q1304.53 73.7508 1299.34 67.1883 Q1294.2 60.6258 1294.2 49.9314 Q1294.2 39.2371 1299.34 32.6746 Q1304.53 26.1121 1312.75 26.1121 Q1317.78 26.1121 1321.34 28.0971 Q1324.95 30.0415 1327.29 34.0924 M1301.9 49.9314 Q1301.9 58.1548 1305.26 62.8538 Q1308.66 67.5124 1314.57 67.5124 Q1320.49 67.5124 1323.89 62.8538 Q1327.29 58.1548 1327.29 49.9314 Q1327.29 41.7081 1323.89 37.0496 Q1320.49 32.3505 1314.57 32.3505 Q1308.66 32.3505 1305.26 37.0496 Q1301.9 41.7081 1301.9 49.9314 Z" fill="#000000" fill-rule="nonzero" fill-opacity="1" /><path clip-path="url(#clip130)" d="M1388.91 48.0275 L1388.91 51.6733 L1354.64 51.6733 Q1355.12 59.3701 1359.26 63.421 Q1363.43 67.4314 1370.84 67.4314 Q1375.14 67.4314 1379.15 66.3781 Q1383.2 65.3249 1387.17 63.2184 L1387.17 70.267 Q1383.16 71.9684 1378.94 72.8596 Q1374.73 73.7508 1370.4 73.7508 Q1359.54 73.7508 1353.18 67.4314 Q1346.86 61.1119 1346.86 50.3365 Q1346.86 39.1965 1352.86 32.6746 Q1358.89 26.1121 1369.1 26.1121 Q1378.26 26.1121 1383.56 32.0264 Q1388.91 37.9003 1388.91 48.0275 M1381.46 45.84 Q1381.37 39.7232 1378.01 36.0774 Q1374.69 32.4315 1369.18 32.4315 Q1362.94 32.4315 1359.18 35.9558 Q1355.45 39.4801 1354.88 45.8805 L1381.46 45.84 Z" fill="#000000" fill-rule="nonzero" fill-opacity="1" /><path clip-path="url(#clip130)" d="M1427.43 34.1734 Q1426.18 33.4443 1424.68 33.1202 Q1423.22 32.7556 1421.44 32.7556 Q1415.12 32.7556 1411.72 36.8875 Q1408.35 40.9789 1408.35 48.6757 L1408.35 72.576 L1400.86 72.576 L1400.86 27.2059 L1408.35 27.2059 L1408.35 34.2544 Q1410.7 30.1225 1414.47 28.1376 Q1418.24 26.1121 1423.63 26.1121 Q1424.39 26.1121 1425.33 26.2337 Q1426.26 26.3147 1427.39 26.5172 L1427.43 34.1734 Z" fill="#000000" fill-rule="nonzero" fill-opacity="1" /><path clip-path="url(#clip130)" d="M1482.24 49.7694 Q1473.21 49.7694 1469.72 51.8354 Q1466.24 53.9013 1466.24 58.8839 Q1466.24 62.8538 1468.83 65.2034 Q1471.47 67.5124 1475.96 67.5124 Q1482.16 67.5124 1485.89 63.1374 Q1489.65 58.7219 1489.65 51.4303 L1489.65 49.7694 L1482.24 49.7694 M1497.11 46.6907 L1497.11 72.576 L1489.65 72.576 L1489.65 65.6895 Q1487.1 69.8214 1483.29 71.8063 Q1479.49 73.7508 1473.98 73.7508 Q1467.01 73.7508 1462.88 69.8619 Q1458.79 65.9325 1458.79 59.3701 Q1458.79 51.7138 1463.89 47.825 Q1469.04 43.9361 1479.2 43.9361 L1489.65 43.9361 L1489.65 43.2069 Q1489.65 38.0623 1486.25 35.2672 Q1482.89 32.4315 1476.77 32.4315 Q1472.88 32.4315 1469.2 33.3632 Q1465.51 34.295 1462.11 36.1584 L1462.11 29.2718 Q1466.2 27.692 1470.05 26.9223 Q1473.9 26.1121 1477.54 26.1121 Q1487.39 26.1121 1492.25 31.2163 Q1497.11 36.3204 1497.11 46.6907 Z" fill="#000000" fill-rule="nonzero" fill-opacity="1" /><path clip-path="url(#clip130)" d="M1550.18 45.1919 L1550.18 72.576 L1542.72 72.576 L1542.72 45.4349 Q1542.72 38.994 1540.21 35.7938 Q1537.7 32.5936 1532.68 32.5936 Q1526.64 32.5936 1523.16 36.4419 Q1519.67 40.2903 1519.67 46.9338 L1519.67 72.576 L1512.18 72.576 L1512.18 27.2059 L1519.67 27.2059 L1519.67 34.2544 Q1522.35 30.163 1525.95 28.1376 Q1529.6 26.1121 1534.34 26.1121 Q1542.15 26.1121 1546.17 30.9732 Q1550.18 35.7938 1550.18 45.1919 Z" fill="#000000" fill-rule="nonzero" fill-opacity="1" /><path clip-path="url(#clip130)" d="M1594.9 34.0924 L1594.9 9.54393 L1602.35 9.54393 L1602.35 72.576 L1594.9 72.576 L1594.9 65.7705 Q1592.55 69.8214 1588.94 71.8063 Q1585.38 73.7508 1580.35 73.7508 Q1572.13 73.7508 1566.95 67.1883 Q1561.8 60.6258 1561.8 49.9314 Q1561.8 39.2371 1566.95 32.6746 Q1572.13 26.1121 1580.35 26.1121 Q1585.38 26.1121 1588.94 28.0971 Q1592.55 30.0415 1594.9 34.0924 M1569.5 49.9314 Q1569.5 58.1548 1572.86 62.8538 Q1576.26 67.5124 1582.18 67.5124 Q1588.09 67.5124 1591.49 62.8538 Q1594.9 58.1548 1594.9 49.9314 Q1594.9 41.7081 1591.49 37.0496 Q1588.09 32.3505 1582.18 32.3505 Q1576.26 32.3505 1572.86 37.0496 Q1569.5 41.7081 1569.5 49.9314 Z" fill="#000000" fill-rule="nonzero" fill-opacity="1" /><path clip-path="url(#clip130)" d="M1667.04 9.54393 L1667.04 15.7418 L1659.91 15.7418 Q1655.9 15.7418 1654.32 17.3622 Q1652.78 18.9825 1652.78 23.1955 L1652.78 27.2059 L1665.06 27.2059 L1665.06 32.9987 L1652.78 32.9987 L1652.78 72.576 L1645.29 72.576 L1645.29 32.9987 L1638.16 32.9987 L1638.16 27.2059 L1645.29 27.2059 L1645.29 24.0462 Q1645.29 16.471 1648.81 13.0277 Q1652.34 9.54393 1660 9.54393 L1667.04 9.54393 Z" fill="#000000" fill-rule="nonzero" fill-opacity="1" /><path clip-path="url(#clip130)" d="M1690.86 32.4315 Q1684.87 32.4315 1681.38 37.1306 Q1677.9 41.7891 1677.9 49.9314 Q1677.9 58.0738 1681.34 62.7728 Q1684.83 67.4314 1690.86 67.4314 Q1696.82 67.4314 1700.3 62.7323 Q1703.79 58.0333 1703.79 49.9314 Q1703.79 41.8701 1700.3 37.1711 Q1696.82 32.4315 1690.86 32.4315 M1690.86 26.1121 Q1700.59 26.1121 1706.14 32.4315 Q1711.68 38.7509 1711.68 49.9314 Q1711.68 61.0714 1706.14 67.4314 Q1700.59 73.7508 1690.86 73.7508 Q1681.1 73.7508 1675.55 67.4314 Q1670.04 61.0714 1670.04 49.9314 Q1670.04 38.7509 1675.55 32.4315 Q1681.1 26.1121 1690.86 26.1121 Z" fill="#000000" fill-rule="nonzero" fill-opacity="1" /><path clip-path="url(#clip130)" d="M1724.04 9.54393 L1731.49 9.54393 L1731.49 72.576 L1724.04 72.576 L1724.04 9.54393 Z" fill="#000000" fill-rule="nonzero" fill-opacity="1" /><path clip-path="url(#clip130)" d="M1747.09 9.54393 L1754.54 9.54393 L1754.54 72.576 L1747.09 72.576 L1747.09 9.54393 Z" fill="#000000" fill-rule="nonzero" fill-opacity="1" /><path clip-path="url(#clip130)" d="M1787.72 32.4315 Q1781.73 32.4315 1778.24 37.1306 Q1774.76 41.7891 1774.76 49.9314 Q1774.76 58.0738 1778.2 62.7728 Q1781.68 67.4314 1787.72 67.4314 Q1793.68 67.4314 1797.16 62.7323 Q1800.64 58.0333 1800.64 49.9314 Q1800.64 41.8701 1797.16 37.1711 Q1793.68 32.4315 1787.72 32.4315 M1787.72 26.1121 Q1797.44 26.1121 1802.99 32.4315 Q1808.54 38.7509 1808.54 49.9314 Q1808.54 61.0714 1802.99 67.4314 Q1797.44 73.7508 1787.72 73.7508 Q1777.96 73.7508 1772.41 67.4314 Q1766.9 61.0714 1766.9 49.9314 Q1766.9 38.7509 1772.41 32.4315 Q1777.96 26.1121 1787.72 26.1121 Z" fill="#000000" fill-rule="nonzero" fill-opacity="1" /><path clip-path="url(#clip130)" d="M1816.56 27.2059 L1824.02 27.2059 L1833.33 62.6108 L1842.61 27.2059 L1851.4 27.2059 L1860.72 62.6108 L1869.99 27.2059 L1877.45 27.2059 L1865.58 72.576 L1856.79 72.576 L1847.03 35.3887 L1837.22 72.576 L1828.43 72.576 L1816.56 27.2059 Z" fill="#000000" fill-rule="nonzero" fill-opacity="1" /><path clip-path="url(#clip130)" d="M1927.56 48.0275 L1927.56 51.6733 L1893.29 51.6733 Q1893.77 59.3701 1897.91 63.421 Q1902.08 67.4314 1909.49 67.4314 Q1913.78 67.4314 1917.79 66.3781 Q1921.85 65.3249 1925.82 63.2184 L1925.82 70.267 Q1921.81 71.9684 1917.59 72.8596 Q1913.38 73.7508 1909.05 73.7508 Q1898.19 73.7508 1891.83 67.4314 Q1885.51 61.1119 1885.51 50.3365 Q1885.51 39.1965 1891.5 32.6746 Q1897.54 26.1121 1907.75 26.1121 Q1916.9 26.1121 1922.21 32.0264 Q1927.56 37.9003 1927.56 48.0275 M1920.1 45.84 Q1920.02 39.7232 1916.66 36.0774 Q1913.34 32.4315 1907.83 32.4315 Q1901.59 32.4315 1897.82 35.9558 Q1894.1 39.4801 1893.53 45.8805 L1920.1 45.84 Z" fill="#000000" fill-rule="nonzero" fill-opacity="1" /><path clip-path="url(#clip130)" d="M1966.08 34.1734 Q1964.83 33.4443 1963.33 33.1202 Q1961.87 32.7556 1960.09 32.7556 Q1953.77 32.7556 1950.36 36.8875 Q1947 40.9789 1947 48.6757 L1947 72.576 L1939.51 72.576 L1939.51 27.2059 L1947 27.2059 L1947 34.2544 Q1949.35 30.1225 1953.12 28.1376 Q1956.89 26.1121 1962.27 26.1121 Q1963.04 26.1121 1963.98 26.2337 Q1964.91 26.3147 1966.04 26.5172 L1966.08 34.1734 Z" fill="#000000" fill-rule="nonzero" fill-opacity="1" /><path clip-path="url(#clip130)" d="M2007.48 65.7705 L2007.48 89.8329 L1999.99 89.8329 L1999.99 27.2059 L2007.48 27.2059 L2007.48 34.0924 Q2009.83 30.0415 2013.4 28.0971 Q2017 26.1121 2021.98 26.1121 Q2030.25 26.1121 2035.39 32.6746 Q2040.58 39.2371 2040.58 49.9314 Q2040.58 60.6258 2035.39 67.1883 Q2030.25 73.7508 2021.98 73.7508 Q2017 73.7508 2013.4 71.8063 Q2009.83 69.8214 2007.48 65.7705 M2032.84 49.9314 Q2032.84 41.7081 2029.44 37.0496 Q2026.08 32.3505 2020.16 32.3505 Q2014.25 32.3505 2010.84 37.0496 Q2007.48 41.7081 2007.48 49.9314 Q2007.48 58.1548 2010.84 62.8538 Q2014.25 67.5124 2020.16 67.5124 Q2026.08 67.5124 2029.44 62.8538 Q2032.84 58.1548 2032.84 49.9314 Z" fill="#000000" fill-rule="nonzero" fill-opacity="1" /><path clip-path="url(#clip130)" d="M2079.22 34.1734 Q2077.97 33.4443 2076.47 33.1202 Q2075.01 32.7556 2073.23 32.7556 Q2066.91 32.7556 2063.51 36.8875 Q2060.14 40.9789 2060.14 48.6757 L2060.14 72.576 L2052.65 72.576 L2052.65 27.2059 L2060.14 27.2059 L2060.14 34.2544 Q2062.49 30.1225 2066.26 28.1376 Q2070.03 26.1121 2075.42 26.1121 Q2076.19 26.1121 2077.12 26.2337 Q2078.05 26.3147 2079.18 26.5172 L2079.22 34.1734 Z" fill="#000000" fill-rule="nonzero" fill-opacity="1" /><path clip-path="url(#clip130)" d="M2087.04 27.2059 L2094.5 27.2059 L2094.5 72.576 L2087.04 72.576 L2087.04 27.2059 M2087.04 9.54393 L2094.5 9.54393 L2094.5 18.9825 L2087.04 18.9825 L2087.04 9.54393 Z" fill="#000000" fill-rule="nonzero" fill-opacity="1" /><path clip-path="url(#clip130)" d="M2142.74 28.9478 L2142.74 35.9153 Q2139.58 34.1734 2136.38 33.3227 Q2133.22 32.4315 2129.98 32.4315 Q2122.73 32.4315 2118.72 37.0496 Q2114.71 41.6271 2114.71 49.9314 Q2114.71 58.2358 2118.72 62.8538 Q2122.73 67.4314 2129.98 67.4314 Q2133.22 67.4314 2136.38 66.5807 Q2139.58 65.6895 2142.74 63.9476 L2142.74 70.8341 Q2139.62 72.2924 2136.26 73.0216 Q2132.94 73.7508 2129.17 73.7508 Q2118.92 73.7508 2112.89 67.3098 Q2106.85 60.8689 2106.85 49.9314 Q2106.85 38.832 2112.93 32.472 Q2119.04 26.1121 2129.66 26.1121 Q2133.1 26.1121 2136.38 26.8413 Q2139.66 27.5299 2142.74 28.9478 Z" fill="#000000" fill-rule="nonzero" fill-opacity="1" /><path clip-path="url(#clip130)" d="M2194.51 48.0275 L2194.51 51.6733 L2160.24 51.6733 Q2160.73 59.3701 2164.86 63.421 Q2169.03 67.4314 2176.45 67.4314 Q2180.74 67.4314 2184.75 66.3781 Q2188.8 65.3249 2192.77 63.2184 L2192.77 70.267 Q2188.76 71.9684 2184.55 72.8596 Q2180.33 73.7508 2176 73.7508 Q2165.14 73.7508 2158.78 67.4314 Q2152.46 61.1119 2152.46 50.3365 Q2152.46 39.1965 2158.46 32.6746 Q2164.5 26.1121 2174.7 26.1121 Q2183.86 26.1121 2189.17 32.0264 Q2194.51 37.9003 2194.51 48.0275 M2187.06 45.84 Q2186.98 39.7232 2183.62 36.0774 Q2180.29 32.4315 2174.78 32.4315 Q2168.55 32.4315 2164.78 35.9558 Q2161.05 39.4801 2160.48 45.8805 L2187.06 45.84 Z" fill="#000000" fill-rule="nonzero" fill-opacity="1" /><path clip-path="url(#clip132)" d="M293.976 1423.18 L293.976 1423.18 L332.755 1423.18 L332.755 1423.18 L293.976 1423.18 L293.976 1423.18  Z" fill="#009af9" fill-rule="evenodd" fill-opacity="1"/>
<polyline clip-path="url(#clip132)" style="stroke:#000000; stroke-linecap:round; stroke-linejoin:round; stroke-width:4; stroke-opacity:1; fill:none" points="293.976,1423.18 293.976,1423.18 332.755,1423.18 293.976,1423.18 "/>
<path clip-path="url(#clip132)" d="M332.755 1423.18 L332.755 1423.18 L371.534 1423.18 L371.534 1423.18 L332.755 1423.18 L332.755 1423.18  Z" fill="#009af9" fill-rule="evenodd" fill-opacity="1"/>
<polyline clip-path="url(#clip132)" style="stroke:#000000; stroke-linecap:round; stroke-linejoin:round; stroke-width:4; stroke-opacity:1; fill:none" points="332.755,1423.18 332.755,1423.18 371.534,1423.18 332.755,1423.18 "/>
<path clip-path="url(#clip132)" d="M371.534 1423.18 L371.534 1423.18 L410.313 1423.18 L410.313 1423.18 L371.534 1423.18 L371.534 1423.18  Z" fill="#009af9" fill-rule="evenodd" fill-opacity="1"/>
<polyline clip-path="url(#clip132)" style="stroke:#000000; stroke-linecap:round; stroke-linejoin:round; stroke-width:4; stroke-opacity:1; fill:none" points="371.534,1423.18 371.534,1423.18 410.313,1423.18 371.534,1423.18 "/>
<path clip-path="url(#clip132)" d="M410.313 1423.18 L410.313 1423.18 L449.092 1423.18 L449.092 1423.18 L410.313 1423.18 L410.313 1423.18  Z" fill="#009af9" fill-rule="evenodd" fill-opacity="1"/>
<polyline clip-path="url(#clip132)" style="stroke:#000000; stroke-linecap:round; stroke-linejoin:round; stroke-width:4; stroke-opacity:1; fill:none" points="410.313,1423.18 410.313,1423.18 449.092,1423.18 410.313,1423.18 "/>
<path clip-path="url(#clip132)" d="M449.092 1278.77 L449.092 1423.18 L487.871 1423.18 L487.871 1278.77 L449.092 1278.77 L449.092 1278.77  Z" fill="#009af9" fill-rule="evenodd" fill-opacity="1"/>
<polyline clip-path="url(#clip132)" style="stroke:#000000; stroke-linecap:round; stroke-linejoin:round; stroke-width:4; stroke-opacity:1; fill:none" points="449.092,1278.77 449.092,1423.18 487.871,1423.18 487.871,1278.77 449.092,1278.77 "/>
<path clip-path="url(#clip132)" d="M487.871 1423.18 L487.871 1423.18 L526.65 1423.18 L526.65 1423.18 L487.871 1423.18 L487.871 1423.18  Z" fill="#009af9" fill-rule="evenodd" fill-opacity="1"/>
<polyline clip-path="url(#clip132)" style="stroke:#000000; stroke-linecap:round; stroke-linejoin:round; stroke-width:4; stroke-opacity:1; fill:none" points="487.871,1423.18 487.871,1423.18 526.65,1423.18 487.871,1423.18 "/>
<path clip-path="url(#clip132)" d="M526.65 1423.18 L526.65 1423.18 L565.43 1423.18 L565.43 1423.18 L526.65 1423.18 L526.65 1423.18  Z" fill="#009af9" fill-rule="evenodd" fill-opacity="1"/>
<polyline clip-path="url(#clip132)" style="stroke:#000000; stroke-linecap:round; stroke-linejoin:round; stroke-width:4; stroke-opacity:1; fill:none" points="526.65,1423.18 526.65,1423.18 565.43,1423.18 526.65,1423.18 "/>
<path clip-path="url(#clip132)" d="M565.43 1423.18 L565.43 1423.18 L604.209 1423.18 L604.209 1423.18 L565.43 1423.18 L565.43 1423.18  Z" fill="#009af9" fill-rule="evenodd" fill-opacity="1"/>
<polyline clip-path="url(#clip132)" style="stroke:#000000; stroke-linecap:round; stroke-linejoin:round; stroke-width:4; stroke-opacity:1; fill:none" points="565.43,1423.18 565.43,1423.18 604.209,1423.18 565.43,1423.18 "/>
<path clip-path="url(#clip132)" d="M604.209 1278.77 L604.209 1423.18 L642.988 1423.18 L642.988 1278.77 L604.209 1278.77 L604.209 1278.77  Z" fill="#009af9" fill-rule="evenodd" fill-opacity="1"/>
<polyline clip-path="url(#clip132)" style="stroke:#000000; stroke-linecap:round; stroke-linejoin:round; stroke-width:4; stroke-opacity:1; fill:none" points="604.209,1278.77 604.209,1423.18 642.988,1423.18 642.988,1278.77 604.209,1278.77 "/>
<path clip-path="url(#clip132)" d="M642.988 989.944 L642.988 1423.18 L681.767 1423.18 L681.767 989.944 L642.988 989.944 L642.988 989.944  Z" fill="#009af9" fill-rule="evenodd" fill-opacity="1"/>
<polyline clip-path="url(#clip132)" style="stroke:#000000; stroke-linecap:round; stroke-linejoin:round; stroke-width:4; stroke-opacity:1; fill:none" points="642.988,989.944 642.988,1423.18 681.767,1423.18 681.767,989.944 642.988,989.944 "/>
<path clip-path="url(#clip132)" d="M681.767 1278.77 L681.767 1423.18 L720.546 1423.18 L720.546 1278.77 L681.767 1278.77 L681.767 1278.77  Z" fill="#009af9" fill-rule="evenodd" fill-opacity="1"/>
<polyline clip-path="url(#clip132)" style="stroke:#000000; stroke-linecap:round; stroke-linejoin:round; stroke-width:4; stroke-opacity:1; fill:none" points="681.767,1278.77 681.767,1423.18 720.546,1423.18 720.546,1278.77 681.767,1278.77 "/>
<path clip-path="url(#clip132)" d="M720.546 1134.36 L720.546 1423.18 L759.325 1423.18 L759.325 1134.36 L720.546 1134.36 L720.546 1134.36  Z" fill="#009af9" fill-rule="evenodd" fill-opacity="1"/>
<polyline clip-path="url(#clip132)" style="stroke:#000000; stroke-linecap:round; stroke-linejoin:round; stroke-width:4; stroke-opacity:1; fill:none" points="720.546,1134.36 720.546,1423.18 759.325,1423.18 759.325,1134.36 720.546,1134.36 "/>
<path clip-path="url(#clip132)" d="M759.325 1134.36 L759.325 1423.18 L798.104 1423.18 L798.104 1134.36 L759.325 1134.36 L759.325 1134.36  Z" fill="#009af9" fill-rule="evenodd" fill-opacity="1"/>
<polyline clip-path="url(#clip132)" style="stroke:#000000; stroke-linecap:round; stroke-linejoin:round; stroke-width:4; stroke-opacity:1; fill:none" points="759.325,1134.36 759.325,1423.18 798.104,1423.18 798.104,1134.36 759.325,1134.36 "/>
<path clip-path="url(#clip132)" d="M798.104 1423.18 L798.104 1423.18 L836.883 1423.18 L836.883 1423.18 L798.104 1423.18 L798.104 1423.18  Z" fill="#009af9" fill-rule="evenodd" fill-opacity="1"/>
<polyline clip-path="url(#clip132)" style="stroke:#000000; stroke-linecap:round; stroke-linejoin:round; stroke-width:4; stroke-opacity:1; fill:none" points="798.104,1423.18 798.104,1423.18 836.883,1423.18 798.104,1423.18 "/>
<path clip-path="url(#clip132)" d="M836.883 989.944 L836.883 1423.18 L875.662 1423.18 L875.662 989.944 L836.883 989.944 L836.883 989.944  Z" fill="#009af9" fill-rule="evenodd" fill-opacity="1"/>
<polyline clip-path="url(#clip132)" style="stroke:#000000; stroke-linecap:round; stroke-linejoin:round; stroke-width:4; stroke-opacity:1; fill:none" points="836.883,989.944 836.883,1423.18 875.662,1423.18 875.662,989.944 836.883,989.944 "/>
<path clip-path="url(#clip132)" d="M875.662 989.944 L875.662 1423.18 L914.441 1423.18 L914.441 989.944 L875.662 989.944 L875.662 989.944  Z" fill="#009af9" fill-rule="evenodd" fill-opacity="1"/>
<polyline clip-path="url(#clip132)" style="stroke:#000000; stroke-linecap:round; stroke-linejoin:round; stroke-width:4; stroke-opacity:1; fill:none" points="875.662,989.944 875.662,1423.18 914.441,1423.18 914.441,989.944 875.662,989.944 "/>
<path clip-path="url(#clip132)" d="M914.441 1134.36 L914.441 1423.18 L953.22 1423.18 L953.22 1134.36 L914.441 1134.36 L914.441 1134.36  Z" fill="#009af9" fill-rule="evenodd" fill-opacity="1"/>
<polyline clip-path="url(#clip132)" style="stroke:#000000; stroke-linecap:round; stroke-linejoin:round; stroke-width:4; stroke-opacity:1; fill:none" points="914.441,1134.36 914.441,1423.18 953.22,1423.18 953.22,1134.36 914.441,1134.36 "/>
<path clip-path="url(#clip132)" d="M953.22 845.532 L953.22 1423.18 L991.999 1423.18 L991.999 845.532 L953.22 845.532 L953.22 845.532  Z" fill="#009af9" fill-rule="evenodd" fill-opacity="1"/>
<polyline clip-path="url(#clip132)" style="stroke:#000000; stroke-linecap:round; stroke-linejoin:round; stroke-width:4; stroke-opacity:1; fill:none" points="953.22,845.532 953.22,1423.18 991.999,1423.18 991.999,845.532 953.22,845.532 "/>
<path clip-path="url(#clip132)" d="M991.999 1278.77 L991.999 1423.18 L1030.78 1423.18 L1030.78 1278.77 L991.999 1278.77 L991.999 1278.77  Z" fill="#009af9" fill-rule="evenodd" fill-opacity="1"/>
<polyline clip-path="url(#clip132)" style="stroke:#000000; stroke-linecap:round; stroke-linejoin:round; stroke-width:4; stroke-opacity:1; fill:none" points="991.999,1278.77 991.999,1423.18 1030.78,1423.18 1030.78,1278.77 991.999,1278.77 "/>
<path clip-path="url(#clip132)" d="M1030.78 1278.77 L1030.78 1423.18 L1069.56 1423.18 L1069.56 1278.77 L1030.78 1278.77 L1030.78 1278.77  Z" fill="#009af9" fill-rule="evenodd" fill-opacity="1"/>
<polyline clip-path="url(#clip132)" style="stroke:#000000; stroke-linecap:round; stroke-linejoin:round; stroke-width:4; stroke-opacity:1; fill:none" points="1030.78,1278.77 1030.78,1423.18 1069.56,1423.18 1069.56,1278.77 1030.78,1278.77 "/>
<path clip-path="url(#clip132)" d="M1069.56 845.532 L1069.56 1423.18 L1108.34 1423.18 L1108.34 845.532 L1069.56 845.532 L1069.56 845.532  Z" fill="#009af9" fill-rule="evenodd" fill-opacity="1"/>
<polyline clip-path="url(#clip132)" style="stroke:#000000; stroke-linecap:round; stroke-linejoin:round; stroke-width:4; stroke-opacity:1; fill:none" points="1069.56,845.532 1069.56,1423.18 1108.34,1423.18 1108.34,845.532 1069.56,845.532 "/>
<path clip-path="url(#clip132)" d="M1108.34 1423.18 L1108.34 1423.18 L1147.12 1423.18 L1147.12 1423.18 L1108.34 1423.18 L1108.34 1423.18  Z" fill="#009af9" fill-rule="evenodd" fill-opacity="1"/>
<polyline clip-path="url(#clip132)" style="stroke:#000000; stroke-linecap:round; stroke-linejoin:round; stroke-width:4; stroke-opacity:1; fill:none" points="1108.34,1423.18 1108.34,1423.18 1147.12,1423.18 1108.34,1423.18 "/>
<path clip-path="url(#clip132)" d="M1147.12 556.708 L1147.12 1423.18 L1185.89 1423.18 L1185.89 556.708 L1147.12 556.708 L1147.12 556.708  Z" fill="#009af9" fill-rule="evenodd" fill-opacity="1"/>
<polyline clip-path="url(#clip132)" style="stroke:#000000; stroke-linecap:round; stroke-linejoin:round; stroke-width:4; stroke-opacity:1; fill:none" points="1147.12,556.708 1147.12,1423.18 1185.89,1423.18 1185.89,556.708 1147.12,556.708 "/>
<path clip-path="url(#clip132)" d="M1185.89 989.944 L1185.89 1423.18 L1224.67 1423.18 L1224.67 989.944 L1185.89 989.944 L1185.89 989.944  Z" fill="#009af9" fill-rule="evenodd" fill-opacity="1"/>
<polyline clip-path="url(#clip132)" style="stroke:#000000; stroke-linecap:round; stroke-linejoin:round; stroke-width:4; stroke-opacity:1; fill:none" points="1185.89,989.944 1185.89,1423.18 1224.67,1423.18 1224.67,989.944 1185.89,989.944 "/>
<path clip-path="url(#clip132)" d="M1224.67 845.532 L1224.67 1423.18 L1263.45 1423.18 L1263.45 845.532 L1224.67 845.532 L1224.67 845.532  Z" fill="#009af9" fill-rule="evenodd" fill-opacity="1"/>
<polyline clip-path="url(#clip132)" style="stroke:#000000; stroke-linecap:round; stroke-linejoin:round; stroke-width:4; stroke-opacity:1; fill:none" points="1224.67,845.532 1224.67,1423.18 1263.45,1423.18 1263.45,845.532 1224.67,845.532 "/>
<path clip-path="url(#clip132)" d="M1263.45 556.708 L1263.45 1423.18 L1302.23 1423.18 L1302.23 556.708 L1263.45 556.708 L1263.45 556.708  Z" fill="#009af9" fill-rule="evenodd" fill-opacity="1"/>
<polyline clip-path="url(#clip132)" style="stroke:#000000; stroke-linecap:round; stroke-linejoin:round; stroke-width:4; stroke-opacity:1; fill:none" points="1263.45,556.708 1263.45,1423.18 1302.23,1423.18 1302.23,556.708 1263.45,556.708 "/>
<path clip-path="url(#clip132)" d="M1302.23 267.884 L1302.23 1423.18 L1341.01 1423.18 L1341.01 267.884 L1302.23 267.884 L1302.23 267.884  Z" fill="#009af9" fill-rule="evenodd" fill-opacity="1"/>
<polyline clip-path="url(#clip132)" style="stroke:#000000; stroke-linecap:round; stroke-linejoin:round; stroke-width:4; stroke-opacity:1; fill:none" points="1302.23,267.884 1302.23,1423.18 1341.01,1423.18 1341.01,267.884 1302.23,267.884 "/>
<path clip-path="url(#clip132)" d="M1341.01 123.472 L1341.01 1423.18 L1379.79 1423.18 L1379.79 123.472 L1341.01 123.472 L1341.01 123.472  Z" fill="#009af9" fill-rule="evenodd" fill-opacity="1"/>
<polyline clip-path="url(#clip132)" style="stroke:#000000; stroke-linecap:round; stroke-linejoin:round; stroke-width:4; stroke-opacity:1; fill:none" points="1341.01,123.472 1341.01,1423.18 1379.79,1423.18 1379.79,123.472 1341.01,123.472 "/>
<path clip-path="url(#clip132)" d="M1379.79 267.884 L1379.79 1423.18 L1418.57 1423.18 L1418.57 267.884 L1379.79 267.884 L1379.79 267.884  Z" fill="#009af9" fill-rule="evenodd" fill-opacity="1"/>
<polyline clip-path="url(#clip132)" style="stroke:#000000; stroke-linecap:round; stroke-linejoin:round; stroke-width:4; stroke-opacity:1; fill:none" points="1379.79,267.884 1379.79,1423.18 1418.57,1423.18 1418.57,267.884 1379.79,267.884 "/>
<path clip-path="url(#clip132)" d="M1418.57 1278.77 L1418.57 1423.18 L1457.35 1423.18 L1457.35 1278.77 L1418.57 1278.77 L1418.57 1278.77  Z" fill="#009af9" fill-rule="evenodd" fill-opacity="1"/>
<polyline clip-path="url(#clip132)" style="stroke:#000000; stroke-linecap:round; stroke-linejoin:round; stroke-width:4; stroke-opacity:1; fill:none" points="1418.57,1278.77 1418.57,1423.18 1457.35,1423.18 1457.35,1278.77 1418.57,1278.77 "/>
<path clip-path="url(#clip132)" d="M1457.35 701.12 L1457.35 1423.18 L1496.13 1423.18 L1496.13 701.12 L1457.35 701.12 L1457.35 701.12  Z" fill="#009af9" fill-rule="evenodd" fill-opacity="1"/>
<polyline clip-path="url(#clip132)" style="stroke:#000000; stroke-linecap:round; stroke-linejoin:round; stroke-width:4; stroke-opacity:1; fill:none" points="1457.35,701.12 1457.35,1423.18 1496.13,1423.18 1496.13,701.12 1457.35,701.12 "/>
<path clip-path="url(#clip132)" d="M1496.13 989.944 L1496.13 1423.18 L1534.91 1423.18 L1534.91 989.944 L1496.13 989.944 L1496.13 989.944  Z" fill="#009af9" fill-rule="evenodd" fill-opacity="1"/>
<polyline clip-path="url(#clip132)" style="stroke:#000000; stroke-linecap:round; stroke-linejoin:round; stroke-width:4; stroke-opacity:1; fill:none" points="1496.13,989.944 1496.13,1423.18 1534.91,1423.18 1534.91,989.944 1496.13,989.944 "/>
<path clip-path="url(#clip132)" d="M1534.91 701.12 L1534.91 1423.18 L1573.68 1423.18 L1573.68 701.12 L1534.91 701.12 L1534.91 701.12  Z" fill="#009af9" fill-rule="evenodd" fill-opacity="1"/>
<polyline clip-path="url(#clip132)" style="stroke:#000000; stroke-linecap:round; stroke-linejoin:round; stroke-width:4; stroke-opacity:1; fill:none" points="1534.91,701.12 1534.91,1423.18 1573.68,1423.18 1573.68,701.12 1534.91,701.12 "/>
<path clip-path="url(#clip132)" d="M1573.68 989.944 L1573.68 1423.18 L1612.46 1423.18 L1612.46 989.944 L1573.68 989.944 L1573.68 989.944  Z" fill="#009af9" fill-rule="evenodd" fill-opacity="1"/>
<polyline clip-path="url(#clip132)" style="stroke:#000000; stroke-linecap:round; stroke-linejoin:round; stroke-width:4; stroke-opacity:1; fill:none" points="1573.68,989.944 1573.68,1423.18 1612.46,1423.18 1612.46,989.944 1573.68,989.944 "/>
<path clip-path="url(#clip132)" d="M1612.46 989.944 L1612.46 1423.18 L1651.24 1423.18 L1651.24 989.944 L1612.46 989.944 L1612.46 989.944  Z" fill="#009af9" fill-rule="evenodd" fill-opacity="1"/>
<polyline clip-path="url(#clip132)" style="stroke:#000000; stroke-linecap:round; stroke-linejoin:round; stroke-width:4; stroke-opacity:1; fill:none" points="1612.46,989.944 1612.46,1423.18 1651.24,1423.18 1651.24,989.944 1612.46,989.944 "/>
<path clip-path="url(#clip132)" d="M1651.24 1278.77 L1651.24 1423.18 L1690.02 1423.18 L1690.02 1278.77 L1651.24 1278.77 L1651.24 1278.77  Z" fill="#009af9" fill-rule="evenodd" fill-opacity="1"/>
<polyline clip-path="url(#clip132)" style="stroke:#000000; stroke-linecap:round; stroke-linejoin:round; stroke-width:4; stroke-opacity:1; fill:none" points="1651.24,1278.77 1651.24,1423.18 1690.02,1423.18 1690.02,1278.77 1651.24,1278.77 "/>
<path clip-path="url(#clip132)" d="M1690.02 1278.77 L1690.02 1423.18 L1728.8 1423.18 L1728.8 1278.77 L1690.02 1278.77 L1690.02 1278.77  Z" fill="#009af9" fill-rule="evenodd" fill-opacity="1"/>
<polyline clip-path="url(#clip132)" style="stroke:#000000; stroke-linecap:round; stroke-linejoin:round; stroke-width:4; stroke-opacity:1; fill:none" points="1690.02,1278.77 1690.02,1423.18 1728.8,1423.18 1728.8,1278.77 1690.02,1278.77 "/>
<path clip-path="url(#clip132)" d="M1728.8 1423.18 L1728.8 1423.18 L1767.58 1423.18 L1767.58 1423.18 L1728.8 1423.18 L1728.8 1423.18  Z" fill="#009af9" fill-rule="evenodd" fill-opacity="1"/>
<polyline clip-path="url(#clip132)" style="stroke:#000000; stroke-linecap:round; stroke-linejoin:round; stroke-width:4; stroke-opacity:1; fill:none" points="1728.8,1423.18 1728.8,1423.18 1767.58,1423.18 1728.8,1423.18 "/>
<path clip-path="url(#clip132)" d="M1767.58 1134.36 L1767.58 1423.18 L1806.36 1423.18 L1806.36 1134.36 L1767.58 1134.36 L1767.58 1134.36  Z" fill="#009af9" fill-rule="evenodd" fill-opacity="1"/>
<polyline clip-path="url(#clip132)" style="stroke:#000000; stroke-linecap:round; stroke-linejoin:round; stroke-width:4; stroke-opacity:1; fill:none" points="1767.58,1134.36 1767.58,1423.18 1806.36,1423.18 1806.36,1134.36 1767.58,1134.36 "/>
<path clip-path="url(#clip132)" d="M1806.36 1278.77 L1806.36 1423.18 L1845.14 1423.18 L1845.14 1278.77 L1806.36 1278.77 L1806.36 1278.77  Z" fill="#009af9" fill-rule="evenodd" fill-opacity="1"/>
<polyline clip-path="url(#clip132)" style="stroke:#000000; stroke-linecap:round; stroke-linejoin:round; stroke-width:4; stroke-opacity:1; fill:none" points="1806.36,1278.77 1806.36,1423.18 1845.14,1423.18 1845.14,1278.77 1806.36,1278.77 "/>
<path clip-path="url(#clip132)" d="M1845.14 1278.77 L1845.14 1423.18 L1883.92 1423.18 L1883.92 1278.77 L1845.14 1278.77 L1845.14 1278.77  Z" fill="#009af9" fill-rule="evenodd" fill-opacity="1"/>
<polyline clip-path="url(#clip132)" style="stroke:#000000; stroke-linecap:round; stroke-linejoin:round; stroke-width:4; stroke-opacity:1; fill:none" points="1845.14,1278.77 1845.14,1423.18 1883.92,1423.18 1883.92,1278.77 1845.14,1278.77 "/>
<path clip-path="url(#clip132)" d="M1883.92 1278.77 L1883.92 1423.18 L1922.7 1423.18 L1922.7 1278.77 L1883.92 1278.77 L1883.92 1278.77  Z" fill="#009af9" fill-rule="evenodd" fill-opacity="1"/>
<polyline clip-path="url(#clip132)" style="stroke:#000000; stroke-linecap:round; stroke-linejoin:round; stroke-width:4; stroke-opacity:1; fill:none" points="1883.92,1278.77 1883.92,1423.18 1922.7,1423.18 1922.7,1278.77 1883.92,1278.77 "/>
<path clip-path="url(#clip132)" d="M1922.7 1423.18 L1922.7 1423.18 L1961.48 1423.18 L1961.48 1423.18 L1922.7 1423.18 L1922.7 1423.18  Z" fill="#009af9" fill-rule="evenodd" fill-opacity="1"/>
<polyline clip-path="url(#clip132)" style="stroke:#000000; stroke-linecap:round; stroke-linejoin:round; stroke-width:4; stroke-opacity:1; fill:none" points="1922.7,1423.18 1922.7,1423.18 1961.48,1423.18 1922.7,1423.18 "/>
<path clip-path="url(#clip132)" d="M1961.48 1278.77 L1961.48 1423.18 L2000.25 1423.18 L2000.25 1278.77 L1961.48 1278.77 L1961.48 1278.77  Z" fill="#009af9" fill-rule="evenodd" fill-opacity="1"/>
<polyline clip-path="url(#clip132)" style="stroke:#000000; stroke-linecap:round; stroke-linejoin:round; stroke-width:4; stroke-opacity:1; fill:none" points="1961.48,1278.77 1961.48,1423.18 2000.25,1423.18 2000.25,1278.77 1961.48,1278.77 "/>
<path clip-path="url(#clip132)" d="M2000.25 1423.18 L2000.25 1423.18 L2039.03 1423.18 L2039.03 1423.18 L2000.25 1423.18 L2000.25 1423.18  Z" fill="#009af9" fill-rule="evenodd" fill-opacity="1"/>
<polyline clip-path="url(#clip132)" style="stroke:#000000; stroke-linecap:round; stroke-linejoin:round; stroke-width:4; stroke-opacity:1; fill:none" points="2000.25,1423.18 2000.25,1423.18 2039.03,1423.18 2000.25,1423.18 "/>
<path clip-path="url(#clip132)" d="M2039.03 1423.18 L2039.03 1423.18 L2077.81 1423.18 L2077.81 1423.18 L2039.03 1423.18 L2039.03 1423.18  Z" fill="#009af9" fill-rule="evenodd" fill-opacity="1"/>
<polyline clip-path="url(#clip132)" style="stroke:#000000; stroke-linecap:round; stroke-linejoin:round; stroke-width:4; stroke-opacity:1; fill:none" points="2039.03,1423.18 2039.03,1423.18 2077.81,1423.18 2039.03,1423.18 "/>
<path clip-path="url(#clip132)" d="M2077.81 1423.18 L2077.81 1423.18 L2116.59 1423.18 L2116.59 1423.18 L2077.81 1423.18 L2077.81 1423.18  Z" fill="#009af9" fill-rule="evenodd" fill-opacity="1"/>
<polyline clip-path="url(#clip132)" style="stroke:#000000; stroke-linecap:round; stroke-linejoin:round; stroke-width:4; stroke-opacity:1; fill:none" points="2077.81,1423.18 2077.81,1423.18 2116.59,1423.18 2077.81,1423.18 "/>
<path clip-path="url(#clip132)" d="M2116.59 1423.18 L2116.59 1423.18 L2155.37 1423.18 L2155.37 1423.18 L2116.59 1423.18 L2116.59 1423.18  Z" fill="#009af9" fill-rule="evenodd" fill-opacity="1"/>
<polyline clip-path="url(#clip132)" style="stroke:#000000; stroke-linecap:round; stroke-linejoin:round; stroke-width:4; stroke-opacity:1; fill:none" points="2116.59,1423.18 2116.59,1423.18 2155.37,1423.18 2116.59,1423.18 "/>
<path clip-path="url(#clip132)" d="M2155.37 1423.18 L2155.37 1423.18 L2194.15 1423.18 L2194.15 1423.18 L2155.37 1423.18 L2155.37 1423.18  Z" fill="#009af9" fill-rule="evenodd" fill-opacity="1"/>
<polyline clip-path="url(#clip132)" style="stroke:#000000; stroke-linecap:round; stroke-linejoin:round; stroke-width:4; stroke-opacity:1; fill:none" points="2155.37,1423.18 2155.37,1423.18 2194.15,1423.18 2155.37,1423.18 "/>
<path clip-path="url(#clip132)" d="M2194.15 1423.18 L2194.15 1423.18 L2232.93 1423.18 L2232.93 1423.18 L2194.15 1423.18 L2194.15 1423.18  Z" fill="#009af9" fill-rule="evenodd" fill-opacity="1"/>
<polyline clip-path="url(#clip132)" style="stroke:#000000; stroke-linecap:round; stroke-linejoin:round; stroke-width:4; stroke-opacity:1; fill:none" points="2194.15,1423.18 2194.15,1423.18 2232.93,1423.18 2194.15,1423.18 "/>
<circle clip-path="url(#clip132)" style="fill:#009af9; stroke:none; fill-opacity:0" cx="313.366" cy="1423.18" r="2"/>
<circle clip-path="url(#clip132)" style="fill:#009af9; stroke:none; fill-opacity:0" cx="352.145" cy="1423.18" r="2"/>
<circle clip-path="url(#clip132)" style="fill:#009af9; stroke:none; fill-opacity:0" cx="390.924" cy="1423.18" r="2"/>
<circle clip-path="url(#clip132)" style="fill:#009af9; stroke:none; fill-opacity:0" cx="429.703" cy="1423.18" r="2"/>
<circle clip-path="url(#clip132)" style="fill:#009af9; stroke:none; fill-opacity:0" cx="468.482" cy="1278.77" r="2"/>
<circle clip-path="url(#clip132)" style="fill:#009af9; stroke:none; fill-opacity:0" cx="507.261" cy="1423.18" r="2"/>
<circle clip-path="url(#clip132)" style="fill:#009af9; stroke:none; fill-opacity:0" cx="546.04" cy="1423.18" r="2"/>
<circle clip-path="url(#clip132)" style="fill:#009af9; stroke:none; fill-opacity:0" cx="584.819" cy="1423.18" r="2"/>
<circle clip-path="url(#clip132)" style="fill:#009af9; stroke:none; fill-opacity:0" cx="623.598" cy="1278.77" r="2"/>
<circle clip-path="url(#clip132)" style="fill:#009af9; stroke:none; fill-opacity:0" cx="662.377" cy="989.944" r="2"/>
<circle clip-path="url(#clip132)" style="fill:#009af9; stroke:none; fill-opacity:0" cx="701.156" cy="1278.77" r="2"/>
<circle clip-path="url(#clip132)" style="fill:#009af9; stroke:none; fill-opacity:0" cx="739.935" cy="1134.36" r="2"/>
<circle clip-path="url(#clip132)" style="fill:#009af9; stroke:none; fill-opacity:0" cx="778.714" cy="1134.36" r="2"/>
<circle clip-path="url(#clip132)" style="fill:#009af9; stroke:none; fill-opacity:0" cx="817.493" cy="1423.18" r="2"/>
<circle clip-path="url(#clip132)" style="fill:#009af9; stroke:none; fill-opacity:0" cx="856.272" cy="989.944" r="2"/>
<circle clip-path="url(#clip132)" style="fill:#009af9; stroke:none; fill-opacity:0" cx="895.051" cy="989.944" r="2"/>
<circle clip-path="url(#clip132)" style="fill:#009af9; stroke:none; fill-opacity:0" cx="933.83" cy="1134.36" r="2"/>
<circle clip-path="url(#clip132)" style="fill:#009af9; stroke:none; fill-opacity:0" cx="972.61" cy="845.532" r="2"/>
<circle clip-path="url(#clip132)" style="fill:#009af9; stroke:none; fill-opacity:0" cx="1011.39" cy="1278.77" r="2"/>
<circle clip-path="url(#clip132)" style="fill:#009af9; stroke:none; fill-opacity:0" cx="1050.17" cy="1278.77" r="2"/>
<circle clip-path="url(#clip132)" style="fill:#009af9; stroke:none; fill-opacity:0" cx="1088.95" cy="845.532" r="2"/>
<circle clip-path="url(#clip132)" style="fill:#009af9; stroke:none; fill-opacity:0" cx="1127.73" cy="1423.18" r="2"/>
<circle clip-path="url(#clip132)" style="fill:#009af9; stroke:none; fill-opacity:0" cx="1166.5" cy="556.708" r="2"/>
<circle clip-path="url(#clip132)" style="fill:#009af9; stroke:none; fill-opacity:0" cx="1205.28" cy="989.944" r="2"/>
<circle clip-path="url(#clip132)" style="fill:#009af9; stroke:none; fill-opacity:0" cx="1244.06" cy="845.532" r="2"/>
<circle clip-path="url(#clip132)" style="fill:#009af9; stroke:none; fill-opacity:0" cx="1282.84" cy="556.708" r="2"/>
<circle clip-path="url(#clip132)" style="fill:#009af9; stroke:none; fill-opacity:0" cx="1321.62" cy="267.884" r="2"/>
<circle clip-path="url(#clip132)" style="fill:#009af9; stroke:none; fill-opacity:0" cx="1360.4" cy="123.472" r="2"/>
<circle clip-path="url(#clip132)" style="fill:#009af9; stroke:none; fill-opacity:0" cx="1399.18" cy="267.884" r="2"/>
<circle clip-path="url(#clip132)" style="fill:#009af9; stroke:none; fill-opacity:0" cx="1437.96" cy="1278.77" r="2"/>
<circle clip-path="url(#clip132)" style="fill:#009af9; stroke:none; fill-opacity:0" cx="1476.74" cy="701.12" r="2"/>
<circle clip-path="url(#clip132)" style="fill:#009af9; stroke:none; fill-opacity:0" cx="1515.52" cy="989.944" r="2"/>
<circle clip-path="url(#clip132)" style="fill:#009af9; stroke:none; fill-opacity:0" cx="1554.3" cy="701.12" r="2"/>
<circle clip-path="url(#clip132)" style="fill:#009af9; stroke:none; fill-opacity:0" cx="1593.07" cy="989.944" r="2"/>
<circle clip-path="url(#clip132)" style="fill:#009af9; stroke:none; fill-opacity:0" cx="1631.85" cy="989.944" r="2"/>
<circle clip-path="url(#clip132)" style="fill:#009af9; stroke:none; fill-opacity:0" cx="1670.63" cy="1278.77" r="2"/>
<circle clip-path="url(#clip132)" style="fill:#009af9; stroke:none; fill-opacity:0" cx="1709.41" cy="1278.77" r="2"/>
<circle clip-path="url(#clip132)" style="fill:#009af9; stroke:none; fill-opacity:0" cx="1748.19" cy="1423.18" r="2"/>
<circle clip-path="url(#clip132)" style="fill:#009af9; stroke:none; fill-opacity:0" cx="1786.97" cy="1134.36" r="2"/>
<circle clip-path="url(#clip132)" style="fill:#009af9; stroke:none; fill-opacity:0" cx="1825.75" cy="1278.77" r="2"/>
<circle clip-path="url(#clip132)" style="fill:#009af9; stroke:none; fill-opacity:0" cx="1864.53" cy="1278.77" r="2"/>
<circle clip-path="url(#clip132)" style="fill:#009af9; stroke:none; fill-opacity:0" cx="1903.31" cy="1278.77" r="2"/>
<circle clip-path="url(#clip132)" style="fill:#009af9; stroke:none; fill-opacity:0" cx="1942.09" cy="1423.18" r="2"/>
<circle clip-path="url(#clip132)" style="fill:#009af9; stroke:none; fill-opacity:0" cx="1980.86" cy="1278.77" r="2"/>
<circle clip-path="url(#clip132)" style="fill:#009af9; stroke:none; fill-opacity:0" cx="2019.64" cy="1423.18" r="2"/>
<circle clip-path="url(#clip132)" style="fill:#009af9; stroke:none; fill-opacity:0" cx="2058.42" cy="1423.18" r="2"/>
<circle clip-path="url(#clip132)" style="fill:#009af9; stroke:none; fill-opacity:0" cx="2097.2" cy="1423.18" r="2"/>
<circle clip-path="url(#clip132)" style="fill:#009af9; stroke:none; fill-opacity:0" cx="2135.98" cy="1423.18" r="2"/>
<circle clip-path="url(#clip132)" style="fill:#009af9; stroke:none; fill-opacity:0" cx="2174.76" cy="1423.18" r="2"/>
<circle clip-path="url(#clip132)" style="fill:#009af9; stroke:none; fill-opacity:0" cx="2213.54" cy="1423.18" r="2"/>
<path clip-path="url(#clip130)" d="M2009.84 270.476 L2280.14 270.476 L2280.14 166.796 L2009.84 166.796  Z" fill="#ffffff" fill-rule="evenodd" fill-opacity="1"/>
<polyline clip-path="url(#clip130)" style="stroke:#000000; stroke-linecap:round; stroke-linejoin:round; stroke-width:4; stroke-opacity:1; fill:none" points="2009.84,270.476 2280.14,270.476 2280.14,166.796 2009.84,166.796 2009.84,270.476 "/>
<path clip-path="url(#clip130)" d="M2034.05 239.372 L2179.29 239.372 L2179.29 197.9 L2034.05 197.9 L2034.05 239.372  Z" fill="#009af9" fill-rule="evenodd" fill-opacity="1"/>
<polyline clip-path="url(#clip130)" style="stroke:#000000; stroke-linecap:round; stroke-linejoin:round; stroke-width:4; stroke-opacity:1; fill:none" points="2034.05,239.372 2179.29,239.372 2179.29,197.9 2034.05,197.9 2034.05,239.372 "/>
<path clip-path="url(#clip130)" d="M2217.34 238.323 Q2215.54 242.953 2213.82 244.365 Q2212.11 245.777 2209.24 245.777 L2205.84 245.777 L2205.84 242.212 L2208.34 242.212 Q2210.1 242.212 2211.07 241.379 Q2212.04 240.545 2213.22 237.443 L2213.98 235.499 L2203.5 209.99 L2208.01 209.99 L2216.11 230.268 L2224.22 209.99 L2228.73 209.99 L2217.34 238.323 Z" fill="#000000" fill-rule="nonzero" fill-opacity="1" /><path clip-path="url(#clip130)" d="M2236.02 231.981 L2243.66 231.981 L2243.66 205.615 L2235.35 207.282 L2235.35 203.022 L2243.61 201.356 L2248.29 201.356 L2248.29 231.981 L2255.93 231.981 L2255.93 235.916 L2236.02 235.916 L2236.02 231.981 Z" fill="#000000" fill-rule="nonzero" fill-opacity="1" /></svg>
