<?xml version="1.0" encoding="utf-8"?>
<svg xmlns="http://www.w3.org/2000/svg" xmlns:xlink="http://www.w3.org/1999/xlink" width="600" height="400" viewBox="0 0 2400 1600">
<defs>
  <clipPath id="clip160">
    <rect x="0" y="0" width="2400" height="1600"/>
  </clipPath>
</defs>
<path clip-path="url(#clip160)" d="M0 1600 L2400 1600 L2400 0 L0 0  Z" fill="#ffffff" fill-rule="evenodd" fill-opacity="1"/>
<defs>
  <clipPath id="clip161">
    <rect x="174" y="123" width="2180" height="1301"/>
  </clipPath>
</defs>
<path clip-path="url(#clip160)" d="M175.445 1423.18 L2352.76 1423.18 L2352.76 123.472 L175.445 123.472  Z" fill="#ffffff" fill-rule="evenodd" fill-opacity="1"/>
<defs>
  <clipPath id="clip162">
    <rect x="175" y="123" width="2178" height="1301"/>
  </clipPath>
</defs>
<polyline clip-path="url(#clip162)" style="stroke:#000000; stroke-linecap:round; stroke-linejoin:round; stroke-width:2; stroke-opacity:0.1; fill:none" points="295.201,1423.18 295.201,123.472 "/>
<polyline clip-path="url(#clip162)" style="stroke:#000000; stroke-linecap:round; stroke-linejoin:round; stroke-width:2; stroke-opacity:0.1; fill:none" points="784.544,1423.18 784.544,123.472 "/>
<polyline clip-path="url(#clip162)" style="stroke:#000000; stroke-linecap:round; stroke-linejoin:round; stroke-width:2; stroke-opacity:0.1; fill:none" points="1273.89,1423.18 1273.89,123.472 "/>
<polyline clip-path="url(#clip162)" style="stroke:#000000; stroke-linecap:round; stroke-linejoin:round; stroke-width:2; stroke-opacity:0.1; fill:none" points="1763.23,1423.18 1763.23,123.472 "/>
<polyline clip-path="url(#clip162)" style="stroke:#000000; stroke-linecap:round; stroke-linejoin:round; stroke-width:2; stroke-opacity:0.1; fill:none" points="2252.57,1423.18 2252.57,123.472 "/>
<polyline clip-path="url(#clip162)" style="stroke:#000000; stroke-linecap:round; stroke-linejoin:round; stroke-width:2; stroke-opacity:0.1; fill:none" points="175.445,1423.18 2352.76,1423.18 "/>
<polyline clip-path="url(#clip162)" style="stroke:#000000; stroke-linecap:round; stroke-linejoin:round; stroke-width:2; stroke-opacity:0.1; fill:none" points="175.445,1098.25 2352.76,1098.25 "/>
<polyline clip-path="url(#clip162)" style="stroke:#000000; stroke-linecap:round; stroke-linejoin:round; stroke-width:2; stroke-opacity:0.1; fill:none" points="175.445,773.326 2352.76,773.326 "/>
<polyline clip-path="url(#clip162)" style="stroke:#000000; stroke-linecap:round; stroke-linejoin:round; stroke-width:2; stroke-opacity:0.1; fill:none" points="175.445,448.399 2352.76,448.399 "/>
<polyline clip-path="url(#clip162)" style="stroke:#000000; stroke-linecap:round; stroke-linejoin:round; stroke-width:2; stroke-opacity:0.1; fill:none" points="175.445,123.472 2352.76,123.472 "/>
<polyline clip-path="url(#clip160)" style="stroke:#000000; stroke-linecap:round; stroke-linejoin:round; stroke-width:4; stroke-opacity:1; fill:none" points="175.445,1423.18 2352.76,1423.18 "/>
<polyline clip-path="url(#clip160)" style="stroke:#000000; stroke-linecap:round; stroke-linejoin:round; stroke-width:4; stroke-opacity:1; fill:none" points="295.201,1423.18 295.201,1404.28 "/>
<polyline clip-path="url(#clip160)" style="stroke:#000000; stroke-linecap:round; stroke-linejoin:round; stroke-width:4; stroke-opacity:1; fill:none" points="784.544,1423.18 784.544,1404.28 "/>
<polyline clip-path="url(#clip160)" style="stroke:#000000; stroke-linecap:round; stroke-linejoin:round; stroke-width:4; stroke-opacity:1; fill:none" points="1273.89,1423.18 1273.89,1404.28 "/>
<polyline clip-path="url(#clip160)" style="stroke:#000000; stroke-linecap:round; stroke-linejoin:round; stroke-width:4; stroke-opacity:1; fill:none" points="1763.23,1423.18 1763.23,1404.28 "/>
<polyline clip-path="url(#clip160)" style="stroke:#000000; stroke-linecap:round; stroke-linejoin:round; stroke-width:4; stroke-opacity:1; fill:none" points="2252.57,1423.18 2252.57,1404.28 "/>
<path clip-path="url(#clip160)" d="M242.227 1468.75 L271.903 1468.75 L271.903 1472.69 L242.227 1472.69 L242.227 1468.75 Z" fill="#000000" fill-rule="nonzero" fill-opacity="1" /><path clip-path="url(#clip160)" d="M282.805 1481.64 L290.444 1481.64 L290.444 1455.28 L282.134 1456.95 L282.134 1452.69 L290.398 1451.02 L295.074 1451.02 L295.074 1481.64 L302.713 1481.64 L302.713 1485.58 L282.805 1485.58 L282.805 1481.64 Z" fill="#000000" fill-rule="nonzero" fill-opacity="1" /><path clip-path="url(#clip160)" d="M312.157 1479.7 L317.041 1479.7 L317.041 1485.58 L312.157 1485.58 L312.157 1479.7 Z" fill="#000000" fill-rule="nonzero" fill-opacity="1" /><path clip-path="url(#clip160)" d="M327.273 1451.02 L345.629 1451.02 L345.629 1454.96 L331.555 1454.96 L331.555 1463.43 Q332.574 1463.08 333.592 1462.92 Q334.611 1462.73 335.629 1462.73 Q341.416 1462.73 344.796 1465.9 Q348.175 1469.08 348.175 1474.49 Q348.175 1480.07 344.703 1483.17 Q341.231 1486.25 334.912 1486.25 Q332.736 1486.25 330.467 1485.88 Q328.222 1485.51 325.814 1484.77 L325.814 1480.07 Q327.898 1481.2 330.12 1481.76 Q332.342 1482.32 334.819 1482.32 Q338.824 1482.32 341.162 1480.21 Q343.5 1478.1 343.5 1474.49 Q343.5 1470.88 341.162 1468.77 Q338.824 1466.67 334.819 1466.67 Q332.944 1466.67 331.069 1467.08 Q329.217 1467.5 327.273 1468.38 L327.273 1451.02 Z" fill="#000000" fill-rule="nonzero" fill-opacity="1" /><path clip-path="url(#clip160)" d="M731.072 1468.75 L760.748 1468.75 L760.748 1472.69 L731.072 1472.69 L731.072 1468.75 Z" fill="#000000" fill-rule="nonzero" fill-opacity="1" /><path clip-path="url(#clip160)" d="M771.651 1481.64 L779.29 1481.64 L779.29 1455.28 L770.98 1456.95 L770.98 1452.69 L779.243 1451.02 L783.919 1451.02 L783.919 1481.64 L791.558 1481.64 L791.558 1485.58 L771.651 1485.58 L771.651 1481.64 Z" fill="#000000" fill-rule="nonzero" fill-opacity="1" /><path clip-path="url(#clip160)" d="M801.003 1479.7 L805.887 1479.7 L805.887 1485.58 L801.003 1485.58 L801.003 1479.7 Z" fill="#000000" fill-rule="nonzero" fill-opacity="1" /><path clip-path="url(#clip160)" d="M826.072 1454.1 Q822.461 1454.1 820.632 1457.66 Q818.827 1461.2 818.827 1468.33 Q818.827 1475.44 820.632 1479.01 Q822.461 1482.55 826.072 1482.55 Q829.706 1482.55 831.512 1479.01 Q833.34 1475.44 833.34 1468.33 Q833.34 1461.2 831.512 1457.66 Q829.706 1454.1 826.072 1454.1 M826.072 1450.39 Q831.882 1450.39 834.938 1455 Q838.016 1459.58 838.016 1468.33 Q838.016 1477.06 834.938 1481.67 Q831.882 1486.25 826.072 1486.25 Q820.262 1486.25 817.183 1481.67 Q814.127 1477.06 814.127 1468.33 Q814.127 1459.58 817.183 1455 Q820.262 1450.39 826.072 1450.39 Z" fill="#000000" fill-rule="nonzero" fill-opacity="1" /><path clip-path="url(#clip160)" d="M1220.91 1468.75 L1250.59 1468.75 L1250.59 1472.69 L1220.91 1472.69 L1220.91 1468.75 Z" fill="#000000" fill-rule="nonzero" fill-opacity="1" /><path clip-path="url(#clip160)" d="M1270.68 1454.1 Q1267.07 1454.1 1265.24 1457.66 Q1263.44 1461.2 1263.44 1468.33 Q1263.44 1475.44 1265.24 1479.01 Q1267.07 1482.55 1270.68 1482.55 Q1274.32 1482.55 1276.12 1479.01 Q1277.95 1475.44 1277.95 1468.33 Q1277.95 1461.2 1276.12 1457.66 Q1274.32 1454.1 1270.68 1454.1 M1270.68 1450.39 Q1276.49 1450.39 1279.55 1455 Q1282.63 1459.58 1282.63 1468.33 Q1282.63 1477.06 1279.55 1481.67 Q1276.49 1486.25 1270.68 1486.25 Q1264.87 1486.25 1261.79 1481.67 Q1258.74 1477.06 1258.74 1468.33 Q1258.74 1459.58 1261.79 1455 Q1264.87 1450.39 1270.68 1450.39 Z" fill="#000000" fill-rule="nonzero" fill-opacity="1" /><path clip-path="url(#clip160)" d="M1290.84 1479.7 L1295.73 1479.7 L1295.73 1485.58 L1290.84 1485.58 L1290.84 1479.7 Z" fill="#000000" fill-rule="nonzero" fill-opacity="1" /><path clip-path="url(#clip160)" d="M1305.96 1451.02 L1324.32 1451.02 L1324.32 1454.96 L1310.24 1454.96 L1310.24 1463.43 Q1311.26 1463.08 1312.28 1462.92 Q1313.3 1462.73 1314.32 1462.73 Q1320.1 1462.73 1323.48 1465.9 Q1326.86 1469.08 1326.86 1474.49 Q1326.86 1480.07 1323.39 1483.17 Q1319.92 1486.25 1313.6 1486.25 Q1311.42 1486.25 1309.15 1485.88 Q1306.91 1485.51 1304.5 1484.77 L1304.5 1480.07 Q1306.58 1481.2 1308.81 1481.76 Q1311.03 1482.32 1313.51 1482.32 Q1317.51 1482.32 1319.85 1480.21 Q1322.19 1478.1 1322.19 1474.49 Q1322.19 1470.88 1319.85 1468.77 Q1317.51 1466.67 1313.51 1466.67 Q1311.63 1466.67 1309.76 1467.08 Q1307.9 1467.5 1305.96 1468.38 L1305.96 1451.02 Z" fill="#000000" fill-rule="nonzero" fill-opacity="1" /><path clip-path="url(#clip160)" d="M1740.61 1454.1 Q1737 1454.1 1735.18 1457.66 Q1733.37 1461.2 1733.37 1468.33 Q1733.37 1475.44 1735.18 1479.01 Q1737 1482.55 1740.61 1482.55 Q1744.25 1482.55 1746.05 1479.01 Q1747.88 1475.44 1747.88 1468.33 Q1747.88 1461.2 1746.05 1457.66 Q1744.25 1454.1 1740.61 1454.1 M1740.61 1450.39 Q1746.43 1450.39 1749.48 1455 Q1752.56 1459.58 1752.56 1468.33 Q1752.56 1477.06 1749.48 1481.67 Q1746.43 1486.25 1740.61 1486.25 Q1734.8 1486.25 1731.73 1481.67 Q1728.67 1477.06 1728.67 1468.33 Q1728.67 1459.58 1731.73 1455 Q1734.8 1450.39 1740.61 1450.39 Z" fill="#000000" fill-rule="nonzero" fill-opacity="1" /><path clip-path="url(#clip160)" d="M1760.78 1479.7 L1765.66 1479.7 L1765.66 1485.58 L1760.78 1485.58 L1760.78 1479.7 Z" fill="#000000" fill-rule="nonzero" fill-opacity="1" /><path clip-path="url(#clip160)" d="M1785.85 1454.1 Q1782.24 1454.1 1780.41 1457.66 Q1778.6 1461.2 1778.6 1468.33 Q1778.6 1475.44 1780.41 1479.01 Q1782.24 1482.55 1785.85 1482.55 Q1789.48 1482.55 1791.29 1479.01 Q1793.11 1475.44 1793.11 1468.33 Q1793.11 1461.2 1791.29 1457.66 Q1789.48 1454.1 1785.85 1454.1 M1785.85 1450.39 Q1791.66 1450.39 1794.71 1455 Q1797.79 1459.58 1797.79 1468.33 Q1797.79 1477.06 1794.71 1481.67 Q1791.66 1486.25 1785.85 1486.25 Q1780.04 1486.25 1776.96 1481.67 Q1773.9 1477.06 1773.9 1468.33 Q1773.9 1459.58 1776.96 1455 Q1780.04 1450.39 1785.85 1450.39 Z" fill="#000000" fill-rule="nonzero" fill-opacity="1" /><path clip-path="url(#clip160)" d="M2230.46 1454.1 Q2226.84 1454.1 2225.02 1457.66 Q2223.21 1461.2 2223.21 1468.33 Q2223.21 1475.44 2225.02 1479.01 Q2226.84 1482.55 2230.46 1482.55 Q2234.09 1482.55 2235.9 1479.01 Q2237.72 1475.44 2237.72 1468.33 Q2237.72 1461.2 2235.9 1457.66 Q2234.09 1454.1 2230.46 1454.1 M2230.46 1450.39 Q2236.27 1450.39 2239.32 1455 Q2242.4 1459.58 2242.4 1468.33 Q2242.4 1477.06 2239.32 1481.67 Q2236.27 1486.25 2230.46 1486.25 Q2224.65 1486.25 2221.57 1481.67 Q2218.51 1477.06 2218.51 1468.33 Q2218.51 1459.58 2221.57 1455 Q2224.65 1450.39 2230.46 1450.39 Z" fill="#000000" fill-rule="nonzero" fill-opacity="1" /><path clip-path="url(#clip160)" d="M2250.62 1479.7 L2255.5 1479.7 L2255.5 1485.58 L2250.62 1485.58 L2250.62 1479.7 Z" fill="#000000" fill-rule="nonzero" fill-opacity="1" /><path clip-path="url(#clip160)" d="M2265.73 1451.02 L2284.09 1451.02 L2284.09 1454.96 L2270.02 1454.96 L2270.02 1463.43 Q2271.03 1463.08 2272.05 1462.92 Q2273.07 1462.73 2274.09 1462.73 Q2279.88 1462.73 2283.26 1465.9 Q2286.64 1469.08 2286.64 1474.49 Q2286.64 1480.07 2283.16 1483.17 Q2279.69 1486.25 2273.37 1486.25 Q2271.2 1486.25 2268.93 1485.88 Q2266.68 1485.51 2264.27 1484.77 L2264.27 1480.07 Q2266.36 1481.2 2268.58 1481.76 Q2270.8 1482.32 2273.28 1482.32 Q2277.28 1482.32 2279.62 1480.21 Q2281.96 1478.1 2281.96 1474.49 Q2281.96 1470.88 2279.62 1468.77 Q2277.28 1466.67 2273.28 1466.67 Q2271.4 1466.67 2269.53 1467.08 Q2267.68 1467.5 2265.73 1468.38 L2265.73 1451.02 Z" fill="#000000" fill-rule="nonzero" fill-opacity="1" /><path clip-path="url(#clip160)" d="M1062.66 1525.81 L1062.66 1543.66 L1070.74 1543.66 Q1075.23 1543.66 1077.68 1541.34 Q1080.13 1539.02 1080.13 1534.72 Q1080.13 1530.45 1077.68 1528.13 Q1075.23 1525.81 1070.74 1525.81 L1062.66 1525.81 M1056.23 1520.52 L1070.74 1520.52 Q1078.73 1520.52 1082.81 1524.15 Q1086.91 1527.75 1086.91 1534.72 Q1086.91 1541.75 1082.81 1545.35 Q1078.73 1548.95 1070.74 1548.95 L1062.66 1548.95 L1062.66 1568.04 L1056.23 1568.04 L1056.23 1520.52 Z" fill="#000000" fill-rule="nonzero" fill-opacity="1" /><path clip-path="url(#clip160)" d="M1114.79 1537.87 Q1113.81 1537.3 1112.63 1537.04 Q1111.48 1536.76 1110.08 1536.76 Q1105.12 1536.76 1102.44 1540 Q1099.8 1543.22 1099.8 1549.27 L1099.8 1568.04 L1093.91 1568.04 L1093.91 1532.4 L1099.8 1532.4 L1099.8 1537.93 Q1101.65 1534.69 1104.61 1533.13 Q1107.57 1531.54 1111.8 1531.54 Q1112.41 1531.54 1113.14 1531.63 Q1113.87 1531.7 1114.76 1531.85 L1114.79 1537.87 Z" fill="#000000" fill-rule="nonzero" fill-opacity="1" /><path clip-path="url(#clip160)" d="M1120.94 1532.4 L1126.79 1532.4 L1126.79 1568.04 L1120.94 1568.04 L1120.94 1532.4 M1120.94 1518.52 L1126.79 1518.52 L1126.79 1525.93 L1120.94 1525.93 L1120.94 1518.52 Z" fill="#000000" fill-rule="nonzero" fill-opacity="1" /><path clip-path="url(#clip160)" d="M1164.7 1533.76 L1164.7 1539.24 Q1162.22 1537.87 1159.7 1537.2 Q1157.22 1536.5 1154.67 1536.5 Q1148.98 1536.5 1145.83 1540.13 Q1142.67 1543.73 1142.67 1550.25 Q1142.67 1556.78 1145.83 1560.4 Q1148.98 1564 1154.67 1564 Q1157.22 1564 1159.7 1563.33 Q1162.22 1562.63 1164.7 1561.26 L1164.7 1566.68 Q1162.25 1567.82 1159.61 1568.39 Q1157 1568.97 1154.04 1568.97 Q1145.98 1568.97 1141.24 1563.91 Q1136.5 1558.85 1136.5 1550.25 Q1136.5 1541.53 1141.27 1536.53 Q1146.08 1531.54 1154.42 1531.54 Q1157.12 1531.54 1159.7 1532.11 Q1162.28 1532.65 1164.7 1533.76 Z" fill="#000000" fill-rule="nonzero" fill-opacity="1" /><path clip-path="url(#clip160)" d="M1205.38 1548.76 L1205.38 1551.62 L1178.45 1551.62 Q1178.83 1557.67 1182.08 1560.85 Q1185.36 1564 1191.18 1564 Q1194.56 1564 1197.71 1563.17 Q1200.89 1562.35 1204.01 1560.69 L1204.01 1566.23 Q1200.86 1567.57 1197.55 1568.27 Q1194.24 1568.97 1190.83 1568.97 Q1182.3 1568.97 1177.3 1564 Q1172.34 1559.04 1172.34 1550.57 Q1172.34 1541.82 1177.05 1536.69 Q1181.79 1531.54 1189.81 1531.54 Q1197.01 1531.54 1201.18 1536.18 Q1205.38 1540.8 1205.38 1548.76 M1199.52 1547.04 Q1199.46 1542.23 1196.82 1539.37 Q1194.21 1536.5 1189.88 1536.5 Q1184.97 1536.5 1182.01 1539.27 Q1179.09 1542.04 1178.64 1547.07 L1199.52 1547.04 Z" fill="#000000" fill-rule="nonzero" fill-opacity="1" /><path clip-path="url(#clip160)" d="M1235.71 1532.4 L1241.57 1532.4 L1241.57 1568.04 L1235.71 1568.04 L1235.71 1532.4 M1235.71 1518.52 L1241.57 1518.52 L1241.57 1525.93 L1235.71 1525.93 L1235.71 1518.52 Z" fill="#000000" fill-rule="nonzero" fill-opacity="1" /><path clip-path="url(#clip160)" d="M1283.45 1546.53 L1283.45 1568.04 L1277.6 1568.04 L1277.6 1546.72 Q1277.6 1541.66 1275.62 1539.14 Q1273.65 1536.63 1269.7 1536.63 Q1264.96 1536.63 1262.22 1539.65 Q1259.49 1542.68 1259.49 1547.9 L1259.49 1568.04 L1253.6 1568.04 L1253.6 1532.4 L1259.49 1532.4 L1259.49 1537.93 Q1261.59 1534.72 1264.42 1533.13 Q1267.28 1531.54 1271.01 1531.54 Q1277.15 1531.54 1280.3 1535.36 Q1283.45 1539.14 1283.45 1546.53 Z" fill="#000000" fill-rule="nonzero" fill-opacity="1" /><path clip-path="url(#clip160)" d="M1300.93 1522.27 L1300.93 1532.4 L1312.99 1532.4 L1312.99 1536.95 L1300.93 1536.95 L1300.93 1556.3 Q1300.93 1560.66 1302.1 1561.9 Q1303.31 1563.14 1306.97 1563.14 L1312.99 1563.14 L1312.99 1568.04 L1306.97 1568.04 Q1300.19 1568.04 1297.62 1565.53 Q1295.04 1562.98 1295.04 1556.3 L1295.04 1536.95 L1290.74 1536.95 L1290.74 1532.4 L1295.04 1532.4 L1295.04 1522.27 L1300.93 1522.27 Z" fill="#000000" fill-rule="nonzero" fill-opacity="1" /><path clip-path="url(#clip160)" d="M1351.18 1548.76 L1351.18 1551.62 L1324.26 1551.62 Q1324.64 1557.67 1327.88 1560.85 Q1331.16 1564 1336.99 1564 Q1340.36 1564 1343.51 1563.17 Q1346.7 1562.35 1349.81 1560.69 L1349.81 1566.23 Q1346.66 1567.57 1343.35 1568.27 Q1340.04 1568.97 1336.64 1568.97 Q1328.11 1568.97 1323.11 1564 Q1318.15 1559.04 1318.15 1550.57 Q1318.15 1541.82 1322.86 1536.69 Q1327.6 1531.54 1335.62 1531.54 Q1342.81 1531.54 1346.98 1536.18 Q1351.18 1540.8 1351.18 1548.76 M1345.33 1547.04 Q1345.26 1542.23 1342.62 1539.37 Q1340.01 1536.5 1335.68 1536.5 Q1330.78 1536.5 1327.82 1539.27 Q1324.89 1542.04 1324.45 1547.07 L1345.33 1547.04 Z" fill="#000000" fill-rule="nonzero" fill-opacity="1" /><path clip-path="url(#clip160)" d="M1381.45 1537.87 Q1380.47 1537.3 1379.29 1537.04 Q1378.14 1536.76 1376.74 1536.76 Q1371.78 1536.76 1369.1 1540 Q1366.46 1543.22 1366.46 1549.27 L1366.46 1568.04 L1360.57 1568.04 L1360.57 1532.4 L1366.46 1532.4 L1366.46 1537.93 Q1368.31 1534.69 1371.27 1533.13 Q1374.23 1531.54 1378.46 1531.54 Q1379.07 1531.54 1379.8 1531.63 Q1380.53 1531.7 1381.42 1531.85 L1381.45 1537.87 Z" fill="#000000" fill-rule="nonzero" fill-opacity="1" /><path clip-path="url(#clip160)" d="M1383.39 1532.4 L1389.6 1532.4 L1400.74 1562.31 L1411.88 1532.4 L1418.09 1532.4 L1404.72 1568.04 L1396.76 1568.04 L1383.39 1532.4 Z" fill="#000000" fill-rule="nonzero" fill-opacity="1" /><path clip-path="url(#clip160)" d="M1442.37 1550.12 Q1435.27 1550.12 1432.54 1551.75 Q1429.8 1553.37 1429.8 1557.29 Q1429.8 1560.4 1431.84 1562.25 Q1433.91 1564.07 1437.44 1564.07 Q1442.31 1564.07 1445.24 1560.63 Q1448.2 1557.16 1448.2 1551.43 L1448.2 1550.12 L1442.37 1550.12 M1454.05 1547.71 L1454.05 1568.04 L1448.2 1568.04 L1448.2 1562.63 Q1446.19 1565.88 1443.2 1567.44 Q1440.21 1568.97 1435.88 1568.97 Q1430.4 1568.97 1427.16 1565.91 Q1423.94 1562.82 1423.94 1557.67 Q1423.94 1551.65 1427.95 1548.6 Q1432 1545.54 1439.99 1545.54 L1448.2 1545.54 L1448.2 1544.97 Q1448.2 1540.93 1445.52 1538.73 Q1442.88 1536.5 1438.08 1536.5 Q1435.02 1536.5 1432.12 1537.23 Q1429.23 1537.97 1426.55 1539.43 L1426.55 1534.02 Q1429.77 1532.78 1432.79 1532.17 Q1435.82 1531.54 1438.68 1531.54 Q1446.41 1531.54 1450.23 1535.55 Q1454.05 1539.56 1454.05 1547.71 Z" fill="#000000" fill-rule="nonzero" fill-opacity="1" /><path clip-path="url(#clip160)" d="M1466.12 1518.52 L1471.97 1518.52 L1471.97 1568.04 L1466.12 1568.04 L1466.12 1518.52 Z" fill="#000000" fill-rule="nonzero" fill-opacity="1" /><polyline clip-path="url(#clip160)" style="stroke:#000000; stroke-linecap:round; stroke-linejoin:round; stroke-width:4; stroke-opacity:1; fill:none" points="175.445,1423.18 175.445,123.472 "/>
<polyline clip-path="url(#clip160)" style="stroke:#000000; stroke-linecap:round; stroke-linejoin:round; stroke-width:4; stroke-opacity:1; fill:none" points="175.445,1423.18 194.343,1423.18 "/>
<polyline clip-path="url(#clip160)" style="stroke:#000000; stroke-linecap:round; stroke-linejoin:round; stroke-width:4; stroke-opacity:1; fill:none" points="175.445,1098.25 194.343,1098.25 "/>
<polyline clip-path="url(#clip160)" style="stroke:#000000; stroke-linecap:round; stroke-linejoin:round; stroke-width:4; stroke-opacity:1; fill:none" points="175.445,773.326 194.343,773.326 "/>
<polyline clip-path="url(#clip160)" style="stroke:#000000; stroke-linecap:round; stroke-linejoin:round; stroke-width:4; stroke-opacity:1; fill:none" points="175.445,448.399 194.343,448.399 "/>
<polyline clip-path="url(#clip160)" style="stroke:#000000; stroke-linecap:round; stroke-linejoin:round; stroke-width:4; stroke-opacity:1; fill:none" points="175.445,123.472 194.343,123.472 "/>
<path clip-path="url(#clip160)" d="M127.501 1408.98 Q123.89 1408.98 122.061 1412.54 Q120.255 1416.08 120.255 1423.21 Q120.255 1430.32 122.061 1433.89 Q123.89 1437.43 127.501 1437.43 Q131.135 1437.43 132.941 1433.89 Q134.769 1430.32 134.769 1423.21 Q134.769 1416.08 132.941 1412.54 Q131.135 1408.98 127.501 1408.98 M127.501 1405.27 Q133.311 1405.27 136.367 1409.88 Q139.445 1414.46 139.445 1423.21 Q139.445 1431.94 136.367 1436.55 Q133.311 1441.13 127.501 1441.13 Q121.691 1441.13 118.612 1436.55 Q115.556 1431.94 115.556 1423.21 Q115.556 1414.46 118.612 1409.88 Q121.691 1405.27 127.501 1405.27 Z" fill="#000000" fill-rule="nonzero" fill-opacity="1" /><path clip-path="url(#clip160)" d="M119.538 1111.6 L127.177 1111.6 L127.177 1085.23 L118.867 1086.9 L118.867 1082.64 L127.13 1080.97 L131.806 1080.97 L131.806 1111.6 L139.445 1111.6 L139.445 1115.53 L119.538 1115.53 L119.538 1111.6 Z" fill="#000000" fill-rule="nonzero" fill-opacity="1" /><path clip-path="url(#clip160)" d="M123.126 786.671 L139.445 786.671 L139.445 790.606 L117.501 790.606 L117.501 786.671 Q120.163 783.916 124.746 779.287 Q129.353 774.634 130.533 773.291 Q132.779 770.768 133.658 769.032 Q134.561 767.273 134.561 765.583 Q134.561 762.828 132.617 761.092 Q130.695 759.356 127.593 759.356 Q125.394 759.356 122.941 760.12 Q120.51 760.884 117.732 762.435 L117.732 757.713 Q120.556 756.578 123.01 756 Q125.464 755.421 127.501 755.421 Q132.871 755.421 136.066 758.106 Q139.26 760.791 139.26 765.282 Q139.26 767.412 138.45 769.333 Q137.663 771.231 135.556 773.824 Q134.978 774.495 131.876 777.713 Q128.774 780.907 123.126 786.671 Z" fill="#000000" fill-rule="nonzero" fill-opacity="1" /><path clip-path="url(#clip160)" d="M132.316 447.045 Q135.672 447.762 137.547 450.031 Q139.445 452.299 139.445 455.633 Q139.445 460.749 135.927 463.549 Q132.408 466.35 125.927 466.35 Q123.751 466.35 121.436 465.911 Q119.144 465.494 116.691 464.637 L116.691 460.124 Q118.635 461.258 120.95 461.836 Q123.265 462.415 125.788 462.415 Q130.186 462.415 132.478 460.679 Q134.792 458.943 134.792 455.633 Q134.792 452.577 132.64 450.864 Q130.51 449.128 126.691 449.128 L122.663 449.128 L122.663 445.286 L126.876 445.286 Q130.325 445.286 132.154 443.92 Q133.982 442.531 133.982 439.938 Q133.982 437.276 132.084 435.864 Q130.209 434.429 126.691 434.429 Q124.769 434.429 122.57 434.846 Q120.371 435.263 117.732 436.142 L117.732 431.976 Q120.394 431.235 122.709 430.864 Q125.047 430.494 127.107 430.494 Q132.431 430.494 135.533 432.925 Q138.635 435.332 138.635 439.452 Q138.635 442.323 136.992 444.313 Q135.348 446.281 132.316 447.045 Z" fill="#000000" fill-rule="nonzero" fill-opacity="1" /><path clip-path="url(#clip160)" d="M129.862 110.266 L118.056 128.715 L129.862 128.715 L129.862 110.266 M128.635 106.192 L134.515 106.192 L134.515 128.715 L139.445 128.715 L139.445 132.604 L134.515 132.604 L134.515 140.752 L129.862 140.752 L129.862 132.604 L114.26 132.604 L114.26 128.09 L128.635 106.192 Z" fill="#000000" fill-rule="nonzero" fill-opacity="1" /><path clip-path="url(#clip160)" d="M16.4842 937.529 L16.4842 910.221 L21.895 910.221 L21.895 931.1 L35.8996 931.1 L35.8996 912.258 L41.3104 912.258 L41.3104 931.1 L64.0042 931.1 L64.0042 937.529 L16.4842 937.529 Z" fill="#000000" fill-rule="nonzero" fill-opacity="1" /><path clip-path="url(#clip160)" d="M33.8307 884.376 Q33.2578 885.362 33.0032 886.54 Q32.7167 887.686 32.7167 889.086 Q32.7167 894.052 35.9632 896.725 Q39.1779 899.367 45.2253 899.367 L64.0042 899.367 L64.0042 905.255 L28.3562 905.255 L28.3562 899.367 L33.8944 899.367 Q30.6479 897.521 29.0883 894.561 Q27.4968 891.601 27.4968 887.368 Q27.4968 886.763 27.5923 886.031 Q27.656 885.299 27.8151 884.408 L33.8307 884.376 Z" fill="#000000" fill-rule="nonzero" fill-opacity="1" /><path clip-path="url(#clip160)" d="M44.7161 849.173 L47.5806 849.173 L47.5806 876.1 Q53.6281 875.718 56.8109 872.472 Q59.9619 869.194 59.9619 863.369 Q59.9619 859.995 59.1344 856.844 Q58.3069 853.661 56.6518 850.542 L62.1899 850.542 Q63.5267 853.693 64.227 857.003 Q64.9272 860.313 64.9272 863.719 Q64.9272 872.249 59.9619 877.246 Q54.9967 882.211 46.5303 882.211 Q37.7774 882.211 32.6531 877.501 Q27.4968 872.758 27.4968 864.738 Q27.4968 857.544 32.1438 853.375 Q36.7589 849.173 44.7161 849.173 M42.9973 855.03 Q38.1912 855.093 35.3266 857.735 Q32.4621 860.345 32.4621 864.674 Q32.4621 869.575 35.2312 872.536 Q38.0002 875.464 43.0292 875.909 L42.9973 855.03 Z" fill="#000000" fill-rule="nonzero" fill-opacity="1" /><path clip-path="url(#clip160)" d="M46.212 836.06 Q52.6732 836.06 56.3653 833.418 Q60.0256 830.745 60.0256 826.098 Q60.0256 821.451 56.3653 818.777 Q52.6732 816.104 46.212 816.104 Q39.7508 816.104 36.0905 818.777 Q32.3984 821.451 32.3984 826.098 Q32.3984 830.745 36.0905 833.418 Q39.7508 836.06 46.212 836.06 M58.657 816.104 Q61.8398 817.95 63.3994 820.782 Q64.9272 823.583 64.9272 827.53 Q64.9272 833.991 59.771 838.065 Q54.6147 842.107 46.212 842.107 Q37.8093 842.107 32.6531 838.065 Q27.4968 833.991 27.4968 827.53 Q27.4968 823.583 29.0564 820.782 Q30.5842 817.95 33.7671 816.104 L28.3562 816.104 L28.3562 810.247 L77.5631 810.247 L77.5631 816.104 L58.657 816.104 Z" fill="#000000" fill-rule="nonzero" fill-opacity="1" /><path clip-path="url(#clip160)" d="M49.9359 798.789 L28.3562 798.789 L28.3562 792.932 L49.7131 792.932 Q54.7739 792.932 57.3202 790.959 Q59.8346 788.986 59.8346 785.039 Q59.8346 780.296 56.8109 777.559 Q53.7872 774.79 48.5673 774.79 L28.3562 774.79 L28.3562 768.934 L64.0042 768.934 L64.0042 774.79 L58.5296 774.79 Q61.7762 776.923 63.3676 779.755 Q64.9272 782.556 64.9272 786.28 Q64.9272 792.423 61.1078 795.606 Q57.2883 798.789 49.9359 798.789 M27.4968 784.052 L27.4968 784.052 Z" fill="#000000" fill-rule="nonzero" fill-opacity="1" /><path clip-path="url(#clip160)" d="M44.7161 726.379 L47.5806 726.379 L47.5806 753.306 Q53.6281 752.924 56.8109 749.677 Q59.9619 746.399 59.9619 740.574 Q59.9619 737.201 59.1344 734.05 Q58.3069 730.867 56.6518 727.748 L62.1899 727.748 Q63.5267 730.899 64.227 734.209 Q64.9272 737.519 64.9272 740.925 Q64.9272 749.455 59.9619 754.452 Q54.9967 759.417 46.5303 759.417 Q37.7774 759.417 32.6531 754.706 Q27.4968 749.964 27.4968 741.943 Q27.4968 734.75 32.1438 730.58 Q36.7589 726.379 44.7161 726.379 M42.9973 732.235 Q38.1912 732.299 35.3266 734.941 Q32.4621 737.551 32.4621 741.879 Q32.4621 746.781 35.2312 749.741 Q38.0002 752.669 43.0292 753.115 L42.9973 732.235 Z" fill="#000000" fill-rule="nonzero" fill-opacity="1" /><path clip-path="url(#clip160)" d="M42.4881 687.134 L64.0042 687.134 L64.0042 692.991 L42.679 692.991 Q37.6183 692.991 35.1038 694.964 Q32.5894 696.938 32.5894 700.884 Q32.5894 705.627 35.6131 708.364 Q38.6368 711.101 43.8567 711.101 L64.0042 711.101 L64.0042 716.989 L28.3562 716.989 L28.3562 711.101 L33.8944 711.101 Q30.6797 709.001 29.0883 706.168 Q27.4968 703.303 27.4968 699.579 Q27.4968 693.436 31.3163 690.285 Q35.1038 687.134 42.4881 687.134 Z" fill="#000000" fill-rule="nonzero" fill-opacity="1" /><path clip-path="url(#clip160)" d="M29.7248 649.799 L35.1993 649.799 Q33.8307 652.282 33.1623 654.797 Q32.4621 657.279 32.4621 659.825 Q32.4621 665.523 36.0905 668.674 Q39.6872 671.825 46.212 671.825 Q52.7369 671.825 56.3653 668.674 Q59.9619 665.523 59.9619 659.825 Q59.9619 657.279 59.2935 654.797 Q58.5933 652.282 57.2247 649.799 L62.6355 649.799 Q63.7814 652.25 64.3543 654.892 Q64.9272 657.502 64.9272 660.462 Q64.9272 668.515 59.8664 673.257 Q54.8057 678 46.212 678 Q37.491 678 32.4939 673.225 Q27.4968 668.419 27.4968 660.08 Q27.4968 657.375 28.0697 654.797 Q28.6108 652.218 29.7248 649.799 Z" fill="#000000" fill-rule="nonzero" fill-opacity="1" /><path clip-path="url(#clip160)" d="M67.3143 624.782 Q73.68 627.265 75.6216 629.62 Q77.5631 631.975 77.5631 635.922 L77.5631 640.601 L72.6615 640.601 L72.6615 637.164 Q72.6615 634.745 71.5157 633.408 Q70.3699 632.071 66.1048 630.448 L63.4312 629.397 L28.3562 643.816 L28.3562 637.609 L56.238 626.469 L28.3562 615.329 L28.3562 609.123 L67.3143 624.782 Z" fill="#000000" fill-rule="nonzero" fill-opacity="1" /><path clip-path="url(#clip160)" d="M341.224 18.8205 L341.224 65.8515 L351.108 65.8515 Q363.625 65.8515 369.418 60.1802 Q375.251 54.509 375.251 42.2752 Q375.251 30.1225 369.418 24.4918 Q363.625 18.8205 351.108 18.8205 L341.224 18.8205 M333.041 12.096 L349.852 12.096 Q367.433 12.096 375.656 19.4281 Q383.88 26.7198 383.88 42.2752 Q383.88 57.9117 375.616 65.2439 Q367.352 72.576 349.852 72.576 L333.041 72.576 L333.041 12.096 Z" fill="#000000" fill-rule="nonzero" fill-opacity="1" /><path clip-path="url(#clip160)" d="M396.599 27.2059 L404.053 27.2059 L404.053 72.576 L396.599 72.576 L396.599 27.2059 M396.599 9.54393 L404.053 9.54393 L404.053 18.9825 L396.599 18.9825 L396.599 9.54393 Z" fill="#000000" fill-rule="nonzero" fill-opacity="1" /><path clip-path="url(#clip160)" d="M442.618 9.54393 L442.618 15.7418 L435.488 15.7418 Q431.478 15.7418 429.898 17.3622 Q428.359 18.9825 428.359 23.1955 L428.359 27.2059 L440.633 27.2059 L440.633 32.9987 L428.359 32.9987 L428.359 72.576 L420.864 72.576 L420.864 32.9987 L413.735 32.9987 L413.735 27.2059 L420.864 27.2059 L420.864 24.0462 Q420.864 16.471 424.389 13.0277 Q427.913 9.54393 435.569 9.54393 L442.618 9.54393 Z" fill="#000000" fill-rule="nonzero" fill-opacity="1" /><path clip-path="url(#clip160)" d="M471.825 9.54393 L471.825 15.7418 L464.695 15.7418 Q460.685 15.7418 459.105 17.3622 Q457.566 18.9825 457.566 23.1955 L457.566 27.2059 L469.84 27.2059 L469.84 32.9987 L457.566 32.9987 L457.566 72.576 L450.071 72.576 L450.071 32.9987 L442.942 32.9987 L442.942 27.2059 L450.071 27.2059 L450.071 24.0462 Q450.071 16.471 453.596 13.0277 Q457.12 9.54393 464.776 9.54393 L471.825 9.54393 Z" fill="#000000" fill-rule="nonzero" fill-opacity="1" /><path clip-path="url(#clip160)" d="M516.871 48.0275 L516.871 51.6733 L482.6 51.6733 Q483.086 59.3701 487.218 63.421 Q491.391 67.4314 498.804 67.4314 Q503.098 67.4314 507.108 66.3781 Q511.159 65.3249 515.129 63.2184 L515.129 70.267 Q511.118 71.9684 506.906 72.8596 Q502.693 73.7508 498.358 73.7508 Q487.502 73.7508 481.142 67.4314 Q474.822 61.1119 474.822 50.3365 Q474.822 39.1965 480.818 32.6746 Q486.854 26.1121 497.062 26.1121 Q506.217 26.1121 511.524 32.0264 Q516.871 37.9003 516.871 48.0275 M509.417 45.84 Q509.336 39.7232 505.974 36.0774 Q502.652 32.4315 497.143 32.4315 Q490.904 32.4315 487.137 35.9558 Q483.41 39.4801 482.843 45.8805 L509.417 45.84 Z" fill="#000000" fill-rule="nonzero" fill-opacity="1" /><path clip-path="url(#clip160)" d="M555.395 34.1734 Q554.139 33.4443 552.64 33.1202 Q551.182 32.7556 549.4 32.7556 Q543.08 32.7556 539.677 36.8875 Q536.315 40.9789 536.315 48.6757 L536.315 72.576 L528.821 72.576 L528.821 27.2059 L536.315 27.2059 L536.315 34.2544 Q538.665 30.1225 542.432 28.1376 Q546.199 26.1121 551.587 26.1121 Q552.357 26.1121 553.288 26.2337 Q554.22 26.3147 555.354 26.5172 L555.395 34.1734 Z" fill="#000000" fill-rule="nonzero" fill-opacity="1" /><path clip-path="url(#clip160)" d="M600.198 48.0275 L600.198 51.6733 L565.927 51.6733 Q566.413 59.3701 570.545 63.421 Q574.718 67.4314 582.131 67.4314 Q586.425 67.4314 590.435 66.3781 Q594.486 65.3249 598.456 63.2184 L598.456 70.267 Q594.446 71.9684 590.233 72.8596 Q586.02 73.7508 581.685 73.7508 Q570.829 73.7508 564.469 67.4314 Q558.149 61.1119 558.149 50.3365 Q558.149 39.1965 564.145 32.6746 Q570.181 26.1121 580.389 26.1121 Q589.544 26.1121 594.851 32.0264 Q600.198 37.9003 600.198 48.0275 M592.744 45.84 Q592.663 39.7232 589.301 36.0774 Q585.979 32.4315 580.47 32.4315 Q574.232 32.4315 570.464 35.9558 Q566.737 39.4801 566.17 45.8805 L592.744 45.84 Z" fill="#000000" fill-rule="nonzero" fill-opacity="1" /><path clip-path="url(#clip160)" d="M650.146 45.1919 L650.146 72.576 L642.692 72.576 L642.692 45.4349 Q642.692 38.994 640.18 35.7938 Q637.669 32.5936 632.646 32.5936 Q626.61 32.5936 623.126 36.4419 Q619.642 40.2903 619.642 46.9338 L619.642 72.576 L612.148 72.576 L612.148 27.2059 L619.642 27.2059 L619.642 34.2544 Q622.316 30.163 625.921 28.1376 Q629.567 26.1121 634.306 26.1121 Q642.125 26.1121 646.135 30.9732 Q650.146 35.7938 650.146 45.1919 Z" fill="#000000" fill-rule="nonzero" fill-opacity="1" /><path clip-path="url(#clip160)" d="M697.663 28.9478 L697.663 35.9153 Q694.503 34.1734 691.303 33.3227 Q688.143 32.4315 684.902 32.4315 Q677.651 32.4315 673.641 37.0496 Q669.63 41.6271 669.63 49.9314 Q669.63 58.2358 673.641 62.8538 Q677.651 67.4314 684.902 67.4314 Q688.143 67.4314 691.303 66.5807 Q694.503 65.6895 697.663 63.9476 L697.663 70.8341 Q694.543 72.2924 691.181 73.0216 Q687.859 73.7508 684.092 73.7508 Q673.843 73.7508 667.807 67.3098 Q661.772 60.8689 661.772 49.9314 Q661.772 38.832 667.848 32.472 Q673.965 26.1121 684.578 26.1121 Q688.021 26.1121 691.303 26.8413 Q694.584 27.5299 697.663 28.9478 Z" fill="#000000" fill-rule="nonzero" fill-opacity="1" /><path clip-path="url(#clip160)" d="M749.433 48.0275 L749.433 51.6733 L715.163 51.6733 Q715.649 59.3701 719.781 63.421 Q723.953 67.4314 731.366 67.4314 Q735.66 67.4314 739.67 66.3781 Q743.721 65.3249 747.691 63.2184 L747.691 70.267 Q743.681 71.9684 739.468 72.8596 Q735.255 73.7508 730.921 73.7508 Q720.064 73.7508 713.704 67.4314 Q707.385 61.1119 707.385 50.3365 Q707.385 39.1965 713.38 32.6746 Q719.416 26.1121 729.624 26.1121 Q738.779 26.1121 744.086 32.0264 Q749.433 37.9003 749.433 48.0275 M741.98 45.84 Q741.898 39.7232 738.536 36.0774 Q735.215 32.4315 729.705 32.4315 Q723.467 32.4315 719.7 35.9558 Q715.973 39.4801 715.406 45.8805 L741.98 45.84 Z" fill="#000000" fill-rule="nonzero" fill-opacity="1" /><path clip-path="url(#clip160)" d="M820.608 49.9314 Q820.608 41.7081 817.205 37.0496 Q813.843 32.3505 807.928 32.3505 Q802.014 32.3505 798.611 37.0496 Q795.249 41.7081 795.249 49.9314 Q795.249 58.1548 798.611 62.8538 Q802.014 67.5124 807.928 67.5124 Q813.843 67.5124 817.205 62.8538 Q820.608 58.1548 820.608 49.9314 M795.249 34.0924 Q797.598 30.0415 801.163 28.0971 Q804.769 26.1121 809.751 26.1121 Q818.015 26.1121 823.16 32.6746 Q828.345 39.2371 828.345 49.9314 Q828.345 60.6258 823.16 67.1883 Q818.015 73.7508 809.751 73.7508 Q804.769 73.7508 801.163 71.8063 Q797.598 69.8214 795.249 65.7705 L795.249 72.576 L787.755 72.576 L787.755 9.54393 L795.249 9.54393 L795.249 34.0924 Z" fill="#000000" fill-rule="nonzero" fill-opacity="1" /><path clip-path="url(#clip160)" d="M879.508 48.0275 L879.508 51.6733 L845.237 51.6733 Q845.723 59.3701 849.855 63.421 Q854.028 67.4314 861.441 67.4314 Q865.735 67.4314 869.745 66.3781 Q873.796 65.3249 877.766 63.2184 L877.766 70.267 Q873.755 71.9684 869.542 72.8596 Q865.33 73.7508 860.995 73.7508 Q850.139 73.7508 843.779 67.4314 Q837.459 61.1119 837.459 50.3365 Q837.459 39.1965 843.455 32.6746 Q849.491 26.1121 859.699 26.1121 Q868.854 26.1121 874.161 32.0264 Q879.508 37.9003 879.508 48.0275 M872.054 45.84 Q871.973 39.7232 868.611 36.0774 Q865.289 32.4315 859.78 32.4315 Q853.541 32.4315 849.774 35.9558 Q846.047 39.4801 845.48 45.8805 L872.054 45.84 Z" fill="#000000" fill-rule="nonzero" fill-opacity="1" /><path clip-path="url(#clip160)" d="M899.114 14.324 L899.114 27.2059 L914.467 27.2059 L914.467 32.9987 L899.114 32.9987 L899.114 57.6282 Q899.114 63.1779 900.613 64.7578 Q902.152 66.3376 906.811 66.3376 L914.467 66.3376 L914.467 72.576 L906.811 72.576 Q898.182 72.576 894.901 69.3758 Q891.62 66.1351 891.62 57.6282 L891.62 32.9987 L886.151 32.9987 L886.151 27.2059 L891.62 27.2059 L891.62 14.324 L899.114 14.324 Z" fill="#000000" fill-rule="nonzero" fill-opacity="1" /><path clip-path="url(#clip160)" d="M919.936 27.2059 L927.389 27.2059 L936.706 62.6108 L945.983 27.2059 L954.774 27.2059 L964.091 62.6108 L973.367 27.2059 L980.821 27.2059 L968.952 72.576 L960.161 72.576 L950.399 35.3887 L940.595 72.576 L931.805 72.576 L919.936 27.2059 Z" fill="#000000" fill-rule="nonzero" fill-opacity="1" /><path clip-path="url(#clip160)" d="M1030.93 48.0275 L1030.93 51.6733 L996.66 51.6733 Q997.146 59.3701 1001.28 63.421 Q1005.45 67.4314 1012.86 67.4314 Q1017.16 67.4314 1021.17 66.3781 Q1025.22 65.3249 1029.19 63.2184 L1029.19 70.267 Q1025.18 71.9684 1020.97 72.8596 Q1016.75 73.7508 1012.42 73.7508 Q1001.56 73.7508 995.202 67.4314 Q988.882 61.1119 988.882 50.3365 Q988.882 39.1965 994.877 32.6746 Q1000.91 26.1121 1011.12 26.1121 Q1020.28 26.1121 1025.58 32.0264 Q1030.93 37.9003 1030.93 48.0275 M1023.48 45.84 Q1023.4 39.7232 1020.03 36.0774 Q1016.71 32.4315 1011.2 32.4315 Q1004.96 32.4315 1001.2 35.9558 Q997.47 39.4801 996.903 45.8805 L1023.48 45.84 Z" fill="#000000" fill-rule="nonzero" fill-opacity="1" /><path clip-path="url(#clip160)" d="M1081.97 48.0275 L1081.97 51.6733 L1047.7 51.6733 Q1048.19 59.3701 1052.32 63.421 Q1056.49 67.4314 1063.9 67.4314 Q1068.2 67.4314 1072.21 66.3781 Q1076.26 65.3249 1080.23 63.2184 L1080.23 70.267 Q1076.22 71.9684 1072.01 72.8596 Q1067.79 73.7508 1063.46 73.7508 Q1052.6 73.7508 1046.24 67.4314 Q1039.92 61.1119 1039.92 50.3365 Q1039.92 39.1965 1045.92 32.6746 Q1051.95 26.1121 1062.16 26.1121 Q1071.32 26.1121 1076.62 32.0264 Q1081.97 37.9003 1081.97 48.0275 M1074.52 45.84 Q1074.44 39.7232 1071.07 36.0774 Q1067.75 32.4315 1062.24 32.4315 Q1056.01 32.4315 1052.24 35.9558 Q1048.51 39.4801 1047.94 45.8805 L1074.52 45.84 Z" fill="#000000" fill-rule="nonzero" fill-opacity="1" /><path clip-path="url(#clip160)" d="M1131.92 45.1919 L1131.92 72.576 L1124.47 72.576 L1124.47 45.4349 Q1124.47 38.994 1121.95 35.7938 Q1119.44 32.5936 1114.42 32.5936 Q1108.38 32.5936 1104.9 36.4419 Q1101.42 40.2903 1101.42 46.9338 L1101.42 72.576 L1093.92 72.576 L1093.92 27.2059 L1101.42 27.2059 L1101.42 34.2544 Q1104.09 30.163 1107.7 28.1376 Q1111.34 26.1121 1116.08 26.1121 Q1123.9 26.1121 1127.91 30.9732 Q1131.92 35.7938 1131.92 45.1919 Z" fill="#000000" fill-rule="nonzero" fill-opacity="1" /><path clip-path="url(#clip160)" d="M1173.16 9.54393 L1180.61 9.54393 L1180.61 72.576 L1173.16 72.576 L1173.16 9.54393 Z" fill="#000000" fill-rule="nonzero" fill-opacity="1" /><path clip-path="url(#clip160)" d="M1235.02 48.0275 L1235.02 51.6733 L1200.74 51.6733 Q1201.23 59.3701 1205.36 63.421 Q1209.53 67.4314 1216.95 67.4314 Q1221.24 67.4314 1225.25 66.3781 Q1229.3 65.3249 1233.27 63.2184 L1233.27 70.267 Q1229.26 71.9684 1225.05 72.8596 Q1220.84 73.7508 1216.5 73.7508 Q1205.65 73.7508 1199.29 67.4314 Q1192.97 61.1119 1192.97 50.3365 Q1192.97 39.1965 1198.96 32.6746 Q1205 26.1121 1215.21 26.1121 Q1224.36 26.1121 1229.67 32.0264 Q1235.02 37.9003 1235.02 48.0275 M1227.56 45.84 Q1227.48 39.7232 1224.12 36.0774 Q1220.8 32.4315 1215.29 32.4315 Q1209.05 32.4315 1205.28 35.9558 Q1201.55 39.4801 1200.99 45.8805 L1227.56 45.84 Z" fill="#000000" fill-rule="nonzero" fill-opacity="1" /><path clip-path="url(#clip160)" d="M1267.87 49.7694 Q1258.83 49.7694 1255.35 51.8354 Q1251.87 53.9013 1251.87 58.8839 Q1251.87 62.8538 1254.46 65.2034 Q1257.09 67.5124 1261.59 67.5124 Q1267.79 67.5124 1271.51 63.1374 Q1275.28 58.7219 1275.28 51.4303 L1275.28 49.7694 L1267.87 49.7694 M1282.73 46.6907 L1282.73 72.576 L1275.28 72.576 L1275.28 65.6895 Q1272.73 69.8214 1268.92 71.8063 Q1265.11 73.7508 1259.6 73.7508 Q1252.64 73.7508 1248.5 69.8619 Q1244.41 65.9325 1244.41 59.3701 Q1244.41 51.7138 1249.52 47.825 Q1254.66 43.9361 1264.83 43.9361 L1275.28 43.9361 L1275.28 43.2069 Q1275.28 38.0623 1271.88 35.2672 Q1268.52 32.4315 1262.4 32.4315 Q1258.51 32.4315 1254.82 33.3632 Q1251.14 34.295 1247.73 36.1584 L1247.73 29.2718 Q1251.83 27.692 1255.67 26.9223 Q1259.52 26.1121 1263.17 26.1121 Q1273.01 26.1121 1277.87 31.2163 Q1282.73 36.3204 1282.73 46.6907 Z" fill="#000000" fill-rule="nonzero" fill-opacity="1" /><path clip-path="url(#clip160)" d="M1327.94 34.0924 L1327.94 9.54393 L1335.4 9.54393 L1335.4 72.576 L1327.94 72.576 L1327.94 65.7705 Q1325.59 69.8214 1321.99 71.8063 Q1318.42 73.7508 1313.4 73.7508 Q1305.18 73.7508 1299.99 67.1883 Q1294.85 60.6258 1294.85 49.9314 Q1294.85 39.2371 1299.99 32.6746 Q1305.18 26.1121 1313.4 26.1121 Q1318.42 26.1121 1321.99 28.0971 Q1325.59 30.0415 1327.94 34.0924 M1302.54 49.9314 Q1302.54 58.1548 1305.91 62.8538 Q1309.31 67.5124 1315.22 67.5124 Q1321.14 67.5124 1324.54 62.8538 Q1327.94 58.1548 1327.94 49.9314 Q1327.94 41.7081 1324.54 37.0496 Q1321.14 32.3505 1315.22 32.3505 Q1309.31 32.3505 1305.91 37.0496 Q1302.54 41.7081 1302.54 49.9314 Z" fill="#000000" fill-rule="nonzero" fill-opacity="1" /><path clip-path="url(#clip160)" d="M1389.56 48.0275 L1389.56 51.6733 L1355.29 51.6733 Q1355.77 59.3701 1359.9 63.421 Q1364.08 67.4314 1371.49 67.4314 Q1375.78 67.4314 1379.79 66.3781 Q1383.85 65.3249 1387.82 63.2184 L1387.82 70.267 Q1383.8 71.9684 1379.59 72.8596 Q1375.38 73.7508 1371.04 73.7508 Q1360.19 73.7508 1353.83 67.4314 Q1347.51 61.1119 1347.51 50.3365 Q1347.51 39.1965 1353.5 32.6746 Q1359.54 26.1121 1369.75 26.1121 Q1378.9 26.1121 1384.21 32.0264 Q1389.56 37.9003 1389.56 48.0275 M1382.1 45.84 Q1382.02 39.7232 1378.66 36.0774 Q1375.34 32.4315 1369.83 32.4315 Q1363.59 32.4315 1359.82 35.9558 Q1356.1 39.4801 1355.53 45.8805 L1382.1 45.84 Z" fill="#000000" fill-rule="nonzero" fill-opacity="1" /><path clip-path="url(#clip160)" d="M1428.08 34.1734 Q1426.83 33.4443 1425.33 33.1202 Q1423.87 32.7556 1422.09 32.7556 Q1415.77 32.7556 1412.36 36.8875 Q1409 40.9789 1409 48.6757 L1409 72.576 L1401.51 72.576 L1401.51 27.2059 L1409 27.2059 L1409 34.2544 Q1411.35 30.1225 1415.12 28.1376 Q1418.89 26.1121 1424.27 26.1121 Q1425.04 26.1121 1425.97 26.2337 Q1426.91 26.3147 1428.04 26.5172 L1428.08 34.1734 Z" fill="#000000" fill-rule="nonzero" fill-opacity="1" /><path clip-path="url(#clip160)" d="M1482.89 49.7694 Q1473.86 49.7694 1470.37 51.8354 Q1466.89 53.9013 1466.89 58.8839 Q1466.89 62.8538 1469.48 65.2034 Q1472.11 67.5124 1476.61 67.5124 Q1482.81 67.5124 1486.54 63.1374 Q1490.3 58.7219 1490.3 51.4303 L1490.3 49.7694 L1482.89 49.7694 M1497.76 46.6907 L1497.76 72.576 L1490.3 72.576 L1490.3 65.6895 Q1487.75 69.8214 1483.94 71.8063 Q1480.14 73.7508 1474.63 73.7508 Q1467.66 73.7508 1463.53 69.8619 Q1459.44 65.9325 1459.44 59.3701 Q1459.44 51.7138 1464.54 47.825 Q1469.68 43.9361 1479.85 43.9361 L1490.3 43.9361 L1490.3 43.2069 Q1490.3 38.0623 1486.9 35.2672 Q1483.54 32.4315 1477.42 32.4315 Q1473.53 32.4315 1469.85 33.3632 Q1466.16 34.295 1462.76 36.1584 L1462.76 29.2718 Q1466.85 27.692 1470.7 26.9223 Q1474.55 26.1121 1478.19 26.1121 Q1488.03 26.1121 1492.9 31.2163 Q1497.76 36.3204 1497.76 46.6907 Z" fill="#000000" fill-rule="nonzero" fill-opacity="1" /><path clip-path="url(#clip160)" d="M1550.82 45.1919 L1550.82 72.576 L1543.37 72.576 L1543.37 45.4349 Q1543.37 38.994 1540.86 35.7938 Q1538.35 32.5936 1533.32 32.5936 Q1527.29 32.5936 1523.8 36.4419 Q1520.32 40.2903 1520.32 46.9338 L1520.32 72.576 L1512.83 72.576 L1512.83 27.2059 L1520.32 27.2059 L1520.32 34.2544 Q1522.99 30.163 1526.6 28.1376 Q1530.24 26.1121 1534.98 26.1121 Q1542.8 26.1121 1546.81 30.9732 Q1550.82 35.7938 1550.82 45.1919 Z" fill="#000000" fill-rule="nonzero" fill-opacity="1" /><path clip-path="url(#clip160)" d="M1595.55 34.0924 L1595.55 9.54393 L1603 9.54393 L1603 72.576 L1595.55 72.576 L1595.55 65.7705 Q1593.2 69.8214 1589.59 71.8063 Q1586.03 73.7508 1581 73.7508 Q1572.78 73.7508 1567.59 67.1883 Q1562.45 60.6258 1562.45 49.9314 Q1562.45 39.2371 1567.59 32.6746 Q1572.78 26.1121 1581 26.1121 Q1586.03 26.1121 1589.59 28.0971 Q1593.2 30.0415 1595.55 34.0924 M1570.15 49.9314 Q1570.15 58.1548 1573.51 62.8538 Q1576.91 67.5124 1582.83 67.5124 Q1588.74 67.5124 1592.14 62.8538 Q1595.55 58.1548 1595.55 49.9314 Q1595.55 41.7081 1592.14 37.0496 Q1588.74 32.3505 1582.83 32.3505 Q1576.91 32.3505 1573.51 37.0496 Q1570.15 41.7081 1570.15 49.9314 Z" fill="#000000" fill-rule="nonzero" fill-opacity="1" /><path clip-path="url(#clip160)" d="M1667.69 9.54393 L1667.69 15.7418 L1660.56 15.7418 Q1656.55 15.7418 1654.97 17.3622 Q1653.43 18.9825 1653.43 23.1955 L1653.43 27.2059 L1665.71 27.2059 L1665.71 32.9987 L1653.43 32.9987 L1653.43 72.576 L1645.94 72.576 L1645.94 32.9987 L1638.81 32.9987 L1638.81 27.2059 L1645.94 27.2059 L1645.94 24.0462 Q1645.94 16.471 1649.46 13.0277 Q1652.99 9.54393 1660.64 9.54393 L1667.69 9.54393 Z" fill="#000000" fill-rule="nonzero" fill-opacity="1" /><path clip-path="url(#clip160)" d="M1691.51 32.4315 Q1685.52 32.4315 1682.03 37.1306 Q1678.55 41.7891 1678.55 49.9314 Q1678.55 58.0738 1681.99 62.7728 Q1685.48 67.4314 1691.51 67.4314 Q1697.47 67.4314 1700.95 62.7323 Q1704.43 58.0333 1704.43 49.9314 Q1704.43 41.8701 1700.95 37.1711 Q1697.47 32.4315 1691.51 32.4315 M1691.51 26.1121 Q1701.23 26.1121 1706.78 32.4315 Q1712.33 38.7509 1712.33 49.9314 Q1712.33 61.0714 1706.78 67.4314 Q1701.23 73.7508 1691.51 73.7508 Q1681.75 73.7508 1676.2 67.4314 Q1670.69 61.0714 1670.69 49.9314 Q1670.69 38.7509 1676.2 32.4315 Q1681.75 26.1121 1691.51 26.1121 Z" fill="#000000" fill-rule="nonzero" fill-opacity="1" /><path clip-path="url(#clip160)" d="M1724.69 9.54393 L1732.14 9.54393 L1732.14 72.576 L1724.69 72.576 L1724.69 9.54393 Z" fill="#000000" fill-rule="nonzero" fill-opacity="1" /><path clip-path="url(#clip160)" d="M1747.74 9.54393 L1755.19 9.54393 L1755.19 72.576 L1747.74 72.576 L1747.74 9.54393 Z" fill="#000000" fill-rule="nonzero" fill-opacity="1" /><path clip-path="url(#clip160)" d="M1788.37 32.4315 Q1782.37 32.4315 1778.89 37.1306 Q1775.41 41.7891 1775.41 49.9314 Q1775.41 58.0738 1778.85 62.7728 Q1782.33 67.4314 1788.37 67.4314 Q1794.32 67.4314 1797.81 62.7323 Q1801.29 58.0333 1801.29 49.9314 Q1801.29 41.8701 1797.81 37.1711 Q1794.32 32.4315 1788.37 32.4315 M1788.37 26.1121 Q1798.09 26.1121 1803.64 32.4315 Q1809.19 38.7509 1809.19 49.9314 Q1809.19 61.0714 1803.64 67.4314 Q1798.09 73.7508 1788.37 73.7508 Q1778.61 73.7508 1773.06 67.4314 Q1767.55 61.0714 1767.55 49.9314 Q1767.55 38.7509 1773.06 32.4315 Q1778.61 26.1121 1788.37 26.1121 Z" fill="#000000" fill-rule="nonzero" fill-opacity="1" /><path clip-path="url(#clip160)" d="M1817.21 27.2059 L1824.66 27.2059 L1833.98 62.6108 L1843.26 27.2059 L1852.05 27.2059 L1861.37 62.6108 L1870.64 27.2059 L1878.1 27.2059 L1866.23 72.576 L1857.44 72.576 L1847.67 35.3887 L1837.87 72.576 L1829.08 72.576 L1817.21 27.2059 Z" fill="#000000" fill-rule="nonzero" fill-opacity="1" /><path clip-path="url(#clip160)" d="M1928.21 48.0275 L1928.21 51.6733 L1893.94 51.6733 Q1894.42 59.3701 1898.55 63.421 Q1902.73 67.4314 1910.14 67.4314 Q1914.43 67.4314 1918.44 66.3781 Q1922.49 65.3249 1926.46 63.2184 L1926.46 70.267 Q1922.45 71.9684 1918.24 72.8596 Q1914.03 73.7508 1909.69 73.7508 Q1898.84 73.7508 1892.48 67.4314 Q1886.16 61.1119 1886.16 50.3365 Q1886.16 39.1965 1892.15 32.6746 Q1898.19 26.1121 1908.4 26.1121 Q1917.55 26.1121 1922.86 32.0264 Q1928.21 37.9003 1928.21 48.0275 M1920.75 45.84 Q1920.67 39.7232 1917.31 36.0774 Q1913.99 32.4315 1908.48 32.4315 Q1902.24 32.4315 1898.47 35.9558 Q1894.75 39.4801 1894.18 45.8805 L1920.75 45.84 Z" fill="#000000" fill-rule="nonzero" fill-opacity="1" /><path clip-path="url(#clip160)" d="M1966.73 34.1734 Q1965.47 33.4443 1963.98 33.1202 Q1962.52 32.7556 1960.73 32.7556 Q1954.42 32.7556 1951.01 36.8875 Q1947.65 40.9789 1947.65 48.6757 L1947.65 72.576 L1940.16 72.576 L1940.16 27.2059 L1947.65 27.2059 L1947.65 34.2544 Q1950 30.1225 1953.77 28.1376 Q1957.53 26.1121 1962.92 26.1121 Q1963.69 26.1121 1964.62 26.2337 Q1965.56 26.3147 1966.69 26.5172 L1966.73 34.1734 Z" fill="#000000" fill-rule="nonzero" fill-opacity="1" /><path clip-path="url(#clip160)" d="M2008.13 65.7705 L2008.13 89.8329 L2000.64 89.8329 L2000.64 27.2059 L2008.13 27.2059 L2008.13 34.0924 Q2010.48 30.0415 2014.04 28.0971 Q2017.65 26.1121 2022.63 26.1121 Q2030.9 26.1121 2036.04 32.6746 Q2041.23 39.2371 2041.23 49.9314 Q2041.23 60.6258 2036.04 67.1883 Q2030.9 73.7508 2022.63 73.7508 Q2017.65 73.7508 2014.04 71.8063 Q2010.48 69.8214 2008.13 65.7705 M2033.49 49.9314 Q2033.49 41.7081 2030.09 37.0496 Q2026.72 32.3505 2020.81 32.3505 Q2014.9 32.3505 2011.49 37.0496 Q2008.13 41.7081 2008.13 49.9314 Q2008.13 58.1548 2011.49 62.8538 Q2014.9 67.5124 2020.81 67.5124 Q2026.72 67.5124 2030.09 62.8538 Q2033.49 58.1548 2033.49 49.9314 Z" fill="#000000" fill-rule="nonzero" fill-opacity="1" /><path clip-path="url(#clip160)" d="M2079.87 34.1734 Q2078.62 33.4443 2077.12 33.1202 Q2075.66 32.7556 2073.88 32.7556 Q2067.56 32.7556 2064.15 36.8875 Q2060.79 40.9789 2060.79 48.6757 L2060.79 72.576 L2053.3 72.576 L2053.3 27.2059 L2060.79 27.2059 L2060.79 34.2544 Q2063.14 30.1225 2066.91 28.1376 Q2070.68 26.1121 2076.06 26.1121 Q2076.83 26.1121 2077.77 26.2337 Q2078.7 26.3147 2079.83 26.5172 L2079.87 34.1734 Z" fill="#000000" fill-rule="nonzero" fill-opacity="1" /><path clip-path="url(#clip160)" d="M2087.69 27.2059 L2095.14 27.2059 L2095.14 72.576 L2087.69 72.576 L2087.69 27.2059 M2087.69 9.54393 L2095.14 9.54393 L2095.14 18.9825 L2087.69 18.9825 L2087.69 9.54393 Z" fill="#000000" fill-rule="nonzero" fill-opacity="1" /><path clip-path="url(#clip160)" d="M2143.39 28.9478 L2143.39 35.9153 Q2140.23 34.1734 2137.03 33.3227 Q2133.87 32.4315 2130.63 32.4315 Q2123.38 32.4315 2119.37 37.0496 Q2115.36 41.6271 2115.36 49.9314 Q2115.36 58.2358 2119.37 62.8538 Q2123.38 67.4314 2130.63 67.4314 Q2133.87 67.4314 2137.03 66.5807 Q2140.23 65.6895 2143.39 63.9476 L2143.39 70.8341 Q2140.27 72.2924 2136.91 73.0216 Q2133.59 73.7508 2129.82 73.7508 Q2119.57 73.7508 2113.53 67.3098 Q2107.5 60.8689 2107.5 49.9314 Q2107.5 38.832 2113.58 32.472 Q2119.69 26.1121 2130.31 26.1121 Q2133.75 26.1121 2137.03 26.8413 Q2140.31 27.5299 2143.39 28.9478 Z" fill="#000000" fill-rule="nonzero" fill-opacity="1" /><path clip-path="url(#clip160)" d="M2195.16 48.0275 L2195.16 51.6733 L2160.89 51.6733 Q2161.38 59.3701 2165.51 63.421 Q2169.68 67.4314 2177.09 67.4314 Q2181.39 67.4314 2185.4 66.3781 Q2189.45 65.3249 2193.42 63.2184 L2193.42 70.267 Q2189.41 71.9684 2185.2 72.8596 Q2180.98 73.7508 2176.65 73.7508 Q2165.79 73.7508 2159.43 67.4314 Q2153.11 61.1119 2153.11 50.3365 Q2153.11 39.1965 2159.11 32.6746 Q2165.14 26.1121 2175.35 26.1121 Q2184.51 26.1121 2189.81 32.0264 Q2195.16 37.9003 2195.16 48.0275 M2187.71 45.84 Q2187.63 39.7232 2184.26 36.0774 Q2180.94 32.4315 2175.43 32.4315 Q2169.19 32.4315 2165.43 35.9558 Q2161.7 39.4801 2161.13 45.8805 L2187.71 45.84 Z" fill="#000000" fill-rule="nonzero" fill-opacity="1" /><path clip-path="url(#clip162)" d="M295.201 1423.18 L295.201 1423.18 L324.562 1423.18 L324.562 1423.18 L295.201 1423.18 L295.201 1423.18  Z" fill="#009af9" fill-rule="evenodd" fill-opacity="1"/>
<polyline clip-path="url(#clip162)" style="stroke:#000000; stroke-linecap:round; stroke-linejoin:round; stroke-width:4; stroke-opacity:1; fill:none" points="295.201,1423.18 295.201,1423.18 324.562,1423.18 295.201,1423.18 "/>
<path clip-path="url(#clip162)" d="M324.562 1423.18 L324.562 1423.18 L353.922 1423.18 L353.922 1423.18 L324.562 1423.18 L324.562 1423.18  Z" fill="#009af9" fill-rule="evenodd" fill-opacity="1"/>
<polyline clip-path="url(#clip162)" style="stroke:#000000; stroke-linecap:round; stroke-linejoin:round; stroke-width:4; stroke-opacity:1; fill:none" points="324.562,1423.18 324.562,1423.18 353.922,1423.18 324.562,1423.18 "/>
<path clip-path="url(#clip162)" d="M353.922 1423.18 L353.922 1423.18 L383.283 1423.18 L383.283 1423.18 L353.922 1423.18 L353.922 1423.18  Z" fill="#009af9" fill-rule="evenodd" fill-opacity="1"/>
<polyline clip-path="url(#clip162)" style="stroke:#000000; stroke-linecap:round; stroke-linejoin:round; stroke-width:4; stroke-opacity:1; fill:none" points="353.922,1423.18 353.922,1423.18 383.283,1423.18 353.922,1423.18 "/>
<path clip-path="url(#clip162)" d="M383.283 1423.18 L383.283 1423.18 L412.644 1423.18 L412.644 1423.18 L383.283 1423.18 L383.283 1423.18  Z" fill="#009af9" fill-rule="evenodd" fill-opacity="1"/>
<polyline clip-path="url(#clip162)" style="stroke:#000000; stroke-linecap:round; stroke-linejoin:round; stroke-width:4; stroke-opacity:1; fill:none" points="383.283,1423.18 383.283,1423.18 412.644,1423.18 383.283,1423.18 "/>
<path clip-path="url(#clip162)" d="M412.644 1423.18 L412.644 1423.18 L442.004 1423.18 L442.004 1423.18 L412.644 1423.18 L412.644 1423.18  Z" fill="#009af9" fill-rule="evenodd" fill-opacity="1"/>
<polyline clip-path="url(#clip162)" style="stroke:#000000; stroke-linecap:round; stroke-linejoin:round; stroke-width:4; stroke-opacity:1; fill:none" points="412.644,1423.18 412.644,1423.18 442.004,1423.18 412.644,1423.18 "/>
<path clip-path="url(#clip162)" d="M442.004 1423.18 L442.004 1423.18 L471.365 1423.18 L471.365 1423.18 L442.004 1423.18 L442.004 1423.18  Z" fill="#009af9" fill-rule="evenodd" fill-opacity="1"/>
<polyline clip-path="url(#clip162)" style="stroke:#000000; stroke-linecap:round; stroke-linejoin:round; stroke-width:4; stroke-opacity:1; fill:none" points="442.004,1423.18 442.004,1423.18 471.365,1423.18 442.004,1423.18 "/>
<path clip-path="url(#clip162)" d="M471.365 448.399 L471.365 1423.18 L500.725 1423.18 L500.725 448.399 L471.365 448.399 L471.365 448.399  Z" fill="#009af9" fill-rule="evenodd" fill-opacity="1"/>
<polyline clip-path="url(#clip162)" style="stroke:#000000; stroke-linecap:round; stroke-linejoin:round; stroke-width:4; stroke-opacity:1; fill:none" points="471.365,448.399 471.365,1423.18 500.725,1423.18 500.725,448.399 471.365,448.399 "/>
<path clip-path="url(#clip162)" d="M500.725 123.472 L500.725 1423.18 L530.086 1423.18 L530.086 123.472 L500.725 123.472 L500.725 123.472  Z" fill="#009af9" fill-rule="evenodd" fill-opacity="1"/>
<polyline clip-path="url(#clip162)" style="stroke:#000000; stroke-linecap:round; stroke-linejoin:round; stroke-width:4; stroke-opacity:1; fill:none" points="500.725,123.472 500.725,1423.18 530.086,1423.18 530.086,123.472 500.725,123.472 "/>
<path clip-path="url(#clip162)" d="M530.086 448.399 L530.086 1423.18 L559.446 1423.18 L559.446 448.399 L530.086 448.399 L530.086 448.399  Z" fill="#009af9" fill-rule="evenodd" fill-opacity="1"/>
<polyline clip-path="url(#clip162)" style="stroke:#000000; stroke-linecap:round; stroke-linejoin:round; stroke-width:4; stroke-opacity:1; fill:none" points="530.086,448.399 530.086,1423.18 559.446,1423.18 559.446,448.399 530.086,448.399 "/>
<path clip-path="url(#clip162)" d="M559.446 773.326 L559.446 1423.18 L588.807 1423.18 L588.807 773.326 L559.446 773.326 L559.446 773.326  Z" fill="#009af9" fill-rule="evenodd" fill-opacity="1"/>
<polyline clip-path="url(#clip162)" style="stroke:#000000; stroke-linecap:round; stroke-linejoin:round; stroke-width:4; stroke-opacity:1; fill:none" points="559.446,773.326 559.446,1423.18 588.807,1423.18 588.807,773.326 559.446,773.326 "/>
<path clip-path="url(#clip162)" d="M588.807 773.326 L588.807 1423.18 L618.168 1423.18 L618.168 773.326 L588.807 773.326 L588.807 773.326  Z" fill="#009af9" fill-rule="evenodd" fill-opacity="1"/>
<polyline clip-path="url(#clip162)" style="stroke:#000000; stroke-linecap:round; stroke-linejoin:round; stroke-width:4; stroke-opacity:1; fill:none" points="588.807,773.326 588.807,1423.18 618.168,1423.18 618.168,773.326 588.807,773.326 "/>
<path clip-path="url(#clip162)" d="M618.168 448.399 L618.168 1423.18 L647.528 1423.18 L647.528 448.399 L618.168 448.399 L618.168 448.399  Z" fill="#009af9" fill-rule="evenodd" fill-opacity="1"/>
<polyline clip-path="url(#clip162)" style="stroke:#000000; stroke-linecap:round; stroke-linejoin:round; stroke-width:4; stroke-opacity:1; fill:none" points="618.168,448.399 618.168,1423.18 647.528,1423.18 647.528,448.399 618.168,448.399 "/>
<path clip-path="url(#clip162)" d="M647.528 448.399 L647.528 1423.18 L676.889 1423.18 L676.889 448.399 L647.528 448.399 L647.528 448.399  Z" fill="#009af9" fill-rule="evenodd" fill-opacity="1"/>
<polyline clip-path="url(#clip162)" style="stroke:#000000; stroke-linecap:round; stroke-linejoin:round; stroke-width:4; stroke-opacity:1; fill:none" points="647.528,448.399 647.528,1423.18 676.889,1423.18 676.889,448.399 647.528,448.399 "/>
<path clip-path="url(#clip162)" d="M676.889 448.399 L676.889 1423.18 L706.249 1423.18 L706.249 448.399 L676.889 448.399 L676.889 448.399  Z" fill="#009af9" fill-rule="evenodd" fill-opacity="1"/>
<polyline clip-path="url(#clip162)" style="stroke:#000000; stroke-linecap:round; stroke-linejoin:round; stroke-width:4; stroke-opacity:1; fill:none" points="676.889,448.399 676.889,1423.18 706.249,1423.18 706.249,448.399 676.889,448.399 "/>
<path clip-path="url(#clip162)" d="M706.249 448.399 L706.249 1423.18 L735.61 1423.18 L735.61 448.399 L706.249 448.399 L706.249 448.399  Z" fill="#009af9" fill-rule="evenodd" fill-opacity="1"/>
<polyline clip-path="url(#clip162)" style="stroke:#000000; stroke-linecap:round; stroke-linejoin:round; stroke-width:4; stroke-opacity:1; fill:none" points="706.249,448.399 706.249,1423.18 735.61,1423.18 735.61,448.399 706.249,448.399 "/>
<path clip-path="url(#clip162)" d="M735.61 773.326 L735.61 1423.18 L764.971 1423.18 L764.971 773.326 L735.61 773.326 L735.61 773.326  Z" fill="#009af9" fill-rule="evenodd" fill-opacity="1"/>
<polyline clip-path="url(#clip162)" style="stroke:#000000; stroke-linecap:round; stroke-linejoin:round; stroke-width:4; stroke-opacity:1; fill:none" points="735.61,773.326 735.61,1423.18 764.971,1423.18 764.971,773.326 735.61,773.326 "/>
<path clip-path="url(#clip162)" d="M764.971 773.326 L764.971 1423.18 L794.331 1423.18 L794.331 773.326 L764.971 773.326 L764.971 773.326  Z" fill="#009af9" fill-rule="evenodd" fill-opacity="1"/>
<polyline clip-path="url(#clip162)" style="stroke:#000000; stroke-linecap:round; stroke-linejoin:round; stroke-width:4; stroke-opacity:1; fill:none" points="764.971,773.326 764.971,1423.18 794.331,1423.18 794.331,773.326 764.971,773.326 "/>
<path clip-path="url(#clip162)" d="M794.331 448.399 L794.331 1423.18 L823.692 1423.18 L823.692 448.399 L794.331 448.399 L794.331 448.399  Z" fill="#009af9" fill-rule="evenodd" fill-opacity="1"/>
<polyline clip-path="url(#clip162)" style="stroke:#000000; stroke-linecap:round; stroke-linejoin:round; stroke-width:4; stroke-opacity:1; fill:none" points="794.331,448.399 794.331,1423.18 823.692,1423.18 823.692,448.399 794.331,448.399 "/>
<path clip-path="url(#clip162)" d="M823.692 773.326 L823.692 1423.18 L853.052 1423.18 L853.052 773.326 L823.692 773.326 L823.692 773.326  Z" fill="#009af9" fill-rule="evenodd" fill-opacity="1"/>
<polyline clip-path="url(#clip162)" style="stroke:#000000; stroke-linecap:round; stroke-linejoin:round; stroke-width:4; stroke-opacity:1; fill:none" points="823.692,773.326 823.692,1423.18 853.052,1423.18 853.052,773.326 823.692,773.326 "/>
<path clip-path="url(#clip162)" d="M853.052 773.326 L853.052 1423.18 L882.413 1423.18 L882.413 773.326 L853.052 773.326 L853.052 773.326  Z" fill="#009af9" fill-rule="evenodd" fill-opacity="1"/>
<polyline clip-path="url(#clip162)" style="stroke:#000000; stroke-linecap:round; stroke-linejoin:round; stroke-width:4; stroke-opacity:1; fill:none" points="853.052,773.326 853.052,1423.18 882.413,1423.18 882.413,773.326 853.052,773.326 "/>
<path clip-path="url(#clip162)" d="M882.413 123.472 L882.413 1423.18 L911.774 1423.18 L911.774 123.472 L882.413 123.472 L882.413 123.472  Z" fill="#009af9" fill-rule="evenodd" fill-opacity="1"/>
<polyline clip-path="url(#clip162)" style="stroke:#000000; stroke-linecap:round; stroke-linejoin:round; stroke-width:4; stroke-opacity:1; fill:none" points="882.413,123.472 882.413,1423.18 911.774,1423.18 911.774,123.472 882.413,123.472 "/>
<path clip-path="url(#clip162)" d="M911.774 773.326 L911.774 1423.18 L941.134 1423.18 L941.134 773.326 L911.774 773.326 L911.774 773.326  Z" fill="#009af9" fill-rule="evenodd" fill-opacity="1"/>
<polyline clip-path="url(#clip162)" style="stroke:#000000; stroke-linecap:round; stroke-linejoin:round; stroke-width:4; stroke-opacity:1; fill:none" points="911.774,773.326 911.774,1423.18 941.134,1423.18 941.134,773.326 911.774,773.326 "/>
<path clip-path="url(#clip162)" d="M941.134 773.326 L941.134 1423.18 L970.495 1423.18 L970.495 773.326 L941.134 773.326 L941.134 773.326  Z" fill="#009af9" fill-rule="evenodd" fill-opacity="1"/>
<polyline clip-path="url(#clip162)" style="stroke:#000000; stroke-linecap:round; stroke-linejoin:round; stroke-width:4; stroke-opacity:1; fill:none" points="941.134,773.326 941.134,1423.18 970.495,1423.18 970.495,773.326 941.134,773.326 "/>
<path clip-path="url(#clip162)" d="M970.495 773.326 L970.495 1423.18 L999.855 1423.18 L999.855 773.326 L970.495 773.326 L970.495 773.326  Z" fill="#009af9" fill-rule="evenodd" fill-opacity="1"/>
<polyline clip-path="url(#clip162)" style="stroke:#000000; stroke-linecap:round; stroke-linejoin:round; stroke-width:4; stroke-opacity:1; fill:none" points="970.495,773.326 970.495,1423.18 999.855,1423.18 999.855,773.326 970.495,773.326 "/>
<path clip-path="url(#clip162)" d="M999.855 1098.25 L999.855 1423.18 L1029.22 1423.18 L1029.22 1098.25 L999.855 1098.25 L999.855 1098.25  Z" fill="#009af9" fill-rule="evenodd" fill-opacity="1"/>
<polyline clip-path="url(#clip162)" style="stroke:#000000; stroke-linecap:round; stroke-linejoin:round; stroke-width:4; stroke-opacity:1; fill:none" points="999.855,1098.25 999.855,1423.18 1029.22,1423.18 1029.22,1098.25 999.855,1098.25 "/>
<path clip-path="url(#clip162)" d="M1029.22 1098.25 L1029.22 1423.18 L1058.58 1423.18 L1058.58 1098.25 L1029.22 1098.25 L1029.22 1098.25  Z" fill="#009af9" fill-rule="evenodd" fill-opacity="1"/>
<polyline clip-path="url(#clip162)" style="stroke:#000000; stroke-linecap:round; stroke-linejoin:round; stroke-width:4; stroke-opacity:1; fill:none" points="1029.22,1098.25 1029.22,1423.18 1058.58,1423.18 1058.58,1098.25 1029.22,1098.25 "/>
<path clip-path="url(#clip162)" d="M1058.58 123.472 L1058.58 1423.18 L1087.94 1423.18 L1087.94 123.472 L1058.58 123.472 L1058.58 123.472  Z" fill="#009af9" fill-rule="evenodd" fill-opacity="1"/>
<polyline clip-path="url(#clip162)" style="stroke:#000000; stroke-linecap:round; stroke-linejoin:round; stroke-width:4; stroke-opacity:1; fill:none" points="1058.58,123.472 1058.58,1423.18 1087.94,1423.18 1087.94,123.472 1058.58,123.472 "/>
<path clip-path="url(#clip162)" d="M1087.94 1098.25 L1087.94 1423.18 L1117.3 1423.18 L1117.3 1098.25 L1087.94 1098.25 L1087.94 1098.25  Z" fill="#009af9" fill-rule="evenodd" fill-opacity="1"/>
<polyline clip-path="url(#clip162)" style="stroke:#000000; stroke-linecap:round; stroke-linejoin:round; stroke-width:4; stroke-opacity:1; fill:none" points="1087.94,1098.25 1087.94,1423.18 1117.3,1423.18 1117.3,1098.25 1087.94,1098.25 "/>
<path clip-path="url(#clip162)" d="M1117.3 1098.25 L1117.3 1423.18 L1146.66 1423.18 L1146.66 1098.25 L1117.3 1098.25 L1117.3 1098.25  Z" fill="#009af9" fill-rule="evenodd" fill-opacity="1"/>
<polyline clip-path="url(#clip162)" style="stroke:#000000; stroke-linecap:round; stroke-linejoin:round; stroke-width:4; stroke-opacity:1; fill:none" points="1117.3,1098.25 1117.3,1423.18 1146.66,1423.18 1146.66,1098.25 1117.3,1098.25 "/>
<path clip-path="url(#clip162)" d="M1146.66 123.472 L1146.66 1423.18 L1176.02 1423.18 L1176.02 123.472 L1146.66 123.472 L1146.66 123.472  Z" fill="#009af9" fill-rule="evenodd" fill-opacity="1"/>
<polyline clip-path="url(#clip162)" style="stroke:#000000; stroke-linecap:round; stroke-linejoin:round; stroke-width:4; stroke-opacity:1; fill:none" points="1146.66,123.472 1146.66,1423.18 1176.02,1423.18 1176.02,123.472 1146.66,123.472 "/>
<path clip-path="url(#clip162)" d="M1176.02 1098.25 L1176.02 1423.18 L1205.38 1423.18 L1205.38 1098.25 L1176.02 1098.25 L1176.02 1098.25  Z" fill="#009af9" fill-rule="evenodd" fill-opacity="1"/>
<polyline clip-path="url(#clip162)" style="stroke:#000000; stroke-linecap:round; stroke-linejoin:round; stroke-width:4; stroke-opacity:1; fill:none" points="1176.02,1098.25 1176.02,1423.18 1205.38,1423.18 1205.38,1098.25 1176.02,1098.25 "/>
<path clip-path="url(#clip162)" d="M1205.38 1098.25 L1205.38 1423.18 L1234.74 1423.18 L1234.74 1098.25 L1205.38 1098.25 L1205.38 1098.25  Z" fill="#009af9" fill-rule="evenodd" fill-opacity="1"/>
<polyline clip-path="url(#clip162)" style="stroke:#000000; stroke-linecap:round; stroke-linejoin:round; stroke-width:4; stroke-opacity:1; fill:none" points="1205.38,1098.25 1205.38,1423.18 1234.74,1423.18 1234.74,1098.25 1205.38,1098.25 "/>
<path clip-path="url(#clip162)" d="M1234.74 773.326 L1234.74 1423.18 L1264.1 1423.18 L1264.1 773.326 L1234.74 773.326 L1234.74 773.326  Z" fill="#009af9" fill-rule="evenodd" fill-opacity="1"/>
<polyline clip-path="url(#clip162)" style="stroke:#000000; stroke-linecap:round; stroke-linejoin:round; stroke-width:4; stroke-opacity:1; fill:none" points="1234.74,773.326 1234.74,1423.18 1264.1,1423.18 1264.1,773.326 1234.74,773.326 "/>
<path clip-path="url(#clip162)" d="M1264.1 1098.25 L1264.1 1423.18 L1293.46 1423.18 L1293.46 1098.25 L1264.1 1098.25 L1264.1 1098.25  Z" fill="#009af9" fill-rule="evenodd" fill-opacity="1"/>
<polyline clip-path="url(#clip162)" style="stroke:#000000; stroke-linecap:round; stroke-linejoin:round; stroke-width:4; stroke-opacity:1; fill:none" points="1264.1,1098.25 1264.1,1423.18 1293.46,1423.18 1293.46,1098.25 1264.1,1098.25 "/>
<path clip-path="url(#clip162)" d="M1293.46 773.326 L1293.46 1423.18 L1322.82 1423.18 L1322.82 773.326 L1293.46 773.326 L1293.46 773.326  Z" fill="#009af9" fill-rule="evenodd" fill-opacity="1"/>
<polyline clip-path="url(#clip162)" style="stroke:#000000; stroke-linecap:round; stroke-linejoin:round; stroke-width:4; stroke-opacity:1; fill:none" points="1293.46,773.326 1293.46,1423.18 1322.82,1423.18 1322.82,773.326 1293.46,773.326 "/>
<path clip-path="url(#clip162)" d="M1322.82 773.326 L1322.82 1423.18 L1352.18 1423.18 L1352.18 773.326 L1322.82 773.326 L1322.82 773.326  Z" fill="#009af9" fill-rule="evenodd" fill-opacity="1"/>
<polyline clip-path="url(#clip162)" style="stroke:#000000; stroke-linecap:round; stroke-linejoin:round; stroke-width:4; stroke-opacity:1; fill:none" points="1322.82,773.326 1322.82,1423.18 1352.18,1423.18 1352.18,773.326 1322.82,773.326 "/>
<path clip-path="url(#clip162)" d="M1352.18 773.326 L1352.18 1423.18 L1381.54 1423.18 L1381.54 773.326 L1352.18 773.326 L1352.18 773.326  Z" fill="#009af9" fill-rule="evenodd" fill-opacity="1"/>
<polyline clip-path="url(#clip162)" style="stroke:#000000; stroke-linecap:round; stroke-linejoin:round; stroke-width:4; stroke-opacity:1; fill:none" points="1352.18,773.326 1352.18,1423.18 1381.54,1423.18 1381.54,773.326 1352.18,773.326 "/>
<path clip-path="url(#clip162)" d="M1381.54 1098.25 L1381.54 1423.18 L1410.9 1423.18 L1410.9 1098.25 L1381.54 1098.25 L1381.54 1098.25  Z" fill="#009af9" fill-rule="evenodd" fill-opacity="1"/>
<polyline clip-path="url(#clip162)" style="stroke:#000000; stroke-linecap:round; stroke-linejoin:round; stroke-width:4; stroke-opacity:1; fill:none" points="1381.54,1098.25 1381.54,1423.18 1410.9,1423.18 1410.9,1098.25 1381.54,1098.25 "/>
<path clip-path="url(#clip162)" d="M1410.9 1098.25 L1410.9 1423.18 L1440.26 1423.18 L1440.26 1098.25 L1410.9 1098.25 L1410.9 1098.25  Z" fill="#009af9" fill-rule="evenodd" fill-opacity="1"/>
<polyline clip-path="url(#clip162)" style="stroke:#000000; stroke-linecap:round; stroke-linejoin:round; stroke-width:4; stroke-opacity:1; fill:none" points="1410.9,1098.25 1410.9,1423.18 1440.26,1423.18 1440.26,1098.25 1410.9,1098.25 "/>
<path clip-path="url(#clip162)" d="M1440.26 773.326 L1440.26 1423.18 L1469.62 1423.18 L1469.62 773.326 L1440.26 773.326 L1440.26 773.326  Z" fill="#009af9" fill-rule="evenodd" fill-opacity="1"/>
<polyline clip-path="url(#clip162)" style="stroke:#000000; stroke-linecap:round; stroke-linejoin:round; stroke-width:4; stroke-opacity:1; fill:none" points="1440.26,773.326 1440.26,1423.18 1469.62,1423.18 1469.62,773.326 1440.26,773.326 "/>
<path clip-path="url(#clip162)" d="M1469.62 1098.25 L1469.62 1423.18 L1498.99 1423.18 L1498.99 1098.25 L1469.62 1098.25 L1469.62 1098.25  Z" fill="#009af9" fill-rule="evenodd" fill-opacity="1"/>
<polyline clip-path="url(#clip162)" style="stroke:#000000; stroke-linecap:round; stroke-linejoin:round; stroke-width:4; stroke-opacity:1; fill:none" points="1469.62,1098.25 1469.62,1423.18 1498.99,1423.18 1498.99,1098.25 1469.62,1098.25 "/>
<path clip-path="url(#clip162)" d="M1498.99 773.326 L1498.99 1423.18 L1528.35 1423.18 L1528.35 773.326 L1498.99 773.326 L1498.99 773.326  Z" fill="#009af9" fill-rule="evenodd" fill-opacity="1"/>
<polyline clip-path="url(#clip162)" style="stroke:#000000; stroke-linecap:round; stroke-linejoin:round; stroke-width:4; stroke-opacity:1; fill:none" points="1498.99,773.326 1498.99,1423.18 1528.35,1423.18 1528.35,773.326 1498.99,773.326 "/>
<path clip-path="url(#clip162)" d="M1528.35 773.326 L1528.35 1423.18 L1557.71 1423.18 L1557.71 773.326 L1528.35 773.326 L1528.35 773.326  Z" fill="#009af9" fill-rule="evenodd" fill-opacity="1"/>
<polyline clip-path="url(#clip162)" style="stroke:#000000; stroke-linecap:round; stroke-linejoin:round; stroke-width:4; stroke-opacity:1; fill:none" points="1528.35,773.326 1528.35,1423.18 1557.71,1423.18 1557.71,773.326 1528.35,773.326 "/>
<path clip-path="url(#clip162)" d="M1557.71 1098.25 L1557.71 1423.18 L1587.07 1423.18 L1587.07 1098.25 L1557.71 1098.25 L1557.71 1098.25  Z" fill="#009af9" fill-rule="evenodd" fill-opacity="1"/>
<polyline clip-path="url(#clip162)" style="stroke:#000000; stroke-linecap:round; stroke-linejoin:round; stroke-width:4; stroke-opacity:1; fill:none" points="1557.71,1098.25 1557.71,1423.18 1587.07,1423.18 1587.07,1098.25 1557.71,1098.25 "/>
<path clip-path="url(#clip162)" d="M1587.07 1098.25 L1587.07 1423.18 L1616.43 1423.18 L1616.43 1098.25 L1587.07 1098.25 L1587.07 1098.25  Z" fill="#009af9" fill-rule="evenodd" fill-opacity="1"/>
<polyline clip-path="url(#clip162)" style="stroke:#000000; stroke-linecap:round; stroke-linejoin:round; stroke-width:4; stroke-opacity:1; fill:none" points="1587.07,1098.25 1587.07,1423.18 1616.43,1423.18 1616.43,1098.25 1587.07,1098.25 "/>
<path clip-path="url(#clip162)" d="M1616.43 1098.25 L1616.43 1423.18 L1645.79 1423.18 L1645.79 1098.25 L1616.43 1098.25 L1616.43 1098.25  Z" fill="#009af9" fill-rule="evenodd" fill-opacity="1"/>
<polyline clip-path="url(#clip162)" style="stroke:#000000; stroke-linecap:round; stroke-linejoin:round; stroke-width:4; stroke-opacity:1; fill:none" points="1616.43,1098.25 1616.43,1423.18 1645.79,1423.18 1645.79,1098.25 1616.43,1098.25 "/>
<path clip-path="url(#clip162)" d="M1645.79 773.326 L1645.79 1423.18 L1675.15 1423.18 L1675.15 773.326 L1645.79 773.326 L1645.79 773.326  Z" fill="#009af9" fill-rule="evenodd" fill-opacity="1"/>
<polyline clip-path="url(#clip162)" style="stroke:#000000; stroke-linecap:round; stroke-linejoin:round; stroke-width:4; stroke-opacity:1; fill:none" points="1645.79,773.326 1645.79,1423.18 1675.15,1423.18 1675.15,773.326 1645.79,773.326 "/>
<path clip-path="url(#clip162)" d="M1675.15 1423.18 L1675.15 1423.18 L1704.51 1423.18 L1704.51 1423.18 L1675.15 1423.18 L1675.15 1423.18  Z" fill="#009af9" fill-rule="evenodd" fill-opacity="1"/>
<polyline clip-path="url(#clip162)" style="stroke:#000000; stroke-linecap:round; stroke-linejoin:round; stroke-width:4; stroke-opacity:1; fill:none" points="1675.15,1423.18 1675.15,1423.18 1704.51,1423.18 1675.15,1423.18 "/>
<path clip-path="url(#clip162)" d="M1704.51 1423.18 L1704.51 1423.18 L1733.87 1423.18 L1733.87 1423.18 L1704.51 1423.18 L1704.51 1423.18  Z" fill="#009af9" fill-rule="evenodd" fill-opacity="1"/>
<polyline clip-path="url(#clip162)" style="stroke:#000000; stroke-linecap:round; stroke-linejoin:round; stroke-width:4; stroke-opacity:1; fill:none" points="1704.51,1423.18 1704.51,1423.18 1733.87,1423.18 1704.51,1423.18 "/>
<path clip-path="url(#clip162)" d="M1733.87 448.399 L1733.87 1423.18 L1763.23 1423.18 L1763.23 448.399 L1733.87 448.399 L1733.87 448.399  Z" fill="#009af9" fill-rule="evenodd" fill-opacity="1"/>
<polyline clip-path="url(#clip162)" style="stroke:#000000; stroke-linecap:round; stroke-linejoin:round; stroke-width:4; stroke-opacity:1; fill:none" points="1733.87,448.399 1733.87,1423.18 1763.23,1423.18 1763.23,448.399 1733.87,448.399 "/>
<path clip-path="url(#clip162)" d="M1763.23 1098.25 L1763.23 1423.18 L1792.59 1423.18 L1792.59 1098.25 L1763.23 1098.25 L1763.23 1098.25  Z" fill="#009af9" fill-rule="evenodd" fill-opacity="1"/>
<polyline clip-path="url(#clip162)" style="stroke:#000000; stroke-linecap:round; stroke-linejoin:round; stroke-width:4; stroke-opacity:1; fill:none" points="1763.23,1098.25 1763.23,1423.18 1792.59,1423.18 1792.59,1098.25 1763.23,1098.25 "/>
<path clip-path="url(#clip162)" d="M1792.59 773.326 L1792.59 1423.18 L1821.95 1423.18 L1821.95 773.326 L1792.59 773.326 L1792.59 773.326  Z" fill="#009af9" fill-rule="evenodd" fill-opacity="1"/>
<polyline clip-path="url(#clip162)" style="stroke:#000000; stroke-linecap:round; stroke-linejoin:round; stroke-width:4; stroke-opacity:1; fill:none" points="1792.59,773.326 1792.59,1423.18 1821.95,1423.18 1821.95,773.326 1792.59,773.326 "/>
<path clip-path="url(#clip162)" d="M1821.95 448.399 L1821.95 1423.18 L1851.31 1423.18 L1851.31 448.399 L1821.95 448.399 L1821.95 448.399  Z" fill="#009af9" fill-rule="evenodd" fill-opacity="1"/>
<polyline clip-path="url(#clip162)" style="stroke:#000000; stroke-linecap:round; stroke-linejoin:round; stroke-width:4; stroke-opacity:1; fill:none" points="1821.95,448.399 1821.95,1423.18 1851.31,1423.18 1851.31,448.399 1821.95,448.399 "/>
<path clip-path="url(#clip162)" d="M1851.31 1423.18 L1851.31 1423.18 L1880.67 1423.18 L1880.67 1423.18 L1851.31 1423.18 L1851.31 1423.18  Z" fill="#009af9" fill-rule="evenodd" fill-opacity="1"/>
<polyline clip-path="url(#clip162)" style="stroke:#000000; stroke-linecap:round; stroke-linejoin:round; stroke-width:4; stroke-opacity:1; fill:none" points="1851.31,1423.18 1851.31,1423.18 1880.67,1423.18 1851.31,1423.18 "/>
<path clip-path="url(#clip162)" d="M1880.67 1423.18 L1880.67 1423.18 L1910.03 1423.18 L1910.03 1423.18 L1880.67 1423.18 L1880.67 1423.18  Z" fill="#009af9" fill-rule="evenodd" fill-opacity="1"/>
<polyline clip-path="url(#clip162)" style="stroke:#000000; stroke-linecap:round; stroke-linejoin:round; stroke-width:4; stroke-opacity:1; fill:none" points="1880.67,1423.18 1880.67,1423.18 1910.03,1423.18 1880.67,1423.18 "/>
<path clip-path="url(#clip162)" d="M1910.03 1098.25 L1910.03 1423.18 L1939.39 1423.18 L1939.39 1098.25 L1910.03 1098.25 L1910.03 1098.25  Z" fill="#009af9" fill-rule="evenodd" fill-opacity="1"/>
<polyline clip-path="url(#clip162)" style="stroke:#000000; stroke-linecap:round; stroke-linejoin:round; stroke-width:4; stroke-opacity:1; fill:none" points="1910.03,1098.25 1910.03,1423.18 1939.39,1423.18 1939.39,1098.25 1910.03,1098.25 "/>
<path clip-path="url(#clip162)" d="M1939.39 1098.25 L1939.39 1423.18 L1968.75 1423.18 L1968.75 1098.25 L1939.39 1098.25 L1939.39 1098.25  Z" fill="#009af9" fill-rule="evenodd" fill-opacity="1"/>
<polyline clip-path="url(#clip162)" style="stroke:#000000; stroke-linecap:round; stroke-linejoin:round; stroke-width:4; stroke-opacity:1; fill:none" points="1939.39,1098.25 1939.39,1423.18 1968.75,1423.18 1968.75,1098.25 1939.39,1098.25 "/>
<path clip-path="url(#clip162)" d="M1968.75 773.326 L1968.75 1423.18 L1998.12 1423.18 L1998.12 773.326 L1968.75 773.326 L1968.75 773.326  Z" fill="#009af9" fill-rule="evenodd" fill-opacity="1"/>
<polyline clip-path="url(#clip162)" style="stroke:#000000; stroke-linecap:round; stroke-linejoin:round; stroke-width:4; stroke-opacity:1; fill:none" points="1968.75,773.326 1968.75,1423.18 1998.12,1423.18 1998.12,773.326 1968.75,773.326 "/>
<path clip-path="url(#clip162)" d="M1998.12 1098.25 L1998.12 1423.18 L2027.48 1423.18 L2027.48 1098.25 L1998.12 1098.25 L1998.12 1098.25  Z" fill="#009af9" fill-rule="evenodd" fill-opacity="1"/>
<polyline clip-path="url(#clip162)" style="stroke:#000000; stroke-linecap:round; stroke-linejoin:round; stroke-width:4; stroke-opacity:1; fill:none" points="1998.12,1098.25 1998.12,1423.18 2027.48,1423.18 2027.48,1098.25 1998.12,1098.25 "/>
<path clip-path="url(#clip162)" d="M2027.48 1098.25 L2027.48 1423.18 L2056.84 1423.18 L2056.84 1098.25 L2027.48 1098.25 L2027.48 1098.25  Z" fill="#009af9" fill-rule="evenodd" fill-opacity="1"/>
<polyline clip-path="url(#clip162)" style="stroke:#000000; stroke-linecap:round; stroke-linejoin:round; stroke-width:4; stroke-opacity:1; fill:none" points="2027.48,1098.25 2027.48,1423.18 2056.84,1423.18 2056.84,1098.25 2027.48,1098.25 "/>
<path clip-path="url(#clip162)" d="M2056.84 1423.18 L2056.84 1423.18 L2086.2 1423.18 L2086.2 1423.18 L2056.84 1423.18 L2056.84 1423.18  Z" fill="#009af9" fill-rule="evenodd" fill-opacity="1"/>
<polyline clip-path="url(#clip162)" style="stroke:#000000; stroke-linecap:round; stroke-linejoin:round; stroke-width:4; stroke-opacity:1; fill:none" points="2056.84,1423.18 2056.84,1423.18 2086.2,1423.18 2056.84,1423.18 "/>
<path clip-path="url(#clip162)" d="M2086.2 1423.18 L2086.2 1423.18 L2115.56 1423.18 L2115.56 1423.18 L2086.2 1423.18 L2086.2 1423.18  Z" fill="#009af9" fill-rule="evenodd" fill-opacity="1"/>
<polyline clip-path="url(#clip162)" style="stroke:#000000; stroke-linecap:round; stroke-linejoin:round; stroke-width:4; stroke-opacity:1; fill:none" points="2086.2,1423.18 2086.2,1423.18 2115.56,1423.18 2086.2,1423.18 "/>
<path clip-path="url(#clip162)" d="M2115.56 1423.18 L2115.56 1423.18 L2144.92 1423.18 L2144.92 1423.18 L2115.56 1423.18 L2115.56 1423.18  Z" fill="#009af9" fill-rule="evenodd" fill-opacity="1"/>
<polyline clip-path="url(#clip162)" style="stroke:#000000; stroke-linecap:round; stroke-linejoin:round; stroke-width:4; stroke-opacity:1; fill:none" points="2115.56,1423.18 2115.56,1423.18 2144.92,1423.18 2115.56,1423.18 "/>
<path clip-path="url(#clip162)" d="M2144.92 1423.18 L2144.92 1423.18 L2174.28 1423.18 L2174.28 1423.18 L2144.92 1423.18 L2144.92 1423.18  Z" fill="#009af9" fill-rule="evenodd" fill-opacity="1"/>
<polyline clip-path="url(#clip162)" style="stroke:#000000; stroke-linecap:round; stroke-linejoin:round; stroke-width:4; stroke-opacity:1; fill:none" points="2144.92,1423.18 2144.92,1423.18 2174.28,1423.18 2144.92,1423.18 "/>
<path clip-path="url(#clip162)" d="M2174.28 1423.18 L2174.28 1423.18 L2203.64 1423.18 L2203.64 1423.18 L2174.28 1423.18 L2174.28 1423.18  Z" fill="#009af9" fill-rule="evenodd" fill-opacity="1"/>
<polyline clip-path="url(#clip162)" style="stroke:#000000; stroke-linecap:round; stroke-linejoin:round; stroke-width:4; stroke-opacity:1; fill:none" points="2174.28,1423.18 2174.28,1423.18 2203.64,1423.18 2174.28,1423.18 "/>
<path clip-path="url(#clip162)" d="M2203.64 1423.18 L2203.64 1423.18 L2233 1423.18 L2233 1423.18 L2203.64 1423.18 L2203.64 1423.18  Z" fill="#009af9" fill-rule="evenodd" fill-opacity="1"/>
<polyline clip-path="url(#clip162)" style="stroke:#000000; stroke-linecap:round; stroke-linejoin:round; stroke-width:4; stroke-opacity:1; fill:none" points="2203.64,1423.18 2203.64,1423.18 2233,1423.18 2203.64,1423.18 "/>
<circle clip-path="url(#clip162)" style="fill:#009af9; stroke:none; fill-opacity:0" cx="309.881" cy="1423.18" r="2"/>
<circle clip-path="url(#clip162)" style="fill:#009af9; stroke:none; fill-opacity:0" cx="339.242" cy="1423.18" r="2"/>
<circle clip-path="url(#clip162)" style="fill:#009af9; stroke:none; fill-opacity:0" cx="368.603" cy="1423.18" r="2"/>
<circle clip-path="url(#clip162)" style="fill:#009af9; stroke:none; fill-opacity:0" cx="397.963" cy="1423.18" r="2"/>
<circle clip-path="url(#clip162)" style="fill:#009af9; stroke:none; fill-opacity:0" cx="427.324" cy="1423.18" r="2"/>
<circle clip-path="url(#clip162)" style="fill:#009af9; stroke:none; fill-opacity:0" cx="456.684" cy="1423.18" r="2"/>
<circle clip-path="url(#clip162)" style="fill:#009af9; stroke:none; fill-opacity:0" cx="486.045" cy="448.399" r="2"/>
<circle clip-path="url(#clip162)" style="fill:#009af9; stroke:none; fill-opacity:0" cx="515.406" cy="123.472" r="2"/>
<circle clip-path="url(#clip162)" style="fill:#009af9; stroke:none; fill-opacity:0" cx="544.766" cy="448.399" r="2"/>
<circle clip-path="url(#clip162)" style="fill:#009af9; stroke:none; fill-opacity:0" cx="574.127" cy="773.326" r="2"/>
<circle clip-path="url(#clip162)" style="fill:#009af9; stroke:none; fill-opacity:0" cx="603.487" cy="773.326" r="2"/>
<circle clip-path="url(#clip162)" style="fill:#009af9; stroke:none; fill-opacity:0" cx="632.848" cy="448.399" r="2"/>
<circle clip-path="url(#clip162)" style="fill:#009af9; stroke:none; fill-opacity:0" cx="662.209" cy="448.399" r="2"/>
<circle clip-path="url(#clip162)" style="fill:#009af9; stroke:none; fill-opacity:0" cx="691.569" cy="448.399" r="2"/>
<circle clip-path="url(#clip162)" style="fill:#009af9; stroke:none; fill-opacity:0" cx="720.93" cy="448.399" r="2"/>
<circle clip-path="url(#clip162)" style="fill:#009af9; stroke:none; fill-opacity:0" cx="750.29" cy="773.326" r="2"/>
<circle clip-path="url(#clip162)" style="fill:#009af9; stroke:none; fill-opacity:0" cx="779.651" cy="773.326" r="2"/>
<circle clip-path="url(#clip162)" style="fill:#009af9; stroke:none; fill-opacity:0" cx="809.011" cy="448.399" r="2"/>
<circle clip-path="url(#clip162)" style="fill:#009af9; stroke:none; fill-opacity:0" cx="838.372" cy="773.326" r="2"/>
<circle clip-path="url(#clip162)" style="fill:#009af9; stroke:none; fill-opacity:0" cx="867.733" cy="773.326" r="2"/>
<circle clip-path="url(#clip162)" style="fill:#009af9; stroke:none; fill-opacity:0" cx="897.093" cy="123.472" r="2"/>
<circle clip-path="url(#clip162)" style="fill:#009af9; stroke:none; fill-opacity:0" cx="926.454" cy="773.326" r="2"/>
<circle clip-path="url(#clip162)" style="fill:#009af9; stroke:none; fill-opacity:0" cx="955.814" cy="773.326" r="2"/>
<circle clip-path="url(#clip162)" style="fill:#009af9; stroke:none; fill-opacity:0" cx="985.175" cy="773.326" r="2"/>
<circle clip-path="url(#clip162)" style="fill:#009af9; stroke:none; fill-opacity:0" cx="1014.54" cy="1098.25" r="2"/>
<circle clip-path="url(#clip162)" style="fill:#009af9; stroke:none; fill-opacity:0" cx="1043.9" cy="1098.25" r="2"/>
<circle clip-path="url(#clip162)" style="fill:#009af9; stroke:none; fill-opacity:0" cx="1073.26" cy="123.472" r="2"/>
<circle clip-path="url(#clip162)" style="fill:#009af9; stroke:none; fill-opacity:0" cx="1102.62" cy="1098.25" r="2"/>
<circle clip-path="url(#clip162)" style="fill:#009af9; stroke:none; fill-opacity:0" cx="1131.98" cy="1098.25" r="2"/>
<circle clip-path="url(#clip162)" style="fill:#009af9; stroke:none; fill-opacity:0" cx="1161.34" cy="123.472" r="2"/>
<circle clip-path="url(#clip162)" style="fill:#009af9; stroke:none; fill-opacity:0" cx="1190.7" cy="1098.25" r="2"/>
<circle clip-path="url(#clip162)" style="fill:#009af9; stroke:none; fill-opacity:0" cx="1220.06" cy="1098.25" r="2"/>
<circle clip-path="url(#clip162)" style="fill:#009af9; stroke:none; fill-opacity:0" cx="1249.42" cy="773.326" r="2"/>
<circle clip-path="url(#clip162)" style="fill:#009af9; stroke:none; fill-opacity:0" cx="1278.78" cy="1098.25" r="2"/>
<circle clip-path="url(#clip162)" style="fill:#009af9; stroke:none; fill-opacity:0" cx="1308.14" cy="773.326" r="2"/>
<circle clip-path="url(#clip162)" style="fill:#009af9; stroke:none; fill-opacity:0" cx="1337.5" cy="773.326" r="2"/>
<circle clip-path="url(#clip162)" style="fill:#009af9; stroke:none; fill-opacity:0" cx="1366.86" cy="773.326" r="2"/>
<circle clip-path="url(#clip162)" style="fill:#009af9; stroke:none; fill-opacity:0" cx="1396.22" cy="1098.25" r="2"/>
<circle clip-path="url(#clip162)" style="fill:#009af9; stroke:none; fill-opacity:0" cx="1425.58" cy="1098.25" r="2"/>
<circle clip-path="url(#clip162)" style="fill:#009af9; stroke:none; fill-opacity:0" cx="1454.94" cy="773.326" r="2"/>
<circle clip-path="url(#clip162)" style="fill:#009af9; stroke:none; fill-opacity:0" cx="1484.3" cy="1098.25" r="2"/>
<circle clip-path="url(#clip162)" style="fill:#009af9; stroke:none; fill-opacity:0" cx="1513.67" cy="773.326" r="2"/>
<circle clip-path="url(#clip162)" style="fill:#009af9; stroke:none; fill-opacity:0" cx="1543.03" cy="773.326" r="2"/>
<circle clip-path="url(#clip162)" style="fill:#009af9; stroke:none; fill-opacity:0" cx="1572.39" cy="1098.25" r="2"/>
<circle clip-path="url(#clip162)" style="fill:#009af9; stroke:none; fill-opacity:0" cx="1601.75" cy="1098.25" r="2"/>
<circle clip-path="url(#clip162)" style="fill:#009af9; stroke:none; fill-opacity:0" cx="1631.11" cy="1098.25" r="2"/>
<circle clip-path="url(#clip162)" style="fill:#009af9; stroke:none; fill-opacity:0" cx="1660.47" cy="773.326" r="2"/>
<circle clip-path="url(#clip162)" style="fill:#009af9; stroke:none; fill-opacity:0" cx="1689.83" cy="1423.18" r="2"/>
<circle clip-path="url(#clip162)" style="fill:#009af9; stroke:none; fill-opacity:0" cx="1719.19" cy="1423.18" r="2"/>
<circle clip-path="url(#clip162)" style="fill:#009af9; stroke:none; fill-opacity:0" cx="1748.55" cy="448.399" r="2"/>
<circle clip-path="url(#clip162)" style="fill:#009af9; stroke:none; fill-opacity:0" cx="1777.91" cy="1098.25" r="2"/>
<circle clip-path="url(#clip162)" style="fill:#009af9; stroke:none; fill-opacity:0" cx="1807.27" cy="773.326" r="2"/>
<circle clip-path="url(#clip162)" style="fill:#009af9; stroke:none; fill-opacity:0" cx="1836.63" cy="448.399" r="2"/>
<circle clip-path="url(#clip162)" style="fill:#009af9; stroke:none; fill-opacity:0" cx="1865.99" cy="1423.18" r="2"/>
<circle clip-path="url(#clip162)" style="fill:#009af9; stroke:none; fill-opacity:0" cx="1895.35" cy="1423.18" r="2"/>
<circle clip-path="url(#clip162)" style="fill:#009af9; stroke:none; fill-opacity:0" cx="1924.71" cy="1098.25" r="2"/>
<circle clip-path="url(#clip162)" style="fill:#009af9; stroke:none; fill-opacity:0" cx="1954.07" cy="1098.25" r="2"/>
<circle clip-path="url(#clip162)" style="fill:#009af9; stroke:none; fill-opacity:0" cx="1983.43" cy="773.326" r="2"/>
<circle clip-path="url(#clip162)" style="fill:#009af9; stroke:none; fill-opacity:0" cx="2012.8" cy="1098.25" r="2"/>
<circle clip-path="url(#clip162)" style="fill:#009af9; stroke:none; fill-opacity:0" cx="2042.16" cy="1098.25" r="2"/>
<circle clip-path="url(#clip162)" style="fill:#009af9; stroke:none; fill-opacity:0" cx="2071.52" cy="1423.18" r="2"/>
<circle clip-path="url(#clip162)" style="fill:#009af9; stroke:none; fill-opacity:0" cx="2100.88" cy="1423.18" r="2"/>
<circle clip-path="url(#clip162)" style="fill:#009af9; stroke:none; fill-opacity:0" cx="2130.24" cy="1423.18" r="2"/>
<circle clip-path="url(#clip162)" style="fill:#009af9; stroke:none; fill-opacity:0" cx="2159.6" cy="1423.18" r="2"/>
<circle clip-path="url(#clip162)" style="fill:#009af9; stroke:none; fill-opacity:0" cx="2188.96" cy="1423.18" r="2"/>
<circle clip-path="url(#clip162)" style="fill:#009af9; stroke:none; fill-opacity:0" cx="2218.32" cy="1423.18" r="2"/>
<path clip-path="url(#clip160)" d="M2010.02 270.476 L2280.18 270.476 L2280.18 166.796 L2010.02 166.796  Z" fill="#ffffff" fill-rule="evenodd" fill-opacity="1"/>
<polyline clip-path="url(#clip160)" style="stroke:#000000; stroke-linecap:round; stroke-linejoin:round; stroke-width:4; stroke-opacity:1; fill:none" points="2010.02,270.476 2280.18,270.476 2280.18,166.796 2010.02,166.796 2010.02,270.476 "/>
<path clip-path="url(#clip160)" d="M2034.21 239.372 L2179.36 239.372 L2179.36 197.9 L2034.21 197.9 L2034.21 239.372  Z" fill="#009af9" fill-rule="evenodd" fill-opacity="1"/>
<polyline clip-path="url(#clip160)" style="stroke:#000000; stroke-linecap:round; stroke-linejoin:round; stroke-width:4; stroke-opacity:1; fill:none" points="2034.21,239.372 2179.36,239.372 2179.36,197.9 2034.21,197.9 2034.21,239.372 "/>
<path clip-path="url(#clip160)" d="M2217.4 238.323 Q2215.59 242.953 2213.88 244.365 Q2212.17 245.777 2209.3 245.777 L2205.89 245.777 L2205.89 242.212 L2208.39 242.212 Q2210.15 242.212 2211.13 241.379 Q2212.1 240.545 2213.28 237.443 L2214.04 235.499 L2203.56 209.99 L2208.07 209.99 L2216.17 230.268 L2224.27 209.99 L2228.79 209.99 L2217.4 238.323 Z" fill="#000000" fill-rule="nonzero" fill-opacity="1" /><path clip-path="url(#clip160)" d="M2236.08 231.981 L2243.72 231.981 L2243.72 205.615 L2235.41 207.282 L2235.41 203.022 L2243.67 201.356 L2248.35 201.356 L2248.35 231.981 L2255.99 231.981 L2255.99 235.916 L2236.08 235.916 L2236.08 231.981 Z" fill="#000000" fill-rule="nonzero" fill-opacity="1" /></svg>
