<?xml version="1.0" encoding="utf-8"?>
<svg xmlns="http://www.w3.org/2000/svg" xmlns:xlink="http://www.w3.org/1999/xlink" width="600" height="400" viewBox="0 0 2400 1600">
<defs>
  <clipPath id="clip350">
    <rect x="0" y="0" width="2400" height="1600"/>
  </clipPath>
</defs>
<path clip-path="url(#clip350)" d="M0 1600 L2400 1600 L2400 0 L0 0  Z" fill="#ffffff" fill-rule="evenodd" fill-opacity="1"/>
<defs>
  <clipPath id="clip351">
    <rect x="210" y="123" width="2143" height="1301"/>
  </clipPath>
</defs>
<path clip-path="url(#clip350)" d="M210.746 1423.18 L2352.76 1423.18 L2352.76 123.472 L210.746 123.472  Z" fill="#ffffff" fill-rule="evenodd" fill-opacity="1"/>
<polyline clip-path="url(#clip351)" style="stroke:#000000; stroke-linecap:round; stroke-linejoin:round; stroke-width:2; stroke-opacity:0.1; fill:none" points="250.957,1423.18 250.957,123.472 "/>
<polyline clip-path="url(#clip351)" style="stroke:#000000; stroke-linecap:round; stroke-linejoin:round; stroke-width:2; stroke-opacity:0.1; fill:none" points="761.251,1423.18 761.251,123.472 "/>
<polyline clip-path="url(#clip351)" style="stroke:#000000; stroke-linecap:round; stroke-linejoin:round; stroke-width:2; stroke-opacity:0.1; fill:none" points="1271.55,1423.18 1271.55,123.472 "/>
<polyline clip-path="url(#clip351)" style="stroke:#000000; stroke-linecap:round; stroke-linejoin:round; stroke-width:2; stroke-opacity:0.1; fill:none" points="1781.84,1423.18 1781.84,123.472 "/>
<polyline clip-path="url(#clip351)" style="stroke:#000000; stroke-linecap:round; stroke-linejoin:round; stroke-width:2; stroke-opacity:0.1; fill:none" points="2292.13,1423.18 2292.13,123.472 "/>
<polyline clip-path="url(#clip351)" style="stroke:#000000; stroke-linecap:round; stroke-linejoin:round; stroke-width:2; stroke-opacity:0.1; fill:none" points="210.746,1391.95 2352.76,1391.95 "/>
<polyline clip-path="url(#clip351)" style="stroke:#000000; stroke-linecap:round; stroke-linejoin:round; stroke-width:2; stroke-opacity:0.1; fill:none" points="210.746,1181.3 2352.76,1181.3 "/>
<polyline clip-path="url(#clip351)" style="stroke:#000000; stroke-linecap:round; stroke-linejoin:round; stroke-width:2; stroke-opacity:0.1; fill:none" points="210.746,970.643 2352.76,970.643 "/>
<polyline clip-path="url(#clip351)" style="stroke:#000000; stroke-linecap:round; stroke-linejoin:round; stroke-width:2; stroke-opacity:0.1; fill:none" points="210.746,759.989 2352.76,759.989 "/>
<polyline clip-path="url(#clip351)" style="stroke:#000000; stroke-linecap:round; stroke-linejoin:round; stroke-width:2; stroke-opacity:0.1; fill:none" points="210.746,549.335 2352.76,549.335 "/>
<polyline clip-path="url(#clip351)" style="stroke:#000000; stroke-linecap:round; stroke-linejoin:round; stroke-width:2; stroke-opacity:0.1; fill:none" points="210.746,338.681 2352.76,338.681 "/>
<polyline clip-path="url(#clip351)" style="stroke:#000000; stroke-linecap:round; stroke-linejoin:round; stroke-width:2; stroke-opacity:0.1; fill:none" points="210.746,128.028 2352.76,128.028 "/>
<polyline clip-path="url(#clip350)" style="stroke:#000000; stroke-linecap:round; stroke-linejoin:round; stroke-width:4; stroke-opacity:1; fill:none" points="210.746,1423.18 2352.76,1423.18 "/>
<polyline clip-path="url(#clip350)" style="stroke:#000000; stroke-linecap:round; stroke-linejoin:round; stroke-width:4; stroke-opacity:1; fill:none" points="250.957,1423.18 250.957,1404.28 "/>
<polyline clip-path="url(#clip350)" style="stroke:#000000; stroke-linecap:round; stroke-linejoin:round; stroke-width:4; stroke-opacity:1; fill:none" points="761.251,1423.18 761.251,1404.28 "/>
<polyline clip-path="url(#clip350)" style="stroke:#000000; stroke-linecap:round; stroke-linejoin:round; stroke-width:4; stroke-opacity:1; fill:none" points="1271.55,1423.18 1271.55,1404.28 "/>
<polyline clip-path="url(#clip350)" style="stroke:#000000; stroke-linecap:round; stroke-linejoin:round; stroke-width:4; stroke-opacity:1; fill:none" points="1781.84,1423.18 1781.84,1404.28 "/>
<polyline clip-path="url(#clip350)" style="stroke:#000000; stroke-linecap:round; stroke-linejoin:round; stroke-width:4; stroke-opacity:1; fill:none" points="2292.13,1423.18 2292.13,1404.28 "/>
<path clip-path="url(#clip350)" d="M250.957 1454.1 Q247.346 1454.1 245.517 1457.66 Q243.712 1461.2 243.712 1468.33 Q243.712 1475.44 245.517 1479.01 Q247.346 1482.55 250.957 1482.55 Q254.591 1482.55 256.397 1479.01 Q258.226 1475.44 258.226 1468.33 Q258.226 1461.2 256.397 1457.66 Q254.591 1454.1 250.957 1454.1 M250.957 1450.39 Q256.767 1450.39 259.823 1455 Q262.901 1459.58 262.901 1468.33 Q262.901 1477.06 259.823 1481.67 Q256.767 1486.25 250.957 1486.25 Q245.147 1486.25 242.068 1481.67 Q239.013 1477.06 239.013 1468.33 Q239.013 1459.58 242.068 1455 Q245.147 1450.39 250.957 1450.39 Z" fill="#000000" fill-rule="nonzero" fill-opacity="1" /><path clip-path="url(#clip350)" d="M740.522 1481.64 L756.841 1481.64 L756.841 1485.58 L734.897 1485.58 L734.897 1481.64 Q737.559 1478.89 742.142 1474.26 Q746.749 1469.61 747.929 1468.27 Q750.175 1465.74 751.054 1464.01 Q751.957 1462.25 751.957 1460.56 Q751.957 1457.8 750.013 1456.07 Q748.091 1454.33 744.99 1454.33 Q742.791 1454.33 740.337 1455.09 Q737.906 1455.86 735.129 1457.41 L735.129 1452.69 Q737.953 1451.55 740.406 1450.97 Q742.86 1450.39 744.897 1450.39 Q750.267 1450.39 753.462 1453.08 Q756.656 1455.77 756.656 1460.26 Q756.656 1462.39 755.846 1464.31 Q755.059 1466.2 752.953 1468.8 Q752.374 1469.47 749.272 1472.69 Q746.17 1475.88 740.522 1481.64 Z" fill="#000000" fill-rule="nonzero" fill-opacity="1" /><path clip-path="url(#clip350)" d="M766.702 1451.02 L785.059 1451.02 L785.059 1454.96 L770.985 1454.96 L770.985 1463.43 Q772.003 1463.08 773.022 1462.92 Q774.04 1462.73 775.059 1462.73 Q780.846 1462.73 784.225 1465.9 Q787.605 1469.08 787.605 1474.49 Q787.605 1480.07 784.133 1483.17 Q780.661 1486.25 774.341 1486.25 Q772.165 1486.25 769.897 1485.88 Q767.652 1485.51 765.244 1484.77 L765.244 1480.07 Q767.327 1481.2 769.55 1481.76 Q771.772 1482.32 774.249 1482.32 Q778.253 1482.32 780.591 1480.21 Q782.929 1478.1 782.929 1474.49 Q782.929 1470.88 780.591 1468.77 Q778.253 1466.67 774.249 1466.67 Q772.374 1466.67 770.499 1467.08 Q768.647 1467.5 766.702 1468.38 L766.702 1451.02 Z" fill="#000000" fill-rule="nonzero" fill-opacity="1" /><path clip-path="url(#clip350)" d="M1246.24 1451.02 L1264.6 1451.02 L1264.6 1454.96 L1250.53 1454.96 L1250.53 1463.43 Q1251.55 1463.08 1252.56 1462.92 Q1253.58 1462.73 1254.6 1462.73 Q1260.39 1462.73 1263.77 1465.9 Q1267.15 1469.08 1267.15 1474.49 Q1267.15 1480.07 1263.67 1483.17 Q1260.2 1486.25 1253.88 1486.25 Q1251.71 1486.25 1249.44 1485.88 Q1247.19 1485.51 1244.79 1484.77 L1244.79 1480.07 Q1246.87 1481.2 1249.09 1481.76 Q1251.31 1482.32 1253.79 1482.32 Q1257.8 1482.32 1260.13 1480.21 Q1262.47 1478.1 1262.47 1474.49 Q1262.47 1470.88 1260.13 1468.77 Q1257.8 1466.67 1253.79 1466.67 Q1251.92 1466.67 1250.04 1467.08 Q1248.19 1467.5 1246.24 1468.38 L1246.24 1451.02 Z" fill="#000000" fill-rule="nonzero" fill-opacity="1" /><path clip-path="url(#clip350)" d="M1286.36 1454.1 Q1282.75 1454.1 1280.92 1457.66 Q1279.11 1461.2 1279.11 1468.33 Q1279.11 1475.44 1280.92 1479.01 Q1282.75 1482.55 1286.36 1482.55 Q1289.99 1482.55 1291.8 1479.01 Q1293.63 1475.44 1293.63 1468.33 Q1293.63 1461.2 1291.8 1457.66 Q1289.99 1454.1 1286.36 1454.1 M1286.36 1450.39 Q1292.17 1450.39 1295.23 1455 Q1298.3 1459.58 1298.3 1468.33 Q1298.3 1477.06 1295.23 1481.67 Q1292.17 1486.25 1286.36 1486.25 Q1280.55 1486.25 1277.47 1481.67 Q1274.42 1477.06 1274.42 1468.33 Q1274.42 1459.58 1277.47 1455 Q1280.55 1450.39 1286.36 1450.39 Z" fill="#000000" fill-rule="nonzero" fill-opacity="1" /><path clip-path="url(#clip350)" d="M1755.69 1451.02 L1777.92 1451.02 L1777.92 1453.01 L1765.37 1485.58 L1760.48 1485.58 L1772.29 1454.96 L1755.69 1454.96 L1755.69 1451.02 Z" fill="#000000" fill-rule="nonzero" fill-opacity="1" /><path clip-path="url(#clip350)" d="M1787.08 1451.02 L1805.44 1451.02 L1805.44 1454.96 L1791.36 1454.96 L1791.36 1463.43 Q1792.38 1463.08 1793.4 1462.92 Q1794.42 1462.73 1795.44 1462.73 Q1801.23 1462.73 1804.61 1465.9 Q1807.98 1469.08 1807.98 1474.49 Q1807.98 1480.07 1804.51 1483.17 Q1801.04 1486.25 1794.72 1486.25 Q1792.54 1486.25 1790.28 1485.88 Q1788.03 1485.51 1785.62 1484.77 L1785.62 1480.07 Q1787.71 1481.2 1789.93 1481.76 Q1792.15 1482.32 1794.63 1482.32 Q1798.63 1482.32 1800.97 1480.21 Q1803.31 1478.1 1803.31 1474.49 Q1803.31 1470.88 1800.97 1468.77 Q1798.63 1466.67 1794.63 1466.67 Q1792.75 1466.67 1790.88 1467.08 Q1789.03 1467.5 1787.08 1468.38 L1787.08 1451.02 Z" fill="#000000" fill-rule="nonzero" fill-opacity="1" /><path clip-path="url(#clip350)" d="M2251.74 1481.64 L2259.38 1481.64 L2259.38 1455.28 L2251.07 1456.95 L2251.07 1452.69 L2259.33 1451.02 L2264.01 1451.02 L2264.01 1481.64 L2271.65 1481.64 L2271.65 1485.58 L2251.74 1485.58 L2251.74 1481.64 Z" fill="#000000" fill-rule="nonzero" fill-opacity="1" /><path clip-path="url(#clip350)" d="M2291.09 1454.1 Q2287.48 1454.1 2285.65 1457.66 Q2283.85 1461.2 2283.85 1468.33 Q2283.85 1475.44 2285.65 1479.01 Q2287.48 1482.55 2291.09 1482.55 Q2294.73 1482.55 2296.53 1479.01 Q2298.36 1475.44 2298.36 1468.33 Q2298.36 1461.2 2296.53 1457.66 Q2294.73 1454.1 2291.09 1454.1 M2291.09 1450.39 Q2296.9 1450.39 2299.96 1455 Q2303.04 1459.58 2303.04 1468.33 Q2303.04 1477.06 2299.96 1481.67 Q2296.9 1486.25 2291.09 1486.25 Q2285.28 1486.25 2282.2 1481.67 Q2279.15 1477.06 2279.15 1468.33 Q2279.15 1459.58 2282.2 1455 Q2285.28 1450.39 2291.09 1450.39 Z" fill="#000000" fill-rule="nonzero" fill-opacity="1" /><path clip-path="url(#clip350)" d="M2321.25 1454.1 Q2317.64 1454.1 2315.81 1457.66 Q2314.01 1461.2 2314.01 1468.33 Q2314.01 1475.44 2315.81 1479.01 Q2317.64 1482.55 2321.25 1482.55 Q2324.89 1482.55 2326.69 1479.01 Q2328.52 1475.44 2328.52 1468.33 Q2328.52 1461.2 2326.69 1457.66 Q2324.89 1454.1 2321.25 1454.1 M2321.25 1450.39 Q2327.06 1450.39 2330.12 1455 Q2333.2 1459.58 2333.2 1468.33 Q2333.2 1477.06 2330.12 1481.67 Q2327.06 1486.25 2321.25 1486.25 Q2315.44 1486.25 2312.36 1481.67 Q2309.31 1477.06 2309.31 1468.33 Q2309.31 1459.58 2312.36 1455 Q2315.44 1450.39 2321.25 1450.39 Z" fill="#000000" fill-rule="nonzero" fill-opacity="1" /><path clip-path="url(#clip350)" d="M1215.21 1525.81 L1215.21 1562.76 L1222.98 1562.76 Q1232.81 1562.76 1237.37 1558.3 Q1241.95 1553.85 1241.95 1544.24 Q1241.95 1534.69 1237.37 1530.26 Q1232.81 1525.81 1222.98 1525.81 L1215.21 1525.81 M1208.78 1520.52 L1221.99 1520.52 Q1235.81 1520.52 1242.27 1526.28 Q1248.73 1532.01 1248.73 1544.24 Q1248.73 1556.52 1242.24 1562.28 Q1235.74 1568.04 1221.99 1568.04 L1208.78 1568.04 L1208.78 1520.52 Z" fill="#000000" fill-rule="nonzero" fill-opacity="1" /><path clip-path="url(#clip350)" d="M1274.92 1550.12 Q1267.83 1550.12 1265.09 1551.75 Q1262.35 1553.37 1262.35 1557.29 Q1262.35 1560.4 1264.39 1562.25 Q1266.46 1564.07 1269.99 1564.07 Q1274.86 1564.07 1277.79 1560.63 Q1280.75 1557.16 1280.75 1551.43 L1280.75 1550.12 L1274.92 1550.12 M1286.6 1547.71 L1286.6 1568.04 L1280.75 1568.04 L1280.75 1562.63 Q1278.74 1565.88 1275.75 1567.44 Q1272.76 1568.97 1268.43 1568.97 Q1262.96 1568.97 1259.71 1565.91 Q1256.49 1562.82 1256.49 1557.67 Q1256.49 1551.65 1260.51 1548.6 Q1264.55 1545.54 1272.54 1545.54 L1280.75 1545.54 L1280.75 1544.97 Q1280.75 1540.93 1278.07 1538.73 Q1275.43 1536.5 1270.63 1536.5 Q1267.57 1536.5 1264.67 1537.23 Q1261.78 1537.97 1259.1 1539.43 L1259.1 1534.02 Q1262.32 1532.78 1265.34 1532.17 Q1268.37 1531.54 1271.23 1531.54 Q1278.97 1531.54 1282.79 1535.55 Q1286.6 1539.56 1286.6 1547.71 Z" fill="#000000" fill-rule="nonzero" fill-opacity="1" /><path clip-path="url(#clip350)" d="M1304.46 1522.27 L1304.46 1532.4 L1316.52 1532.4 L1316.52 1536.95 L1304.46 1536.95 L1304.46 1556.3 Q1304.46 1560.66 1305.64 1561.9 Q1306.85 1563.14 1310.51 1563.14 L1316.52 1563.14 L1316.52 1568.04 L1310.51 1568.04 Q1303.73 1568.04 1301.15 1565.53 Q1298.57 1562.98 1298.57 1556.3 L1298.57 1536.95 L1294.28 1536.95 L1294.28 1532.4 L1298.57 1532.4 L1298.57 1522.27 L1304.46 1522.27 Z" fill="#000000" fill-rule="nonzero" fill-opacity="1" /><path clip-path="url(#clip350)" d="M1354.72 1548.76 L1354.72 1551.62 L1327.79 1551.62 Q1328.17 1557.67 1331.42 1560.85 Q1334.7 1564 1340.52 1564 Q1343.9 1564 1347.05 1563.17 Q1350.23 1562.35 1353.35 1560.69 L1353.35 1566.23 Q1350.2 1567.57 1346.89 1568.27 Q1343.58 1568.97 1340.17 1568.97 Q1331.64 1568.97 1326.65 1564 Q1321.68 1559.04 1321.68 1550.57 Q1321.68 1541.82 1326.39 1536.69 Q1331.13 1531.54 1339.15 1531.54 Q1346.35 1531.54 1350.52 1536.18 Q1354.72 1540.8 1354.72 1548.76 M1348.86 1547.04 Q1348.8 1542.23 1346.16 1539.37 Q1343.55 1536.5 1339.22 1536.5 Q1334.32 1536.5 1331.36 1539.27 Q1328.43 1542.04 1327.98 1547.07 L1348.86 1547.04 Z" fill="#000000" fill-rule="nonzero" fill-opacity="1" /><polyline clip-path="url(#clip350)" style="stroke:#000000; stroke-linecap:round; stroke-linejoin:round; stroke-width:4; stroke-opacity:1; fill:none" points="210.746,1423.18 210.746,123.472 "/>
<polyline clip-path="url(#clip350)" style="stroke:#000000; stroke-linecap:round; stroke-linejoin:round; stroke-width:4; stroke-opacity:1; fill:none" points="210.746,1391.95 229.644,1391.95 "/>
<polyline clip-path="url(#clip350)" style="stroke:#000000; stroke-linecap:round; stroke-linejoin:round; stroke-width:4; stroke-opacity:1; fill:none" points="210.746,1181.3 229.644,1181.3 "/>
<polyline clip-path="url(#clip350)" style="stroke:#000000; stroke-linecap:round; stroke-linejoin:round; stroke-width:4; stroke-opacity:1; fill:none" points="210.746,970.643 229.644,970.643 "/>
<polyline clip-path="url(#clip350)" style="stroke:#000000; stroke-linecap:round; stroke-linejoin:round; stroke-width:4; stroke-opacity:1; fill:none" points="210.746,759.989 229.644,759.989 "/>
<polyline clip-path="url(#clip350)" style="stroke:#000000; stroke-linecap:round; stroke-linejoin:round; stroke-width:4; stroke-opacity:1; fill:none" points="210.746,549.335 229.644,549.335 "/>
<polyline clip-path="url(#clip350)" style="stroke:#000000; stroke-linecap:round; stroke-linejoin:round; stroke-width:4; stroke-opacity:1; fill:none" points="210.746,338.681 229.644,338.681 "/>
<polyline clip-path="url(#clip350)" style="stroke:#000000; stroke-linecap:round; stroke-linejoin:round; stroke-width:4; stroke-opacity:1; fill:none" points="210.746,128.028 229.644,128.028 "/>
<path clip-path="url(#clip350)" d="M114.631 1392.4 L144.306 1392.4 L144.306 1396.34 L114.631 1396.34 L114.631 1392.4 Z" fill="#000000" fill-rule="nonzero" fill-opacity="1" /><path clip-path="url(#clip350)" d="M158.427 1405.3 L174.746 1405.3 L174.746 1409.23 L152.802 1409.23 L152.802 1405.3 Q155.464 1402.54 160.047 1397.91 Q164.653 1393.26 165.834 1391.92 Q168.079 1389.39 168.959 1387.66 Q169.862 1385.9 169.862 1384.21 Q169.862 1381.45 167.917 1379.72 Q165.996 1377.98 162.894 1377.98 Q160.695 1377.98 158.241 1378.74 Q155.811 1379.51 153.033 1381.06 L153.033 1376.34 Q155.857 1375.2 158.311 1374.62 Q160.765 1374.05 162.802 1374.05 Q168.172 1374.05 171.366 1376.73 Q174.561 1379.42 174.561 1383.91 Q174.561 1386.04 173.751 1387.96 Q172.964 1389.86 170.857 1392.45 Q170.278 1393.12 167.177 1396.34 Q164.075 1399.53 158.427 1405.3 Z" fill="#000000" fill-rule="nonzero" fill-opacity="1" /><path clip-path="url(#clip350)" d="M114.26 1181.75 L143.936 1181.75 L143.936 1185.68 L114.26 1185.68 L114.26 1181.75 Z" fill="#000000" fill-rule="nonzero" fill-opacity="1" /><path clip-path="url(#clip350)" d="M154.839 1194.64 L162.477 1194.64 L162.477 1168.28 L154.167 1169.94 L154.167 1165.68 L162.431 1164.02 L167.107 1164.02 L167.107 1194.64 L174.746 1194.64 L174.746 1198.58 L154.839 1198.58 L154.839 1194.64 Z" fill="#000000" fill-rule="nonzero" fill-opacity="1" /><path clip-path="url(#clip350)" d="M162.802 956.442 Q159.19 956.442 157.362 960.006 Q155.556 963.548 155.556 970.678 Q155.556 977.784 157.362 981.349 Q159.19 984.89 162.802 984.89 Q166.436 984.89 168.241 981.349 Q170.07 977.784 170.07 970.678 Q170.07 963.548 168.241 960.006 Q166.436 956.442 162.802 956.442 M162.802 952.738 Q168.612 952.738 171.667 957.344 Q174.746 961.928 174.746 970.678 Q174.746 979.404 171.667 984.011 Q168.612 988.594 162.802 988.594 Q156.991 988.594 153.913 984.011 Q150.857 979.404 150.857 970.678 Q150.857 961.928 153.913 957.344 Q156.991 952.738 162.802 952.738 Z" fill="#000000" fill-rule="nonzero" fill-opacity="1" /><path clip-path="url(#clip350)" d="M154.839 773.334 L162.477 773.334 L162.477 746.968 L154.167 748.635 L154.167 744.376 L162.431 742.709 L167.107 742.709 L167.107 773.334 L174.746 773.334 L174.746 777.269 L154.839 777.269 L154.839 773.334 Z" fill="#000000" fill-rule="nonzero" fill-opacity="1" /><path clip-path="url(#clip350)" d="M158.427 562.68 L174.746 562.68 L174.746 566.615 L152.802 566.615 L152.802 562.68 Q155.464 559.925 160.047 555.296 Q164.653 550.643 165.834 549.3 Q168.079 546.777 168.959 545.041 Q169.862 543.282 169.862 541.592 Q169.862 538.838 167.917 537.101 Q165.996 535.365 162.894 535.365 Q160.695 535.365 158.241 536.129 Q155.811 536.893 153.033 538.444 L153.033 533.722 Q155.857 532.588 158.311 532.009 Q160.765 531.43 162.802 531.43 Q168.172 531.43 171.366 534.115 Q174.561 536.801 174.561 541.291 Q174.561 543.421 173.751 545.342 Q172.964 547.24 170.857 549.833 Q170.278 550.504 167.177 553.722 Q164.075 556.916 158.427 562.68 Z" fill="#000000" fill-rule="nonzero" fill-opacity="1" /><path clip-path="url(#clip350)" d="M167.616 337.327 Q170.973 338.045 172.848 340.313 Q174.746 342.582 174.746 345.915 Q174.746 351.031 171.227 353.832 Q167.709 356.633 161.227 356.633 Q159.052 356.633 156.737 356.193 Q154.445 355.776 151.991 354.92 L151.991 350.406 Q153.936 351.54 156.251 352.119 Q158.565 352.698 161.089 352.698 Q165.487 352.698 167.778 350.961 Q170.093 349.225 170.093 345.915 Q170.093 342.86 167.94 341.147 Q165.811 339.411 161.991 339.411 L157.964 339.411 L157.964 335.568 L162.177 335.568 Q165.626 335.568 167.454 334.202 Q169.283 332.813 169.283 330.221 Q169.283 327.559 167.385 326.147 Q165.51 324.712 161.991 324.712 Q160.07 324.712 157.871 325.128 Q155.672 325.545 153.033 326.425 L153.033 322.258 Q155.695 321.517 158.01 321.147 Q160.348 320.776 162.408 320.776 Q167.732 320.776 170.834 323.207 Q173.936 325.614 173.936 329.735 Q173.936 332.605 172.292 334.596 Q170.649 336.563 167.616 337.327 Z" fill="#000000" fill-rule="nonzero" fill-opacity="1" /><path clip-path="url(#clip350)" d="M165.163 114.822 L153.357 133.271 L165.163 133.271 L165.163 114.822 M163.936 110.748 L169.815 110.748 L169.815 133.271 L174.746 133.271 L174.746 137.159 L169.815 137.159 L169.815 145.308 L165.163 145.308 L165.163 137.159 L149.561 137.159 L149.561 132.646 L163.936 110.748 Z" fill="#000000" fill-rule="nonzero" fill-opacity="1" /><path clip-path="url(#clip350)" d="M21.7677 841.471 L39.6235 841.471 L39.6235 833.386 Q39.6235 828.899 37.3 826.448 Q34.9765 823.997 30.6797 823.997 Q26.4147 823.997 24.0912 826.448 Q21.7677 828.899 21.7677 833.386 L21.7677 841.471 M16.4842 847.9 L16.4842 833.386 Q16.4842 825.397 20.1126 821.323 Q23.7092 817.218 30.6797 817.218 Q37.7138 817.218 41.3104 821.323 Q44.907 825.397 44.907 833.386 L44.907 841.471 L64.0042 841.471 L64.0042 847.9 L16.4842 847.9 Z" fill="#000000" fill-rule="nonzero" fill-opacity="1" /><path clip-path="url(#clip350)" d="M33.8307 789.336 Q33.2578 790.322 33.0032 791.5 Q32.7167 792.646 32.7167 794.046 Q32.7167 799.012 35.9632 801.685 Q39.1779 804.327 45.2253 804.327 L64.0042 804.327 L64.0042 810.215 L28.3562 810.215 L28.3562 804.327 L33.8944 804.327 Q30.6479 802.481 29.0883 799.521 Q27.4968 796.561 27.4968 792.328 Q27.4968 791.723 27.5923 790.991 Q27.656 790.259 27.8151 789.368 L33.8307 789.336 Z" fill="#000000" fill-rule="nonzero" fill-opacity="1" /><path clip-path="url(#clip350)" d="M28.3562 783.193 L28.3562 777.336 L64.0042 777.336 L64.0042 783.193 L28.3562 783.193 M14.479 783.193 L14.479 777.336 L21.895 777.336 L21.895 783.193 L14.479 783.193 Z" fill="#000000" fill-rule="nonzero" fill-opacity="1" /><path clip-path="url(#clip350)" d="M29.7248 739.429 L35.1993 739.429 Q33.8307 741.911 33.1623 744.426 Q32.4621 746.908 32.4621 749.455 Q32.4621 755.152 36.0905 758.303 Q39.6872 761.454 46.212 761.454 Q52.7369 761.454 56.3653 758.303 Q59.9619 755.152 59.9619 749.455 Q59.9619 746.908 59.2935 744.426 Q58.5933 741.911 57.2247 739.429 L62.6355 739.429 Q63.7814 741.879 64.3543 744.521 Q64.9272 747.131 64.9272 750.091 Q64.9272 758.144 59.8664 762.886 Q54.8057 767.629 46.212 767.629 Q37.491 767.629 32.4939 762.854 Q27.4968 758.048 27.4968 749.709 Q27.4968 747.004 28.0697 744.426 Q28.6108 741.848 29.7248 739.429 Z" fill="#000000" fill-rule="nonzero" fill-opacity="1" /><path clip-path="url(#clip350)" d="M44.7161 698.752 L47.5806 698.752 L47.5806 725.679 Q53.6281 725.297 56.8109 722.05 Q59.9619 718.772 59.9619 712.947 Q59.9619 709.573 59.1344 706.422 Q58.3069 703.24 56.6518 700.12 L62.1899 700.12 Q63.5267 703.271 64.227 706.582 Q64.9272 709.892 64.9272 713.297 Q64.9272 721.827 59.9619 726.824 Q54.9967 731.79 46.5303 731.79 Q37.7774 731.79 32.6531 727.079 Q27.4968 722.337 27.4968 714.316 Q27.4968 707.123 32.1438 702.953 Q36.7589 698.752 44.7161 698.752 M42.9973 704.608 Q38.1912 704.672 35.3266 707.314 Q32.4621 709.924 32.4621 714.252 Q32.4621 719.154 35.2312 722.114 Q38.0002 725.042 43.0292 725.488 L42.9973 704.608 Z" fill="#000000" fill-rule="nonzero" fill-opacity="1" /><path clip-path="url(#clip350)" d="M794.974 18.8205 L794.974 41.5461 L805.263 41.5461 Q810.975 41.5461 814.094 38.5889 Q817.213 35.6318 817.213 30.163 Q817.213 24.7348 814.094 21.7777 Q810.975 18.8205 805.263 18.8205 L794.974 18.8205 M786.791 12.096 L805.263 12.096 Q815.431 12.096 820.616 16.714 Q825.842 21.2916 825.842 30.163 Q825.842 39.1155 820.616 43.6931 Q815.431 48.2706 805.263 48.2706 L794.974 48.2706 L794.974 72.576 L786.791 72.576 L786.791 12.096 Z" fill="#000000" fill-rule="nonzero" fill-opacity="1" /><path clip-path="url(#clip350)" d="M861.328 34.1734 Q860.072 33.4443 858.573 33.1202 Q857.115 32.7556 855.332 32.7556 Q849.013 32.7556 845.61 36.8875 Q842.248 40.9789 842.248 48.6757 L842.248 72.576 L834.754 72.576 L834.754 27.2059 L842.248 27.2059 L842.248 34.2544 Q844.598 30.1225 848.365 28.1376 Q852.132 26.1121 857.52 26.1121 Q858.29 26.1121 859.221 26.2337 Q860.153 26.3147 861.287 26.5172 L861.328 34.1734 Z" fill="#000000" fill-rule="nonzero" fill-opacity="1" /><path clip-path="url(#clip350)" d="M869.146 27.2059 L876.6 27.2059 L876.6 72.576 L869.146 72.576 L869.146 27.2059 M869.146 9.54393 L876.6 9.54393 L876.6 18.9825 L869.146 18.9825 L869.146 9.54393 Z" fill="#000000" fill-rule="nonzero" fill-opacity="1" /><path clip-path="url(#clip350)" d="M924.846 28.9478 L924.846 35.9153 Q921.686 34.1734 918.486 33.3227 Q915.326 32.4315 912.086 32.4315 Q904.835 32.4315 900.824 37.0496 Q896.814 41.6271 896.814 49.9314 Q896.814 58.2358 900.824 62.8538 Q904.835 67.4314 912.086 67.4314 Q915.326 67.4314 918.486 66.5807 Q921.686 65.6895 924.846 63.9476 L924.846 70.8341 Q921.727 72.2924 918.365 73.0216 Q915.043 73.7508 911.275 73.7508 Q901.027 73.7508 894.991 67.3098 Q888.955 60.8689 888.955 49.9314 Q888.955 38.832 895.031 32.472 Q901.148 26.1121 911.762 26.1121 Q915.205 26.1121 918.486 26.8413 Q921.767 27.5299 924.846 28.9478 Z" fill="#000000" fill-rule="nonzero" fill-opacity="1" /><path clip-path="url(#clip350)" d="M976.617 48.0275 L976.617 51.6733 L942.346 51.6733 Q942.832 59.3701 946.964 63.421 Q951.136 67.4314 958.55 67.4314 Q962.843 67.4314 966.854 66.3781 Q970.905 65.3249 974.875 63.2184 L974.875 70.267 Q970.864 71.9684 966.651 72.8596 Q962.438 73.7508 958.104 73.7508 Q947.248 73.7508 940.888 67.4314 Q934.568 61.1119 934.568 50.3365 Q934.568 39.1965 940.564 32.6746 Q946.599 26.1121 956.808 26.1121 Q965.963 26.1121 971.269 32.0264 Q976.617 37.9003 976.617 48.0275 M969.163 45.84 Q969.082 39.7232 965.72 36.0774 Q962.398 32.4315 956.889 32.4315 Q950.65 32.4315 946.883 35.9558 Q943.156 39.4801 942.589 45.8805 L969.163 45.84 Z" fill="#000000" fill-rule="nonzero" fill-opacity="1" /><path clip-path="url(#clip350)" d="M1047.87 28.9478 L1047.87 35.9153 Q1044.71 34.1734 1041.51 33.3227 Q1038.35 32.4315 1035.11 32.4315 Q1027.86 32.4315 1023.85 37.0496 Q1019.84 41.6271 1019.84 49.9314 Q1019.84 58.2358 1023.85 62.8538 Q1027.86 67.4314 1035.11 67.4314 Q1038.35 67.4314 1041.51 66.5807 Q1044.71 65.6895 1047.87 63.9476 L1047.87 70.8341 Q1044.75 72.2924 1041.39 73.0216 Q1038.07 73.7508 1034.3 73.7508 Q1024.05 73.7508 1018.02 67.3098 Q1011.98 60.8689 1011.98 49.9314 Q1011.98 38.832 1018.06 32.472 Q1024.17 26.1121 1034.79 26.1121 Q1038.23 26.1121 1041.51 26.8413 Q1044.79 27.5299 1047.87 28.9478 Z" fill="#000000" fill-rule="nonzero" fill-opacity="1" /><path clip-path="url(#clip350)" d="M1098.55 45.1919 L1098.55 72.576 L1091.1 72.576 L1091.1 45.4349 Q1091.1 38.994 1088.58 35.7938 Q1086.07 32.5936 1081.05 32.5936 Q1075.01 32.5936 1071.53 36.4419 Q1068.05 40.2903 1068.05 46.9338 L1068.05 72.576 L1060.55 72.576 L1060.55 9.54393 L1068.05 9.54393 L1068.05 34.2544 Q1070.72 30.163 1074.32 28.1376 Q1077.97 26.1121 1082.71 26.1121 Q1090.53 26.1121 1094.54 30.9732 Q1098.55 35.7938 1098.55 45.1919 Z" fill="#000000" fill-rule="nonzero" fill-opacity="1" /><path clip-path="url(#clip350)" d="M1134.03 49.7694 Q1125 49.7694 1121.52 51.8354 Q1118.03 53.9013 1118.03 58.8839 Q1118.03 62.8538 1120.63 65.2034 Q1123.26 67.5124 1127.76 67.5124 Q1133.95 67.5124 1137.68 63.1374 Q1141.45 58.7219 1141.45 51.4303 L1141.45 49.7694 L1134.03 49.7694 M1148.9 46.6907 L1148.9 72.576 L1141.45 72.576 L1141.45 65.6895 Q1138.9 69.8214 1135.09 71.8063 Q1131.28 73.7508 1125.77 73.7508 Q1118.8 73.7508 1114.67 69.8619 Q1110.58 65.9325 1110.58 59.3701 Q1110.58 51.7138 1115.68 47.825 Q1120.83 43.9361 1131 43.9361 L1141.45 43.9361 L1141.45 43.2069 Q1141.45 38.0623 1138.05 35.2672 Q1134.68 32.4315 1128.57 32.4315 Q1124.68 32.4315 1120.99 33.3632 Q1117.3 34.295 1113.9 36.1584 L1113.9 29.2718 Q1117.99 27.692 1121.84 26.9223 Q1125.69 26.1121 1129.34 26.1121 Q1139.18 26.1121 1144.04 31.2163 Q1148.9 36.3204 1148.9 46.6907 Z" fill="#000000" fill-rule="nonzero" fill-opacity="1" /><path clip-path="url(#clip350)" d="M1201.97 45.1919 L1201.97 72.576 L1194.51 72.576 L1194.51 45.4349 Q1194.51 38.994 1192 35.7938 Q1189.49 32.5936 1184.47 32.5936 Q1178.43 32.5936 1174.95 36.4419 Q1171.47 40.2903 1171.47 46.9338 L1171.47 72.576 L1163.97 72.576 L1163.97 27.2059 L1171.47 27.2059 L1171.47 34.2544 Q1174.14 30.163 1177.74 28.1376 Q1181.39 26.1121 1186.13 26.1121 Q1193.95 26.1121 1197.96 30.9732 Q1201.97 35.7938 1201.97 45.1919 Z" fill="#000000" fill-rule="nonzero" fill-opacity="1" /><path clip-path="url(#clip350)" d="M1246.69 49.3643 Q1246.69 41.2625 1243.33 36.8065 Q1240.01 32.3505 1233.97 32.3505 Q1227.98 32.3505 1224.61 36.8065 Q1221.29 41.2625 1221.29 49.3643 Q1221.29 57.4256 1224.61 61.8816 Q1227.98 66.3376 1233.97 66.3376 Q1240.01 66.3376 1243.33 61.8816 Q1246.69 57.4256 1246.69 49.3643 M1254.14 66.9452 Q1254.14 78.5308 1249 84.1616 Q1243.85 89.8329 1233.24 89.8329 Q1229.31 89.8329 1225.83 89.2252 Q1222.34 88.6581 1219.06 87.4428 L1219.06 80.1917 Q1222.34 81.9741 1225.54 82.8248 Q1228.74 83.6755 1232.07 83.6755 Q1239.4 83.6755 1243.04 79.8271 Q1246.69 76.0193 1246.69 68.282 L1246.69 64.5957 Q1244.38 68.6061 1240.78 70.5911 Q1237.17 72.576 1232.15 72.576 Q1223.8 72.576 1218.7 66.2161 Q1213.59 59.8562 1213.59 49.3643 Q1213.59 38.832 1218.7 32.472 Q1223.8 26.1121 1232.15 26.1121 Q1237.17 26.1121 1240.78 28.0971 Q1244.38 30.082 1246.69 34.0924 L1246.69 27.2059 L1254.14 27.2059 L1254.14 66.9452 Z" fill="#000000" fill-rule="nonzero" fill-opacity="1" /><path clip-path="url(#clip350)" d="M1308.3 48.0275 L1308.3 51.6733 L1274.03 51.6733 Q1274.52 59.3701 1278.65 63.421 Q1282.82 67.4314 1290.24 67.4314 Q1294.53 67.4314 1298.54 66.3781 Q1302.59 65.3249 1306.56 63.2184 L1306.56 70.267 Q1302.55 71.9684 1298.34 72.8596 Q1294.13 73.7508 1289.79 73.7508 Q1278.94 73.7508 1272.58 67.4314 Q1266.26 61.1119 1266.26 50.3365 Q1266.26 39.1965 1272.25 32.6746 Q1278.29 26.1121 1288.5 26.1121 Q1297.65 26.1121 1302.96 32.0264 Q1308.3 37.9003 1308.3 48.0275 M1300.85 45.84 Q1300.77 39.7232 1297.41 36.0774 Q1294.09 32.4315 1288.58 32.4315 Q1282.34 32.4315 1278.57 35.9558 Q1274.84 39.4801 1274.28 45.8805 L1300.85 45.84 Z" fill="#000000" fill-rule="nonzero" fill-opacity="1" /><path clip-path="url(#clip350)" d="M1349.46 28.5427 L1349.46 35.5912 Q1346.3 33.9709 1342.9 33.1607 Q1339.5 32.3505 1335.85 32.3505 Q1330.3 32.3505 1327.51 34.0519 Q1324.75 35.7533 1324.75 39.156 Q1324.75 41.7486 1326.74 43.2475 Q1328.72 44.7058 1334.72 46.0426 L1337.27 46.6097 Q1345.21 48.3111 1348.53 51.4303 Q1351.89 54.509 1351.89 60.0587 Q1351.89 66.3781 1346.87 70.0644 Q1341.89 73.7508 1333.14 73.7508 Q1329.49 73.7508 1325.52 73.0216 Q1321.59 72.3329 1317.22 70.9151 L1317.22 63.2184 Q1321.35 65.3654 1325.36 66.4591 Q1329.37 67.5124 1333.3 67.5124 Q1338.56 67.5124 1341.4 65.73 Q1344.24 63.9071 1344.24 60.6258 Q1344.24 57.5877 1342.17 55.9673 Q1340.14 54.3469 1333.22 52.8481 L1330.63 52.2405 Q1323.7 50.7821 1320.62 47.7845 Q1317.54 44.7463 1317.54 39.4801 Q1317.54 33.0797 1322.08 29.5959 Q1326.61 26.1121 1334.96 26.1121 Q1339.09 26.1121 1342.74 26.7198 Q1346.38 27.3274 1349.46 28.5427 Z" fill="#000000" fill-rule="nonzero" fill-opacity="1" /><path clip-path="url(#clip350)" d="M1407.71 32.4315 Q1401.72 32.4315 1398.23 37.1306 Q1394.75 41.7891 1394.75 49.9314 Q1394.75 58.0738 1398.19 62.7728 Q1401.68 67.4314 1407.71 67.4314 Q1413.67 67.4314 1417.15 62.7323 Q1420.64 58.0333 1420.64 49.9314 Q1420.64 41.8701 1417.15 37.1711 Q1413.67 32.4315 1407.71 32.4315 M1407.71 26.1121 Q1417.44 26.1121 1422.99 32.4315 Q1428.54 38.7509 1428.54 49.9314 Q1428.54 61.0714 1422.99 67.4314 Q1417.44 73.7508 1407.71 73.7508 Q1397.95 73.7508 1392.4 67.4314 Q1386.89 61.0714 1386.89 49.9314 Q1386.89 38.7509 1392.4 32.4315 Q1397.95 26.1121 1407.71 26.1121 Z" fill="#000000" fill-rule="nonzero" fill-opacity="1" /><path clip-path="url(#clip350)" d="M1435.54 27.2059 L1443.44 27.2059 L1457.62 65.2844 L1471.8 27.2059 L1479.7 27.2059 L1462.68 72.576 L1452.56 72.576 L1435.54 27.2059 Z" fill="#000000" fill-rule="nonzero" fill-opacity="1" /><path clip-path="url(#clip350)" d="M1528.8 48.0275 L1528.8 51.6733 L1494.52 51.6733 Q1495.01 59.3701 1499.14 63.421 Q1503.32 67.4314 1510.73 67.4314 Q1515.02 67.4314 1519.03 66.3781 Q1523.08 65.3249 1527.05 63.2184 L1527.05 70.267 Q1523.04 71.9684 1518.83 72.8596 Q1514.62 73.7508 1510.28 73.7508 Q1499.43 73.7508 1493.07 67.4314 Q1486.75 61.1119 1486.75 50.3365 Q1486.75 39.1965 1492.74 32.6746 Q1498.78 26.1121 1508.99 26.1121 Q1518.14 26.1121 1523.45 32.0264 Q1528.8 37.9003 1528.8 48.0275 M1521.34 45.84 Q1521.26 39.7232 1517.9 36.0774 Q1514.58 32.4315 1509.07 32.4315 Q1502.83 32.4315 1499.06 35.9558 Q1495.33 39.4801 1494.77 45.8805 L1521.34 45.84 Z" fill="#000000" fill-rule="nonzero" fill-opacity="1" /><path clip-path="url(#clip350)" d="M1567.32 34.1734 Q1566.06 33.4443 1564.56 33.1202 Q1563.11 32.7556 1561.32 32.7556 Q1555 32.7556 1551.6 36.8875 Q1548.24 40.9789 1548.24 48.6757 L1548.24 72.576 L1540.75 72.576 L1540.75 27.2059 L1548.24 27.2059 L1548.24 34.2544 Q1550.59 30.1225 1554.36 28.1376 Q1558.12 26.1121 1563.51 26.1121 Q1564.28 26.1121 1565.21 26.2337 Q1566.14 26.3147 1567.28 26.5172 L1567.32 34.1734 Z" fill="#000000" fill-rule="nonzero" fill-opacity="1" /><path clip-path="url(#clip350)" d="M1608.88 14.324 L1608.88 27.2059 L1624.23 27.2059 L1624.23 32.9987 L1608.88 32.9987 L1608.88 57.6282 Q1608.88 63.1779 1610.38 64.7578 Q1611.92 66.3376 1616.58 66.3376 L1624.23 66.3376 L1624.23 72.576 L1616.58 72.576 Q1607.95 72.576 1604.67 69.3758 Q1601.39 66.1351 1601.39 57.6282 L1601.39 32.9987 L1595.92 32.9987 L1595.92 27.2059 L1601.39 27.2059 L1601.39 14.324 L1608.88 14.324 Z" fill="#000000" fill-rule="nonzero" fill-opacity="1" /><path clip-path="url(#clip350)" d="M1634.04 27.2059 L1641.49 27.2059 L1641.49 72.576 L1634.04 72.576 L1634.04 27.2059 M1634.04 9.54393 L1641.49 9.54393 L1641.49 18.9825 L1634.04 18.9825 L1634.04 9.54393 Z" fill="#000000" fill-rule="nonzero" fill-opacity="1" /><path clip-path="url(#clip350)" d="M1692.41 35.9153 Q1695.21 30.8922 1699.1 28.5022 Q1702.98 26.1121 1708.25 26.1121 Q1715.34 26.1121 1719.19 31.0947 Q1723.04 36.0368 1723.04 45.1919 L1723.04 72.576 L1715.54 72.576 L1715.54 45.4349 Q1715.54 38.913 1713.23 35.7533 Q1710.92 32.5936 1706.18 32.5936 Q1700.39 32.5936 1697.03 36.4419 Q1693.67 40.2903 1693.67 46.9338 L1693.67 72.576 L1686.17 72.576 L1686.17 45.4349 Q1686.17 38.8725 1683.86 35.7533 Q1681.55 32.5936 1676.73 32.5936 Q1671.02 32.5936 1667.66 36.4824 Q1664.3 40.3308 1664.3 46.9338 L1664.3 72.576 L1656.8 72.576 L1656.8 27.2059 L1664.3 27.2059 L1664.3 34.2544 Q1666.85 30.082 1670.41 28.0971 Q1673.98 26.1121 1678.88 26.1121 Q1683.82 26.1121 1687.27 28.6237 Q1690.75 31.1352 1692.41 35.9153 Z" fill="#000000" fill-rule="nonzero" fill-opacity="1" /><path clip-path="url(#clip350)" d="M1776.71 48.0275 L1776.71 51.6733 L1742.44 51.6733 Q1742.93 59.3701 1747.06 63.421 Q1751.23 67.4314 1758.64 67.4314 Q1762.94 67.4314 1766.95 66.3781 Q1771 65.3249 1774.97 63.2184 L1774.97 70.267 Q1770.96 71.9684 1766.75 72.8596 Q1762.53 73.7508 1758.2 73.7508 Q1747.34 73.7508 1740.98 67.4314 Q1734.66 61.1119 1734.66 50.3365 Q1734.66 39.1965 1740.66 32.6746 Q1746.69 26.1121 1756.9 26.1121 Q1766.06 26.1121 1771.36 32.0264 Q1776.71 37.9003 1776.71 48.0275 M1769.26 45.84 Q1769.18 39.7232 1765.81 36.0774 Q1762.49 32.4315 1756.98 32.4315 Q1750.74 32.4315 1746.98 35.9558 Q1743.25 39.4801 1742.68 45.8805 L1769.26 45.84 Z" fill="#000000" fill-rule="nonzero" fill-opacity="1" /><polyline clip-path="url(#clip351)" style="stroke:#009af9; stroke-linecap:round; stroke-linejoin:round; stroke-width:8; stroke-opacity:1; fill:none" points="271.369,607.933 291.781,595.839 312.192,594.175 332.604,597.055 353.016,602.8 373.428,594.46 393.839,599.617 414.251,572.546 434.663,608.619 455.075,577.082 475.486,604.086 495.898,598.85 516.31,596.893 536.722,585.828 557.133,570.459 577.545,579.187 597.957,597.031 618.369,606.646 638.781,575.122 659.192,603.339 679.604,595.758 700.016,586.567 720.428,595.352 740.839,594.217 761.251,595.92 781.663,590.286 802.075,606.302 822.486,600.612 842.898,608.627 863.31,583.494 883.722,594.947 904.133,576.094 924.545,596.176 944.957,596.244 965.369,597.38 985.78,596.731 1006.19,607.123 1026.6,594.784 1047.02,596.488 1067.43,596.325 1087.84,596.001 1108.25,607.045 1128.66,583.286 1149.07,573.197 1169.49,577.112 1189.9,570.733 1210.31,600.368 1230.72,588.654 1251.13,609.298 1271.55,597.217 1291.96,576.139 1312.37,596.363 1332.78,596.579 1353.19,608.465 1373.6,574.87 1394.02,603.308 1414.43,595.271 1434.84,607.564 1455.25,596.163 1475.66,572.234 1496.07,594.513 1516.49,596.65 1536.9,596.812 1557.31,597.136 1577.72,593.476 1598.13,597.937 1618.54,595.028 1638.96,594.865 1659.37,578.304 1679.78,595.677 1700.19,594.379 1720.6,596.974 1741.02,606.048 1761.43,570.411 1781.84,594.541 1802.25,596.569 1822.66,596.951 1843.07,597.299 1863.49,600.233 1883.9,594.298 1904.31,595.433 1924.72,595.19 1945.13,589.015 1965.54,594.703 1985.96,599.253 2006.37,596.082 2026.78,575.748 2047.19,606.364 2067.6,594.425 2088.02,596.993 2108.43,573.407 2128.84,587.059 2149.25,595.595 2169.66,580.9 2190.07,595.514 2210.49,584.188 2230.9,596.406 2251.31,595.109 2271.72,594.622 2292.13,595.542 "/>
<polyline clip-path="url(#clip351)" style="stroke:#e26f46; stroke-linecap:round; stroke-linejoin:round; stroke-width:8; stroke-opacity:1; fill:none" points="271.369,230.445 291.781,261.701 312.192,184.377 332.604,215.856 353.016,208.636 373.428,265.186 393.839,292.8 414.251,192.182 434.663,272.895 455.075,213.163 475.486,253.231 495.898,296.255 516.31,181.14 536.722,175.157 557.133,231.426 577.545,236.779 597.957,274.525 618.369,196.29 638.781,161.519 659.192,267.546 679.604,258.136 700.016,222.064 720.428,193.116 740.839,181.288 761.251,244.738 781.663,263.452 802.075,246.737 822.486,213.187 842.898,274.001 863.31,179.31 883.722,222.418 904.133,202.928 924.545,201.985 944.957,224.893 965.369,218.584 985.78,271.734 1006.19,238.444 1026.6,257.969 1047.02,233.521 1067.43,213.014 1087.84,261.759 1108.25,276.581 1128.66,247.57 1149.07,244.075 1169.49,188.384 1189.9,248.53 1210.31,213.051 1230.72,191.371 1251.13,268.369 1271.55,289.196 1291.96,198.314 1312.37,236.201 1332.78,236.812 1353.19,204.226 1373.6,160.256 1394.02,246.082 1414.43,232.057 1434.84,299.253 1455.25,310.565 1475.66,187.382 1496.07,236.292 1516.49,253.497 1536.9,203.925 1557.31,267.78 1577.72,240.161 1598.13,235.659 1618.54,191.205 1638.96,205.273 1659.37,201.653 1679.78,232.489 1700.19,293.454 1720.6,246.842 1741.02,231.467 1761.43,173.146 1781.84,259.798 1802.25,226.294 1822.66,360.345 1843.07,245.046 1863.49,234.894 1883.9,182.906 1904.31,249.277 1924.72,180.006 1945.13,174.596 1965.54,183.675 1985.96,223.32 2006.37,252.475 2026.78,240.369 2047.19,209.414 2067.6,178.819 2088.02,267.921 2108.43,172.245 2128.84,275.083 2149.25,231.335 2169.66,213.153 2190.07,247.221 2210.49,179.498 2230.9,303.26 2251.31,195.084 2271.72,227.417 2292.13,239.965 "/>
<polyline clip-path="url(#clip351)" style="stroke:#3da44d; stroke-linecap:round; stroke-linejoin:round; stroke-width:8; stroke-opacity:1; fill:none" points="271.369,1348.13 291.781,1304.78 312.192,1380.44 332.604,1351.84 353.016,1364.81 373.428,1299.92 393.839,1277.46 414.251,1351.01 434.663,1306.37 455.075,1334.56 475.486,1321.5 495.898,1273.24 516.31,1386.4 536.722,1381.31 557.133,1309.68 577.545,1313.05 597.957,1293.15 618.369,1381 638.781,1384.25 659.192,1306.44 679.604,1308.26 700.016,1335.15 720.428,1372.88 740.839,1383.57 761.251,1321.83 781.663,1297.48 802.075,1330.21 822.486,1358.07 842.898,1305.27 863.31,1374.83 883.722,1343.17 904.133,1343.81 924.545,1364.83 944.957,1341.99 965.369,1349.44 985.78,1295.64 1006.19,1339.32 1026.6,1307.46 1047.02,1333.61 1067.43,1353.95 1087.84,1304.88 1108.25,1301.11 1128.66,1306.36 1149.07,1299.76 1169.49,1359.37 1189.9,1292.85 1210.31,1357.96 1230.72,1367.93 1251.13,1311.57 1271.55,1278.66 1291.96,1348.47 1312.37,1330.8 1332.78,1330.41 1353.19,1374.88 1373.6,1385.26 1394.02,1327.87 1414.43,1333.86 1434.84,1278.95 1455.25,1256.24 1475.66,1355.5 1496.07,1328.86 1516.49,1313.8 1536.9,1363.53 1557.31,1300 1577.72,1323.96 1598.13,1332.92 1618.54,1374.47 1638.96,1360.24 1659.37,1347.29 1679.78,1333.83 1700.19,1271.57 1720.6,1320.78 1741.02,1345.22 1761.43,1367.91 1781.84,1305.39 1802.25,1340.92 1822.66,1207.25 1843.07,1322.9 1863.49,1335.98 1883.9,1382.03 1904.31,1316.8 1924.72,1385.83 1945.13,1385.06 1965.54,1381.67 1985.96,1346.58 2006.37,1314.25 2026.78,1306.02 2047.19,1367.59 2067.6,1386.25 2088.02,1299.71 2108.43,1371.81 2128.84,1282.62 2149.25,1334.9 2169.66,1338.39 2190.07,1318.94 2210.49,1375.33 2230.9,1263.79 2251.31,1370.67 2271.72,1337.85 2292.13,1326.22 "/>
<path clip-path="url(#clip350)" d="M282.146 374.156 L734.286 374.156 L734.286 166.796 L282.146 166.796  Z" fill="#ffffff" fill-rule="evenodd" fill-opacity="1"/>
<polyline clip-path="url(#clip350)" style="stroke:#000000; stroke-linecap:round; stroke-linejoin:round; stroke-width:4; stroke-opacity:1; fill:none" points="282.146,374.156 734.286,374.156 734.286,166.796 282.146,166.796 282.146,374.156 "/>
<polyline clip-path="url(#clip350)" style="stroke:#009af9; stroke-linecap:round; stroke-linejoin:round; stroke-width:8; stroke-opacity:1; fill:none" points="305.946,218.636 448.747,218.636 "/>
<path clip-path="url(#clip350)" d="M472.547 201.356 L477.223 201.356 L477.223 231.981 L494.052 231.981 L494.052 235.916 L472.547 235.916 L472.547 201.356 Z" fill="#000000" fill-rule="nonzero" fill-opacity="1" /><path clip-path="url(#clip350)" d="M520.116 221.888 L520.116 223.971 L500.533 223.971 Q500.811 228.369 503.172 230.684 Q505.556 232.976 509.792 232.976 Q512.246 232.976 514.538 232.374 Q516.852 231.772 519.121 230.569 L519.121 234.596 Q516.829 235.568 514.422 236.078 Q512.015 236.587 509.538 236.587 Q503.334 236.587 499.7 232.976 Q496.089 229.365 496.089 223.207 Q496.089 216.842 499.515 213.115 Q502.964 209.365 508.797 209.365 Q514.028 209.365 517.061 212.745 Q520.116 216.101 520.116 221.888 M515.857 220.638 Q515.811 217.143 513.89 215.059 Q511.991 212.976 508.843 212.976 Q505.278 212.976 503.126 214.99 Q500.996 217.004 500.672 220.661 L515.857 220.638 Z" fill="#000000" fill-rule="nonzero" fill-opacity="1" /><path clip-path="url(#clip350)" d="M538.889 222.883 Q533.727 222.883 531.737 224.064 Q529.746 225.244 529.746 228.092 Q529.746 230.36 531.227 231.703 Q532.732 233.022 535.301 233.022 Q538.843 233.022 540.973 230.522 Q543.125 227.999 543.125 223.832 L543.125 222.883 L538.889 222.883 M547.385 221.124 L547.385 235.916 L543.125 235.916 L543.125 231.981 Q541.667 234.342 539.491 235.476 Q537.315 236.587 534.167 236.587 Q530.186 236.587 527.825 234.365 Q525.487 232.119 525.487 228.369 Q525.487 223.994 528.403 221.772 Q531.343 219.55 537.153 219.55 L543.125 219.55 L543.125 219.133 Q543.125 216.194 541.181 214.596 Q539.26 212.976 535.764 212.976 Q533.542 212.976 531.436 213.508 Q529.329 214.041 527.385 215.106 L527.385 211.17 Q529.723 210.268 531.922 209.828 Q534.121 209.365 536.204 209.365 Q541.829 209.365 544.607 212.282 Q547.385 215.198 547.385 221.124 Z" fill="#000000" fill-rule="nonzero" fill-opacity="1" /><path clip-path="url(#clip350)" d="M573.218 213.925 L573.218 199.897 L577.477 199.897 L577.477 235.916 L573.218 235.916 L573.218 232.027 Q571.875 234.342 569.815 235.476 Q567.778 236.587 564.908 236.587 Q560.209 236.587 557.246 232.837 Q554.306 229.087 554.306 222.976 Q554.306 216.865 557.246 213.115 Q560.209 209.365 564.908 209.365 Q567.778 209.365 569.815 210.499 Q571.875 211.61 573.218 213.925 M558.704 222.976 Q558.704 227.675 560.625 230.36 Q562.57 233.022 565.949 233.022 Q569.329 233.022 571.273 230.36 Q573.218 227.675 573.218 222.976 Q573.218 218.277 571.273 215.615 Q569.329 212.93 565.949 212.93 Q562.57 212.93 560.625 215.615 Q558.704 218.277 558.704 222.976 Z" fill="#000000" fill-rule="nonzero" fill-opacity="1" /><path clip-path="url(#clip350)" d="M608.426 221.888 L608.426 223.971 L588.843 223.971 Q589.121 228.369 591.482 230.684 Q593.866 232.976 598.102 232.976 Q600.556 232.976 602.847 232.374 Q605.162 231.772 607.431 230.569 L607.431 234.596 Q605.139 235.568 602.732 236.078 Q600.324 236.587 597.847 236.587 Q591.644 236.587 588.01 232.976 Q584.398 229.365 584.398 223.207 Q584.398 216.842 587.824 213.115 Q591.273 209.365 597.107 209.365 Q602.338 209.365 605.371 212.745 Q608.426 216.101 608.426 221.888 M604.167 220.638 Q604.121 217.143 602.199 215.059 Q600.301 212.976 597.153 212.976 Q593.588 212.976 591.435 214.99 Q589.306 217.004 588.982 220.661 L604.167 220.638 Z" fill="#000000" fill-rule="nonzero" fill-opacity="1" /><path clip-path="url(#clip350)" d="M630.44 213.971 Q629.722 213.555 628.866 213.37 Q628.032 213.161 627.014 213.161 Q623.403 213.161 621.458 215.522 Q619.537 217.86 619.537 222.258 L619.537 235.916 L615.255 235.916 L615.255 209.99 L619.537 209.99 L619.537 214.018 Q620.88 211.657 623.032 210.522 Q625.185 209.365 628.264 209.365 Q628.704 209.365 629.236 209.434 Q629.769 209.481 630.417 209.596 L630.44 213.971 Z" fill="#000000" fill-rule="nonzero" fill-opacity="1" /><polyline clip-path="url(#clip350)" style="stroke:#e26f46; stroke-linecap:round; stroke-linejoin:round; stroke-width:8; stroke-opacity:1; fill:none" points="305.946,270.476 448.747,270.476 "/>
<path clip-path="url(#clip350)" d="M472.547 253.196 L492.408 253.196 L492.408 257.131 L477.223 257.131 L477.223 267.316 L490.927 267.316 L490.927 271.251 L477.223 271.251 L477.223 287.756 L472.547 287.756 L472.547 253.196 Z" fill="#000000" fill-rule="nonzero" fill-opacity="1" /><path clip-path="url(#clip350)" d="M507.987 264.816 Q504.561 264.816 502.57 267.501 Q500.579 270.163 500.579 274.816 Q500.579 279.469 502.547 282.154 Q504.538 284.816 507.987 284.816 Q511.39 284.816 513.38 282.131 Q515.371 279.446 515.371 274.816 Q515.371 270.21 513.38 267.524 Q511.39 264.816 507.987 264.816 M507.987 261.205 Q513.542 261.205 516.714 264.816 Q519.885 268.427 519.885 274.816 Q519.885 281.182 516.714 284.816 Q513.542 288.427 507.987 288.427 Q502.408 288.427 499.237 284.816 Q496.089 281.182 496.089 274.816 Q496.089 268.427 499.237 264.816 Q502.408 261.205 507.987 261.205 Z" fill="#000000" fill-rule="nonzero" fill-opacity="1" /><path clip-path="url(#clip350)" d="M526.945 251.737 L531.204 251.737 L531.204 287.756 L526.945 287.756 L526.945 251.737 Z" fill="#000000" fill-rule="nonzero" fill-opacity="1" /><path clip-path="url(#clip350)" d="M540.116 251.737 L544.375 251.737 L544.375 287.756 L540.116 287.756 L540.116 251.737 Z" fill="#000000" fill-rule="nonzero" fill-opacity="1" /><path clip-path="url(#clip350)" d="M563.334 264.816 Q559.908 264.816 557.917 267.501 Q555.926 270.163 555.926 274.816 Q555.926 279.469 557.894 282.154 Q559.885 284.816 563.334 284.816 Q566.736 284.816 568.727 282.131 Q570.718 279.446 570.718 274.816 Q570.718 270.21 568.727 267.524 Q566.736 264.816 563.334 264.816 M563.334 261.205 Q568.889 261.205 572.061 264.816 Q575.232 268.427 575.232 274.816 Q575.232 281.182 572.061 284.816 Q568.889 288.427 563.334 288.427 Q557.755 288.427 554.584 284.816 Q551.436 281.182 551.436 274.816 Q551.436 268.427 554.584 264.816 Q557.755 261.205 563.334 261.205 Z" fill="#000000" fill-rule="nonzero" fill-opacity="1" /><path clip-path="url(#clip350)" d="M579.815 261.83 L584.074 261.83 L589.398 282.061 L594.699 261.83 L599.722 261.83 L605.046 282.061 L610.347 261.83 L614.607 261.83 L607.824 287.756 L602.801 287.756 L597.222 266.506 L591.621 287.756 L586.597 287.756 L579.815 261.83 Z" fill="#000000" fill-rule="nonzero" fill-opacity="1" /><path clip-path="url(#clip350)" d="M643.241 273.728 L643.241 275.811 L623.657 275.811 Q623.935 280.209 626.296 282.524 Q628.681 284.816 632.917 284.816 Q635.37 284.816 637.662 284.214 Q639.977 283.612 642.245 282.409 L642.245 286.436 Q639.954 287.408 637.546 287.918 Q635.139 288.427 632.662 288.427 Q626.458 288.427 622.824 284.816 Q619.213 281.205 619.213 275.047 Q619.213 268.682 622.639 264.955 Q626.088 261.205 631.921 261.205 Q637.153 261.205 640.185 264.585 Q643.241 267.941 643.241 273.728 M638.981 272.478 Q638.935 268.983 637.014 266.899 Q635.116 264.816 631.968 264.816 Q628.403 264.816 626.25 266.83 Q624.12 268.844 623.796 272.501 L638.981 272.478 Z" fill="#000000" fill-rule="nonzero" fill-opacity="1" /><path clip-path="url(#clip350)" d="M665.254 265.811 Q664.537 265.395 663.68 265.21 Q662.847 265.001 661.829 265.001 Q658.217 265.001 656.273 267.362 Q654.352 269.7 654.352 274.098 L654.352 287.756 L650.069 287.756 L650.069 261.83 L654.352 261.83 L654.352 265.858 Q655.694 263.497 657.847 262.362 Q660 261.205 663.079 261.205 Q663.518 261.205 664.051 261.274 Q664.583 261.321 665.231 261.436 L665.254 265.811 Z" fill="#000000" fill-rule="nonzero" fill-opacity="1" /><polyline clip-path="url(#clip350)" style="stroke:#3da44d; stroke-linecap:round; stroke-linejoin:round; stroke-width:8; stroke-opacity:1; fill:none" points="305.946,322.316 448.747,322.316 "/>
<path clip-path="url(#clip350)" d="M477.223 308.878 L477.223 335.753 L482.871 335.753 Q490.024 335.753 493.334 332.512 Q496.667 329.272 496.667 322.281 Q496.667 315.337 493.334 312.119 Q490.024 308.878 482.871 308.878 L477.223 308.878 M472.547 305.036 L482.154 305.036 Q492.2 305.036 496.899 309.226 Q501.598 313.392 501.598 322.281 Q501.598 331.216 496.876 335.406 Q492.154 339.596 482.154 339.596 L472.547 339.596 L472.547 305.036 Z" fill="#000000" fill-rule="nonzero" fill-opacity="1" /><path clip-path="url(#clip350)" d="M508.866 313.67 L513.126 313.67 L513.126 339.596 L508.866 339.596 L508.866 313.67 M508.866 303.577 L513.126 303.577 L513.126 308.971 L508.866 308.971 L508.866 303.577 Z" fill="#000000" fill-rule="nonzero" fill-opacity="1" /><path clip-path="url(#clip350)" d="M535.163 303.577 L535.163 307.119 L531.089 307.119 Q528.797 307.119 527.894 308.045 Q527.014 308.971 527.014 311.378 L527.014 313.67 L534.028 313.67 L534.028 316.98 L527.014 316.98 L527.014 339.596 L522.732 339.596 L522.732 316.98 L518.658 316.98 L518.658 313.67 L522.732 313.67 L522.732 311.864 Q522.732 307.536 524.746 305.568 Q526.76 303.577 531.135 303.577 L535.163 303.577 Z" fill="#000000" fill-rule="nonzero" fill-opacity="1" /><path clip-path="url(#clip350)" d="M551.852 303.577 L551.852 307.119 L547.778 307.119 Q545.487 307.119 544.584 308.045 Q543.704 308.971 543.704 311.378 L543.704 313.67 L550.718 313.67 L550.718 316.98 L543.704 316.98 L543.704 339.596 L539.422 339.596 L539.422 316.98 L535.348 316.98 L535.348 313.67 L539.422 313.67 L539.422 311.864 Q539.422 307.536 541.436 305.568 Q543.45 303.577 547.825 303.577 L551.852 303.577 Z" fill="#000000" fill-rule="nonzero" fill-opacity="1" /><path clip-path="url(#clip350)" d="M577.593 325.568 L577.593 327.651 L558.01 327.651 Q558.287 332.049 560.649 334.364 Q563.033 336.656 567.269 336.656 Q569.723 336.656 572.014 336.054 Q574.329 335.452 576.598 334.249 L576.598 338.276 Q574.306 339.248 571.898 339.758 Q569.491 340.267 567.014 340.267 Q560.811 340.267 557.176 336.656 Q553.565 333.045 553.565 326.887 Q553.565 320.522 556.991 316.795 Q560.44 313.045 566.274 313.045 Q571.505 313.045 574.537 316.425 Q577.593 319.781 577.593 325.568 M573.334 324.318 Q573.287 320.823 571.366 318.739 Q569.468 316.656 566.32 316.656 Q562.755 316.656 560.602 318.67 Q558.473 320.684 558.149 324.341 L573.334 324.318 Z" fill="#000000" fill-rule="nonzero" fill-opacity="1" /><path clip-path="url(#clip350)" d="M599.607 317.651 Q598.889 317.235 598.033 317.05 Q597.199 316.841 596.181 316.841 Q592.57 316.841 590.625 319.202 Q588.704 321.54 588.704 325.938 L588.704 339.596 L584.422 339.596 L584.422 313.67 L588.704 313.67 L588.704 317.698 Q590.047 315.337 592.199 314.202 Q594.352 313.045 597.431 313.045 Q597.871 313.045 598.403 313.114 Q598.935 313.161 599.584 313.276 L599.607 317.651 Z" fill="#000000" fill-rule="nonzero" fill-opacity="1" /><path clip-path="url(#clip350)" d="M625.208 325.568 L625.208 327.651 L605.625 327.651 Q605.903 332.049 608.264 334.364 Q610.648 336.656 614.884 336.656 Q617.338 336.656 619.63 336.054 Q621.945 335.452 624.213 334.249 L624.213 338.276 Q621.921 339.248 619.514 339.758 Q617.107 340.267 614.63 340.267 Q608.426 340.267 604.792 336.656 Q601.181 333.045 601.181 326.887 Q601.181 320.522 604.607 316.795 Q608.056 313.045 613.889 313.045 Q619.12 313.045 622.153 316.425 Q625.208 319.781 625.208 325.568 M620.949 324.318 Q620.903 320.823 618.982 318.739 Q617.083 316.656 613.935 316.656 Q610.37 316.656 608.218 318.67 Q606.088 320.684 605.764 324.341 L620.949 324.318 Z" fill="#000000" fill-rule="nonzero" fill-opacity="1" /><path clip-path="url(#clip350)" d="M653.75 323.948 L653.75 339.596 L649.491 339.596 L649.491 324.087 Q649.491 320.406 648.055 318.577 Q646.62 316.749 643.75 316.749 Q640.301 316.749 638.31 318.948 Q636.319 321.147 636.319 324.943 L636.319 339.596 L632.037 339.596 L632.037 313.67 L636.319 313.67 L636.319 317.698 Q637.847 315.36 639.907 314.202 Q641.991 313.045 644.699 313.045 Q649.167 313.045 651.458 315.823 Q653.75 318.577 653.75 323.948 Z" fill="#000000" fill-rule="nonzero" fill-opacity="1" /><path clip-path="url(#clip350)" d="M680.903 314.665 L680.903 318.647 Q679.097 317.651 677.268 317.165 Q675.463 316.656 673.611 316.656 Q669.467 316.656 667.176 319.295 Q664.884 321.911 664.884 326.656 Q664.884 331.401 667.176 334.04 Q669.467 336.656 673.611 336.656 Q675.463 336.656 677.268 336.17 Q679.097 335.661 680.903 334.665 L680.903 338.6 Q679.12 339.434 677.199 339.85 Q675.301 340.267 673.148 340.267 Q667.291 340.267 663.842 336.586 Q660.393 332.906 660.393 326.656 Q660.393 320.313 663.866 316.679 Q667.361 313.045 673.426 313.045 Q675.393 313.045 677.268 313.462 Q679.143 313.855 680.903 314.665 Z" fill="#000000" fill-rule="nonzero" fill-opacity="1" /><path clip-path="url(#clip350)" d="M710.486 325.568 L710.486 327.651 L690.902 327.651 Q691.18 332.049 693.541 334.364 Q695.926 336.656 700.162 336.656 Q702.615 336.656 704.907 336.054 Q707.222 335.452 709.49 334.249 L709.49 338.276 Q707.199 339.248 704.791 339.758 Q702.384 340.267 699.907 340.267 Q693.703 340.267 690.069 336.656 Q686.458 333.045 686.458 326.887 Q686.458 320.522 689.884 316.795 Q693.333 313.045 699.166 313.045 Q704.398 313.045 707.43 316.425 Q710.486 319.781 710.486 325.568 M706.226 324.318 Q706.18 320.823 704.259 318.739 Q702.361 316.656 699.213 316.656 Q695.648 316.656 693.495 318.67 Q691.365 320.684 691.041 324.341 L706.226 324.318 Z" fill="#000000" fill-rule="nonzero" fill-opacity="1" /></svg>
