<?xml version="1.0" encoding="utf-8"?>
<svg xmlns="http://www.w3.org/2000/svg" xmlns:xlink="http://www.w3.org/1999/xlink" width="600" height="400" viewBox="0 0 2400 1600">
<defs>
  <clipPath id="clip290">
    <rect x="0" y="0" width="2400" height="1600"/>
  </clipPath>
</defs>
<path clip-path="url(#clip290)" d="M0 1600 L2400 1600 L2400 0 L0 0  Z" fill="#ffffff" fill-rule="evenodd" fill-opacity="1"/>
<defs>
  <clipPath id="clip291">
    <rect x="205" y="123" width="2149" height="1161"/>
  </clipPath>
</defs>
<path clip-path="url(#clip290)" d="M249.542 1423.18 L2352.76 1423.18 L2352.76 123.472 L249.542 123.472  Z" fill="#ffffff" fill-rule="evenodd" fill-opacity="1"/>
<defs>
  <clipPath id="clip292">
    <rect x="249" y="123" width="2104" height="1301"/>
  </clipPath>
</defs>
<polyline clip-path="url(#clip292)" style="stroke:#000000; stroke-linecap:round; stroke-linejoin:round; stroke-width:2; stroke-opacity:0.1; fill:none" points="289.025,1423.18 289.025,123.472 "/>
<polyline clip-path="url(#clip292)" style="stroke:#000000; stroke-linecap:round; stroke-linejoin:round; stroke-width:2; stroke-opacity:0.1; fill:none" points="790.076,1423.18 790.076,123.472 "/>
<polyline clip-path="url(#clip292)" style="stroke:#000000; stroke-linecap:round; stroke-linejoin:round; stroke-width:2; stroke-opacity:0.1; fill:none" points="1291.13,1423.18 1291.13,123.472 "/>
<polyline clip-path="url(#clip292)" style="stroke:#000000; stroke-linecap:round; stroke-linejoin:round; stroke-width:2; stroke-opacity:0.1; fill:none" points="1792.18,1423.18 1792.18,123.472 "/>
<polyline clip-path="url(#clip292)" style="stroke:#000000; stroke-linecap:round; stroke-linejoin:round; stroke-width:2; stroke-opacity:0.1; fill:none" points="2293.23,1423.18 2293.23,123.472 "/>
<polyline clip-path="url(#clip292)" style="stroke:#000000; stroke-linecap:round; stroke-linejoin:round; stroke-width:2; stroke-opacity:0.1; fill:none" points="249.542,1384.11 2352.76,1384.11 "/>
<polyline clip-path="url(#clip292)" style="stroke:#000000; stroke-linecap:round; stroke-linejoin:round; stroke-width:2; stroke-opacity:0.1; fill:none" points="249.542,1198.67 2352.76,1198.67 "/>
<polyline clip-path="url(#clip292)" style="stroke:#000000; stroke-linecap:round; stroke-linejoin:round; stroke-width:2; stroke-opacity:0.1; fill:none" points="249.542,1013.24 2352.76,1013.24 "/>
<polyline clip-path="url(#clip292)" style="stroke:#000000; stroke-linecap:round; stroke-linejoin:round; stroke-width:2; stroke-opacity:0.1; fill:none" points="249.542,827.797 2352.76,827.797 "/>
<polyline clip-path="url(#clip292)" style="stroke:#000000; stroke-linecap:round; stroke-linejoin:round; stroke-width:2; stroke-opacity:0.1; fill:none" points="249.542,642.359 2352.76,642.359 "/>
<polyline clip-path="url(#clip292)" style="stroke:#000000; stroke-linecap:round; stroke-linejoin:round; stroke-width:2; stroke-opacity:0.1; fill:none" points="249.542,456.921 2352.76,456.921 "/>
<polyline clip-path="url(#clip292)" style="stroke:#000000; stroke-linecap:round; stroke-linejoin:round; stroke-width:2; stroke-opacity:0.1; fill:none" points="249.542,271.482 2352.76,271.482 "/>
<polyline clip-path="url(#clip290)" style="stroke:#000000; stroke-linecap:round; stroke-linejoin:round; stroke-width:4; stroke-opacity:1; fill:none" points="249.542,1423.18 2352.76,1423.18 "/>
<polyline clip-path="url(#clip290)" style="stroke:#000000; stroke-linecap:round; stroke-linejoin:round; stroke-width:4; stroke-opacity:1; fill:none" points="289.025,1423.18 289.025,1404.28 "/>
<polyline clip-path="url(#clip290)" style="stroke:#000000; stroke-linecap:round; stroke-linejoin:round; stroke-width:4; stroke-opacity:1; fill:none" points="790.076,1423.18 790.076,1404.28 "/>
<polyline clip-path="url(#clip290)" style="stroke:#000000; stroke-linecap:round; stroke-linejoin:round; stroke-width:4; stroke-opacity:1; fill:none" points="1291.13,1423.18 1291.13,1404.28 "/>
<polyline clip-path="url(#clip290)" style="stroke:#000000; stroke-linecap:round; stroke-linejoin:round; stroke-width:4; stroke-opacity:1; fill:none" points="1792.18,1423.18 1792.18,1404.28 "/>
<polyline clip-path="url(#clip290)" style="stroke:#000000; stroke-linecap:round; stroke-linejoin:round; stroke-width:4; stroke-opacity:1; fill:none" points="2293.23,1423.18 2293.23,1404.28 "/>
<path clip-path="url(#clip290)" d="M289.025 1454.1 Q285.414 1454.1 283.585 1457.66 Q281.78 1461.2 281.78 1468.33 Q281.78 1475.44 283.585 1479.01 Q285.414 1482.55 289.025 1482.55 Q292.659 1482.55 294.465 1479.01 Q296.293 1475.44 296.293 1468.33 Q296.293 1461.2 294.465 1457.66 Q292.659 1454.1 289.025 1454.1 M289.025 1450.39 Q294.835 1450.39 297.891 1455 Q300.969 1459.58 300.969 1468.33 Q300.969 1477.06 297.891 1481.67 Q294.835 1486.25 289.025 1486.25 Q283.215 1486.25 280.136 1481.67 Q277.081 1477.06 277.081 1468.33 Q277.081 1459.58 280.136 1455 Q283.215 1450.39 289.025 1450.39 Z" fill="#000000" fill-rule="nonzero" fill-opacity="1" /><path clip-path="url(#clip290)" d="M769.347 1481.64 L785.667 1481.64 L785.667 1485.58 L763.722 1485.58 L763.722 1481.64 Q766.384 1478.89 770.968 1474.26 Q775.574 1469.61 776.755 1468.27 Q779 1465.74 779.88 1464.01 Q780.782 1462.25 780.782 1460.56 Q780.782 1457.8 778.838 1456.07 Q776.917 1454.33 773.815 1454.33 Q771.616 1454.33 769.162 1455.09 Q766.732 1455.86 763.954 1457.41 L763.954 1452.69 Q766.778 1451.55 769.232 1450.97 Q771.685 1450.39 773.722 1450.39 Q779.093 1450.39 782.287 1453.08 Q785.482 1455.77 785.482 1460.26 Q785.482 1462.39 784.671 1464.31 Q783.884 1466.2 781.778 1468.8 Q781.199 1469.47 778.097 1472.69 Q774.995 1475.88 769.347 1481.64 Z" fill="#000000" fill-rule="nonzero" fill-opacity="1" /><path clip-path="url(#clip290)" d="M795.528 1451.02 L813.884 1451.02 L813.884 1454.96 L799.81 1454.96 L799.81 1463.43 Q800.829 1463.08 801.847 1462.92 Q802.866 1462.73 803.884 1462.73 Q809.671 1462.73 813.051 1465.9 Q816.43 1469.08 816.43 1474.49 Q816.43 1480.07 812.958 1483.17 Q809.486 1486.25 803.167 1486.25 Q800.991 1486.25 798.722 1485.88 Q796.477 1485.51 794.069 1484.77 L794.069 1480.07 Q796.153 1481.2 798.375 1481.76 Q800.597 1482.32 803.074 1482.32 Q807.079 1482.32 809.417 1480.21 Q811.755 1478.1 811.755 1474.49 Q811.755 1470.88 809.417 1468.77 Q807.079 1466.67 803.074 1466.67 Q801.199 1466.67 799.324 1467.08 Q797.472 1467.5 795.528 1468.38 L795.528 1451.02 Z" fill="#000000" fill-rule="nonzero" fill-opacity="1" /><path clip-path="url(#clip290)" d="M1265.83 1451.02 L1284.18 1451.02 L1284.18 1454.96 L1270.11 1454.96 L1270.11 1463.43 Q1271.13 1463.08 1272.15 1462.92 Q1273.17 1462.73 1274.18 1462.73 Q1279.97 1462.73 1283.35 1465.9 Q1286.73 1469.08 1286.73 1474.49 Q1286.73 1480.07 1283.26 1483.17 Q1279.79 1486.25 1273.47 1486.25 Q1271.29 1486.25 1269.02 1485.88 Q1266.78 1485.51 1264.37 1484.77 L1264.37 1480.07 Q1266.45 1481.2 1268.67 1481.76 Q1270.9 1482.32 1273.37 1482.32 Q1277.38 1482.32 1279.72 1480.21 Q1282.05 1478.1 1282.05 1474.49 Q1282.05 1470.88 1279.72 1468.77 Q1277.38 1466.67 1273.37 1466.67 Q1271.5 1466.67 1269.62 1467.08 Q1267.77 1467.5 1265.83 1468.38 L1265.83 1451.02 Z" fill="#000000" fill-rule="nonzero" fill-opacity="1" /><path clip-path="url(#clip290)" d="M1305.94 1454.1 Q1302.33 1454.1 1300.5 1457.66 Q1298.7 1461.2 1298.7 1468.33 Q1298.7 1475.44 1300.5 1479.01 Q1302.33 1482.55 1305.94 1482.55 Q1309.58 1482.55 1311.38 1479.01 Q1313.21 1475.44 1313.21 1468.33 Q1313.21 1461.2 1311.38 1457.66 Q1309.58 1454.1 1305.94 1454.1 M1305.94 1450.39 Q1311.75 1450.39 1314.81 1455 Q1317.89 1459.58 1317.89 1468.33 Q1317.89 1477.06 1314.81 1481.67 Q1311.75 1486.25 1305.94 1486.25 Q1300.13 1486.25 1297.05 1481.67 Q1294 1477.06 1294 1468.33 Q1294 1459.58 1297.05 1455 Q1300.13 1450.39 1305.94 1450.39 Z" fill="#000000" fill-rule="nonzero" fill-opacity="1" /><path clip-path="url(#clip290)" d="M1766.03 1451.02 L1788.26 1451.02 L1788.26 1453.01 L1775.71 1485.58 L1770.83 1485.58 L1782.63 1454.96 L1766.03 1454.96 L1766.03 1451.02 Z" fill="#000000" fill-rule="nonzero" fill-opacity="1" /><path clip-path="url(#clip290)" d="M1797.42 1451.02 L1815.78 1451.02 L1815.78 1454.96 L1801.7 1454.96 L1801.7 1463.43 Q1802.72 1463.08 1803.74 1462.92 Q1804.76 1462.73 1805.78 1462.73 Q1811.57 1462.73 1814.95 1465.9 Q1818.33 1469.08 1818.33 1474.49 Q1818.33 1480.07 1814.85 1483.17 Q1811.38 1486.25 1805.06 1486.25 Q1802.89 1486.25 1800.62 1485.88 Q1798.37 1485.51 1795.96 1484.77 L1795.96 1480.07 Q1798.05 1481.2 1800.27 1481.76 Q1802.49 1482.32 1804.97 1482.32 Q1808.97 1482.32 1811.31 1480.21 Q1813.65 1478.1 1813.65 1474.49 Q1813.65 1470.88 1811.31 1468.77 Q1808.97 1466.67 1804.97 1466.67 Q1803.09 1466.67 1801.22 1467.08 Q1799.37 1467.5 1797.42 1468.38 L1797.42 1451.02 Z" fill="#000000" fill-rule="nonzero" fill-opacity="1" /><path clip-path="url(#clip290)" d="M2252.84 1481.64 L2260.48 1481.64 L2260.48 1455.28 L2252.17 1456.95 L2252.17 1452.69 L2260.43 1451.02 L2265.11 1451.02 L2265.11 1481.64 L2272.74 1481.64 L2272.74 1485.58 L2252.84 1485.58 L2252.84 1481.64 Z" fill="#000000" fill-rule="nonzero" fill-opacity="1" /><path clip-path="url(#clip290)" d="M2292.19 1454.1 Q2288.58 1454.1 2286.75 1457.66 Q2284.94 1461.2 2284.94 1468.33 Q2284.94 1475.44 2286.75 1479.01 Q2288.58 1482.55 2292.19 1482.55 Q2295.82 1482.55 2297.63 1479.01 Q2299.46 1475.44 2299.46 1468.33 Q2299.46 1461.2 2297.63 1457.66 Q2295.82 1454.1 2292.19 1454.1 M2292.19 1450.39 Q2298 1450.39 2301.06 1455 Q2304.13 1459.58 2304.13 1468.33 Q2304.13 1477.06 2301.06 1481.67 Q2298 1486.25 2292.19 1486.25 Q2286.38 1486.25 2283.3 1481.67 Q2280.24 1477.06 2280.24 1468.33 Q2280.24 1459.58 2283.3 1455 Q2286.38 1450.39 2292.19 1450.39 Z" fill="#000000" fill-rule="nonzero" fill-opacity="1" /><path clip-path="url(#clip290)" d="M2322.35 1454.1 Q2318.74 1454.1 2316.91 1457.66 Q2315.11 1461.2 2315.11 1468.33 Q2315.11 1475.44 2316.91 1479.01 Q2318.74 1482.55 2322.35 1482.55 Q2325.99 1482.55 2327.79 1479.01 Q2329.62 1475.44 2329.62 1468.33 Q2329.62 1461.2 2327.79 1457.66 Q2325.99 1454.1 2322.35 1454.1 M2322.35 1450.39 Q2328.16 1450.39 2331.22 1455 Q2334.3 1459.58 2334.3 1468.33 Q2334.3 1477.06 2331.22 1481.67 Q2328.16 1486.25 2322.35 1486.25 Q2316.54 1486.25 2313.46 1481.67 Q2310.41 1477.06 2310.41 1468.33 Q2310.41 1459.58 2313.46 1455 Q2316.54 1450.39 2322.35 1450.39 Z" fill="#000000" fill-rule="nonzero" fill-opacity="1" /><path clip-path="url(#clip290)" d="M1234.61 1525.81 L1234.61 1562.76 L1242.38 1562.76 Q1252.21 1562.76 1256.76 1558.3 Q1261.35 1553.85 1261.35 1544.24 Q1261.35 1534.69 1256.76 1530.26 Q1252.21 1525.81 1242.38 1525.81 L1234.61 1525.81 M1228.18 1520.52 L1241.39 1520.52 Q1255.2 1520.52 1261.67 1526.28 Q1268.13 1532.01 1268.13 1544.24 Q1268.13 1556.52 1261.63 1562.28 Q1255.14 1568.04 1241.39 1568.04 L1228.18 1568.04 L1228.18 1520.52 Z" fill="#000000" fill-rule="nonzero" fill-opacity="1" /><path clip-path="url(#clip290)" d="M1294.32 1550.12 Q1287.22 1550.12 1284.49 1551.75 Q1281.75 1553.37 1281.75 1557.29 Q1281.75 1560.4 1283.79 1562.25 Q1285.86 1564.07 1289.39 1564.07 Q1294.26 1564.07 1297.19 1560.63 Q1300.15 1557.16 1300.15 1551.43 L1300.15 1550.12 L1294.32 1550.12 M1306 1547.71 L1306 1568.04 L1300.15 1568.04 L1300.15 1562.63 Q1298.14 1565.88 1295.15 1567.44 Q1292.16 1568.97 1287.83 1568.97 Q1282.35 1568.97 1279.11 1565.91 Q1275.89 1562.82 1275.89 1557.67 Q1275.89 1551.65 1279.9 1548.6 Q1283.95 1545.54 1291.93 1545.54 L1300.15 1545.54 L1300.15 1544.97 Q1300.15 1540.93 1297.47 1538.73 Q1294.83 1536.5 1290.02 1536.5 Q1286.97 1536.5 1284.07 1537.23 Q1281.18 1537.97 1278.5 1539.43 L1278.5 1534.02 Q1281.72 1532.78 1284.74 1532.17 Q1287.77 1531.54 1290.63 1531.54 Q1298.36 1531.54 1302.18 1535.55 Q1306 1539.56 1306 1547.71 Z" fill="#000000" fill-rule="nonzero" fill-opacity="1" /><path clip-path="url(#clip290)" d="M1323.86 1522.27 L1323.86 1532.4 L1335.92 1532.4 L1335.92 1536.95 L1323.86 1536.95 L1323.86 1556.3 Q1323.86 1560.66 1325.04 1561.9 Q1326.25 1563.14 1329.91 1563.14 L1335.92 1563.14 L1335.92 1568.04 L1329.91 1568.04 Q1323.13 1568.04 1320.55 1565.53 Q1317.97 1562.98 1317.97 1556.3 L1317.97 1536.95 L1313.67 1536.95 L1313.67 1532.4 L1317.97 1532.4 L1317.97 1522.27 L1323.86 1522.27 Z" fill="#000000" fill-rule="nonzero" fill-opacity="1" /><path clip-path="url(#clip290)" d="M1374.12 1548.76 L1374.12 1551.62 L1347.19 1551.62 Q1347.57 1557.67 1350.82 1560.85 Q1354.1 1564 1359.92 1564 Q1363.29 1564 1366.45 1563.17 Q1369.63 1562.35 1372.75 1560.69 L1372.75 1566.23 Q1369.6 1567.57 1366.29 1568.27 Q1362.98 1568.97 1359.57 1568.97 Q1351.04 1568.97 1346.04 1564 Q1341.08 1559.04 1341.08 1550.57 Q1341.08 1541.82 1345.79 1536.69 Q1350.53 1531.54 1358.55 1531.54 Q1365.74 1531.54 1369.91 1536.18 Q1374.12 1540.8 1374.12 1548.76 M1368.26 1547.04 Q1368.2 1542.23 1365.55 1539.37 Q1362.94 1536.5 1358.62 1536.5 Q1353.71 1536.5 1350.75 1539.27 Q1347.83 1542.04 1347.38 1547.07 L1368.26 1547.04 Z" fill="#000000" fill-rule="nonzero" fill-opacity="1" /><polyline clip-path="url(#clip290)" style="stroke:#000000; stroke-linecap:round; stroke-linejoin:round; stroke-width:4; stroke-opacity:1; fill:none" points="249.542,1423.18 249.542,123.472 "/>
<polyline clip-path="url(#clip290)" style="stroke:#000000; stroke-linecap:round; stroke-linejoin:round; stroke-width:4; stroke-opacity:1; fill:none" points="249.542,1384.11 268.44,1384.11 "/>
<polyline clip-path="url(#clip290)" style="stroke:#000000; stroke-linecap:round; stroke-linejoin:round; stroke-width:4; stroke-opacity:1; fill:none" points="249.542,1198.67 268.44,1198.67 "/>
<polyline clip-path="url(#clip290)" style="stroke:#000000; stroke-linecap:round; stroke-linejoin:round; stroke-width:4; stroke-opacity:1; fill:none" points="249.542,1013.24 268.44,1013.24 "/>
<polyline clip-path="url(#clip290)" style="stroke:#000000; stroke-linecap:round; stroke-linejoin:round; stroke-width:4; stroke-opacity:1; fill:none" points="249.542,827.797 268.44,827.797 "/>
<polyline clip-path="url(#clip290)" style="stroke:#000000; stroke-linecap:round; stroke-linejoin:round; stroke-width:4; stroke-opacity:1; fill:none" points="249.542,642.359 268.44,642.359 "/>
<polyline clip-path="url(#clip290)" style="stroke:#000000; stroke-linecap:round; stroke-linejoin:round; stroke-width:4; stroke-opacity:1; fill:none" points="249.542,456.921 268.44,456.921 "/>
<polyline clip-path="url(#clip290)" style="stroke:#000000; stroke-linecap:round; stroke-linejoin:round; stroke-width:4; stroke-opacity:1; fill:none" points="249.542,271.482 268.44,271.482 "/>
<path clip-path="url(#clip290)" d="M127.2 1369.91 Q123.589 1369.91 121.76 1373.48 Q119.955 1377.02 119.955 1384.15 Q119.955 1391.25 121.76 1394.82 Q123.589 1398.36 127.2 1398.36 Q130.834 1398.36 132.64 1394.82 Q134.468 1391.25 134.468 1384.15 Q134.468 1377.02 132.64 1373.48 Q130.834 1369.91 127.2 1369.91 M127.2 1366.21 Q133.01 1366.21 136.066 1370.81 Q139.144 1375.4 139.144 1384.15 Q139.144 1392.87 136.066 1397.48 Q133.01 1402.06 127.2 1402.06 Q121.39 1402.06 118.311 1397.48 Q115.256 1392.87 115.256 1384.15 Q115.256 1375.4 118.311 1370.81 Q121.39 1366.21 127.2 1366.21 Z" fill="#000000" fill-rule="nonzero" fill-opacity="1" /><path clip-path="url(#clip290)" d="M147.362 1395.51 L152.246 1395.51 L152.246 1401.39 L147.362 1401.39 L147.362 1395.51 Z" fill="#000000" fill-rule="nonzero" fill-opacity="1" /><path clip-path="url(#clip290)" d="M166.459 1397.46 L182.778 1397.46 L182.778 1401.39 L160.834 1401.39 L160.834 1397.46 Q163.496 1394.7 168.079 1390.07 Q172.686 1385.42 173.866 1384.08 Q176.112 1381.55 176.991 1379.82 Q177.894 1378.06 177.894 1376.37 Q177.894 1373.62 175.95 1371.88 Q174.028 1370.14 170.927 1370.14 Q168.727 1370.14 166.274 1370.91 Q163.843 1371.67 161.065 1373.22 L161.065 1368.5 Q163.89 1367.37 166.343 1366.79 Q168.797 1366.21 170.834 1366.21 Q176.204 1366.21 179.399 1368.89 Q182.593 1371.58 182.593 1376.07 Q182.593 1378.2 181.783 1380.12 Q180.996 1382.02 178.889 1384.61 Q178.311 1385.28 175.209 1388.5 Q172.107 1391.69 166.459 1397.46 Z" fill="#000000" fill-rule="nonzero" fill-opacity="1" /><path clip-path="url(#clip290)" d="M192.639 1366.83 L210.996 1366.83 L210.996 1370.77 L196.922 1370.77 L196.922 1379.24 Q197.94 1378.89 198.959 1378.73 Q199.977 1378.55 200.996 1378.55 Q206.783 1378.55 210.162 1381.72 Q213.542 1384.89 213.542 1390.3 Q213.542 1395.88 210.07 1398.99 Q206.598 1402.06 200.278 1402.06 Q198.102 1402.06 195.834 1401.69 Q193.588 1401.32 191.181 1400.58 L191.181 1395.88 Q193.264 1397.02 195.487 1397.57 Q197.709 1398.13 200.186 1398.13 Q204.19 1398.13 206.528 1396.02 Q208.866 1393.92 208.866 1390.3 Q208.866 1386.69 206.528 1384.59 Q204.19 1382.48 200.186 1382.48 Q198.311 1382.48 196.436 1382.9 Q194.584 1383.31 192.639 1384.19 L192.639 1366.83 Z" fill="#000000" fill-rule="nonzero" fill-opacity="1" /><path clip-path="url(#clip290)" d="M126.205 1184.47 Q122.593 1184.47 120.765 1188.04 Q118.959 1191.58 118.959 1198.71 Q118.959 1205.82 120.765 1209.38 Q122.593 1212.92 126.205 1212.92 Q129.839 1212.92 131.644 1209.38 Q133.473 1205.82 133.473 1198.71 Q133.473 1191.58 131.644 1188.04 Q129.839 1184.47 126.205 1184.47 M126.205 1180.77 Q132.015 1180.77 135.07 1185.38 Q138.149 1189.96 138.149 1198.71 Q138.149 1207.44 135.07 1212.04 Q132.015 1216.63 126.205 1216.63 Q120.394 1216.63 117.316 1212.04 Q114.26 1207.44 114.26 1198.71 Q114.26 1189.96 117.316 1185.38 Q120.394 1180.77 126.205 1180.77 Z" fill="#000000" fill-rule="nonzero" fill-opacity="1" /><path clip-path="url(#clip290)" d="M146.366 1210.07 L151.251 1210.07 L151.251 1215.95 L146.366 1215.95 L146.366 1210.07 Z" fill="#000000" fill-rule="nonzero" fill-opacity="1" /><path clip-path="url(#clip290)" d="M161.482 1181.39 L179.839 1181.39 L179.839 1185.33 L165.765 1185.33 L165.765 1193.8 Q166.783 1193.45 167.802 1193.29 Q168.82 1193.11 169.839 1193.11 Q175.626 1193.11 179.005 1196.28 Q182.385 1199.45 182.385 1204.87 Q182.385 1210.45 178.913 1213.55 Q175.44 1216.63 169.121 1216.63 Q166.945 1216.63 164.677 1216.26 Q162.431 1215.88 160.024 1215.14 L160.024 1210.45 Q162.107 1211.58 164.329 1212.13 Q166.552 1212.69 169.028 1212.69 Q173.033 1212.69 175.371 1210.58 Q177.709 1208.48 177.709 1204.87 Q177.709 1201.26 175.371 1199.15 Q173.033 1197.04 169.028 1197.04 Q167.153 1197.04 165.278 1197.46 Q163.427 1197.88 161.482 1198.76 L161.482 1181.39 Z" fill="#000000" fill-rule="nonzero" fill-opacity="1" /><path clip-path="url(#clip290)" d="M201.598 1184.47 Q197.987 1184.47 196.158 1188.04 Q194.352 1191.58 194.352 1198.71 Q194.352 1205.82 196.158 1209.38 Q197.987 1212.92 201.598 1212.92 Q205.232 1212.92 207.037 1209.38 Q208.866 1205.82 208.866 1198.71 Q208.866 1191.58 207.037 1188.04 Q205.232 1184.47 201.598 1184.47 M201.598 1180.77 Q207.408 1180.77 210.463 1185.38 Q213.542 1189.96 213.542 1198.71 Q213.542 1207.44 210.463 1212.04 Q207.408 1216.63 201.598 1216.63 Q195.787 1216.63 192.709 1212.04 Q189.653 1207.44 189.653 1198.71 Q189.653 1189.96 192.709 1185.38 Q195.787 1180.77 201.598 1180.77 Z" fill="#000000" fill-rule="nonzero" fill-opacity="1" /><path clip-path="url(#clip290)" d="M127.2 999.035 Q123.589 999.035 121.76 1002.6 Q119.955 1006.14 119.955 1013.27 Q119.955 1020.38 121.76 1023.94 Q123.589 1027.48 127.2 1027.48 Q130.834 1027.48 132.64 1023.94 Q134.468 1020.38 134.468 1013.27 Q134.468 1006.14 132.64 1002.6 Q130.834 999.035 127.2 999.035 M127.2 995.331 Q133.01 995.331 136.066 999.937 Q139.144 1004.52 139.144 1013.27 Q139.144 1022 136.066 1026.6 Q133.01 1031.19 127.2 1031.19 Q121.39 1031.19 118.311 1026.6 Q115.256 1022 115.256 1013.27 Q115.256 1004.52 118.311 999.937 Q121.39 995.331 127.2 995.331 Z" fill="#000000" fill-rule="nonzero" fill-opacity="1" /><path clip-path="url(#clip290)" d="M147.362 1024.64 L152.246 1024.64 L152.246 1030.52 L147.362 1030.52 L147.362 1024.64 Z" fill="#000000" fill-rule="nonzero" fill-opacity="1" /><path clip-path="url(#clip290)" d="M161.251 995.956 L183.473 995.956 L183.473 997.947 L170.927 1030.52 L166.042 1030.52 L177.848 999.891 L161.251 999.891 L161.251 995.956 Z" fill="#000000" fill-rule="nonzero" fill-opacity="1" /><path clip-path="url(#clip290)" d="M192.639 995.956 L210.996 995.956 L210.996 999.891 L196.922 999.891 L196.922 1008.36 Q197.94 1008.02 198.959 1007.85 Q199.977 1007.67 200.996 1007.67 Q206.783 1007.67 210.162 1010.84 Q213.542 1014.01 213.542 1019.43 Q213.542 1025.01 210.07 1028.11 Q206.598 1031.19 200.278 1031.19 Q198.102 1031.19 195.834 1030.82 Q193.588 1030.45 191.181 1029.71 L191.181 1025.01 Q193.264 1026.14 195.487 1026.7 Q197.709 1027.25 200.186 1027.25 Q204.19 1027.25 206.528 1025.15 Q208.866 1023.04 208.866 1019.43 Q208.866 1015.82 206.528 1013.71 Q204.19 1011.6 200.186 1011.6 Q198.311 1011.6 196.436 1012.02 Q194.584 1012.44 192.639 1013.32 L192.639 995.956 Z" fill="#000000" fill-rule="nonzero" fill-opacity="1" /><path clip-path="url(#clip290)" d="M117.015 841.142 L124.654 841.142 L124.654 814.777 L116.343 816.443 L116.343 812.184 L124.607 810.517 L129.283 810.517 L129.283 841.142 L136.922 841.142 L136.922 845.077 L117.015 845.077 L117.015 841.142 Z" fill="#000000" fill-rule="nonzero" fill-opacity="1" /><path clip-path="url(#clip290)" d="M146.366 839.198 L151.251 839.198 L151.251 845.077 L146.366 845.077 L146.366 839.198 Z" fill="#000000" fill-rule="nonzero" fill-opacity="1" /><path clip-path="url(#clip290)" d="M171.436 813.596 Q167.825 813.596 165.996 817.161 Q164.19 820.703 164.19 827.832 Q164.19 834.939 165.996 838.503 Q167.825 842.045 171.436 842.045 Q175.07 842.045 176.876 838.503 Q178.704 834.939 178.704 827.832 Q178.704 820.703 176.876 817.161 Q175.07 813.596 171.436 813.596 M171.436 809.892 Q177.246 809.892 180.301 814.499 Q183.38 819.082 183.38 827.832 Q183.38 836.559 180.301 841.165 Q177.246 845.749 171.436 845.749 Q165.626 845.749 162.547 841.165 Q159.491 836.559 159.491 827.832 Q159.491 819.082 162.547 814.499 Q165.626 809.892 171.436 809.892 Z" fill="#000000" fill-rule="nonzero" fill-opacity="1" /><path clip-path="url(#clip290)" d="M201.598 813.596 Q197.987 813.596 196.158 817.161 Q194.352 820.703 194.352 827.832 Q194.352 834.939 196.158 838.503 Q197.987 842.045 201.598 842.045 Q205.232 842.045 207.037 838.503 Q208.866 834.939 208.866 827.832 Q208.866 820.703 207.037 817.161 Q205.232 813.596 201.598 813.596 M201.598 809.892 Q207.408 809.892 210.463 814.499 Q213.542 819.082 213.542 827.832 Q213.542 836.559 210.463 841.165 Q207.408 845.749 201.598 845.749 Q195.787 845.749 192.709 841.165 Q189.653 836.559 189.653 827.832 Q189.653 819.082 192.709 814.499 Q195.787 809.892 201.598 809.892 Z" fill="#000000" fill-rule="nonzero" fill-opacity="1" /><path clip-path="url(#clip290)" d="M118.01 655.704 L125.649 655.704 L125.649 629.338 L117.339 631.005 L117.339 626.746 L125.603 625.079 L130.279 625.079 L130.279 655.704 L137.917 655.704 L137.917 659.639 L118.01 659.639 L118.01 655.704 Z" fill="#000000" fill-rule="nonzero" fill-opacity="1" /><path clip-path="url(#clip290)" d="M147.362 653.759 L152.246 653.759 L152.246 659.639 L147.362 659.639 L147.362 653.759 Z" fill="#000000" fill-rule="nonzero" fill-opacity="1" /><path clip-path="url(#clip290)" d="M166.459 655.704 L182.778 655.704 L182.778 659.639 L160.834 659.639 L160.834 655.704 Q163.496 652.949 168.079 648.32 Q172.686 643.667 173.866 642.324 Q176.112 639.801 176.991 638.065 Q177.894 636.306 177.894 634.616 Q177.894 631.861 175.95 630.125 Q174.028 628.389 170.927 628.389 Q168.727 628.389 166.274 629.153 Q163.843 629.917 161.065 631.468 L161.065 626.746 Q163.89 625.611 166.343 625.033 Q168.797 624.454 170.834 624.454 Q176.204 624.454 179.399 627.139 Q182.593 629.824 182.593 634.315 Q182.593 636.445 181.783 638.366 Q180.996 640.264 178.889 642.857 Q178.311 643.528 175.209 646.746 Q172.107 649.94 166.459 655.704 Z" fill="#000000" fill-rule="nonzero" fill-opacity="1" /><path clip-path="url(#clip290)" d="M192.639 625.079 L210.996 625.079 L210.996 629.014 L196.922 629.014 L196.922 637.486 Q197.94 637.139 198.959 636.977 Q199.977 636.792 200.996 636.792 Q206.783 636.792 210.162 639.963 Q213.542 643.134 213.542 648.551 Q213.542 654.13 210.07 657.232 Q206.598 660.31 200.278 660.31 Q198.102 660.31 195.834 659.94 Q193.588 659.57 191.181 658.829 L191.181 654.13 Q193.264 655.264 195.487 655.82 Q197.709 656.375 200.186 656.375 Q204.19 656.375 206.528 654.269 Q208.866 652.162 208.866 648.551 Q208.866 644.94 206.528 642.834 Q204.19 640.727 200.186 640.727 Q198.311 640.727 196.436 641.144 Q194.584 641.56 192.639 642.44 L192.639 625.079 Z" fill="#000000" fill-rule="nonzero" fill-opacity="1" /><path clip-path="url(#clip290)" d="M117.015 470.265 L124.654 470.265 L124.654 443.9 L116.343 445.566 L116.343 441.307 L124.607 439.641 L129.283 439.641 L129.283 470.265 L136.922 470.265 L136.922 474.201 L117.015 474.201 L117.015 470.265 Z" fill="#000000" fill-rule="nonzero" fill-opacity="1" /><path clip-path="url(#clip290)" d="M146.366 468.321 L151.251 468.321 L151.251 474.201 L146.366 474.201 L146.366 468.321 Z" fill="#000000" fill-rule="nonzero" fill-opacity="1" /><path clip-path="url(#clip290)" d="M161.482 439.641 L179.839 439.641 L179.839 443.576 L165.765 443.576 L165.765 452.048 Q166.783 451.701 167.802 451.539 Q168.82 451.353 169.839 451.353 Q175.626 451.353 179.005 454.525 Q182.385 457.696 182.385 463.113 Q182.385 468.691 178.913 471.793 Q175.44 474.872 169.121 474.872 Q166.945 474.872 164.677 474.501 Q162.431 474.131 160.024 473.39 L160.024 468.691 Q162.107 469.826 164.329 470.381 Q166.552 470.937 169.028 470.937 Q173.033 470.937 175.371 468.83 Q177.709 466.724 177.709 463.113 Q177.709 459.502 175.371 457.395 Q173.033 455.289 169.028 455.289 Q167.153 455.289 165.278 455.705 Q163.427 456.122 161.482 457.002 L161.482 439.641 Z" fill="#000000" fill-rule="nonzero" fill-opacity="1" /><path clip-path="url(#clip290)" d="M201.598 442.719 Q197.987 442.719 196.158 446.284 Q194.352 449.826 194.352 456.955 Q194.352 464.062 196.158 467.627 Q197.987 471.168 201.598 471.168 Q205.232 471.168 207.037 467.627 Q208.866 464.062 208.866 456.955 Q208.866 449.826 207.037 446.284 Q205.232 442.719 201.598 442.719 M201.598 439.016 Q207.408 439.016 210.463 443.622 Q213.542 448.205 213.542 456.955 Q213.542 465.682 210.463 470.289 Q207.408 474.872 201.598 474.872 Q195.787 474.872 192.709 470.289 Q189.653 465.682 189.653 456.955 Q189.653 448.205 192.709 443.622 Q195.787 439.016 201.598 439.016 Z" fill="#000000" fill-rule="nonzero" fill-opacity="1" /><path clip-path="url(#clip290)" d="M118.01 284.827 L125.649 284.827 L125.649 258.461 L117.339 260.128 L117.339 255.869 L125.603 254.202 L130.279 254.202 L130.279 284.827 L137.917 284.827 L137.917 288.762 L118.01 288.762 L118.01 284.827 Z" fill="#000000" fill-rule="nonzero" fill-opacity="1" /><path clip-path="url(#clip290)" d="M147.362 282.883 L152.246 282.883 L152.246 288.762 L147.362 288.762 L147.362 282.883 Z" fill="#000000" fill-rule="nonzero" fill-opacity="1" /><path clip-path="url(#clip290)" d="M161.251 254.202 L183.473 254.202 L183.473 256.193 L170.927 288.762 L166.042 288.762 L177.848 258.137 L161.251 258.137 L161.251 254.202 Z" fill="#000000" fill-rule="nonzero" fill-opacity="1" /><path clip-path="url(#clip290)" d="M192.639 254.202 L210.996 254.202 L210.996 258.137 L196.922 258.137 L196.922 266.609 Q197.94 266.262 198.959 266.1 Q199.977 265.915 200.996 265.915 Q206.783 265.915 210.162 269.086 Q213.542 272.258 213.542 277.674 Q213.542 283.253 210.07 286.355 Q206.598 289.433 200.278 289.433 Q198.102 289.433 195.834 289.063 Q193.588 288.693 191.181 287.952 L191.181 283.253 Q193.264 284.387 195.487 284.943 Q197.709 285.498 200.186 285.498 Q204.19 285.498 206.528 283.392 Q208.866 281.285 208.866 277.674 Q208.866 274.063 206.528 271.957 Q204.19 269.85 200.186 269.85 Q198.311 269.85 196.436 270.267 Q194.584 270.684 192.639 271.563 L192.639 254.202 Z" fill="#000000" fill-rule="nonzero" fill-opacity="1" /><path clip-path="url(#clip290)" d="M21.7677 841.471 L39.6235 841.471 L39.6235 833.386 Q39.6235 828.899 37.3 826.448 Q34.9765 823.997 30.6797 823.997 Q26.4147 823.997 24.0912 826.448 Q21.7677 828.899 21.7677 833.386 L21.7677 841.471 M16.4842 847.9 L16.4842 833.386 Q16.4842 825.397 20.1126 821.323 Q23.7092 817.218 30.6797 817.218 Q37.7138 817.218 41.3104 821.323 Q44.907 825.397 44.907 833.386 L44.907 841.471 L64.0042 841.471 L64.0042 847.9 L16.4842 847.9 Z" fill="#000000" fill-rule="nonzero" fill-opacity="1" /><path clip-path="url(#clip290)" d="M33.8307 789.336 Q33.2578 790.322 33.0032 791.5 Q32.7167 792.646 32.7167 794.046 Q32.7167 799.012 35.9632 801.685 Q39.1779 804.327 45.2253 804.327 L64.0042 804.327 L64.0042 810.215 L28.3562 810.215 L28.3562 804.327 L33.8944 804.327 Q30.6479 802.481 29.0883 799.521 Q27.4968 796.561 27.4968 792.328 Q27.4968 791.723 27.5923 790.991 Q27.656 790.259 27.8151 789.368 L33.8307 789.336 Z" fill="#000000" fill-rule="nonzero" fill-opacity="1" /><path clip-path="url(#clip290)" d="M28.3562 783.193 L28.3562 777.336 L64.0042 777.336 L64.0042 783.193 L28.3562 783.193 M14.479 783.193 L14.479 777.336 L21.895 777.336 L21.895 783.193 L14.479 783.193 Z" fill="#000000" fill-rule="nonzero" fill-opacity="1" /><path clip-path="url(#clip290)" d="M29.7248 739.429 L35.1993 739.429 Q33.8307 741.911 33.1623 744.426 Q32.4621 746.908 32.4621 749.455 Q32.4621 755.152 36.0905 758.303 Q39.6872 761.454 46.212 761.454 Q52.7369 761.454 56.3653 758.303 Q59.9619 755.152 59.9619 749.455 Q59.9619 746.908 59.2935 744.426 Q58.5933 741.911 57.2247 739.429 L62.6355 739.429 Q63.7814 741.879 64.3543 744.521 Q64.9272 747.131 64.9272 750.091 Q64.9272 758.144 59.8664 762.886 Q54.8057 767.629 46.212 767.629 Q37.491 767.629 32.4939 762.854 Q27.4968 758.048 27.4968 749.709 Q27.4968 747.004 28.0697 744.426 Q28.6108 741.848 29.7248 739.429 Z" fill="#000000" fill-rule="nonzero" fill-opacity="1" /><path clip-path="url(#clip290)" d="M44.7161 698.752 L47.5806 698.752 L47.5806 725.679 Q53.6281 725.297 56.8109 722.05 Q59.9619 718.772 59.9619 712.947 Q59.9619 709.573 59.1344 706.422 Q58.3069 703.24 56.6518 700.12 L62.1899 700.12 Q63.5267 703.271 64.227 706.582 Q64.9272 709.892 64.9272 713.297 Q64.9272 721.827 59.9619 726.824 Q54.9967 731.79 46.5303 731.79 Q37.7774 731.79 32.6531 727.079 Q27.4968 722.337 27.4968 714.316 Q27.4968 707.123 32.1438 702.953 Q36.7589 698.752 44.7161 698.752 M42.9973 704.608 Q38.1912 704.672 35.3266 707.314 Q32.4621 709.924 32.4621 714.252 Q32.4621 719.154 35.2312 722.114 Q38.0002 725.042 43.0292 725.488 L42.9973 704.608 Z" fill="#000000" fill-rule="nonzero" fill-opacity="1" /><path clip-path="url(#clip290)" d="M814.372 18.8205 L814.372 41.5461 L824.661 41.5461 Q830.373 41.5461 833.492 38.5889 Q836.612 35.6318 836.612 30.163 Q836.612 24.7348 833.492 21.7777 Q830.373 18.8205 824.661 18.8205 L814.372 18.8205 M806.189 12.096 L824.661 12.096 Q834.829 12.096 840.014 16.714 Q845.24 21.2916 845.24 30.163 Q845.24 39.1155 840.014 43.6931 Q834.829 48.2706 824.661 48.2706 L814.372 48.2706 L814.372 72.576 L806.189 72.576 L806.189 12.096 Z" fill="#000000" fill-rule="nonzero" fill-opacity="1" /><path clip-path="url(#clip290)" d="M880.726 34.1734 Q879.47 33.4443 877.971 33.1202 Q876.513 32.7556 874.731 32.7556 Q868.411 32.7556 865.008 36.8875 Q861.646 40.9789 861.646 48.6757 L861.646 72.576 L854.152 72.576 L854.152 27.2059 L861.646 27.2059 L861.646 34.2544 Q863.996 30.1225 867.763 28.1376 Q871.53 26.1121 876.918 26.1121 Q877.688 26.1121 878.619 26.2337 Q879.551 26.3147 880.685 26.5172 L880.726 34.1734 Z" fill="#000000" fill-rule="nonzero" fill-opacity="1" /><path clip-path="url(#clip290)" d="M888.544 27.2059 L895.998 27.2059 L895.998 72.576 L888.544 72.576 L888.544 27.2059 M888.544 9.54393 L895.998 9.54393 L895.998 18.9825 L888.544 18.9825 L888.544 9.54393 Z" fill="#000000" fill-rule="nonzero" fill-opacity="1" /><path clip-path="url(#clip290)" d="M944.244 28.9478 L944.244 35.9153 Q941.084 34.1734 937.884 33.3227 Q934.724 32.4315 931.484 32.4315 Q924.233 32.4315 920.222 37.0496 Q916.212 41.6271 916.212 49.9314 Q916.212 58.2358 920.222 62.8538 Q924.233 67.4314 931.484 67.4314 Q934.724 67.4314 937.884 66.5807 Q941.084 65.6895 944.244 63.9476 L944.244 70.8341 Q941.125 72.2924 937.763 73.0216 Q934.441 73.7508 930.674 73.7508 Q920.425 73.7508 914.389 67.3098 Q908.353 60.8689 908.353 49.9314 Q908.353 38.832 914.429 32.472 Q920.546 26.1121 931.16 26.1121 Q934.603 26.1121 937.884 26.8413 Q941.165 27.5299 944.244 28.9478 Z" fill="#000000" fill-rule="nonzero" fill-opacity="1" /><path clip-path="url(#clip290)" d="M996.015 48.0275 L996.015 51.6733 L961.744 51.6733 Q962.23 59.3701 966.362 63.421 Q970.534 67.4314 977.948 67.4314 Q982.242 67.4314 986.252 66.3781 Q990.303 65.3249 994.273 63.2184 L994.273 70.267 Q990.262 71.9684 986.049 72.8596 Q981.836 73.7508 977.502 73.7508 Q966.646 73.7508 960.286 67.4314 Q953.966 61.1119 953.966 50.3365 Q953.966 39.1965 959.962 32.6746 Q965.997 26.1121 976.206 26.1121 Q985.361 26.1121 990.667 32.0264 Q996.015 37.9003 996.015 48.0275 M988.561 45.84 Q988.48 39.7232 985.118 36.0774 Q981.796 32.4315 976.287 32.4315 Q970.048 32.4315 966.281 35.9558 Q962.554 39.4801 961.987 45.8805 L988.561 45.84 Z" fill="#000000" fill-rule="nonzero" fill-opacity="1" /><path clip-path="url(#clip290)" d="M1067.27 28.9478 L1067.27 35.9153 Q1064.11 34.1734 1060.91 33.3227 Q1057.75 32.4315 1054.51 32.4315 Q1047.26 32.4315 1043.25 37.0496 Q1039.24 41.6271 1039.24 49.9314 Q1039.24 58.2358 1043.25 62.8538 Q1047.26 67.4314 1054.51 67.4314 Q1057.75 67.4314 1060.91 66.5807 Q1064.11 65.6895 1067.27 63.9476 L1067.27 70.8341 Q1064.15 72.2924 1060.79 73.0216 Q1057.47 73.7508 1053.7 73.7508 Q1043.45 73.7508 1037.41 67.3098 Q1031.38 60.8689 1031.38 49.9314 Q1031.38 38.832 1037.46 32.472 Q1043.57 26.1121 1054.19 26.1121 Q1057.63 26.1121 1060.91 26.8413 Q1064.19 27.5299 1067.27 28.9478 Z" fill="#000000" fill-rule="nonzero" fill-opacity="1" /><path clip-path="url(#clip290)" d="M1117.95 45.1919 L1117.95 72.576 L1110.49 72.576 L1110.49 45.4349 Q1110.49 38.994 1107.98 35.7938 Q1105.47 32.5936 1100.45 32.5936 Q1094.41 32.5936 1090.93 36.4419 Q1087.44 40.2903 1087.44 46.9338 L1087.44 72.576 L1079.95 72.576 L1079.95 9.54393 L1087.44 9.54393 L1087.44 34.2544 Q1090.12 30.163 1093.72 28.1376 Q1097.37 26.1121 1102.11 26.1121 Q1109.93 26.1121 1113.94 30.9732 Q1117.95 35.7938 1117.95 45.1919 Z" fill="#000000" fill-rule="nonzero" fill-opacity="1" /><path clip-path="url(#clip290)" d="M1153.43 49.7694 Q1144.4 49.7694 1140.92 51.8354 Q1137.43 53.9013 1137.43 58.8839 Q1137.43 62.8538 1140.02 65.2034 Q1142.66 67.5124 1147.15 67.5124 Q1153.35 67.5124 1157.08 63.1374 Q1160.85 58.7219 1160.85 51.4303 L1160.85 49.7694 L1153.43 49.7694 M1168.3 46.6907 L1168.3 72.576 L1160.85 72.576 L1160.85 65.6895 Q1158.29 69.8214 1154.49 71.8063 Q1150.68 73.7508 1145.17 73.7508 Q1138.2 73.7508 1134.07 69.8619 Q1129.98 65.9325 1129.98 59.3701 Q1129.98 51.7138 1135.08 47.825 Q1140.23 43.9361 1150.39 43.9361 L1160.85 43.9361 L1160.85 43.2069 Q1160.85 38.0623 1157.44 35.2672 Q1154.08 32.4315 1147.96 32.4315 Q1144.08 32.4315 1140.39 33.3632 Q1136.7 34.295 1133.3 36.1584 L1133.3 29.2718 Q1137.39 27.692 1141.24 26.9223 Q1145.09 26.1121 1148.73 26.1121 Q1158.58 26.1121 1163.44 31.2163 Q1168.3 36.3204 1168.3 46.6907 Z" fill="#000000" fill-rule="nonzero" fill-opacity="1" /><path clip-path="url(#clip290)" d="M1221.37 45.1919 L1221.37 72.576 L1213.91 72.576 L1213.91 45.4349 Q1213.91 38.994 1211.4 35.7938 Q1208.89 32.5936 1203.87 32.5936 Q1197.83 32.5936 1194.35 36.4419 Q1190.86 40.2903 1190.86 46.9338 L1190.86 72.576 L1183.37 72.576 L1183.37 27.2059 L1190.86 27.2059 L1190.86 34.2544 Q1193.54 30.163 1197.14 28.1376 Q1200.79 26.1121 1205.53 26.1121 Q1213.35 26.1121 1217.36 30.9732 Q1221.37 35.7938 1221.37 45.1919 Z" fill="#000000" fill-rule="nonzero" fill-opacity="1" /><path clip-path="url(#clip290)" d="M1266.09 49.3643 Q1266.09 41.2625 1262.73 36.8065 Q1259.4 32.3505 1253.37 32.3505 Q1247.37 32.3505 1244.01 36.8065 Q1240.69 41.2625 1240.69 49.3643 Q1240.69 57.4256 1244.01 61.8816 Q1247.37 66.3376 1253.37 66.3376 Q1259.4 66.3376 1262.73 61.8816 Q1266.09 57.4256 1266.09 49.3643 M1273.54 66.9452 Q1273.54 78.5308 1268.4 84.1616 Q1263.25 89.8329 1252.64 89.8329 Q1248.71 89.8329 1245.23 89.2252 Q1241.74 88.6581 1238.46 87.4428 L1238.46 80.1917 Q1241.74 81.9741 1244.94 82.8248 Q1248.14 83.6755 1251.46 83.6755 Q1258.8 83.6755 1262.44 79.8271 Q1266.09 76.0193 1266.09 68.282 L1266.09 64.5957 Q1263.78 68.6061 1260.17 70.5911 Q1256.57 72.576 1251.55 72.576 Q1243.2 72.576 1238.1 66.2161 Q1232.99 59.8562 1232.99 49.3643 Q1232.99 38.832 1238.1 32.472 Q1243.2 26.1121 1251.55 26.1121 Q1256.57 26.1121 1260.17 28.0971 Q1263.78 30.082 1266.09 34.0924 L1266.09 27.2059 L1273.54 27.2059 L1273.54 66.9452 Z" fill="#000000" fill-rule="nonzero" fill-opacity="1" /><path clip-path="url(#clip290)" d="M1327.7 48.0275 L1327.7 51.6733 L1293.43 51.6733 Q1293.92 59.3701 1298.05 63.421 Q1302.22 67.4314 1309.64 67.4314 Q1313.93 67.4314 1317.94 66.3781 Q1321.99 65.3249 1325.96 63.2184 L1325.96 70.267 Q1321.95 71.9684 1317.74 72.8596 Q1313.52 73.7508 1309.19 73.7508 Q1298.33 73.7508 1291.97 67.4314 Q1285.65 61.1119 1285.65 50.3365 Q1285.65 39.1965 1291.65 32.6746 Q1297.69 26.1121 1307.89 26.1121 Q1317.05 26.1121 1322.36 32.0264 Q1327.7 37.9003 1327.7 48.0275 M1320.25 45.84 Q1320.17 39.7232 1316.81 36.0774 Q1313.48 32.4315 1307.97 32.4315 Q1301.74 32.4315 1297.97 35.9558 Q1294.24 39.4801 1293.68 45.8805 L1320.25 45.84 Z" fill="#000000" fill-rule="nonzero" fill-opacity="1" /><path clip-path="url(#clip290)" d="M1368.86 28.5427 L1368.86 35.5912 Q1365.7 33.9709 1362.3 33.1607 Q1358.89 32.3505 1355.25 32.3505 Q1349.7 32.3505 1346.9 34.0519 Q1344.15 35.7533 1344.15 39.156 Q1344.15 41.7486 1346.13 43.2475 Q1348.12 44.7058 1354.11 46.0426 L1356.67 46.6097 Q1364.61 48.3111 1367.93 51.4303 Q1371.29 54.509 1371.29 60.0587 Q1371.29 66.3781 1366.27 70.0644 Q1361.28 73.7508 1352.53 73.7508 Q1348.89 73.7508 1344.92 73.0216 Q1340.99 72.3329 1336.61 70.9151 L1336.61 63.2184 Q1340.75 65.3654 1344.76 66.4591 Q1348.77 67.5124 1352.7 67.5124 Q1357.96 67.5124 1360.8 65.73 Q1363.63 63.9071 1363.63 60.6258 Q1363.63 57.5877 1361.57 55.9673 Q1359.54 54.3469 1352.62 52.8481 L1350.02 52.2405 Q1343.1 50.7821 1340.02 47.7845 Q1336.94 44.7463 1336.94 39.4801 Q1336.94 33.0797 1341.48 29.5959 Q1346.01 26.1121 1354.36 26.1121 Q1358.49 26.1121 1362.14 26.7198 Q1365.78 27.3274 1368.86 28.5427 Z" fill="#000000" fill-rule="nonzero" fill-opacity="1" /><path clip-path="url(#clip290)" d="M1427.11 32.4315 Q1421.12 32.4315 1417.63 37.1306 Q1414.15 41.7891 1414.15 49.9314 Q1414.15 58.0738 1417.59 62.7728 Q1421.08 67.4314 1427.11 67.4314 Q1433.07 67.4314 1436.55 62.7323 Q1440.03 58.0333 1440.03 49.9314 Q1440.03 41.8701 1436.55 37.1711 Q1433.07 32.4315 1427.11 32.4315 M1427.11 26.1121 Q1436.83 26.1121 1442.38 32.4315 Q1447.93 38.7509 1447.93 49.9314 Q1447.93 61.0714 1442.38 67.4314 Q1436.83 73.7508 1427.11 73.7508 Q1417.35 73.7508 1411.8 67.4314 Q1406.29 61.0714 1406.29 49.9314 Q1406.29 38.7509 1411.8 32.4315 Q1417.35 26.1121 1427.11 26.1121 Z" fill="#000000" fill-rule="nonzero" fill-opacity="1" /><path clip-path="url(#clip290)" d="M1454.94 27.2059 L1462.84 27.2059 L1477.02 65.2844 L1491.2 27.2059 L1499.1 27.2059 L1482.08 72.576 L1471.96 72.576 L1454.94 27.2059 Z" fill="#000000" fill-rule="nonzero" fill-opacity="1" /><path clip-path="url(#clip290)" d="M1548.19 48.0275 L1548.19 51.6733 L1513.92 51.6733 Q1514.41 59.3701 1518.54 63.421 Q1522.71 67.4314 1530.13 67.4314 Q1534.42 67.4314 1538.43 66.3781 Q1542.48 65.3249 1546.45 63.2184 L1546.45 70.267 Q1542.44 71.9684 1538.23 72.8596 Q1534.02 73.7508 1529.68 73.7508 Q1518.82 73.7508 1512.46 67.4314 Q1506.14 61.1119 1506.14 50.3365 Q1506.14 39.1965 1512.14 32.6746 Q1518.18 26.1121 1528.38 26.1121 Q1537.54 26.1121 1542.85 32.0264 Q1548.19 37.9003 1548.19 48.0275 M1540.74 45.84 Q1540.66 39.7232 1537.3 36.0774 Q1533.97 32.4315 1528.47 32.4315 Q1522.23 32.4315 1518.46 35.9558 Q1514.73 39.4801 1514.17 45.8805 L1540.74 45.84 Z" fill="#000000" fill-rule="nonzero" fill-opacity="1" /><path clip-path="url(#clip290)" d="M1586.72 34.1734 Q1585.46 33.4443 1583.96 33.1202 Q1582.5 32.7556 1580.72 32.7556 Q1574.4 32.7556 1571 36.8875 Q1567.64 40.9789 1567.64 48.6757 L1567.64 72.576 L1560.14 72.576 L1560.14 27.2059 L1567.64 27.2059 L1567.64 34.2544 Q1569.99 30.1225 1573.75 28.1376 Q1577.52 26.1121 1582.91 26.1121 Q1583.68 26.1121 1584.61 26.2337 Q1585.54 26.3147 1586.68 26.5172 L1586.72 34.1734 Z" fill="#000000" fill-rule="nonzero" fill-opacity="1" /><path clip-path="url(#clip290)" d="M1628.28 14.324 L1628.28 27.2059 L1643.63 27.2059 L1643.63 32.9987 L1628.28 32.9987 L1628.28 57.6282 Q1628.28 63.1779 1629.78 64.7578 Q1631.32 66.3376 1635.98 66.3376 L1643.63 66.3376 L1643.63 72.576 L1635.98 72.576 Q1627.35 72.576 1624.07 69.3758 Q1620.79 66.1351 1620.79 57.6282 L1620.79 32.9987 L1615.32 32.9987 L1615.32 27.2059 L1620.79 27.2059 L1620.79 14.324 L1628.28 14.324 Z" fill="#000000" fill-rule="nonzero" fill-opacity="1" /><path clip-path="url(#clip290)" d="M1653.44 27.2059 L1660.89 27.2059 L1660.89 72.576 L1653.44 72.576 L1653.44 27.2059 M1653.44 9.54393 L1660.89 9.54393 L1660.89 18.9825 L1653.44 18.9825 L1653.44 9.54393 Z" fill="#000000" fill-rule="nonzero" fill-opacity="1" /><path clip-path="url(#clip290)" d="M1711.81 35.9153 Q1714.6 30.8922 1718.49 28.5022 Q1722.38 26.1121 1727.65 26.1121 Q1734.74 26.1121 1738.59 31.0947 Q1742.43 36.0368 1742.43 45.1919 L1742.43 72.576 L1734.94 72.576 L1734.94 45.4349 Q1734.94 38.913 1732.63 35.7533 Q1730.32 32.5936 1725.58 32.5936 Q1719.79 32.5936 1716.43 36.4419 Q1713.07 40.2903 1713.07 46.9338 L1713.07 72.576 L1705.57 72.576 L1705.57 45.4349 Q1705.57 38.8725 1703.26 35.7533 Q1700.95 32.5936 1696.13 32.5936 Q1690.42 32.5936 1687.06 36.4824 Q1683.7 40.3308 1683.7 46.9338 L1683.7 72.576 L1676.2 72.576 L1676.2 27.2059 L1683.7 27.2059 L1683.7 34.2544 Q1686.25 30.082 1689.81 28.0971 Q1693.38 26.1121 1698.28 26.1121 Q1703.22 26.1121 1706.66 28.6237 Q1710.15 31.1352 1711.81 35.9153 Z" fill="#000000" fill-rule="nonzero" fill-opacity="1" /><path clip-path="url(#clip290)" d="M1796.11 48.0275 L1796.11 51.6733 L1761.84 51.6733 Q1762.32 59.3701 1766.46 63.421 Q1770.63 67.4314 1778.04 67.4314 Q1782.34 67.4314 1786.35 66.3781 Q1790.4 65.3249 1794.37 63.2184 L1794.37 70.267 Q1790.36 71.9684 1786.14 72.8596 Q1781.93 73.7508 1777.6 73.7508 Q1766.74 73.7508 1760.38 67.4314 Q1754.06 61.1119 1754.06 50.3365 Q1754.06 39.1965 1760.06 32.6746 Q1766.09 26.1121 1776.3 26.1121 Q1785.45 26.1121 1790.76 32.0264 Q1796.11 37.9003 1796.11 48.0275 M1788.66 45.84 Q1788.57 39.7232 1785.21 36.0774 Q1781.89 32.4315 1776.38 32.4315 Q1770.14 32.4315 1766.38 35.9558 Q1762.65 39.4801 1762.08 45.8805 L1788.66 45.84 Z" fill="#000000" fill-rule="nonzero" fill-opacity="1" /><polyline clip-path="url(#clip292)" style="stroke:#009af9; stroke-linecap:round; stroke-linejoin:round; stroke-width:8; stroke-opacity:1; fill:none" points="309.067,248.649 329.109,285.741 349.151,214.543 369.193,294.795 389.235,217.143 409.277,276.202 429.319,278.83 449.361,197.189 469.403,243.933 489.446,180.268 509.488,260.396 529.53,244.937 549.572,218.877 569.614,246.65 589.656,251.637 609.698,252.933 629.74,287.845 649.782,161.389 669.824,248.364 689.866,225.764 709.908,250.981 729.95,265.74 749.992,261.814 770.034,289.525 790.076,246.936 810.118,167.775 830.161,253.504 850.203,170.807 870.245,252.362 890.287,188.049 910.329,176.844 930.371,248.078 950.413,291.078 970.455,255.218 990.497,286.635 1010.54,294.821 1030.58,263.096 1050.62,180.425 1070.67,160.426 1090.71,244.651 1110.75,246.079 1130.79,241.472 1150.83,244.366 1170.88,230.24 1190.92,160.256 1210.96,297.183 1231,247.222 1251.04,248.935 1271.09,245.794 1291.13,166.675 1311.17,253.79 1331.21,191.158 1351.25,179.047 1371.3,245.222 1391.34,206.325 1411.38,254.646 1431.42,245.124 1451.46,294.251 1471.51,251.22 1491.55,257.179 1511.59,244.815 1531.63,249.792 1551.67,249.506 1571.72,289.253 1591.76,286.855 1611.8,245.508 1631.84,246.365 1651.89,254.932 1671.93,252.647 1691.97,274.305 1712.01,175.957 1732.05,254.361 1752.1,208.767 1772.14,247.507 1792.18,244.08 1812.22,253.708 1832.26,247.793 1852.31,251.505 1872.35,170.065 1892.39,250.363 1912.43,253.219 1932.47,251.791 1952.52,253.989 1972.56,292.379 1992.6,249.221 2012.64,248.746 2032.68,252.076 2052.73,265.265 2072.77,266.599 2092.81,276.094 2112.85,183.747 2132.89,205.59 2152.94,250.077 2172.98,250.648 2193.02,250.934 2213.06,224.495 2233.1,253.856 2253.15,183.85 2273.19,254.075 2293.23,252.399 "/>
<polyline clip-path="url(#clip292)" style="stroke:#e26f46; stroke-linecap:round; stroke-linejoin:round; stroke-width:8; stroke-opacity:1; fill:none" points="309.067,621.5 329.109,503.215 349.151,644.914 369.193,639.588 389.235,549.618 409.277,490.751 429.319,612.692 449.361,525.665 469.403,594.676 489.446,562.636 509.488,514.208 529.53,607.989 549.572,626.998 569.614,606.646 589.656,600.328 609.698,469.264 629.74,524.934 649.782,635.86 669.824,652.289 689.866,620.991 709.908,532.242 729.95,543.46 749.992,444.97 770.034,624.223 790.076,623.92 810.118,559.73 830.161,646.447 850.203,550.662 870.245,549.132 890.287,633.246 910.329,631.375 930.371,471.105 950.413,626.964 970.455,610.758 990.497,638.829 1010.54,606.736 1030.58,555.973 1050.62,400.021 1070.67,529.43 1090.71,564.304 1110.75,499.634 1130.79,613.88 1150.83,575.208 1170.88,630.819 1190.92,476.172 1210.96,540.112 1231,591.361 1251.04,584.089 1271.09,564.645 1291.13,505.914 1311.17,592.866 1331.21,611.895 1351.25,619.564 1371.3,478.107 1391.34,547.742 1411.38,647.706 1431.42,632.737 1451.46,594.105 1471.51,614.262 1491.55,606.933 1511.59,558.265 1531.63,605.731 1551.67,491.191 1571.72,632.09 1591.76,590.219 1611.8,607.502 1631.84,620.619 1651.89,602.978 1671.93,527.362 1691.97,576.881 1712.01,607.772 1732.05,524.454 1752.1,525.917 1772.14,609.137 1792.18,595.499 1812.22,514.023 1832.26,515.496 1852.31,613.034 1872.35,568.154 1892.39,571.195 1912.43,605.289 1932.47,608.329 1952.52,654.848 1972.56,640.314 1992.6,642.369 2012.64,515.446 2032.68,565.588 2052.73,625.794 2072.77,638.07 2092.81,625.182 2112.85,447.307 2132.89,594.299 2152.94,582.685 2172.98,532.14 2193.02,536.023 2213.06,547.413 2233.1,638.324 2253.15,525.166 2273.19,508.506 2293.23,595.226 "/>
<polyline clip-path="url(#clip292)" style="stroke:#3da44d; stroke-linecap:round; stroke-linejoin:round; stroke-width:8; stroke-opacity:1; fill:none" points="309.067,1196.7 329.109,1352.08 349.151,1139.18 369.193,1224.76 389.235,1237.08 409.277,1355 429.319,1235.69 449.361,1241.08 469.403,1218.81 489.446,1187.18 509.488,1315.74 529.53,1206.5 549.572,1161.43 569.614,1209.56 589.656,1220.86 609.698,1353.22 629.74,1332.46 649.782,1095.08 669.824,1165.63 689.866,1174.32 709.908,1288.29 729.95,1291.83 749.992,1386.4 770.034,1234.85 790.076,1192.57 810.118,1177.6 830.161,1176.61 850.203,1189.7 870.245,1272.78 890.287,1124.35 910.329,1115.02 930.371,1346.52 950.413,1233.67 970.455,1214.01 990.497,1217.36 1010.54,1257.64 1030.58,1276.67 1050.62,1349.95 1070.67,1200.55 1090.71,1249.9 1110.75,1316 1130.79,1197.14 1150.83,1238.71 1170.88,1168.97 1190.92,1253.64 1210.96,1326.62 1231,1225.41 1251.04,1234.4 1271.09,1250.7 1291.13,1230.31 1311.17,1230.48 1331.21,1148.81 1351.25,1129.03 1371.3,1336.67 1391.34,1228.13 1411.38,1176.49 1431.42,1181.94 1451.46,1269.7 1471.51,1206.51 1491.55,1219.8 1511.59,1256.1 1531.63,1213.61 1551.67,1327.87 1571.72,1226.71 1591.76,1266.19 1611.8,1207.56 1631.84,1195.3 1651.89,1221.51 1671.93,1294.84 1691.97,1266.97 1712.01,1137.74 1732.05,1299.46 1752.1,1252.4 1772.14,1207.92 1792.18,1218.13 1812.22,1309.24 1832.26,1301.85 1852.31,1208.02 1872.35,1171.46 1892.39,1248.72 1912.43,1217.48 1932.47,1213.01 1952.52,1168.69 1972.56,1221.62 1992.6,1176.4 2012.64,1302.85 2032.68,1256.04 2052.73,1209.02 2072.77,1198.08 2092.81,1220.46 2112.85,1305.99 2132.89,1180.84 2152.94,1236.94 2172.98,1288.06 2193.02,1284.46 2213.06,1246.63 2233.1,1185.08 2253.15,1228.24 2273.19,1315.12 2293.23,1226.72 "/>
<path clip-path="url(#clip290)" d="M1834.39 1379.86 L2282.65 1379.86 L2282.65 1172.5 L1834.39 1172.5  Z" fill="#ffffff" fill-rule="evenodd" fill-opacity="1"/>
<polyline clip-path="url(#clip290)" style="stroke:#000000; stroke-linecap:round; stroke-linejoin:round; stroke-width:4; stroke-opacity:1; fill:none" points="1834.39,1379.86 2282.65,1379.86 2282.65,1172.5 1834.39,1172.5 1834.39,1379.86 "/>
<polyline clip-path="url(#clip290)" style="stroke:#009af9; stroke-linecap:round; stroke-linejoin:round; stroke-width:8; stroke-opacity:1; fill:none" points="1857.76,1224.34 1997.97,1224.34 "/>
<path clip-path="url(#clip290)" d="M2021.34 1207.06 L2026.02 1207.06 L2026.02 1237.68 L2042.85 1237.68 L2042.85 1241.62 L2021.34 1241.62 L2021.34 1207.06 Z" fill="#000000" fill-rule="nonzero" fill-opacity="1" /><path clip-path="url(#clip290)" d="M2068.91 1227.59 L2068.91 1229.67 L2049.33 1229.67 Q2049.6 1234.07 2051.97 1236.38 Q2054.35 1238.68 2058.59 1238.68 Q2061.04 1238.68 2063.33 1238.07 Q2065.65 1237.47 2067.92 1236.27 L2067.92 1240.3 Q2065.62 1241.27 2063.22 1241.78 Q2060.81 1242.29 2058.33 1242.29 Q2052.13 1242.29 2048.49 1238.68 Q2044.88 1235.07 2044.88 1228.91 Q2044.88 1222.54 2048.31 1218.82 Q2051.76 1215.07 2057.59 1215.07 Q2062.82 1215.07 2065.85 1218.45 Q2068.91 1221.8 2068.91 1227.59 M2064.65 1226.34 Q2064.6 1222.84 2062.68 1220.76 Q2060.79 1218.68 2057.64 1218.68 Q2054.07 1218.68 2051.92 1220.69 Q2049.79 1222.7 2049.47 1226.36 L2064.65 1226.34 Z" fill="#000000" fill-rule="nonzero" fill-opacity="1" /><path clip-path="url(#clip290)" d="M2087.68 1228.58 Q2082.52 1228.58 2080.53 1229.76 Q2078.54 1230.95 2078.54 1233.79 Q2078.54 1236.06 2080.02 1237.4 Q2081.53 1238.72 2084.1 1238.72 Q2087.64 1238.72 2089.77 1236.22 Q2091.92 1233.7 2091.92 1229.53 L2091.92 1228.58 L2087.68 1228.58 M2096.18 1226.82 L2096.18 1241.62 L2091.92 1241.62 L2091.92 1237.68 Q2090.46 1240.04 2088.29 1241.18 Q2086.11 1242.29 2082.96 1242.29 Q2078.98 1242.29 2076.62 1240.07 Q2074.28 1237.82 2074.28 1234.07 Q2074.28 1229.7 2077.2 1227.47 Q2080.14 1225.25 2085.95 1225.25 L2091.92 1225.25 L2091.92 1224.83 Q2091.92 1221.89 2089.98 1220.3 Q2088.05 1218.68 2084.56 1218.68 Q2082.34 1218.68 2080.23 1219.21 Q2078.12 1219.74 2076.18 1220.81 L2076.18 1216.87 Q2078.52 1215.97 2080.72 1215.53 Q2082.91 1215.07 2085 1215.07 Q2090.62 1215.07 2093.4 1217.98 Q2096.18 1220.9 2096.18 1226.82 Z" fill="#000000" fill-rule="nonzero" fill-opacity="1" /><path clip-path="url(#clip290)" d="M2122.01 1219.63 L2122.01 1205.6 L2126.27 1205.6 L2126.27 1241.62 L2122.01 1241.62 L2122.01 1237.73 Q2120.67 1240.04 2118.61 1241.18 Q2116.57 1242.29 2113.7 1242.29 Q2109 1242.29 2106.04 1238.54 Q2103.1 1234.79 2103.1 1228.68 Q2103.1 1222.57 2106.04 1218.82 Q2109 1215.07 2113.7 1215.07 Q2116.57 1215.07 2118.61 1216.2 Q2120.67 1217.31 2122.01 1219.63 M2107.5 1228.68 Q2107.5 1233.38 2109.42 1236.06 Q2111.36 1238.72 2114.74 1238.72 Q2118.12 1238.72 2120.07 1236.06 Q2122.01 1233.38 2122.01 1228.68 Q2122.01 1223.98 2120.07 1221.32 Q2118.12 1218.63 2114.74 1218.63 Q2111.36 1218.63 2109.42 1221.32 Q2107.5 1223.98 2107.5 1228.68 Z" fill="#000000" fill-rule="nonzero" fill-opacity="1" /><path clip-path="url(#clip290)" d="M2157.22 1227.59 L2157.22 1229.67 L2137.64 1229.67 Q2137.91 1234.07 2140.28 1236.38 Q2142.66 1238.68 2146.9 1238.68 Q2149.35 1238.68 2151.64 1238.07 Q2153.96 1237.47 2156.22 1236.27 L2156.22 1240.3 Q2153.93 1241.27 2151.53 1241.78 Q2149.12 1242.29 2146.64 1242.29 Q2140.44 1242.29 2136.8 1238.68 Q2133.19 1235.07 2133.19 1228.91 Q2133.19 1222.54 2136.62 1218.82 Q2140.07 1215.07 2145.9 1215.07 Q2151.13 1215.07 2154.16 1218.45 Q2157.22 1221.8 2157.22 1227.59 M2152.96 1226.34 Q2152.91 1222.84 2150.99 1220.76 Q2149.1 1218.68 2145.95 1218.68 Q2142.38 1218.68 2140.23 1220.69 Q2138.1 1222.7 2137.78 1226.36 L2152.96 1226.34 Z" fill="#000000" fill-rule="nonzero" fill-opacity="1" /><path clip-path="url(#clip290)" d="M2179.23 1219.67 Q2178.52 1219.26 2177.66 1219.07 Q2176.83 1218.86 2175.81 1218.86 Q2172.2 1218.86 2170.25 1221.22 Q2168.33 1223.56 2168.33 1227.96 L2168.33 1241.62 L2164.05 1241.62 L2164.05 1215.69 L2168.33 1215.69 L2168.33 1219.72 Q2169.67 1217.36 2171.83 1216.22 Q2173.98 1215.07 2177.06 1215.07 Q2177.5 1215.07 2178.03 1215.13 Q2178.56 1215.18 2179.21 1215.3 L2179.23 1219.67 Z" fill="#000000" fill-rule="nonzero" fill-opacity="1" /><polyline clip-path="url(#clip290)" style="stroke:#e26f46; stroke-linecap:round; stroke-linejoin:round; stroke-width:8; stroke-opacity:1; fill:none" points="1857.76,1276.18 1997.97,1276.18 "/>
<path clip-path="url(#clip290)" d="M2021.34 1258.9 L2041.2 1258.9 L2041.2 1262.83 L2026.02 1262.83 L2026.02 1273.02 L2039.72 1273.02 L2039.72 1276.95 L2026.02 1276.95 L2026.02 1293.46 L2021.34 1293.46 L2021.34 1258.9 Z" fill="#000000" fill-rule="nonzero" fill-opacity="1" /><path clip-path="url(#clip290)" d="M2056.78 1270.52 Q2053.35 1270.52 2051.36 1273.2 Q2049.37 1275.86 2049.37 1280.52 Q2049.37 1285.17 2051.34 1287.85 Q2053.33 1290.52 2056.78 1290.52 Q2060.18 1290.52 2062.17 1287.83 Q2064.17 1285.15 2064.17 1280.52 Q2064.17 1275.91 2062.17 1273.22 Q2060.18 1270.52 2056.78 1270.52 M2056.78 1266.91 Q2062.34 1266.91 2065.51 1270.52 Q2068.68 1274.13 2068.68 1280.52 Q2068.68 1286.88 2065.51 1290.52 Q2062.34 1294.13 2056.78 1294.13 Q2051.2 1294.13 2048.03 1290.52 Q2044.88 1286.88 2044.88 1280.52 Q2044.88 1274.13 2048.03 1270.52 Q2051.2 1266.91 2056.78 1266.91 Z" fill="#000000" fill-rule="nonzero" fill-opacity="1" /><path clip-path="url(#clip290)" d="M2075.74 1257.44 L2080 1257.44 L2080 1293.46 L2075.74 1293.46 L2075.74 1257.44 Z" fill="#000000" fill-rule="nonzero" fill-opacity="1" /><path clip-path="url(#clip290)" d="M2088.91 1257.44 L2093.17 1257.44 L2093.17 1293.46 L2088.91 1293.46 L2088.91 1257.44 Z" fill="#000000" fill-rule="nonzero" fill-opacity="1" /><path clip-path="url(#clip290)" d="M2112.13 1270.52 Q2108.7 1270.52 2106.71 1273.2 Q2104.72 1275.86 2104.72 1280.52 Q2104.72 1285.17 2106.69 1287.85 Q2108.68 1290.52 2112.13 1290.52 Q2115.53 1290.52 2117.52 1287.83 Q2119.51 1285.15 2119.51 1280.52 Q2119.51 1275.91 2117.52 1273.22 Q2115.53 1270.52 2112.13 1270.52 M2112.13 1266.91 Q2117.68 1266.91 2120.85 1270.52 Q2124.03 1274.13 2124.03 1280.52 Q2124.03 1286.88 2120.85 1290.52 Q2117.68 1294.13 2112.13 1294.13 Q2106.55 1294.13 2103.38 1290.52 Q2100.23 1286.88 2100.23 1280.52 Q2100.23 1274.13 2103.38 1270.52 Q2106.55 1266.91 2112.13 1266.91 Z" fill="#000000" fill-rule="nonzero" fill-opacity="1" /><path clip-path="url(#clip290)" d="M2128.61 1267.53 L2132.87 1267.53 L2138.19 1287.76 L2143.49 1267.53 L2148.52 1267.53 L2153.84 1287.76 L2159.14 1267.53 L2163.4 1267.53 L2156.62 1293.46 L2151.6 1293.46 L2146.02 1272.21 L2140.41 1293.46 L2135.39 1293.46 L2128.61 1267.53 Z" fill="#000000" fill-rule="nonzero" fill-opacity="1" /><path clip-path="url(#clip290)" d="M2192.03 1279.43 L2192.03 1281.51 L2172.45 1281.51 Q2172.73 1285.91 2175.09 1288.22 Q2177.47 1290.52 2181.71 1290.52 Q2184.16 1290.52 2186.46 1289.91 Q2188.77 1289.31 2191.04 1288.11 L2191.04 1292.14 Q2188.75 1293.11 2186.34 1293.62 Q2183.93 1294.13 2181.46 1294.13 Q2175.25 1294.13 2171.62 1290.52 Q2168.01 1286.91 2168.01 1280.75 Q2168.01 1274.38 2171.43 1270.66 Q2174.88 1266.91 2180.72 1266.91 Q2185.95 1266.91 2188.98 1270.29 Q2192.03 1273.64 2192.03 1279.43 M2187.78 1278.18 Q2187.73 1274.68 2185.81 1272.6 Q2183.91 1270.52 2180.76 1270.52 Q2177.2 1270.52 2175.04 1272.53 Q2172.91 1274.54 2172.59 1278.2 L2187.78 1278.18 Z" fill="#000000" fill-rule="nonzero" fill-opacity="1" /><path clip-path="url(#clip290)" d="M2214.05 1271.51 Q2213.33 1271.1 2212.47 1270.91 Q2211.64 1270.7 2210.62 1270.7 Q2207.01 1270.7 2205.07 1273.06 Q2203.15 1275.4 2203.15 1279.8 L2203.15 1293.46 L2198.86 1293.46 L2198.86 1267.53 L2203.15 1267.53 L2203.15 1271.56 Q2204.49 1269.2 2206.64 1268.06 Q2208.79 1266.91 2211.87 1266.91 Q2212.31 1266.91 2212.84 1266.97 Q2213.38 1267.02 2214.03 1267.14 L2214.05 1271.51 Z" fill="#000000" fill-rule="nonzero" fill-opacity="1" /><polyline clip-path="url(#clip290)" style="stroke:#3da44d; stroke-linecap:round; stroke-linejoin:round; stroke-width:8; stroke-opacity:1; fill:none" points="1857.76,1328.02 1997.97,1328.02 "/>
<path clip-path="url(#clip290)" d="M2026.02 1314.58 L2026.02 1341.45 L2031.67 1341.45 Q2038.82 1341.45 2042.13 1338.21 Q2045.46 1334.97 2045.46 1327.98 Q2045.46 1321.04 2042.13 1317.82 Q2038.82 1314.58 2031.67 1314.58 L2026.02 1314.58 M2021.34 1310.74 L2030.95 1310.74 Q2040.99 1310.74 2045.69 1314.93 Q2050.39 1319.09 2050.39 1327.98 Q2050.39 1336.92 2045.67 1341.11 Q2040.95 1345.3 2030.95 1345.3 L2021.34 1345.3 L2021.34 1310.74 Z" fill="#000000" fill-rule="nonzero" fill-opacity="1" /><path clip-path="url(#clip290)" d="M2057.66 1319.37 L2061.92 1319.37 L2061.92 1345.3 L2057.66 1345.3 L2057.66 1319.37 M2057.66 1309.28 L2061.92 1309.28 L2061.92 1314.67 L2057.66 1314.67 L2057.66 1309.28 Z" fill="#000000" fill-rule="nonzero" fill-opacity="1" /><path clip-path="url(#clip290)" d="M2083.96 1309.28 L2083.96 1312.82 L2079.88 1312.82 Q2077.59 1312.82 2076.69 1313.75 Q2075.81 1314.67 2075.81 1317.08 L2075.81 1319.37 L2082.82 1319.37 L2082.82 1322.68 L2075.81 1322.68 L2075.81 1345.3 L2071.53 1345.3 L2071.53 1322.68 L2067.45 1322.68 L2067.45 1319.37 L2071.53 1319.37 L2071.53 1317.56 Q2071.53 1313.24 2073.54 1311.27 Q2075.55 1309.28 2079.93 1309.28 L2083.96 1309.28 Z" fill="#000000" fill-rule="nonzero" fill-opacity="1" /><path clip-path="url(#clip290)" d="M2100.65 1309.28 L2100.65 1312.82 L2096.57 1312.82 Q2094.28 1312.82 2093.38 1313.75 Q2092.5 1314.67 2092.5 1317.08 L2092.5 1319.37 L2099.51 1319.37 L2099.51 1322.68 L2092.5 1322.68 L2092.5 1345.3 L2088.22 1345.3 L2088.22 1322.68 L2084.14 1322.68 L2084.14 1319.37 L2088.22 1319.37 L2088.22 1317.56 Q2088.22 1313.24 2090.23 1311.27 Q2092.24 1309.28 2096.62 1309.28 L2100.65 1309.28 Z" fill="#000000" fill-rule="nonzero" fill-opacity="1" /><path clip-path="url(#clip290)" d="M2126.39 1331.27 L2126.39 1333.35 L2106.8 1333.35 Q2107.08 1337.75 2109.44 1340.06 Q2111.83 1342.36 2116.06 1342.36 Q2118.52 1342.36 2120.81 1341.75 Q2123.12 1341.15 2125.39 1339.95 L2125.39 1343.98 Q2123.1 1344.95 2120.69 1345.46 Q2118.29 1345.97 2115.81 1345.97 Q2109.6 1345.97 2105.97 1342.36 Q2102.36 1338.75 2102.36 1332.59 Q2102.36 1326.22 2105.79 1322.5 Q2109.23 1318.75 2115.07 1318.75 Q2120.3 1318.75 2123.33 1322.13 Q2126.39 1325.48 2126.39 1331.27 M2122.13 1330.02 Q2122.08 1326.52 2120.16 1324.44 Q2118.26 1322.36 2115.11 1322.36 Q2111.55 1322.36 2109.4 1324.37 Q2107.27 1326.38 2106.94 1330.04 L2122.13 1330.02 Z" fill="#000000" fill-rule="nonzero" fill-opacity="1" /><path clip-path="url(#clip290)" d="M2148.4 1323.35 Q2147.68 1322.94 2146.83 1322.75 Q2145.99 1322.54 2144.97 1322.54 Q2141.36 1322.54 2139.42 1324.9 Q2137.5 1327.24 2137.5 1331.64 L2137.5 1345.3 L2133.22 1345.3 L2133.22 1319.37 L2137.5 1319.37 L2137.5 1323.4 Q2138.84 1321.04 2140.99 1319.9 Q2143.15 1318.75 2146.22 1318.75 Q2146.66 1318.75 2147.2 1318.81 Q2147.73 1318.86 2148.38 1318.98 L2148.4 1323.35 Z" fill="#000000" fill-rule="nonzero" fill-opacity="1" /><path clip-path="url(#clip290)" d="M2174 1331.27 L2174 1333.35 L2154.42 1333.35 Q2154.7 1337.75 2157.06 1340.06 Q2159.44 1342.36 2163.68 1342.36 Q2166.13 1342.36 2168.42 1341.75 Q2170.74 1341.15 2173.01 1339.95 L2173.01 1343.98 Q2170.72 1344.95 2168.31 1345.46 Q2165.9 1345.97 2163.42 1345.97 Q2157.22 1345.97 2153.59 1342.36 Q2149.97 1338.75 2149.97 1332.59 Q2149.97 1326.22 2153.4 1322.5 Q2156.85 1318.75 2162.68 1318.75 Q2167.91 1318.75 2170.95 1322.13 Q2174 1325.48 2174 1331.27 M2169.74 1330.02 Q2169.7 1326.52 2167.78 1324.44 Q2165.88 1322.36 2162.73 1322.36 Q2159.16 1322.36 2157.01 1324.37 Q2154.88 1326.38 2154.56 1330.04 L2169.74 1330.02 Z" fill="#000000" fill-rule="nonzero" fill-opacity="1" /><path clip-path="url(#clip290)" d="M2202.54 1329.65 L2202.54 1345.3 L2198.28 1345.3 L2198.28 1329.79 Q2198.28 1326.11 2196.85 1324.28 Q2195.41 1322.45 2192.54 1322.45 Q2189.09 1322.45 2187.1 1324.65 Q2185.11 1326.85 2185.11 1330.64 L2185.11 1345.3 L2180.83 1345.3 L2180.83 1319.37 L2185.11 1319.37 L2185.11 1323.4 Q2186.64 1321.06 2188.7 1319.9 Q2190.78 1318.75 2193.49 1318.75 Q2197.96 1318.75 2200.25 1321.52 Q2202.54 1324.28 2202.54 1329.65 Z" fill="#000000" fill-rule="nonzero" fill-opacity="1" /><path clip-path="url(#clip290)" d="M2229.7 1320.37 L2229.7 1324.35 Q2227.89 1323.35 2226.06 1322.87 Q2224.26 1322.36 2222.4 1322.36 Q2218.26 1322.36 2215.97 1325 Q2213.68 1327.61 2213.68 1332.36 Q2213.68 1337.1 2215.97 1339.74 Q2218.26 1342.36 2222.4 1342.36 Q2224.26 1342.36 2226.06 1341.87 Q2227.89 1341.36 2229.7 1340.37 L2229.7 1344.3 Q2227.91 1345.13 2225.99 1345.55 Q2224.09 1345.97 2221.94 1345.97 Q2216.09 1345.97 2212.64 1342.29 Q2209.19 1338.61 2209.19 1332.36 Q2209.19 1326.01 2212.66 1322.38 Q2216.15 1318.75 2222.22 1318.75 Q2224.19 1318.75 2226.06 1319.16 Q2227.94 1319.56 2229.7 1320.37 Z" fill="#000000" fill-rule="nonzero" fill-opacity="1" /><path clip-path="url(#clip290)" d="M2259.28 1331.27 L2259.28 1333.35 L2239.7 1333.35 Q2239.97 1337.75 2242.34 1340.06 Q2244.72 1342.36 2248.96 1342.36 Q2251.41 1342.36 2253.7 1341.75 Q2256.02 1341.15 2258.28 1339.95 L2258.28 1343.98 Q2255.99 1344.95 2253.59 1345.46 Q2251.18 1345.97 2248.7 1345.97 Q2242.5 1345.97 2238.86 1342.36 Q2235.25 1338.75 2235.25 1332.59 Q2235.25 1326.22 2238.68 1322.5 Q2242.13 1318.75 2247.96 1318.75 Q2253.19 1318.75 2256.22 1322.13 Q2259.28 1325.48 2259.28 1331.27 M2255.02 1330.02 Q2254.97 1326.52 2253.05 1324.44 Q2251.15 1322.36 2248.01 1322.36 Q2244.44 1322.36 2242.29 1324.37 Q2240.16 1326.38 2239.84 1330.04 L2255.02 1330.02 Z" fill="#000000" fill-rule="nonzero" fill-opacity="1" /></svg>
