<?xml version="1.0" encoding="utf-8"?>
<svg xmlns="http://www.w3.org/2000/svg" xmlns:xlink="http://www.w3.org/1999/xlink" width="600" height="400" viewBox="0 0 2400 1600">
<defs>
  <clipPath id="clip390">
    <rect x="0" y="0" width="2400" height="1600"/>
  </clipPath>
</defs>
<path clip-path="url(#clip390)" d="M0 1600 L2400 1600 L2400 0 L0 0  Z" fill="#ffffff" fill-rule="evenodd" fill-opacity="1"/>
<defs>
  <clipPath id="clip391">
    <rect x="242" y="123" width="2112" height="1301"/>
  </clipPath>
</defs>
<path clip-path="url(#clip390)" d="M272.297 1423.18 L2352.76 1423.18 L2352.76 123.472 L272.297 123.472  Z" fill="#ffffff" fill-rule="evenodd" fill-opacity="1"/>
<defs>
  <clipPath id="clip392">
    <rect x="272" y="123" width="2081" height="1301"/>
  </clipPath>
</defs>
<polyline clip-path="url(#clip392)" style="stroke:#000000; stroke-linecap:round; stroke-linejoin:round; stroke-width:2; stroke-opacity:0.1; fill:none" points="355.776,1423.18 355.776,123.472 "/>
<polyline clip-path="url(#clip392)" style="stroke:#000000; stroke-linecap:round; stroke-linejoin:round; stroke-width:2; stroke-opacity:0.1; fill:none" points="734.927,1423.18 734.927,123.472 "/>
<polyline clip-path="url(#clip392)" style="stroke:#000000; stroke-linecap:round; stroke-linejoin:round; stroke-width:2; stroke-opacity:0.1; fill:none" points="1114.08,1423.18 1114.08,123.472 "/>
<polyline clip-path="url(#clip392)" style="stroke:#000000; stroke-linecap:round; stroke-linejoin:round; stroke-width:2; stroke-opacity:0.1; fill:none" points="1493.23,1423.18 1493.23,123.472 "/>
<polyline clip-path="url(#clip392)" style="stroke:#000000; stroke-linecap:round; stroke-linejoin:round; stroke-width:2; stroke-opacity:0.1; fill:none" points="1872.38,1423.18 1872.38,123.472 "/>
<polyline clip-path="url(#clip392)" style="stroke:#000000; stroke-linecap:round; stroke-linejoin:round; stroke-width:2; stroke-opacity:0.1; fill:none" points="2251.53,1423.18 2251.53,123.472 "/>
<polyline clip-path="url(#clip392)" style="stroke:#000000; stroke-linecap:round; stroke-linejoin:round; stroke-width:2; stroke-opacity:0.1; fill:none" points="272.297,1362.49 2352.76,1362.49 "/>
<polyline clip-path="url(#clip392)" style="stroke:#000000; stroke-linecap:round; stroke-linejoin:round; stroke-width:2; stroke-opacity:0.1; fill:none" points="272.297,960.72 2352.76,960.72 "/>
<polyline clip-path="url(#clip392)" style="stroke:#000000; stroke-linecap:round; stroke-linejoin:round; stroke-width:2; stroke-opacity:0.1; fill:none" points="272.297,558.95 2352.76,558.95 "/>
<polyline clip-path="url(#clip392)" style="stroke:#000000; stroke-linecap:round; stroke-linejoin:round; stroke-width:2; stroke-opacity:0.1; fill:none" points="272.297,157.181 2352.76,157.181 "/>
<polyline clip-path="url(#clip390)" style="stroke:#000000; stroke-linecap:round; stroke-linejoin:round; stroke-width:4; stroke-opacity:1; fill:none" points="272.297,1423.18 2352.76,1423.18 "/>
<polyline clip-path="url(#clip390)" style="stroke:#000000; stroke-linecap:round; stroke-linejoin:round; stroke-width:4; stroke-opacity:1; fill:none" points="355.776,1423.18 355.776,1404.28 "/>
<polyline clip-path="url(#clip390)" style="stroke:#000000; stroke-linecap:round; stroke-linejoin:round; stroke-width:4; stroke-opacity:1; fill:none" points="734.927,1423.18 734.927,1404.28 "/>
<polyline clip-path="url(#clip390)" style="stroke:#000000; stroke-linecap:round; stroke-linejoin:round; stroke-width:4; stroke-opacity:1; fill:none" points="1114.08,1423.18 1114.08,1404.28 "/>
<polyline clip-path="url(#clip390)" style="stroke:#000000; stroke-linecap:round; stroke-linejoin:round; stroke-width:4; stroke-opacity:1; fill:none" points="1493.23,1423.18 1493.23,1404.28 "/>
<polyline clip-path="url(#clip390)" style="stroke:#000000; stroke-linecap:round; stroke-linejoin:round; stroke-width:4; stroke-opacity:1; fill:none" points="1872.38,1423.18 1872.38,1404.28 "/>
<polyline clip-path="url(#clip390)" style="stroke:#000000; stroke-linecap:round; stroke-linejoin:round; stroke-width:4; stroke-opacity:1; fill:none" points="2251.53,1423.18 2251.53,1404.28 "/>
<path clip-path="url(#clip390)" d="M302.628 1468.75 L332.304 1468.75 L332.304 1472.69 L302.628 1472.69 L302.628 1468.75 Z" fill="#000000" fill-rule="nonzero" fill-opacity="1" /><path clip-path="url(#clip390)" d="M352.396 1454.1 Q348.785 1454.1 346.957 1457.66 Q345.151 1461.2 345.151 1468.33 Q345.151 1475.44 346.957 1479.01 Q348.785 1482.55 352.396 1482.55 Q356.031 1482.55 357.836 1479.01 Q359.665 1475.44 359.665 1468.33 Q359.665 1461.2 357.836 1457.66 Q356.031 1454.1 352.396 1454.1 M352.396 1450.39 Q358.207 1450.39 361.262 1455 Q364.341 1459.58 364.341 1468.33 Q364.341 1477.06 361.262 1481.67 Q358.207 1486.25 352.396 1486.25 Q346.586 1486.25 343.508 1481.67 Q340.452 1477.06 340.452 1468.33 Q340.452 1459.58 343.508 1455 Q346.586 1450.39 352.396 1450.39 Z" fill="#000000" fill-rule="nonzero" fill-opacity="1" /><path clip-path="url(#clip390)" d="M372.558 1479.7 L377.443 1479.7 L377.443 1485.58 L372.558 1485.58 L372.558 1479.7 Z" fill="#000000" fill-rule="nonzero" fill-opacity="1" /><path clip-path="url(#clip390)" d="M401.794 1466.95 Q405.151 1467.66 407.026 1469.93 Q408.924 1472.2 408.924 1475.53 Q408.924 1480.65 405.405 1483.45 Q401.887 1486.25 395.405 1486.25 Q393.23 1486.25 390.915 1485.81 Q388.623 1485.39 386.169 1484.54 L386.169 1480.02 Q388.114 1481.16 390.429 1481.74 Q392.743 1482.32 395.267 1482.32 Q399.665 1482.32 401.956 1480.58 Q404.271 1478.84 404.271 1475.53 Q404.271 1472.48 402.118 1470.77 Q399.989 1469.03 396.169 1469.03 L392.142 1469.03 L392.142 1465.19 L396.355 1465.19 Q399.804 1465.19 401.632 1463.82 Q403.461 1462.43 403.461 1459.84 Q403.461 1457.18 401.563 1455.77 Q399.688 1454.33 396.169 1454.33 Q394.248 1454.33 392.049 1454.75 Q389.85 1455.16 387.211 1456.04 L387.211 1451.88 Q389.873 1451.14 392.188 1450.77 Q394.526 1450.39 396.586 1450.39 Q401.91 1450.39 405.012 1452.83 Q408.114 1455.23 408.114 1459.35 Q408.114 1462.22 406.47 1464.21 Q404.827 1466.18 401.794 1466.95 Z" fill="#000000" fill-rule="nonzero" fill-opacity="1" /><path clip-path="url(#clip390)" d="M682.253 1468.75 L711.929 1468.75 L711.929 1472.69 L682.253 1472.69 L682.253 1468.75 Z" fill="#000000" fill-rule="nonzero" fill-opacity="1" /><path clip-path="url(#clip390)" d="M732.022 1454.1 Q728.41 1454.1 726.582 1457.66 Q724.776 1461.2 724.776 1468.33 Q724.776 1475.44 726.582 1479.01 Q728.41 1482.55 732.022 1482.55 Q735.656 1482.55 737.461 1479.01 Q739.29 1475.44 739.29 1468.33 Q739.29 1461.2 737.461 1457.66 Q735.656 1454.1 732.022 1454.1 M732.022 1450.39 Q737.832 1450.39 740.887 1455 Q743.966 1459.58 743.966 1468.33 Q743.966 1477.06 740.887 1481.67 Q737.832 1486.25 732.022 1486.25 Q726.211 1486.25 723.133 1481.67 Q720.077 1477.06 720.077 1468.33 Q720.077 1459.58 723.133 1455 Q726.211 1450.39 732.022 1450.39 Z" fill="#000000" fill-rule="nonzero" fill-opacity="1" /><path clip-path="url(#clip390)" d="M752.184 1479.7 L757.068 1479.7 L757.068 1485.58 L752.184 1485.58 L752.184 1479.7 Z" fill="#000000" fill-rule="nonzero" fill-opacity="1" /><path clip-path="url(#clip390)" d="M771.281 1481.64 L787.6 1481.64 L787.6 1485.58 L765.656 1485.58 L765.656 1481.64 Q768.318 1478.89 772.901 1474.26 Q777.507 1469.61 778.688 1468.27 Q780.933 1465.74 781.813 1464.01 Q782.716 1462.25 782.716 1460.56 Q782.716 1457.8 780.771 1456.07 Q778.85 1454.33 775.748 1454.33 Q773.549 1454.33 771.095 1455.09 Q768.665 1455.86 765.887 1457.41 L765.887 1452.69 Q768.711 1451.55 771.165 1450.97 Q773.619 1450.39 775.656 1450.39 Q781.026 1450.39 784.22 1453.08 Q787.415 1455.77 787.415 1460.26 Q787.415 1462.39 786.605 1464.31 Q785.818 1466.2 783.711 1468.8 Q783.132 1469.47 780.031 1472.69 Q776.929 1475.88 771.281 1481.64 Z" fill="#000000" fill-rule="nonzero" fill-opacity="1" /><path clip-path="url(#clip390)" d="M1061.22 1468.75 L1090.89 1468.75 L1090.89 1472.69 L1061.22 1472.69 L1061.22 1468.75 Z" fill="#000000" fill-rule="nonzero" fill-opacity="1" /><path clip-path="url(#clip390)" d="M1110.99 1454.1 Q1107.38 1454.1 1105.55 1457.66 Q1103.74 1461.2 1103.74 1468.33 Q1103.74 1475.44 1105.55 1479.01 Q1107.38 1482.55 1110.99 1482.55 Q1114.62 1482.55 1116.43 1479.01 Q1118.26 1475.44 1118.26 1468.33 Q1118.26 1461.2 1116.43 1457.66 Q1114.62 1454.1 1110.99 1454.1 M1110.99 1450.39 Q1116.8 1450.39 1119.85 1455 Q1122.93 1459.58 1122.93 1468.33 Q1122.93 1477.06 1119.85 1481.67 Q1116.8 1486.25 1110.99 1486.25 Q1105.18 1486.25 1102.1 1481.67 Q1099.04 1477.06 1099.04 1468.33 Q1099.04 1459.58 1102.1 1455 Q1105.18 1450.39 1110.99 1450.39 Z" fill="#000000" fill-rule="nonzero" fill-opacity="1" /><path clip-path="url(#clip390)" d="M1131.15 1479.7 L1136.03 1479.7 L1136.03 1485.58 L1131.15 1485.58 L1131.15 1479.7 Z" fill="#000000" fill-rule="nonzero" fill-opacity="1" /><path clip-path="url(#clip390)" d="M1147.03 1481.64 L1154.67 1481.64 L1154.67 1455.28 L1146.36 1456.95 L1146.36 1452.69 L1154.62 1451.02 L1159.3 1451.02 L1159.3 1481.64 L1166.94 1481.64 L1166.94 1485.58 L1147.03 1485.58 L1147.03 1481.64 Z" fill="#000000" fill-rule="nonzero" fill-opacity="1" /><path clip-path="url(#clip390)" d="M1470.61 1454.1 Q1467 1454.1 1465.17 1457.66 Q1463.37 1461.2 1463.37 1468.33 Q1463.37 1475.44 1465.17 1479.01 Q1467 1482.55 1470.61 1482.55 Q1474.25 1482.55 1476.05 1479.01 Q1477.88 1475.44 1477.88 1468.33 Q1477.88 1461.2 1476.05 1457.66 Q1474.25 1454.1 1470.61 1454.1 M1470.61 1450.39 Q1476.42 1450.39 1479.48 1455 Q1482.56 1459.58 1482.56 1468.33 Q1482.56 1477.06 1479.48 1481.67 Q1476.42 1486.25 1470.61 1486.25 Q1464.8 1486.25 1461.72 1481.67 Q1458.67 1477.06 1458.67 1468.33 Q1458.67 1459.58 1461.72 1455 Q1464.8 1450.39 1470.61 1450.39 Z" fill="#000000" fill-rule="nonzero" fill-opacity="1" /><path clip-path="url(#clip390)" d="M1490.77 1479.7 L1495.66 1479.7 L1495.66 1485.58 L1490.77 1485.58 L1490.77 1479.7 Z" fill="#000000" fill-rule="nonzero" fill-opacity="1" /><path clip-path="url(#clip390)" d="M1515.84 1454.1 Q1512.23 1454.1 1510.4 1457.66 Q1508.6 1461.2 1508.6 1468.33 Q1508.6 1475.44 1510.4 1479.01 Q1512.23 1482.55 1515.84 1482.55 Q1519.48 1482.55 1521.28 1479.01 Q1523.11 1475.44 1523.11 1468.33 Q1523.11 1461.2 1521.28 1457.66 Q1519.48 1454.1 1515.84 1454.1 M1515.84 1450.39 Q1521.65 1450.39 1524.71 1455 Q1527.79 1459.58 1527.79 1468.33 Q1527.79 1477.06 1524.71 1481.67 Q1521.65 1486.25 1515.84 1486.25 Q1510.03 1486.25 1506.95 1481.67 Q1503.9 1477.06 1503.9 1468.33 Q1503.9 1459.58 1506.95 1455 Q1510.03 1450.39 1515.84 1450.39 Z" fill="#000000" fill-rule="nonzero" fill-opacity="1" /><path clip-path="url(#clip390)" d="M1850.38 1454.1 Q1846.77 1454.1 1844.94 1457.66 Q1843.13 1461.2 1843.13 1468.33 Q1843.13 1475.44 1844.94 1479.01 Q1846.77 1482.55 1850.38 1482.55 Q1854.01 1482.55 1855.82 1479.01 Q1857.64 1475.44 1857.64 1468.33 Q1857.64 1461.2 1855.82 1457.66 Q1854.01 1454.1 1850.38 1454.1 M1850.38 1450.39 Q1856.19 1450.39 1859.24 1455 Q1862.32 1459.58 1862.32 1468.33 Q1862.32 1477.06 1859.24 1481.67 Q1856.19 1486.25 1850.38 1486.25 Q1844.57 1486.25 1841.49 1481.67 Q1838.43 1477.06 1838.43 1468.33 Q1838.43 1459.58 1841.49 1455 Q1844.57 1450.39 1850.38 1450.39 Z" fill="#000000" fill-rule="nonzero" fill-opacity="1" /><path clip-path="url(#clip390)" d="M1870.54 1479.7 L1875.42 1479.7 L1875.42 1485.58 L1870.54 1485.58 L1870.54 1479.7 Z" fill="#000000" fill-rule="nonzero" fill-opacity="1" /><path clip-path="url(#clip390)" d="M1886.42 1481.64 L1894.06 1481.64 L1894.06 1455.28 L1885.75 1456.95 L1885.75 1452.69 L1894.01 1451.02 L1898.69 1451.02 L1898.69 1481.64 L1906.33 1481.64 L1906.33 1485.58 L1886.42 1485.58 L1886.42 1481.64 Z" fill="#000000" fill-rule="nonzero" fill-opacity="1" /><path clip-path="url(#clip390)" d="M2229.71 1454.1 Q2226.1 1454.1 2224.27 1457.66 Q2222.47 1461.2 2222.47 1468.33 Q2222.47 1475.44 2224.27 1479.01 Q2226.1 1482.55 2229.71 1482.55 Q2233.35 1482.55 2235.15 1479.01 Q2236.98 1475.44 2236.98 1468.33 Q2236.98 1461.2 2235.15 1457.66 Q2233.35 1454.1 2229.71 1454.1 M2229.71 1450.39 Q2235.52 1450.39 2238.58 1455 Q2241.66 1459.58 2241.66 1468.33 Q2241.66 1477.06 2238.58 1481.67 Q2235.52 1486.25 2229.71 1486.25 Q2223.9 1486.25 2220.82 1481.67 Q2217.77 1477.06 2217.77 1468.33 Q2217.77 1459.58 2220.82 1455 Q2223.9 1450.39 2229.71 1450.39 Z" fill="#000000" fill-rule="nonzero" fill-opacity="1" /><path clip-path="url(#clip390)" d="M2249.87 1479.7 L2254.76 1479.7 L2254.76 1485.58 L2249.87 1485.58 L2249.87 1479.7 Z" fill="#000000" fill-rule="nonzero" fill-opacity="1" /><path clip-path="url(#clip390)" d="M2268.97 1481.64 L2285.29 1481.64 L2285.29 1485.58 L2263.35 1485.58 L2263.35 1481.64 Q2266.01 1478.89 2270.59 1474.26 Q2275.2 1469.61 2276.38 1468.27 Q2278.62 1465.74 2279.5 1464.01 Q2280.41 1462.25 2280.41 1460.56 Q2280.41 1457.8 2278.46 1456.07 Q2276.54 1454.33 2273.44 1454.33 Q2271.24 1454.33 2268.79 1455.09 Q2266.36 1455.86 2263.58 1457.41 L2263.58 1452.69 Q2266.4 1451.55 2268.86 1450.97 Q2271.31 1450.39 2273.35 1450.39 Q2278.72 1450.39 2281.91 1453.08 Q2285.11 1455.77 2285.11 1460.26 Q2285.11 1462.39 2284.3 1464.31 Q2283.51 1466.2 2281.4 1468.8 Q2280.82 1469.47 2277.72 1472.69 Q2274.62 1475.88 2268.97 1481.64 Z" fill="#000000" fill-rule="nonzero" fill-opacity="1" /><path clip-path="url(#clip390)" d="M736.048 1520.52 L742.477 1520.52 L742.477 1562.63 L765.617 1562.63 L765.617 1568.04 L736.048 1568.04 L736.048 1520.52 Z" fill="#000000" fill-rule="nonzero" fill-opacity="1" /><path clip-path="url(#clip390)" d="M801.455 1548.76 L801.455 1551.62 L774.529 1551.62 Q774.91 1557.67 778.157 1560.85 Q781.435 1564 787.26 1564 Q790.634 1564 793.785 1563.17 Q796.968 1562.35 800.087 1560.69 L800.087 1566.23 Q796.936 1567.57 793.626 1568.27 Q790.315 1568.97 786.91 1568.97 Q778.38 1568.97 773.383 1564 Q768.417 1559.04 768.417 1550.57 Q768.417 1541.82 773.128 1536.69 Q777.871 1531.54 785.891 1531.54 Q793.085 1531.54 797.254 1536.18 Q801.455 1540.8 801.455 1548.76 M795.599 1547.04 Q795.535 1542.23 792.894 1539.37 Q790.284 1536.5 785.955 1536.5 Q781.053 1536.5 778.093 1539.27 Q775.165 1542.04 774.719 1547.07 L795.599 1547.04 Z" fill="#000000" fill-rule="nonzero" fill-opacity="1" /><path clip-path="url(#clip390)" d="M827.268 1550.12 Q820.171 1550.12 817.433 1551.75 Q814.696 1553.37 814.696 1557.29 Q814.696 1560.4 816.733 1562.25 Q818.802 1564.07 822.335 1564.07 Q827.205 1564.07 830.133 1560.63 Q833.093 1557.16 833.093 1551.43 L833.093 1550.12 L827.268 1550.12 M838.949 1547.71 L838.949 1568.04 L833.093 1568.04 L833.093 1562.63 Q831.088 1565.88 828.096 1567.44 Q825.104 1568.97 820.775 1568.97 Q815.301 1568.97 812.054 1565.91 Q808.84 1562.82 808.84 1557.67 Q808.84 1551.65 812.85 1548.6 Q816.892 1545.54 824.881 1545.54 L833.093 1545.54 L833.093 1544.97 Q833.093 1540.93 830.419 1538.73 Q827.778 1536.5 822.972 1536.5 Q819.916 1536.5 817.02 1537.23 Q814.123 1537.97 811.45 1539.43 L811.45 1534.02 Q814.664 1532.78 817.688 1532.17 Q820.712 1531.54 823.576 1531.54 Q831.311 1531.54 835.13 1535.55 Q838.949 1539.56 838.949 1547.71 Z" fill="#000000" fill-rule="nonzero" fill-opacity="1" /><path clip-path="url(#clip390)" d="M874.47 1537.81 L874.47 1518.52 L880.327 1518.52 L880.327 1568.04 L874.47 1568.04 L874.47 1562.7 Q872.624 1565.88 869.791 1567.44 Q866.99 1568.97 863.044 1568.97 Q856.582 1568.97 852.508 1563.81 Q848.466 1558.65 848.466 1550.25 Q848.466 1541.85 852.508 1536.69 Q856.582 1531.54 863.044 1531.54 Q866.99 1531.54 869.791 1533.1 Q872.624 1534.62 874.47 1537.81 M854.514 1550.25 Q854.514 1556.71 857.155 1560.4 Q859.829 1564.07 864.476 1564.07 Q869.123 1564.07 871.797 1560.4 Q874.47 1556.71 874.47 1550.25 Q874.47 1543.79 871.797 1540.13 Q869.123 1536.44 864.476 1536.44 Q859.829 1536.44 857.155 1540.13 Q854.514 1543.79 854.514 1550.25 Z" fill="#000000" fill-rule="nonzero" fill-opacity="1" /><path clip-path="url(#clip390)" d="M922.881 1548.76 L922.881 1551.62 L895.954 1551.62 Q896.336 1557.67 899.583 1560.85 Q902.861 1564 908.686 1564 Q912.06 1564 915.211 1563.17 Q918.393 1562.35 921.513 1560.69 L921.513 1566.23 Q918.362 1567.57 915.052 1568.27 Q911.741 1568.97 908.336 1568.97 Q899.806 1568.97 894.809 1564 Q889.843 1559.04 889.843 1550.57 Q889.843 1541.82 894.554 1536.69 Q899.296 1531.54 907.317 1531.54 Q914.51 1531.54 918.68 1536.18 Q922.881 1540.8 922.881 1548.76 M917.025 1547.04 Q916.961 1542.23 914.319 1539.37 Q911.71 1536.5 907.381 1536.5 Q902.479 1536.5 899.519 1539.27 Q896.591 1542.04 896.145 1547.07 L917.025 1547.04 Z" fill="#000000" fill-rule="nonzero" fill-opacity="1" /><path clip-path="url(#clip390)" d="M953.15 1537.87 Q952.164 1537.3 950.986 1537.04 Q949.84 1536.76 948.44 1536.76 Q943.474 1536.76 940.801 1540 Q938.159 1543.22 938.159 1549.27 L938.159 1568.04 L932.271 1568.04 L932.271 1532.4 L938.159 1532.4 L938.159 1537.93 Q940.005 1534.69 942.965 1533.13 Q945.925 1531.54 950.158 1531.54 Q950.763 1531.54 951.495 1531.63 Q952.227 1531.7 953.118 1531.85 L953.15 1537.87 Z" fill="#000000" fill-rule="nonzero" fill-opacity="1" /><path clip-path="url(#clip390)" d="M964.831 1520.52 L964.831 1538.19 L959.42 1538.19 L959.42 1520.52 L964.831 1520.52 Z" fill="#000000" fill-rule="nonzero" fill-opacity="1" /><path clip-path="url(#clip390)" d="M999.938 1533.45 L999.938 1538.98 Q997.456 1537.71 994.782 1537.07 Q992.108 1536.44 989.244 1536.44 Q984.883 1536.44 982.687 1537.77 Q980.523 1539.11 980.523 1541.79 Q980.523 1543.82 982.082 1545 Q983.642 1546.15 988.353 1547.2 L990.358 1547.64 Q996.596 1548.98 999.206 1551.43 Q1001.85 1553.85 1001.85 1558.21 Q1001.85 1563.17 997.901 1566.07 Q993.986 1568.97 987.111 1568.97 Q984.247 1568.97 981.128 1568.39 Q978.04 1567.85 974.603 1566.74 L974.603 1560.69 Q977.849 1562.38 981 1563.24 Q984.151 1564.07 987.239 1564.07 Q991.376 1564.07 993.604 1562.66 Q995.832 1561.23 995.832 1558.65 Q995.832 1556.27 994.209 1554.99 Q992.618 1553.72 987.175 1552.54 L985.138 1552.07 Q979.695 1550.92 977.276 1548.56 Q974.857 1546.18 974.857 1542.04 Q974.857 1537.01 978.422 1534.27 Q981.987 1531.54 988.544 1531.54 Q991.79 1531.54 994.655 1532.01 Q997.519 1532.49 999.938 1533.45 Z" fill="#000000" fill-rule="nonzero" fill-opacity="1" /><path clip-path="url(#clip390)" d="M1037.56 1562.7 L1037.56 1581.6 L1031.67 1581.6 L1031.67 1532.4 L1037.56 1532.4 L1037.56 1537.81 Q1039.41 1534.62 1042.21 1533.1 Q1045.04 1531.54 1048.95 1531.54 Q1055.45 1531.54 1059.49 1536.69 Q1063.56 1541.85 1063.56 1550.25 Q1063.56 1558.65 1059.49 1563.81 Q1055.45 1568.97 1048.95 1568.97 Q1045.04 1568.97 1042.21 1567.44 Q1039.41 1565.88 1037.56 1562.7 M1057.48 1550.25 Q1057.48 1543.79 1054.81 1540.13 Q1052.17 1536.44 1047.52 1536.44 Q1042.87 1536.44 1040.2 1540.13 Q1037.56 1543.79 1037.56 1550.25 Q1037.56 1556.71 1040.2 1560.4 Q1042.87 1564.07 1047.52 1564.07 Q1052.17 1564.07 1054.81 1560.4 Q1057.48 1556.71 1057.48 1550.25 Z" fill="#000000" fill-rule="nonzero" fill-opacity="1" /><path clip-path="url(#clip390)" d="M1093.93 1537.87 Q1092.94 1537.3 1091.76 1537.04 Q1090.62 1536.76 1089.22 1536.76 Q1084.25 1536.76 1081.58 1540 Q1078.94 1543.22 1078.94 1549.27 L1078.94 1568.04 L1073.05 1568.04 L1073.05 1532.4 L1078.94 1532.4 L1078.94 1537.93 Q1080.78 1534.69 1083.74 1533.13 Q1086.7 1531.54 1090.94 1531.54 Q1091.54 1531.54 1092.27 1531.63 Q1093 1531.7 1093.9 1531.85 L1093.93 1537.87 Z" fill="#000000" fill-rule="nonzero" fill-opacity="1" /><path clip-path="url(#clip390)" d="M1100.07 1532.4 L1105.93 1532.4 L1105.93 1568.04 L1100.07 1568.04 L1100.07 1532.4 M1100.07 1518.52 L1105.93 1518.52 L1105.93 1525.93 L1100.07 1525.93 L1100.07 1518.52 Z" fill="#000000" fill-rule="nonzero" fill-opacity="1" /><path clip-path="url(#clip390)" d="M1143.83 1533.76 L1143.83 1539.24 Q1141.35 1537.87 1138.84 1537.2 Q1136.36 1536.5 1133.81 1536.5 Q1128.11 1536.5 1124.96 1540.13 Q1121.81 1543.73 1121.81 1550.25 Q1121.81 1556.78 1124.96 1560.4 Q1128.11 1564 1133.81 1564 Q1136.36 1564 1138.84 1563.33 Q1141.35 1562.63 1143.83 1561.26 L1143.83 1566.68 Q1141.38 1567.82 1138.74 1568.39 Q1136.13 1568.97 1133.17 1568.97 Q1125.12 1568.97 1120.38 1563.91 Q1115.63 1558.85 1115.63 1550.25 Q1115.63 1541.53 1120.41 1536.53 Q1125.22 1531.54 1133.55 1531.54 Q1136.26 1531.54 1138.84 1532.11 Q1141.42 1532.65 1143.83 1533.76 Z" fill="#000000" fill-rule="nonzero" fill-opacity="1" /><path clip-path="url(#clip390)" d="M1184.51 1548.76 L1184.51 1551.62 L1157.58 1551.62 Q1157.97 1557.67 1161.21 1560.85 Q1164.49 1564 1170.32 1564 Q1173.69 1564 1176.84 1563.17 Q1180.02 1562.35 1183.14 1560.69 L1183.14 1566.23 Q1179.99 1567.57 1176.68 1568.27 Q1173.37 1568.97 1169.97 1568.97 Q1161.44 1568.97 1156.44 1564 Q1151.47 1559.04 1151.47 1550.57 Q1151.47 1541.82 1156.18 1536.69 Q1160.93 1531.54 1168.95 1531.54 Q1176.14 1531.54 1180.31 1536.18 Q1184.51 1540.8 1184.51 1548.76 M1178.66 1547.04 Q1178.59 1542.23 1175.95 1539.37 Q1173.34 1536.5 1169.01 1536.5 Q1164.11 1536.5 1161.15 1539.27 Q1158.22 1542.04 1157.78 1547.07 L1178.66 1547.04 Z" fill="#000000" fill-rule="nonzero" fill-opacity="1" /><path clip-path="url(#clip390)" d="M1221.21 1562.63 L1243.65 1562.63 L1243.65 1568.04 L1213.48 1568.04 L1213.48 1562.63 Q1217.14 1558.85 1223.44 1552.48 Q1229.77 1546.08 1231.4 1544.24 Q1234.48 1540.77 1235.69 1538.38 Q1236.93 1535.96 1236.93 1533.64 Q1236.93 1529.85 1234.26 1527.46 Q1231.62 1525.08 1227.35 1525.08 Q1224.33 1525.08 1220.96 1526.13 Q1217.61 1527.18 1213.79 1529.31 L1213.79 1522.82 Q1217.68 1521.26 1221.05 1520.46 Q1224.42 1519.66 1227.23 1519.66 Q1234.61 1519.66 1239 1523.36 Q1243.39 1527.05 1243.39 1533.22 Q1243.39 1536.15 1242.28 1538.79 Q1241.2 1541.4 1238.3 1544.97 Q1237.51 1545.89 1233.24 1550.32 Q1228.98 1554.71 1221.21 1562.63 Z" fill="#000000" fill-rule="nonzero" fill-opacity="1" /><path clip-path="url(#clip390)" d="M1285.95 1546.53 L1285.95 1568.04 L1280.09 1568.04 L1280.09 1546.72 Q1280.09 1541.66 1278.12 1539.14 Q1276.15 1536.63 1272.2 1536.63 Q1267.46 1536.63 1264.72 1539.65 Q1261.98 1542.68 1261.98 1547.9 L1261.98 1568.04 L1256.09 1568.04 L1256.09 1532.4 L1261.98 1532.4 L1261.98 1537.93 Q1264.08 1534.72 1266.92 1533.13 Q1269.78 1531.54 1273.5 1531.54 Q1279.65 1531.54 1282.8 1535.36 Q1285.95 1539.14 1285.95 1546.53 Z" fill="#000000" fill-rule="nonzero" fill-opacity="1" /><path clip-path="url(#clip390)" d="M1321.09 1537.81 L1321.09 1518.52 L1326.94 1518.52 L1326.94 1568.04 L1321.09 1568.04 L1321.09 1562.7 Q1319.24 1565.88 1316.41 1567.44 Q1313.61 1568.97 1309.66 1568.97 Q1303.2 1568.97 1299.13 1563.81 Q1295.08 1558.65 1295.08 1550.25 Q1295.08 1541.85 1299.13 1536.69 Q1303.2 1531.54 1309.66 1531.54 Q1313.61 1531.54 1316.41 1533.1 Q1319.24 1534.62 1321.09 1537.81 M1301.13 1550.25 Q1301.13 1556.71 1303.77 1560.4 Q1306.45 1564.07 1311.09 1564.07 Q1315.74 1564.07 1318.41 1560.4 Q1321.09 1556.71 1321.09 1550.25 Q1321.09 1543.79 1318.41 1540.13 Q1315.74 1536.44 1311.09 1536.44 Q1306.45 1536.44 1303.77 1540.13 Q1301.13 1543.79 1301.13 1550.25 Z" fill="#000000" fill-rule="nonzero" fill-opacity="1" /><path clip-path="url(#clip390)" d="M1383.19 1537.81 L1383.19 1518.52 L1389.04 1518.52 L1389.04 1568.04 L1383.19 1568.04 L1383.19 1562.7 Q1381.34 1565.88 1378.51 1567.44 Q1375.71 1568.97 1371.76 1568.97 Q1365.3 1568.97 1361.22 1563.81 Q1357.18 1558.65 1357.18 1550.25 Q1357.18 1541.85 1361.22 1536.69 Q1365.3 1531.54 1371.76 1531.54 Q1375.71 1531.54 1378.51 1533.1 Q1381.34 1534.62 1383.19 1537.81 M1363.23 1550.25 Q1363.23 1556.71 1365.87 1560.4 Q1368.54 1564.07 1373.19 1564.07 Q1377.84 1564.07 1380.51 1560.4 Q1383.19 1556.71 1383.19 1550.25 Q1383.19 1543.79 1380.51 1540.13 Q1377.84 1536.44 1373.19 1536.44 Q1368.54 1536.44 1365.87 1540.13 Q1363.23 1543.79 1363.23 1550.25 Z" fill="#000000" fill-rule="nonzero" fill-opacity="1" /><path clip-path="url(#clip390)" d="M1431.6 1548.76 L1431.6 1551.62 L1404.67 1551.62 Q1405.05 1557.67 1408.3 1560.85 Q1411.58 1564 1417.4 1564 Q1420.78 1564 1423.93 1563.17 Q1427.11 1562.35 1430.23 1560.69 L1430.23 1566.23 Q1427.08 1567.57 1423.77 1568.27 Q1420.46 1568.97 1417.05 1568.97 Q1408.52 1568.97 1403.52 1564 Q1398.56 1559.04 1398.56 1550.57 Q1398.56 1541.82 1403.27 1536.69 Q1408.01 1531.54 1416.03 1531.54 Q1423.23 1531.54 1427.4 1536.18 Q1431.6 1540.8 1431.6 1548.76 M1425.74 1547.04 Q1425.68 1542.23 1423.03 1539.37 Q1420.42 1536.5 1416.1 1536.5 Q1411.19 1536.5 1408.23 1539.27 Q1405.31 1542.04 1404.86 1547.07 L1425.74 1547.04 Z" fill="#000000" fill-rule="nonzero" fill-opacity="1" /><path clip-path="url(#clip390)" d="M1461.87 1537.87 Q1460.88 1537.3 1459.7 1537.04 Q1458.56 1536.76 1457.16 1536.76 Q1452.19 1536.76 1449.52 1540 Q1446.87 1543.22 1446.87 1549.27 L1446.87 1568.04 L1440.99 1568.04 L1440.99 1532.4 L1446.87 1532.4 L1446.87 1537.93 Q1448.72 1534.69 1451.68 1533.13 Q1454.64 1531.54 1458.87 1531.54 Q1459.48 1531.54 1460.21 1531.63 Q1460.94 1531.7 1461.83 1531.85 L1461.87 1537.87 Z" fill="#000000" fill-rule="nonzero" fill-opacity="1" /><path clip-path="url(#clip390)" d="M1468.01 1532.4 L1473.87 1532.4 L1473.87 1568.04 L1468.01 1568.04 L1468.01 1532.4 M1468.01 1518.52 L1473.87 1518.52 L1473.87 1525.93 L1468.01 1525.93 L1468.01 1518.52 Z" fill="#000000" fill-rule="nonzero" fill-opacity="1" /><path clip-path="url(#clip390)" d="M1481.92 1532.4 L1488.12 1532.4 L1499.26 1562.31 L1510.4 1532.4 L1516.61 1532.4 L1503.24 1568.04 L1495.29 1568.04 L1481.92 1532.4 Z" fill="#000000" fill-rule="nonzero" fill-opacity="1" /><path clip-path="url(#clip390)" d="M1520.46 1559.96 L1527.18 1559.96 L1527.18 1568.04 L1520.46 1568.04 L1520.46 1559.96 Z" fill="#000000" fill-rule="nonzero" fill-opacity="1" /><path clip-path="url(#clip390)" d="M1561.08 1518.52 L1566.93 1518.52 L1566.93 1568.04 L1561.08 1568.04 L1561.08 1518.52 Z" fill="#000000" fill-rule="nonzero" fill-opacity="1" /><path clip-path="url(#clip390)" d="M1595.39 1550.12 Q1588.29 1550.12 1585.55 1551.75 Q1582.81 1553.37 1582.81 1557.29 Q1582.81 1560.4 1584.85 1562.25 Q1586.92 1564.07 1590.45 1564.07 Q1595.32 1564.07 1598.25 1560.63 Q1601.21 1557.16 1601.21 1551.43 L1601.21 1550.12 L1595.39 1550.12 M1607.07 1547.71 L1607.07 1568.04 L1601.21 1568.04 L1601.21 1562.63 Q1599.21 1565.88 1596.21 1567.44 Q1593.22 1568.97 1588.89 1568.97 Q1583.42 1568.97 1580.17 1565.91 Q1576.96 1562.82 1576.96 1557.67 Q1576.96 1551.65 1580.97 1548.6 Q1585.01 1545.54 1593 1545.54 L1601.21 1545.54 L1601.21 1544.97 Q1601.21 1540.93 1598.54 1538.73 Q1595.9 1536.5 1591.09 1536.5 Q1588.03 1536.5 1585.14 1537.23 Q1582.24 1537.97 1579.57 1539.43 L1579.57 1534.02 Q1582.78 1532.78 1585.81 1532.17 Q1588.83 1531.54 1591.69 1531.54 Q1599.43 1531.54 1603.25 1535.55 Q1607.07 1539.56 1607.07 1547.71 Z" fill="#000000" fill-rule="nonzero" fill-opacity="1" /><path clip-path="url(#clip390)" d="M1641.86 1533.45 L1641.86 1538.98 Q1639.37 1537.71 1636.7 1537.07 Q1634.03 1536.44 1631.16 1536.44 Q1626.8 1536.44 1624.6 1537.77 Q1622.44 1539.11 1622.44 1541.79 Q1622.44 1543.82 1624 1545 Q1625.56 1546.15 1630.27 1547.2 L1632.28 1547.64 Q1638.51 1548.98 1641.12 1551.43 Q1643.77 1553.85 1643.77 1558.21 Q1643.77 1563.17 1639.82 1566.07 Q1635.9 1568.97 1629.03 1568.97 Q1626.16 1568.97 1623.05 1568.39 Q1619.96 1567.85 1616.52 1566.74 L1616.52 1560.69 Q1619.77 1562.38 1622.92 1563.24 Q1626.07 1564.07 1629.16 1564.07 Q1633.29 1564.07 1635.52 1562.66 Q1637.75 1561.23 1637.75 1558.65 Q1637.75 1556.27 1636.13 1554.99 Q1634.54 1553.72 1629.09 1552.54 L1627.06 1552.07 Q1621.61 1550.92 1619.19 1548.56 Q1616.78 1546.18 1616.78 1542.04 Q1616.78 1537.01 1620.34 1534.27 Q1623.9 1531.54 1630.46 1531.54 Q1633.71 1531.54 1636.57 1532.01 Q1639.44 1532.49 1641.86 1533.45 Z" fill="#000000" fill-rule="nonzero" fill-opacity="1" /><path clip-path="url(#clip390)" d="M1658.88 1522.27 L1658.88 1532.4 L1670.95 1532.4 L1670.95 1536.95 L1658.88 1536.95 L1658.88 1556.3 Q1658.88 1560.66 1660.06 1561.9 Q1661.27 1563.14 1664.93 1563.14 L1670.95 1563.14 L1670.95 1568.04 L1664.93 1568.04 Q1658.15 1568.04 1655.57 1565.53 Q1653 1562.98 1653 1556.3 L1653 1536.95 L1648.7 1536.95 L1648.7 1532.4 L1653 1532.4 L1653 1522.27 L1658.88 1522.27 Z" fill="#000000" fill-rule="nonzero" fill-opacity="1" /><path clip-path="url(#clip390)" d="M1701.31 1562.63 L1711.82 1562.63 L1711.82 1526.38 L1700.39 1528.67 L1700.39 1522.82 L1711.75 1520.52 L1718.18 1520.52 L1718.18 1562.63 L1728.68 1562.63 L1728.68 1568.04 L1701.31 1568.04 L1701.31 1562.63 Z" fill="#000000" fill-rule="nonzero" fill-opacity="1" /><path clip-path="url(#clip390)" d="M1777.76 1550.12 Q1770.67 1550.12 1767.93 1551.75 Q1765.19 1553.37 1765.19 1557.29 Q1765.19 1560.4 1767.23 1562.25 Q1769.3 1564.07 1772.83 1564.07 Q1777.7 1564.07 1780.63 1560.63 Q1783.59 1557.16 1783.59 1551.43 L1783.59 1550.12 L1777.76 1550.12 M1789.44 1547.71 L1789.44 1568.04 L1783.59 1568.04 L1783.59 1562.63 Q1781.58 1565.88 1778.59 1567.44 Q1775.6 1568.97 1771.27 1568.97 Q1765.8 1568.97 1762.55 1565.91 Q1759.34 1562.82 1759.34 1557.67 Q1759.34 1551.65 1763.35 1548.6 Q1767.39 1545.54 1775.38 1545.54 L1783.59 1545.54 L1783.59 1544.97 Q1783.59 1540.93 1780.91 1538.73 Q1778.27 1536.5 1773.47 1536.5 Q1770.41 1536.5 1767.52 1537.23 Q1764.62 1537.97 1761.95 1539.43 L1761.95 1534.02 Q1765.16 1532.78 1768.18 1532.17 Q1771.21 1531.54 1774.07 1531.54 Q1781.81 1531.54 1785.63 1535.55 Q1789.44 1539.56 1789.44 1547.71 Z" fill="#000000" fill-rule="nonzero" fill-opacity="1" /><path clip-path="url(#clip390)" d="M1797.31 1532.4 L1803.51 1532.4 L1814.65 1562.31 L1825.79 1532.4 L1832 1532.4 L1818.63 1568.04 L1810.67 1568.04 L1797.31 1532.4 Z" fill="#000000" fill-rule="nonzero" fill-opacity="1" /><path clip-path="url(#clip390)" d="M1863.54 1549.81 Q1863.54 1543.44 1860.9 1539.94 Q1858.29 1536.44 1853.55 1536.44 Q1848.84 1536.44 1846.2 1539.94 Q1843.59 1543.44 1843.59 1549.81 Q1843.59 1556.14 1846.2 1559.64 Q1848.84 1563.14 1853.55 1563.14 Q1858.29 1563.14 1860.9 1559.64 Q1863.54 1556.14 1863.54 1549.81 M1869.4 1563.62 Q1869.4 1572.72 1865.36 1577.15 Q1861.31 1581.6 1852.97 1581.6 Q1849.89 1581.6 1847.15 1581.13 Q1844.41 1580.68 1841.83 1579.72 L1841.83 1574.03 Q1844.41 1575.43 1846.93 1576.1 Q1849.44 1576.76 1852.05 1576.76 Q1857.81 1576.76 1860.68 1573.74 Q1863.54 1570.75 1863.54 1564.67 L1863.54 1561.77 Q1861.73 1564.92 1858.89 1566.48 Q1856.06 1568.04 1852.12 1568.04 Q1845.56 1568.04 1841.55 1563.05 Q1837.54 1558.05 1837.54 1549.81 Q1837.54 1541.53 1841.55 1536.53 Q1845.56 1531.54 1852.12 1531.54 Q1856.06 1531.54 1858.89 1533.1 Q1861.73 1534.66 1863.54 1537.81 L1863.54 1532.4 L1869.4 1532.4 L1869.4 1563.62 Z" fill="#000000" fill-rule="nonzero" fill-opacity="1" /><path clip-path="url(#clip390)" d="M1882.29 1559.96 L1889 1559.96 L1889 1568.04 L1882.29 1568.04 L1882.29 1559.96 Z" fill="#000000" fill-rule="nonzero" fill-opacity="1" /><polyline clip-path="url(#clip390)" style="stroke:#000000; stroke-linecap:round; stroke-linejoin:round; stroke-width:4; stroke-opacity:1; fill:none" points="272.297,1423.18 272.297,123.472 "/>
<polyline clip-path="url(#clip390)" style="stroke:#000000; stroke-linecap:round; stroke-linejoin:round; stroke-width:4; stroke-opacity:1; fill:none" points="272.297,1362.49 291.194,1362.49 "/>
<polyline clip-path="url(#clip390)" style="stroke:#000000; stroke-linecap:round; stroke-linejoin:round; stroke-width:4; stroke-opacity:1; fill:none" points="272.297,960.72 291.194,960.72 "/>
<polyline clip-path="url(#clip390)" style="stroke:#000000; stroke-linecap:round; stroke-linejoin:round; stroke-width:4; stroke-opacity:1; fill:none" points="272.297,558.95 291.194,558.95 "/>
<polyline clip-path="url(#clip390)" style="stroke:#000000; stroke-linecap:round; stroke-linejoin:round; stroke-width:4; stroke-opacity:1; fill:none" points="272.297,157.181 291.194,157.181 "/>
<path clip-path="url(#clip390)" d="M114.26 1362.94 L143.936 1362.94 L143.936 1366.88 L114.26 1366.88 L114.26 1362.94 Z" fill="#000000" fill-rule="nonzero" fill-opacity="1" /><path clip-path="url(#clip390)" d="M158.056 1375.83 L174.376 1375.83 L174.376 1379.77 L152.431 1379.77 L152.431 1375.83 Q155.093 1373.08 159.677 1368.45 Q164.283 1363.8 165.464 1362.45 Q167.709 1359.93 168.589 1358.2 Q169.491 1356.44 169.491 1354.75 Q169.491 1351.99 167.547 1350.26 Q165.626 1348.52 162.524 1348.52 Q160.325 1348.52 157.871 1349.28 Q155.44 1350.05 152.663 1351.6 L152.663 1346.88 Q155.487 1345.74 157.94 1345.16 Q160.394 1344.58 162.431 1344.58 Q167.802 1344.58 170.996 1347.27 Q174.19 1349.95 174.19 1354.45 Q174.19 1356.57 173.38 1358.5 Q172.593 1360.39 170.487 1362.99 Q169.908 1363.66 166.806 1366.88 Q163.704 1370.07 158.056 1375.83 Z" fill="#000000" fill-rule="nonzero" fill-opacity="1" /><path clip-path="url(#clip390)" d="M194.19 1348.29 Q190.579 1348.29 188.75 1351.85 Q186.945 1355.39 186.945 1362.52 Q186.945 1369.63 188.75 1373.19 Q190.579 1376.74 194.19 1376.74 Q197.825 1376.74 199.63 1373.19 Q201.459 1369.63 201.459 1362.52 Q201.459 1355.39 199.63 1351.85 Q197.825 1348.29 194.19 1348.29 M194.19 1344.58 Q200 1344.58 203.056 1349.19 Q206.135 1353.77 206.135 1362.52 Q206.135 1371.25 203.056 1375.86 Q200 1380.44 194.19 1380.44 Q188.38 1380.44 185.301 1375.86 Q182.246 1371.25 182.246 1362.52 Q182.246 1353.77 185.301 1349.19 Q188.38 1344.58 194.19 1344.58 Z" fill="#000000" fill-rule="nonzero" fill-opacity="1" /><path clip-path="url(#clip390)" d="M224.352 1348.29 Q220.741 1348.29 218.912 1351.85 Q217.107 1355.39 217.107 1362.52 Q217.107 1369.63 218.912 1373.19 Q220.741 1376.74 224.352 1376.74 Q227.986 1376.74 229.792 1373.19 Q231.621 1369.63 231.621 1362.52 Q231.621 1355.39 229.792 1351.85 Q227.986 1348.29 224.352 1348.29 M224.352 1344.58 Q230.162 1344.58 233.218 1349.19 Q236.297 1353.77 236.297 1362.52 Q236.297 1371.25 233.218 1375.86 Q230.162 1380.44 224.352 1380.44 Q218.542 1380.44 215.463 1375.86 Q212.408 1371.25 212.408 1362.52 Q212.408 1353.77 215.463 1349.19 Q218.542 1344.58 224.352 1344.58 Z" fill="#000000" fill-rule="nonzero" fill-opacity="1" /><path clip-path="url(#clip390)" d="M114.26 961.171 L143.936 961.171 L143.936 965.106 L114.26 965.106 L114.26 961.171 Z" fill="#000000" fill-rule="nonzero" fill-opacity="1" /><path clip-path="url(#clip390)" d="M154.839 974.064 L162.477 974.064 L162.477 947.699 L154.167 949.365 L154.167 945.106 L162.431 943.44 L167.107 943.44 L167.107 974.064 L174.746 974.064 L174.746 978 L154.839 978 L154.839 974.064 Z" fill="#000000" fill-rule="nonzero" fill-opacity="1" /><path clip-path="url(#clip390)" d="M194.19 946.518 Q190.579 946.518 188.75 950.083 Q186.945 953.625 186.945 960.754 Q186.945 967.861 188.75 971.426 Q190.579 974.967 194.19 974.967 Q197.825 974.967 199.63 971.426 Q201.459 967.861 201.459 960.754 Q201.459 953.625 199.63 950.083 Q197.825 946.518 194.19 946.518 M194.19 942.815 Q200 942.815 203.056 947.421 Q206.135 952.004 206.135 960.754 Q206.135 969.481 203.056 974.088 Q200 978.671 194.19 978.671 Q188.38 978.671 185.301 974.088 Q182.246 969.481 182.246 960.754 Q182.246 952.004 185.301 947.421 Q188.38 942.815 194.19 942.815 Z" fill="#000000" fill-rule="nonzero" fill-opacity="1" /><path clip-path="url(#clip390)" d="M224.352 946.518 Q220.741 946.518 218.912 950.083 Q217.107 953.625 217.107 960.754 Q217.107 967.861 218.912 971.426 Q220.741 974.967 224.352 974.967 Q227.986 974.967 229.792 971.426 Q231.621 967.861 231.621 960.754 Q231.621 953.625 229.792 950.083 Q227.986 946.518 224.352 946.518 M224.352 942.815 Q230.162 942.815 233.218 947.421 Q236.297 952.004 236.297 960.754 Q236.297 969.481 233.218 974.088 Q230.162 978.671 224.352 978.671 Q218.542 978.671 215.463 974.088 Q212.408 969.481 212.408 960.754 Q212.408 952.004 215.463 947.421 Q218.542 942.815 224.352 942.815 Z" fill="#000000" fill-rule="nonzero" fill-opacity="1" /><path clip-path="url(#clip390)" d="M224.352 544.749 Q220.741 544.749 218.912 548.314 Q217.107 551.855 217.107 558.985 Q217.107 566.091 218.912 569.656 Q220.741 573.198 224.352 573.198 Q227.986 573.198 229.792 569.656 Q231.621 566.091 231.621 558.985 Q231.621 551.855 229.792 548.314 Q227.986 544.749 224.352 544.749 M224.352 541.045 Q230.162 541.045 233.218 545.652 Q236.297 550.235 236.297 558.985 Q236.297 567.712 233.218 572.318 Q230.162 576.901 224.352 576.901 Q218.542 576.901 215.463 572.318 Q212.408 567.712 212.408 558.985 Q212.408 550.235 215.463 545.652 Q218.542 541.045 224.352 541.045 Z" fill="#000000" fill-rule="nonzero" fill-opacity="1" /><path clip-path="url(#clip390)" d="M154.839 170.525 L162.477 170.525 L162.477 144.16 L154.167 145.826 L154.167 141.567 L162.431 139.901 L167.107 139.901 L167.107 170.525 L174.746 170.525 L174.746 174.461 L154.839 174.461 L154.839 170.525 Z" fill="#000000" fill-rule="nonzero" fill-opacity="1" /><path clip-path="url(#clip390)" d="M194.19 142.979 Q190.579 142.979 188.75 146.544 Q186.945 150.086 186.945 157.215 Q186.945 164.322 188.75 167.887 Q190.579 171.428 194.19 171.428 Q197.825 171.428 199.63 167.887 Q201.459 164.322 201.459 157.215 Q201.459 150.086 199.63 146.544 Q197.825 142.979 194.19 142.979 M194.19 139.276 Q200 139.276 203.056 143.882 Q206.135 148.465 206.135 157.215 Q206.135 165.942 203.056 170.549 Q200 175.132 194.19 175.132 Q188.38 175.132 185.301 170.549 Q182.246 165.942 182.246 157.215 Q182.246 148.465 185.301 143.882 Q188.38 139.276 194.19 139.276 Z" fill="#000000" fill-rule="nonzero" fill-opacity="1" /><path clip-path="url(#clip390)" d="M224.352 142.979 Q220.741 142.979 218.912 146.544 Q217.107 150.086 217.107 157.215 Q217.107 164.322 218.912 167.887 Q220.741 171.428 224.352 171.428 Q227.986 171.428 229.792 167.887 Q231.621 164.322 231.621 157.215 Q231.621 150.086 229.792 146.544 Q227.986 142.979 224.352 142.979 M224.352 139.276 Q230.162 139.276 233.218 143.882 Q236.297 148.465 236.297 157.215 Q236.297 165.942 233.218 170.549 Q230.162 175.132 224.352 175.132 Q218.542 175.132 215.463 170.549 Q212.408 165.942 212.408 157.215 Q212.408 148.465 215.463 143.882 Q218.542 139.276 224.352 139.276 Z" fill="#000000" fill-rule="nonzero" fill-opacity="1" /><path clip-path="url(#clip390)" d="M21.7677 1199.22 L39.6235 1199.22 L39.6235 1191.14 Q39.6235 1186.65 37.3 1184.2 Q34.9765 1181.75 30.6797 1181.75 Q26.4147 1181.75 24.0912 1184.2 Q21.7677 1186.65 21.7677 1191.14 L21.7677 1199.22 M16.4842 1205.65 L16.4842 1191.14 Q16.4842 1183.15 20.1126 1179.08 Q23.7092 1174.97 30.6797 1174.97 Q37.7138 1174.97 41.3104 1179.08 Q44.907 1183.15 44.907 1191.14 L44.907 1199.22 L64.0042 1199.22 L64.0042 1205.65 L16.4842 1205.65 Z" fill="#000000" fill-rule="nonzero" fill-opacity="1" /><path clip-path="url(#clip390)" d="M33.8307 1147.09 Q33.2578 1148.08 33.0032 1149.25 Q32.7167 1150.4 32.7167 1151.8 Q32.7167 1156.76 35.9632 1159.44 Q39.1779 1162.08 45.2253 1162.08 L64.0042 1162.08 L64.0042 1167.97 L28.3562 1167.97 L28.3562 1162.08 L33.8944 1162.08 Q30.6479 1160.23 29.0883 1157.27 Q27.4968 1154.31 27.4968 1150.08 Q27.4968 1149.48 27.5923 1148.74 Q27.656 1148.01 27.8151 1147.12 L33.8307 1147.09 Z" fill="#000000" fill-rule="nonzero" fill-opacity="1" /><path clip-path="url(#clip390)" d="M32.4621 1128.56 Q32.4621 1133.27 36.1542 1136.01 Q39.8145 1138.75 46.212 1138.75 Q52.6095 1138.75 56.3017 1136.04 Q59.9619 1133.31 59.9619 1128.56 Q59.9619 1123.89 56.2698 1121.15 Q52.5777 1118.41 46.212 1118.41 Q39.8781 1118.41 36.186 1121.15 Q32.4621 1123.89 32.4621 1128.56 M27.4968 1128.56 Q27.4968 1120.93 32.4621 1116.56 Q37.4273 1112.2 46.212 1112.2 Q54.9649 1112.2 59.9619 1116.56 Q64.9272 1120.93 64.9272 1128.56 Q64.9272 1136.23 59.9619 1140.6 Q54.9649 1144.92 46.212 1144.92 Q37.4273 1144.92 32.4621 1140.6 Q27.4968 1136.23 27.4968 1128.56 Z" fill="#000000" fill-rule="nonzero" fill-opacity="1" /><path clip-path="url(#clip390)" d="M14.479 1084.45 L19.3487 1084.45 L19.3487 1090.05 Q19.3487 1093.2 20.6219 1094.44 Q21.895 1095.65 25.2052 1095.65 L28.3562 1095.65 L28.3562 1086.01 L32.9077 1086.01 L32.9077 1095.65 L64.0042 1095.65 L64.0042 1101.54 L32.9077 1101.54 L32.9077 1107.14 L28.3562 1107.14 L28.3562 1101.54 L25.8736 1101.54 Q19.9216 1101.54 17.2162 1098.77 Q14.479 1096 14.479 1089.99 L14.479 1084.45 Z" fill="#000000" fill-rule="nonzero" fill-opacity="1" /><path clip-path="url(#clip390)" d="M28.3562 1079.55 L28.3562 1073.69 L64.0042 1073.69 L64.0042 1079.55 L28.3562 1079.55 M14.479 1079.55 L14.479 1073.69 L21.895 1073.69 L21.895 1079.55 L14.479 1079.55 Z" fill="#000000" fill-rule="nonzero" fill-opacity="1" /><path clip-path="url(#clip390)" d="M18.2347 1055.65 L28.3562 1055.65 L28.3562 1043.58 L32.9077 1043.58 L32.9077 1055.65 L52.2594 1055.65 Q56.6199 1055.65 57.8613 1054.47 Q59.1026 1053.26 59.1026 1049.6 L59.1026 1043.58 L64.0042 1043.58 L64.0042 1049.6 Q64.0042 1056.38 61.4897 1058.96 Q58.9434 1061.53 52.2594 1061.53 L32.9077 1061.53 L32.9077 1065.83 L28.3562 1065.83 L28.3562 1061.53 L18.2347 1061.53 L18.2347 1055.65 Z" fill="#000000" fill-rule="nonzero" fill-opacity="1" /><path clip-path="url(#clip390)" d="M58.5933 1008.79 L58.5933 986.354 L64.0042 986.354 L64.0042 1016.53 L58.5933 1016.53 Q54.8057 1012.87 48.44 1006.57 Q42.0425 1000.23 40.1964 998.608 Q36.7271 995.521 34.34 994.311 Q31.921 993.07 29.5975 993.07 Q25.8099 993.07 23.4228 995.744 Q21.0356 998.386 21.0356 1002.65 Q21.0356 1005.67 22.086 1009.05 Q23.1363 1012.39 25.2688 1016.21 L18.7758 1016.21 Q17.2162 1012.33 16.4205 1008.95 Q15.6248 1005.58 15.6248 1002.78 Q15.6248 995.394 19.3169 991.001 Q23.009 986.609 29.1837 986.609 Q32.112 986.609 34.7537 987.723 Q37.3637 988.805 40.9285 991.702 Q41.8515 992.497 46.2757 996.762 Q50.668 1001.03 58.5933 1008.79 Z" fill="#000000" fill-rule="nonzero" fill-opacity="1" /><path clip-path="url(#clip390)" d="M42.4881 944.054 L64.0042 944.054 L64.0042 949.911 L42.679 949.911 Q37.6183 949.911 35.1038 951.884 Q32.5894 953.857 32.5894 957.804 Q32.5894 962.547 35.6131 965.284 Q38.6368 968.021 43.8567 968.021 L64.0042 968.021 L64.0042 973.909 L28.3562 973.909 L28.3562 968.021 L33.8944 968.021 Q30.6797 965.92 29.0883 963.088 Q27.4968 960.223 27.4968 956.499 Q27.4968 950.356 31.3163 947.205 Q35.1038 944.054 42.4881 944.054 Z" fill="#000000" fill-rule="nonzero" fill-opacity="1" /><path clip-path="url(#clip390)" d="M33.7671 908.916 L14.479 908.916 L14.479 903.059 L64.0042 903.059 L64.0042 908.916 L58.657 908.916 Q61.8398 910.762 63.3994 913.594 Q64.9272 916.395 64.9272 920.342 Q64.9272 926.803 59.771 930.877 Q54.6147 934.919 46.212 934.919 Q37.8093 934.919 32.6531 930.877 Q27.4968 926.803 27.4968 920.342 Q27.4968 916.395 29.0564 913.594 Q30.5842 910.762 33.7671 908.916 M46.212 928.872 Q52.6732 928.872 56.3653 926.23 Q60.0256 923.557 60.0256 918.91 Q60.0256 914.263 56.3653 911.589 Q52.6732 908.916 46.212 908.916 Q39.7508 908.916 36.0905 911.589 Q32.3984 914.263 32.3984 918.91 Q32.3984 923.557 36.0905 926.23 Q39.7508 928.872 46.212 928.872 Z" fill="#000000" fill-rule="nonzero" fill-opacity="1" /><path clip-path="url(#clip390)" d="M33.7671 846.818 L14.479 846.818 L14.479 840.962 L64.0042 840.962 L64.0042 846.818 L58.657 846.818 Q61.8398 848.664 63.3994 851.497 Q64.9272 854.298 64.9272 858.245 Q64.9272 864.706 59.771 868.78 Q54.6147 872.822 46.212 872.822 Q37.8093 872.822 32.6531 868.78 Q27.4968 864.706 27.4968 858.245 Q27.4968 854.298 29.0564 851.497 Q30.5842 848.664 33.7671 846.818 M46.212 866.775 Q52.6732 866.775 56.3653 864.133 Q60.0256 861.459 60.0256 856.812 Q60.0256 852.165 56.3653 849.492 Q52.6732 846.818 46.212 846.818 Q39.7508 846.818 36.0905 849.492 Q32.3984 852.165 32.3984 856.812 Q32.3984 861.459 36.0905 864.133 Q39.7508 866.775 46.212 866.775 Z" fill="#000000" fill-rule="nonzero" fill-opacity="1" /><path clip-path="url(#clip390)" d="M44.7161 798.407 L47.5806 798.407 L47.5806 825.334 Q53.6281 824.952 56.8109 821.705 Q59.9619 818.427 59.9619 812.602 Q59.9619 809.229 59.1344 806.078 Q58.3069 802.895 56.6518 799.775 L62.1899 799.775 Q63.5267 802.927 64.227 806.237 Q64.9272 809.547 64.9272 812.953 Q64.9272 821.483 59.9619 826.48 Q54.9967 831.445 46.5303 831.445 Q37.7774 831.445 32.6531 826.734 Q27.4968 821.992 27.4968 813.971 Q27.4968 806.778 32.1438 802.608 Q36.7589 798.407 44.7161 798.407 M42.9973 804.263 Q38.1912 804.327 35.3266 806.969 Q32.4621 809.579 32.4621 813.907 Q32.4621 818.809 35.2312 821.769 Q38.0002 824.697 43.0292 825.143 L42.9973 804.263 Z" fill="#000000" fill-rule="nonzero" fill-opacity="1" /><path clip-path="url(#clip390)" d="M33.8307 768.138 Q33.2578 769.125 33.0032 770.302 Q32.7167 771.448 32.7167 772.849 Q32.7167 777.814 35.9632 780.487 Q39.1779 783.129 45.2253 783.129 L64.0042 783.129 L64.0042 789.017 L28.3562 789.017 L28.3562 783.129 L33.8944 783.129 Q30.6479 781.283 29.0883 778.323 Q27.4968 775.363 27.4968 771.13 Q27.4968 770.525 27.5923 769.793 Q27.656 769.061 27.8151 768.17 L33.8307 768.138 Z" fill="#000000" fill-rule="nonzero" fill-opacity="1" /><path clip-path="url(#clip390)" d="M28.3562 761.995 L28.3562 756.139 L64.0042 756.139 L64.0042 761.995 L28.3562 761.995 M14.479 761.995 L14.479 756.139 L21.895 756.139 L21.895 761.995 L14.479 761.995 Z" fill="#000000" fill-rule="nonzero" fill-opacity="1" /><path clip-path="url(#clip390)" d="M28.3562 748.086 L28.3562 741.879 L58.275 730.739 L28.3562 719.599 L28.3562 713.393 L64.0042 726.761 L64.0042 734.718 L28.3562 748.086 Z" fill="#000000" fill-rule="nonzero" fill-opacity="1" /><path clip-path="url(#clip390)" d="M55.9197 709.542 L55.9197 702.826 L64.0042 702.826 L64.0042 709.542 L55.9197 709.542 Z" fill="#000000" fill-rule="nonzero" fill-opacity="1" /><path clip-path="url(#clip390)" d="M14.479 668.928 L14.479 663.072 L64.0042 663.072 L64.0042 668.928 L14.479 668.928 Z" fill="#000000" fill-rule="nonzero" fill-opacity="1" /><path clip-path="url(#clip390)" d="M46.0847 634.617 Q46.0847 641.715 47.7079 644.452 Q49.3312 647.19 53.2461 647.19 Q56.3653 647.19 58.2114 645.152 Q60.0256 643.084 60.0256 639.551 Q60.0256 634.681 56.5881 631.753 Q53.1188 628.793 47.3897 628.793 L46.0847 628.793 L46.0847 634.617 M43.6657 622.936 L64.0042 622.936 L64.0042 628.793 L58.5933 628.793 Q61.8398 630.798 63.3994 633.79 Q64.9272 636.782 64.9272 641.11 Q64.9272 646.585 61.8716 649.831 Q58.7843 653.046 53.6281 653.046 Q47.6125 653.046 44.5569 649.036 Q41.5014 644.993 41.5014 637.004 L41.5014 628.793 L40.9285 628.793 Q36.8862 628.793 34.6901 631.466 Q32.4621 634.108 32.4621 638.914 Q32.4621 641.97 33.1941 644.866 Q33.9262 647.762 35.3903 650.436 L29.9795 650.436 Q28.7381 647.221 28.1334 644.198 Q27.4968 641.174 27.4968 638.309 Q27.4968 630.575 31.5072 626.756 Q35.5176 622.936 43.6657 622.936 Z" fill="#000000" fill-rule="nonzero" fill-opacity="1" /><path clip-path="url(#clip390)" d="M29.4065 588.148 L34.9447 588.148 Q33.6716 590.63 33.035 593.304 Q32.3984 595.977 32.3984 598.842 Q32.3984 603.202 33.7352 605.399 Q35.072 607.563 37.7456 607.563 Q39.7826 607.563 40.9603 606.003 Q42.1061 604.444 43.1565 599.733 L43.6021 597.728 Q44.9389 591.49 47.3897 588.88 Q49.8086 586.238 54.1691 586.238 Q59.1344 586.238 62.0308 590.185 Q64.9272 594.1 64.9272 600.974 Q64.9272 603.839 64.3543 606.958 Q63.8132 610.046 62.6992 613.483 L56.6518 613.483 Q58.3387 610.237 59.198 607.086 Q60.0256 603.935 60.0256 600.847 Q60.0256 596.709 58.6251 594.481 Q57.1929 592.253 54.6147 592.253 Q52.2276 592.253 50.9545 593.877 Q49.6813 595.468 48.5037 600.911 L48.0262 602.948 Q46.8804 608.391 44.5251 610.809 Q42.138 613.228 38.0002 613.228 Q32.9713 613.228 30.2341 609.664 Q27.4968 606.099 27.4968 599.542 Q27.4968 596.296 27.9743 593.431 Q28.4517 590.567 29.4065 588.148 Z" fill="#000000" fill-rule="nonzero" fill-opacity="1" /><path clip-path="url(#clip390)" d="M18.2347 571.119 L28.3562 571.119 L28.3562 559.056 L32.9077 559.056 L32.9077 571.119 L52.2594 571.119 Q56.6199 571.119 57.8613 569.942 Q59.1026 568.732 59.1026 565.072 L59.1026 559.056 L64.0042 559.056 L64.0042 565.072 Q64.0042 571.851 61.4897 574.429 Q58.9434 577.008 52.2594 577.008 L32.9077 577.008 L32.9077 581.304 L28.3562 581.304 L28.3562 577.008 L18.2347 577.008 L18.2347 571.119 Z" fill="#000000" fill-rule="nonzero" fill-opacity="1" /><path clip-path="url(#clip390)" d="M58.5933 528.692 L58.5933 518.188 L22.3406 518.188 L24.6323 529.615 L18.7758 529.615 L16.4842 518.252 L16.4842 511.823 L58.5933 511.823 L58.5933 501.319 L64.0042 501.319 L64.0042 528.692 L58.5933 528.692 Z" fill="#000000" fill-rule="nonzero" fill-opacity="1" /><path clip-path="url(#clip390)" d="M46.0847 452.24 Q46.0847 459.338 47.7079 462.075 Q49.3312 464.812 53.2461 464.812 Q56.3653 464.812 58.2114 462.775 Q60.0256 460.706 60.0256 457.173 Q60.0256 452.303 56.5881 449.375 Q53.1188 446.415 47.3897 446.415 L46.0847 446.415 L46.0847 452.24 M43.6657 440.559 L64.0042 440.559 L64.0042 446.415 L58.5933 446.415 Q61.8398 448.42 63.3994 451.412 Q64.9272 454.404 64.9272 458.733 Q64.9272 464.207 61.8716 467.454 Q58.7843 470.668 53.6281 470.668 Q47.6125 470.668 44.5569 466.658 Q41.5014 462.616 41.5014 454.627 L41.5014 446.415 L40.9285 446.415 Q36.8862 446.415 34.6901 449.089 Q32.4621 451.73 32.4621 456.537 Q32.4621 459.592 33.1941 462.489 Q33.9262 465.385 35.3903 468.059 L29.9795 468.059 Q28.7381 464.844 28.1334 461.82 Q27.4968 458.796 27.4968 455.932 Q27.4968 448.198 31.5072 444.378 Q35.5176 440.559 43.6657 440.559 Z" fill="#000000" fill-rule="nonzero" fill-opacity="1" /><path clip-path="url(#clip390)" d="M28.3562 432.697 L28.3562 426.49 L58.275 415.35 L28.3562 404.21 L28.3562 398.004 L64.0042 411.372 L64.0042 419.329 L28.3562 432.697 Z" fill="#000000" fill-rule="nonzero" fill-opacity="1" /><path clip-path="url(#clip390)" d="M45.7664 366.462 Q39.4007 366.462 35.8996 369.104 Q32.3984 371.714 32.3984 376.456 Q32.3984 381.167 35.8996 383.808 Q39.4007 386.418 45.7664 386.418 Q52.1003 386.418 55.6014 383.808 Q59.1026 381.167 59.1026 376.456 Q59.1026 371.714 55.6014 369.104 Q52.1003 366.462 45.7664 366.462 M59.58 360.605 Q68.683 360.605 73.1071 364.648 Q77.5631 368.69 77.5631 377.029 Q77.5631 380.116 77.0857 382.854 Q76.6401 385.591 75.6852 388.169 L69.9879 388.169 Q71.3884 385.591 72.0568 383.076 Q72.7252 380.562 72.7252 377.952 Q72.7252 372.191 69.7015 369.326 Q66.7096 366.462 60.6303 366.462 L57.7339 366.462 Q60.885 368.276 62.4446 371.109 Q64.0042 373.942 64.0042 377.888 Q64.0042 384.445 59.0071 388.455 Q54.01 392.466 45.7664 392.466 Q37.491 392.466 32.4939 388.455 Q27.4968 384.445 27.4968 377.888 Q27.4968 373.942 29.0564 371.109 Q30.616 368.276 33.7671 366.462 L28.3562 366.462 L28.3562 360.605 L59.58 360.605 Z" fill="#000000" fill-rule="nonzero" fill-opacity="1" /><path clip-path="url(#clip390)" d="M55.9197 347.715 L55.9197 340.999 L64.0042 340.999 L64.0042 347.715 L55.9197 347.715 Z" fill="#000000" fill-rule="nonzero" fill-opacity="1" /><path clip-path="url(#clip390)" d="M250.825 65.6895 L279.384 65.6895 L279.384 72.576 L240.981 72.576 L240.981 65.6895 Q245.64 60.8689 253.66 52.7671 Q261.722 44.6248 263.788 42.2752 Q267.717 37.8598 269.256 34.8216 Q270.836 31.7429 270.836 28.7857 Q270.836 23.9651 267.433 20.927 Q264.071 17.8888 258.643 17.8888 Q254.795 17.8888 250.501 19.2256 Q246.247 20.5624 241.386 23.2765 L241.386 15.0127 Q246.328 13.0277 250.622 12.015 Q254.916 11.0023 258.481 11.0023 Q267.879 11.0023 273.469 15.7013 Q279.06 20.4004 279.06 28.2591 Q279.06 31.9859 277.642 35.3482 Q276.264 38.6699 272.578 43.2069 Q271.565 44.3817 266.137 50.0125 Q260.709 55.6027 250.825 65.6895 Z" fill="#000000" fill-rule="nonzero" fill-opacity="1" /><path clip-path="url(#clip390)" d="M333.22 45.1919 L333.22 72.576 L325.766 72.576 L325.766 45.4349 Q325.766 38.994 323.255 35.7938 Q320.743 32.5936 315.72 32.5936 Q309.684 32.5936 306.201 36.4419 Q302.717 40.2903 302.717 46.9338 L302.717 72.576 L295.223 72.576 L295.223 27.2059 L302.717 27.2059 L302.717 34.2544 Q305.39 30.163 308.996 28.1376 Q312.642 26.1121 317.381 26.1121 Q325.199 26.1121 329.21 30.9732 Q333.22 35.7938 333.22 45.1919 Z" fill="#000000" fill-rule="nonzero" fill-opacity="1" /><path clip-path="url(#clip390)" d="M377.942 34.0924 L377.942 9.54393 L385.396 9.54393 L385.396 72.576 L377.942 72.576 L377.942 65.7705 Q375.593 69.8214 371.987 71.8063 Q368.422 73.7508 363.399 73.7508 Q355.176 73.7508 349.991 67.1883 Q344.846 60.6258 344.846 49.9314 Q344.846 39.2371 349.991 32.6746 Q355.176 26.1121 363.399 26.1121 Q368.422 26.1121 371.987 28.0971 Q375.593 30.0415 377.942 34.0924 M352.543 49.9314 Q352.543 58.1548 355.905 62.8538 Q359.308 67.5124 365.222 67.5124 Q371.137 67.5124 374.539 62.8538 Q377.942 58.1548 377.942 49.9314 Q377.942 41.7081 374.539 37.0496 Q371.137 32.3505 365.222 32.3505 Q359.308 32.3505 355.905 37.0496 Q352.543 41.7081 352.543 49.9314 Z" fill="#000000" fill-rule="nonzero" fill-opacity="1" /><path clip-path="url(#clip390)" d="M456.975 34.0924 L456.975 9.54393 L464.429 9.54393 L464.429 72.576 L456.975 72.576 L456.975 65.7705 Q454.626 69.8214 451.02 71.8063 Q447.456 73.7508 442.433 73.7508 Q434.209 73.7508 429.024 67.1883 Q423.879 60.6258 423.879 49.9314 Q423.879 39.2371 429.024 32.6746 Q434.209 26.1121 442.433 26.1121 Q447.456 26.1121 451.02 28.0971 Q454.626 30.0415 456.975 34.0924 M431.576 49.9314 Q431.576 58.1548 434.938 62.8538 Q438.341 67.5124 444.255 67.5124 Q450.17 67.5124 453.572 62.8538 Q456.975 58.1548 456.975 49.9314 Q456.975 41.7081 453.572 37.0496 Q450.17 32.3505 444.255 32.3505 Q438.341 32.3505 434.938 37.0496 Q431.576 41.7081 431.576 49.9314 Z" fill="#000000" fill-rule="nonzero" fill-opacity="1" /><path clip-path="url(#clip390)" d="M518.59 48.0275 L518.59 51.6733 L484.319 51.6733 Q484.805 59.3701 488.937 63.421 Q493.109 67.4314 500.522 67.4314 Q504.816 67.4314 508.827 66.3781 Q512.878 65.3249 516.848 63.2184 L516.848 70.267 Q512.837 71.9684 508.624 72.8596 Q504.411 73.7508 500.077 73.7508 Q489.22 73.7508 482.861 67.4314 Q476.541 61.1119 476.541 50.3365 Q476.541 39.1965 482.536 32.6746 Q488.572 26.1121 498.781 26.1121 Q507.936 26.1121 513.242 32.0264 Q518.59 37.9003 518.59 48.0275 M511.136 45.84 Q511.055 39.7232 507.693 36.0774 Q504.371 32.4315 498.862 32.4315 Q492.623 32.4315 488.856 35.9558 Q485.129 39.4801 484.562 45.8805 L511.136 45.84 Z" fill="#000000" fill-rule="nonzero" fill-opacity="1" /><path clip-path="url(#clip390)" d="M557.114 34.1734 Q555.858 33.4443 554.359 33.1202 Q552.901 32.7556 551.118 32.7556 Q544.799 32.7556 541.396 36.8875 Q538.034 40.9789 538.034 48.6757 L538.034 72.576 L530.54 72.576 L530.54 27.2059 L538.034 27.2059 L538.034 34.2544 Q540.383 30.1225 544.151 28.1376 Q547.918 26.1121 553.306 26.1121 Q554.075 26.1121 555.007 26.2337 Q555.939 26.3147 557.073 26.5172 L557.114 34.1734 Z" fill="#000000" fill-rule="nonzero" fill-opacity="1" /><path clip-path="url(#clip390)" d="M564.932 27.2059 L572.386 27.2059 L572.386 72.576 L564.932 72.576 L564.932 27.2059 M564.932 9.54393 L572.386 9.54393 L572.386 18.9825 L564.932 18.9825 L564.932 9.54393 Z" fill="#000000" fill-rule="nonzero" fill-opacity="1" /><path clip-path="url(#clip390)" d="M582.634 27.2059 L590.534 27.2059 L604.712 65.2844 L618.89 27.2059 L626.789 27.2059 L609.775 72.576 L599.648 72.576 L582.634 27.2059 Z" fill="#000000" fill-rule="nonzero" fill-opacity="1" /><path clip-path="url(#clip390)" d="M657.698 49.7694 Q648.664 49.7694 645.18 51.8354 Q641.696 53.9013 641.696 58.8839 Q641.696 62.8538 644.289 65.2034 Q646.922 67.5124 651.419 67.5124 Q657.617 67.5124 661.343 63.1374 Q665.111 58.7219 665.111 51.4303 L665.111 49.7694 L657.698 49.7694 M672.564 46.6907 L672.564 72.576 L665.111 72.576 L665.111 65.6895 Q662.559 69.8214 658.751 71.8063 Q654.943 73.7508 649.434 73.7508 Q642.466 73.7508 638.334 69.8619 Q634.243 65.9325 634.243 59.3701 Q634.243 51.7138 639.347 47.825 Q644.492 43.9361 654.659 43.9361 L665.111 43.9361 L665.111 43.2069 Q665.111 38.0623 661.708 35.2672 Q658.346 32.4315 652.229 32.4315 Q648.34 32.4315 644.654 33.3632 Q640.967 34.295 637.565 36.1584 L637.565 29.2718 Q641.656 27.692 645.504 26.9223 Q649.353 26.1121 652.999 26.1121 Q662.842 26.1121 667.703 31.2163 Q672.564 36.3204 672.564 46.6907 Z" fill="#000000" fill-rule="nonzero" fill-opacity="1" /><path clip-path="url(#clip390)" d="M695.29 14.324 L695.29 27.2059 L710.643 27.2059 L710.643 32.9987 L695.29 32.9987 L695.29 57.6282 Q695.29 63.1779 696.789 64.7578 Q698.328 66.3376 702.987 66.3376 L710.643 66.3376 L710.643 72.576 L702.987 72.576 Q694.358 72.576 691.077 69.3758 Q687.796 66.1351 687.796 57.6282 L687.796 32.9987 L682.327 32.9987 L682.327 27.2059 L687.796 27.2059 L687.796 14.324 L695.29 14.324 Z" fill="#000000" fill-rule="nonzero" fill-opacity="1" /><path clip-path="url(#clip390)" d="M720.446 27.2059 L727.9 27.2059 L727.9 72.576 L720.446 72.576 L720.446 27.2059 M720.446 9.54393 L727.9 9.54393 L727.9 18.9825 L720.446 18.9825 L720.446 9.54393 Z" fill="#000000" fill-rule="nonzero" fill-opacity="1" /><path clip-path="url(#clip390)" d="M738.149 27.2059 L746.048 27.2059 L760.226 65.2844 L774.404 27.2059 L782.303 27.2059 L765.29 72.576 L755.162 72.576 L738.149 27.2059 Z" fill="#000000" fill-rule="nonzero" fill-opacity="1" /><path clip-path="url(#clip390)" d="M831.4 48.0275 L831.4 51.6733 L797.13 51.6733 Q797.616 59.3701 801.748 63.421 Q805.92 67.4314 813.333 67.4314 Q817.627 67.4314 821.638 66.3781 Q825.689 65.3249 829.658 63.2184 L829.658 70.267 Q825.648 71.9684 821.435 72.8596 Q817.222 73.7508 812.888 73.7508 Q802.031 73.7508 795.671 67.4314 Q789.352 61.1119 789.352 50.3365 Q789.352 39.1965 795.347 32.6746 Q801.383 26.1121 811.591 26.1121 Q820.746 26.1121 826.053 32.0264 Q831.4 37.9003 831.4 48.0275 M823.947 45.84 Q823.866 39.7232 820.503 36.0774 Q817.182 32.4315 811.672 32.4315 Q805.434 32.4315 801.667 35.9558 Q797.94 39.4801 797.373 45.8805 L823.947 45.84 Z" fill="#000000" fill-rule="nonzero" fill-opacity="1" /><path clip-path="url(#clip390)" d="M890.625 49.7694 Q881.591 49.7694 878.107 51.8354 Q874.623 53.9013 874.623 58.8839 Q874.623 62.8538 877.216 65.2034 Q879.849 67.5124 884.346 67.5124 Q890.544 67.5124 894.27 63.1374 Q898.038 58.7219 898.038 51.4303 L898.038 49.7694 L890.625 49.7694 M905.491 46.6907 L905.491 72.576 L898.038 72.576 L898.038 65.6895 Q895.486 69.8214 891.678 71.8063 Q887.87 73.7508 882.361 73.7508 Q875.393 73.7508 871.261 69.8619 Q867.17 65.9325 867.17 59.3701 Q867.17 51.7138 872.274 47.825 Q877.419 43.9361 887.586 43.9361 L898.038 43.9361 L898.038 43.2069 Q898.038 38.0623 894.635 35.2672 Q891.273 32.4315 885.156 32.4315 Q881.267 32.4315 877.581 33.3632 Q873.894 34.295 870.492 36.1584 L870.492 29.2718 Q874.583 27.692 878.431 26.9223 Q882.28 26.1121 885.925 26.1121 Q895.769 26.1121 900.63 31.2163 Q905.491 36.3204 905.491 46.6907 Z" fill="#000000" fill-rule="nonzero" fill-opacity="1" /><path clip-path="url(#clip390)" d="M915.497 27.2059 L923.396 27.2059 L937.575 65.2844 L951.753 27.2059 L959.652 27.2059 L942.638 72.576 L932.511 72.576 L915.497 27.2059 Z" fill="#000000" fill-rule="nonzero" fill-opacity="1" /><path clip-path="url(#clip390)" d="M1008.75 48.0275 L1008.75 51.6733 L974.478 51.6733 Q974.964 59.3701 979.096 63.421 Q983.269 67.4314 990.682 67.4314 Q994.976 67.4314 998.986 66.3781 Q1003.04 65.3249 1007.01 63.2184 L1007.01 70.267 Q1003 71.9684 998.784 72.8596 Q994.571 73.7508 990.236 73.7508 Q979.38 73.7508 973.02 67.4314 Q966.701 61.1119 966.701 50.3365 Q966.701 39.1965 972.696 32.6746 Q978.732 26.1121 988.94 26.1121 Q998.095 26.1121 1003.4 32.0264 Q1008.75 37.9003 1008.75 48.0275 M1001.3 45.84 Q1001.21 39.7232 997.852 36.0774 Q994.53 32.4315 989.021 32.4315 Q982.783 32.4315 979.015 35.9558 Q975.288 39.4801 974.721 45.8805 L1001.3 45.84 Z" fill="#000000" fill-rule="nonzero" fill-opacity="1" /><path clip-path="url(#clip390)" d="M1047.27 34.1734 Q1046.02 33.4443 1044.52 33.1202 Q1043.06 32.7556 1041.28 32.7556 Q1034.96 32.7556 1031.56 36.8875 Q1028.19 40.9789 1028.19 48.6757 L1028.19 72.576 L1020.7 72.576 L1020.7 27.2059 L1028.19 27.2059 L1028.19 34.2544 Q1030.54 30.1225 1034.31 28.1376 Q1038.08 26.1121 1043.47 26.1121 Q1044.23 26.1121 1045.17 26.2337 Q1046.1 26.3147 1047.23 26.5172 L1047.27 34.1734 Z" fill="#000000" fill-rule="nonzero" fill-opacity="1" /><path clip-path="url(#clip390)" d="M1075.71 49.7694 Q1066.68 49.7694 1063.19 51.8354 Q1059.71 53.9013 1059.71 58.8839 Q1059.71 62.8538 1062.3 65.2034 Q1064.93 67.5124 1069.43 67.5124 Q1075.63 67.5124 1079.36 63.1374 Q1083.12 58.7219 1083.12 51.4303 L1083.12 49.7694 L1075.71 49.7694 M1090.58 46.6907 L1090.58 72.576 L1083.12 72.576 L1083.12 65.6895 Q1080.57 69.8214 1076.76 71.8063 Q1072.96 73.7508 1067.45 73.7508 Q1060.48 73.7508 1056.35 69.8619 Q1052.26 65.9325 1052.26 59.3701 Q1052.26 51.7138 1057.36 47.825 Q1062.5 43.9361 1072.67 43.9361 L1083.12 43.9361 L1083.12 43.2069 Q1083.12 38.0623 1079.72 35.2672 Q1076.36 32.4315 1070.24 32.4315 Q1066.35 32.4315 1062.67 33.3632 Q1058.98 34.295 1055.58 36.1584 L1055.58 29.2718 Q1059.67 27.692 1063.52 26.9223 Q1067.37 26.1121 1071.01 26.1121 Q1080.86 26.1121 1085.72 31.2163 Q1090.58 36.3204 1090.58 46.6907 Z" fill="#000000" fill-rule="nonzero" fill-opacity="1" /><path clip-path="url(#clip390)" d="M1135.79 49.3643 Q1135.79 41.2625 1132.42 36.8065 Q1129.1 32.3505 1123.07 32.3505 Q1117.07 32.3505 1113.71 36.8065 Q1110.39 41.2625 1110.39 49.3643 Q1110.39 57.4256 1113.71 61.8816 Q1117.07 66.3376 1123.07 66.3376 Q1129.1 66.3376 1132.42 61.8816 Q1135.79 57.4256 1135.79 49.3643 M1143.24 66.9452 Q1143.24 78.5308 1138.09 84.1616 Q1132.95 89.8329 1122.34 89.8329 Q1118.41 89.8329 1114.92 89.2252 Q1111.44 88.6581 1108.16 87.4428 L1108.16 80.1917 Q1111.44 81.9741 1114.64 82.8248 Q1117.84 83.6755 1121.16 83.6755 Q1128.49 83.6755 1132.14 79.8271 Q1135.79 76.0193 1135.79 68.282 L1135.79 64.5957 Q1133.48 68.6061 1129.87 70.5911 Q1126.27 72.576 1121.24 72.576 Q1112.9 72.576 1107.79 66.2161 Q1102.69 59.8562 1102.69 49.3643 Q1102.69 38.832 1107.79 32.472 Q1112.9 26.1121 1121.24 26.1121 Q1126.27 26.1121 1129.87 28.0971 Q1133.48 30.082 1135.79 34.0924 L1135.79 27.2059 L1143.24 27.2059 L1143.24 66.9452 Z" fill="#000000" fill-rule="nonzero" fill-opacity="1" /><path clip-path="url(#clip390)" d="M1197.4 48.0275 L1197.4 51.6733 L1163.13 51.6733 Q1163.61 59.3701 1167.75 63.421 Q1171.92 67.4314 1179.33 67.4314 Q1183.63 67.4314 1187.64 66.3781 Q1191.69 65.3249 1195.66 63.2184 L1195.66 70.267 Q1191.65 71.9684 1187.43 72.8596 Q1183.22 73.7508 1178.89 73.7508 Q1168.03 73.7508 1161.67 67.4314 Q1155.35 61.1119 1155.35 50.3365 Q1155.35 39.1965 1161.35 32.6746 Q1167.38 26.1121 1177.59 26.1121 Q1186.75 26.1121 1192.05 32.0264 Q1197.4 37.9003 1197.4 48.0275 M1189.95 45.84 Q1189.86 39.7232 1186.5 36.0774 Q1183.18 32.4315 1177.67 32.4315 Q1171.43 32.4315 1167.67 35.9558 Q1163.94 39.4801 1163.37 45.8805 L1189.95 45.84 Z" fill="#000000" fill-rule="nonzero" fill-opacity="1" /><path clip-path="url(#clip390)" d="M1238.56 28.5427 L1238.56 35.5912 Q1235.4 33.9709 1231.99 33.1607 Q1228.59 32.3505 1224.95 32.3505 Q1219.4 32.3505 1216.6 34.0519 Q1213.85 35.7533 1213.85 39.156 Q1213.85 41.7486 1215.83 43.2475 Q1217.82 44.7058 1223.81 46.0426 L1226.36 46.6097 Q1234.3 48.3111 1237.63 51.4303 Q1240.99 54.509 1240.99 60.0587 Q1240.99 66.3781 1235.96 70.0644 Q1230.98 73.7508 1222.23 73.7508 Q1218.59 73.7508 1214.62 73.0216 Q1210.69 72.3329 1206.31 70.9151 L1206.31 63.2184 Q1210.44 65.3654 1214.45 66.4591 Q1218.46 67.5124 1222.39 67.5124 Q1227.66 67.5124 1230.5 65.73 Q1233.33 63.9071 1233.33 60.6258 Q1233.33 57.5877 1231.27 55.9673 Q1229.24 54.3469 1222.31 52.8481 L1219.72 52.2405 Q1212.79 50.7821 1209.71 47.7845 Q1206.64 44.7463 1206.64 39.4801 Q1206.64 33.0797 1211.17 29.5959 Q1215.71 26.1121 1224.05 26.1121 Q1228.19 26.1121 1231.83 26.7198 Q1235.48 27.3274 1238.56 28.5427 Z" fill="#000000" fill-rule="nonzero" fill-opacity="1" /><path clip-path="url(#clip390)" d="M1254.76 62.2867 L1263.31 62.2867 L1263.31 72.576 L1254.76 72.576 L1254.76 62.2867 M1254.76 29.6769 L1263.31 29.6769 L1263.31 39.9662 L1254.76 39.9662 L1254.76 29.6769 Z" fill="#000000" fill-rule="nonzero" fill-opacity="1" /><path clip-path="url(#clip390)" d="M1314.39 65.7705 L1314.39 89.8329 L1306.9 89.8329 L1306.9 27.2059 L1314.39 27.2059 L1314.39 34.0924 Q1316.74 30.0415 1320.3 28.0971 Q1323.91 26.1121 1328.89 26.1121 Q1337.16 26.1121 1342.3 32.6746 Q1347.49 39.2371 1347.49 49.9314 Q1347.49 60.6258 1342.3 67.1883 Q1337.16 73.7508 1328.89 73.7508 Q1323.91 73.7508 1320.3 71.8063 Q1316.74 69.8214 1314.39 65.7705 M1339.75 49.9314 Q1339.75 41.7081 1336.35 37.0496 Q1332.98 32.3505 1327.07 32.3505 Q1321.15 32.3505 1317.75 37.0496 Q1314.39 41.7081 1314.39 49.9314 Q1314.39 58.1548 1317.75 62.8538 Q1321.15 67.5124 1327.07 67.5124 Q1332.98 67.5124 1336.35 62.8538 Q1339.75 58.1548 1339.75 49.9314 Z" fill="#000000" fill-rule="nonzero" fill-opacity="1" /><path clip-path="url(#clip390)" d="M1386.13 34.1734 Q1384.88 33.4443 1383.38 33.1202 Q1381.92 32.7556 1380.14 32.7556 Q1373.82 32.7556 1370.41 36.8875 Q1367.05 40.9789 1367.05 48.6757 L1367.05 72.576 L1359.56 72.576 L1359.56 27.2059 L1367.05 27.2059 L1367.05 34.2544 Q1369.4 30.1225 1373.17 28.1376 Q1376.94 26.1121 1382.32 26.1121 Q1383.09 26.1121 1384.02 26.2337 Q1384.96 26.3147 1386.09 26.5172 L1386.13 34.1734 Z" fill="#000000" fill-rule="nonzero" fill-opacity="1" /><path clip-path="url(#clip390)" d="M1409.71 32.4315 Q1403.71 32.4315 1400.23 37.1306 Q1396.74 41.7891 1396.74 49.9314 Q1396.74 58.0738 1400.19 62.7728 Q1403.67 67.4314 1409.71 67.4314 Q1415.66 67.4314 1419.15 62.7323 Q1422.63 58.0333 1422.63 49.9314 Q1422.63 41.8701 1419.15 37.1711 Q1415.66 32.4315 1409.71 32.4315 M1409.71 26.1121 Q1419.43 26.1121 1424.98 32.4315 Q1430.53 38.7509 1430.53 49.9314 Q1430.53 61.0714 1424.98 67.4314 Q1419.43 73.7508 1409.71 73.7508 Q1399.94 73.7508 1394.39 67.4314 Q1388.89 61.0714 1388.89 49.9314 Q1388.89 38.7509 1394.39 32.4315 Q1399.94 26.1121 1409.71 26.1121 Z" fill="#000000" fill-rule="nonzero" fill-opacity="1" /><path clip-path="url(#clip390)" d="M1465.85 9.54393 L1465.85 15.7418 L1458.72 15.7418 Q1454.71 15.7418 1453.13 17.3622 Q1451.59 18.9825 1451.59 23.1955 L1451.59 27.2059 L1463.87 27.2059 L1463.87 32.9987 L1451.59 32.9987 L1451.59 72.576 L1444.1 72.576 L1444.1 32.9987 L1436.97 32.9987 L1436.97 27.2059 L1444.1 27.2059 L1444.1 24.0462 Q1444.1 16.471 1447.62 13.0277 Q1451.15 9.54393 1458.8 9.54393 L1465.85 9.54393 Z" fill="#000000" fill-rule="nonzero" fill-opacity="1" /><path clip-path="url(#clip390)" d="M1472.09 27.2059 L1479.55 27.2059 L1479.55 72.576 L1472.09 72.576 L1472.09 27.2059 M1472.09 9.54393 L1479.55 9.54393 L1479.55 18.9825 L1472.09 18.9825 L1472.09 9.54393 Z" fill="#000000" fill-rule="nonzero" fill-opacity="1" /><path clip-path="url(#clip390)" d="M1502.51 14.324 L1502.51 27.2059 L1517.87 27.2059 L1517.87 32.9987 L1502.51 32.9987 L1502.51 57.6282 Q1502.51 63.1779 1504.01 64.7578 Q1505.55 66.3376 1510.21 66.3376 L1517.87 66.3376 L1517.87 72.576 L1510.21 72.576 Q1501.58 72.576 1498.3 69.3758 Q1495.02 66.1351 1495.02 57.6282 L1495.02 32.9987 L1489.55 32.9987 L1489.55 27.2059 L1495.02 27.2059 L1495.02 14.324 L1502.51 14.324 Z" fill="#000000" fill-rule="nonzero" fill-opacity="1" /><path clip-path="url(#clip390)" d="M1548.29 49.7694 Q1539.26 49.7694 1535.77 51.8354 Q1532.29 53.9013 1532.29 58.8839 Q1532.29 62.8538 1534.88 65.2034 Q1537.51 67.5124 1542.01 67.5124 Q1548.21 67.5124 1551.93 63.1374 Q1555.7 58.7219 1555.7 51.4303 L1555.7 49.7694 L1548.29 49.7694 M1563.16 46.6907 L1563.16 72.576 L1555.7 72.576 L1555.7 65.6895 Q1553.15 69.8214 1549.34 71.8063 Q1545.53 73.7508 1540.03 73.7508 Q1533.06 73.7508 1528.93 69.8619 Q1524.83 65.9325 1524.83 59.3701 Q1524.83 51.7138 1529.94 47.825 Q1535.08 43.9361 1545.25 43.9361 L1555.7 43.9361 L1555.7 43.2069 Q1555.7 38.0623 1552.3 35.2672 Q1548.94 32.4315 1542.82 32.4315 Q1538.93 32.4315 1535.24 33.3632 Q1531.56 34.295 1528.16 36.1584 L1528.16 29.2718 Q1532.25 27.692 1536.1 26.9223 Q1539.94 26.1121 1543.59 26.1121 Q1553.43 26.1121 1558.29 31.2163 Q1563.16 36.3204 1563.16 46.6907 Z" fill="#000000" fill-rule="nonzero" fill-opacity="1" /><path clip-path="url(#clip390)" d="M1611.08 49.9314 Q1611.08 41.7081 1607.68 37.0496 Q1604.31 32.3505 1598.4 32.3505 Q1592.48 32.3505 1589.08 37.0496 Q1585.72 41.7081 1585.72 49.9314 Q1585.72 58.1548 1589.08 62.8538 Q1592.48 67.5124 1598.4 67.5124 Q1604.31 67.5124 1607.68 62.8538 Q1611.08 58.1548 1611.08 49.9314 M1585.72 34.0924 Q1588.07 30.0415 1591.63 28.0971 Q1595.24 26.1121 1600.22 26.1121 Q1608.49 26.1121 1613.63 32.6746 Q1618.82 39.2371 1618.82 49.9314 Q1618.82 60.6258 1613.63 67.1883 Q1608.49 73.7508 1600.22 73.7508 Q1595.24 73.7508 1591.63 71.8063 Q1588.07 69.8214 1585.72 65.7705 L1585.72 72.576 L1578.23 72.576 L1578.23 9.54393 L1585.72 9.54393 L1585.72 34.0924 Z" fill="#000000" fill-rule="nonzero" fill-opacity="1" /><path clip-path="url(#clip390)" d="M1631.17 27.2059 L1638.62 27.2059 L1638.62 72.576 L1631.17 72.576 L1631.17 27.2059 M1631.17 9.54393 L1638.62 9.54393 L1638.62 18.9825 L1631.17 18.9825 L1631.17 9.54393 Z" fill="#000000" fill-rule="nonzero" fill-opacity="1" /><path clip-path="url(#clip390)" d="M1654.22 9.54393 L1661.67 9.54393 L1661.67 72.576 L1654.22 72.576 L1654.22 9.54393 Z" fill="#000000" fill-rule="nonzero" fill-opacity="1" /><path clip-path="url(#clip390)" d="M1677.27 27.2059 L1684.72 27.2059 L1684.72 72.576 L1677.27 72.576 L1677.27 27.2059 M1677.27 9.54393 L1684.72 9.54393 L1684.72 18.9825 L1677.27 18.9825 L1677.27 9.54393 Z" fill="#000000" fill-rule="nonzero" fill-opacity="1" /><path clip-path="url(#clip390)" d="M1707.69 14.324 L1707.69 27.2059 L1723.04 27.2059 L1723.04 32.9987 L1707.69 32.9987 L1707.69 57.6282 Q1707.69 63.1779 1709.19 64.7578 Q1710.73 66.3376 1715.39 66.3376 L1723.04 66.3376 L1723.04 72.576 L1715.39 72.576 Q1706.76 72.576 1703.48 69.3758 Q1700.2 66.1351 1700.2 57.6282 L1700.2 32.9987 L1694.73 32.9987 L1694.73 27.2059 L1700.2 27.2059 L1700.2 14.324 L1707.69 14.324 Z" fill="#000000" fill-rule="nonzero" fill-opacity="1" /><path clip-path="url(#clip390)" d="M1751.73 76.7889 Q1748.57 84.8907 1745.57 87.3618 Q1742.57 89.8329 1737.55 89.8329 L1731.59 89.8329 L1731.59 83.5945 L1735.97 83.5945 Q1739.05 83.5945 1740.75 82.1361 Q1742.45 80.6778 1744.51 75.2496 L1745.85 71.8468 L1727.5 27.2059 L1735.4 27.2059 L1749.58 62.6918 L1763.76 27.2059 L1771.66 27.2059 L1751.73 76.7889 Z" fill="#000000" fill-rule="nonzero" fill-opacity="1" /><path clip-path="url(#clip390)" d="M1783.85 62.2867 L1792.4 62.2867 L1792.4 69.2543 L1785.75 82.2172 L1780.53 82.2172 L1783.85 69.2543 L1783.85 62.2867 Z" fill="#000000" fill-rule="nonzero" fill-opacity="1" /><path clip-path="url(#clip390)" d="M1834.69 9.54393 L1842.14 9.54393 L1842.14 72.576 L1834.69 72.576 L1834.69 9.54393 Z" fill="#000000" fill-rule="nonzero" fill-opacity="1" /><path clip-path="url(#clip390)" d="M1896.55 48.0275 L1896.55 51.6733 L1862.27 51.6733 Q1862.76 59.3701 1866.89 63.421 Q1871.06 67.4314 1878.48 67.4314 Q1882.77 67.4314 1886.78 66.3781 Q1890.83 65.3249 1894.8 63.2184 L1894.8 70.267 Q1890.79 71.9684 1886.58 72.8596 Q1882.37 73.7508 1878.03 73.7508 Q1867.18 73.7508 1860.82 67.4314 Q1854.5 61.1119 1854.5 50.3365 Q1854.5 39.1965 1860.49 32.6746 Q1866.53 26.1121 1876.74 26.1121 Q1885.89 26.1121 1891.2 32.0264 Q1896.55 37.9003 1896.55 48.0275 M1889.09 45.84 Q1889.01 39.7232 1885.65 36.0774 Q1882.33 32.4315 1876.82 32.4315 Q1870.58 32.4315 1866.81 35.9558 Q1863.08 39.4801 1862.52 45.8805 L1889.09 45.84 Z" fill="#000000" fill-rule="nonzero" fill-opacity="1" /><path clip-path="url(#clip390)" d="M1929.4 49.7694 Q1920.36 49.7694 1916.88 51.8354 Q1913.4 53.9013 1913.4 58.8839 Q1913.4 62.8538 1915.99 65.2034 Q1918.62 67.5124 1923.12 67.5124 Q1929.32 67.5124 1933.04 63.1374 Q1936.81 58.7219 1936.81 51.4303 L1936.81 49.7694 L1929.4 49.7694 M1944.26 46.6907 L1944.26 72.576 L1936.81 72.576 L1936.81 65.6895 Q1934.26 69.8214 1930.45 71.8063 Q1926.64 73.7508 1921.13 73.7508 Q1914.17 73.7508 1910.03 69.8619 Q1905.94 65.9325 1905.94 59.3701 Q1905.94 51.7138 1911.05 47.825 Q1916.19 43.9361 1926.36 43.9361 L1936.81 43.9361 L1936.81 43.2069 Q1936.81 38.0623 1933.41 35.2672 Q1930.05 32.4315 1923.93 32.4315 Q1920.04 32.4315 1916.35 33.3632 Q1912.67 34.295 1909.26 36.1584 L1909.26 29.2718 Q1913.36 27.692 1917.2 26.9223 Q1921.05 26.1121 1924.7 26.1121 Q1934.54 26.1121 1939.4 31.2163 Q1944.26 36.3204 1944.26 46.6907 Z" fill="#000000" fill-rule="nonzero" fill-opacity="1" /><path clip-path="url(#clip390)" d="M1989.47 34.0924 L1989.47 9.54393 L1996.93 9.54393 L1996.93 72.576 L1989.47 72.576 L1989.47 65.7705 Q1987.12 69.8214 1983.52 71.8063 Q1979.95 73.7508 1974.93 73.7508 Q1966.71 73.7508 1961.52 67.1883 Q1956.38 60.6258 1956.38 49.9314 Q1956.38 39.2371 1961.52 32.6746 Q1966.71 26.1121 1974.93 26.1121 Q1979.95 26.1121 1983.52 28.0971 Q1987.12 30.0415 1989.47 34.0924 M1964.07 49.9314 Q1964.07 58.1548 1967.44 62.8538 Q1970.84 67.5124 1976.75 67.5124 Q1982.67 67.5124 1986.07 62.8538 Q1989.47 58.1548 1989.47 49.9314 Q1989.47 41.7081 1986.07 37.0496 Q1982.67 32.3505 1976.75 32.3505 Q1970.84 32.3505 1967.44 37.0496 Q1964.07 41.7081 1964.07 49.9314 Z" fill="#000000" fill-rule="nonzero" fill-opacity="1" /><path clip-path="url(#clip390)" d="M2051.09 48.0275 L2051.09 51.6733 L2016.82 51.6733 Q2017.3 59.3701 2021.43 63.421 Q2025.61 67.4314 2033.02 67.4314 Q2037.31 67.4314 2041.32 66.3781 Q2045.38 65.3249 2049.35 63.2184 L2049.35 70.267 Q2045.33 71.9684 2041.12 72.8596 Q2036.91 73.7508 2032.57 73.7508 Q2021.72 73.7508 2015.36 67.4314 Q2009.04 61.1119 2009.04 50.3365 Q2009.04 39.1965 2015.03 32.6746 Q2021.07 26.1121 2031.28 26.1121 Q2040.43 26.1121 2045.74 32.0264 Q2051.09 37.9003 2051.09 48.0275 M2043.63 45.84 Q2043.55 39.7232 2040.19 36.0774 Q2036.87 32.4315 2031.36 32.4315 Q2025.12 32.4315 2021.35 35.9558 Q2017.63 39.4801 2017.06 45.8805 L2043.63 45.84 Z" fill="#000000" fill-rule="nonzero" fill-opacity="1" /><path clip-path="url(#clip390)" d="M2089.61 34.1734 Q2088.36 33.4443 2086.86 33.1202 Q2085.4 32.7556 2083.62 32.7556 Q2077.3 32.7556 2073.89 36.8875 Q2070.53 40.9789 2070.53 48.6757 L2070.53 72.576 L2063.04 72.576 L2063.04 27.2059 L2070.53 27.2059 L2070.53 34.2544 Q2072.88 30.1225 2076.65 28.1376 Q2080.42 26.1121 2085.8 26.1121 Q2086.57 26.1121 2087.5 26.2337 Q2088.44 26.3147 2089.57 26.5172 L2089.61 34.1734 Z" fill="#000000" fill-rule="nonzero" fill-opacity="1" /><path clip-path="url(#clip390)" d="M2104.48 12.096 L2104.48 34.5785 L2097.59 34.5785 L2097.59 12.096 L2104.48 12.096 Z" fill="#000000" fill-rule="nonzero" fill-opacity="1" /><path clip-path="url(#clip390)" d="M2149.16 28.5427 L2149.16 35.5912 Q2146 33.9709 2142.6 33.1607 Q2139.19 32.3505 2135.55 32.3505 Q2130 32.3505 2127.2 34.0519 Q2124.45 35.7533 2124.45 39.156 Q2124.45 41.7486 2126.43 43.2475 Q2128.42 44.7058 2134.41 46.0426 L2136.97 46.6097 Q2144.91 48.3111 2148.23 51.4303 Q2151.59 54.509 2151.59 60.0587 Q2151.59 66.3781 2146.57 70.0644 Q2141.58 73.7508 2132.83 73.7508 Q2129.19 73.7508 2125.22 73.0216 Q2121.29 72.3329 2116.91 70.9151 L2116.91 63.2184 Q2121.05 65.3654 2125.06 66.4591 Q2129.07 67.5124 2133 67.5124 Q2138.26 67.5124 2141.1 65.73 Q2143.93 63.9071 2143.93 60.6258 Q2143.93 57.5877 2141.87 55.9673 Q2139.84 54.3469 2132.92 52.8481 L2130.32 52.2405 Q2123.4 50.7821 2120.32 47.7845 Q2117.24 44.7463 2117.24 39.4801 Q2117.24 33.0797 2121.78 29.5959 Q2126.31 26.1121 2134.66 26.1121 Q2138.79 26.1121 2142.43 26.7198 Q2146.08 27.3274 2149.16 28.5427 Z" fill="#000000" fill-rule="nonzero" fill-opacity="1" /><path clip-path="url(#clip390)" d="M2197.04 65.7705 L2197.04 89.8329 L2189.55 89.8329 L2189.55 27.2059 L2197.04 27.2059 L2197.04 34.0924 Q2199.39 30.0415 2202.96 28.0971 Q2206.56 26.1121 2211.54 26.1121 Q2219.81 26.1121 2224.95 32.6746 Q2230.14 39.2371 2230.14 49.9314 Q2230.14 60.6258 2224.95 67.1883 Q2219.81 73.7508 2211.54 73.7508 Q2206.56 73.7508 2202.96 71.8063 Q2199.39 69.8214 2197.04 65.7705 M2222.4 49.9314 Q2222.4 41.7081 2219 37.0496 Q2215.63 32.3505 2209.72 32.3505 Q2203.81 32.3505 2200.4 37.0496 Q2197.04 41.7081 2197.04 49.9314 Q2197.04 58.1548 2200.4 62.8538 Q2203.81 67.5124 2209.72 67.5124 Q2215.63 67.5124 2219 62.8538 Q2222.4 58.1548 2222.4 49.9314 Z" fill="#000000" fill-rule="nonzero" fill-opacity="1" /><path clip-path="url(#clip390)" d="M2268.78 34.1734 Q2267.53 33.4443 2266.03 33.1202 Q2264.57 32.7556 2262.79 32.7556 Q2256.47 32.7556 2253.07 36.8875 Q2249.7 40.9789 2249.7 48.6757 L2249.7 72.576 L2242.21 72.576 L2242.21 27.2059 L2249.7 27.2059 L2249.7 34.2544 Q2252.05 30.1225 2255.82 28.1376 Q2259.59 26.1121 2264.97 26.1121 Q2265.74 26.1121 2266.68 26.2337 Q2267.61 26.3147 2268.74 26.5172 L2268.78 34.1734 Z" fill="#000000" fill-rule="nonzero" fill-opacity="1" /><path clip-path="url(#clip390)" d="M2276.6 27.2059 L2284.05 27.2059 L2284.05 72.576 L2276.6 72.576 L2276.6 27.2059 M2276.6 9.54393 L2284.05 9.54393 L2284.05 18.9825 L2276.6 18.9825 L2276.6 9.54393 Z" fill="#000000" fill-rule="nonzero" fill-opacity="1" /><path clip-path="url(#clip390)" d="M2332.3 28.9478 L2332.3 35.9153 Q2329.14 34.1734 2325.94 33.3227 Q2322.78 32.4315 2319.54 32.4315 Q2312.29 32.4315 2308.28 37.0496 Q2304.27 41.6271 2304.27 49.9314 Q2304.27 58.2358 2308.28 62.8538 Q2312.29 67.4314 2319.54 67.4314 Q2322.78 67.4314 2325.94 66.5807 Q2329.14 65.6895 2332.3 63.9476 L2332.3 70.8341 Q2329.18 72.2924 2325.82 73.0216 Q2322.5 73.7508 2318.73 73.7508 Q2308.48 73.7508 2302.45 67.3098 Q2296.41 60.8689 2296.41 49.9314 Q2296.41 38.832 2302.49 32.472 Q2308.6 26.1121 2319.22 26.1121 Q2322.66 26.1121 2325.94 26.8413 Q2329.22 27.5299 2332.3 28.9478 Z" fill="#000000" fill-rule="nonzero" fill-opacity="1" /><path clip-path="url(#clip390)" d="M2384.07 48.0275 L2384.07 51.6733 L2349.8 51.6733 Q2350.29 59.3701 2354.42 63.421 Q2358.59 67.4314 2366 67.4314 Q2370.3 67.4314 2374.31 66.3781 Q2378.36 65.3249 2382.33 63.2184 L2382.33 70.267 Q2378.32 71.9684 2374.11 72.8596 Q2369.89 73.7508 2365.56 73.7508 Q2354.7 73.7508 2348.34 67.4314 Q2342.02 61.1119 2342.02 50.3365 Q2342.02 39.1965 2348.02 32.6746 Q2354.05 26.1121 2364.26 26.1121 Q2373.42 26.1121 2378.72 32.0264 Q2384.07 37.9003 2384.07 48.0275 M2376.62 45.84 Q2376.54 39.7232 2373.17 36.0774 Q2369.85 32.4315 2364.34 32.4315 Q2358.11 32.4315 2354.34 35.9558 Q2350.61 39.4801 2350.04 45.8805 L2376.62 45.84 Z" fill="#000000" fill-rule="nonzero" fill-opacity="1" /><circle clip-path="url(#clip392)" cx="1493.23" cy="558.95" r="14.4" fill="#009af9" fill-rule="evenodd" fill-opacity="1" stroke="#000000" stroke-opacity="1" stroke-width="3.2"/>
<circle clip-path="url(#clip392)" cx="1522.61" cy="555.731" r="14.4" fill="#009af9" fill-rule="evenodd" fill-opacity="1" stroke="#000000" stroke-opacity="1" stroke-width="3.2"/>
<circle clip-path="url(#clip392)" cx="1386.33" cy="569.561" r="14.4" fill="#009af9" fill-rule="evenodd" fill-opacity="1" stroke="#000000" stroke-opacity="1" stroke-width="3.2"/>
<circle clip-path="url(#clip392)" cx="1790.21" cy="529.663" r="14.4" fill="#009af9" fill-rule="evenodd" fill-opacity="1" stroke="#000000" stroke-opacity="1" stroke-width="3.2"/>
<circle clip-path="url(#clip392)" cx="1047.73" cy="602.935" r="14.4" fill="#009af9" fill-rule="evenodd" fill-opacity="1" stroke="#000000" stroke-opacity="1" stroke-width="3.2"/>
<circle clip-path="url(#clip392)" cx="2056.14" cy="503.537" r="14.4" fill="#009af9" fill-rule="evenodd" fill-opacity="1" stroke="#000000" stroke-opacity="1" stroke-width="3.2"/>
<circle clip-path="url(#clip392)" cx="699.132" cy="636.978" r="14.4" fill="#009af9" fill-rule="evenodd" fill-opacity="1" stroke="#000000" stroke-opacity="1" stroke-width="3.2"/>
<circle clip-path="url(#clip392)" cx="2084.56" cy="500.75" r="14.4" fill="#009af9" fill-rule="evenodd" fill-opacity="1" stroke="#000000" stroke-opacity="1" stroke-width="3.2"/>
<circle clip-path="url(#clip392)" cx="1331.79" cy="574.933" r="14.4" fill="#009af9" fill-rule="evenodd" fill-opacity="1" stroke="#000000" stroke-opacity="1" stroke-width="3.2"/>
<circle clip-path="url(#clip392)" cx="1625.92" cy="545.842" r="14.4" fill="#009af9" fill-rule="evenodd" fill-opacity="1" stroke="#000000" stroke-opacity="1" stroke-width="3.2"/>
<circle clip-path="url(#clip392)" cx="1679.59" cy="540.609" r="14.4" fill="#009af9" fill-rule="evenodd" fill-opacity="1" stroke="#000000" stroke-opacity="1" stroke-width="3.2"/>
<circle clip-path="url(#clip392)" cx="907.785" cy="616.573" r="14.4" fill="#009af9" fill-rule="evenodd" fill-opacity="1" stroke="#000000" stroke-opacity="1" stroke-width="3.2"/>
<circle clip-path="url(#clip392)" cx="1772.33" cy="531.535" r="14.4" fill="#009af9" fill-rule="evenodd" fill-opacity="1" stroke="#000000" stroke-opacity="1" stroke-width="3.2"/>
<circle clip-path="url(#clip392)" cx="1904.26" cy="518.362" r="14.4" fill="#009af9" fill-rule="evenodd" fill-opacity="1" stroke="#000000" stroke-opacity="1" stroke-width="3.2"/>
<circle clip-path="url(#clip392)" cx="1070.47" cy="600.612" r="14.4" fill="#009af9" fill-rule="evenodd" fill-opacity="1" stroke="#000000" stroke-opacity="1" stroke-width="3.2"/>
<circle clip-path="url(#clip392)" cx="1153.83" cy="592.57" r="14.4" fill="#009af9" fill-rule="evenodd" fill-opacity="1" stroke="#000000" stroke-opacity="1" stroke-width="3.2"/>
<circle clip-path="url(#clip392)" cx="1970.1" cy="511.755" r="14.4" fill="#009af9" fill-rule="evenodd" fill-opacity="1" stroke="#000000" stroke-opacity="1" stroke-width="3.2"/>
<circle clip-path="url(#clip392)" cx="1238.49" cy="584.269" r="14.4" fill="#009af9" fill-rule="evenodd" fill-opacity="1" stroke="#000000" stroke-opacity="1" stroke-width="3.2"/>
<circle clip-path="url(#clip392)" cx="1644.46" cy="543.917" r="14.4" fill="#009af9" fill-rule="evenodd" fill-opacity="1" stroke="#000000" stroke-opacity="1" stroke-width="3.2"/>
<circle clip-path="url(#clip392)" cx="1470.99" cy="561.176" r="14.4" fill="#009af9" fill-rule="evenodd" fill-opacity="1" stroke="#000000" stroke-opacity="1" stroke-width="3.2"/>
<circle clip-path="url(#clip392)" cx="1516.58" cy="556.619" r="14.4" fill="#009af9" fill-rule="evenodd" fill-opacity="1" stroke="#000000" stroke-opacity="1" stroke-width="3.2"/>
<circle clip-path="url(#clip392)" cx="1512.2" cy="557.074" r="14.4" fill="#009af9" fill-rule="evenodd" fill-opacity="1" stroke="#000000" stroke-opacity="1" stroke-width="3.2"/>
<circle clip-path="url(#clip392)" cx="1471.33" cy="561.131" r="14.4" fill="#009af9" fill-rule="evenodd" fill-opacity="1" stroke="#000000" stroke-opacity="1" stroke-width="3.2"/>
<circle clip-path="url(#clip392)" cx="1499.07" cy="558.332" r="14.4" fill="#009af9" fill-rule="evenodd" fill-opacity="1" stroke="#000000" stroke-opacity="1" stroke-width="3.2"/>
<circle clip-path="url(#clip392)" cx="1443.6" cy="563.955" r="14.4" fill="#009af9" fill-rule="evenodd" fill-opacity="1" stroke="#000000" stroke-opacity="1" stroke-width="3.2"/>
<circle clip-path="url(#clip392)" cx="1312.69" cy="577.103" r="14.4" fill="#009af9" fill-rule="evenodd" fill-opacity="1" stroke="#000000" stroke-opacity="1" stroke-width="3.2"/>
<circle clip-path="url(#clip392)" cx="1969.62" cy="511.063" r="14.4" fill="#009af9" fill-rule="evenodd" fill-opacity="1" stroke="#000000" stroke-opacity="1" stroke-width="3.2"/>
<circle clip-path="url(#clip392)" cx="989.903" cy="609.6" r="14.4" fill="#009af9" fill-rule="evenodd" fill-opacity="1" stroke="#000000" stroke-opacity="1" stroke-width="3.2"/>
<circle clip-path="url(#clip392)" cx="1714.1" cy="536.698" r="14.4" fill="#009af9" fill-rule="evenodd" fill-opacity="1" stroke="#000000" stroke-opacity="1" stroke-width="3.2"/>
<circle clip-path="url(#clip392)" cx="2211.9" cy="486.879" r="14.4" fill="#009af9" fill-rule="evenodd" fill-opacity="1" stroke="#000000" stroke-opacity="1" stroke-width="3.2"/>
<circle clip-path="url(#clip392)" cx="331.177" cy="675.4" r="14.4" fill="#009af9" fill-rule="evenodd" fill-opacity="1" stroke="#000000" stroke-opacity="1" stroke-width="3.2"/>
<circle clip-path="url(#clip392)" cx="1939.46" cy="514.348" r="14.4" fill="#009af9" fill-rule="evenodd" fill-opacity="1" stroke="#000000" stroke-opacity="1" stroke-width="3.2"/>
<circle clip-path="url(#clip392)" cx="1526.41" cy="555.586" r="14.4" fill="#009af9" fill-rule="evenodd" fill-opacity="1" stroke="#000000" stroke-opacity="1" stroke-width="3.2"/>
<circle clip-path="url(#clip392)" cx="1533.46" cy="554.872" r="14.4" fill="#009af9" fill-rule="evenodd" fill-opacity="1" stroke="#000000" stroke-opacity="1" stroke-width="3.2"/>
<circle clip-path="url(#clip392)" cx="1405.86" cy="567.745" r="14.4" fill="#009af9" fill-rule="evenodd" fill-opacity="1" stroke="#000000" stroke-opacity="1" stroke-width="3.2"/>
<circle clip-path="url(#clip392)" cx="1404.66" cy="123.472" r="14.4" fill="#009af9" fill-rule="evenodd" fill-opacity="1" stroke="#000000" stroke-opacity="1" stroke-width="3.2"/>
<circle clip-path="url(#clip392)" cx="1737.3" cy="1423.18" r="14.4" fill="#009af9" fill-rule="evenodd" fill-opacity="1" stroke="#000000" stroke-opacity="1" stroke-width="3.2"/>
<circle clip-path="url(#clip392)" cx="1366.08" cy="127.404" r="14.4" fill="#009af9" fill-rule="evenodd" fill-opacity="1" stroke="#000000" stroke-opacity="1" stroke-width="3.2"/>
<circle clip-path="url(#clip392)" cx="1941.65" cy="513.68" r="14.4" fill="#009af9" fill-rule="evenodd" fill-opacity="1" stroke="#000000" stroke-opacity="1" stroke-width="3.2"/>
<circle clip-path="url(#clip392)" cx="497.872" cy="659.372" r="14.4" fill="#009af9" fill-rule="evenodd" fill-opacity="1" stroke="#000000" stroke-opacity="1" stroke-width="3.2"/>
<circle clip-path="url(#clip392)" cx="1987.94" cy="509.047" r="14.4" fill="#009af9" fill-rule="evenodd" fill-opacity="1" stroke="#000000" stroke-opacity="1" stroke-width="3.2"/>
<circle clip-path="url(#clip392)" cx="1757.48" cy="532.14" r="14.4" fill="#009af9" fill-rule="evenodd" fill-opacity="1" stroke="#000000" stroke-opacity="1" stroke-width="3.2"/>
<circle clip-path="url(#clip392)" cx="1651.15" cy="543.24" r="14.4" fill="#009af9" fill-rule="evenodd" fill-opacity="1" stroke="#000000" stroke-opacity="1" stroke-width="3.2"/>
<circle clip-path="url(#clip392)" cx="756.24" cy="633.158" r="14.4" fill="#009af9" fill-rule="evenodd" fill-opacity="1" stroke="#000000" stroke-opacity="1" stroke-width="3.2"/>
<circle clip-path="url(#clip392)" cx="2293.87" cy="478.128" r="14.4" fill="#009af9" fill-rule="evenodd" fill-opacity="1" stroke="#000000" stroke-opacity="1" stroke-width="3.2"/>
<circle clip-path="url(#clip392)" cx="941.767" cy="614.801" r="14.4" fill="#009af9" fill-rule="evenodd" fill-opacity="1" stroke="#000000" stroke-opacity="1" stroke-width="3.2"/>
<circle clip-path="url(#clip392)" cx="1301.15" cy="578.314" r="14.4" fill="#009af9" fill-rule="evenodd" fill-opacity="1" stroke="#000000" stroke-opacity="1" stroke-width="3.2"/>
<circle clip-path="url(#clip392)" cx="1748.88" cy="533.173" r="14.4" fill="#009af9" fill-rule="evenodd" fill-opacity="1" stroke="#000000" stroke-opacity="1" stroke-width="3.2"/>
<circle clip-path="url(#clip392)" cx="1432.19" cy="565.196" r="14.4" fill="#009af9" fill-rule="evenodd" fill-opacity="1" stroke="#000000" stroke-opacity="1" stroke-width="3.2"/>
<circle clip-path="url(#clip392)" cx="1846.74" cy="522.767" r="14.4" fill="#009af9" fill-rule="evenodd" fill-opacity="1" stroke="#000000" stroke-opacity="1" stroke-width="3.2"/>
<circle clip-path="url(#clip392)" cx="1690.8" cy="539.038" r="14.4" fill="#009af9" fill-rule="evenodd" fill-opacity="1" stroke="#000000" stroke-opacity="1" stroke-width="3.2"/>
<circle clip-path="url(#clip392)" cx="962.466" cy="612.787" r="14.4" fill="#009af9" fill-rule="evenodd" fill-opacity="1" stroke="#000000" stroke-opacity="1" stroke-width="3.2"/>
<circle clip-path="url(#clip392)" cx="1282.67" cy="580.407" r="14.4" fill="#009af9" fill-rule="evenodd" fill-opacity="1" stroke="#000000" stroke-opacity="1" stroke-width="3.2"/>
<circle clip-path="url(#clip392)" cx="1757.47" cy="532.204" r="14.4" fill="#009af9" fill-rule="evenodd" fill-opacity="1" stroke="#000000" stroke-opacity="1" stroke-width="3.2"/>
<circle clip-path="url(#clip392)" cx="1462" cy="562.095" r="14.4" fill="#009af9" fill-rule="evenodd" fill-opacity="1" stroke="#000000" stroke-opacity="1" stroke-width="3.2"/>
<circle clip-path="url(#clip392)" cx="1664.31" cy="541.548" r="14.4" fill="#009af9" fill-rule="evenodd" fill-opacity="1" stroke="#000000" stroke-opacity="1" stroke-width="3.2"/>
<circle clip-path="url(#clip392)" cx="1375.17" cy="570.96" r="14.4" fill="#009af9" fill-rule="evenodd" fill-opacity="1" stroke="#000000" stroke-opacity="1" stroke-width="3.2"/>
<circle clip-path="url(#clip392)" cx="1534.19" cy="554.659" r="14.4" fill="#009af9" fill-rule="evenodd" fill-opacity="1" stroke="#000000" stroke-opacity="1" stroke-width="3.2"/>
<circle clip-path="url(#clip392)" cx="1586.31" cy="549.554" r="14.4" fill="#009af9" fill-rule="evenodd" fill-opacity="1" stroke="#000000" stroke-opacity="1" stroke-width="3.2"/>
<circle clip-path="url(#clip392)" cx="1058.8" cy="603.481" r="14.4" fill="#009af9" fill-rule="evenodd" fill-opacity="1" stroke="#000000" stroke-opacity="1" stroke-width="3.2"/>
<circle clip-path="url(#clip392)" cx="2050.6" cy="501.713" r="14.4" fill="#009af9" fill-rule="evenodd" fill-opacity="1" stroke="#000000" stroke-opacity="1" stroke-width="3.2"/>
<circle clip-path="url(#clip392)" cx="1250.7" cy="583.913" r="14.4" fill="#009af9" fill-rule="evenodd" fill-opacity="1" stroke="#000000" stroke-opacity="1" stroke-width="3.2"/>
<circle clip-path="url(#clip392)" cx="1532.53" cy="554.765" r="14.4" fill="#009af9" fill-rule="evenodd" fill-opacity="1" stroke="#000000" stroke-opacity="1" stroke-width="3.2"/>
<circle clip-path="url(#clip392)" cx="1810.37" cy="526.716" r="14.4" fill="#009af9" fill-rule="evenodd" fill-opacity="1" stroke="#000000" stroke-opacity="1" stroke-width="3.2"/>
<circle clip-path="url(#clip392)" cx="810.875" cy="628.7" r="14.4" fill="#009af9" fill-rule="evenodd" fill-opacity="1" stroke="#000000" stroke-opacity="1" stroke-width="3.2"/>
<circle clip-path="url(#clip392)" cx="1784.77" cy="529.164" r="14.4" fill="#009af9" fill-rule="evenodd" fill-opacity="1" stroke="#000000" stroke-opacity="1" stroke-width="3.2"/>
<circle clip-path="url(#clip392)" cx="1900.88" cy="516.89" r="14.4" fill="#009af9" fill-rule="evenodd" fill-opacity="1" stroke="#000000" stroke-opacity="1" stroke-width="3.2"/>
<circle clip-path="url(#clip392)" cx="815.128" cy="628.657" r="14.4" fill="#009af9" fill-rule="evenodd" fill-opacity="1" stroke="#000000" stroke-opacity="1" stroke-width="3.2"/>
<circle clip-path="url(#clip392)" cx="1600.49" cy="548.319" r="14.4" fill="#009af9" fill-rule="evenodd" fill-opacity="1" stroke="#000000" stroke-opacity="1" stroke-width="3.2"/>
<circle clip-path="url(#clip392)" cx="1886.73" cy="518.164" r="14.4" fill="#009af9" fill-rule="evenodd" fill-opacity="1" stroke="#000000" stroke-opacity="1" stroke-width="3.2"/>
<circle clip-path="url(#clip392)" cx="1537.64" cy="554.22" r="14.4" fill="#009af9" fill-rule="evenodd" fill-opacity="1" stroke="#000000" stroke-opacity="1" stroke-width="3.2"/>
<circle clip-path="url(#clip392)" cx="1043.02" cy="605.518" r="14.4" fill="#009af9" fill-rule="evenodd" fill-opacity="1" stroke="#000000" stroke-opacity="1" stroke-width="3.2"/>
<circle clip-path="url(#clip392)" cx="1485.37" cy="559.708" r="14.4" fill="#009af9" fill-rule="evenodd" fill-opacity="1" stroke="#000000" stroke-opacity="1" stroke-width="3.2"/>
<circle clip-path="url(#clip392)" cx="1972.28" cy="509.592" r="14.4" fill="#009af9" fill-rule="evenodd" fill-opacity="1" stroke="#000000" stroke-opacity="1" stroke-width="3.2"/>
<circle clip-path="url(#clip392)" cx="1226.7" cy="586.63" r="14.4" fill="#009af9" fill-rule="evenodd" fill-opacity="1" stroke="#000000" stroke-opacity="1" stroke-width="3.2"/>
<circle clip-path="url(#clip392)" cx="1500.53" cy="557.752" r="14.4" fill="#009af9" fill-rule="evenodd" fill-opacity="1" stroke="#000000" stroke-opacity="1" stroke-width="3.2"/>
<circle clip-path="url(#clip392)" cx="1738.15" cy="534.093" r="14.4" fill="#009af9" fill-rule="evenodd" fill-opacity="1" stroke="#000000" stroke-opacity="1" stroke-width="3.2"/>
<circle clip-path="url(#clip392)" cx="829.488" cy="627.371" r="14.4" fill="#009af9" fill-rule="evenodd" fill-opacity="1" stroke="#000000" stroke-opacity="1" stroke-width="3.2"/>
<circle clip-path="url(#clip392)" cx="1914.33" cy="515.287" r="14.4" fill="#009af9" fill-rule="evenodd" fill-opacity="1" stroke="#000000" stroke-opacity="1" stroke-width="3.2"/>
<circle clip-path="url(#clip392)" cx="1709.28" cy="536.986" r="14.4" fill="#009af9" fill-rule="evenodd" fill-opacity="1" stroke="#000000" stroke-opacity="1" stroke-width="3.2"/>
<circle clip-path="url(#clip392)" cx="1162.73" cy="592.659" r="14.4" fill="#009af9" fill-rule="evenodd" fill-opacity="1" stroke="#000000" stroke-opacity="1" stroke-width="3.2"/>
<circle clip-path="url(#clip392)" cx="1720.89" cy="535.916" r="14.4" fill="#009af9" fill-rule="evenodd" fill-opacity="1" stroke="#000000" stroke-opacity="1" stroke-width="3.2"/>
<circle clip-path="url(#clip392)" cx="1259.53" cy="582.614" r="14.4" fill="#009af9" fill-rule="evenodd" fill-opacity="1" stroke="#000000" stroke-opacity="1" stroke-width="3.2"/>
<circle clip-path="url(#clip392)" cx="1899.38" cy="517.184" r="14.4" fill="#009af9" fill-rule="evenodd" fill-opacity="1" stroke="#000000" stroke-opacity="1" stroke-width="3.2"/>
<circle clip-path="url(#clip392)" cx="1542.98" cy="553.895" r="14.4" fill="#009af9" fill-rule="evenodd" fill-opacity="1" stroke="#000000" stroke-opacity="1" stroke-width="3.2"/>
<circle clip-path="url(#clip392)" cx="722.076" cy="638.405" r="14.4" fill="#009af9" fill-rule="evenodd" fill-opacity="1" stroke="#000000" stroke-opacity="1" stroke-width="3.2"/>
<circle clip-path="url(#clip392)" cx="2090.64" cy="497.371" r="14.4" fill="#009af9" fill-rule="evenodd" fill-opacity="1" stroke="#000000" stroke-opacity="1" stroke-width="3.2"/>
<circle clip-path="url(#clip392)" cx="1580.12" cy="550.134" r="14.4" fill="#009af9" fill-rule="evenodd" fill-opacity="1" stroke="#000000" stroke-opacity="1" stroke-width="3.2"/>
<circle clip-path="url(#clip392)" cx="661.303" cy="644.676" r="14.4" fill="#009af9" fill-rule="evenodd" fill-opacity="1" stroke="#000000" stroke-opacity="1" stroke-width="3.2"/>
<circle clip-path="url(#clip392)" cx="2263.89" cy="479.237" r="14.4" fill="#009af9" fill-rule="evenodd" fill-opacity="1" stroke="#000000" stroke-opacity="1" stroke-width="3.2"/>
<circle clip-path="url(#clip392)" cx="1655.29" cy="542.297" r="14.4" fill="#009af9" fill-rule="evenodd" fill-opacity="1" stroke="#000000" stroke-opacity="1" stroke-width="3.2"/>
<circle clip-path="url(#clip392)" cx="844.671" cy="626.068" r="14.4" fill="#009af9" fill-rule="evenodd" fill-opacity="1" stroke="#000000" stroke-opacity="1" stroke-width="3.2"/>
<circle clip-path="url(#clip392)" cx="1795.21" cy="527.835" r="14.4" fill="#009af9" fill-rule="evenodd" fill-opacity="1" stroke="#000000" stroke-opacity="1" stroke-width="3.2"/>
<circle clip-path="url(#clip392)" cx="1479.38" cy="560.19" r="14.4" fill="#009af9" fill-rule="evenodd" fill-opacity="1" stroke="#000000" stroke-opacity="1" stroke-width="3.2"/>
<circle clip-path="url(#clip392)" cx="1716.07" cy="535.857" r="14.4" fill="#009af9" fill-rule="evenodd" fill-opacity="1" stroke="#000000" stroke-opacity="1" stroke-width="3.2"/>
<circle clip-path="url(#clip392)" cx="1259.84" cy="583.218" r="14.4" fill="#009af9" fill-rule="evenodd" fill-opacity="1" stroke="#000000" stroke-opacity="1" stroke-width="3.2"/>
<circle clip-path="url(#clip392)" cx="1697.15" cy="537.814" r="14.4" fill="#009af9" fill-rule="evenodd" fill-opacity="1" stroke="#000000" stroke-opacity="1" stroke-width="3.2"/>
<circle clip-path="url(#clip392)" cx="939.443" cy="616.423" r="14.4" fill="#009af9" fill-rule="evenodd" fill-opacity="1" stroke="#000000" stroke-opacity="1" stroke-width="3.2"/>
<circle clip-path="url(#clip392)" cx="1876.99" cy="519.116" r="14.4" fill="#009af9" fill-rule="evenodd" fill-opacity="1" stroke="#000000" stroke-opacity="1" stroke-width="3.2"/>
<circle clip-path="url(#clip392)" cx="1513.66" cy="556.827" r="14.4" fill="#009af9" fill-rule="evenodd" fill-opacity="1" stroke="#000000" stroke-opacity="1" stroke-width="3.2"/>
<path clip-path="url(#clip390)" d="M1982.61 270.476 L2283.41 270.476 L2283.41 166.796 L1982.61 166.796  Z" fill="#ffffff" fill-rule="evenodd" fill-opacity="1"/>
<polyline clip-path="url(#clip390)" style="stroke:#000000; stroke-linecap:round; stroke-linejoin:round; stroke-width:4; stroke-opacity:1; fill:none" points="1982.61,270.476 2283.41,270.476 2283.41,166.796 1982.61,166.796 1982.61,270.476 "/>
<circle clip-path="url(#clip390)" cx="2075.07" cy="218.636" r="20.48" fill="#009af9" fill-rule="evenodd" fill-opacity="1" stroke="#000000" stroke-opacity="1" stroke-width="4.55111"/>
<path clip-path="url(#clip390)" d="M2167.54 201.356 L2174.5 201.356 L2183.32 224.874 L2192.19 201.356 L2199.16 201.356 L2199.16 235.916 L2194.6 235.916 L2194.6 205.569 L2185.68 229.272 L2180.99 229.272 L2172.07 205.569 L2172.07 235.916 L2167.54 235.916 L2167.54 201.356 Z" fill="#000000" fill-rule="nonzero" fill-opacity="1" /><path clip-path="url(#clip390)" d="M2208.44 201.356 L2213.12 201.356 L2213.12 215.962 L2228.62 201.356 L2234.64 201.356 L2217.49 217.467 L2235.87 235.916 L2229.71 235.916 L2213.12 219.272 L2213.12 235.916 L2208.44 235.916 L2208.44 201.356 Z" fill="#000000" fill-rule="nonzero" fill-opacity="1" /><path clip-path="url(#clip390)" d="M2243.97 231.981 L2260.29 231.981 L2260.29 235.916 L2238.35 235.916 L2238.35 231.981 Q2241.01 229.226 2245.59 224.596 Q2250.2 219.944 2251.38 218.601 Q2253.62 216.078 2254.5 214.342 Q2255.41 212.583 2255.41 210.893 Q2255.41 208.138 2253.46 206.402 Q2251.54 204.666 2248.44 204.666 Q2246.24 204.666 2243.79 205.43 Q2241.36 206.194 2238.58 207.745 L2238.58 203.022 Q2241.4 201.888 2243.86 201.309 Q2246.31 200.731 2248.35 200.731 Q2253.72 200.731 2256.91 203.416 Q2260.11 206.101 2260.11 210.592 Q2260.11 212.721 2259.3 214.643 Q2258.51 216.541 2256.4 219.133 Q2255.82 219.805 2252.72 223.022 Q2249.62 226.217 2243.97 231.981 Z" fill="#000000" fill-rule="nonzero" fill-opacity="1" /></svg>
