<?xml version="1.0" encoding="utf-8"?>
<svg xmlns="http://www.w3.org/2000/svg" xmlns:xlink="http://www.w3.org/1999/xlink" width="600" height="400" viewBox="0 0 2400 1600">
<defs>
  <clipPath id="clip040">
    <rect x="0" y="0" width="2400" height="1600"/>
  </clipPath>
</defs>
<path clip-path="url(#clip040)" d="M0 1600 L2400 1600 L2400 0 L0 0  Z" fill="#ffffff" fill-rule="evenodd" fill-opacity="1"/>
<defs>
  <clipPath id="clip041">
    <rect x="257" y="123" width="2096" height="1301"/>
  </clipPath>
</defs>
<path clip-path="url(#clip040)" d="M256.209 1423.18 L2352.76 1423.18 L2352.76 123.472 L256.209 123.472  Z" fill="#ffffff" fill-rule="evenodd" fill-opacity="1"/>
<defs>
  <clipPath id="clip042">
    <rect x="256" y="123" width="2098" height="1301"/>
  </clipPath>
</defs>
<polyline clip-path="url(#clip042)" style="stroke:#000000; stroke-linecap:round; stroke-linejoin:round; stroke-width:2; stroke-opacity:0.1; fill:none" points="677.856,1423.18 677.856,123.472 "/>
<polyline clip-path="url(#clip042)" style="stroke:#000000; stroke-linecap:round; stroke-linejoin:round; stroke-width:2; stroke-opacity:0.1; fill:none" points="1134.55,1423.18 1134.55,123.472 "/>
<polyline clip-path="url(#clip042)" style="stroke:#000000; stroke-linecap:round; stroke-linejoin:round; stroke-width:2; stroke-opacity:0.1; fill:none" points="1591.25,1423.18 1591.25,123.472 "/>
<polyline clip-path="url(#clip042)" style="stroke:#000000; stroke-linecap:round; stroke-linejoin:round; stroke-width:2; stroke-opacity:0.1; fill:none" points="2047.95,1423.18 2047.95,123.472 "/>
<polyline clip-path="url(#clip042)" style="stroke:#000000; stroke-linecap:round; stroke-linejoin:round; stroke-width:2; stroke-opacity:0.1; fill:none" points="256.209,1205.6 2352.76,1205.6 "/>
<polyline clip-path="url(#clip042)" style="stroke:#000000; stroke-linecap:round; stroke-linejoin:round; stroke-width:2; stroke-opacity:0.1; fill:none" points="256.209,879.568 2352.76,879.568 "/>
<polyline clip-path="url(#clip042)" style="stroke:#000000; stroke-linecap:round; stroke-linejoin:round; stroke-width:2; stroke-opacity:0.1; fill:none" points="256.209,553.533 2352.76,553.533 "/>
<polyline clip-path="url(#clip042)" style="stroke:#000000; stroke-linecap:round; stroke-linejoin:round; stroke-width:2; stroke-opacity:0.1; fill:none" points="256.209,227.499 2352.76,227.499 "/>
<polyline clip-path="url(#clip040)" style="stroke:#000000; stroke-linecap:round; stroke-linejoin:round; stroke-width:4; stroke-opacity:1; fill:none" points="256.209,1423.18 2352.76,1423.18 "/>
<polyline clip-path="url(#clip040)" style="stroke:#000000; stroke-linecap:round; stroke-linejoin:round; stroke-width:4; stroke-opacity:1; fill:none" points="677.856,1423.18 677.856,1404.28 "/>
<polyline clip-path="url(#clip040)" style="stroke:#000000; stroke-linecap:round; stroke-linejoin:round; stroke-width:4; stroke-opacity:1; fill:none" points="1134.55,1423.18 1134.55,1404.28 "/>
<polyline clip-path="url(#clip040)" style="stroke:#000000; stroke-linecap:round; stroke-linejoin:round; stroke-width:4; stroke-opacity:1; fill:none" points="1591.25,1423.18 1591.25,1404.28 "/>
<polyline clip-path="url(#clip040)" style="stroke:#000000; stroke-linecap:round; stroke-linejoin:round; stroke-width:4; stroke-opacity:1; fill:none" points="2047.95,1423.18 2047.95,1404.28 "/>
<path clip-path="url(#clip040)" d="M594.72 1468.75 L624.395 1468.75 L624.395 1472.69 L594.72 1472.69 L594.72 1468.75 Z" fill="#000000" fill-rule="nonzero" fill-opacity="1" /><path clip-path="url(#clip040)" d="M644.488 1454.1 Q640.877 1454.1 639.048 1457.66 Q637.243 1461.2 637.243 1468.33 Q637.243 1475.44 639.048 1479.01 Q640.877 1482.55 644.488 1482.55 Q648.122 1482.55 649.928 1479.01 Q651.756 1475.44 651.756 1468.33 Q651.756 1461.2 649.928 1457.66 Q648.122 1454.1 644.488 1454.1 M644.488 1450.39 Q650.298 1450.39 653.354 1455 Q656.432 1459.58 656.432 1468.33 Q656.432 1477.06 653.354 1481.67 Q650.298 1486.25 644.488 1486.25 Q638.678 1486.25 635.599 1481.67 Q632.544 1477.06 632.544 1468.33 Q632.544 1459.58 635.599 1455 Q638.678 1450.39 644.488 1450.39 Z" fill="#000000" fill-rule="nonzero" fill-opacity="1" /><path clip-path="url(#clip040)" d="M664.65 1479.7 L669.534 1479.7 L669.534 1485.58 L664.65 1485.58 L664.65 1479.7 Z" fill="#000000" fill-rule="nonzero" fill-opacity="1" /><path clip-path="url(#clip040)" d="M689.719 1454.1 Q686.108 1454.1 684.279 1457.66 Q682.474 1461.2 682.474 1468.33 Q682.474 1475.44 684.279 1479.01 Q686.108 1482.55 689.719 1482.55 Q693.353 1482.55 695.159 1479.01 Q696.988 1475.44 696.988 1468.33 Q696.988 1461.2 695.159 1457.66 Q693.353 1454.1 689.719 1454.1 M689.719 1450.39 Q695.529 1450.39 698.585 1455 Q701.664 1459.58 701.664 1468.33 Q701.664 1477.06 698.585 1481.67 Q695.529 1486.25 689.719 1486.25 Q683.909 1486.25 680.83 1481.67 Q677.775 1477.06 677.775 1468.33 Q677.775 1459.58 680.83 1455 Q683.909 1450.39 689.719 1450.39 Z" fill="#000000" fill-rule="nonzero" fill-opacity="1" /><path clip-path="url(#clip040)" d="M719.881 1454.1 Q716.27 1454.1 714.441 1457.66 Q712.636 1461.2 712.636 1468.33 Q712.636 1475.44 714.441 1479.01 Q716.27 1482.55 719.881 1482.55 Q723.515 1482.55 725.321 1479.01 Q727.15 1475.44 727.15 1468.33 Q727.15 1461.2 725.321 1457.66 Q723.515 1454.1 719.881 1454.1 M719.881 1450.39 Q725.691 1450.39 728.747 1455 Q731.825 1459.58 731.825 1468.33 Q731.825 1477.06 728.747 1481.67 Q725.691 1486.25 719.881 1486.25 Q714.071 1486.25 710.992 1481.67 Q707.937 1477.06 707.937 1468.33 Q707.937 1459.58 710.992 1455 Q714.071 1450.39 719.881 1450.39 Z" fill="#000000" fill-rule="nonzero" fill-opacity="1" /><path clip-path="url(#clip040)" d="M740.089 1451.02 L758.446 1451.02 L758.446 1454.96 L744.372 1454.96 L744.372 1463.43 Q745.39 1463.08 746.409 1462.92 Q747.427 1462.73 748.446 1462.73 Q754.233 1462.73 757.612 1465.9 Q760.992 1469.08 760.992 1474.49 Q760.992 1480.07 757.52 1483.17 Q754.048 1486.25 747.728 1486.25 Q745.552 1486.25 743.284 1485.88 Q741.038 1485.51 738.631 1484.77 L738.631 1480.07 Q740.714 1481.2 742.936 1481.76 Q745.159 1482.32 747.636 1482.32 Q751.64 1482.32 753.978 1480.21 Q756.316 1478.1 756.316 1474.49 Q756.316 1470.88 753.978 1468.77 Q751.64 1466.67 747.636 1466.67 Q745.761 1466.67 743.886 1467.08 Q742.034 1467.5 740.089 1468.38 L740.089 1451.02 Z" fill="#000000" fill-rule="nonzero" fill-opacity="1" /><path clip-path="url(#clip040)" d="M1081.78 1454.1 Q1078.17 1454.1 1076.34 1457.66 Q1074.53 1461.2 1074.53 1468.33 Q1074.53 1475.44 1076.34 1479.01 Q1078.17 1482.55 1081.78 1482.55 Q1085.41 1482.55 1087.22 1479.01 Q1089.05 1475.44 1089.05 1468.33 Q1089.05 1461.2 1087.22 1457.66 Q1085.41 1454.1 1081.78 1454.1 M1081.78 1450.39 Q1087.59 1450.39 1090.64 1455 Q1093.72 1459.58 1093.72 1468.33 Q1093.72 1477.06 1090.64 1481.67 Q1087.59 1486.25 1081.78 1486.25 Q1075.97 1486.25 1072.89 1481.67 Q1069.83 1477.06 1069.83 1468.33 Q1069.83 1459.58 1072.89 1455 Q1075.97 1450.39 1081.78 1450.39 Z" fill="#000000" fill-rule="nonzero" fill-opacity="1" /><path clip-path="url(#clip040)" d="M1101.94 1479.7 L1106.82 1479.7 L1106.82 1485.58 L1101.94 1485.58 L1101.94 1479.7 Z" fill="#000000" fill-rule="nonzero" fill-opacity="1" /><path clip-path="url(#clip040)" d="M1127.01 1454.1 Q1123.4 1454.1 1121.57 1457.66 Q1119.76 1461.2 1119.76 1468.33 Q1119.76 1475.44 1121.57 1479.01 Q1123.4 1482.55 1127.01 1482.55 Q1130.64 1482.55 1132.45 1479.01 Q1134.28 1475.44 1134.28 1468.33 Q1134.28 1461.2 1132.45 1457.66 Q1130.64 1454.1 1127.01 1454.1 M1127.01 1450.39 Q1132.82 1450.39 1135.87 1455 Q1138.95 1459.58 1138.95 1468.33 Q1138.95 1477.06 1135.87 1481.67 Q1132.82 1486.25 1127.01 1486.25 Q1121.2 1486.25 1118.12 1481.67 Q1115.06 1477.06 1115.06 1468.33 Q1115.06 1459.58 1118.12 1455 Q1121.2 1450.39 1127.01 1450.39 Z" fill="#000000" fill-rule="nonzero" fill-opacity="1" /><path clip-path="url(#clip040)" d="M1157.17 1454.1 Q1153.56 1454.1 1151.73 1457.66 Q1149.92 1461.2 1149.92 1468.33 Q1149.92 1475.44 1151.73 1479.01 Q1153.56 1482.55 1157.17 1482.55 Q1160.8 1482.55 1162.61 1479.01 Q1164.44 1475.44 1164.44 1468.33 Q1164.44 1461.2 1162.61 1457.66 Q1160.8 1454.1 1157.17 1454.1 M1157.17 1450.39 Q1162.98 1450.39 1166.04 1455 Q1169.11 1459.58 1169.11 1468.33 Q1169.11 1477.06 1166.04 1481.67 Q1162.98 1486.25 1157.17 1486.25 Q1151.36 1486.25 1148.28 1481.67 Q1145.23 1477.06 1145.23 1468.33 Q1145.23 1459.58 1148.28 1455 Q1151.36 1450.39 1157.17 1450.39 Z" fill="#000000" fill-rule="nonzero" fill-opacity="1" /><path clip-path="url(#clip040)" d="M1187.33 1454.1 Q1183.72 1454.1 1181.89 1457.66 Q1180.09 1461.2 1180.09 1468.33 Q1180.09 1475.44 1181.89 1479.01 Q1183.72 1482.55 1187.33 1482.55 Q1190.97 1482.55 1192.77 1479.01 Q1194.6 1475.44 1194.6 1468.33 Q1194.6 1461.2 1192.77 1457.66 Q1190.97 1454.1 1187.33 1454.1 M1187.33 1450.39 Q1193.14 1450.39 1196.2 1455 Q1199.28 1459.58 1199.28 1468.33 Q1199.28 1477.06 1196.2 1481.67 Q1193.14 1486.25 1187.33 1486.25 Q1181.52 1486.25 1178.44 1481.67 Q1175.39 1477.06 1175.39 1468.33 Q1175.39 1459.58 1178.44 1455 Q1181.52 1450.39 1187.33 1450.39 Z" fill="#000000" fill-rule="nonzero" fill-opacity="1" /><path clip-path="url(#clip040)" d="M1538.97 1454.1 Q1535.36 1454.1 1533.53 1457.66 Q1531.73 1461.2 1531.73 1468.33 Q1531.73 1475.44 1533.53 1479.01 Q1535.36 1482.55 1538.97 1482.55 Q1542.61 1482.55 1544.41 1479.01 Q1546.24 1475.44 1546.24 1468.33 Q1546.24 1461.2 1544.41 1457.66 Q1542.61 1454.1 1538.97 1454.1 M1538.97 1450.39 Q1544.78 1450.39 1547.84 1455 Q1550.92 1459.58 1550.92 1468.33 Q1550.92 1477.06 1547.84 1481.67 Q1544.78 1486.25 1538.97 1486.25 Q1533.16 1486.25 1530.08 1481.67 Q1527.03 1477.06 1527.03 1468.33 Q1527.03 1459.58 1530.08 1455 Q1533.16 1450.39 1538.97 1450.39 Z" fill="#000000" fill-rule="nonzero" fill-opacity="1" /><path clip-path="url(#clip040)" d="M1559.13 1479.7 L1564.02 1479.7 L1564.02 1485.58 L1559.13 1485.58 L1559.13 1479.7 Z" fill="#000000" fill-rule="nonzero" fill-opacity="1" /><path clip-path="url(#clip040)" d="M1584.2 1454.1 Q1580.59 1454.1 1578.76 1457.66 Q1576.96 1461.2 1576.96 1468.33 Q1576.96 1475.44 1578.76 1479.01 Q1580.59 1482.55 1584.2 1482.55 Q1587.84 1482.55 1589.64 1479.01 Q1591.47 1475.44 1591.47 1468.33 Q1591.47 1461.2 1589.64 1457.66 Q1587.84 1454.1 1584.2 1454.1 M1584.2 1450.39 Q1590.01 1450.39 1593.07 1455 Q1596.15 1459.58 1596.15 1468.33 Q1596.15 1477.06 1593.07 1481.67 Q1590.01 1486.25 1584.2 1486.25 Q1578.39 1486.25 1575.31 1481.67 Q1572.26 1477.06 1572.26 1468.33 Q1572.26 1459.58 1575.31 1455 Q1578.39 1450.39 1584.2 1450.39 Z" fill="#000000" fill-rule="nonzero" fill-opacity="1" /><path clip-path="url(#clip040)" d="M1614.37 1454.1 Q1610.75 1454.1 1608.93 1457.66 Q1607.12 1461.2 1607.12 1468.33 Q1607.12 1475.44 1608.93 1479.01 Q1610.75 1482.55 1614.37 1482.55 Q1618 1482.55 1619.81 1479.01 Q1621.63 1475.44 1621.63 1468.33 Q1621.63 1461.2 1619.81 1457.66 Q1618 1454.1 1614.37 1454.1 M1614.37 1450.39 Q1620.18 1450.39 1623.23 1455 Q1626.31 1459.58 1626.31 1468.33 Q1626.31 1477.06 1623.23 1481.67 Q1620.18 1486.25 1614.37 1486.25 Q1608.56 1486.25 1605.48 1481.67 Q1602.42 1477.06 1602.42 1468.33 Q1602.42 1459.58 1605.48 1455 Q1608.56 1450.39 1614.37 1450.39 Z" fill="#000000" fill-rule="nonzero" fill-opacity="1" /><path clip-path="url(#clip040)" d="M1634.57 1451.02 L1652.93 1451.02 L1652.93 1454.96 L1638.86 1454.96 L1638.86 1463.43 Q1639.87 1463.08 1640.89 1462.92 Q1641.91 1462.73 1642.93 1462.73 Q1648.72 1462.73 1652.1 1465.9 Q1655.48 1469.08 1655.48 1474.49 Q1655.48 1480.07 1652 1483.17 Q1648.53 1486.25 1642.21 1486.25 Q1640.04 1486.25 1637.77 1485.88 Q1635.52 1485.51 1633.12 1484.77 L1633.12 1480.07 Q1635.2 1481.2 1637.42 1481.76 Q1639.64 1482.32 1642.12 1482.32 Q1646.12 1482.32 1648.46 1480.21 Q1650.8 1478.1 1650.8 1474.49 Q1650.8 1470.88 1648.46 1468.77 Q1646.12 1466.67 1642.12 1466.67 Q1640.25 1466.67 1638.37 1467.08 Q1636.52 1467.5 1634.57 1468.38 L1634.57 1451.02 Z" fill="#000000" fill-rule="nonzero" fill-opacity="1" /><path clip-path="url(#clip040)" d="M1995.17 1454.1 Q1991.56 1454.1 1989.73 1457.66 Q1987.93 1461.2 1987.93 1468.33 Q1987.93 1475.44 1989.73 1479.01 Q1991.56 1482.55 1995.17 1482.55 Q1998.81 1482.55 2000.61 1479.01 Q2002.44 1475.44 2002.44 1468.33 Q2002.44 1461.2 2000.61 1457.66 Q1998.81 1454.1 1995.17 1454.1 M1995.17 1450.39 Q2000.98 1450.39 2004.04 1455 Q2007.12 1459.58 2007.12 1468.33 Q2007.12 1477.06 2004.04 1481.67 Q2000.98 1486.25 1995.17 1486.25 Q1989.36 1486.25 1986.28 1481.67 Q1983.23 1477.06 1983.23 1468.33 Q1983.23 1459.58 1986.28 1455 Q1989.36 1450.39 1995.17 1450.39 Z" fill="#000000" fill-rule="nonzero" fill-opacity="1" /><path clip-path="url(#clip040)" d="M2015.33 1479.7 L2020.22 1479.7 L2020.22 1485.58 L2015.33 1485.58 L2015.33 1479.7 Z" fill="#000000" fill-rule="nonzero" fill-opacity="1" /><path clip-path="url(#clip040)" d="M2040.4 1454.1 Q2036.79 1454.1 2034.96 1457.66 Q2033.16 1461.2 2033.16 1468.33 Q2033.16 1475.44 2034.96 1479.01 Q2036.79 1482.55 2040.4 1482.55 Q2044.04 1482.55 2045.84 1479.01 Q2047.67 1475.44 2047.67 1468.33 Q2047.67 1461.2 2045.84 1457.66 Q2044.04 1454.1 2040.4 1454.1 M2040.4 1450.39 Q2046.21 1450.39 2049.27 1455 Q2052.35 1459.58 2052.35 1468.33 Q2052.35 1477.06 2049.27 1481.67 Q2046.21 1486.25 2040.4 1486.25 Q2034.59 1486.25 2031.52 1481.67 Q2028.46 1477.06 2028.46 1468.33 Q2028.46 1459.58 2031.52 1455 Q2034.59 1450.39 2040.4 1450.39 Z" fill="#000000" fill-rule="nonzero" fill-opacity="1" /><path clip-path="url(#clip040)" d="M2061.38 1481.64 L2069.02 1481.64 L2069.02 1455.28 L2060.7 1456.95 L2060.7 1452.69 L2068.97 1451.02 L2073.64 1451.02 L2073.64 1481.64 L2081.28 1481.64 L2081.28 1485.58 L2061.38 1485.58 L2061.38 1481.64 Z" fill="#000000" fill-rule="nonzero" fill-opacity="1" /><path clip-path="url(#clip040)" d="M2100.73 1454.1 Q2097.12 1454.1 2095.29 1457.66 Q2093.48 1461.2 2093.48 1468.33 Q2093.48 1475.44 2095.29 1479.01 Q2097.12 1482.55 2100.73 1482.55 Q2104.36 1482.55 2106.17 1479.01 Q2108 1475.44 2108 1468.33 Q2108 1461.2 2106.17 1457.66 Q2104.36 1454.1 2100.73 1454.1 M2100.73 1450.39 Q2106.54 1450.39 2109.59 1455 Q2112.67 1459.58 2112.67 1468.33 Q2112.67 1477.06 2109.59 1481.67 Q2106.54 1486.25 2100.73 1486.25 Q2094.92 1486.25 2091.84 1481.67 Q2088.78 1477.06 2088.78 1468.33 Q2088.78 1459.58 2091.84 1455 Q2094.92 1450.39 2100.73 1450.39 Z" fill="#000000" fill-rule="nonzero" fill-opacity="1" /><path clip-path="url(#clip040)" d="M707.268 1520.52 L713.697 1520.52 L713.697 1562.63 L736.836 1562.63 L736.836 1568.04 L707.268 1568.04 L707.268 1520.52 Z" fill="#000000" fill-rule="nonzero" fill-opacity="1" /><path clip-path="url(#clip040)" d="M772.675 1548.76 L772.675 1551.62 L745.748 1551.62 Q746.13 1557.67 749.377 1560.85 Q752.655 1564 758.48 1564 Q761.854 1564 765.005 1563.17 Q768.187 1562.35 771.307 1560.69 L771.307 1566.23 Q768.156 1567.57 764.845 1568.27 Q761.535 1568.97 758.13 1568.97 Q749.6 1568.97 744.602 1564 Q739.637 1559.04 739.637 1550.57 Q739.637 1541.82 744.348 1536.69 Q749.09 1531.54 757.111 1531.54 Q764.304 1531.54 768.474 1536.18 Q772.675 1540.8 772.675 1548.76 M766.819 1547.04 Q766.755 1542.23 764.113 1539.37 Q761.503 1536.5 757.175 1536.5 Q752.273 1536.5 749.313 1539.27 Q746.385 1542.04 745.939 1547.07 L766.819 1547.04 Z" fill="#000000" fill-rule="nonzero" fill-opacity="1" /><path clip-path="url(#clip040)" d="M798.488 1550.12 Q791.39 1550.12 788.653 1551.75 Q785.916 1553.37 785.916 1557.29 Q785.916 1560.4 787.953 1562.25 Q790.022 1564.07 793.555 1564.07 Q798.425 1564.07 801.353 1560.63 Q804.313 1557.16 804.313 1551.43 L804.313 1550.12 L798.488 1550.12 M810.169 1547.71 L810.169 1568.04 L804.313 1568.04 L804.313 1562.63 Q802.308 1565.88 799.316 1567.44 Q796.324 1568.97 791.995 1568.97 Q786.521 1568.97 783.274 1565.91 Q780.059 1562.82 780.059 1557.67 Q780.059 1551.65 784.07 1548.6 Q788.112 1545.54 796.101 1545.54 L804.313 1545.54 L804.313 1544.97 Q804.313 1540.93 801.639 1538.73 Q798.997 1536.5 794.191 1536.5 Q791.136 1536.5 788.239 1537.23 Q785.343 1537.97 782.669 1539.43 L782.669 1534.02 Q785.884 1532.78 788.908 1532.17 Q791.932 1531.54 794.796 1531.54 Q802.53 1531.54 806.35 1535.55 Q810.169 1539.56 810.169 1547.71 Z" fill="#000000" fill-rule="nonzero" fill-opacity="1" /><path clip-path="url(#clip040)" d="M845.69 1537.81 L845.69 1518.52 L851.546 1518.52 L851.546 1568.04 L845.69 1568.04 L845.69 1562.7 Q843.844 1565.88 841.011 1567.44 Q838.21 1568.97 834.263 1568.97 Q827.802 1568.97 823.728 1563.81 Q819.686 1558.65 819.686 1550.25 Q819.686 1541.85 823.728 1536.69 Q827.802 1531.54 834.263 1531.54 Q838.21 1531.54 841.011 1533.1 Q843.844 1534.62 845.69 1537.81 M825.733 1550.25 Q825.733 1556.71 828.375 1560.4 Q831.049 1564.07 835.696 1564.07 Q840.343 1564.07 843.016 1560.4 Q845.69 1556.71 845.69 1550.25 Q845.69 1543.79 843.016 1540.13 Q840.343 1536.44 835.696 1536.44 Q831.049 1536.44 828.375 1540.13 Q825.733 1543.79 825.733 1550.25 Z" fill="#000000" fill-rule="nonzero" fill-opacity="1" /><path clip-path="url(#clip040)" d="M894.101 1548.76 L894.101 1551.62 L867.174 1551.62 Q867.556 1557.67 870.803 1560.85 Q874.081 1564 879.906 1564 Q883.279 1564 886.43 1563.17 Q889.613 1562.35 892.732 1560.69 L892.732 1566.23 Q889.581 1567.57 886.271 1568.27 Q882.961 1568.97 879.555 1568.97 Q871.025 1568.97 866.028 1564 Q861.063 1559.04 861.063 1550.57 Q861.063 1541.82 865.774 1536.69 Q870.516 1531.54 878.537 1531.54 Q885.73 1531.54 889.9 1536.18 Q894.101 1540.8 894.101 1548.76 M888.245 1547.04 Q888.181 1542.23 885.539 1539.37 Q882.929 1536.5 878.601 1536.5 Q873.699 1536.5 870.739 1539.27 Q867.811 1542.04 867.365 1547.07 L888.245 1547.04 Z" fill="#000000" fill-rule="nonzero" fill-opacity="1" /><path clip-path="url(#clip040)" d="M924.37 1537.87 Q923.383 1537.3 922.206 1537.04 Q921.06 1536.76 919.659 1536.76 Q914.694 1536.76 912.021 1540 Q909.379 1543.22 909.379 1549.27 L909.379 1568.04 L903.491 1568.04 L903.491 1532.4 L909.379 1532.4 L909.379 1537.93 Q911.225 1534.69 914.185 1533.13 Q917.145 1531.54 921.378 1531.54 Q921.983 1531.54 922.715 1531.63 Q923.447 1531.7 924.338 1531.85 L924.37 1537.87 Z" fill="#000000" fill-rule="nonzero" fill-opacity="1" /><path clip-path="url(#clip040)" d="M936.051 1520.52 L936.051 1538.19 L930.64 1538.19 L930.64 1520.52 L936.051 1520.52 Z" fill="#000000" fill-rule="nonzero" fill-opacity="1" /><path clip-path="url(#clip040)" d="M971.158 1533.45 L971.158 1538.98 Q968.675 1537.71 966.002 1537.07 Q963.328 1536.44 960.464 1536.44 Q956.103 1536.44 953.907 1537.77 Q951.743 1539.11 951.743 1541.79 Q951.743 1543.82 953.302 1545 Q954.862 1546.15 959.572 1547.2 L961.578 1547.64 Q967.816 1548.98 970.426 1551.43 Q973.068 1553.85 973.068 1558.21 Q973.068 1563.17 969.121 1566.07 Q965.206 1568.97 958.331 1568.97 Q955.467 1568.97 952.347 1568.39 Q949.26 1567.85 945.822 1566.74 L945.822 1560.69 Q949.069 1562.38 952.22 1563.24 Q955.371 1564.07 958.458 1564.07 Q962.596 1564.07 964.824 1562.66 Q967.052 1561.23 967.052 1558.65 Q967.052 1556.27 965.429 1554.99 Q963.837 1553.72 958.395 1552.54 L956.358 1552.07 Q950.915 1550.92 948.496 1548.56 Q946.077 1546.18 946.077 1542.04 Q946.077 1537.01 949.642 1534.27 Q953.207 1531.54 959.763 1531.54 Q963.01 1531.54 965.874 1532.01 Q968.739 1532.49 971.158 1533.45 Z" fill="#000000" fill-rule="nonzero" fill-opacity="1" /><path clip-path="url(#clip040)" d="M1008.78 1562.7 L1008.78 1581.6 L1002.89 1581.6 L1002.89 1532.4 L1008.78 1532.4 L1008.78 1537.81 Q1010.63 1534.62 1013.43 1533.1 Q1016.26 1531.54 1020.17 1531.54 Q1026.67 1531.54 1030.71 1536.69 Q1034.78 1541.85 1034.78 1550.25 Q1034.78 1558.65 1030.71 1563.81 Q1026.67 1568.97 1020.17 1568.97 Q1016.26 1568.97 1013.43 1567.44 Q1010.63 1565.88 1008.78 1562.7 M1028.7 1550.25 Q1028.7 1543.79 1026.03 1540.13 Q1023.39 1536.44 1018.74 1536.44 Q1014.09 1536.44 1011.42 1540.13 Q1008.78 1543.79 1008.78 1550.25 Q1008.78 1556.71 1011.42 1560.4 Q1014.09 1564.07 1018.74 1564.07 Q1023.39 1564.07 1026.03 1560.4 Q1028.7 1556.71 1028.7 1550.25 Z" fill="#000000" fill-rule="nonzero" fill-opacity="1" /><path clip-path="url(#clip040)" d="M1065.15 1537.87 Q1064.16 1537.3 1062.98 1537.04 Q1061.84 1536.76 1060.44 1536.76 Q1055.47 1536.76 1052.8 1540 Q1050.16 1543.22 1050.16 1549.27 L1050.16 1568.04 L1044.27 1568.04 L1044.27 1532.4 L1050.16 1532.4 L1050.16 1537.93 Q1052 1534.69 1054.96 1533.13 Q1057.92 1531.54 1062.16 1531.54 Q1062.76 1531.54 1063.49 1531.63 Q1064.22 1531.7 1065.12 1531.85 L1065.15 1537.87 Z" fill="#000000" fill-rule="nonzero" fill-opacity="1" /><path clip-path="url(#clip040)" d="M1071.29 1532.4 L1077.15 1532.4 L1077.15 1568.04 L1071.29 1568.04 L1071.29 1532.4 M1071.29 1518.52 L1077.15 1518.52 L1077.15 1525.93 L1071.29 1525.93 L1071.29 1518.52 Z" fill="#000000" fill-rule="nonzero" fill-opacity="1" /><path clip-path="url(#clip040)" d="M1115.05 1533.76 L1115.05 1539.24 Q1112.57 1537.87 1110.06 1537.2 Q1107.58 1536.5 1105.03 1536.5 Q1099.33 1536.5 1096.18 1540.13 Q1093.03 1543.73 1093.03 1550.25 Q1093.03 1556.78 1096.18 1560.4 Q1099.33 1564 1105.03 1564 Q1107.58 1564 1110.06 1563.33 Q1112.57 1562.63 1115.05 1561.26 L1115.05 1566.68 Q1112.6 1567.82 1109.96 1568.39 Q1107.35 1568.97 1104.39 1568.97 Q1096.34 1568.97 1091.6 1563.91 Q1086.85 1558.85 1086.85 1550.25 Q1086.85 1541.53 1091.63 1536.53 Q1096.44 1531.54 1104.77 1531.54 Q1107.48 1531.54 1110.06 1532.11 Q1112.64 1532.65 1115.05 1533.76 Z" fill="#000000" fill-rule="nonzero" fill-opacity="1" /><path clip-path="url(#clip040)" d="M1155.73 1548.76 L1155.73 1551.62 L1128.8 1551.62 Q1129.19 1557.67 1132.43 1560.85 Q1135.71 1564 1141.54 1564 Q1144.91 1564 1148.06 1563.17 Q1151.24 1562.35 1154.36 1560.69 L1154.36 1566.23 Q1151.21 1567.57 1147.9 1568.27 Q1144.59 1568.97 1141.19 1568.97 Q1132.66 1568.97 1127.66 1564 Q1122.69 1559.04 1122.69 1550.57 Q1122.69 1541.82 1127.4 1536.69 Q1132.15 1531.54 1140.17 1531.54 Q1147.36 1531.54 1151.53 1536.18 Q1155.73 1540.8 1155.73 1548.76 M1149.88 1547.04 Q1149.81 1542.23 1147.17 1539.37 Q1144.56 1536.5 1140.23 1536.5 Q1135.33 1536.5 1132.37 1539.27 Q1129.44 1542.04 1129 1547.07 L1149.88 1547.04 Z" fill="#000000" fill-rule="nonzero" fill-opacity="1" /><path clip-path="url(#clip040)" d="M1192.43 1562.63 L1214.87 1562.63 L1214.87 1568.04 L1184.7 1568.04 L1184.7 1562.63 Q1188.36 1558.85 1194.66 1552.48 Q1200.99 1546.08 1202.62 1544.24 Q1205.7 1540.77 1206.91 1538.38 Q1208.15 1535.96 1208.15 1533.64 Q1208.15 1529.85 1205.48 1527.46 Q1202.84 1525.08 1198.57 1525.08 Q1195.55 1525.08 1192.18 1526.13 Q1188.83 1527.18 1185.01 1529.31 L1185.01 1522.82 Q1188.9 1521.26 1192.27 1520.46 Q1195.64 1519.66 1198.45 1519.66 Q1205.83 1519.66 1210.22 1523.36 Q1214.61 1527.05 1214.61 1533.22 Q1214.61 1536.15 1213.5 1538.79 Q1212.42 1541.4 1209.52 1544.97 Q1208.73 1545.89 1204.46 1550.32 Q1200.2 1554.71 1192.43 1562.63 Z" fill="#000000" fill-rule="nonzero" fill-opacity="1" /><path clip-path="url(#clip040)" d="M1257.17 1546.53 L1257.17 1568.04 L1251.31 1568.04 L1251.31 1546.72 Q1251.31 1541.66 1249.34 1539.14 Q1247.37 1536.63 1243.42 1536.63 Q1238.68 1536.63 1235.94 1539.65 Q1233.2 1542.68 1233.2 1547.9 L1233.2 1568.04 L1227.31 1568.04 L1227.31 1532.4 L1233.2 1532.4 L1233.2 1537.93 Q1235.3 1534.72 1238.14 1533.13 Q1241 1531.54 1244.72 1531.54 Q1250.87 1531.54 1254.02 1535.36 Q1257.17 1539.14 1257.17 1546.53 Z" fill="#000000" fill-rule="nonzero" fill-opacity="1" /><path clip-path="url(#clip040)" d="M1292.31 1537.81 L1292.31 1518.52 L1298.16 1518.52 L1298.16 1568.04 L1292.31 1568.04 L1292.31 1562.7 Q1290.46 1565.88 1287.63 1567.44 Q1284.83 1568.97 1280.88 1568.97 Q1274.42 1568.97 1270.35 1563.81 Q1266.3 1558.65 1266.3 1550.25 Q1266.3 1541.85 1270.35 1536.69 Q1274.42 1531.54 1280.88 1531.54 Q1284.83 1531.54 1287.63 1533.1 Q1290.46 1534.62 1292.31 1537.81 M1272.35 1550.25 Q1272.35 1556.71 1274.99 1560.4 Q1277.67 1564.07 1282.31 1564.07 Q1286.96 1564.07 1289.63 1560.4 Q1292.31 1556.71 1292.31 1550.25 Q1292.31 1543.79 1289.63 1540.13 Q1286.96 1536.44 1282.31 1536.44 Q1277.67 1536.44 1274.99 1540.13 Q1272.35 1543.79 1272.35 1550.25 Z" fill="#000000" fill-rule="nonzero" fill-opacity="1" /><path clip-path="url(#clip040)" d="M1354.41 1537.81 L1354.41 1518.52 L1360.26 1518.52 L1360.26 1568.04 L1354.41 1568.04 L1354.41 1562.7 Q1352.56 1565.88 1349.73 1567.44 Q1346.93 1568.97 1342.98 1568.97 Q1336.52 1568.97 1332.44 1563.81 Q1328.4 1558.65 1328.4 1550.25 Q1328.4 1541.85 1332.44 1536.69 Q1336.52 1531.54 1342.98 1531.54 Q1346.93 1531.54 1349.73 1533.1 Q1352.56 1534.62 1354.41 1537.81 M1334.45 1550.25 Q1334.45 1556.71 1337.09 1560.4 Q1339.76 1564.07 1344.41 1564.07 Q1349.06 1564.07 1351.73 1560.4 Q1354.41 1556.71 1354.41 1550.25 Q1354.41 1543.79 1351.73 1540.13 Q1349.06 1536.44 1344.41 1536.44 Q1339.76 1536.44 1337.09 1540.13 Q1334.45 1543.79 1334.45 1550.25 Z" fill="#000000" fill-rule="nonzero" fill-opacity="1" /><path clip-path="url(#clip040)" d="M1402.82 1548.76 L1402.82 1551.62 L1375.89 1551.62 Q1376.27 1557.67 1379.52 1560.85 Q1382.8 1564 1388.62 1564 Q1391.99 1564 1395.15 1563.17 Q1398.33 1562.35 1401.45 1560.69 L1401.45 1566.23 Q1398.3 1567.57 1394.99 1568.27 Q1391.68 1568.97 1388.27 1568.97 Q1379.74 1568.97 1374.74 1564 Q1369.78 1559.04 1369.78 1550.57 Q1369.78 1541.82 1374.49 1536.69 Q1379.23 1531.54 1387.25 1531.54 Q1394.45 1531.54 1398.62 1536.18 Q1402.82 1540.8 1402.82 1548.76 M1396.96 1547.04 Q1396.9 1542.23 1394.25 1539.37 Q1391.64 1536.5 1387.32 1536.5 Q1382.41 1536.5 1379.45 1539.27 Q1376.53 1542.04 1376.08 1547.07 L1396.96 1547.04 Z" fill="#000000" fill-rule="nonzero" fill-opacity="1" /><path clip-path="url(#clip040)" d="M1433.09 1537.87 Q1432.1 1537.3 1430.92 1537.04 Q1429.78 1536.76 1428.37 1536.76 Q1423.41 1536.76 1420.74 1540 Q1418.09 1543.22 1418.09 1549.27 L1418.09 1568.04 L1412.21 1568.04 L1412.21 1532.4 L1418.09 1532.4 L1418.09 1537.93 Q1419.94 1534.69 1422.9 1533.13 Q1425.86 1531.54 1430.09 1531.54 Q1430.7 1531.54 1431.43 1531.63 Q1432.16 1531.7 1433.05 1531.85 L1433.09 1537.87 Z" fill="#000000" fill-rule="nonzero" fill-opacity="1" /><path clip-path="url(#clip040)" d="M1439.23 1532.4 L1445.08 1532.4 L1445.08 1568.04 L1439.23 1568.04 L1439.23 1532.4 M1439.23 1518.52 L1445.08 1518.52 L1445.08 1525.93 L1439.23 1525.93 L1439.23 1518.52 Z" fill="#000000" fill-rule="nonzero" fill-opacity="1" /><path clip-path="url(#clip040)" d="M1453.14 1532.4 L1459.34 1532.4 L1470.48 1562.31 L1481.62 1532.4 L1487.83 1532.4 L1474.46 1568.04 L1466.51 1568.04 L1453.14 1532.4 Z" fill="#000000" fill-rule="nonzero" fill-opacity="1" /><path clip-path="url(#clip040)" d="M1491.68 1559.96 L1498.4 1559.96 L1498.4 1568.04 L1491.68 1568.04 L1491.68 1559.96 Z" fill="#000000" fill-rule="nonzero" fill-opacity="1" /><path clip-path="url(#clip040)" d="M1532.3 1518.52 L1538.15 1518.52 L1538.15 1568.04 L1532.3 1568.04 L1532.3 1518.52 Z" fill="#000000" fill-rule="nonzero" fill-opacity="1" /><path clip-path="url(#clip040)" d="M1566.61 1550.12 Q1559.51 1550.12 1556.77 1551.75 Q1554.03 1553.37 1554.03 1557.29 Q1554.03 1560.4 1556.07 1562.25 Q1558.14 1564.07 1561.67 1564.07 Q1566.54 1564.07 1569.47 1560.63 Q1572.43 1557.16 1572.43 1551.43 L1572.43 1550.12 L1566.61 1550.12 M1578.29 1547.71 L1578.29 1568.04 L1572.43 1568.04 L1572.43 1562.63 Q1570.43 1565.88 1567.43 1567.44 Q1564.44 1568.97 1560.11 1568.97 Q1554.64 1568.97 1551.39 1565.91 Q1548.18 1562.82 1548.18 1557.67 Q1548.18 1551.65 1552.19 1548.6 Q1556.23 1545.54 1564.22 1545.54 L1572.43 1545.54 L1572.43 1544.97 Q1572.43 1540.93 1569.76 1538.73 Q1567.12 1536.5 1562.31 1536.5 Q1559.25 1536.5 1556.36 1537.23 Q1553.46 1537.97 1550.79 1539.43 L1550.79 1534.02 Q1554 1532.78 1557.03 1532.17 Q1560.05 1531.54 1562.91 1531.54 Q1570.65 1531.54 1574.47 1535.55 Q1578.29 1539.56 1578.29 1547.71 Z" fill="#000000" fill-rule="nonzero" fill-opacity="1" /><path clip-path="url(#clip040)" d="M1613.08 1533.45 L1613.08 1538.98 Q1610.59 1537.71 1607.92 1537.07 Q1605.25 1536.44 1602.38 1536.44 Q1598.02 1536.44 1595.82 1537.77 Q1593.66 1539.11 1593.66 1541.79 Q1593.66 1543.82 1595.22 1545 Q1596.78 1546.15 1601.49 1547.2 L1603.5 1547.64 Q1609.73 1548.98 1612.34 1551.43 Q1614.99 1553.85 1614.99 1558.21 Q1614.99 1563.17 1611.04 1566.07 Q1607.12 1568.97 1600.25 1568.97 Q1597.38 1568.97 1594.27 1568.39 Q1591.18 1567.85 1587.74 1566.74 L1587.74 1560.69 Q1590.99 1562.38 1594.14 1563.24 Q1597.29 1564.07 1600.38 1564.07 Q1604.51 1564.07 1606.74 1562.66 Q1608.97 1561.23 1608.97 1558.65 Q1608.97 1556.27 1607.35 1554.99 Q1605.76 1553.72 1600.31 1552.54 L1598.28 1552.07 Q1592.83 1550.92 1590.41 1548.56 Q1587.99 1546.18 1587.99 1542.04 Q1587.99 1537.01 1591.56 1534.27 Q1595.12 1531.54 1601.68 1531.54 Q1604.93 1531.54 1607.79 1532.01 Q1610.66 1532.49 1613.08 1533.45 Z" fill="#000000" fill-rule="nonzero" fill-opacity="1" /><path clip-path="url(#clip040)" d="M1630.1 1522.27 L1630.1 1532.4 L1642.17 1532.4 L1642.17 1536.95 L1630.1 1536.95 L1630.1 1556.3 Q1630.1 1560.66 1631.28 1561.9 Q1632.49 1563.14 1636.15 1563.14 L1642.17 1563.14 L1642.17 1568.04 L1636.15 1568.04 Q1629.37 1568.04 1626.79 1565.53 Q1624.22 1562.98 1624.22 1556.3 L1624.22 1536.95 L1619.92 1536.95 L1619.92 1532.4 L1624.22 1532.4 L1624.22 1522.27 L1630.1 1522.27 Z" fill="#000000" fill-rule="nonzero" fill-opacity="1" /><path clip-path="url(#clip040)" d="M1676.96 1562.63 L1699.39 1562.63 L1699.39 1568.04 L1669.22 1568.04 L1669.22 1562.63 Q1672.88 1558.85 1679.18 1552.48 Q1685.52 1546.08 1687.14 1544.24 Q1690.23 1540.77 1691.44 1538.38 Q1692.68 1535.96 1692.68 1533.64 Q1692.68 1529.85 1690.01 1527.46 Q1687.36 1525.08 1683.1 1525.08 Q1680.07 1525.08 1676.7 1526.13 Q1673.36 1527.18 1669.54 1529.31 L1669.54 1522.82 Q1673.42 1521.26 1676.8 1520.46 Q1680.17 1519.66 1682.97 1519.66 Q1690.36 1519.66 1694.75 1523.36 Q1699.14 1527.05 1699.14 1533.22 Q1699.14 1536.15 1698.03 1538.79 Q1696.94 1541.4 1694.05 1544.97 Q1693.25 1545.89 1688.99 1550.32 Q1684.72 1554.71 1676.96 1562.63 Z" fill="#000000" fill-rule="nonzero" fill-opacity="1" /><path clip-path="url(#clip040)" d="M1712.95 1520.52 L1738.19 1520.52 L1738.19 1525.93 L1718.84 1525.93 L1718.84 1537.58 Q1720.24 1537.11 1721.64 1536.88 Q1723.04 1536.63 1724.44 1536.63 Q1732.4 1536.63 1737.05 1540.99 Q1741.69 1545.35 1741.69 1552.8 Q1741.69 1560.47 1736.92 1564.73 Q1732.15 1568.97 1723.46 1568.97 Q1720.47 1568.97 1717.35 1568.46 Q1714.26 1567.95 1710.95 1566.93 L1710.95 1560.47 Q1713.81 1562.03 1716.87 1562.79 Q1719.92 1563.56 1723.33 1563.56 Q1728.84 1563.56 1732.05 1560.66 Q1735.27 1557.76 1735.27 1552.8 Q1735.27 1547.83 1732.05 1544.94 Q1728.84 1542.04 1723.33 1542.04 Q1720.75 1542.04 1718.17 1542.61 Q1715.63 1543.19 1712.95 1544.4 L1712.95 1520.52 Z" fill="#000000" fill-rule="nonzero" fill-opacity="1" /><path clip-path="url(#clip040)" d="M1790.46 1550.12 Q1783.36 1550.12 1780.62 1551.75 Q1777.88 1553.37 1777.88 1557.29 Q1777.88 1560.4 1779.92 1562.25 Q1781.99 1564.07 1785.52 1564.07 Q1790.39 1564.07 1793.32 1560.63 Q1796.28 1557.16 1796.28 1551.43 L1796.28 1550.12 L1790.46 1550.12 M1802.14 1547.71 L1802.14 1568.04 L1796.28 1568.04 L1796.28 1562.63 Q1794.28 1565.88 1791.28 1567.44 Q1788.29 1568.97 1783.96 1568.97 Q1778.49 1568.97 1775.24 1565.91 Q1772.03 1562.82 1772.03 1557.67 Q1772.03 1551.65 1776.04 1548.6 Q1780.08 1545.54 1788.07 1545.54 L1796.28 1545.54 L1796.28 1544.97 Q1796.28 1540.93 1793.61 1538.73 Q1790.97 1536.5 1786.16 1536.5 Q1783.1 1536.5 1780.21 1537.23 Q1777.31 1537.97 1774.64 1539.43 L1774.64 1534.02 Q1777.85 1532.78 1780.88 1532.17 Q1783.9 1531.54 1786.76 1531.54 Q1794.5 1531.54 1798.32 1535.55 Q1802.14 1539.56 1802.14 1547.71 Z" fill="#000000" fill-rule="nonzero" fill-opacity="1" /><path clip-path="url(#clip040)" d="M1810 1532.4 L1816.21 1532.4 L1827.35 1562.31 L1838.49 1532.4 L1844.69 1532.4 L1831.32 1568.04 L1823.37 1568.04 L1810 1532.4 Z" fill="#000000" fill-rule="nonzero" fill-opacity="1" /><path clip-path="url(#clip040)" d="M1876.23 1549.81 Q1876.23 1543.44 1873.59 1539.94 Q1870.98 1536.44 1866.24 1536.44 Q1861.53 1536.44 1858.89 1539.94 Q1856.28 1543.44 1856.28 1549.81 Q1856.28 1556.14 1858.89 1559.64 Q1861.53 1563.14 1866.24 1563.14 Q1870.98 1563.14 1873.59 1559.64 Q1876.23 1556.14 1876.23 1549.81 M1882.09 1563.62 Q1882.09 1572.72 1878.05 1577.15 Q1874.01 1581.6 1865.67 1581.6 Q1862.58 1581.6 1859.84 1581.13 Q1857.11 1580.68 1854.53 1579.72 L1854.53 1574.03 Q1857.11 1575.43 1859.62 1576.1 Q1862.13 1576.76 1864.74 1576.76 Q1870.51 1576.76 1873.37 1573.74 Q1876.23 1570.75 1876.23 1564.67 L1876.23 1561.77 Q1874.42 1564.92 1871.59 1566.48 Q1868.75 1568.04 1864.81 1568.04 Q1858.25 1568.04 1854.24 1563.05 Q1850.23 1558.05 1850.23 1549.81 Q1850.23 1541.53 1854.24 1536.53 Q1858.25 1531.54 1864.81 1531.54 Q1868.75 1531.54 1871.59 1533.1 Q1874.42 1534.66 1876.23 1537.81 L1876.23 1532.4 L1882.09 1532.4 L1882.09 1563.62 Z" fill="#000000" fill-rule="nonzero" fill-opacity="1" /><path clip-path="url(#clip040)" d="M1894.98 1559.96 L1901.7 1559.96 L1901.7 1568.04 L1894.98 1568.04 L1894.98 1559.96 Z" fill="#000000" fill-rule="nonzero" fill-opacity="1" /><polyline clip-path="url(#clip040)" style="stroke:#000000; stroke-linecap:round; stroke-linejoin:round; stroke-width:4; stroke-opacity:1; fill:none" points="256.209,1423.18 256.209,123.472 "/>
<polyline clip-path="url(#clip040)" style="stroke:#000000; stroke-linecap:round; stroke-linejoin:round; stroke-width:4; stroke-opacity:1; fill:none" points="256.209,1205.6 275.106,1205.6 "/>
<polyline clip-path="url(#clip040)" style="stroke:#000000; stroke-linecap:round; stroke-linejoin:round; stroke-width:4; stroke-opacity:1; fill:none" points="256.209,879.568 275.106,879.568 "/>
<polyline clip-path="url(#clip040)" style="stroke:#000000; stroke-linecap:round; stroke-linejoin:round; stroke-width:4; stroke-opacity:1; fill:none" points="256.209,553.533 275.106,553.533 "/>
<polyline clip-path="url(#clip040)" style="stroke:#000000; stroke-linecap:round; stroke-linejoin:round; stroke-width:4; stroke-opacity:1; fill:none" points="256.209,227.499 275.106,227.499 "/>
<path clip-path="url(#clip040)" d="M114.26 1206.05 L143.936 1206.05 L143.936 1209.99 L114.26 1209.99 L114.26 1206.05 Z" fill="#000000" fill-rule="nonzero" fill-opacity="1" /><path clip-path="url(#clip040)" d="M164.028 1191.4 Q160.417 1191.4 158.589 1194.97 Q156.783 1198.51 156.783 1205.64 Q156.783 1212.74 158.589 1216.31 Q160.417 1219.85 164.028 1219.85 Q167.663 1219.85 169.468 1216.31 Q171.297 1212.74 171.297 1205.64 Q171.297 1198.51 169.468 1194.97 Q167.663 1191.4 164.028 1191.4 M164.028 1187.7 Q169.839 1187.7 172.894 1192.3 Q175.973 1196.89 175.973 1205.64 Q175.973 1214.36 172.894 1218.97 Q169.839 1223.55 164.028 1223.55 Q158.218 1223.55 155.14 1218.97 Q152.084 1214.36 152.084 1205.64 Q152.084 1196.89 155.14 1192.3 Q158.218 1187.7 164.028 1187.7 Z" fill="#000000" fill-rule="nonzero" fill-opacity="1" /><path clip-path="url(#clip040)" d="M184.19 1217 L189.075 1217 L189.075 1222.88 L184.19 1222.88 L184.19 1217 Z" fill="#000000" fill-rule="nonzero" fill-opacity="1" /><path clip-path="url(#clip040)" d="M199.306 1188.32 L217.662 1188.32 L217.662 1192.26 L203.588 1192.26 L203.588 1200.73 Q204.607 1200.38 205.625 1200.22 Q206.644 1200.04 207.662 1200.04 Q213.449 1200.04 216.829 1203.21 Q220.209 1206.38 220.209 1211.79 Q220.209 1217.37 216.736 1220.47 Q213.264 1223.55 206.945 1223.55 Q204.769 1223.55 202.5 1223.18 Q200.255 1222.81 197.848 1222.07 L197.848 1217.37 Q199.931 1218.51 202.153 1219.06 Q204.375 1219.62 206.852 1219.62 Q210.857 1219.62 213.195 1217.51 Q215.533 1215.41 215.533 1211.79 Q215.533 1208.18 213.195 1206.08 Q210.857 1203.97 206.852 1203.97 Q204.977 1203.97 203.102 1204.39 Q201.25 1204.8 199.306 1205.68 L199.306 1188.32 Z" fill="#000000" fill-rule="nonzero" fill-opacity="1" /><path clip-path="url(#clip040)" d="M163.033 865.366 Q159.422 865.366 157.593 868.931 Q155.788 872.473 155.788 879.602 Q155.788 886.709 157.593 890.274 Q159.422 893.815 163.033 893.815 Q166.667 893.815 168.473 890.274 Q170.302 886.709 170.302 879.602 Q170.302 872.473 168.473 868.931 Q166.667 865.366 163.033 865.366 M163.033 861.663 Q168.843 861.663 171.899 866.269 Q174.977 870.853 174.977 879.602 Q174.977 888.329 171.899 892.936 Q168.843 897.519 163.033 897.519 Q157.223 897.519 154.144 892.936 Q151.089 888.329 151.089 879.602 Q151.089 870.853 154.144 866.269 Q157.223 861.663 163.033 861.663 Z" fill="#000000" fill-rule="nonzero" fill-opacity="1" /><path clip-path="url(#clip040)" d="M183.195 890.968 L188.079 890.968 L188.079 896.848 L183.195 896.848 L183.195 890.968 Z" fill="#000000" fill-rule="nonzero" fill-opacity="1" /><path clip-path="url(#clip040)" d="M208.264 865.366 Q204.653 865.366 202.824 868.931 Q201.019 872.473 201.019 879.602 Q201.019 886.709 202.824 890.274 Q204.653 893.815 208.264 893.815 Q211.899 893.815 213.704 890.274 Q215.533 886.709 215.533 879.602 Q215.533 872.473 213.704 868.931 Q211.899 865.366 208.264 865.366 M208.264 861.663 Q214.074 861.663 217.13 866.269 Q220.209 870.853 220.209 879.602 Q220.209 888.329 217.13 892.936 Q214.074 897.519 208.264 897.519 Q202.454 897.519 199.375 892.936 Q196.32 888.329 196.32 879.602 Q196.32 870.853 199.375 866.269 Q202.454 861.663 208.264 861.663 Z" fill="#000000" fill-rule="nonzero" fill-opacity="1" /><path clip-path="url(#clip040)" d="M164.028 539.332 Q160.417 539.332 158.589 542.897 Q156.783 546.438 156.783 553.568 Q156.783 560.674 158.589 564.239 Q160.417 567.781 164.028 567.781 Q167.663 567.781 169.468 564.239 Q171.297 560.674 171.297 553.568 Q171.297 546.438 169.468 542.897 Q167.663 539.332 164.028 539.332 M164.028 535.628 Q169.839 535.628 172.894 540.235 Q175.973 544.818 175.973 553.568 Q175.973 562.295 172.894 566.901 Q169.839 571.484 164.028 571.484 Q158.218 571.484 155.14 566.901 Q152.084 562.295 152.084 553.568 Q152.084 544.818 155.14 540.235 Q158.218 535.628 164.028 535.628 Z" fill="#000000" fill-rule="nonzero" fill-opacity="1" /><path clip-path="url(#clip040)" d="M184.19 564.934 L189.075 564.934 L189.075 570.813 L184.19 570.813 L184.19 564.934 Z" fill="#000000" fill-rule="nonzero" fill-opacity="1" /><path clip-path="url(#clip040)" d="M199.306 536.253 L217.662 536.253 L217.662 540.188 L203.588 540.188 L203.588 548.66 Q204.607 548.313 205.625 548.151 Q206.644 547.966 207.662 547.966 Q213.449 547.966 216.829 551.137 Q220.209 554.309 220.209 559.725 Q220.209 565.304 216.736 568.406 Q213.264 571.484 206.945 571.484 Q204.769 571.484 202.5 571.114 Q200.255 570.744 197.848 570.003 L197.848 565.304 Q199.931 566.438 202.153 566.994 Q204.375 567.549 206.852 567.549 Q210.857 567.549 213.195 565.443 Q215.533 563.336 215.533 559.725 Q215.533 556.114 213.195 554.008 Q210.857 551.901 206.852 551.901 Q204.977 551.901 203.102 552.318 Q201.25 552.735 199.306 553.614 L199.306 536.253 Z" fill="#000000" fill-rule="nonzero" fill-opacity="1" /><path clip-path="url(#clip040)" d="M153.843 240.843 L161.482 240.843 L161.482 214.478 L153.172 216.144 L153.172 211.885 L161.436 210.219 L166.112 210.219 L166.112 240.843 L173.751 240.843 L173.751 244.779 L153.843 244.779 L153.843 240.843 Z" fill="#000000" fill-rule="nonzero" fill-opacity="1" /><path clip-path="url(#clip040)" d="M183.195 238.899 L188.079 238.899 L188.079 244.779 L183.195 244.779 L183.195 238.899 Z" fill="#000000" fill-rule="nonzero" fill-opacity="1" /><path clip-path="url(#clip040)" d="M208.264 213.297 Q204.653 213.297 202.824 216.862 Q201.019 220.404 201.019 227.533 Q201.019 234.64 202.824 238.205 Q204.653 241.746 208.264 241.746 Q211.899 241.746 213.704 238.205 Q215.533 234.64 215.533 227.533 Q215.533 220.404 213.704 216.862 Q211.899 213.297 208.264 213.297 M208.264 209.594 Q214.074 209.594 217.13 214.2 Q220.209 218.783 220.209 227.533 Q220.209 236.26 217.13 240.867 Q214.074 245.45 208.264 245.45 Q202.454 245.45 199.375 240.867 Q196.32 236.26 196.32 227.533 Q196.32 218.783 199.375 214.2 Q202.454 209.594 208.264 209.594 Z" fill="#000000" fill-rule="nonzero" fill-opacity="1" /><path clip-path="url(#clip040)" d="M21.7677 1219.96 L39.6235 1219.96 L39.6235 1211.88 Q39.6235 1207.39 37.3 1204.94 Q34.9765 1202.49 30.6797 1202.49 Q26.4147 1202.49 24.0912 1204.94 Q21.7677 1207.39 21.7677 1211.88 L21.7677 1219.96 M16.4842 1226.39 L16.4842 1211.88 Q16.4842 1203.89 20.1126 1199.81 Q23.7092 1195.71 30.6797 1195.71 Q37.7138 1195.71 41.3104 1199.81 Q44.907 1203.89 44.907 1211.88 L44.907 1219.96 L64.0042 1219.96 L64.0042 1226.39 L16.4842 1226.39 Z" fill="#000000" fill-rule="nonzero" fill-opacity="1" /><path clip-path="url(#clip040)" d="M33.8307 1167.82 Q33.2578 1168.81 33.0032 1169.99 Q32.7167 1171.13 32.7167 1172.54 Q32.7167 1177.5 35.9632 1180.17 Q39.1779 1182.82 45.2253 1182.82 L64.0042 1182.82 L64.0042 1188.7 L28.3562 1188.7 L28.3562 1182.82 L33.8944 1182.82 Q30.6479 1180.97 29.0883 1178.01 Q27.4968 1175.05 27.4968 1170.82 Q27.4968 1170.21 27.5923 1169.48 Q27.656 1168.75 27.8151 1167.86 L33.8307 1167.82 Z" fill="#000000" fill-rule="nonzero" fill-opacity="1" /><path clip-path="url(#clip040)" d="M32.4621 1149.3 Q32.4621 1154.01 36.1542 1156.75 Q39.8145 1159.49 46.212 1159.49 Q52.6095 1159.49 56.3017 1156.78 Q59.9619 1154.04 59.9619 1149.3 Q59.9619 1144.62 56.2698 1141.88 Q52.5777 1139.15 46.212 1139.15 Q39.8781 1139.15 36.186 1141.88 Q32.4621 1144.62 32.4621 1149.3 M27.4968 1149.3 Q27.4968 1141.66 32.4621 1137.3 Q37.4273 1132.94 46.212 1132.94 Q54.9649 1132.94 59.9619 1137.3 Q64.9272 1141.66 64.9272 1149.3 Q64.9272 1156.97 59.9619 1161.33 Q54.9649 1165.66 46.212 1165.66 Q37.4273 1165.66 32.4621 1161.33 Q27.4968 1156.97 27.4968 1149.3 Z" fill="#000000" fill-rule="nonzero" fill-opacity="1" /><path clip-path="url(#clip040)" d="M14.479 1105.19 L19.3487 1105.19 L19.3487 1110.79 Q19.3487 1113.94 20.6219 1115.18 Q21.895 1116.39 25.2052 1116.39 L28.3562 1116.39 L28.3562 1106.75 L32.9077 1106.75 L32.9077 1116.39 L64.0042 1116.39 L64.0042 1122.28 L32.9077 1122.28 L32.9077 1127.88 L28.3562 1127.88 L28.3562 1122.28 L25.8736 1122.28 Q19.9216 1122.28 17.2162 1119.51 Q14.479 1116.74 14.479 1110.72 L14.479 1105.19 Z" fill="#000000" fill-rule="nonzero" fill-opacity="1" /><path clip-path="url(#clip040)" d="M28.3562 1100.28 L28.3562 1094.43 L64.0042 1094.43 L64.0042 1100.28 L28.3562 1100.28 M14.479 1100.28 L14.479 1094.43 L21.895 1094.43 L21.895 1100.28 L14.479 1100.28 Z" fill="#000000" fill-rule="nonzero" fill-opacity="1" /><path clip-path="url(#clip040)" d="M18.2347 1076.38 L28.3562 1076.38 L28.3562 1064.32 L32.9077 1064.32 L32.9077 1076.38 L52.2594 1076.38 Q56.6199 1076.38 57.8613 1075.2 Q59.1026 1073.99 59.1026 1070.33 L59.1026 1064.32 L64.0042 1064.32 L64.0042 1070.33 Q64.0042 1077.11 61.4897 1079.69 Q58.9434 1082.27 52.2594 1082.27 L32.9077 1082.27 L32.9077 1086.57 L28.3562 1086.57 L28.3562 1082.27 L18.2347 1082.27 L18.2347 1076.38 Z" fill="#000000" fill-rule="nonzero" fill-opacity="1" /><path clip-path="url(#clip040)" d="M58.5933 1029.53 L58.5933 1007.09 L64.0042 1007.09 L64.0042 1037.26 L58.5933 1037.26 Q54.8057 1033.6 48.44 1027.3 Q42.0425 1020.97 40.1964 1019.34 Q36.7271 1016.26 34.34 1015.05 Q31.921 1013.81 29.5975 1013.81 Q25.8099 1013.81 23.4228 1016.48 Q21.0356 1019.12 21.0356 1023.39 Q21.0356 1026.41 22.086 1029.78 Q23.1363 1033.13 25.2688 1036.95 L18.7758 1036.95 Q17.2162 1033.06 16.4205 1029.69 Q15.6248 1026.32 15.6248 1023.51 Q15.6248 1016.13 19.3169 1011.74 Q23.009 1007.35 29.1837 1007.35 Q32.112 1007.35 34.7537 1008.46 Q37.3637 1009.54 40.9285 1012.44 Q41.8515 1013.23 46.2757 1017.5 Q50.668 1021.76 58.5933 1029.53 Z" fill="#000000" fill-rule="nonzero" fill-opacity="1" /><path clip-path="url(#clip040)" d="M42.4881 964.791 L64.0042 964.791 L64.0042 970.647 L42.679 970.647 Q37.6183 970.647 35.1038 972.62 Q32.5894 974.594 32.5894 978.54 Q32.5894 983.283 35.6131 986.02 Q38.6368 988.757 43.8567 988.757 L64.0042 988.757 L64.0042 994.646 L28.3562 994.646 L28.3562 988.757 L33.8944 988.757 Q30.6797 986.657 29.0883 983.824 Q27.4968 980.959 27.4968 977.235 Q27.4968 971.093 31.3163 967.942 Q35.1038 964.791 42.4881 964.791 Z" fill="#000000" fill-rule="nonzero" fill-opacity="1" /><path clip-path="url(#clip040)" d="M33.7671 929.652 L14.479 929.652 L14.479 923.795 L64.0042 923.795 L64.0042 929.652 L58.657 929.652 Q61.8398 931.498 63.3994 934.331 Q64.9272 937.132 64.9272 941.078 Q64.9272 947.539 59.771 951.614 Q54.6147 955.656 46.212 955.656 Q37.8093 955.656 32.6531 951.614 Q27.4968 947.539 27.4968 941.078 Q27.4968 937.132 29.0564 934.331 Q30.5842 931.498 33.7671 929.652 M46.212 949.608 Q52.6732 949.608 56.3653 946.967 Q60.0256 944.293 60.0256 939.646 Q60.0256 934.999 56.3653 932.325 Q52.6732 929.652 46.212 929.652 Q39.7508 929.652 36.0905 932.325 Q32.3984 934.999 32.3984 939.646 Q32.3984 944.293 36.0905 946.967 Q39.7508 949.608 46.212 949.608 Z" fill="#000000" fill-rule="nonzero" fill-opacity="1" /><path clip-path="url(#clip040)" d="M33.7671 867.554 L14.479 867.554 L14.479 861.698 L64.0042 861.698 L64.0042 867.554 L58.657 867.554 Q61.8398 869.4 63.3994 872.233 Q64.9272 875.034 64.9272 878.981 Q64.9272 885.442 59.771 889.516 Q54.6147 893.558 46.212 893.558 Q37.8093 893.558 32.6531 889.516 Q27.4968 885.442 27.4968 878.981 Q27.4968 875.034 29.0564 872.233 Q30.5842 869.4 33.7671 867.554 M46.212 887.511 Q52.6732 887.511 56.3653 884.869 Q60.0256 882.195 60.0256 877.549 Q60.0256 872.902 56.3653 870.228 Q52.6732 867.554 46.212 867.554 Q39.7508 867.554 36.0905 870.228 Q32.3984 872.902 32.3984 877.549 Q32.3984 882.195 36.0905 884.869 Q39.7508 887.511 46.212 887.511 Z" fill="#000000" fill-rule="nonzero" fill-opacity="1" /><path clip-path="url(#clip040)" d="M44.7161 819.143 L47.5806 819.143 L47.5806 846.07 Q53.6281 845.688 56.8109 842.442 Q59.9619 839.163 59.9619 833.339 Q59.9619 829.965 59.1344 826.814 Q58.3069 823.631 56.6518 820.512 L62.1899 820.512 Q63.5267 823.663 64.227 826.973 Q64.9272 830.283 64.9272 833.689 Q64.9272 842.219 59.9619 847.216 Q54.9967 852.181 46.5303 852.181 Q37.7774 852.181 32.6531 847.471 Q27.4968 842.728 27.4968 834.707 Q27.4968 827.514 32.1438 823.345 Q36.7589 819.143 44.7161 819.143 M42.9973 825 Q38.1912 825.063 35.3266 827.705 Q32.4621 830.315 32.4621 834.644 Q32.4621 839.545 35.2312 842.505 Q38.0002 845.434 43.0292 845.879 L42.9973 825 Z" fill="#000000" fill-rule="nonzero" fill-opacity="1" /><path clip-path="url(#clip040)" d="M33.8307 788.874 Q33.2578 789.861 33.0032 791.039 Q32.7167 792.184 32.7167 793.585 Q32.7167 798.55 35.9632 801.224 Q39.1779 803.865 45.2253 803.865 L64.0042 803.865 L64.0042 809.754 L28.3562 809.754 L28.3562 803.865 L33.8944 803.865 Q30.6479 802.019 29.0883 799.059 Q27.4968 796.099 27.4968 791.866 Q27.4968 791.261 27.5923 790.529 Q27.656 789.797 27.8151 788.906 L33.8307 788.874 Z" fill="#000000" fill-rule="nonzero" fill-opacity="1" /><path clip-path="url(#clip040)" d="M28.3562 782.731 L28.3562 776.875 L64.0042 776.875 L64.0042 782.731 L28.3562 782.731 M14.479 782.731 L14.479 776.875 L21.895 776.875 L21.895 782.731 L14.479 782.731 Z" fill="#000000" fill-rule="nonzero" fill-opacity="1" /><path clip-path="url(#clip040)" d="M28.3562 768.822 L28.3562 762.616 L58.275 751.476 L28.3562 740.336 L28.3562 734.129 L64.0042 747.497 L64.0042 755.454 L28.3562 768.822 Z" fill="#000000" fill-rule="nonzero" fill-opacity="1" /><path clip-path="url(#clip040)" d="M55.9197 730.278 L55.9197 723.562 L64.0042 723.562 L64.0042 730.278 L55.9197 730.278 Z" fill="#000000" fill-rule="nonzero" fill-opacity="1" /><path clip-path="url(#clip040)" d="M14.479 689.665 L14.479 683.808 L64.0042 683.808 L64.0042 689.665 L14.479 689.665 Z" fill="#000000" fill-rule="nonzero" fill-opacity="1" /><path clip-path="url(#clip040)" d="M46.0847 655.354 Q46.0847 662.451 47.7079 665.189 Q49.3312 667.926 53.2461 667.926 Q56.3653 667.926 58.2114 665.889 Q60.0256 663.82 60.0256 660.287 Q60.0256 655.417 56.5881 652.489 Q53.1188 649.529 47.3897 649.529 L46.0847 649.529 L46.0847 655.354 M43.6657 643.672 L64.0042 643.672 L64.0042 649.529 L58.5933 649.529 Q61.8398 651.534 63.3994 654.526 Q64.9272 657.518 64.9272 661.847 Q64.9272 667.321 61.8716 670.568 Q58.7843 673.782 53.6281 673.782 Q47.6125 673.782 44.5569 669.772 Q41.5014 665.73 41.5014 657.741 L41.5014 649.529 L40.9285 649.529 Q36.8862 649.529 34.6901 652.203 Q32.4621 654.844 32.4621 659.65 Q32.4621 662.706 33.1941 665.602 Q33.9262 668.499 35.3903 671.172 L29.9795 671.172 Q28.7381 667.958 28.1334 664.934 Q27.4968 661.91 27.4968 659.046 Q27.4968 651.311 31.5072 647.492 Q35.5176 643.672 43.6657 643.672 Z" fill="#000000" fill-rule="nonzero" fill-opacity="1" /><path clip-path="url(#clip040)" d="M29.4065 608.884 L34.9447 608.884 Q33.6716 611.366 33.035 614.04 Q32.3984 616.714 32.3984 619.578 Q32.3984 623.939 33.7352 626.135 Q35.072 628.299 37.7456 628.299 Q39.7826 628.299 40.9603 626.74 Q42.1061 625.18 43.1565 620.469 L43.6021 618.464 Q44.9389 612.226 47.3897 609.616 Q49.8086 606.974 54.1691 606.974 Q59.1344 606.974 62.0308 610.921 Q64.9272 614.836 64.9272 621.711 Q64.9272 624.575 64.3543 627.695 Q63.8132 630.782 62.6992 634.219 L56.6518 634.219 Q58.3387 630.973 59.198 627.822 Q60.0256 624.671 60.0256 621.583 Q60.0256 617.446 58.6251 615.218 Q57.1929 612.99 54.6147 612.99 Q52.2276 612.99 50.9545 614.613 Q49.6813 616.204 48.5037 621.647 L48.0262 623.684 Q46.8804 629.127 44.5251 631.546 Q42.138 633.965 38.0002 633.965 Q32.9713 633.965 30.2341 630.4 Q27.4968 626.835 27.4968 620.278 Q27.4968 617.032 27.9743 614.167 Q28.4517 611.303 29.4065 608.884 Z" fill="#000000" fill-rule="nonzero" fill-opacity="1" /><path clip-path="url(#clip040)" d="M18.2347 591.856 L28.3562 591.856 L28.3562 579.793 L32.9077 579.793 L32.9077 591.856 L52.2594 591.856 Q56.6199 591.856 57.8613 590.678 Q59.1026 589.468 59.1026 585.808 L59.1026 579.793 L64.0042 579.793 L64.0042 585.808 Q64.0042 592.588 61.4897 595.166 Q58.9434 597.744 52.2594 597.744 L32.9077 597.744 L32.9077 602.041 L28.3562 602.041 L28.3562 597.744 L18.2347 597.744 L18.2347 591.856 Z" fill="#000000" fill-rule="nonzero" fill-opacity="1" /><path clip-path="url(#clip040)" d="M58.5933 545.004 L58.5933 522.565 L64.0042 522.565 L64.0042 552.738 L58.5933 552.738 Q54.8057 549.078 48.44 542.776 Q42.0425 536.442 40.1964 534.819 Q36.7271 531.732 34.34 530.522 Q31.921 529.281 29.5975 529.281 Q25.8099 529.281 23.4228 531.954 Q21.0356 534.596 21.0356 538.861 Q21.0356 541.885 22.086 545.259 Q23.1363 548.601 25.2688 552.42 L18.7758 552.42 Q17.2162 548.537 16.4205 545.163 Q15.6248 541.789 15.6248 538.988 Q15.6248 531.604 19.3169 527.212 Q23.009 522.82 29.1837 522.82 Q32.112 522.82 34.7537 523.934 Q37.3637 525.016 40.9285 527.912 Q41.8515 528.708 46.2757 532.973 Q50.668 537.238 58.5933 545.004 Z" fill="#000000" fill-rule="nonzero" fill-opacity="1" /><path clip-path="url(#clip040)" d="M16.4842 509.006 L16.4842 483.766 L21.895 483.766 L21.895 503.118 L33.5443 503.118 Q33.0668 501.717 32.844 500.317 Q32.5894 498.916 32.5894 497.516 Q32.5894 489.559 36.9499 484.912 Q41.3104 480.265 48.7583 480.265 Q56.429 480.265 60.694 485.039 Q64.9272 489.813 64.9272 498.503 Q64.9272 501.494 64.4179 504.614 Q63.9087 507.701 62.8902 511.011 L56.429 511.011 Q57.9886 508.147 58.7524 505.091 Q59.5163 502.035 59.5163 498.63 Q59.5163 493.123 56.6199 489.909 Q53.7235 486.694 48.7583 486.694 Q43.793 486.694 40.8966 489.909 Q38.0002 493.123 38.0002 498.63 Q38.0002 501.208 38.5732 503.786 Q39.1461 506.332 40.3556 509.006 L16.4842 509.006 Z" fill="#000000" fill-rule="nonzero" fill-opacity="1" /><path clip-path="url(#clip040)" d="M46.0847 431.503 Q46.0847 438.601 47.7079 441.338 Q49.3312 444.076 53.2461 444.076 Q56.3653 444.076 58.2114 442.039 Q60.0256 439.97 60.0256 436.437 Q60.0256 431.567 56.5881 428.639 Q53.1188 425.679 47.3897 425.679 L46.0847 425.679 L46.0847 431.503 M43.6657 419.822 L64.0042 419.822 L64.0042 425.679 L58.5933 425.679 Q61.8398 427.684 63.3994 430.676 Q64.9272 433.668 64.9272 437.996 Q64.9272 443.471 61.8716 446.717 Q58.7843 449.932 53.6281 449.932 Q47.6125 449.932 44.5569 445.922 Q41.5014 441.88 41.5014 433.891 L41.5014 425.679 L40.9285 425.679 Q36.8862 425.679 34.6901 428.352 Q32.4621 430.994 32.4621 435.8 Q32.4621 438.856 33.1941 441.752 Q33.9262 444.649 35.3903 447.322 L29.9795 447.322 Q28.7381 444.108 28.1334 441.084 Q27.4968 438.06 27.4968 435.196 Q27.4968 427.461 31.5072 423.642 Q35.5176 419.822 43.6657 419.822 Z" fill="#000000" fill-rule="nonzero" fill-opacity="1" /><path clip-path="url(#clip040)" d="M28.3562 411.961 L28.3562 405.754 L58.275 394.614 L28.3562 383.474 L28.3562 377.268 L64.0042 390.636 L64.0042 398.593 L28.3562 411.961 Z" fill="#000000" fill-rule="nonzero" fill-opacity="1" /><path clip-path="url(#clip040)" d="M45.7664 345.726 Q39.4007 345.726 35.8996 348.367 Q32.3984 350.977 32.3984 355.72 Q32.3984 360.43 35.8996 363.072 Q39.4007 365.682 45.7664 365.682 Q52.1003 365.682 55.6014 363.072 Q59.1026 360.43 59.1026 355.72 Q59.1026 350.977 55.6014 348.367 Q52.1003 345.726 45.7664 345.726 M59.58 339.869 Q68.683 339.869 73.1071 343.911 Q77.5631 347.954 77.5631 356.293 Q77.5631 359.38 77.0857 362.117 Q76.6401 364.855 75.6852 367.433 L69.9879 367.433 Q71.3884 364.855 72.0568 362.34 Q72.7252 359.826 72.7252 357.216 Q72.7252 351.455 69.7015 348.59 Q66.7096 345.726 60.6303 345.726 L57.7339 345.726 Q60.885 347.54 62.4446 350.373 Q64.0042 353.205 64.0042 357.152 Q64.0042 363.709 59.0071 367.719 Q54.01 371.729 45.7664 371.729 Q37.491 371.729 32.4939 367.719 Q27.4968 363.709 27.4968 357.152 Q27.4968 353.205 29.0564 350.373 Q30.616 347.54 33.7671 345.726 L28.3562 345.726 L28.3562 339.869 L59.58 339.869 Z" fill="#000000" fill-rule="nonzero" fill-opacity="1" /><path clip-path="url(#clip040)" d="M55.9197 326.979 L55.9197 320.263 L64.0042 320.263 L64.0042 326.979 L55.9197 326.979 Z" fill="#000000" fill-rule="nonzero" fill-opacity="1" /><path clip-path="url(#clip040)" d="M242.781 65.6895 L271.34 65.6895 L271.34 72.576 L232.937 72.576 L232.937 65.6895 Q237.596 60.8689 245.616 52.7671 Q253.678 44.6248 255.744 42.2752 Q259.673 37.8598 261.212 34.8216 Q262.792 31.7429 262.792 28.7857 Q262.792 23.9651 259.39 20.927 Q256.027 17.8888 250.599 17.8888 Q246.751 17.8888 242.457 19.2256 Q238.203 20.5624 233.342 23.2765 L233.342 15.0127 Q238.284 13.0277 242.578 12.015 Q246.872 11.0023 250.437 11.0023 Q259.835 11.0023 265.425 15.7013 Q271.016 20.4004 271.016 28.2591 Q271.016 31.9859 269.598 35.3482 Q268.22 38.6699 264.534 43.2069 Q263.521 44.3817 258.093 50.0125 Q252.665 55.6027 242.781 65.6895 Z" fill="#000000" fill-rule="nonzero" fill-opacity="1" /><path clip-path="url(#clip040)" d="M325.176 45.1919 L325.176 72.576 L317.723 72.576 L317.723 45.4349 Q317.723 38.994 315.211 35.7938 Q312.699 32.5936 307.676 32.5936 Q301.64 32.5936 298.157 36.4419 Q294.673 40.2903 294.673 46.9338 L294.673 72.576 L287.179 72.576 L287.179 27.2059 L294.673 27.2059 L294.673 34.2544 Q297.346 30.163 300.952 28.1376 Q304.598 26.1121 309.337 26.1121 Q317.155 26.1121 321.166 30.9732 Q325.176 35.7938 325.176 45.1919 Z" fill="#000000" fill-rule="nonzero" fill-opacity="1" /><path clip-path="url(#clip040)" d="M369.898 34.0924 L369.898 9.54393 L377.352 9.54393 L377.352 72.576 L369.898 72.576 L369.898 65.7705 Q367.549 69.8214 363.943 71.8063 Q360.379 73.7508 355.355 73.7508 Q347.132 73.7508 341.947 67.1883 Q336.802 60.6258 336.802 49.9314 Q336.802 39.2371 341.947 32.6746 Q347.132 26.1121 355.355 26.1121 Q360.379 26.1121 363.943 28.0971 Q367.549 30.0415 369.898 34.0924 M344.499 49.9314 Q344.499 58.1548 347.861 62.8538 Q351.264 67.5124 357.178 67.5124 Q363.093 67.5124 366.495 62.8538 Q369.898 58.1548 369.898 49.9314 Q369.898 41.7081 366.495 37.0496 Q363.093 32.3505 357.178 32.3505 Q351.264 32.3505 347.861 37.0496 Q344.499 41.7081 344.499 49.9314 Z" fill="#000000" fill-rule="nonzero" fill-opacity="1" /><path clip-path="url(#clip040)" d="M448.931 34.0924 L448.931 9.54393 L456.385 9.54393 L456.385 72.576 L448.931 72.576 L448.931 65.7705 Q446.582 69.8214 442.976 71.8063 Q439.412 73.7508 434.389 73.7508 Q426.165 73.7508 420.98 67.1883 Q415.835 60.6258 415.835 49.9314 Q415.835 39.2371 420.98 32.6746 Q426.165 26.1121 434.389 26.1121 Q439.412 26.1121 442.976 28.0971 Q446.582 30.0415 448.931 34.0924 M423.532 49.9314 Q423.532 58.1548 426.894 62.8538 Q430.297 67.5124 436.211 67.5124 Q442.126 67.5124 445.529 62.8538 Q448.931 58.1548 448.931 49.9314 Q448.931 41.7081 445.529 37.0496 Q442.126 32.3505 436.211 32.3505 Q430.297 32.3505 426.894 37.0496 Q423.532 41.7081 423.532 49.9314 Z" fill="#000000" fill-rule="nonzero" fill-opacity="1" /><path clip-path="url(#clip040)" d="M510.546 48.0275 L510.546 51.6733 L476.275 51.6733 Q476.761 59.3701 480.893 63.421 Q485.065 67.4314 492.479 67.4314 Q496.772 67.4314 500.783 66.3781 Q504.834 65.3249 508.804 63.2184 L508.804 70.267 Q504.793 71.9684 500.58 72.8596 Q496.367 73.7508 492.033 73.7508 Q481.177 73.7508 474.817 67.4314 Q468.497 61.1119 468.497 50.3365 Q468.497 39.1965 474.493 32.6746 Q480.528 26.1121 490.737 26.1121 Q499.892 26.1121 505.198 32.0264 Q510.546 37.9003 510.546 48.0275 M503.092 45.84 Q503.011 39.7232 499.649 36.0774 Q496.327 32.4315 490.818 32.4315 Q484.579 32.4315 480.812 35.9558 Q477.085 39.4801 476.518 45.8805 L503.092 45.84 Z" fill="#000000" fill-rule="nonzero" fill-opacity="1" /><path clip-path="url(#clip040)" d="M549.07 34.1734 Q547.814 33.4443 546.315 33.1202 Q544.857 32.7556 543.074 32.7556 Q536.755 32.7556 533.352 36.8875 Q529.99 40.9789 529.99 48.6757 L529.99 72.576 L522.496 72.576 L522.496 27.2059 L529.99 27.2059 L529.99 34.2544 Q532.339 30.1225 536.107 28.1376 Q539.874 26.1121 545.262 26.1121 Q546.031 26.1121 546.963 26.2337 Q547.895 26.3147 549.029 26.5172 L549.07 34.1734 Z" fill="#000000" fill-rule="nonzero" fill-opacity="1" /><path clip-path="url(#clip040)" d="M556.888 27.2059 L564.342 27.2059 L564.342 72.576 L556.888 72.576 L556.888 27.2059 M556.888 9.54393 L564.342 9.54393 L564.342 18.9825 L556.888 18.9825 L556.888 9.54393 Z" fill="#000000" fill-rule="nonzero" fill-opacity="1" /><path clip-path="url(#clip040)" d="M574.59 27.2059 L582.49 27.2059 L596.668 65.2844 L610.846 27.2059 L618.745 27.2059 L601.731 72.576 L591.604 72.576 L574.59 27.2059 Z" fill="#000000" fill-rule="nonzero" fill-opacity="1" /><path clip-path="url(#clip040)" d="M649.654 49.7694 Q640.62 49.7694 637.136 51.8354 Q633.653 53.9013 633.653 58.8839 Q633.653 62.8538 636.245 65.2034 Q638.878 67.5124 643.375 67.5124 Q649.573 67.5124 653.299 63.1374 Q657.067 58.7219 657.067 51.4303 L657.067 49.7694 L649.654 49.7694 M664.52 46.6907 L664.52 72.576 L657.067 72.576 L657.067 65.6895 Q654.515 69.8214 650.707 71.8063 Q646.899 73.7508 641.39 73.7508 Q634.422 73.7508 630.29 69.8619 Q626.199 65.9325 626.199 59.3701 Q626.199 51.7138 631.303 47.825 Q636.448 43.9361 646.615 43.9361 L657.067 43.9361 L657.067 43.2069 Q657.067 38.0623 653.664 35.2672 Q650.302 32.4315 644.185 32.4315 Q640.296 32.4315 636.61 33.3632 Q632.923 34.295 629.521 36.1584 L629.521 29.2718 Q633.612 27.692 637.46 26.9223 Q641.309 26.1121 644.955 26.1121 Q654.798 26.1121 659.659 31.2163 Q664.52 36.3204 664.52 46.6907 Z" fill="#000000" fill-rule="nonzero" fill-opacity="1" /><path clip-path="url(#clip040)" d="M687.246 14.324 L687.246 27.2059 L702.599 27.2059 L702.599 32.9987 L687.246 32.9987 L687.246 57.6282 Q687.246 63.1779 688.745 64.7578 Q690.284 66.3376 694.943 66.3376 L702.599 66.3376 L702.599 72.576 L694.943 72.576 Q686.314 72.576 683.033 69.3758 Q679.752 66.1351 679.752 57.6282 L679.752 32.9987 L674.283 32.9987 L674.283 27.2059 L679.752 27.2059 L679.752 14.324 L687.246 14.324 Z" fill="#000000" fill-rule="nonzero" fill-opacity="1" /><path clip-path="url(#clip040)" d="M712.402 27.2059 L719.856 27.2059 L719.856 72.576 L712.402 72.576 L712.402 27.2059 M712.402 9.54393 L719.856 9.54393 L719.856 18.9825 L712.402 18.9825 L712.402 9.54393 Z" fill="#000000" fill-rule="nonzero" fill-opacity="1" /><path clip-path="url(#clip040)" d="M730.105 27.2059 L738.004 27.2059 L752.182 65.2844 L766.36 27.2059 L774.259 27.2059 L757.246 72.576 L747.118 72.576 L730.105 27.2059 Z" fill="#000000" fill-rule="nonzero" fill-opacity="1" /><path clip-path="url(#clip040)" d="M823.356 48.0275 L823.356 51.6733 L789.086 51.6733 Q789.572 59.3701 793.704 63.421 Q797.876 67.4314 805.289 67.4314 Q809.583 67.4314 813.594 66.3781 Q817.645 65.3249 821.615 63.2184 L821.615 70.267 Q817.604 71.9684 813.391 72.8596 Q809.178 73.7508 804.844 73.7508 Q793.987 73.7508 787.627 67.4314 Q781.308 61.1119 781.308 50.3365 Q781.308 39.1965 787.303 32.6746 Q793.339 26.1121 803.547 26.1121 Q812.703 26.1121 818.009 32.0264 Q823.356 37.9003 823.356 48.0275 M815.903 45.84 Q815.822 39.7232 812.459 36.0774 Q809.138 32.4315 803.628 32.4315 Q797.39 32.4315 793.623 35.9558 Q789.896 39.4801 789.329 45.8805 L815.903 45.84 Z" fill="#000000" fill-rule="nonzero" fill-opacity="1" /><path clip-path="url(#clip040)" d="M882.581 49.7694 Q873.547 49.7694 870.063 51.8354 Q866.58 53.9013 866.58 58.8839 Q866.58 62.8538 869.172 65.2034 Q871.805 67.5124 876.302 67.5124 Q882.5 67.5124 886.226 63.1374 Q889.994 58.7219 889.994 51.4303 L889.994 49.7694 L882.581 49.7694 M897.447 46.6907 L897.447 72.576 L889.994 72.576 L889.994 65.6895 Q887.442 69.8214 883.634 71.8063 Q879.826 73.7508 874.317 73.7508 Q867.349 73.7508 863.217 69.8619 Q859.126 65.9325 859.126 59.3701 Q859.126 51.7138 864.23 47.825 Q869.375 43.9361 879.542 43.9361 L889.994 43.9361 L889.994 43.2069 Q889.994 38.0623 886.591 35.2672 Q883.229 32.4315 877.112 32.4315 Q873.223 32.4315 869.537 33.3632 Q865.85 34.295 862.448 36.1584 L862.448 29.2718 Q866.539 27.692 870.387 26.9223 Q874.236 26.1121 877.882 26.1121 Q887.725 26.1121 892.586 31.2163 Q897.447 36.3204 897.447 46.6907 Z" fill="#000000" fill-rule="nonzero" fill-opacity="1" /><path clip-path="url(#clip040)" d="M907.453 27.2059 L915.352 27.2059 L929.531 65.2844 L943.709 27.2059 L951.608 27.2059 L934.594 72.576 L924.467 72.576 L907.453 27.2059 Z" fill="#000000" fill-rule="nonzero" fill-opacity="1" /><path clip-path="url(#clip040)" d="M1000.7 48.0275 L1000.7 51.6733 L966.434 51.6733 Q966.92 59.3701 971.052 63.421 Q975.225 67.4314 982.638 67.4314 Q986.932 67.4314 990.942 66.3781 Q994.993 65.3249 998.963 63.2184 L998.963 70.267 Q994.953 71.9684 990.74 72.8596 Q986.527 73.7508 982.192 73.7508 Q971.336 73.7508 964.976 67.4314 Q958.657 61.1119 958.657 50.3365 Q958.657 39.1965 964.652 32.6746 Q970.688 26.1121 980.896 26.1121 Q990.051 26.1121 995.358 32.0264 Q1000.7 37.9003 1000.7 48.0275 M993.251 45.84 Q993.17 39.7232 989.808 36.0774 Q986.486 32.4315 980.977 32.4315 Q974.739 32.4315 970.971 35.9558 Q967.245 39.4801 966.677 45.8805 L993.251 45.84 Z" fill="#000000" fill-rule="nonzero" fill-opacity="1" /><path clip-path="url(#clip040)" d="M1039.23 34.1734 Q1037.97 33.4443 1036.47 33.1202 Q1035.02 32.7556 1033.23 32.7556 Q1026.91 32.7556 1023.51 36.8875 Q1020.15 40.9789 1020.15 48.6757 L1020.15 72.576 L1012.66 72.576 L1012.66 27.2059 L1020.15 27.2059 L1020.15 34.2544 Q1022.5 30.1225 1026.27 28.1376 Q1030.03 26.1121 1035.42 26.1121 Q1036.19 26.1121 1037.12 26.2337 Q1038.05 26.3147 1039.19 26.5172 L1039.23 34.1734 Z" fill="#000000" fill-rule="nonzero" fill-opacity="1" /><path clip-path="url(#clip040)" d="M1067.67 49.7694 Q1058.63 49.7694 1055.15 51.8354 Q1051.67 53.9013 1051.67 58.8839 Q1051.67 62.8538 1054.26 65.2034 Q1056.89 67.5124 1061.39 67.5124 Q1067.59 67.5124 1071.31 63.1374 Q1075.08 58.7219 1075.08 51.4303 L1075.08 49.7694 L1067.67 49.7694 M1082.53 46.6907 L1082.53 72.576 L1075.08 72.576 L1075.08 65.6895 Q1072.53 69.8214 1068.72 71.8063 Q1064.91 73.7508 1059.4 73.7508 Q1052.44 73.7508 1048.3 69.8619 Q1044.21 65.9325 1044.21 59.3701 Q1044.21 51.7138 1049.32 47.825 Q1054.46 43.9361 1064.63 43.9361 L1075.08 43.9361 L1075.08 43.2069 Q1075.08 38.0623 1071.68 35.2672 Q1068.31 32.4315 1062.2 32.4315 Q1058.31 32.4315 1054.62 33.3632 Q1050.94 34.295 1047.53 36.1584 L1047.53 29.2718 Q1051.62 27.692 1055.47 26.9223 Q1059.32 26.1121 1062.97 26.1121 Q1072.81 26.1121 1077.67 31.2163 Q1082.53 36.3204 1082.53 46.6907 Z" fill="#000000" fill-rule="nonzero" fill-opacity="1" /><path clip-path="url(#clip040)" d="M1127.74 49.3643 Q1127.74 41.2625 1124.38 36.8065 Q1121.06 32.3505 1115.02 32.3505 Q1109.03 32.3505 1105.66 36.8065 Q1102.34 41.2625 1102.34 49.3643 Q1102.34 57.4256 1105.66 61.8816 Q1109.03 66.3376 1115.02 66.3376 Q1121.06 66.3376 1124.38 61.8816 Q1127.74 57.4256 1127.74 49.3643 M1135.19 66.9452 Q1135.19 78.5308 1130.05 84.1616 Q1124.91 89.8329 1114.29 89.8329 Q1110.36 89.8329 1106.88 89.2252 Q1103.4 88.6581 1100.11 87.4428 L1100.11 80.1917 Q1103.4 81.9741 1106.6 82.8248 Q1109.8 83.6755 1113.12 83.6755 Q1120.45 83.6755 1124.1 79.8271 Q1127.74 76.0193 1127.74 68.282 L1127.74 64.5957 Q1125.43 68.6061 1121.83 70.5911 Q1118.22 72.576 1113.2 72.576 Q1104.85 72.576 1099.75 66.2161 Q1094.65 59.8562 1094.65 49.3643 Q1094.65 38.832 1099.75 32.472 Q1104.85 26.1121 1113.2 26.1121 Q1118.22 26.1121 1121.83 28.0971 Q1125.43 30.082 1127.74 34.0924 L1127.74 27.2059 L1135.19 27.2059 L1135.19 66.9452 Z" fill="#000000" fill-rule="nonzero" fill-opacity="1" /><path clip-path="url(#clip040)" d="M1189.36 48.0275 L1189.36 51.6733 L1155.08 51.6733 Q1155.57 59.3701 1159.7 63.421 Q1163.88 67.4314 1171.29 67.4314 Q1175.58 67.4314 1179.59 66.3781 Q1183.64 65.3249 1187.61 63.2184 L1187.61 70.267 Q1183.6 71.9684 1179.39 72.8596 Q1175.18 73.7508 1170.84 73.7508 Q1159.99 73.7508 1153.63 67.4314 Q1147.31 61.1119 1147.31 50.3365 Q1147.31 39.1965 1153.3 32.6746 Q1159.34 26.1121 1169.55 26.1121 Q1178.7 26.1121 1184.01 32.0264 Q1189.36 37.9003 1189.36 48.0275 M1181.9 45.84 Q1181.82 39.7232 1178.46 36.0774 Q1175.14 32.4315 1169.63 32.4315 Q1163.39 32.4315 1159.62 35.9558 Q1155.9 39.4801 1155.33 45.8805 L1181.9 45.84 Z" fill="#000000" fill-rule="nonzero" fill-opacity="1" /><path clip-path="url(#clip040)" d="M1230.51 28.5427 L1230.51 35.5912 Q1227.35 33.9709 1223.95 33.1607 Q1220.55 32.3505 1216.9 32.3505 Q1211.35 32.3505 1208.56 34.0519 Q1205.8 35.7533 1205.8 39.156 Q1205.8 41.7486 1207.79 43.2475 Q1209.77 44.7058 1215.77 46.0426 L1218.32 46.6097 Q1226.26 48.3111 1229.58 51.4303 Q1232.94 54.509 1232.94 60.0587 Q1232.94 66.3781 1227.92 70.0644 Q1222.94 73.7508 1214.19 73.7508 Q1210.54 73.7508 1206.57 73.0216 Q1202.64 72.3329 1198.27 70.9151 L1198.27 63.2184 Q1202.4 65.3654 1206.41 66.4591 Q1210.42 67.5124 1214.35 67.5124 Q1219.62 67.5124 1222.45 65.73 Q1225.29 63.9071 1225.29 60.6258 Q1225.29 57.5877 1223.22 55.9673 Q1221.2 54.3469 1214.27 52.8481 L1211.68 52.2405 Q1204.75 50.7821 1201.67 47.7845 Q1198.59 44.7463 1198.59 39.4801 Q1198.59 33.0797 1203.13 29.5959 Q1207.67 26.1121 1216.01 26.1121 Q1220.14 26.1121 1223.79 26.7198 Q1227.43 27.3274 1230.51 28.5427 Z" fill="#000000" fill-rule="nonzero" fill-opacity="1" /><path clip-path="url(#clip040)" d="M1246.72 62.2867 L1255.26 62.2867 L1255.26 72.576 L1246.72 72.576 L1246.72 62.2867 M1246.72 29.6769 L1255.26 29.6769 L1255.26 39.9662 L1246.72 39.9662 L1246.72 29.6769 Z" fill="#000000" fill-rule="nonzero" fill-opacity="1" /><path clip-path="url(#clip040)" d="M1306.35 65.7705 L1306.35 89.8329 L1298.85 89.8329 L1298.85 27.2059 L1306.35 27.2059 L1306.35 34.0924 Q1308.7 30.0415 1312.26 28.0971 Q1315.87 26.1121 1320.85 26.1121 Q1329.11 26.1121 1334.26 32.6746 Q1339.44 39.2371 1339.44 49.9314 Q1339.44 60.6258 1334.26 67.1883 Q1329.11 73.7508 1320.85 73.7508 Q1315.87 73.7508 1312.26 71.8063 Q1308.7 69.8214 1306.35 65.7705 M1331.7 49.9314 Q1331.7 41.7081 1328.3 37.0496 Q1324.94 32.3505 1319.03 32.3505 Q1313.11 32.3505 1309.71 37.0496 Q1306.35 41.7081 1306.35 49.9314 Q1306.35 58.1548 1309.71 62.8538 Q1313.11 67.5124 1319.03 67.5124 Q1324.94 67.5124 1328.3 62.8538 Q1331.7 58.1548 1331.7 49.9314 Z" fill="#000000" fill-rule="nonzero" fill-opacity="1" /><path clip-path="url(#clip040)" d="M1378.09 34.1734 Q1376.83 33.4443 1375.33 33.1202 Q1373.87 32.7556 1372.09 32.7556 Q1365.77 32.7556 1362.37 36.8875 Q1359.01 40.9789 1359.01 48.6757 L1359.01 72.576 L1351.51 72.576 L1351.51 27.2059 L1359.01 27.2059 L1359.01 34.2544 Q1361.36 30.1225 1365.12 28.1376 Q1368.89 26.1121 1374.28 26.1121 Q1375.05 26.1121 1375.98 26.2337 Q1376.91 26.3147 1378.05 26.5172 L1378.09 34.1734 Z" fill="#000000" fill-rule="nonzero" fill-opacity="1" /><path clip-path="url(#clip040)" d="M1401.66 32.4315 Q1395.67 32.4315 1392.18 37.1306 Q1388.7 41.7891 1388.7 49.9314 Q1388.7 58.0738 1392.14 62.7728 Q1395.63 67.4314 1401.66 67.4314 Q1407.62 67.4314 1411.1 62.7323 Q1414.59 58.0333 1414.59 49.9314 Q1414.59 41.8701 1411.1 37.1711 Q1407.62 32.4315 1401.66 32.4315 M1401.66 26.1121 Q1411.39 26.1121 1416.94 32.4315 Q1422.49 38.7509 1422.49 49.9314 Q1422.49 61.0714 1416.94 67.4314 Q1411.39 73.7508 1401.66 73.7508 Q1391.9 73.7508 1386.35 67.4314 Q1380.84 61.0714 1380.84 49.9314 Q1380.84 38.7509 1386.35 32.4315 Q1391.9 26.1121 1401.66 26.1121 Z" fill="#000000" fill-rule="nonzero" fill-opacity="1" /><path clip-path="url(#clip040)" d="M1457.81 9.54393 L1457.81 15.7418 L1450.68 15.7418 Q1446.67 15.7418 1445.09 17.3622 Q1443.55 18.9825 1443.55 23.1955 L1443.55 27.2059 L1455.82 27.2059 L1455.82 32.9987 L1443.55 32.9987 L1443.55 72.576 L1436.06 72.576 L1436.06 32.9987 L1428.93 32.9987 L1428.93 27.2059 L1436.06 27.2059 L1436.06 24.0462 Q1436.06 16.471 1439.58 13.0277 Q1443.1 9.54393 1450.76 9.54393 L1457.81 9.54393 Z" fill="#000000" fill-rule="nonzero" fill-opacity="1" /><path clip-path="url(#clip040)" d="M1464.05 27.2059 L1471.5 27.2059 L1471.5 72.576 L1464.05 72.576 L1464.05 27.2059 M1464.05 9.54393 L1471.5 9.54393 L1471.5 18.9825 L1464.05 18.9825 L1464.05 9.54393 Z" fill="#000000" fill-rule="nonzero" fill-opacity="1" /><path clip-path="url(#clip040)" d="M1494.47 14.324 L1494.47 27.2059 L1509.82 27.2059 L1509.82 32.9987 L1494.47 32.9987 L1494.47 57.6282 Q1494.47 63.1779 1495.97 64.7578 Q1497.51 66.3376 1502.17 66.3376 L1509.82 66.3376 L1509.82 72.576 L1502.17 72.576 Q1493.54 72.576 1490.26 69.3758 Q1486.98 66.1351 1486.98 57.6282 L1486.98 32.9987 L1481.51 32.9987 L1481.51 27.2059 L1486.98 27.2059 L1486.98 14.324 L1494.47 14.324 Z" fill="#000000" fill-rule="nonzero" fill-opacity="1" /><path clip-path="url(#clip040)" d="M1540.24 49.7694 Q1531.21 49.7694 1527.73 51.8354 Q1524.24 53.9013 1524.24 58.8839 Q1524.24 62.8538 1526.84 65.2034 Q1529.47 67.5124 1533.97 67.5124 Q1540.16 67.5124 1543.89 63.1374 Q1547.66 58.7219 1547.66 51.4303 L1547.66 49.7694 L1540.24 49.7694 M1555.11 46.6907 L1555.11 72.576 L1547.66 72.576 L1547.66 65.6895 Q1545.11 69.8214 1541.3 71.8063 Q1537.49 73.7508 1531.98 73.7508 Q1525.01 73.7508 1520.88 69.8619 Q1516.79 65.9325 1516.79 59.3701 Q1516.79 51.7138 1521.89 47.825 Q1527.04 43.9361 1537.21 43.9361 L1547.66 43.9361 L1547.66 43.2069 Q1547.66 38.0623 1544.26 35.2672 Q1540.89 32.4315 1534.78 32.4315 Q1530.89 32.4315 1527.2 33.3632 Q1523.51 34.295 1520.11 36.1584 L1520.11 29.2718 Q1524.2 27.692 1528.05 26.9223 Q1531.9 26.1121 1535.55 26.1121 Q1545.39 26.1121 1550.25 31.2163 Q1555.11 36.3204 1555.11 46.6907 Z" fill="#000000" fill-rule="nonzero" fill-opacity="1" /><path clip-path="url(#clip040)" d="M1603.03 49.9314 Q1603.03 41.7081 1599.63 37.0496 Q1596.27 32.3505 1590.35 32.3505 Q1584.44 32.3505 1581.04 37.0496 Q1577.68 41.7081 1577.68 49.9314 Q1577.68 58.1548 1581.04 62.8538 Q1584.44 67.5124 1590.35 67.5124 Q1596.27 67.5124 1599.63 62.8538 Q1603.03 58.1548 1603.03 49.9314 M1577.68 34.0924 Q1580.02 30.0415 1583.59 28.0971 Q1587.19 26.1121 1592.18 26.1121 Q1600.44 26.1121 1605.59 32.6746 Q1610.77 39.2371 1610.77 49.9314 Q1610.77 60.6258 1605.59 67.1883 Q1600.44 73.7508 1592.18 73.7508 Q1587.19 73.7508 1583.59 71.8063 Q1580.02 69.8214 1577.68 65.7705 L1577.68 72.576 L1570.18 72.576 L1570.18 9.54393 L1577.68 9.54393 L1577.68 34.0924 Z" fill="#000000" fill-rule="nonzero" fill-opacity="1" /><path clip-path="url(#clip040)" d="M1623.13 27.2059 L1630.58 27.2059 L1630.58 72.576 L1623.13 72.576 L1623.13 27.2059 M1623.13 9.54393 L1630.58 9.54393 L1630.58 18.9825 L1623.13 18.9825 L1623.13 9.54393 Z" fill="#000000" fill-rule="nonzero" fill-opacity="1" /><path clip-path="url(#clip040)" d="M1646.18 9.54393 L1653.63 9.54393 L1653.63 72.576 L1646.18 72.576 L1646.18 9.54393 Z" fill="#000000" fill-rule="nonzero" fill-opacity="1" /><path clip-path="url(#clip040)" d="M1669.23 27.2059 L1676.68 27.2059 L1676.68 72.576 L1669.23 72.576 L1669.23 27.2059 M1669.23 9.54393 L1676.68 9.54393 L1676.68 18.9825 L1669.23 18.9825 L1669.23 9.54393 Z" fill="#000000" fill-rule="nonzero" fill-opacity="1" /><path clip-path="url(#clip040)" d="M1699.65 14.324 L1699.65 27.2059 L1715 27.2059 L1715 32.9987 L1699.65 32.9987 L1699.65 57.6282 Q1699.65 63.1779 1701.15 64.7578 Q1702.69 66.3376 1707.34 66.3376 L1715 66.3376 L1715 72.576 L1707.34 72.576 Q1698.72 72.576 1695.44 69.3758 Q1692.15 66.1351 1692.15 57.6282 L1692.15 32.9987 L1686.69 32.9987 L1686.69 27.2059 L1692.15 27.2059 L1692.15 14.324 L1699.65 14.324 Z" fill="#000000" fill-rule="nonzero" fill-opacity="1" /><path clip-path="url(#clip040)" d="M1743.68 76.7889 Q1740.52 84.8907 1737.52 87.3618 Q1734.53 89.8329 1729.5 89.8329 L1723.55 89.8329 L1723.55 83.5945 L1727.92 83.5945 Q1731 83.5945 1732.7 82.1361 Q1734.4 80.6778 1736.47 75.2496 L1737.81 71.8468 L1719.46 27.2059 L1727.36 27.2059 L1741.53 62.6918 L1755.71 27.2059 L1763.61 27.2059 L1743.68 76.7889 Z" fill="#000000" fill-rule="nonzero" fill-opacity="1" /><path clip-path="url(#clip040)" d="M1775.8 62.2867 L1784.35 62.2867 L1784.35 69.2543 L1777.71 82.2172 L1772.48 82.2172 L1775.8 69.2543 L1775.8 62.2867 Z" fill="#000000" fill-rule="nonzero" fill-opacity="1" /><path clip-path="url(#clip040)" d="M1826.64 9.54393 L1834.1 9.54393 L1834.1 72.576 L1826.64 72.576 L1826.64 9.54393 Z" fill="#000000" fill-rule="nonzero" fill-opacity="1" /><path clip-path="url(#clip040)" d="M1888.5 48.0275 L1888.5 51.6733 L1854.23 51.6733 Q1854.72 59.3701 1858.85 63.421 Q1863.02 67.4314 1870.43 67.4314 Q1874.73 67.4314 1878.74 66.3781 Q1882.79 65.3249 1886.76 63.2184 L1886.76 70.267 Q1882.75 71.9684 1878.54 72.8596 Q1874.32 73.7508 1869.99 73.7508 Q1859.13 73.7508 1852.77 67.4314 Q1846.45 61.1119 1846.45 50.3365 Q1846.45 39.1965 1852.45 32.6746 Q1858.48 26.1121 1868.69 26.1121 Q1877.85 26.1121 1883.15 32.0264 Q1888.5 37.9003 1888.5 48.0275 M1881.05 45.84 Q1880.97 39.7232 1877.6 36.0774 Q1874.28 32.4315 1868.77 32.4315 Q1862.53 32.4315 1858.77 35.9558 Q1855.04 39.4801 1854.47 45.8805 L1881.05 45.84 Z" fill="#000000" fill-rule="nonzero" fill-opacity="1" /><path clip-path="url(#clip040)" d="M1921.35 49.7694 Q1912.32 49.7694 1908.84 51.8354 Q1905.35 53.9013 1905.35 58.8839 Q1905.35 62.8538 1907.95 65.2034 Q1910.58 67.5124 1915.08 67.5124 Q1921.27 67.5124 1925 63.1374 Q1928.77 58.7219 1928.77 51.4303 L1928.77 49.7694 L1921.35 49.7694 M1936.22 46.6907 L1936.22 72.576 L1928.77 72.576 L1928.77 65.6895 Q1926.22 69.8214 1922.41 71.8063 Q1918.6 73.7508 1913.09 73.7508 Q1906.12 73.7508 1901.99 69.8619 Q1897.9 65.9325 1897.9 59.3701 Q1897.9 51.7138 1903 47.825 Q1908.15 43.9361 1918.32 43.9361 L1928.77 43.9361 L1928.77 43.2069 Q1928.77 38.0623 1925.36 35.2672 Q1922 32.4315 1915.89 32.4315 Q1912 32.4315 1908.31 33.3632 Q1904.62 34.295 1901.22 36.1584 L1901.22 29.2718 Q1905.31 27.692 1909.16 26.9223 Q1913.01 26.1121 1916.65 26.1121 Q1926.5 26.1121 1931.36 31.2163 Q1936.22 36.3204 1936.22 46.6907 Z" fill="#000000" fill-rule="nonzero" fill-opacity="1" /><path clip-path="url(#clip040)" d="M1981.43 34.0924 L1981.43 9.54393 L1988.88 9.54393 L1988.88 72.576 L1981.43 72.576 L1981.43 65.7705 Q1979.08 69.8214 1975.47 71.8063 Q1971.91 73.7508 1966.89 73.7508 Q1958.66 73.7508 1953.48 67.1883 Q1948.33 60.6258 1948.33 49.9314 Q1948.33 39.2371 1953.48 32.6746 Q1958.66 26.1121 1966.89 26.1121 Q1971.91 26.1121 1975.47 28.0971 Q1979.08 30.0415 1981.43 34.0924 M1956.03 49.9314 Q1956.03 58.1548 1959.39 62.8538 Q1962.79 67.5124 1968.71 67.5124 Q1974.62 67.5124 1978.03 62.8538 Q1981.43 58.1548 1981.43 49.9314 Q1981.43 41.7081 1978.03 37.0496 Q1974.62 32.3505 1968.71 32.3505 Q1962.79 32.3505 1959.39 37.0496 Q1956.03 41.7081 1956.03 49.9314 Z" fill="#000000" fill-rule="nonzero" fill-opacity="1" /><path clip-path="url(#clip040)" d="M2043.04 48.0275 L2043.04 51.6733 L2008.77 51.6733 Q2009.26 59.3701 2013.39 63.421 Q2017.56 67.4314 2024.98 67.4314 Q2029.27 67.4314 2033.28 66.3781 Q2037.33 65.3249 2041.3 63.2184 L2041.3 70.267 Q2037.29 71.9684 2033.08 72.8596 Q2028.86 73.7508 2024.53 73.7508 Q2013.67 73.7508 2007.31 67.4314 Q2000.99 61.1119 2000.99 50.3365 Q2000.99 39.1965 2006.99 32.6746 Q2013.03 26.1121 2023.23 26.1121 Q2032.39 26.1121 2037.7 32.0264 Q2043.04 37.9003 2043.04 48.0275 M2035.59 45.84 Q2035.51 39.7232 2032.15 36.0774 Q2028.82 32.4315 2023.32 32.4315 Q2017.08 32.4315 2013.31 35.9558 Q2009.58 39.4801 2009.02 45.8805 L2035.59 45.84 Z" fill="#000000" fill-rule="nonzero" fill-opacity="1" /><path clip-path="url(#clip040)" d="M2081.57 34.1734 Q2080.31 33.4443 2078.81 33.1202 Q2077.35 32.7556 2075.57 32.7556 Q2069.25 32.7556 2065.85 36.8875 Q2062.49 40.9789 2062.49 48.6757 L2062.49 72.576 L2054.99 72.576 L2054.99 27.2059 L2062.49 27.2059 L2062.49 34.2544 Q2064.84 30.1225 2068.6 28.1376 Q2072.37 26.1121 2077.76 26.1121 Q2078.53 26.1121 2079.46 26.2337 Q2080.39 26.3147 2081.53 26.5172 L2081.57 34.1734 Z" fill="#000000" fill-rule="nonzero" fill-opacity="1" /><path clip-path="url(#clip040)" d="M2096.43 12.096 L2096.43 34.5785 L2089.55 34.5785 L2089.55 12.096 L2096.43 12.096 Z" fill="#000000" fill-rule="nonzero" fill-opacity="1" /><path clip-path="url(#clip040)" d="M2141.12 28.5427 L2141.12 35.5912 Q2137.96 33.9709 2134.55 33.1607 Q2131.15 32.3505 2127.5 32.3505 Q2121.95 32.3505 2119.16 34.0519 Q2116.41 35.7533 2116.41 39.156 Q2116.41 41.7486 2118.39 43.2475 Q2120.37 44.7058 2126.37 46.0426 L2128.92 46.6097 Q2136.86 48.3111 2140.18 51.4303 Q2143.55 54.509 2143.55 60.0587 Q2143.55 66.3781 2138.52 70.0644 Q2133.54 73.7508 2124.79 73.7508 Q2121.14 73.7508 2117.17 73.0216 Q2113.25 72.3329 2108.87 70.9151 L2108.87 63.2184 Q2113 65.3654 2117.01 66.4591 Q2121.02 67.5124 2124.95 67.5124 Q2130.22 67.5124 2133.05 65.73 Q2135.89 63.9071 2135.89 60.6258 Q2135.89 57.5877 2133.82 55.9673 Q2131.8 54.3469 2124.87 52.8481 L2122.28 52.2405 Q2115.35 50.7821 2112.27 47.7845 Q2109.19 44.7463 2109.19 39.4801 Q2109.19 33.0797 2113.73 29.5959 Q2118.27 26.1121 2126.61 26.1121 Q2130.75 26.1121 2134.39 26.7198 Q2138.04 27.3274 2141.12 28.5427 Z" fill="#000000" fill-rule="nonzero" fill-opacity="1" /><path clip-path="url(#clip040)" d="M2189 65.7705 L2189 89.8329 L2181.5 89.8329 L2181.5 27.2059 L2189 27.2059 L2189 34.0924 Q2191.35 30.0415 2194.91 28.0971 Q2198.52 26.1121 2203.5 26.1121 Q2211.76 26.1121 2216.91 32.6746 Q2222.09 39.2371 2222.09 49.9314 Q2222.09 60.6258 2216.91 67.1883 Q2211.76 73.7508 2203.5 73.7508 Q2198.52 73.7508 2194.91 71.8063 Q2191.35 69.8214 2189 65.7705 M2214.36 49.9314 Q2214.36 41.7081 2210.95 37.0496 Q2207.59 32.3505 2201.68 32.3505 Q2195.76 32.3505 2192.36 37.0496 Q2189 41.7081 2189 49.9314 Q2189 58.1548 2192.36 62.8538 Q2195.76 67.5124 2201.68 67.5124 Q2207.59 67.5124 2210.95 62.8538 Q2214.36 58.1548 2214.36 49.9314 Z" fill="#000000" fill-rule="nonzero" fill-opacity="1" /><path clip-path="url(#clip040)" d="M2260.74 34.1734 Q2259.48 33.4443 2257.98 33.1202 Q2256.53 32.7556 2254.74 32.7556 Q2248.42 32.7556 2245.02 36.8875 Q2241.66 40.9789 2241.66 48.6757 L2241.66 72.576 L2234.16 72.576 L2234.16 27.2059 L2241.66 27.2059 L2241.66 34.2544 Q2244.01 30.1225 2247.78 28.1376 Q2251.54 26.1121 2256.93 26.1121 Q2257.7 26.1121 2258.63 26.2337 Q2259.56 26.3147 2260.7 26.5172 L2260.74 34.1734 Z" fill="#000000" fill-rule="nonzero" fill-opacity="1" /><path clip-path="url(#clip040)" d="M2268.56 27.2059 L2276.01 27.2059 L2276.01 72.576 L2268.56 72.576 L2268.56 27.2059 M2268.56 9.54393 L2276.01 9.54393 L2276.01 18.9825 L2268.56 18.9825 L2268.56 9.54393 Z" fill="#000000" fill-rule="nonzero" fill-opacity="1" /><path clip-path="url(#clip040)" d="M2324.26 28.9478 L2324.26 35.9153 Q2321.1 34.1734 2317.9 33.3227 Q2314.74 32.4315 2311.5 32.4315 Q2304.25 32.4315 2300.24 37.0496 Q2296.22 41.6271 2296.22 49.9314 Q2296.22 58.2358 2300.24 62.8538 Q2304.25 67.4314 2311.5 67.4314 Q2314.74 67.4314 2317.9 66.5807 Q2321.1 65.6895 2324.26 63.9476 L2324.26 70.8341 Q2321.14 72.2924 2317.78 73.0216 Q2314.45 73.7508 2310.69 73.7508 Q2300.44 73.7508 2294.4 67.3098 Q2288.37 60.8689 2288.37 49.9314 Q2288.37 38.832 2294.44 32.472 Q2300.56 26.1121 2311.17 26.1121 Q2314.62 26.1121 2317.9 26.8413 Q2321.18 27.5299 2324.26 28.9478 Z" fill="#000000" fill-rule="nonzero" fill-opacity="1" /><path clip-path="url(#clip040)" d="M2376.03 48.0275 L2376.03 51.6733 L2341.76 51.6733 Q2342.24 59.3701 2346.37 63.421 Q2350.55 67.4314 2357.96 67.4314 Q2362.25 67.4314 2366.26 66.3781 Q2370.32 65.3249 2374.29 63.2184 L2374.29 70.267 Q2370.28 71.9684 2366.06 72.8596 Q2361.85 73.7508 2357.51 73.7508 Q2346.66 73.7508 2340.3 67.4314 Q2333.98 61.1119 2333.98 50.3365 Q2333.98 39.1965 2339.97 32.6746 Q2346.01 26.1121 2356.22 26.1121 Q2365.37 26.1121 2370.68 32.0264 Q2376.03 37.9003 2376.03 48.0275 M2368.57 45.84 Q2368.49 39.7232 2365.13 36.0774 Q2361.81 32.4315 2356.3 32.4315 Q2350.06 32.4315 2346.29 35.9558 Q2342.57 39.4801 2342 45.8805 L2368.57 45.84 Z" fill="#000000" fill-rule="nonzero" fill-opacity="1" /><circle clip-path="url(#clip042)" cx="1134.55" cy="879.568" r="14.4" fill="#009af9" fill-rule="evenodd" fill-opacity="1" stroke="#000000" stroke-opacity="1" stroke-width="3.2"/>
<circle clip-path="url(#clip042)" cx="1134.55" cy="879.568" r="14.4" fill="#009af9" fill-rule="evenodd" fill-opacity="1" stroke="#000000" stroke-opacity="1" stroke-width="3.2"/>
<circle clip-path="url(#clip042)" cx="1134.55" cy="879.568" r="14.4" fill="#009af9" fill-rule="evenodd" fill-opacity="1" stroke="#000000" stroke-opacity="1" stroke-width="3.2"/>
<circle clip-path="url(#clip042)" cx="1134.55" cy="879.568" r="14.4" fill="#009af9" fill-rule="evenodd" fill-opacity="1" stroke="#000000" stroke-opacity="1" stroke-width="3.2"/>
<circle clip-path="url(#clip042)" cx="1134.55" cy="879.568" r="14.4" fill="#009af9" fill-rule="evenodd" fill-opacity="1" stroke="#000000" stroke-opacity="1" stroke-width="3.2"/>
<circle clip-path="url(#clip042)" cx="1134.55" cy="879.568" r="14.4" fill="#009af9" fill-rule="evenodd" fill-opacity="1" stroke="#000000" stroke-opacity="1" stroke-width="3.2"/>
<circle clip-path="url(#clip042)" cx="1134.55" cy="879.568" r="14.4" fill="#009af9" fill-rule="evenodd" fill-opacity="1" stroke="#000000" stroke-opacity="1" stroke-width="3.2"/>
<circle clip-path="url(#clip042)" cx="1134.55" cy="879.568" r="14.4" fill="#009af9" fill-rule="evenodd" fill-opacity="1" stroke="#000000" stroke-opacity="1" stroke-width="3.2"/>
<circle clip-path="url(#clip042)" cx="1134.55" cy="879.568" r="14.4" fill="#009af9" fill-rule="evenodd" fill-opacity="1" stroke="#000000" stroke-opacity="1" stroke-width="3.2"/>
<circle clip-path="url(#clip042)" cx="1134.55" cy="879.568" r="14.4" fill="#009af9" fill-rule="evenodd" fill-opacity="1" stroke="#000000" stroke-opacity="1" stroke-width="3.2"/>
<circle clip-path="url(#clip042)" cx="1134.55" cy="879.568" r="14.4" fill="#009af9" fill-rule="evenodd" fill-opacity="1" stroke="#000000" stroke-opacity="1" stroke-width="3.2"/>
<circle clip-path="url(#clip042)" cx="1134.55" cy="879.568" r="14.4" fill="#009af9" fill-rule="evenodd" fill-opacity="1" stroke="#000000" stroke-opacity="1" stroke-width="3.2"/>
<circle clip-path="url(#clip042)" cx="1134.55" cy="879.568" r="14.4" fill="#009af9" fill-rule="evenodd" fill-opacity="1" stroke="#000000" stroke-opacity="1" stroke-width="3.2"/>
<circle clip-path="url(#clip042)" cx="1134.55" cy="879.568" r="14.4" fill="#009af9" fill-rule="evenodd" fill-opacity="1" stroke="#000000" stroke-opacity="1" stroke-width="3.2"/>
<circle clip-path="url(#clip042)" cx="1134.55" cy="879.568" r="14.4" fill="#009af9" fill-rule="evenodd" fill-opacity="1" stroke="#000000" stroke-opacity="1" stroke-width="3.2"/>
<circle clip-path="url(#clip042)" cx="1134.55" cy="879.568" r="14.4" fill="#009af9" fill-rule="evenodd" fill-opacity="1" stroke="#000000" stroke-opacity="1" stroke-width="3.2"/>
<circle clip-path="url(#clip042)" cx="1134.55" cy="879.568" r="14.4" fill="#009af9" fill-rule="evenodd" fill-opacity="1" stroke="#000000" stroke-opacity="1" stroke-width="3.2"/>
<circle clip-path="url(#clip042)" cx="1134.55" cy="879.568" r="14.4" fill="#009af9" fill-rule="evenodd" fill-opacity="1" stroke="#000000" stroke-opacity="1" stroke-width="3.2"/>
<circle clip-path="url(#clip042)" cx="1134.55" cy="879.568" r="14.4" fill="#009af9" fill-rule="evenodd" fill-opacity="1" stroke="#000000" stroke-opacity="1" stroke-width="3.2"/>
<circle clip-path="url(#clip042)" cx="1134.55" cy="879.568" r="14.4" fill="#009af9" fill-rule="evenodd" fill-opacity="1" stroke="#000000" stroke-opacity="1" stroke-width="3.2"/>
<circle clip-path="url(#clip042)" cx="1134.55" cy="879.568" r="14.4" fill="#009af9" fill-rule="evenodd" fill-opacity="1" stroke="#000000" stroke-opacity="1" stroke-width="3.2"/>
<circle clip-path="url(#clip042)" cx="1134.55" cy="879.568" r="14.4" fill="#009af9" fill-rule="evenodd" fill-opacity="1" stroke="#000000" stroke-opacity="1" stroke-width="3.2"/>
<circle clip-path="url(#clip042)" cx="1134.55" cy="879.568" r="14.4" fill="#009af9" fill-rule="evenodd" fill-opacity="1" stroke="#000000" stroke-opacity="1" stroke-width="3.2"/>
<circle clip-path="url(#clip042)" cx="1134.55" cy="879.568" r="14.4" fill="#009af9" fill-rule="evenodd" fill-opacity="1" stroke="#000000" stroke-opacity="1" stroke-width="3.2"/>
<circle clip-path="url(#clip042)" cx="1344.33" cy="742.843" r="14.4" fill="#009af9" fill-rule="evenodd" fill-opacity="1" stroke="#000000" stroke-opacity="1" stroke-width="3.2"/>
<circle clip-path="url(#clip042)" cx="1524.47" cy="621.739" r="14.4" fill="#009af9" fill-rule="evenodd" fill-opacity="1" stroke="#000000" stroke-opacity="1" stroke-width="3.2"/>
<circle clip-path="url(#clip042)" cx="894.984" cy="1050.33" r="14.4" fill="#009af9" fill-rule="evenodd" fill-opacity="1" stroke="#000000" stroke-opacity="1" stroke-width="3.2"/>
<circle clip-path="url(#clip042)" cx="1191.2" cy="824.424" r="14.4" fill="#009af9" fill-rule="evenodd" fill-opacity="1" stroke="#000000" stroke-opacity="1" stroke-width="3.2"/>
<circle clip-path="url(#clip042)" cx="1128.14" cy="883.444" r="14.4" fill="#009af9" fill-rule="evenodd" fill-opacity="1" stroke="#000000" stroke-opacity="1" stroke-width="3.2"/>
<circle clip-path="url(#clip042)" cx="1068.85" cy="938.005" r="14.4" fill="#009af9" fill-rule="evenodd" fill-opacity="1" stroke="#000000" stroke-opacity="1" stroke-width="3.2"/>
<circle clip-path="url(#clip042)" cx="1480.64" cy="658.934" r="14.4" fill="#009af9" fill-rule="evenodd" fill-opacity="1" stroke="#000000" stroke-opacity="1" stroke-width="3.2"/>
<circle clip-path="url(#clip042)" cx="796.634" cy="1075.02" r="14.4" fill="#009af9" fill-rule="evenodd" fill-opacity="1" stroke="#000000" stroke-opacity="1" stroke-width="3.2"/>
<circle clip-path="url(#clip042)" cx="520.62" cy="1299.26" r="14.4" fill="#009af9" fill-rule="evenodd" fill-opacity="1" stroke="#000000" stroke-opacity="1" stroke-width="3.2"/>
<circle clip-path="url(#clip042)" cx="1541.43" cy="607.712" r="14.4" fill="#009af9" fill-rule="evenodd" fill-opacity="1" stroke="#000000" stroke-opacity="1" stroke-width="3.2"/>
<circle clip-path="url(#clip042)" cx="666.215" cy="1188.54" r="14.4" fill="#009af9" fill-rule="evenodd" fill-opacity="1" stroke="#000000" stroke-opacity="1" stroke-width="3.2"/>
<circle clip-path="url(#clip042)" cx="1488.91" cy="651.316" r="14.4" fill="#009af9" fill-rule="evenodd" fill-opacity="1" stroke="#000000" stroke-opacity="1" stroke-width="3.2"/>
<circle clip-path="url(#clip042)" cx="1214.67" cy="815.397" r="14.4" fill="#009af9" fill-rule="evenodd" fill-opacity="1" stroke="#000000" stroke-opacity="1" stroke-width="3.2"/>
<circle clip-path="url(#clip042)" cx="1413.4" cy="682.486" r="14.4" fill="#009af9" fill-rule="evenodd" fill-opacity="1" stroke="#000000" stroke-opacity="1" stroke-width="3.2"/>
<circle clip-path="url(#clip042)" cx="1369.86" cy="740.965" r="14.4" fill="#009af9" fill-rule="evenodd" fill-opacity="1" stroke="#000000" stroke-opacity="1" stroke-width="3.2"/>
<circle clip-path="url(#clip042)" cx="744.254" cy="1135.86" r="14.4" fill="#009af9" fill-rule="evenodd" fill-opacity="1" stroke="#000000" stroke-opacity="1" stroke-width="3.2"/>
<circle clip-path="url(#clip042)" cx="1133.9" cy="885.358" r="14.4" fill="#009af9" fill-rule="evenodd" fill-opacity="1" stroke="#000000" stroke-opacity="1" stroke-width="3.2"/>
<circle clip-path="url(#clip042)" cx="1329.21" cy="757.14" r="14.4" fill="#009af9" fill-rule="evenodd" fill-opacity="1" stroke="#000000" stroke-opacity="1" stroke-width="3.2"/>
<circle clip-path="url(#clip042)" cx="497.426" cy="1280.16" r="14.4" fill="#009af9" fill-rule="evenodd" fill-opacity="1" stroke="#000000" stroke-opacity="1" stroke-width="3.2"/>
<circle clip-path="url(#clip042)" cx="1632.54" cy="561.3" r="14.4" fill="#009af9" fill-rule="evenodd" fill-opacity="1" stroke="#000000" stroke-opacity="1" stroke-width="3.2"/>
<circle clip-path="url(#clip042)" cx="1367.95" cy="717.54" r="14.4" fill="#009af9" fill-rule="evenodd" fill-opacity="1" stroke="#000000" stroke-opacity="1" stroke-width="3.2"/>
<circle clip-path="url(#clip042)" cx="584.317" cy="1250.89" r="14.4" fill="#009af9" fill-rule="evenodd" fill-opacity="1" stroke="#000000" stroke-opacity="1" stroke-width="3.2"/>
<circle clip-path="url(#clip042)" cx="1453.34" cy="674.352" r="14.4" fill="#009af9" fill-rule="evenodd" fill-opacity="1" stroke="#000000" stroke-opacity="1" stroke-width="3.2"/>
<circle clip-path="url(#clip042)" cx="1106.78" cy="905.026" r="14.4" fill="#009af9" fill-rule="evenodd" fill-opacity="1" stroke="#000000" stroke-opacity="1" stroke-width="3.2"/>
<circle clip-path="url(#clip042)" cx="1286.52" cy="764.418" r="14.4" fill="#009af9" fill-rule="evenodd" fill-opacity="1" stroke="#000000" stroke-opacity="1" stroke-width="3.2"/>
<circle clip-path="url(#clip042)" cx="1314.48" cy="758.476" r="14.4" fill="#009af9" fill-rule="evenodd" fill-opacity="1" stroke="#000000" stroke-opacity="1" stroke-width="3.2"/>
<circle clip-path="url(#clip042)" cx="1865.32" cy="400.644" r="14.4" fill="#009af9" fill-rule="evenodd" fill-opacity="1" stroke="#000000" stroke-opacity="1" stroke-width="3.2"/>
<circle clip-path="url(#clip042)" cx="786.873" cy="1113.78" r="14.4" fill="#009af9" fill-rule="evenodd" fill-opacity="1" stroke="#000000" stroke-opacity="1" stroke-width="3.2"/>
<circle clip-path="url(#clip042)" cx="1210.31" cy="818.229" r="14.4" fill="#009af9" fill-rule="evenodd" fill-opacity="1" stroke="#000000" stroke-opacity="1" stroke-width="3.2"/>
<circle clip-path="url(#clip042)" cx="1009.37" cy="958.842" r="14.4" fill="#009af9" fill-rule="evenodd" fill-opacity="1" stroke="#000000" stroke-opacity="1" stroke-width="3.2"/>
<circle clip-path="url(#clip042)" cx="841.351" cy="1078.14" r="14.4" fill="#009af9" fill-rule="evenodd" fill-opacity="1" stroke="#000000" stroke-opacity="1" stroke-width="3.2"/>
<circle clip-path="url(#clip042)" cx="1532.33" cy="634.406" r="14.4" fill="#009af9" fill-rule="evenodd" fill-opacity="1" stroke="#000000" stroke-opacity="1" stroke-width="3.2"/>
<circle clip-path="url(#clip042)" cx="1104.37" cy="883.417" r="14.4" fill="#009af9" fill-rule="evenodd" fill-opacity="1" stroke="#000000" stroke-opacity="1" stroke-width="3.2"/>
<circle clip-path="url(#clip042)" cx="1169.88" cy="859.317" r="14.4" fill="#009af9" fill-rule="evenodd" fill-opacity="1" stroke="#000000" stroke-opacity="1" stroke-width="3.2"/>
<circle clip-path="url(#clip042)" cx="1259.95" cy="794.965" r="14.4" fill="#009af9" fill-rule="evenodd" fill-opacity="1" stroke="#000000" stroke-opacity="1" stroke-width="3.2"/>
<circle clip-path="url(#clip042)" cx="1235.77" cy="812.01" r="14.4" fill="#009af9" fill-rule="evenodd" fill-opacity="1" stroke="#000000" stroke-opacity="1" stroke-width="3.2"/>
<circle clip-path="url(#clip042)" cx="953.779" cy="1005.58" r="14.4" fill="#009af9" fill-rule="evenodd" fill-opacity="1" stroke="#000000" stroke-opacity="1" stroke-width="3.2"/>
<circle clip-path="url(#clip042)" cx="728.754" cy="1147.92" r="14.4" fill="#009af9" fill-rule="evenodd" fill-opacity="1" stroke="#000000" stroke-opacity="1" stroke-width="3.2"/>
<circle clip-path="url(#clip042)" cx="840.272" cy="1070.33" r="14.4" fill="#009af9" fill-rule="evenodd" fill-opacity="1" stroke="#000000" stroke-opacity="1" stroke-width="3.2"/>
<circle clip-path="url(#clip042)" cx="1561.23" cy="596.886" r="14.4" fill="#009af9" fill-rule="evenodd" fill-opacity="1" stroke="#000000" stroke-opacity="1" stroke-width="3.2"/>
<circle clip-path="url(#clip042)" cx="1345.25" cy="748.897" r="14.4" fill="#009af9" fill-rule="evenodd" fill-opacity="1" stroke="#000000" stroke-opacity="1" stroke-width="3.2"/>
<circle clip-path="url(#clip042)" cx="1107.64" cy="888.684" r="14.4" fill="#009af9" fill-rule="evenodd" fill-opacity="1" stroke="#000000" stroke-opacity="1" stroke-width="3.2"/>
<circle clip-path="url(#clip042)" cx="1106.61" cy="899.514" r="14.4" fill="#009af9" fill-rule="evenodd" fill-opacity="1" stroke="#000000" stroke-opacity="1" stroke-width="3.2"/>
<circle clip-path="url(#clip042)" cx="1076.23" cy="906.562" r="14.4" fill="#009af9" fill-rule="evenodd" fill-opacity="1" stroke="#000000" stroke-opacity="1" stroke-width="3.2"/>
<circle clip-path="url(#clip042)" cx="683.165" cy="1190.05" r="14.4" fill="#009af9" fill-rule="evenodd" fill-opacity="1" stroke="#000000" stroke-opacity="1" stroke-width="3.2"/>
<circle clip-path="url(#clip042)" cx="2293.42" cy="123.472" r="14.4" fill="#009af9" fill-rule="evenodd" fill-opacity="1" stroke="#000000" stroke-opacity="1" stroke-width="3.2"/>
<circle clip-path="url(#clip042)" cx="502.28" cy="1279.46" r="14.4" fill="#009af9" fill-rule="evenodd" fill-opacity="1" stroke="#000000" stroke-opacity="1" stroke-width="3.2"/>
<circle clip-path="url(#clip042)" cx="1367.57" cy="728.605" r="14.4" fill="#009af9" fill-rule="evenodd" fill-opacity="1" stroke="#000000" stroke-opacity="1" stroke-width="3.2"/>
<circle clip-path="url(#clip042)" cx="928.261" cy="1022.27" r="14.4" fill="#009af9" fill-rule="evenodd" fill-opacity="1" stroke="#000000" stroke-opacity="1" stroke-width="3.2"/>
<circle clip-path="url(#clip042)" cx="761.726" cy="1125.28" r="14.4" fill="#009af9" fill-rule="evenodd" fill-opacity="1" stroke="#000000" stroke-opacity="1" stroke-width="3.2"/>
<circle clip-path="url(#clip042)" cx="1516.23" cy="617.985" r="14.4" fill="#009af9" fill-rule="evenodd" fill-opacity="1" stroke="#000000" stroke-opacity="1" stroke-width="3.2"/>
<circle clip-path="url(#clip042)" cx="855.19" cy="1058.89" r="14.4" fill="#009af9" fill-rule="evenodd" fill-opacity="1" stroke="#000000" stroke-opacity="1" stroke-width="3.2"/>
<circle clip-path="url(#clip042)" cx="1056.62" cy="937.211" r="14.4" fill="#009af9" fill-rule="evenodd" fill-opacity="1" stroke="#000000" stroke-opacity="1" stroke-width="3.2"/>
<circle clip-path="url(#clip042)" cx="1861.65" cy="417.09" r="14.4" fill="#009af9" fill-rule="evenodd" fill-opacity="1" stroke="#000000" stroke-opacity="1" stroke-width="3.2"/>
<circle clip-path="url(#clip042)" cx="547.444" cy="1254.7" r="14.4" fill="#009af9" fill-rule="evenodd" fill-opacity="1" stroke="#000000" stroke-opacity="1" stroke-width="3.2"/>
<circle clip-path="url(#clip042)" cx="1358.5" cy="728.611" r="14.4" fill="#009af9" fill-rule="evenodd" fill-opacity="1" stroke="#000000" stroke-opacity="1" stroke-width="3.2"/>
<circle clip-path="url(#clip042)" cx="1094.68" cy="906.931" r="14.4" fill="#009af9" fill-rule="evenodd" fill-opacity="1" stroke="#000000" stroke-opacity="1" stroke-width="3.2"/>
<circle clip-path="url(#clip042)" cx="1365.7" cy="735.683" r="14.4" fill="#009af9" fill-rule="evenodd" fill-opacity="1" stroke="#000000" stroke-opacity="1" stroke-width="3.2"/>
<circle clip-path="url(#clip042)" cx="733.505" cy="1138.35" r="14.4" fill="#009af9" fill-rule="evenodd" fill-opacity="1" stroke="#000000" stroke-opacity="1" stroke-width="3.2"/>
<circle clip-path="url(#clip042)" cx="1376.49" cy="722.755" r="14.4" fill="#009af9" fill-rule="evenodd" fill-opacity="1" stroke="#000000" stroke-opacity="1" stroke-width="3.2"/>
<circle clip-path="url(#clip042)" cx="1076" cy="911.245" r="14.4" fill="#009af9" fill-rule="evenodd" fill-opacity="1" stroke="#000000" stroke-opacity="1" stroke-width="3.2"/>
<circle clip-path="url(#clip042)" cx="1142.66" cy="874.514" r="14.4" fill="#009af9" fill-rule="evenodd" fill-opacity="1" stroke="#000000" stroke-opacity="1" stroke-width="3.2"/>
<circle clip-path="url(#clip042)" cx="1068.18" cy="937.103" r="14.4" fill="#009af9" fill-rule="evenodd" fill-opacity="1" stroke="#000000" stroke-opacity="1" stroke-width="3.2"/>
<circle clip-path="url(#clip042)" cx="1323.76" cy="745.685" r="14.4" fill="#009af9" fill-rule="evenodd" fill-opacity="1" stroke="#000000" stroke-opacity="1" stroke-width="3.2"/>
<circle clip-path="url(#clip042)" cx="1075.97" cy="919.966" r="14.4" fill="#009af9" fill-rule="evenodd" fill-opacity="1" stroke="#000000" stroke-opacity="1" stroke-width="3.2"/>
<circle clip-path="url(#clip042)" cx="1385.76" cy="699.998" r="14.4" fill="#009af9" fill-rule="evenodd" fill-opacity="1" stroke="#000000" stroke-opacity="1" stroke-width="3.2"/>
<circle clip-path="url(#clip042)" cx="1031.19" cy="958.644" r="14.4" fill="#009af9" fill-rule="evenodd" fill-opacity="1" stroke="#000000" stroke-opacity="1" stroke-width="3.2"/>
<circle clip-path="url(#clip042)" cx="957.624" cy="994.75" r="14.4" fill="#009af9" fill-rule="evenodd" fill-opacity="1" stroke="#000000" stroke-opacity="1" stroke-width="3.2"/>
<circle clip-path="url(#clip042)" cx="1120.49" cy="890.76" r="14.4" fill="#009af9" fill-rule="evenodd" fill-opacity="1" stroke="#000000" stroke-opacity="1" stroke-width="3.2"/>
<circle clip-path="url(#clip042)" cx="1239.82" cy="807.143" r="14.4" fill="#009af9" fill-rule="evenodd" fill-opacity="1" stroke="#000000" stroke-opacity="1" stroke-width="3.2"/>
<circle clip-path="url(#clip042)" cx="780.364" cy="1107.19" r="14.4" fill="#009af9" fill-rule="evenodd" fill-opacity="1" stroke="#000000" stroke-opacity="1" stroke-width="3.2"/>
<circle clip-path="url(#clip042)" cx="1376.11" cy="738.078" r="14.4" fill="#009af9" fill-rule="evenodd" fill-opacity="1" stroke="#000000" stroke-opacity="1" stroke-width="3.2"/>
<circle clip-path="url(#clip042)" cx="1254.8" cy="792.355" r="14.4" fill="#009af9" fill-rule="evenodd" fill-opacity="1" stroke="#000000" stroke-opacity="1" stroke-width="3.2"/>
<circle clip-path="url(#clip042)" cx="979.473" cy="971.941" r="14.4" fill="#009af9" fill-rule="evenodd" fill-opacity="1" stroke="#000000" stroke-opacity="1" stroke-width="3.2"/>
<circle clip-path="url(#clip042)" cx="1125.93" cy="893.37" r="14.4" fill="#009af9" fill-rule="evenodd" fill-opacity="1" stroke="#000000" stroke-opacity="1" stroke-width="3.2"/>
<path clip-path="url(#clip040)" d="M326.094 270.476 L628.873 270.476 L628.873 166.796 L326.094 166.796  Z" fill="#ffffff" fill-rule="evenodd" fill-opacity="1"/>
<polyline clip-path="url(#clip040)" style="stroke:#000000; stroke-linecap:round; stroke-linejoin:round; stroke-width:4; stroke-opacity:1; fill:none" points="326.094,270.476 628.873,270.476 628.873,166.796 326.094,166.796 326.094,270.476 "/>
<circle clip-path="url(#clip040)" cx="419.273" cy="218.636" r="20.48" fill="#009af9" fill-rule="evenodd" fill-opacity="1" stroke="#000000" stroke-opacity="1" stroke-width="4.55111"/>
<path clip-path="url(#clip040)" d="M512.453 201.356 L519.421 201.356 L528.24 224.874 L537.106 201.356 L544.074 201.356 L544.074 235.916 L539.513 235.916 L539.513 205.569 L530.601 229.272 L525.902 229.272 L516.99 205.569 L516.99 235.916 L512.453 235.916 L512.453 201.356 Z" fill="#000000" fill-rule="nonzero" fill-opacity="1" /><path clip-path="url(#clip040)" d="M553.356 201.356 L558.032 201.356 L558.032 215.962 L573.541 201.356 L579.559 201.356 L562.407 217.467 L580.786 235.916 L574.629 235.916 L558.032 219.272 L558.032 235.916 L553.356 235.916 L553.356 201.356 Z" fill="#000000" fill-rule="nonzero" fill-opacity="1" /><path clip-path="url(#clip040)" d="M585.671 231.981 L593.309 231.981 L593.309 205.615 L584.999 207.282 L584.999 203.022 L593.263 201.356 L597.939 201.356 L597.939 231.981 L605.578 231.981 L605.578 235.916 L585.671 235.916 L585.671 231.981 Z" fill="#000000" fill-rule="nonzero" fill-opacity="1" /></svg>
