<?xml version="1.0" encoding="utf-8"?>
<svg xmlns="http://www.w3.org/2000/svg" xmlns:xlink="http://www.w3.org/1999/xlink" width="600" height="400" viewBox="0 0 2400 1600">
<defs>
  <clipPath id="clip470">
    <rect x="0" y="0" width="2400" height="1600"/>
  </clipPath>
</defs>
<path clip-path="url(#clip470)" d="M0 1600 L2400 1600 L2400 0 L0 0  Z" fill="#ffffff" fill-rule="evenodd" fill-opacity="1"/>
<defs>
  <clipPath id="clip471">
    <rect x="204" y="123" width="2149" height="1301"/>
  </clipPath>
</defs>
<path clip-path="url(#clip470)" d="M204.45 1423.18 L2352.76 1423.18 L2352.76 123.472 L204.45 123.472  Z" fill="#ffffff" fill-rule="evenodd" fill-opacity="1"/>
<polyline clip-path="url(#clip471)" style="stroke:#000000; stroke-linecap:round; stroke-linejoin:round; stroke-width:2; stroke-opacity:0.1; fill:none" points="645.657,1423.18 645.657,123.472 "/>
<polyline clip-path="url(#clip471)" style="stroke:#000000; stroke-linecap:round; stroke-linejoin:round; stroke-width:2; stroke-opacity:0.1; fill:none" points="1194.61,1423.18 1194.61,123.472 "/>
<polyline clip-path="url(#clip471)" style="stroke:#000000; stroke-linecap:round; stroke-linejoin:round; stroke-width:2; stroke-opacity:0.1; fill:none" points="1743.56,1423.18 1743.56,123.472 "/>
<polyline clip-path="url(#clip471)" style="stroke:#000000; stroke-linecap:round; stroke-linejoin:round; stroke-width:2; stroke-opacity:0.1; fill:none" points="2292.51,1423.18 2292.51,123.472 "/>
<polyline clip-path="url(#clip471)" style="stroke:#000000; stroke-linecap:round; stroke-linejoin:round; stroke-width:2; stroke-opacity:0.1; fill:none" points="204.45,1256.86 2352.76,1256.86 "/>
<polyline clip-path="url(#clip471)" style="stroke:#000000; stroke-linecap:round; stroke-linejoin:round; stroke-width:2; stroke-opacity:0.1; fill:none" points="204.45,916.848 2352.76,916.848 "/>
<polyline clip-path="url(#clip471)" style="stroke:#000000; stroke-linecap:round; stroke-linejoin:round; stroke-width:2; stroke-opacity:0.1; fill:none" points="204.45,576.834 2352.76,576.834 "/>
<polyline clip-path="url(#clip471)" style="stroke:#000000; stroke-linecap:round; stroke-linejoin:round; stroke-width:2; stroke-opacity:0.1; fill:none" points="204.45,236.821 2352.76,236.821 "/>
<polyline clip-path="url(#clip470)" style="stroke:#000000; stroke-linecap:round; stroke-linejoin:round; stroke-width:4; stroke-opacity:1; fill:none" points="204.45,1423.18 2352.76,1423.18 "/>
<polyline clip-path="url(#clip470)" style="stroke:#000000; stroke-linecap:round; stroke-linejoin:round; stroke-width:4; stroke-opacity:1; fill:none" points="645.657,1423.18 645.657,1404.28 "/>
<polyline clip-path="url(#clip470)" style="stroke:#000000; stroke-linecap:round; stroke-linejoin:round; stroke-width:4; stroke-opacity:1; fill:none" points="1194.61,1423.18 1194.61,1404.28 "/>
<polyline clip-path="url(#clip470)" style="stroke:#000000; stroke-linecap:round; stroke-linejoin:round; stroke-width:4; stroke-opacity:1; fill:none" points="1743.56,1423.18 1743.56,1404.28 "/>
<polyline clip-path="url(#clip470)" style="stroke:#000000; stroke-linecap:round; stroke-linejoin:round; stroke-width:4; stroke-opacity:1; fill:none" points="2292.51,1423.18 2292.51,1404.28 "/>
<path clip-path="url(#clip470)" d="M598.227 1481.64 L605.866 1481.64 L605.866 1455.28 L597.555 1456.95 L597.555 1452.69 L605.819 1451.02 L610.495 1451.02 L610.495 1481.64 L618.134 1481.64 L618.134 1485.58 L598.227 1485.58 L598.227 1481.64 Z" fill="#000000" fill-rule="nonzero" fill-opacity="1" /><path clip-path="url(#clip470)" d="M627.578 1479.7 L632.463 1479.7 L632.463 1485.58 L627.578 1485.58 L627.578 1479.7 Z" fill="#000000" fill-rule="nonzero" fill-opacity="1" /><path clip-path="url(#clip470)" d="M641.467 1451.02 L663.689 1451.02 L663.689 1453.01 L651.143 1485.58 L646.259 1485.58 L658.064 1454.96 L641.467 1454.96 L641.467 1451.02 Z" fill="#000000" fill-rule="nonzero" fill-opacity="1" /><path clip-path="url(#clip470)" d="M672.856 1451.02 L691.212 1451.02 L691.212 1454.96 L677.138 1454.96 L677.138 1463.43 Q678.157 1463.08 679.175 1462.92 Q680.194 1462.73 681.212 1462.73 Q686.999 1462.73 690.379 1465.9 Q693.759 1469.08 693.759 1474.49 Q693.759 1480.07 690.286 1483.17 Q686.814 1486.25 680.495 1486.25 Q678.319 1486.25 676.05 1485.88 Q673.805 1485.51 671.398 1484.77 L671.398 1480.07 Q673.481 1481.2 675.703 1481.76 Q677.925 1482.32 680.402 1482.32 Q684.407 1482.32 686.745 1480.21 Q689.083 1478.1 689.083 1474.49 Q689.083 1470.88 686.745 1468.77 Q684.407 1466.67 680.402 1466.67 Q678.527 1466.67 676.652 1467.08 Q674.8 1467.5 672.856 1468.38 L672.856 1451.02 Z" fill="#000000" fill-rule="nonzero" fill-opacity="1" /><path clip-path="url(#clip470)" d="M1146.68 1481.64 L1154.32 1481.64 L1154.32 1455.28 L1146.01 1456.95 L1146.01 1452.69 L1154.27 1451.02 L1158.95 1451.02 L1158.95 1481.64 L1166.59 1481.64 L1166.59 1485.58 L1146.68 1485.58 L1146.68 1481.64 Z" fill="#000000" fill-rule="nonzero" fill-opacity="1" /><path clip-path="url(#clip470)" d="M1176.03 1479.7 L1180.91 1479.7 L1180.91 1485.58 L1176.03 1485.58 L1176.03 1479.7 Z" fill="#000000" fill-rule="nonzero" fill-opacity="1" /><path clip-path="url(#clip470)" d="M1201.1 1469.17 Q1197.77 1469.17 1195.84 1470.95 Q1193.95 1472.73 1193.95 1475.86 Q1193.95 1478.98 1195.84 1480.77 Q1197.77 1482.55 1201.1 1482.55 Q1204.43 1482.55 1206.35 1480.77 Q1208.28 1478.96 1208.28 1475.86 Q1208.28 1472.73 1206.35 1470.95 Q1204.46 1469.17 1201.1 1469.17 M1196.42 1467.18 Q1193.41 1466.44 1191.72 1464.38 Q1190.06 1462.32 1190.06 1459.35 Q1190.06 1455.21 1193 1452.8 Q1195.96 1450.39 1201.1 1450.39 Q1206.26 1450.39 1209.2 1452.8 Q1212.14 1455.21 1212.14 1459.35 Q1212.14 1462.32 1210.45 1464.38 Q1208.78 1466.44 1205.8 1467.18 Q1209.18 1467.96 1211.05 1470.26 Q1212.95 1472.55 1212.95 1475.86 Q1212.95 1480.88 1209.87 1483.57 Q1206.82 1486.25 1201.1 1486.25 Q1195.38 1486.25 1192.3 1483.57 Q1189.25 1480.88 1189.25 1475.86 Q1189.25 1472.55 1191.15 1470.26 Q1193.04 1467.96 1196.42 1467.18 M1194.71 1459.79 Q1194.71 1462.48 1196.38 1463.98 Q1198.07 1465.49 1201.1 1465.49 Q1204.11 1465.49 1205.8 1463.98 Q1207.51 1462.48 1207.51 1459.79 Q1207.51 1457.11 1205.8 1455.6 Q1204.11 1454.1 1201.1 1454.1 Q1198.07 1454.1 1196.38 1455.6 Q1194.71 1457.11 1194.71 1459.79 Z" fill="#000000" fill-rule="nonzero" fill-opacity="1" /><path clip-path="url(#clip470)" d="M1231.26 1454.1 Q1227.65 1454.1 1225.82 1457.66 Q1224.02 1461.2 1224.02 1468.33 Q1224.02 1475.44 1225.82 1479.01 Q1227.65 1482.55 1231.26 1482.55 Q1234.9 1482.55 1236.7 1479.01 Q1238.53 1475.44 1238.53 1468.33 Q1238.53 1461.2 1236.7 1457.66 Q1234.9 1454.1 1231.26 1454.1 M1231.26 1450.39 Q1237.07 1450.39 1240.13 1455 Q1243.21 1459.58 1243.21 1468.33 Q1243.21 1477.06 1240.13 1481.67 Q1237.07 1486.25 1231.26 1486.25 Q1225.45 1486.25 1222.37 1481.67 Q1219.32 1477.06 1219.32 1468.33 Q1219.32 1459.58 1222.37 1455 Q1225.45 1450.39 1231.26 1450.39 Z" fill="#000000" fill-rule="nonzero" fill-opacity="1" /><path clip-path="url(#clip470)" d="M1696.13 1481.64 L1703.76 1481.64 L1703.76 1455.28 L1695.45 1456.95 L1695.45 1452.69 L1703.72 1451.02 L1708.39 1451.02 L1708.39 1481.64 L1716.03 1481.64 L1716.03 1485.58 L1696.13 1485.58 L1696.13 1481.64 Z" fill="#000000" fill-rule="nonzero" fill-opacity="1" /><path clip-path="url(#clip470)" d="M1725.48 1479.7 L1730.36 1479.7 L1730.36 1485.58 L1725.48 1485.58 L1725.48 1479.7 Z" fill="#000000" fill-rule="nonzero" fill-opacity="1" /><path clip-path="url(#clip470)" d="M1750.55 1469.17 Q1747.21 1469.17 1745.29 1470.95 Q1743.39 1472.73 1743.39 1475.86 Q1743.39 1478.98 1745.29 1480.77 Q1747.21 1482.55 1750.55 1482.55 Q1753.88 1482.55 1755.8 1480.77 Q1757.72 1478.96 1757.72 1475.86 Q1757.72 1472.73 1755.8 1470.95 Q1753.9 1469.17 1750.55 1469.17 M1745.87 1467.18 Q1742.86 1466.44 1741.17 1464.38 Q1739.51 1462.32 1739.51 1459.35 Q1739.51 1455.21 1742.44 1452.8 Q1745.41 1450.39 1750.55 1450.39 Q1755.71 1450.39 1758.65 1452.8 Q1761.59 1455.21 1761.59 1459.35 Q1761.59 1462.32 1759.9 1464.38 Q1758.23 1466.44 1755.25 1467.18 Q1758.63 1467.96 1760.5 1470.26 Q1762.4 1472.55 1762.4 1475.86 Q1762.4 1480.88 1759.32 1483.57 Q1756.26 1486.25 1750.55 1486.25 Q1744.83 1486.25 1741.75 1483.57 Q1738.7 1480.88 1738.7 1475.86 Q1738.7 1472.55 1740.59 1470.26 Q1742.49 1467.96 1745.87 1467.18 M1744.16 1459.79 Q1744.16 1462.48 1745.82 1463.98 Q1747.51 1465.49 1750.55 1465.49 Q1753.56 1465.49 1755.25 1463.98 Q1756.96 1462.48 1756.96 1459.79 Q1756.96 1457.11 1755.25 1455.6 Q1753.56 1454.1 1750.55 1454.1 Q1747.51 1454.1 1745.82 1455.6 Q1744.16 1457.11 1744.16 1459.79 Z" fill="#000000" fill-rule="nonzero" fill-opacity="1" /><path clip-path="url(#clip470)" d="M1770.76 1451.02 L1789.11 1451.02 L1789.11 1454.96 L1775.04 1454.96 L1775.04 1463.43 Q1776.06 1463.08 1777.07 1462.92 Q1778.09 1462.73 1779.11 1462.73 Q1784.9 1462.73 1788.28 1465.9 Q1791.66 1469.08 1791.66 1474.49 Q1791.66 1480.07 1788.19 1483.17 Q1784.71 1486.25 1778.39 1486.25 Q1776.22 1486.25 1773.95 1485.88 Q1771.7 1485.51 1769.3 1484.77 L1769.3 1480.07 Q1771.38 1481.2 1773.6 1481.76 Q1775.82 1482.32 1778.3 1482.32 Q1782.31 1482.32 1784.64 1480.21 Q1786.98 1478.1 1786.98 1474.49 Q1786.98 1470.88 1784.64 1468.77 Q1782.31 1466.67 1778.3 1466.67 Q1776.43 1466.67 1774.55 1467.08 Q1772.7 1467.5 1770.76 1468.38 L1770.76 1451.02 Z" fill="#000000" fill-rule="nonzero" fill-opacity="1" /><path clip-path="url(#clip470)" d="M2244.58 1481.64 L2252.22 1481.64 L2252.22 1455.28 L2243.91 1456.95 L2243.91 1452.69 L2252.17 1451.02 L2256.85 1451.02 L2256.85 1481.64 L2264.48 1481.64 L2264.48 1485.58 L2244.58 1485.58 L2244.58 1481.64 Z" fill="#000000" fill-rule="nonzero" fill-opacity="1" /><path clip-path="url(#clip470)" d="M2273.93 1479.7 L2278.81 1479.7 L2278.81 1485.58 L2273.93 1485.58 L2273.93 1479.7 Z" fill="#000000" fill-rule="nonzero" fill-opacity="1" /><path clip-path="url(#clip470)" d="M2289.14 1484.86 L2289.14 1480.6 Q2290.9 1481.44 2292.7 1481.88 Q2294.51 1482.32 2296.24 1482.32 Q2300.87 1482.32 2303.3 1479.21 Q2305.76 1476.09 2306.11 1469.75 Q2304.76 1471.74 2302.7 1472.8 Q2300.64 1473.87 2298.14 1473.87 Q2292.96 1473.87 2289.92 1470.74 Q2286.92 1467.59 2286.92 1462.15 Q2286.92 1456.83 2290.06 1453.61 Q2293.21 1450.39 2298.44 1450.39 Q2304.44 1450.39 2307.59 1455 Q2310.76 1459.58 2310.76 1468.33 Q2310.76 1476.51 2306.87 1481.39 Q2303 1486.25 2296.45 1486.25 Q2294.69 1486.25 2292.89 1485.9 Q2291.08 1485.56 2289.14 1484.86 M2298.44 1470.21 Q2301.59 1470.21 2303.42 1468.06 Q2305.27 1465.9 2305.27 1462.15 Q2305.27 1458.43 2303.42 1456.27 Q2301.59 1454.1 2298.44 1454.1 Q2295.29 1454.1 2293.44 1456.27 Q2291.61 1458.43 2291.61 1462.15 Q2291.61 1465.9 2293.44 1468.06 Q2295.29 1470.21 2298.44 1470.21 Z" fill="#000000" fill-rule="nonzero" fill-opacity="1" /><path clip-path="url(#clip470)" d="M2329.16 1454.1 Q2325.55 1454.1 2323.72 1457.66 Q2321.92 1461.2 2321.92 1468.33 Q2321.92 1475.44 2323.72 1479.01 Q2325.55 1482.55 2329.16 1482.55 Q2332.79 1482.55 2334.6 1479.01 Q2336.43 1475.44 2336.43 1468.33 Q2336.43 1461.2 2334.6 1457.66 Q2332.79 1454.1 2329.16 1454.1 M2329.16 1450.39 Q2334.97 1450.39 2338.03 1455 Q2341.1 1459.58 2341.1 1468.33 Q2341.1 1477.06 2338.03 1481.67 Q2334.97 1486.25 2329.16 1486.25 Q2323.35 1486.25 2320.27 1481.67 Q2317.22 1477.06 2317.22 1468.33 Q2317.22 1459.58 2320.27 1455 Q2323.35 1450.39 2329.16 1450.39 Z" fill="#000000" fill-rule="nonzero" fill-opacity="1" /><path clip-path="url(#clip470)" d="M1054.37 1520.52 L1060.8 1520.52 L1060.8 1562.63 L1083.94 1562.63 L1083.94 1568.04 L1054.37 1568.04 L1054.37 1520.52 Z" fill="#000000" fill-rule="nonzero" fill-opacity="1" /><path clip-path="url(#clip470)" d="M1119.78 1548.76 L1119.78 1551.62 L1092.85 1551.62 Q1093.23 1557.67 1096.48 1560.85 Q1099.76 1564 1105.58 1564 Q1108.96 1564 1112.11 1563.17 Q1115.29 1562.35 1118.41 1560.69 L1118.41 1566.23 Q1115.26 1567.57 1111.95 1568.27 Q1108.64 1568.97 1105.23 1568.97 Q1096.7 1568.97 1091.71 1564 Q1086.74 1559.04 1086.74 1550.57 Q1086.74 1541.82 1091.45 1536.69 Q1096.19 1531.54 1104.21 1531.54 Q1111.41 1531.54 1115.58 1536.18 Q1119.78 1540.8 1119.78 1548.76 M1113.92 1547.04 Q1113.86 1542.23 1111.22 1539.37 Q1108.61 1536.5 1104.28 1536.5 Q1099.38 1536.5 1096.42 1539.27 Q1093.49 1542.04 1093.04 1547.07 L1113.92 1547.04 Z" fill="#000000" fill-rule="nonzero" fill-opacity="1" /><path clip-path="url(#clip470)" d="M1145.59 1550.12 Q1138.49 1550.12 1135.76 1551.75 Q1133.02 1553.37 1133.02 1557.29 Q1133.02 1560.4 1135.06 1562.25 Q1137.12 1564.07 1140.66 1564.07 Q1145.53 1564.07 1148.46 1560.63 Q1151.42 1557.16 1151.42 1551.43 L1151.42 1550.12 L1145.59 1550.12 M1157.27 1547.71 L1157.27 1568.04 L1151.42 1568.04 L1151.42 1562.63 Q1149.41 1565.88 1146.42 1567.44 Q1143.43 1568.97 1139.1 1568.97 Q1133.62 1568.97 1130.38 1565.91 Q1127.16 1562.82 1127.16 1557.67 Q1127.16 1551.65 1131.17 1548.6 Q1135.22 1545.54 1143.2 1545.54 L1151.42 1545.54 L1151.42 1544.97 Q1151.42 1540.93 1148.74 1538.73 Q1146.1 1536.5 1141.29 1536.5 Q1138.24 1536.5 1135.34 1537.23 Q1132.45 1537.97 1129.77 1539.43 L1129.77 1534.02 Q1132.99 1532.78 1136.01 1532.17 Q1139.03 1531.54 1141.9 1531.54 Q1149.63 1531.54 1153.45 1535.55 Q1157.27 1539.56 1157.27 1547.71 Z" fill="#000000" fill-rule="nonzero" fill-opacity="1" /><path clip-path="url(#clip470)" d="M1192.79 1537.81 L1192.79 1518.52 L1198.65 1518.52 L1198.65 1568.04 L1192.79 1568.04 L1192.79 1562.7 Q1190.95 1565.88 1188.11 1567.44 Q1185.31 1568.97 1181.37 1568.97 Q1174.91 1568.97 1170.83 1563.81 Q1166.79 1558.65 1166.79 1550.25 Q1166.79 1541.85 1170.83 1536.69 Q1174.91 1531.54 1181.37 1531.54 Q1185.31 1531.54 1188.11 1533.1 Q1190.95 1534.62 1192.79 1537.81 M1172.84 1550.25 Q1172.84 1556.71 1175.48 1560.4 Q1178.15 1564.07 1182.8 1564.07 Q1187.45 1564.07 1190.12 1560.4 Q1192.79 1556.71 1192.79 1550.25 Q1192.79 1543.79 1190.12 1540.13 Q1187.45 1536.44 1182.8 1536.44 Q1178.15 1536.44 1175.48 1540.13 Q1172.84 1543.79 1172.84 1550.25 Z" fill="#000000" fill-rule="nonzero" fill-opacity="1" /><path clip-path="url(#clip470)" d="M1241.2 1548.76 L1241.2 1551.62 L1214.28 1551.62 Q1214.66 1557.67 1217.91 1560.85 Q1221.18 1564 1227.01 1564 Q1230.38 1564 1233.53 1563.17 Q1236.72 1562.35 1239.84 1560.69 L1239.84 1566.23 Q1236.68 1567.57 1233.37 1568.27 Q1230.06 1568.97 1226.66 1568.97 Q1218.13 1568.97 1213.13 1564 Q1208.17 1559.04 1208.17 1550.57 Q1208.17 1541.82 1212.88 1536.69 Q1217.62 1531.54 1225.64 1531.54 Q1232.83 1531.54 1237 1536.18 Q1241.2 1540.8 1241.2 1548.76 M1235.35 1547.04 Q1235.28 1542.23 1232.64 1539.37 Q1230.03 1536.5 1225.7 1536.5 Q1220.8 1536.5 1217.84 1539.27 Q1214.91 1542.04 1214.47 1547.07 L1235.35 1547.04 Z" fill="#000000" fill-rule="nonzero" fill-opacity="1" /><path clip-path="url(#clip470)" d="M1271.47 1537.87 Q1270.49 1537.3 1269.31 1537.04 Q1268.16 1536.76 1266.76 1536.76 Q1261.8 1536.76 1259.12 1540 Q1256.48 1543.22 1256.48 1549.27 L1256.48 1568.04 L1250.59 1568.04 L1250.59 1532.4 L1256.48 1532.4 L1256.48 1537.93 Q1258.33 1534.69 1261.29 1533.13 Q1264.25 1531.54 1268.48 1531.54 Q1269.09 1531.54 1269.82 1531.63 Q1270.55 1531.7 1271.44 1531.85 L1271.47 1537.87 Z" fill="#000000" fill-rule="nonzero" fill-opacity="1" /><path clip-path="url(#clip470)" d="M1283.15 1520.52 L1283.15 1538.19 L1277.74 1538.19 L1277.74 1520.52 L1283.15 1520.52 Z" fill="#000000" fill-rule="nonzero" fill-opacity="1" /><path clip-path="url(#clip470)" d="M1318.26 1533.45 L1318.26 1538.98 Q1315.78 1537.71 1313.1 1537.07 Q1310.43 1536.44 1307.57 1536.44 Q1303.21 1536.44 1301.01 1537.77 Q1298.85 1539.11 1298.85 1541.79 Q1298.85 1543.82 1300.41 1545 Q1301.96 1546.15 1306.68 1547.2 L1308.68 1547.64 Q1314.92 1548.98 1317.53 1551.43 Q1320.17 1553.85 1320.17 1558.21 Q1320.17 1563.17 1316.22 1566.07 Q1312.31 1568.97 1305.43 1568.97 Q1302.57 1568.97 1299.45 1568.39 Q1296.36 1567.85 1292.93 1566.74 L1292.93 1560.69 Q1296.17 1562.38 1299.32 1563.24 Q1302.47 1564.07 1305.56 1564.07 Q1309.7 1564.07 1311.93 1562.66 Q1314.16 1561.23 1314.16 1558.65 Q1314.16 1556.27 1312.53 1554.99 Q1310.94 1553.72 1305.5 1552.54 L1303.46 1552.07 Q1298.02 1550.92 1295.6 1548.56 Q1293.18 1546.18 1293.18 1542.04 Q1293.18 1537.01 1296.75 1534.27 Q1300.31 1531.54 1306.87 1531.54 Q1310.11 1531.54 1312.98 1532.01 Q1315.84 1532.49 1318.26 1533.45 Z" fill="#000000" fill-rule="nonzero" fill-opacity="1" /><path clip-path="url(#clip470)" d="M1355.88 1562.7 L1355.88 1581.6 L1349.99 1581.6 L1349.99 1532.4 L1355.88 1532.4 L1355.88 1537.81 Q1357.73 1534.62 1360.53 1533.1 Q1363.36 1531.54 1367.28 1531.54 Q1373.77 1531.54 1377.81 1536.69 Q1381.89 1541.85 1381.89 1550.25 Q1381.89 1558.65 1377.81 1563.81 Q1373.77 1568.97 1367.28 1568.97 Q1363.36 1568.97 1360.53 1567.44 Q1357.73 1565.88 1355.88 1562.7 M1375.81 1550.25 Q1375.81 1543.79 1373.13 1540.13 Q1370.49 1536.44 1365.84 1536.44 Q1361.2 1536.44 1358.52 1540.13 Q1355.88 1543.79 1355.88 1550.25 Q1355.88 1556.71 1358.52 1560.4 Q1361.2 1564.07 1365.84 1564.07 Q1370.49 1564.07 1373.13 1560.4 Q1375.81 1556.71 1375.81 1550.25 Z" fill="#000000" fill-rule="nonzero" fill-opacity="1" /><path clip-path="url(#clip470)" d="M1412.25 1537.87 Q1411.26 1537.3 1410.09 1537.04 Q1408.94 1536.76 1407.54 1536.76 Q1402.57 1536.76 1399.9 1540 Q1397.26 1543.22 1397.26 1549.27 L1397.26 1568.04 L1391.37 1568.04 L1391.37 1532.4 L1397.26 1532.4 L1397.26 1537.93 Q1399.11 1534.69 1402.07 1533.13 Q1405.03 1531.54 1409.26 1531.54 Q1409.86 1531.54 1410.6 1531.63 Q1411.33 1531.7 1412.22 1531.85 L1412.25 1537.87 Z" fill="#000000" fill-rule="nonzero" fill-opacity="1" /><path clip-path="url(#clip470)" d="M1418.39 1532.4 L1424.25 1532.4 L1424.25 1568.04 L1418.39 1568.04 L1418.39 1532.4 M1418.39 1518.52 L1424.25 1518.52 L1424.25 1525.93 L1418.39 1525.93 L1418.39 1518.52 Z" fill="#000000" fill-rule="nonzero" fill-opacity="1" /><path clip-path="url(#clip470)" d="M1462.16 1533.76 L1462.16 1539.24 Q1459.68 1537.87 1457.16 1537.2 Q1454.68 1536.5 1452.13 1536.5 Q1446.43 1536.5 1443.28 1540.13 Q1440.13 1543.73 1440.13 1550.25 Q1440.13 1556.78 1443.28 1560.4 Q1446.43 1564 1452.13 1564 Q1454.68 1564 1457.16 1563.33 Q1459.68 1562.63 1462.16 1561.26 L1462.16 1566.68 Q1459.71 1567.82 1457.07 1568.39 Q1454.46 1568.97 1451.5 1568.97 Q1443.44 1568.97 1438.7 1563.91 Q1433.96 1558.85 1433.96 1550.25 Q1433.96 1541.53 1438.73 1536.53 Q1443.54 1531.54 1451.88 1531.54 Q1454.58 1531.54 1457.16 1532.11 Q1459.74 1532.65 1462.16 1533.76 Z" fill="#000000" fill-rule="nonzero" fill-opacity="1" /><path clip-path="url(#clip470)" d="M1502.83 1548.76 L1502.83 1551.62 L1475.91 1551.62 Q1476.29 1557.67 1479.54 1560.85 Q1482.81 1564 1488.64 1564 Q1492.01 1564 1495.16 1563.17 Q1498.35 1562.35 1501.47 1560.69 L1501.47 1566.23 Q1498.32 1567.57 1495 1568.27 Q1491.69 1568.97 1488.29 1568.97 Q1479.76 1568.97 1474.76 1564 Q1469.8 1559.04 1469.8 1550.57 Q1469.8 1541.82 1474.51 1536.69 Q1479.25 1531.54 1487.27 1531.54 Q1494.46 1531.54 1498.63 1536.18 Q1502.83 1540.8 1502.83 1548.76 M1496.98 1547.04 Q1496.91 1542.23 1494.27 1539.37 Q1491.66 1536.5 1487.33 1536.5 Q1482.43 1536.5 1479.47 1539.27 Q1476.54 1542.04 1476.1 1547.07 L1496.98 1547.04 Z" fill="#000000" fill-rule="nonzero" fill-opacity="1" /><polyline clip-path="url(#clip470)" style="stroke:#000000; stroke-linecap:round; stroke-linejoin:round; stroke-width:4; stroke-opacity:1; fill:none" points="204.45,1423.18 204.45,123.472 "/>
<polyline clip-path="url(#clip470)" style="stroke:#000000; stroke-linecap:round; stroke-linejoin:round; stroke-width:4; stroke-opacity:1; fill:none" points="204.45,1256.86 223.347,1256.86 "/>
<polyline clip-path="url(#clip470)" style="stroke:#000000; stroke-linecap:round; stroke-linejoin:round; stroke-width:4; stroke-opacity:1; fill:none" points="204.45,916.848 223.347,916.848 "/>
<polyline clip-path="url(#clip470)" style="stroke:#000000; stroke-linecap:round; stroke-linejoin:round; stroke-width:4; stroke-opacity:1; fill:none" points="204.45,576.834 223.347,576.834 "/>
<polyline clip-path="url(#clip470)" style="stroke:#000000; stroke-linecap:round; stroke-linejoin:round; stroke-width:4; stroke-opacity:1; fill:none" points="204.45,236.821 223.347,236.821 "/>
<path clip-path="url(#clip470)" d="M116.158 1239.58 L138.38 1239.58 L138.38 1241.57 L125.834 1274.14 L120.95 1274.14 L132.755 1243.52 L116.158 1243.52 L116.158 1239.58 Z" fill="#000000" fill-rule="nonzero" fill-opacity="1" /><path clip-path="url(#clip470)" d="M147.547 1239.58 L165.903 1239.58 L165.903 1243.52 L151.829 1243.52 L151.829 1251.99 Q152.848 1251.64 153.866 1251.48 Q154.885 1251.29 155.903 1251.29 Q161.69 1251.29 165.07 1254.47 Q168.45 1257.64 168.45 1263.05 Q168.45 1268.63 164.977 1271.73 Q161.505 1274.81 155.186 1274.81 Q153.01 1274.81 150.741 1274.44 Q148.496 1274.07 146.089 1273.33 L146.089 1268.63 Q148.172 1269.77 150.394 1270.32 Q152.616 1270.88 155.093 1270.88 Q159.098 1270.88 161.436 1268.77 Q163.774 1266.66 163.774 1263.05 Q163.774 1259.44 161.436 1257.34 Q159.098 1255.23 155.093 1255.23 Q153.218 1255.23 151.343 1255.65 Q149.491 1256.06 147.547 1256.94 L147.547 1239.58 Z" fill="#000000" fill-rule="nonzero" fill-opacity="1" /><path clip-path="url(#clip470)" d="M126.343 917.716 Q123.01 917.716 121.089 919.498 Q119.191 921.28 119.191 924.405 Q119.191 927.53 121.089 929.313 Q123.01 931.095 126.343 931.095 Q129.677 931.095 131.598 929.313 Q133.519 927.507 133.519 924.405 Q133.519 921.28 131.598 919.498 Q129.7 917.716 126.343 917.716 M121.668 915.725 Q118.658 914.984 116.968 912.924 Q115.302 910.864 115.302 907.901 Q115.302 903.757 118.242 901.35 Q121.205 898.943 126.343 898.943 Q131.505 898.943 134.445 901.35 Q137.385 903.757 137.385 907.901 Q137.385 910.864 135.695 912.924 Q134.029 914.984 131.042 915.725 Q134.422 916.512 136.297 918.804 Q138.195 921.095 138.195 924.405 Q138.195 929.428 135.117 932.114 Q132.061 934.799 126.343 934.799 Q120.626 934.799 117.547 932.114 Q114.492 929.428 114.492 924.405 Q114.492 921.095 116.39 918.804 Q118.288 916.512 121.668 915.725 M119.955 908.341 Q119.955 911.026 121.621 912.53 Q123.311 914.035 126.343 914.035 Q129.353 914.035 131.042 912.53 Q132.755 911.026 132.755 908.341 Q132.755 905.655 131.042 904.151 Q129.353 902.646 126.343 902.646 Q123.311 902.646 121.621 904.151 Q119.955 905.655 119.955 908.341 Z" fill="#000000" fill-rule="nonzero" fill-opacity="1" /><path clip-path="url(#clip470)" d="M156.505 902.646 Q152.894 902.646 151.066 906.211 Q149.26 909.753 149.26 916.882 Q149.26 923.989 151.066 927.553 Q152.894 931.095 156.505 931.095 Q160.14 931.095 161.945 927.553 Q163.774 923.989 163.774 916.882 Q163.774 909.753 161.945 906.211 Q160.14 902.646 156.505 902.646 M156.505 898.943 Q162.315 898.943 165.371 903.549 Q168.45 908.132 168.45 916.882 Q168.45 925.609 165.371 930.215 Q162.315 934.799 156.505 934.799 Q150.695 934.799 147.616 930.215 Q144.561 925.609 144.561 916.882 Q144.561 908.132 147.616 903.549 Q150.695 898.943 156.505 898.943 Z" fill="#000000" fill-rule="nonzero" fill-opacity="1" /><path clip-path="url(#clip470)" d="M127.339 577.702 Q124.005 577.702 122.084 579.485 Q120.186 581.267 120.186 584.392 Q120.186 587.517 122.084 589.299 Q124.005 591.082 127.339 591.082 Q130.672 591.082 132.593 589.299 Q134.515 587.494 134.515 584.392 Q134.515 581.267 132.593 579.485 Q130.695 577.702 127.339 577.702 M122.663 575.711 Q119.654 574.971 117.964 572.911 Q116.297 570.85 116.297 567.887 Q116.297 563.744 119.237 561.337 Q122.2 558.929 127.339 558.929 Q132.501 558.929 135.441 561.337 Q138.38 563.744 138.38 567.887 Q138.38 570.85 136.691 572.911 Q135.024 574.971 132.038 575.711 Q135.417 576.499 137.292 578.79 Q139.191 581.082 139.191 584.392 Q139.191 589.415 136.112 592.1 Q133.056 594.785 127.339 594.785 Q121.621 594.785 118.543 592.1 Q115.487 589.415 115.487 584.392 Q115.487 581.082 117.385 578.79 Q119.283 576.499 122.663 575.711 M120.95 568.327 Q120.95 571.012 122.617 572.517 Q124.306 574.022 127.339 574.022 Q130.348 574.022 132.038 572.517 Q133.751 571.012 133.751 568.327 Q133.751 565.642 132.038 564.137 Q130.348 562.633 127.339 562.633 Q124.306 562.633 122.617 564.137 Q120.95 565.642 120.95 568.327 Z" fill="#000000" fill-rule="nonzero" fill-opacity="1" /><path clip-path="url(#clip470)" d="M147.547 559.554 L165.903 559.554 L165.903 563.489 L151.829 563.489 L151.829 571.961 Q152.848 571.614 153.866 571.452 Q154.885 571.267 155.903 571.267 Q161.69 571.267 165.07 574.438 Q168.45 577.61 168.45 583.026 Q168.45 588.605 164.977 591.707 Q161.505 594.785 155.186 594.785 Q153.01 594.785 150.741 594.415 Q148.496 594.045 146.089 593.304 L146.089 588.605 Q148.172 589.739 150.394 590.295 Q152.616 590.85 155.093 590.85 Q159.098 590.85 161.436 588.744 Q163.774 586.637 163.774 583.026 Q163.774 579.415 161.436 577.309 Q159.098 575.202 155.093 575.202 Q153.218 575.202 151.343 575.619 Q149.491 576.036 147.547 576.915 L147.547 559.554 Z" fill="#000000" fill-rule="nonzero" fill-opacity="1" /><path clip-path="url(#clip470)" d="M116.482 253.383 L116.482 249.124 Q118.242 249.957 120.047 250.397 Q121.853 250.837 123.589 250.837 Q128.218 250.837 130.649 247.735 Q133.103 244.61 133.45 238.268 Q132.107 240.258 130.047 241.323 Q127.987 242.388 125.487 242.388 Q120.302 242.388 117.269 239.263 Q114.26 236.115 114.26 230.675 Q114.26 225.351 117.408 222.133 Q120.556 218.916 125.788 218.916 Q131.783 218.916 134.931 223.522 Q138.103 228.106 138.103 236.856 Q138.103 245.027 134.214 249.911 Q130.348 254.772 123.797 254.772 Q122.038 254.772 120.232 254.425 Q118.427 254.078 116.482 253.383 M125.788 238.731 Q128.936 238.731 130.765 236.578 Q132.617 234.425 132.617 230.675 Q132.617 226.948 130.765 224.795 Q128.936 222.619 125.788 222.619 Q122.64 222.619 120.788 224.795 Q118.959 226.948 118.959 230.675 Q118.959 234.425 120.788 236.578 Q122.64 238.731 125.788 238.731 Z" fill="#000000" fill-rule="nonzero" fill-opacity="1" /><path clip-path="url(#clip470)" d="M156.505 222.619 Q152.894 222.619 151.066 226.184 Q149.26 229.726 149.26 236.856 Q149.26 243.962 151.066 247.527 Q152.894 251.068 156.505 251.068 Q160.14 251.068 161.945 247.527 Q163.774 243.962 163.774 236.856 Q163.774 229.726 161.945 226.184 Q160.14 222.619 156.505 222.619 M156.505 218.916 Q162.315 218.916 165.371 223.522 Q168.45 228.106 168.45 236.856 Q168.45 245.582 165.371 250.189 Q162.315 254.772 156.505 254.772 Q150.695 254.772 147.616 250.189 Q144.561 245.582 144.561 236.856 Q144.561 228.106 147.616 223.522 Q150.695 218.916 156.505 218.916 Z" fill="#000000" fill-rule="nonzero" fill-opacity="1" /><path clip-path="url(#clip470)" d="M21.7677 847.932 L39.6235 847.932 L39.6235 839.848 Q39.6235 835.36 37.3 832.909 Q34.9765 830.458 30.6797 830.458 Q26.4147 830.458 24.0912 832.909 Q21.7677 835.36 21.7677 839.848 L21.7677 847.932 M16.4842 854.361 L16.4842 839.848 Q16.4842 831.859 20.1126 827.785 Q23.7092 823.679 30.6797 823.679 Q37.7138 823.679 41.3104 827.785 Q44.907 831.859 44.907 839.848 L44.907 847.932 L64.0042 847.932 L64.0042 854.361 L16.4842 854.361 Z" fill="#000000" fill-rule="nonzero" fill-opacity="1" /><path clip-path="url(#clip470)" d="M33.8307 795.797 Q33.2578 796.784 33.0032 797.961 Q32.7167 799.107 32.7167 800.508 Q32.7167 805.473 35.9632 808.146 Q39.1779 810.788 45.2253 810.788 L64.0042 810.788 L64.0042 816.676 L28.3562 816.676 L28.3562 810.788 L33.8944 810.788 Q30.6479 808.942 29.0883 805.982 Q27.4968 803.022 27.4968 798.789 Q27.4968 798.184 27.5923 797.452 Q27.656 796.72 27.8151 795.829 L33.8307 795.797 Z" fill="#000000" fill-rule="nonzero" fill-opacity="1" /><path clip-path="url(#clip470)" d="M32.4621 777.273 Q32.4621 781.983 36.1542 784.721 Q39.8145 787.458 46.212 787.458 Q52.6095 787.458 56.3017 784.752 Q59.9619 782.015 59.9619 777.273 Q59.9619 772.594 56.2698 769.857 Q52.5777 767.119 46.212 767.119 Q39.8781 767.119 36.186 769.857 Q32.4621 772.594 32.4621 777.273 M27.4968 777.273 Q27.4968 769.634 32.4621 765.273 Q37.4273 760.913 46.212 760.913 Q54.9649 760.913 59.9619 765.273 Q64.9272 769.634 64.9272 777.273 Q64.9272 784.943 59.9619 789.304 Q54.9649 793.633 46.212 793.633 Q37.4273 793.633 32.4621 789.304 Q27.4968 784.943 27.4968 777.273 Z" fill="#000000" fill-rule="nonzero" fill-opacity="1" /><path clip-path="url(#clip470)" d="M14.479 733.158 L19.3487 733.158 L19.3487 738.76 Q19.3487 741.911 20.6219 743.153 Q21.895 744.362 25.2052 744.362 L28.3562 744.362 L28.3562 734.718 L32.9077 734.718 L32.9077 744.362 L64.0042 744.362 L64.0042 750.25 L32.9077 750.25 L32.9077 755.852 L28.3562 755.852 L28.3562 750.25 L25.8736 750.25 Q19.9216 750.25 17.2162 747.481 Q14.479 744.712 14.479 738.697 L14.479 733.158 Z" fill="#000000" fill-rule="nonzero" fill-opacity="1" /><path clip-path="url(#clip470)" d="M28.3562 728.257 L28.3562 722.4 L64.0042 722.4 L64.0042 728.257 L28.3562 728.257 M14.479 728.257 L14.479 722.4 L21.895 722.4 L21.895 728.257 L14.479 728.257 Z" fill="#000000" fill-rule="nonzero" fill-opacity="1" /><path clip-path="url(#clip470)" d="M18.2347 704.354 L28.3562 704.354 L28.3562 692.291 L32.9077 692.291 L32.9077 704.354 L52.2594 704.354 Q56.6199 704.354 57.8613 703.176 Q59.1026 701.966 59.1026 698.306 L59.1026 692.291 L64.0042 692.291 L64.0042 698.306 Q64.0042 705.086 61.4897 707.664 Q58.9434 710.242 52.2594 710.242 L32.9077 710.242 L32.9077 714.539 L28.3562 714.539 L28.3562 710.242 L18.2347 710.242 L18.2347 704.354 Z" fill="#000000" fill-rule="nonzero" fill-opacity="1" /><path clip-path="url(#clip470)" d="M400.752 16.7545 L400.752 25.383 Q396.62 21.5346 391.921 19.6307 Q387.262 17.7268 381.996 17.7268 Q371.626 17.7268 366.116 24.0867 Q360.607 30.4061 360.607 42.3968 Q360.607 54.3469 366.116 60.7069 Q371.626 67.0263 381.996 67.0263 Q387.262 67.0263 391.921 65.1223 Q396.62 63.2184 400.752 59.3701 L400.752 67.9175 Q396.458 70.8341 391.637 72.2924 Q386.857 73.7508 381.51 73.7508 Q367.777 73.7508 359.878 65.3654 Q351.979 56.9395 351.979 42.3968 Q351.979 27.8135 359.878 19.4281 Q367.777 11.0023 381.51 11.0023 Q386.938 11.0023 391.718 12.4606 Q396.539 13.8784 400.752 16.7545 Z" fill="#000000" fill-rule="nonzero" fill-opacity="1" /><path clip-path="url(#clip470)" d="M430.647 32.4315 Q424.652 32.4315 421.168 37.1306 Q417.684 41.7891 417.684 49.9314 Q417.684 58.0738 421.128 62.7728 Q424.611 67.4314 430.647 67.4314 Q436.602 67.4314 440.086 62.7323 Q443.57 58.0333 443.57 49.9314 Q443.57 41.8701 440.086 37.1711 Q436.602 32.4315 430.647 32.4315 M430.647 26.1121 Q440.369 26.1121 445.919 32.4315 Q451.469 38.7509 451.469 49.9314 Q451.469 61.0714 445.919 67.4314 Q440.369 73.7508 430.647 73.7508 Q420.885 73.7508 415.335 67.4314 Q409.826 61.0714 409.826 49.9314 Q409.826 38.7509 415.335 32.4315 Q420.885 26.1121 430.647 26.1121 Z" fill="#000000" fill-rule="nonzero" fill-opacity="1" /><path clip-path="url(#clip470)" d="M490.115 34.1734 Q488.859 33.4443 487.36 33.1202 Q485.902 32.7556 484.119 32.7556 Q477.8 32.7556 474.397 36.8875 Q471.035 40.9789 471.035 48.6757 L471.035 72.576 L463.541 72.576 L463.541 27.2059 L471.035 27.2059 L471.035 34.2544 Q473.384 30.1225 477.152 28.1376 Q480.919 26.1121 486.307 26.1121 Q487.076 26.1121 488.008 26.2337 Q488.94 26.3147 490.074 26.5172 L490.115 34.1734 Z" fill="#000000" fill-rule="nonzero" fill-opacity="1" /><path clip-path="url(#clip470)" d="M522.765 34.1734 Q521.509 33.4443 520.01 33.1202 Q518.552 32.7556 516.769 32.7556 Q510.45 32.7556 507.047 36.8875 Q503.685 40.9789 503.685 48.6757 L503.685 72.576 L496.191 72.576 L496.191 27.2059 L503.685 27.2059 L503.685 34.2544 Q506.035 30.1225 509.802 28.1376 Q513.569 26.1121 518.957 26.1121 Q519.727 26.1121 520.658 26.2337 Q521.59 26.3147 522.724 26.5172 L522.765 34.1734 Z" fill="#000000" fill-rule="nonzero" fill-opacity="1" /><path clip-path="url(#clip470)" d="M567.568 48.0275 L567.568 51.6733 L533.297 51.6733 Q533.783 59.3701 537.915 63.421 Q542.088 67.4314 549.501 67.4314 Q553.795 67.4314 557.805 66.3781 Q561.856 65.3249 565.826 63.2184 L565.826 70.267 Q561.816 71.9684 557.603 72.8596 Q553.39 73.7508 549.055 73.7508 Q538.199 73.7508 531.839 67.4314 Q525.519 61.1119 525.519 50.3365 Q525.519 39.1965 531.515 32.6746 Q537.551 26.1121 547.759 26.1121 Q556.914 26.1121 562.221 32.0264 Q567.568 37.9003 567.568 48.0275 M560.114 45.84 Q560.033 39.7232 556.671 36.0774 Q553.349 32.4315 547.84 32.4315 Q541.602 32.4315 537.834 35.9558 Q534.107 39.4801 533.54 45.8805 L560.114 45.84 Z" fill="#000000" fill-rule="nonzero" fill-opacity="1" /><path clip-path="url(#clip470)" d="M600.421 49.7694 Q591.387 49.7694 587.903 51.8354 Q584.42 53.9013 584.42 58.8839 Q584.42 62.8538 587.012 65.2034 Q589.645 67.5124 594.142 67.5124 Q600.34 67.5124 604.066 63.1374 Q607.834 58.7219 607.834 51.4303 L607.834 49.7694 L600.421 49.7694 M615.287 46.6907 L615.287 72.576 L607.834 72.576 L607.834 65.6895 Q605.282 69.8214 601.474 71.8063 Q597.666 73.7508 592.157 73.7508 Q585.189 73.7508 581.057 69.8619 Q576.966 65.9325 576.966 59.3701 Q576.966 51.7138 582.07 47.825 Q587.215 43.9361 597.382 43.9361 L607.834 43.9361 L607.834 43.2069 Q607.834 38.0623 604.431 35.2672 Q601.069 32.4315 594.952 32.4315 Q591.063 32.4315 587.377 33.3632 Q583.69 34.295 580.288 36.1584 L580.288 29.2718 Q584.379 27.692 588.227 26.9223 Q592.076 26.1121 595.722 26.1121 Q605.565 26.1121 610.426 31.2163 Q615.287 36.3204 615.287 46.6907 Z" fill="#000000" fill-rule="nonzero" fill-opacity="1" /><path clip-path="url(#clip470)" d="M630.64 9.54393 L638.094 9.54393 L638.094 72.576 L630.64 72.576 L630.64 9.54393 Z" fill="#000000" fill-rule="nonzero" fill-opacity="1" /><path clip-path="url(#clip470)" d="M661.063 14.324 L661.063 27.2059 L676.416 27.2059 L676.416 32.9987 L661.063 32.9987 L661.063 57.6282 Q661.063 63.1779 662.562 64.7578 Q664.101 66.3376 668.759 66.3376 L676.416 66.3376 L676.416 72.576 L668.759 72.576 Q660.131 72.576 656.85 69.3758 Q653.569 66.1351 653.569 57.6282 L653.569 32.9987 L648.1 32.9987 L648.1 27.2059 L653.569 27.2059 L653.569 14.324 L661.063 14.324 Z" fill="#000000" fill-rule="nonzero" fill-opacity="1" /><path clip-path="url(#clip470)" d="M686.219 27.2059 L693.672 27.2059 L693.672 72.576 L686.219 72.576 L686.219 27.2059 M686.219 9.54393 L693.672 9.54393 L693.672 18.9825 L686.219 18.9825 L686.219 9.54393 Z" fill="#000000" fill-rule="nonzero" fill-opacity="1" /><path clip-path="url(#clip470)" d="M726.849 32.4315 Q720.854 32.4315 717.37 37.1306 Q713.886 41.7891 713.886 49.9314 Q713.886 58.0738 717.33 62.7728 Q720.814 67.4314 726.849 67.4314 Q732.804 67.4314 736.288 62.7323 Q739.772 58.0333 739.772 49.9314 Q739.772 41.8701 736.288 37.1711 Q732.804 32.4315 726.849 32.4315 M726.849 26.1121 Q736.572 26.1121 742.121 32.4315 Q747.671 38.7509 747.671 49.9314 Q747.671 61.0714 742.121 67.4314 Q736.572 73.7508 726.849 73.7508 Q717.087 73.7508 711.537 67.4314 Q706.028 61.0714 706.028 49.9314 Q706.028 38.7509 711.537 32.4315 Q717.087 26.1121 726.849 26.1121 Z" fill="#000000" fill-rule="nonzero" fill-opacity="1" /><path clip-path="url(#clip470)" d="M797.74 45.1919 L797.74 72.576 L790.287 72.576 L790.287 45.4349 Q790.287 38.994 787.775 35.7938 Q785.263 32.5936 780.24 32.5936 Q774.204 32.5936 770.721 36.4419 Q767.237 40.2903 767.237 46.9338 L767.237 72.576 L759.743 72.576 L759.743 27.2059 L767.237 27.2059 L767.237 34.2544 Q769.91 30.163 773.516 28.1376 Q777.162 26.1121 781.901 26.1121 Q789.719 26.1121 793.73 30.9732 Q797.74 35.7938 797.74 45.1919 Z" fill="#000000" fill-rule="nonzero" fill-opacity="1" /><path clip-path="url(#clip470)" d="M871.548 49.9314 Q871.548 41.7081 868.145 37.0496 Q864.783 32.3505 858.868 32.3505 Q852.954 32.3505 849.551 37.0496 Q846.189 41.7081 846.189 49.9314 Q846.189 58.1548 849.551 62.8538 Q852.954 67.5124 858.868 67.5124 Q864.783 67.5124 868.145 62.8538 Q871.548 58.1548 871.548 49.9314 M846.189 34.0924 Q848.539 30.0415 852.103 28.0971 Q855.709 26.1121 860.691 26.1121 Q868.955 26.1121 874.1 32.6746 Q879.285 39.2371 879.285 49.9314 Q879.285 60.6258 874.1 67.1883 Q868.955 73.7508 860.691 73.7508 Q855.709 73.7508 852.103 71.8063 Q848.539 69.8214 846.189 65.7705 L846.189 72.576 L838.695 72.576 L838.695 9.54393 L846.189 9.54393 L846.189 34.0924 Z" fill="#000000" fill-rule="nonzero" fill-opacity="1" /><path clip-path="url(#clip470)" d="M930.448 48.0275 L930.448 51.6733 L896.177 51.6733 Q896.663 59.3701 900.795 63.421 Q904.968 67.4314 912.381 67.4314 Q916.675 67.4314 920.685 66.3781 Q924.736 65.3249 928.706 63.2184 L928.706 70.267 Q924.696 71.9684 920.483 72.8596 Q916.27 73.7508 911.935 73.7508 Q901.079 73.7508 894.719 67.4314 Q888.399 61.1119 888.399 50.3365 Q888.399 39.1965 894.395 32.6746 Q900.431 26.1121 910.639 26.1121 Q919.794 26.1121 925.101 32.0264 Q930.448 37.9003 930.448 48.0275 M922.994 45.84 Q922.913 39.7232 919.551 36.0774 Q916.229 32.4315 910.72 32.4315 Q904.482 32.4315 900.714 35.9558 Q896.987 39.4801 896.42 45.8805 L922.994 45.84 Z" fill="#000000" fill-rule="nonzero" fill-opacity="1" /><path clip-path="url(#clip470)" d="M950.054 14.324 L950.054 27.2059 L965.407 27.2059 L965.407 32.9987 L950.054 32.9987 L950.054 57.6282 Q950.054 63.1779 951.553 64.7578 Q953.092 66.3376 957.751 66.3376 L965.407 66.3376 L965.407 72.576 L957.751 72.576 Q949.122 72.576 945.841 69.3758 Q942.56 66.1351 942.56 57.6282 L942.56 32.9987 L937.091 32.9987 L937.091 27.2059 L942.56 27.2059 L942.56 14.324 L950.054 14.324 Z" fill="#000000" fill-rule="nonzero" fill-opacity="1" /><path clip-path="url(#clip470)" d="M970.876 27.2059 L978.33 27.2059 L987.647 62.6108 L996.923 27.2059 L1005.71 27.2059 L1015.03 62.6108 L1024.31 27.2059 L1031.76 27.2059 L1019.89 72.576 L1011.1 72.576 L1001.34 35.3887 L991.535 72.576 L982.745 72.576 L970.876 27.2059 Z" fill="#000000" fill-rule="nonzero" fill-opacity="1" /><path clip-path="url(#clip470)" d="M1081.87 48.0275 L1081.87 51.6733 L1047.6 51.6733 Q1048.09 59.3701 1052.22 63.421 Q1056.39 67.4314 1063.8 67.4314 Q1068.1 67.4314 1072.11 66.3781 Q1076.16 65.3249 1080.13 63.2184 L1080.13 70.267 Q1076.12 71.9684 1071.91 72.8596 Q1067.69 73.7508 1063.36 73.7508 Q1052.5 73.7508 1046.14 67.4314 Q1039.82 61.1119 1039.82 50.3365 Q1039.82 39.1965 1045.82 32.6746 Q1051.85 26.1121 1062.06 26.1121 Q1071.22 26.1121 1076.52 32.0264 Q1081.87 37.9003 1081.87 48.0275 M1074.42 45.84 Q1074.34 39.7232 1070.97 36.0774 Q1067.65 32.4315 1062.14 32.4315 Q1055.9 32.4315 1052.14 35.9558 Q1048.41 39.4801 1047.84 45.8805 L1074.42 45.84 Z" fill="#000000" fill-rule="nonzero" fill-opacity="1" /><path clip-path="url(#clip470)" d="M1132.91 48.0275 L1132.91 51.6733 L1098.64 51.6733 Q1099.13 59.3701 1103.26 63.421 Q1107.43 67.4314 1114.84 67.4314 Q1119.14 67.4314 1123.15 66.3781 Q1127.2 65.3249 1131.17 63.2184 L1131.17 70.267 Q1127.16 71.9684 1122.95 72.8596 Q1118.73 73.7508 1114.4 73.7508 Q1103.54 73.7508 1097.18 67.4314 Q1090.86 61.1119 1090.86 50.3365 Q1090.86 39.1965 1096.86 32.6746 Q1102.89 26.1121 1113.1 26.1121 Q1122.26 26.1121 1127.56 32.0264 Q1132.91 37.9003 1132.91 48.0275 M1125.46 45.84 Q1125.38 39.7232 1122.02 36.0774 Q1118.69 32.4315 1113.18 32.4315 Q1106.95 32.4315 1103.18 35.9558 Q1099.45 39.4801 1098.88 45.8805 L1125.46 45.84 Z" fill="#000000" fill-rule="nonzero" fill-opacity="1" /><path clip-path="url(#clip470)" d="M1182.86 45.1919 L1182.86 72.576 L1175.41 72.576 L1175.41 45.4349 Q1175.41 38.994 1172.89 35.7938 Q1170.38 32.5936 1165.36 32.5936 Q1159.32 32.5936 1155.84 36.4419 Q1152.36 40.2903 1152.36 46.9338 L1152.36 72.576 L1144.86 72.576 L1144.86 27.2059 L1152.36 27.2059 L1152.36 34.2544 Q1155.03 30.163 1158.64 28.1376 Q1162.28 26.1121 1167.02 26.1121 Q1174.84 26.1121 1178.85 30.9732 Q1182.86 35.7938 1182.86 45.1919 Z" fill="#000000" fill-rule="nonzero" fill-opacity="1" /><path clip-path="url(#clip470)" d="M1224.1 9.54393 L1231.55 9.54393 L1231.55 72.576 L1224.1 72.576 L1224.1 9.54393 Z" fill="#000000" fill-rule="nonzero" fill-opacity="1" /><path clip-path="url(#clip470)" d="M1285.96 48.0275 L1285.96 51.6733 L1251.68 51.6733 Q1252.17 59.3701 1256.3 63.421 Q1260.47 67.4314 1267.89 67.4314 Q1272.18 67.4314 1276.19 66.3781 Q1280.24 65.3249 1284.21 63.2184 L1284.21 70.267 Q1280.2 71.9684 1275.99 72.8596 Q1271.78 73.7508 1267.44 73.7508 Q1256.59 73.7508 1250.23 67.4314 Q1243.91 61.1119 1243.91 50.3365 Q1243.91 39.1965 1249.9 32.6746 Q1255.94 26.1121 1266.15 26.1121 Q1275.3 26.1121 1280.61 32.0264 Q1285.96 37.9003 1285.96 48.0275 M1278.5 45.84 Q1278.42 39.7232 1275.06 36.0774 Q1271.74 32.4315 1266.23 32.4315 Q1259.99 32.4315 1256.22 35.9558 Q1252.49 39.4801 1251.93 45.8805 L1278.5 45.84 Z" fill="#000000" fill-rule="nonzero" fill-opacity="1" /><path clip-path="url(#clip470)" d="M1318.81 49.7694 Q1309.77 49.7694 1306.29 51.8354 Q1302.81 53.9013 1302.81 58.8839 Q1302.81 62.8538 1305.4 65.2034 Q1308.03 67.5124 1312.53 67.5124 Q1318.73 67.5124 1322.45 63.1374 Q1326.22 58.7219 1326.22 51.4303 L1326.22 49.7694 L1318.81 49.7694 M1333.67 46.6907 L1333.67 72.576 L1326.22 72.576 L1326.22 65.6895 Q1323.67 69.8214 1319.86 71.8063 Q1316.05 73.7508 1310.54 73.7508 Q1303.58 73.7508 1299.44 69.8619 Q1295.35 65.9325 1295.35 59.3701 Q1295.35 51.7138 1300.46 47.825 Q1305.6 43.9361 1315.77 43.9361 L1326.22 43.9361 L1326.22 43.2069 Q1326.22 38.0623 1322.82 35.2672 Q1319.46 32.4315 1313.34 32.4315 Q1309.45 32.4315 1305.76 33.3632 Q1302.08 34.295 1298.68 36.1584 L1298.68 29.2718 Q1302.77 27.692 1306.61 26.9223 Q1310.46 26.1121 1314.11 26.1121 Q1323.95 26.1121 1328.81 31.2163 Q1333.67 36.3204 1333.67 46.6907 Z" fill="#000000" fill-rule="nonzero" fill-opacity="1" /><path clip-path="url(#clip470)" d="M1378.88 34.0924 L1378.88 9.54393 L1386.34 9.54393 L1386.34 72.576 L1378.88 72.576 L1378.88 65.7705 Q1376.53 69.8214 1372.93 71.8063 Q1369.36 73.7508 1364.34 73.7508 Q1356.12 73.7508 1350.93 67.1883 Q1345.79 60.6258 1345.79 49.9314 Q1345.79 39.2371 1350.93 32.6746 Q1356.12 26.1121 1364.34 26.1121 Q1369.36 26.1121 1372.93 28.0971 Q1376.53 30.0415 1378.88 34.0924 M1353.48 49.9314 Q1353.48 58.1548 1356.85 62.8538 Q1360.25 67.5124 1366.16 67.5124 Q1372.08 67.5124 1375.48 62.8538 Q1378.88 58.1548 1378.88 49.9314 Q1378.88 41.7081 1375.48 37.0496 Q1372.08 32.3505 1366.16 32.3505 Q1360.25 32.3505 1356.85 37.0496 Q1353.48 41.7081 1353.48 49.9314 Z" fill="#000000" fill-rule="nonzero" fill-opacity="1" /><path clip-path="url(#clip470)" d="M1440.5 48.0275 L1440.5 51.6733 L1406.23 51.6733 Q1406.71 59.3701 1410.84 63.421 Q1415.02 67.4314 1422.43 67.4314 Q1426.72 67.4314 1430.73 66.3781 Q1434.79 65.3249 1438.76 63.2184 L1438.76 70.267 Q1434.74 71.9684 1430.53 72.8596 Q1426.32 73.7508 1421.98 73.7508 Q1411.13 73.7508 1404.77 67.4314 Q1398.45 61.1119 1398.45 50.3365 Q1398.45 39.1965 1404.44 32.6746 Q1410.48 26.1121 1420.69 26.1121 Q1429.84 26.1121 1435.15 32.0264 Q1440.5 37.9003 1440.5 48.0275 M1433.04 45.84 Q1432.96 39.7232 1429.6 36.0774 Q1426.28 32.4315 1420.77 32.4315 Q1414.53 32.4315 1410.76 35.9558 Q1407.04 39.4801 1406.47 45.8805 L1433.04 45.84 Z" fill="#000000" fill-rule="nonzero" fill-opacity="1" /><path clip-path="url(#clip470)" d="M1479.02 34.1734 Q1477.77 33.4443 1476.27 33.1202 Q1474.81 32.7556 1473.03 32.7556 Q1466.71 32.7556 1463.3 36.8875 Q1459.94 40.9789 1459.94 48.6757 L1459.94 72.576 L1452.45 72.576 L1452.45 27.2059 L1459.94 27.2059 L1459.94 34.2544 Q1462.29 30.1225 1466.06 28.1376 Q1469.83 26.1121 1475.21 26.1121 Q1475.98 26.1121 1476.91 26.2337 Q1477.85 26.3147 1478.98 26.5172 L1479.02 34.1734 Z" fill="#000000" fill-rule="nonzero" fill-opacity="1" /><path clip-path="url(#clip470)" d="M1493.89 12.096 L1493.89 34.5785 L1487 34.5785 L1487 12.096 L1493.89 12.096 Z" fill="#000000" fill-rule="nonzero" fill-opacity="1" /><path clip-path="url(#clip470)" d="M1538.57 28.5427 L1538.57 35.5912 Q1535.41 33.9709 1532.01 33.1607 Q1528.6 32.3505 1524.96 32.3505 Q1519.41 32.3505 1516.61 34.0519 Q1513.86 35.7533 1513.86 39.156 Q1513.86 41.7486 1515.84 43.2475 Q1517.83 44.7058 1523.82 46.0426 L1526.38 46.6097 Q1534.32 48.3111 1537.64 51.4303 Q1541 54.509 1541 60.0587 Q1541 66.3781 1535.98 70.0644 Q1530.99 73.7508 1522.24 73.7508 Q1518.6 73.7508 1514.63 73.0216 Q1510.7 72.3329 1506.32 70.9151 L1506.32 63.2184 Q1510.46 65.3654 1514.47 66.4591 Q1518.48 67.5124 1522.41 67.5124 Q1527.67 67.5124 1530.51 65.73 Q1533.34 63.9071 1533.34 60.6258 Q1533.34 57.5877 1531.28 55.9673 Q1529.25 54.3469 1522.33 52.8481 L1519.73 52.2405 Q1512.81 50.7821 1509.73 47.7845 Q1506.65 44.7463 1506.65 39.4801 Q1506.65 33.0797 1511.19 29.5959 Q1515.72 26.1121 1524.07 26.1121 Q1528.2 26.1121 1531.85 26.7198 Q1535.49 27.3274 1538.57 28.5427 Z" fill="#000000" fill-rule="nonzero" fill-opacity="1" /><path clip-path="url(#clip470)" d="M1586.45 65.7705 L1586.45 89.8329 L1578.96 89.8329 L1578.96 27.2059 L1586.45 27.2059 L1586.45 34.0924 Q1588.8 30.0415 1592.37 28.0971 Q1595.97 26.1121 1600.95 26.1121 Q1609.22 26.1121 1614.36 32.6746 Q1619.55 39.2371 1619.55 49.9314 Q1619.55 60.6258 1614.36 67.1883 Q1609.22 73.7508 1600.95 73.7508 Q1595.97 73.7508 1592.37 71.8063 Q1588.8 69.8214 1586.45 65.7705 M1611.81 49.9314 Q1611.81 41.7081 1608.41 37.0496 Q1605.04 32.3505 1599.13 32.3505 Q1593.22 32.3505 1589.81 37.0496 Q1586.45 41.7081 1586.45 49.9314 Q1586.45 58.1548 1589.81 62.8538 Q1593.22 67.5124 1599.13 67.5124 Q1605.04 67.5124 1608.41 62.8538 Q1611.81 58.1548 1611.81 49.9314 Z" fill="#000000" fill-rule="nonzero" fill-opacity="1" /><path clip-path="url(#clip470)" d="M1658.19 34.1734 Q1656.94 33.4443 1655.44 33.1202 Q1653.98 32.7556 1652.2 32.7556 Q1645.88 32.7556 1642.48 36.8875 Q1639.11 40.9789 1639.11 48.6757 L1639.11 72.576 L1631.62 72.576 L1631.62 27.2059 L1639.11 27.2059 L1639.11 34.2544 Q1641.46 30.1225 1645.23 28.1376 Q1649 26.1121 1654.38 26.1121 Q1655.15 26.1121 1656.09 26.2337 Q1657.02 26.3147 1658.15 26.5172 L1658.19 34.1734 Z" fill="#000000" fill-rule="nonzero" fill-opacity="1" /><path clip-path="url(#clip470)" d="M1666.01 27.2059 L1673.46 27.2059 L1673.46 72.576 L1666.01 72.576 L1666.01 27.2059 M1666.01 9.54393 L1673.46 9.54393 L1673.46 18.9825 L1666.01 18.9825 L1666.01 9.54393 Z" fill="#000000" fill-rule="nonzero" fill-opacity="1" /><path clip-path="url(#clip470)" d="M1721.71 28.9478 L1721.71 35.9153 Q1718.55 34.1734 1715.35 33.3227 Q1712.19 32.4315 1708.95 32.4315 Q1701.7 32.4315 1697.69 37.0496 Q1693.68 41.6271 1693.68 49.9314 Q1693.68 58.2358 1697.69 62.8538 Q1701.7 67.4314 1708.95 67.4314 Q1712.19 67.4314 1715.35 66.5807 Q1718.55 65.6895 1721.71 63.9476 L1721.71 70.8341 Q1718.59 72.2924 1715.23 73.0216 Q1711.91 73.7508 1708.14 73.7508 Q1697.89 73.7508 1691.86 67.3098 Q1685.82 60.8689 1685.82 49.9314 Q1685.82 38.832 1691.9 32.472 Q1698.01 26.1121 1708.63 26.1121 Q1712.07 26.1121 1715.35 26.8413 Q1718.63 27.5299 1721.71 28.9478 Z" fill="#000000" fill-rule="nonzero" fill-opacity="1" /><path clip-path="url(#clip470)" d="M1773.48 48.0275 L1773.48 51.6733 L1739.21 51.6733 Q1739.7 59.3701 1743.83 63.421 Q1748 67.4314 1755.41 67.4314 Q1759.71 67.4314 1763.72 66.3781 Q1767.77 65.3249 1771.74 63.2184 L1771.74 70.267 Q1767.73 71.9684 1763.52 72.8596 Q1759.3 73.7508 1754.97 73.7508 Q1744.11 73.7508 1737.75 67.4314 Q1731.43 61.1119 1731.43 50.3365 Q1731.43 39.1965 1737.43 32.6746 Q1743.46 26.1121 1753.67 26.1121 Q1762.83 26.1121 1768.13 32.0264 Q1773.48 37.9003 1773.48 48.0275 M1766.03 45.84 Q1765.95 39.7232 1762.58 36.0774 Q1759.26 32.4315 1753.75 32.4315 Q1747.52 32.4315 1743.75 35.9558 Q1740.02 39.4801 1739.45 45.8805 L1766.03 45.84 Z" fill="#000000" fill-rule="nonzero" fill-opacity="1" /><path clip-path="url(#clip470)" d="M1832.71 49.7694 Q1823.67 49.7694 1820.19 51.8354 Q1816.7 53.9013 1816.7 58.8839 Q1816.7 62.8538 1819.3 65.2034 Q1821.93 67.5124 1826.43 67.5124 Q1832.62 67.5124 1836.35 63.1374 Q1840.12 58.7219 1840.12 51.4303 L1840.12 49.7694 L1832.71 49.7694 M1847.57 46.6907 L1847.57 72.576 L1840.12 72.576 L1840.12 65.6895 Q1837.57 69.8214 1833.76 71.8063 Q1829.95 73.7508 1824.44 73.7508 Q1817.47 73.7508 1813.34 69.8619 Q1809.25 65.9325 1809.25 59.3701 Q1809.25 51.7138 1814.36 47.825 Q1819.5 43.9361 1829.67 43.9361 L1840.12 43.9361 L1840.12 43.2069 Q1840.12 38.0623 1836.72 35.2672 Q1833.35 32.4315 1827.24 32.4315 Q1823.35 32.4315 1819.66 33.3632 Q1815.98 34.295 1812.57 36.1584 L1812.57 29.2718 Q1816.66 27.692 1820.51 26.9223 Q1824.36 26.1121 1828.01 26.1121 Q1837.85 26.1121 1842.71 31.2163 Q1847.57 36.3204 1847.57 46.6907 Z" fill="#000000" fill-rule="nonzero" fill-opacity="1" /><path clip-path="url(#clip470)" d="M1900.64 45.1919 L1900.64 72.576 L1893.19 72.576 L1893.19 45.4349 Q1893.19 38.994 1890.67 35.7938 Q1888.16 32.5936 1883.14 32.5936 Q1877.1 32.5936 1873.62 36.4419 Q1870.14 40.2903 1870.14 46.9338 L1870.14 72.576 L1862.64 72.576 L1862.64 27.2059 L1870.14 27.2059 L1870.14 34.2544 Q1872.81 30.163 1876.41 28.1376 Q1880.06 26.1121 1884.8 26.1121 Q1892.62 26.1121 1896.63 30.9732 Q1900.64 35.7938 1900.64 45.1919 Z" fill="#000000" fill-rule="nonzero" fill-opacity="1" /><path clip-path="url(#clip470)" d="M1945.36 34.0924 L1945.36 9.54393 L1952.82 9.54393 L1952.82 72.576 L1945.36 72.576 L1945.36 65.7705 Q1943.01 69.8214 1939.41 71.8063 Q1935.84 73.7508 1930.82 73.7508 Q1922.6 73.7508 1917.41 67.1883 Q1912.27 60.6258 1912.27 49.9314 Q1912.27 39.2371 1917.41 32.6746 Q1922.6 26.1121 1930.82 26.1121 Q1935.84 26.1121 1939.41 28.0971 Q1943.01 30.0415 1945.36 34.0924 M1919.96 49.9314 Q1919.96 58.1548 1923.32 62.8538 Q1926.73 67.5124 1932.64 67.5124 Q1938.56 67.5124 1941.96 62.8538 Q1945.36 58.1548 1945.36 49.9314 Q1945.36 41.7081 1941.96 37.0496 Q1938.56 32.3505 1932.64 32.3505 Q1926.73 32.3505 1923.32 37.0496 Q1919.96 41.7081 1919.96 49.9314 Z" fill="#000000" fill-rule="nonzero" fill-opacity="1" /><path clip-path="url(#clip470)" d="M2001.75 65.7705 L2001.75 89.8329 L1994.26 89.8329 L1994.26 27.2059 L2001.75 27.2059 L2001.75 34.0924 Q2004.1 30.0415 2007.66 28.0971 Q2011.27 26.1121 2016.25 26.1121 Q2024.52 26.1121 2029.66 32.6746 Q2034.85 39.2371 2034.85 49.9314 Q2034.85 60.6258 2029.66 67.1883 Q2024.52 73.7508 2016.25 73.7508 Q2011.27 73.7508 2007.66 71.8063 Q2004.1 69.8214 2001.75 65.7705 M2027.11 49.9314 Q2027.11 41.7081 2023.71 37.0496 Q2020.34 32.3505 2014.43 32.3505 Q2008.51 32.3505 2005.11 37.0496 Q2001.75 41.7081 2001.75 49.9314 Q2001.75 58.1548 2005.11 62.8538 Q2008.51 67.5124 2014.43 67.5124 Q2020.34 67.5124 2023.71 62.8538 Q2027.11 58.1548 2027.11 49.9314 Z" fill="#000000" fill-rule="nonzero" fill-opacity="1" /><path clip-path="url(#clip470)" d="M2073.49 34.1734 Q2072.24 33.4443 2070.74 33.1202 Q2069.28 32.7556 2067.5 32.7556 Q2061.18 32.7556 2057.77 36.8875 Q2054.41 40.9789 2054.41 48.6757 L2054.41 72.576 L2046.92 72.576 L2046.92 27.2059 L2054.41 27.2059 L2054.41 34.2544 Q2056.76 30.1225 2060.53 28.1376 Q2064.3 26.1121 2069.68 26.1121 Q2070.45 26.1121 2071.39 26.2337 Q2072.32 26.3147 2073.45 26.5172 L2073.49 34.1734 Z" fill="#000000" fill-rule="nonzero" fill-opacity="1" /><path clip-path="url(#clip470)" d="M2097.07 32.4315 Q2091.07 32.4315 2087.59 37.1306 Q2084.1 41.7891 2084.1 49.9314 Q2084.1 58.0738 2087.55 62.7728 Q2091.03 67.4314 2097.07 67.4314 Q2103.02 67.4314 2106.51 62.7323 Q2109.99 58.0333 2109.99 49.9314 Q2109.99 41.8701 2106.51 37.1711 Q2103.02 32.4315 2097.07 32.4315 M2097.07 26.1121 Q2106.79 26.1121 2112.34 32.4315 Q2117.89 38.7509 2117.89 49.9314 Q2117.89 61.0714 2112.34 67.4314 Q2106.79 73.7508 2097.07 73.7508 Q2087.31 73.7508 2081.76 67.4314 Q2076.25 61.0714 2076.25 49.9314 Q2076.25 38.7509 2081.76 32.4315 Q2087.31 26.1121 2097.07 26.1121 Z" fill="#000000" fill-rule="nonzero" fill-opacity="1" /><path clip-path="url(#clip470)" d="M2153.21 9.54393 L2153.21 15.7418 L2146.08 15.7418 Q2142.07 15.7418 2140.49 17.3622 Q2138.95 18.9825 2138.95 23.1955 L2138.95 27.2059 L2151.23 27.2059 L2151.23 32.9987 L2138.95 32.9987 L2138.95 72.576 L2131.46 72.576 L2131.46 32.9987 L2124.33 32.9987 L2124.33 27.2059 L2131.46 27.2059 L2131.46 24.0462 Q2131.46 16.471 2134.98 13.0277 Q2138.51 9.54393 2146.16 9.54393 L2153.21 9.54393 Z" fill="#000000" fill-rule="nonzero" fill-opacity="1" /><path clip-path="url(#clip470)" d="M2159.45 27.2059 L2166.91 27.2059 L2166.91 72.576 L2159.45 72.576 L2159.45 27.2059 M2159.45 9.54393 L2166.91 9.54393 L2166.91 18.9825 L2159.45 18.9825 L2159.45 9.54393 Z" fill="#000000" fill-rule="nonzero" fill-opacity="1" /><path clip-path="url(#clip470)" d="M2189.87 14.324 L2189.87 27.2059 L2205.23 27.2059 L2205.23 32.9987 L2189.87 32.9987 L2189.87 57.6282 Q2189.87 63.1779 2191.37 64.7578 Q2192.91 66.3376 2197.57 66.3376 L2205.23 66.3376 L2205.23 72.576 L2197.57 72.576 Q2188.94 72.576 2185.66 69.3758 Q2182.38 66.1351 2182.38 57.6282 L2182.38 32.9987 L2176.91 32.9987 L2176.91 27.2059 L2182.38 27.2059 L2182.38 14.324 L2189.87 14.324 Z" fill="#000000" fill-rule="nonzero" fill-opacity="1" /><circle clip-path="url(#clip471)" cx="336.352" cy="1353.59" r="14.4" fill="#009af9" fill-rule="evenodd" fill-opacity="1" stroke="#000000" stroke-opacity="1" stroke-width="3.2"/>
<circle clip-path="url(#clip471)" cx="966.706" cy="994.413" r="14.4" fill="#009af9" fill-rule="evenodd" fill-opacity="1" stroke="#000000" stroke-opacity="1" stroke-width="3.2"/>
<circle clip-path="url(#clip471)" cx="1053.42" cy="883.227" r="14.4" fill="#009af9" fill-rule="evenodd" fill-opacity="1" stroke="#000000" stroke-opacity="1" stroke-width="3.2"/>
<circle clip-path="url(#clip471)" cx="903.303" cy="998.296" r="14.4" fill="#009af9" fill-rule="evenodd" fill-opacity="1" stroke="#000000" stroke-opacity="1" stroke-width="3.2"/>
<circle clip-path="url(#clip471)" cx="603.879" cy="1175.11" r="14.4" fill="#009af9" fill-rule="evenodd" fill-opacity="1" stroke="#000000" stroke-opacity="1" stroke-width="3.2"/>
<circle clip-path="url(#clip471)" cx="1038.56" cy="953.772" r="14.4" fill="#009af9" fill-rule="evenodd" fill-opacity="1" stroke="#000000" stroke-opacity="1" stroke-width="3.2"/>
<circle clip-path="url(#clip471)" cx="769.782" cy="1136.13" r="14.4" fill="#009af9" fill-rule="evenodd" fill-opacity="1" stroke="#000000" stroke-opacity="1" stroke-width="3.2"/>
<circle clip-path="url(#clip471)" cx="2180.67" cy="207.019" r="14.4" fill="#009af9" fill-rule="evenodd" fill-opacity="1" stroke="#000000" stroke-opacity="1" stroke-width="3.2"/>
<circle clip-path="url(#clip471)" cx="300.596" cy="1404.91" r="14.4" fill="#009af9" fill-rule="evenodd" fill-opacity="1" stroke="#000000" stroke-opacity="1" stroke-width="3.2"/>
<circle clip-path="url(#clip471)" cx="1944.26" cy="367.132" r="14.4" fill="#009af9" fill-rule="evenodd" fill-opacity="1" stroke="#000000" stroke-opacity="1" stroke-width="3.2"/>
<circle clip-path="url(#clip471)" cx="536.892" cy="1247.91" r="14.4" fill="#009af9" fill-rule="evenodd" fill-opacity="1" stroke="#000000" stroke-opacity="1" stroke-width="3.2"/>
<circle clip-path="url(#clip471)" cx="809.746" cy="1114.68" r="14.4" fill="#009af9" fill-rule="evenodd" fill-opacity="1" stroke="#000000" stroke-opacity="1" stroke-width="3.2"/>
<circle clip-path="url(#clip471)" cx="911.757" cy="967.133" r="14.4" fill="#009af9" fill-rule="evenodd" fill-opacity="1" stroke="#000000" stroke-opacity="1" stroke-width="3.2"/>
<circle clip-path="url(#clip471)" cx="1488.43" cy="611.446" r="14.4" fill="#009af9" fill-rule="evenodd" fill-opacity="1" stroke="#000000" stroke-opacity="1" stroke-width="3.2"/>
<circle clip-path="url(#clip471)" cx="2289.45" cy="175.766" r="14.4" fill="#009af9" fill-rule="evenodd" fill-opacity="1" stroke="#000000" stroke-opacity="1" stroke-width="3.2"/>
<circle clip-path="url(#clip471)" cx="1834.57" cy="452.772" r="14.4" fill="#009af9" fill-rule="evenodd" fill-opacity="1" stroke="#000000" stroke-opacity="1" stroke-width="3.2"/>
<circle clip-path="url(#clip471)" cx="904.574" cy="1041.48" r="14.4" fill="#009af9" fill-rule="evenodd" fill-opacity="1" stroke="#000000" stroke-opacity="1" stroke-width="3.2"/>
<circle clip-path="url(#clip471)" cx="403.46" cy="1288.66" r="14.4" fill="#009af9" fill-rule="evenodd" fill-opacity="1" stroke="#000000" stroke-opacity="1" stroke-width="3.2"/>
<circle clip-path="url(#clip471)" cx="2046.43" cy="261.82" r="14.4" fill="#009af9" fill-rule="evenodd" fill-opacity="1" stroke="#000000" stroke-opacity="1" stroke-width="3.2"/>
<circle clip-path="url(#clip471)" cx="575.804" cy="1234.65" r="14.4" fill="#009af9" fill-rule="evenodd" fill-opacity="1" stroke="#000000" stroke-opacity="1" stroke-width="3.2"/>
<circle clip-path="url(#clip471)" cx="970.933" cy="989.174" r="14.4" fill="#009af9" fill-rule="evenodd" fill-opacity="1" stroke="#000000" stroke-opacity="1" stroke-width="3.2"/>
<circle clip-path="url(#clip471)" cx="1449.95" cy="672.224" r="14.4" fill="#009af9" fill-rule="evenodd" fill-opacity="1" stroke="#000000" stroke-opacity="1" stroke-width="3.2"/>
<circle clip-path="url(#clip471)" cx="992.068" cy="927.218" r="14.4" fill="#009af9" fill-rule="evenodd" fill-opacity="1" stroke="#000000" stroke-opacity="1" stroke-width="3.2"/>
<circle clip-path="url(#clip471)" cx="1051.24" cy="882.199" r="14.4" fill="#009af9" fill-rule="evenodd" fill-opacity="1" stroke="#000000" stroke-opacity="1" stroke-width="3.2"/>
<circle clip-path="url(#clip471)" cx="962.479" cy="984.165" r="14.4" fill="#009af9" fill-rule="evenodd" fill-opacity="1" stroke="#000000" stroke-opacity="1" stroke-width="3.2"/>
<circle clip-path="url(#clip471)" cx="1256.09" cy="821.605" r="14.4" fill="#009af9" fill-rule="evenodd" fill-opacity="1" stroke="#000000" stroke-opacity="1" stroke-width="3.2"/>
<circle clip-path="url(#clip471)" cx="421.368" cy="1313.35" r="14.4" fill="#009af9" fill-rule="evenodd" fill-opacity="1" stroke="#000000" stroke-opacity="1" stroke-width="3.2"/>
<circle clip-path="url(#clip471)" cx="717.941" cy="1108.97" r="14.4" fill="#009af9" fill-rule="evenodd" fill-opacity="1" stroke="#000000" stroke-opacity="1" stroke-width="3.2"/>
<circle clip-path="url(#clip471)" cx="300.215" cy="1405.91" r="14.4" fill="#009af9" fill-rule="evenodd" fill-opacity="1" stroke="#000000" stroke-opacity="1" stroke-width="3.2"/>
<circle clip-path="url(#clip471)" cx="1610.08" cy="540.975" r="14.4" fill="#009af9" fill-rule="evenodd" fill-opacity="1" stroke="#000000" stroke-opacity="1" stroke-width="3.2"/>
<circle clip-path="url(#clip471)" cx="1013.2" cy="936.59" r="14.4" fill="#009af9" fill-rule="evenodd" fill-opacity="1" stroke="#000000" stroke-opacity="1" stroke-width="3.2"/>
<circle clip-path="url(#clip471)" cx="1995.75" cy="327.518" r="14.4" fill="#009af9" fill-rule="evenodd" fill-opacity="1" stroke="#000000" stroke-opacity="1" stroke-width="3.2"/>
<circle clip-path="url(#clip471)" cx="949.108" cy="960.048" r="14.4" fill="#009af9" fill-rule="evenodd" fill-opacity="1" stroke="#000000" stroke-opacity="1" stroke-width="3.2"/>
<circle clip-path="url(#clip471)" cx="945.572" cy="979.442" r="14.4" fill="#009af9" fill-rule="evenodd" fill-opacity="1" stroke="#000000" stroke-opacity="1" stroke-width="3.2"/>
<circle clip-path="url(#clip471)" cx="886.395" cy="1010.6" r="14.4" fill="#009af9" fill-rule="evenodd" fill-opacity="1" stroke="#000000" stroke-opacity="1" stroke-width="3.2"/>
<circle clip-path="url(#clip471)" cx="920.21" cy="1029.97" r="14.4" fill="#009af9" fill-rule="evenodd" fill-opacity="1" stroke="#000000" stroke-opacity="1" stroke-width="3.2"/>
<circle clip-path="url(#clip471)" cx="378.596" cy="1333.49" r="14.4" fill="#009af9" fill-rule="evenodd" fill-opacity="1" stroke="#000000" stroke-opacity="1" stroke-width="3.2"/>
<circle clip-path="url(#clip471)" cx="1021.66" cy="958.469" r="14.4" fill="#009af9" fill-rule="evenodd" fill-opacity="1" stroke="#000000" stroke-opacity="1" stroke-width="3.2"/>
<circle clip-path="url(#clip471)" cx="932.891" cy="993.614" r="14.4" fill="#009af9" fill-rule="evenodd" fill-opacity="1" stroke="#000000" stroke-opacity="1" stroke-width="3.2"/>
<circle clip-path="url(#clip471)" cx="941.345" cy="973.067" r="14.4" fill="#009af9" fill-rule="evenodd" fill-opacity="1" stroke="#000000" stroke-opacity="1" stroke-width="3.2"/>
<circle clip-path="url(#clip471)" cx="958.252" cy="999.552" r="14.4" fill="#009af9" fill-rule="evenodd" fill-opacity="1" stroke="#000000" stroke-opacity="1" stroke-width="3.2"/>
<circle clip-path="url(#clip471)" cx="382.631" cy="1357.85" r="14.4" fill="#009af9" fill-rule="evenodd" fill-opacity="1" stroke="#000000" stroke-opacity="1" stroke-width="3.2"/>
<circle clip-path="url(#clip471)" cx="1620.96" cy="589.828" r="14.4" fill="#009af9" fill-rule="evenodd" fill-opacity="1" stroke="#000000" stroke-opacity="1" stroke-width="3.2"/>
<circle clip-path="url(#clip471)" cx="2146.77" cy="271.991" r="14.4" fill="#009af9" fill-rule="evenodd" fill-opacity="1" stroke="#000000" stroke-opacity="1" stroke-width="3.2"/>
<circle clip-path="url(#clip471)" cx="1942.73" cy="347.218" r="14.4" fill="#009af9" fill-rule="evenodd" fill-opacity="1" stroke="#000000" stroke-opacity="1" stroke-width="3.2"/>
<circle clip-path="url(#clip471)" cx="2275.19" cy="199.171" r="14.4" fill="#009af9" fill-rule="evenodd" fill-opacity="1" stroke="#000000" stroke-opacity="1" stroke-width="3.2"/>
<circle clip-path="url(#clip471)" cx="730.649" cy="1101.14" r="14.4" fill="#009af9" fill-rule="evenodd" fill-opacity="1" stroke="#000000" stroke-opacity="1" stroke-width="3.2"/>
<circle clip-path="url(#clip471)" cx="1341.14" cy="713.744" r="14.4" fill="#009af9" fill-rule="evenodd" fill-opacity="1" stroke="#000000" stroke-opacity="1" stroke-width="3.2"/>
<circle clip-path="url(#clip471)" cx="265.251" cy="1423.18" r="14.4" fill="#009af9" fill-rule="evenodd" fill-opacity="1" stroke="#000000" stroke-opacity="1" stroke-width="3.2"/>
<circle clip-path="url(#clip471)" cx="894.849" cy="1058.31" r="14.4" fill="#009af9" fill-rule="evenodd" fill-opacity="1" stroke="#000000" stroke-opacity="1" stroke-width="3.2"/>
<circle clip-path="url(#clip471)" cx="1993.43" cy="325.012" r="14.4" fill="#009af9" fill-rule="evenodd" fill-opacity="1" stroke="#000000" stroke-opacity="1" stroke-width="3.2"/>
<circle clip-path="url(#clip471)" cx="939.394" cy="991.694" r="14.4" fill="#009af9" fill-rule="evenodd" fill-opacity="1" stroke="#000000" stroke-opacity="1" stroke-width="3.2"/>
<circle clip-path="url(#clip471)" cx="928.115" cy="998.977" r="14.4" fill="#009af9" fill-rule="evenodd" fill-opacity="1" stroke="#000000" stroke-opacity="1" stroke-width="3.2"/>
<circle clip-path="url(#clip471)" cx="308.647" cy="1352.2" r="14.4" fill="#009af9" fill-rule="evenodd" fill-opacity="1" stroke="#000000" stroke-opacity="1" stroke-width="3.2"/>
<circle clip-path="url(#clip471)" cx="2059.56" cy="252.797" r="14.4" fill="#009af9" fill-rule="evenodd" fill-opacity="1" stroke="#000000" stroke-opacity="1" stroke-width="3.2"/>
<circle clip-path="url(#clip471)" cx="577.397" cy="1218.22" r="14.4" fill="#009af9" fill-rule="evenodd" fill-opacity="1" stroke="#000000" stroke-opacity="1" stroke-width="3.2"/>
<circle clip-path="url(#clip471)" cx="996.295" cy="954.134" r="14.4" fill="#009af9" fill-rule="evenodd" fill-opacity="1" stroke="#000000" stroke-opacity="1" stroke-width="3.2"/>
<circle clip-path="url(#clip471)" cx="355.61" cy="1390.08" r="14.4" fill="#009af9" fill-rule="evenodd" fill-opacity="1" stroke="#000000" stroke-opacity="1" stroke-width="3.2"/>
<circle clip-path="url(#clip471)" cx="949.799" cy="1041.41" r="14.4" fill="#009af9" fill-rule="evenodd" fill-opacity="1" stroke="#000000" stroke-opacity="1" stroke-width="3.2"/>
<circle clip-path="url(#clip471)" cx="2196.95" cy="193.076" r="14.4" fill="#009af9" fill-rule="evenodd" fill-opacity="1" stroke="#000000" stroke-opacity="1" stroke-width="3.2"/>
<circle clip-path="url(#clip471)" cx="1035.8" cy="933.456" r="14.4" fill="#009af9" fill-rule="evenodd" fill-opacity="1" stroke="#000000" stroke-opacity="1" stroke-width="3.2"/>
<circle clip-path="url(#clip471)" cx="924.437" cy="1013.73" r="14.4" fill="#009af9" fill-rule="evenodd" fill-opacity="1" stroke="#000000" stroke-opacity="1" stroke-width="3.2"/>
<circle clip-path="url(#clip471)" cx="915.984" cy="981.648" r="14.4" fill="#009af9" fill-rule="evenodd" fill-opacity="1" stroke="#000000" stroke-opacity="1" stroke-width="3.2"/>
<circle clip-path="url(#clip471)" cx="899.076" cy="1039.74" r="14.4" fill="#009af9" fill-rule="evenodd" fill-opacity="1" stroke="#000000" stroke-opacity="1" stroke-width="3.2"/>
<circle clip-path="url(#clip471)" cx="1089.85" cy="903.751" r="14.4" fill="#009af9" fill-rule="evenodd" fill-opacity="1" stroke="#000000" stroke-opacity="1" stroke-width="3.2"/>
<circle clip-path="url(#clip471)" cx="857.37" cy="1040.94" r="14.4" fill="#009af9" fill-rule="evenodd" fill-opacity="1" stroke="#000000" stroke-opacity="1" stroke-width="3.2"/>
<circle clip-path="url(#clip471)" cx="1008.98" cy="915.479" r="14.4" fill="#009af9" fill-rule="evenodd" fill-opacity="1" stroke="#000000" stroke-opacity="1" stroke-width="3.2"/>
<circle clip-path="url(#clip471)" cx="1017.43" cy="921.013" r="14.4" fill="#009af9" fill-rule="evenodd" fill-opacity="1" stroke="#000000" stroke-opacity="1" stroke-width="3.2"/>
<circle clip-path="url(#clip471)" cx="1880.58" cy="395.83" r="14.4" fill="#009af9" fill-rule="evenodd" fill-opacity="1" stroke="#000000" stroke-opacity="1" stroke-width="3.2"/>
<circle clip-path="url(#clip471)" cx="975.16" cy="967.251" r="14.4" fill="#009af9" fill-rule="evenodd" fill-opacity="1" stroke="#000000" stroke-opacity="1" stroke-width="3.2"/>
<circle clip-path="url(#clip471)" cx="1042.79" cy="972.75" r="14.4" fill="#009af9" fill-rule="evenodd" fill-opacity="1" stroke="#000000" stroke-opacity="1" stroke-width="3.2"/>
<circle clip-path="url(#clip471)" cx="907.53" cy="1018.95" r="14.4" fill="#009af9" fill-rule="evenodd" fill-opacity="1" stroke="#000000" stroke-opacity="1" stroke-width="3.2"/>
<circle clip-path="url(#clip471)" cx="434.607" cy="1294.5" r="14.4" fill="#009af9" fill-rule="evenodd" fill-opacity="1" stroke="#000000" stroke-opacity="1" stroke-width="3.2"/>
<circle clip-path="url(#clip471)" cx="2291.95" cy="123.472" r="14.4" fill="#009af9" fill-rule="evenodd" fill-opacity="1" stroke="#000000" stroke-opacity="1" stroke-width="3.2"/>
<circle clip-path="url(#clip471)" cx="1034.34" cy="952.218" r="14.4" fill="#009af9" fill-rule="evenodd" fill-opacity="1" stroke="#000000" stroke-opacity="1" stroke-width="3.2"/>
<circle clip-path="url(#clip471)" cx="928.664" cy="990.743" r="14.4" fill="#009af9" fill-rule="evenodd" fill-opacity="1" stroke="#000000" stroke-opacity="1" stroke-width="3.2"/>
<circle clip-path="url(#clip471)" cx="908.744" cy="1103.29" r="14.4" fill="#009af9" fill-rule="evenodd" fill-opacity="1" stroke="#000000" stroke-opacity="1" stroke-width="3.2"/>
<circle clip-path="url(#clip471)" cx="890.622" cy="1027.83" r="14.4" fill="#009af9" fill-rule="evenodd" fill-opacity="1" stroke="#000000" stroke-opacity="1" stroke-width="3.2"/>
<circle clip-path="url(#clip471)" cx="737.674" cy="1112.91" r="14.4" fill="#009af9" fill-rule="evenodd" fill-opacity="1" stroke="#000000" stroke-opacity="1" stroke-width="3.2"/>
<circle clip-path="url(#clip471)" cx="1047.02" cy="886.007" r="14.4" fill="#009af9" fill-rule="evenodd" fill-opacity="1" stroke="#000000" stroke-opacity="1" stroke-width="3.2"/>
<circle clip-path="url(#clip471)" cx="987.841" cy="972.278" r="14.4" fill="#009af9" fill-rule="evenodd" fill-opacity="1" stroke="#000000" stroke-opacity="1" stroke-width="3.2"/>
<circle clip-path="url(#clip471)" cx="1000.52" cy="912.141" r="14.4" fill="#009af9" fill-rule="evenodd" fill-opacity="1" stroke="#000000" stroke-opacity="1" stroke-width="3.2"/>
<circle clip-path="url(#clip471)" cx="1322.36" cy="711.956" r="14.4" fill="#009af9" fill-rule="evenodd" fill-opacity="1" stroke="#000000" stroke-opacity="1" stroke-width="3.2"/>
<circle clip-path="url(#clip471)" cx="1025.88" cy="899.467" r="14.4" fill="#009af9" fill-rule="evenodd" fill-opacity="1" stroke="#000000" stroke-opacity="1" stroke-width="3.2"/>
<circle clip-path="url(#clip471)" cx="788.755" cy="1073.39" r="14.4" fill="#009af9" fill-rule="evenodd" fill-opacity="1" stroke="#000000" stroke-opacity="1" stroke-width="3.2"/>
<circle clip-path="url(#clip471)" cx="954.026" cy="995.104" r="14.4" fill="#009af9" fill-rule="evenodd" fill-opacity="1" stroke="#000000" stroke-opacity="1" stroke-width="3.2"/>
<circle clip-path="url(#clip471)" cx="2013.82" cy="348.352" r="14.4" fill="#009af9" fill-rule="evenodd" fill-opacity="1" stroke="#000000" stroke-opacity="1" stroke-width="3.2"/>
<circle clip-path="url(#clip471)" cx="418.117" cy="1288.96" r="14.4" fill="#009af9" fill-rule="evenodd" fill-opacity="1" stroke="#000000" stroke-opacity="1" stroke-width="3.2"/>
<circle clip-path="url(#clip471)" cx="1040.37" cy="886.949" r="14.4" fill="#009af9" fill-rule="evenodd" fill-opacity="1" stroke="#000000" stroke-opacity="1" stroke-width="3.2"/>
<circle clip-path="url(#clip471)" cx="906.545" cy="1035.34" r="14.4" fill="#009af9" fill-rule="evenodd" fill-opacity="1" stroke="#000000" stroke-opacity="1" stroke-width="3.2"/>
<circle clip-path="url(#clip471)" cx="2135.79" cy="216.939" r="14.4" fill="#009af9" fill-rule="evenodd" fill-opacity="1" stroke="#000000" stroke-opacity="1" stroke-width="3.2"/>
<circle clip-path="url(#clip471)" cx="1424.28" cy="729.865" r="14.4" fill="#009af9" fill-rule="evenodd" fill-opacity="1" stroke="#000000" stroke-opacity="1" stroke-width="3.2"/>
<circle clip-path="url(#clip471)" cx="979.387" cy="963.821" r="14.4" fill="#009af9" fill-rule="evenodd" fill-opacity="1" stroke="#000000" stroke-opacity="1" stroke-width="3.2"/>
<circle clip-path="url(#clip471)" cx="1745.3" cy="486.901" r="14.4" fill="#009af9" fill-rule="evenodd" fill-opacity="1" stroke="#000000" stroke-opacity="1" stroke-width="3.2"/>
<circle clip-path="url(#clip471)" cx="983.614" cy="973.275" r="14.4" fill="#009af9" fill-rule="evenodd" fill-opacity="1" stroke="#000000" stroke-opacity="1" stroke-width="3.2"/>
<circle clip-path="url(#clip471)" cx="1573.93" cy="563.045" r="14.4" fill="#009af9" fill-rule="evenodd" fill-opacity="1" stroke="#000000" stroke-opacity="1" stroke-width="3.2"/>
<circle clip-path="url(#clip471)" cx="937.118" cy="1043.5" r="14.4" fill="#009af9" fill-rule="evenodd" fill-opacity="1" stroke="#000000" stroke-opacity="1" stroke-width="3.2"/>
<circle clip-path="url(#clip471)" cx="1004.75" cy="920.992" r="14.4" fill="#009af9" fill-rule="evenodd" fill-opacity="1" stroke="#000000" stroke-opacity="1" stroke-width="3.2"/>
<circle clip-path="url(#clip471)" cx="1030.11" cy="930.147" r="14.4" fill="#009af9" fill-rule="evenodd" fill-opacity="1" stroke="#000000" stroke-opacity="1" stroke-width="3.2"/>
<circle clip-path="url(#clip471)" cx="982.187" cy="968.65" r="14.4" fill="#009af9" fill-rule="evenodd" fill-opacity="1" stroke="#000000" stroke-opacity="1" stroke-width="3.2"/>
<path clip-path="url(#clip470)" d="M276.06 270.476 L793.227 270.476 L793.227 166.796 L276.06 166.796  Z" fill="#ffffff" fill-rule="evenodd" fill-opacity="1"/>
<polyline clip-path="url(#clip470)" style="stroke:#000000; stroke-linecap:round; stroke-linejoin:round; stroke-width:4; stroke-opacity:1; fill:none" points="276.06,270.476 793.227,270.476 793.227,166.796 276.06,166.796 276.06,270.476 "/>
<circle clip-path="url(#clip470)" cx="371.54" cy="218.636" r="20.48" fill="#009af9" fill-rule="evenodd" fill-opacity="1" stroke="#000000" stroke-opacity="1" stroke-width="4.55111"/>
<path clip-path="url(#clip470)" d="M467.02 201.356 L473.988 201.356 L482.807 224.874 L491.673 201.356 L498.641 201.356 L498.641 235.916 L494.08 235.916 L494.08 205.569 L485.168 229.272 L480.469 229.272 L471.557 205.569 L471.557 235.916 L467.02 235.916 L467.02 201.356 Z" fill="#000000" fill-rule="nonzero" fill-opacity="1" /><path clip-path="url(#clip470)" d="M507.923 201.356 L512.599 201.356 L512.599 215.962 L528.108 201.356 L534.127 201.356 L516.974 217.467 L535.353 235.916 L529.196 235.916 L512.599 219.272 L512.599 235.916 L507.923 235.916 L507.923 201.356 Z" fill="#000000" fill-rule="nonzero" fill-opacity="1" /><path clip-path="url(#clip470)" d="M553.594 217.282 Q556.951 217.999 558.826 220.268 Q560.724 222.536 560.724 225.869 Q560.724 230.985 557.205 233.786 Q553.687 236.587 547.205 236.587 Q545.029 236.587 542.714 236.147 Q540.423 235.731 537.969 234.874 L537.969 230.36 Q539.914 231.494 542.228 232.073 Q544.543 232.652 547.066 232.652 Q551.464 232.652 553.756 230.916 Q556.071 229.18 556.071 225.869 Q556.071 222.814 553.918 221.101 Q551.789 219.365 547.969 219.365 L543.941 219.365 L543.941 215.522 L548.154 215.522 Q551.603 215.522 553.432 214.157 Q555.261 212.768 555.261 210.175 Q555.261 207.513 553.363 206.101 Q551.488 204.666 547.969 204.666 Q546.048 204.666 543.849 205.083 Q541.65 205.499 539.011 206.379 L539.011 202.212 Q541.673 201.471 543.988 201.101 Q546.326 200.731 548.386 200.731 Q553.71 200.731 556.812 203.161 Q559.913 205.569 559.913 209.689 Q559.913 212.559 558.27 214.55 Q556.626 216.518 553.594 217.282 Z" fill="#000000" fill-rule="nonzero" fill-opacity="1" /><path clip-path="url(#clip470)" d="M570.075 230.036 L574.96 230.036 L574.96 234.018 L571.163 241.425 L568.177 241.425 L570.075 234.018 L570.075 230.036 Z" fill="#000000" fill-rule="nonzero" fill-opacity="1" /><path clip-path="url(#clip470)" d="M617.737 222.976 Q617.737 218.277 615.793 215.615 Q613.872 212.93 610.492 212.93 Q607.112 212.93 605.168 215.615 Q603.247 218.277 603.247 222.976 Q603.247 227.675 605.168 230.36 Q607.112 233.022 610.492 233.022 Q613.872 233.022 615.793 230.36 Q617.737 227.675 617.737 222.976 M603.247 213.925 Q604.589 211.61 606.626 210.499 Q608.686 209.365 611.534 209.365 Q616.256 209.365 619.196 213.115 Q622.159 216.865 622.159 222.976 Q622.159 229.087 619.196 232.837 Q616.256 236.587 611.534 236.587 Q608.686 236.587 606.626 235.476 Q604.589 234.342 603.247 232.027 L603.247 235.916 L598.964 235.916 L598.964 199.897 L603.247 199.897 L603.247 213.925 Z" fill="#000000" fill-rule="nonzero" fill-opacity="1" /><path clip-path="url(#clip470)" d="M641.001 222.883 Q635.839 222.883 633.848 224.064 Q631.858 225.244 631.858 228.092 Q631.858 230.36 633.339 231.703 Q634.844 233.022 637.413 233.022 Q640.955 233.022 643.084 230.522 Q645.237 227.999 645.237 223.832 L645.237 222.883 L641.001 222.883 M649.496 221.124 L649.496 235.916 L645.237 235.916 L645.237 231.981 Q643.779 234.342 641.603 235.476 Q639.427 236.587 636.279 236.587 Q632.297 236.587 629.936 234.365 Q627.598 232.119 627.598 228.369 Q627.598 223.994 630.515 221.772 Q633.455 219.55 639.265 219.55 L645.237 219.55 L645.237 219.133 Q645.237 216.194 643.293 214.596 Q641.371 212.976 637.876 212.976 Q635.654 212.976 633.547 213.508 Q631.441 214.041 629.496 215.106 L629.496 211.17 Q631.834 210.268 634.033 209.828 Q636.232 209.365 638.316 209.365 Q643.941 209.365 646.719 212.282 Q649.496 215.198 649.496 221.124 Z" fill="#000000" fill-rule="nonzero" fill-opacity="1" /><path clip-path="url(#clip470)" d="M662.482 202.629 L662.482 209.99 L671.255 209.99 L671.255 213.3 L662.482 213.3 L662.482 227.374 Q662.482 230.545 663.339 231.448 Q664.218 232.351 666.88 232.351 L671.255 232.351 L671.255 235.916 L666.88 235.916 Q661.95 235.916 660.075 234.087 Q658.2 232.235 658.2 227.374 L658.2 213.3 L655.075 213.3 L655.075 209.99 L658.2 209.99 L658.2 202.629 L662.482 202.629 Z" fill="#000000" fill-rule="nonzero" fill-opacity="1" /><path clip-path="url(#clip470)" d="M695.515 210.985 L695.515 214.967 Q693.709 213.971 691.88 213.485 Q690.075 212.976 688.223 212.976 Q684.079 212.976 681.788 215.615 Q679.496 218.231 679.496 222.976 Q679.496 227.721 681.788 230.36 Q684.079 232.976 688.223 232.976 Q690.075 232.976 691.88 232.49 Q693.709 231.981 695.515 230.985 L695.515 234.92 Q693.732 235.754 691.811 236.17 Q689.913 236.587 687.76 236.587 Q681.904 236.587 678.454 232.906 Q675.005 229.226 675.005 222.976 Q675.005 216.633 678.478 212.999 Q681.973 209.365 688.038 209.365 Q690.005 209.365 691.88 209.782 Q693.755 210.175 695.515 210.985 Z" fill="#000000" fill-rule="nonzero" fill-opacity="1" /><path clip-path="url(#clip470)" d="M724.473 220.268 L724.473 235.916 L720.214 235.916 L720.214 220.407 Q720.214 216.726 718.778 214.897 Q717.343 213.069 714.473 213.069 Q711.024 213.069 709.033 215.268 Q707.042 217.467 707.042 221.263 L707.042 235.916 L702.76 235.916 L702.76 199.897 L707.042 199.897 L707.042 214.018 Q708.57 211.68 710.63 210.522 Q712.714 209.365 715.422 209.365 Q719.889 209.365 722.181 212.143 Q724.473 214.897 724.473 220.268 Z" fill="#000000" fill-rule="nonzero" fill-opacity="1" /><path clip-path="url(#clip470)" d="M749.449 231.981 L757.088 231.981 L757.088 205.615 L748.778 207.282 L748.778 203.022 L757.042 201.356 L761.718 201.356 L761.718 231.981 L769.357 231.981 L769.357 235.916 L749.449 235.916 L749.449 231.981 Z" fill="#000000" fill-rule="nonzero" fill-opacity="1" /></svg>
