<?xml version="1.0" encoding="utf-8"?>
<svg xmlns="http://www.w3.org/2000/svg" xmlns:xlink="http://www.w3.org/1999/xlink" width="600" height="400" viewBox="0 0 2400 1600">
<defs>
  <clipPath id="clip330">
    <rect x="0" y="0" width="2400" height="1600"/>
  </clipPath>
</defs>
<path clip-path="url(#clip330)" d="M0 1600 L2400 1600 L2400 0 L0 0  Z" fill="#ffffff" fill-rule="evenodd" fill-opacity="1"/>
<defs>
  <clipPath id="clip331">
    <rect x="272" y="123" width="2081" height="1301"/>
  </clipPath>
</defs>
<path clip-path="url(#clip330)" d="M242.135 1423.18 L2352.76 1423.18 L2352.76 123.472 L242.135 123.472  Z" fill="#ffffff" fill-rule="evenodd" fill-opacity="1"/>
<defs>
  <clipPath id="clip332">
    <rect x="242" y="123" width="2112" height="1301"/>
  </clipPath>
</defs>
<polyline clip-path="url(#clip332)" style="stroke:#000000; stroke-linecap:round; stroke-linejoin:round; stroke-width:2; stroke-opacity:0.1; fill:none" points="281.757,1423.18 281.757,123.472 "/>
<polyline clip-path="url(#clip332)" style="stroke:#000000; stroke-linecap:round; stroke-linejoin:round; stroke-width:2; stroke-opacity:0.1; fill:none" points="784.573,1423.18 784.573,123.472 "/>
<polyline clip-path="url(#clip332)" style="stroke:#000000; stroke-linecap:round; stroke-linejoin:round; stroke-width:2; stroke-opacity:0.1; fill:none" points="1287.39,1423.18 1287.39,123.472 "/>
<polyline clip-path="url(#clip332)" style="stroke:#000000; stroke-linecap:round; stroke-linejoin:round; stroke-width:2; stroke-opacity:0.1; fill:none" points="1790.21,1423.18 1790.21,123.472 "/>
<polyline clip-path="url(#clip332)" style="stroke:#000000; stroke-linecap:round; stroke-linejoin:round; stroke-width:2; stroke-opacity:0.1; fill:none" points="2293.02,1423.18 2293.02,123.472 "/>
<polyline clip-path="url(#clip332)" style="stroke:#000000; stroke-linecap:round; stroke-linejoin:round; stroke-width:2; stroke-opacity:0.1; fill:none" points="242.135,1325.6 2352.76,1325.6 "/>
<polyline clip-path="url(#clip332)" style="stroke:#000000; stroke-linecap:round; stroke-linejoin:round; stroke-width:2; stroke-opacity:0.1; fill:none" points="242.135,1139.05 2352.76,1139.05 "/>
<polyline clip-path="url(#clip332)" style="stroke:#000000; stroke-linecap:round; stroke-linejoin:round; stroke-width:2; stroke-opacity:0.1; fill:none" points="242.135,952.506 2352.76,952.506 "/>
<polyline clip-path="url(#clip332)" style="stroke:#000000; stroke-linecap:round; stroke-linejoin:round; stroke-width:2; stroke-opacity:0.1; fill:none" points="242.135,765.958 2352.76,765.958 "/>
<polyline clip-path="url(#clip332)" style="stroke:#000000; stroke-linecap:round; stroke-linejoin:round; stroke-width:2; stroke-opacity:0.1; fill:none" points="242.135,579.41 2352.76,579.41 "/>
<polyline clip-path="url(#clip332)" style="stroke:#000000; stroke-linecap:round; stroke-linejoin:round; stroke-width:2; stroke-opacity:0.1; fill:none" points="242.135,392.862 2352.76,392.862 "/>
<polyline clip-path="url(#clip332)" style="stroke:#000000; stroke-linecap:round; stroke-linejoin:round; stroke-width:2; stroke-opacity:0.1; fill:none" points="242.135,206.314 2352.76,206.314 "/>
<polyline clip-path="url(#clip330)" style="stroke:#000000; stroke-linecap:round; stroke-linejoin:round; stroke-width:4; stroke-opacity:1; fill:none" points="242.135,1423.18 2352.76,1423.18 "/>
<polyline clip-path="url(#clip330)" style="stroke:#000000; stroke-linecap:round; stroke-linejoin:round; stroke-width:4; stroke-opacity:1; fill:none" points="281.757,1423.18 281.757,1404.28 "/>
<polyline clip-path="url(#clip330)" style="stroke:#000000; stroke-linecap:round; stroke-linejoin:round; stroke-width:4; stroke-opacity:1; fill:none" points="784.573,1423.18 784.573,1404.28 "/>
<polyline clip-path="url(#clip330)" style="stroke:#000000; stroke-linecap:round; stroke-linejoin:round; stroke-width:4; stroke-opacity:1; fill:none" points="1287.39,1423.18 1287.39,1404.28 "/>
<polyline clip-path="url(#clip330)" style="stroke:#000000; stroke-linecap:round; stroke-linejoin:round; stroke-width:4; stroke-opacity:1; fill:none" points="1790.21,1423.18 1790.21,1404.28 "/>
<polyline clip-path="url(#clip330)" style="stroke:#000000; stroke-linecap:round; stroke-linejoin:round; stroke-width:4; stroke-opacity:1; fill:none" points="2293.02,1423.18 2293.02,1404.28 "/>
<path clip-path="url(#clip330)" d="M281.757 1454.1 Q278.145 1454.1 276.317 1457.66 Q274.511 1461.2 274.511 1468.33 Q274.511 1475.44 276.317 1479.01 Q278.145 1482.55 281.757 1482.55 Q285.391 1482.55 287.196 1479.01 Q289.025 1475.44 289.025 1468.33 Q289.025 1461.2 287.196 1457.66 Q285.391 1454.1 281.757 1454.1 M281.757 1450.39 Q287.567 1450.39 290.622 1455 Q293.701 1459.58 293.701 1468.33 Q293.701 1477.06 290.622 1481.67 Q287.567 1486.25 281.757 1486.25 Q275.946 1486.25 272.868 1481.67 Q269.812 1477.06 269.812 1468.33 Q269.812 1459.58 272.868 1455 Q275.946 1450.39 281.757 1450.39 Z" fill="#000000" fill-rule="nonzero" fill-opacity="1" /><path clip-path="url(#clip330)" d="M763.844 1481.64 L780.163 1481.64 L780.163 1485.58 L758.219 1485.58 L758.219 1481.64 Q760.881 1478.89 765.464 1474.26 Q770.071 1469.61 771.251 1468.27 Q773.496 1465.74 774.376 1464.01 Q775.279 1462.25 775.279 1460.56 Q775.279 1457.8 773.334 1456.07 Q771.413 1454.33 768.311 1454.33 Q766.112 1454.33 763.659 1455.09 Q761.228 1455.86 758.45 1457.41 L758.45 1452.69 Q761.274 1451.55 763.728 1450.97 Q766.182 1450.39 768.219 1450.39 Q773.589 1450.39 776.783 1453.08 Q779.978 1455.77 779.978 1460.26 Q779.978 1462.39 779.168 1464.31 Q778.381 1466.2 776.274 1468.8 Q775.696 1469.47 772.594 1472.69 Q769.492 1475.88 763.844 1481.64 Z" fill="#000000" fill-rule="nonzero" fill-opacity="1" /><path clip-path="url(#clip330)" d="M790.024 1451.02 L808.381 1451.02 L808.381 1454.96 L794.307 1454.96 L794.307 1463.43 Q795.325 1463.08 796.344 1462.92 Q797.362 1462.73 798.381 1462.73 Q804.168 1462.73 807.547 1465.9 Q810.927 1469.08 810.927 1474.49 Q810.927 1480.07 807.455 1483.17 Q803.982 1486.25 797.663 1486.25 Q795.487 1486.25 793.219 1485.88 Q790.973 1485.51 788.566 1484.77 L788.566 1480.07 Q790.649 1481.2 792.871 1481.76 Q795.094 1482.32 797.57 1482.32 Q801.575 1482.32 803.913 1480.21 Q806.251 1478.1 806.251 1474.49 Q806.251 1470.88 803.913 1468.77 Q801.575 1466.67 797.57 1466.67 Q795.695 1466.67 793.82 1467.08 Q791.969 1467.5 790.024 1468.38 L790.024 1451.02 Z" fill="#000000" fill-rule="nonzero" fill-opacity="1" /><path clip-path="url(#clip330)" d="M1262.09 1451.02 L1280.44 1451.02 L1280.44 1454.96 L1266.37 1454.96 L1266.37 1463.43 Q1267.39 1463.08 1268.41 1462.92 Q1269.43 1462.73 1270.44 1462.73 Q1276.23 1462.73 1279.61 1465.9 Q1282.99 1469.08 1282.99 1474.49 Q1282.99 1480.07 1279.52 1483.17 Q1276.05 1486.25 1269.73 1486.25 Q1267.55 1486.25 1265.28 1485.88 Q1263.04 1485.51 1260.63 1484.77 L1260.63 1480.07 Q1262.71 1481.2 1264.94 1481.76 Q1267.16 1482.32 1269.63 1482.32 Q1273.64 1482.32 1275.98 1480.21 Q1278.31 1478.1 1278.31 1474.49 Q1278.31 1470.88 1275.98 1468.77 Q1273.64 1466.67 1269.63 1466.67 Q1267.76 1466.67 1265.88 1467.08 Q1264.03 1467.5 1262.09 1468.38 L1262.09 1451.02 Z" fill="#000000" fill-rule="nonzero" fill-opacity="1" /><path clip-path="url(#clip330)" d="M1302.2 1454.1 Q1298.59 1454.1 1296.76 1457.66 Q1294.96 1461.2 1294.96 1468.33 Q1294.96 1475.44 1296.76 1479.01 Q1298.59 1482.55 1302.2 1482.55 Q1305.84 1482.55 1307.64 1479.01 Q1309.47 1475.44 1309.47 1468.33 Q1309.47 1461.2 1307.64 1457.66 Q1305.84 1454.1 1302.2 1454.1 M1302.2 1450.39 Q1308.01 1450.39 1311.07 1455 Q1314.15 1459.58 1314.15 1468.33 Q1314.15 1477.06 1311.07 1481.67 Q1308.01 1486.25 1302.2 1486.25 Q1296.39 1486.25 1293.31 1481.67 Q1290.26 1477.06 1290.26 1468.33 Q1290.26 1459.58 1293.31 1455 Q1296.39 1450.39 1302.2 1450.39 Z" fill="#000000" fill-rule="nonzero" fill-opacity="1" /><path clip-path="url(#clip330)" d="M1764.06 1451.02 L1786.28 1451.02 L1786.28 1453.01 L1773.74 1485.58 L1768.85 1485.58 L1780.66 1454.96 L1764.06 1454.96 L1764.06 1451.02 Z" fill="#000000" fill-rule="nonzero" fill-opacity="1" /><path clip-path="url(#clip330)" d="M1795.45 1451.02 L1813.8 1451.02 L1813.8 1454.96 L1799.73 1454.96 L1799.73 1463.43 Q1800.75 1463.08 1801.77 1462.92 Q1802.79 1462.73 1803.8 1462.73 Q1809.59 1462.73 1812.97 1465.9 Q1816.35 1469.08 1816.35 1474.49 Q1816.35 1480.07 1812.88 1483.17 Q1809.41 1486.25 1803.09 1486.25 Q1800.91 1486.25 1798.64 1485.88 Q1796.4 1485.51 1793.99 1484.77 L1793.99 1480.07 Q1796.07 1481.2 1798.3 1481.76 Q1800.52 1482.32 1802.99 1482.32 Q1807 1482.32 1809.34 1480.21 Q1811.67 1478.1 1811.67 1474.49 Q1811.67 1470.88 1809.34 1468.77 Q1807 1466.67 1802.99 1466.67 Q1801.12 1466.67 1799.24 1467.08 Q1797.39 1467.5 1795.45 1468.38 L1795.45 1451.02 Z" fill="#000000" fill-rule="nonzero" fill-opacity="1" /><path clip-path="url(#clip330)" d="M2252.63 1481.64 L2260.27 1481.64 L2260.27 1455.28 L2251.96 1456.95 L2251.96 1452.69 L2260.22 1451.02 L2264.9 1451.02 L2264.9 1481.64 L2272.54 1481.64 L2272.54 1485.58 L2252.63 1485.58 L2252.63 1481.64 Z" fill="#000000" fill-rule="nonzero" fill-opacity="1" /><path clip-path="url(#clip330)" d="M2291.98 1454.1 Q2288.37 1454.1 2286.54 1457.66 Q2284.73 1461.2 2284.73 1468.33 Q2284.73 1475.44 2286.54 1479.01 Q2288.37 1482.55 2291.98 1482.55 Q2295.61 1482.55 2297.42 1479.01 Q2299.25 1475.44 2299.25 1468.33 Q2299.25 1461.2 2297.42 1457.66 Q2295.61 1454.1 2291.98 1454.1 M2291.98 1450.39 Q2297.79 1450.39 2300.85 1455 Q2303.92 1459.58 2303.92 1468.33 Q2303.92 1477.06 2300.85 1481.67 Q2297.79 1486.25 2291.98 1486.25 Q2286.17 1486.25 2283.09 1481.67 Q2280.04 1477.06 2280.04 1468.33 Q2280.04 1459.58 2283.09 1455 Q2286.17 1450.39 2291.98 1450.39 Z" fill="#000000" fill-rule="nonzero" fill-opacity="1" /><path clip-path="url(#clip330)" d="M2322.14 1454.1 Q2318.53 1454.1 2316.7 1457.66 Q2314.9 1461.2 2314.9 1468.33 Q2314.9 1475.44 2316.7 1479.01 Q2318.53 1482.55 2322.14 1482.55 Q2325.78 1482.55 2327.58 1479.01 Q2329.41 1475.44 2329.41 1468.33 Q2329.41 1461.2 2327.58 1457.66 Q2325.78 1454.1 2322.14 1454.1 M2322.14 1450.39 Q2327.95 1450.39 2331.01 1455 Q2334.09 1459.58 2334.09 1468.33 Q2334.09 1477.06 2331.01 1481.67 Q2327.95 1486.25 2322.14 1486.25 Q2316.33 1486.25 2313.25 1481.67 Q2310.2 1477.06 2310.2 1468.33 Q2310.2 1459.58 2313.25 1455 Q2316.33 1450.39 2322.14 1450.39 Z" fill="#000000" fill-rule="nonzero" fill-opacity="1" /><path clip-path="url(#clip330)" d="M1230.91 1525.81 L1230.91 1562.76 L1238.67 1562.76 Q1248.51 1562.76 1253.06 1558.3 Q1257.64 1553.85 1257.64 1544.24 Q1257.64 1534.69 1253.06 1530.26 Q1248.51 1525.81 1238.67 1525.81 L1230.91 1525.81 M1224.48 1520.52 L1237.69 1520.52 Q1251.5 1520.52 1257.96 1526.28 Q1264.42 1532.01 1264.42 1544.24 Q1264.42 1556.52 1257.93 1562.28 Q1251.44 1568.04 1237.69 1568.04 L1224.48 1568.04 L1224.48 1520.52 Z" fill="#000000" fill-rule="nonzero" fill-opacity="1" /><path clip-path="url(#clip330)" d="M1290.62 1550.12 Q1283.52 1550.12 1280.78 1551.75 Q1278.05 1553.37 1278.05 1557.29 Q1278.05 1560.4 1280.08 1562.25 Q1282.15 1564.07 1285.68 1564.07 Q1290.55 1564.07 1293.48 1560.63 Q1296.44 1557.16 1296.44 1551.43 L1296.44 1550.12 L1290.62 1550.12 M1302.3 1547.71 L1302.3 1568.04 L1296.44 1568.04 L1296.44 1562.63 Q1294.44 1565.88 1291.45 1567.44 Q1288.45 1568.97 1284.13 1568.97 Q1278.65 1568.97 1275.4 1565.91 Q1272.19 1562.82 1272.19 1557.67 Q1272.19 1551.65 1276.2 1548.6 Q1280.24 1545.54 1288.23 1545.54 L1296.44 1545.54 L1296.44 1544.97 Q1296.44 1540.93 1293.77 1538.73 Q1291.13 1536.5 1286.32 1536.5 Q1283.27 1536.5 1280.37 1537.23 Q1277.47 1537.97 1274.8 1539.43 L1274.8 1534.02 Q1278.01 1532.78 1281.04 1532.17 Q1284.06 1531.54 1286.93 1531.54 Q1294.66 1531.54 1298.48 1535.55 Q1302.3 1539.56 1302.3 1547.71 Z" fill="#000000" fill-rule="nonzero" fill-opacity="1" /><path clip-path="url(#clip330)" d="M1320.15 1522.27 L1320.15 1532.4 L1332.22 1532.4 L1332.22 1536.95 L1320.15 1536.95 L1320.15 1556.3 Q1320.15 1560.66 1321.33 1561.9 Q1322.54 1563.14 1326.2 1563.14 L1332.22 1563.14 L1332.22 1568.04 L1326.2 1568.04 Q1319.42 1568.04 1316.84 1565.53 Q1314.27 1562.98 1314.27 1556.3 L1314.27 1536.95 L1309.97 1536.95 L1309.97 1532.4 L1314.27 1532.4 L1314.27 1522.27 L1320.15 1522.27 Z" fill="#000000" fill-rule="nonzero" fill-opacity="1" /><path clip-path="url(#clip330)" d="M1370.41 1548.76 L1370.41 1551.62 L1343.49 1551.62 Q1343.87 1557.67 1347.11 1560.85 Q1350.39 1564 1356.22 1564 Q1359.59 1564 1362.74 1563.17 Q1365.92 1562.35 1369.04 1560.69 L1369.04 1566.23 Q1365.89 1567.57 1362.58 1568.27 Q1359.27 1568.97 1355.87 1568.97 Q1347.34 1568.97 1342.34 1564 Q1337.37 1559.04 1337.37 1550.57 Q1337.37 1541.82 1342.08 1536.69 Q1346.83 1531.54 1354.85 1531.54 Q1362.04 1531.54 1366.21 1536.18 Q1370.41 1540.8 1370.41 1548.76 M1364.56 1547.04 Q1364.49 1542.23 1361.85 1539.37 Q1359.24 1536.5 1354.91 1536.5 Q1350.01 1536.5 1347.05 1539.27 Q1344.12 1542.04 1343.68 1547.07 L1364.56 1547.04 Z" fill="#000000" fill-rule="nonzero" fill-opacity="1" /><polyline clip-path="url(#clip330)" style="stroke:#000000; stroke-linecap:round; stroke-linejoin:round; stroke-width:4; stroke-opacity:1; fill:none" points="242.135,1423.18 242.135,123.472 "/>
<polyline clip-path="url(#clip330)" style="stroke:#000000; stroke-linecap:round; stroke-linejoin:round; stroke-width:4; stroke-opacity:1; fill:none" points="242.135,1325.6 261.032,1325.6 "/>
<polyline clip-path="url(#clip330)" style="stroke:#000000; stroke-linecap:round; stroke-linejoin:round; stroke-width:4; stroke-opacity:1; fill:none" points="242.135,1139.05 261.032,1139.05 "/>
<polyline clip-path="url(#clip330)" style="stroke:#000000; stroke-linecap:round; stroke-linejoin:round; stroke-width:4; stroke-opacity:1; fill:none" points="242.135,952.506 261.032,952.506 "/>
<polyline clip-path="url(#clip330)" style="stroke:#000000; stroke-linecap:round; stroke-linejoin:round; stroke-width:4; stroke-opacity:1; fill:none" points="242.135,765.958 261.032,765.958 "/>
<polyline clip-path="url(#clip330)" style="stroke:#000000; stroke-linecap:round; stroke-linejoin:round; stroke-width:4; stroke-opacity:1; fill:none" points="242.135,579.41 261.032,579.41 "/>
<polyline clip-path="url(#clip330)" style="stroke:#000000; stroke-linecap:round; stroke-linejoin:round; stroke-width:4; stroke-opacity:1; fill:none" points="242.135,392.862 261.032,392.862 "/>
<polyline clip-path="url(#clip330)" style="stroke:#000000; stroke-linecap:round; stroke-linejoin:round; stroke-width:4; stroke-opacity:1; fill:none" points="242.135,206.314 261.032,206.314 "/>
<path clip-path="url(#clip330)" d="M115.256 1326.05 L144.931 1326.05 L144.931 1329.99 L115.256 1329.99 L115.256 1326.05 Z" fill="#000000" fill-rule="nonzero" fill-opacity="1" /><path clip-path="url(#clip330)" d="M155.834 1338.95 L163.473 1338.95 L163.473 1312.58 L155.163 1314.25 L155.163 1309.99 L163.427 1308.32 L168.102 1308.32 L168.102 1338.95 L175.741 1338.95 L175.741 1342.88 L155.834 1342.88 L155.834 1338.95 Z" fill="#000000" fill-rule="nonzero" fill-opacity="1" /><path clip-path="url(#clip330)" d="M185.232 1308.32 L203.588 1308.32 L203.588 1312.26 L189.514 1312.26 L189.514 1320.73 Q190.533 1320.38 191.551 1320.22 Q192.57 1320.03 193.588 1320.03 Q199.375 1320.03 202.755 1323.21 Q206.135 1326.38 206.135 1331.79 Q206.135 1337.37 202.662 1340.47 Q199.19 1343.55 192.871 1343.55 Q190.695 1343.55 188.426 1343.18 Q186.181 1342.81 183.774 1342.07 L183.774 1337.37 Q185.857 1338.51 188.079 1339.06 Q190.301 1339.62 192.778 1339.62 Q196.783 1339.62 199.121 1337.51 Q201.459 1335.4 201.459 1331.79 Q201.459 1328.18 199.121 1326.08 Q196.783 1323.97 192.778 1323.97 Q190.903 1323.97 189.028 1324.39 Q187.176 1324.8 185.232 1325.68 L185.232 1308.32 Z" fill="#000000" fill-rule="nonzero" fill-opacity="1" /><path clip-path="url(#clip330)" d="M114.26 1139.5 L143.936 1139.5 L143.936 1143.44 L114.26 1143.44 L114.26 1139.5 Z" fill="#000000" fill-rule="nonzero" fill-opacity="1" /><path clip-path="url(#clip330)" d="M154.839 1152.4 L162.477 1152.4 L162.477 1126.03 L154.167 1127.7 L154.167 1123.44 L162.431 1121.77 L167.107 1121.77 L167.107 1152.4 L174.746 1152.4 L174.746 1156.33 L154.839 1156.33 L154.839 1152.4 Z" fill="#000000" fill-rule="nonzero" fill-opacity="1" /><path clip-path="url(#clip330)" d="M194.19 1124.85 Q190.579 1124.85 188.75 1128.42 Q186.945 1131.96 186.945 1139.09 Q186.945 1146.19 188.75 1149.76 Q190.579 1153.3 194.19 1153.3 Q197.825 1153.3 199.63 1149.76 Q201.459 1146.19 201.459 1139.09 Q201.459 1131.96 199.63 1128.42 Q197.825 1124.85 194.19 1124.85 M194.19 1121.15 Q200 1121.15 203.056 1125.75 Q206.135 1130.34 206.135 1139.09 Q206.135 1147.82 203.056 1152.42 Q200 1157 194.19 1157 Q188.38 1157 185.301 1152.42 Q182.246 1147.82 182.246 1139.09 Q182.246 1130.34 185.301 1125.75 Q188.38 1121.15 194.19 1121.15 Z" fill="#000000" fill-rule="nonzero" fill-opacity="1" /><path clip-path="url(#clip330)" d="M145.417 952.957 L175.093 952.957 L175.093 956.892 L145.417 956.892 L145.417 952.957 Z" fill="#000000" fill-rule="nonzero" fill-opacity="1" /><path clip-path="url(#clip330)" d="M185.232 935.226 L203.588 935.226 L203.588 939.161 L189.514 939.161 L189.514 947.633 Q190.533 947.286 191.551 947.124 Q192.57 946.938 193.588 946.938 Q199.375 946.938 202.755 950.11 Q206.135 953.281 206.135 958.698 Q206.135 964.276 202.662 967.378 Q199.19 970.457 192.871 970.457 Q190.695 970.457 188.426 970.087 Q186.181 969.716 183.774 968.975 L183.774 964.276 Q185.857 965.411 188.079 965.966 Q190.301 966.522 192.778 966.522 Q196.783 966.522 199.121 964.415 Q201.459 962.309 201.459 958.698 Q201.459 955.087 199.121 952.98 Q196.783 950.874 192.778 950.874 Q190.903 950.874 189.028 951.29 Q187.176 951.707 185.232 952.587 L185.232 935.226 Z" fill="#000000" fill-rule="nonzero" fill-opacity="1" /><path clip-path="url(#clip330)" d="M194.19 751.756 Q190.579 751.756 188.75 755.321 Q186.945 758.863 186.945 765.992 Q186.945 773.099 188.75 776.664 Q190.579 780.205 194.19 780.205 Q197.825 780.205 199.63 776.664 Q201.459 773.099 201.459 765.992 Q201.459 758.863 199.63 755.321 Q197.825 751.756 194.19 751.756 M194.19 748.053 Q200 748.053 203.056 752.659 Q206.135 757.242 206.135 765.992 Q206.135 774.719 203.056 779.326 Q200 783.909 194.19 783.909 Q188.38 783.909 185.301 779.326 Q182.246 774.719 182.246 765.992 Q182.246 757.242 185.301 752.659 Q188.38 748.053 194.19 748.053 Z" fill="#000000" fill-rule="nonzero" fill-opacity="1" /><path clip-path="url(#clip330)" d="M185.232 562.13 L203.588 562.13 L203.588 566.065 L189.514 566.065 L189.514 574.537 Q190.533 574.19 191.551 574.028 Q192.57 573.843 193.588 573.843 Q199.375 573.843 202.755 577.014 Q206.135 580.185 206.135 585.602 Q206.135 591.181 202.662 594.282 Q199.19 597.361 192.871 597.361 Q190.695 597.361 188.426 596.991 Q186.181 596.62 183.774 595.88 L183.774 591.181 Q185.857 592.315 188.079 592.87 Q190.301 593.426 192.778 593.426 Q196.783 593.426 199.121 591.319 Q201.459 589.213 201.459 585.602 Q201.459 581.991 199.121 579.884 Q196.783 577.778 192.778 577.778 Q190.903 577.778 189.028 578.195 Q187.176 578.611 185.232 579.491 L185.232 562.13 Z" fill="#000000" fill-rule="nonzero" fill-opacity="1" /><path clip-path="url(#clip330)" d="M154.839 406.207 L162.477 406.207 L162.477 379.841 L154.167 381.508 L154.167 377.249 L162.431 375.582 L167.107 375.582 L167.107 406.207 L174.746 406.207 L174.746 410.142 L154.839 410.142 L154.839 406.207 Z" fill="#000000" fill-rule="nonzero" fill-opacity="1" /><path clip-path="url(#clip330)" d="M194.19 378.661 Q190.579 378.661 188.75 382.225 Q186.945 385.767 186.945 392.897 Q186.945 400.003 188.75 403.568 Q190.579 407.109 194.19 407.109 Q197.825 407.109 199.63 403.568 Q201.459 400.003 201.459 392.897 Q201.459 385.767 199.63 382.225 Q197.825 378.661 194.19 378.661 M194.19 374.957 Q200 374.957 203.056 379.563 Q206.135 384.147 206.135 392.897 Q206.135 401.623 203.056 406.23 Q200 410.813 194.19 410.813 Q188.38 410.813 185.301 406.23 Q182.246 401.623 182.246 392.897 Q182.246 384.147 185.301 379.563 Q188.38 374.957 194.19 374.957 Z" fill="#000000" fill-rule="nonzero" fill-opacity="1" /><path clip-path="url(#clip330)" d="M155.834 219.659 L163.473 219.659 L163.473 193.293 L155.163 194.96 L155.163 190.701 L163.427 189.034 L168.102 189.034 L168.102 219.659 L175.741 219.659 L175.741 223.594 L155.834 223.594 L155.834 219.659 Z" fill="#000000" fill-rule="nonzero" fill-opacity="1" /><path clip-path="url(#clip330)" d="M185.232 189.034 L203.588 189.034 L203.588 192.969 L189.514 192.969 L189.514 201.441 Q190.533 201.094 191.551 200.932 Q192.57 200.747 193.588 200.747 Q199.375 200.747 202.755 203.918 Q206.135 207.089 206.135 212.506 Q206.135 218.085 202.662 221.187 Q199.19 224.265 192.871 224.265 Q190.695 224.265 188.426 223.895 Q186.181 223.525 183.774 222.784 L183.774 218.085 Q185.857 219.219 188.079 219.775 Q190.301 220.33 192.778 220.33 Q196.783 220.33 199.121 218.224 Q201.459 216.117 201.459 212.506 Q201.459 208.895 199.121 206.789 Q196.783 204.682 192.778 204.682 Q190.903 204.682 189.028 205.099 Q187.176 205.515 185.232 206.395 L185.232 189.034 Z" fill="#000000" fill-rule="nonzero" fill-opacity="1" /><path clip-path="url(#clip330)" d="M21.7677 1179.81 L39.6235 1179.81 L39.6235 1171.72 Q39.6235 1167.24 37.3 1164.79 Q34.9765 1162.33 30.6797 1162.33 Q26.4147 1162.33 24.0912 1164.79 Q21.7677 1167.24 21.7677 1171.72 L21.7677 1179.81 M16.4842 1186.24 L16.4842 1171.72 Q16.4842 1163.73 20.1126 1159.66 Q23.7092 1155.55 30.6797 1155.55 Q37.7138 1155.55 41.3104 1159.66 Q44.907 1163.73 44.907 1171.72 L44.907 1179.81 L64.0042 1179.81 L64.0042 1186.24 L16.4842 1186.24 Z" fill="#000000" fill-rule="nonzero" fill-opacity="1" /><path clip-path="url(#clip330)" d="M33.8307 1127.67 Q33.2578 1128.66 33.0032 1129.84 Q32.7167 1130.98 32.7167 1132.38 Q32.7167 1137.35 35.9632 1140.02 Q39.1779 1142.66 45.2253 1142.66 L64.0042 1142.66 L64.0042 1148.55 L28.3562 1148.55 L28.3562 1142.66 L33.8944 1142.66 Q30.6479 1140.82 29.0883 1137.86 Q27.4968 1134.9 27.4968 1130.66 Q27.4968 1130.06 27.5923 1129.33 Q27.656 1128.6 27.8151 1127.7 L33.8307 1127.67 Z" fill="#000000" fill-rule="nonzero" fill-opacity="1" /><path clip-path="url(#clip330)" d="M32.4621 1109.15 Q32.4621 1113.86 36.1542 1116.6 Q39.8145 1119.33 46.212 1119.33 Q52.6095 1119.33 56.3017 1116.63 Q59.9619 1113.89 59.9619 1109.15 Q59.9619 1104.47 56.2698 1101.73 Q52.5777 1099 46.212 1099 Q39.8781 1099 36.186 1101.73 Q32.4621 1104.47 32.4621 1109.15 M27.4968 1109.15 Q27.4968 1101.51 32.4621 1097.15 Q37.4273 1092.79 46.212 1092.79 Q54.9649 1092.79 59.9619 1097.15 Q64.9272 1101.51 64.9272 1109.15 Q64.9272 1116.82 59.9619 1121.18 Q54.9649 1125.51 46.212 1125.51 Q37.4273 1125.51 32.4621 1121.18 Q27.4968 1116.82 27.4968 1109.15 Z" fill="#000000" fill-rule="nonzero" fill-opacity="1" /><path clip-path="url(#clip330)" d="M14.479 1065.03 L19.3487 1065.03 L19.3487 1070.64 Q19.3487 1073.79 20.6219 1075.03 Q21.895 1076.24 25.2052 1076.24 L28.3562 1076.24 L28.3562 1066.59 L32.9077 1066.59 L32.9077 1076.24 L64.0042 1076.24 L64.0042 1082.13 L32.9077 1082.13 L32.9077 1087.73 L28.3562 1087.73 L28.3562 1082.13 L25.8736 1082.13 Q19.9216 1082.13 17.2162 1079.36 Q14.479 1076.59 14.479 1070.57 L14.479 1065.03 Z" fill="#000000" fill-rule="nonzero" fill-opacity="1" /><path clip-path="url(#clip330)" d="M28.3562 1060.13 L28.3562 1054.28 L64.0042 1054.28 L64.0042 1060.13 L28.3562 1060.13 M14.479 1060.13 L14.479 1054.28 L21.895 1054.28 L21.895 1060.13 L14.479 1060.13 Z" fill="#000000" fill-rule="nonzero" fill-opacity="1" /><path clip-path="url(#clip330)" d="M18.2347 1036.23 L28.3562 1036.23 L28.3562 1024.17 L32.9077 1024.17 L32.9077 1036.23 L52.2594 1036.23 Q56.6199 1036.23 57.8613 1035.05 Q59.1026 1033.84 59.1026 1030.18 L59.1026 1024.17 L64.0042 1024.17 L64.0042 1030.18 Q64.0042 1036.96 61.4897 1039.54 Q58.9434 1042.12 52.2594 1042.12 L32.9077 1042.12 L32.9077 1046.41 L28.3562 1046.41 L28.3562 1042.12 L18.2347 1042.12 L18.2347 1036.23 Z" fill="#000000" fill-rule="nonzero" fill-opacity="1" /><path clip-path="url(#clip330)" d="M58.5933 993.802 L58.5933 983.299 L22.3406 983.299 L24.6323 994.725 L18.7758 994.725 L16.4842 983.362 L16.4842 976.933 L58.5933 976.933 L58.5933 966.43 L64.0042 966.43 L64.0042 993.802 L58.5933 993.802 Z" fill="#000000" fill-rule="nonzero" fill-opacity="1" /><path clip-path="url(#clip330)" d="M29.4065 931.546 L34.9447 931.546 Q33.6716 934.028 33.035 936.702 Q32.3984 939.375 32.3984 942.24 Q32.3984 946.601 33.7352 948.797 Q35.072 950.961 37.7456 950.961 Q39.7826 950.961 40.9603 949.401 Q42.1061 947.842 43.1565 943.131 L43.6021 941.126 Q44.9389 934.888 47.3897 932.278 Q49.8086 929.636 54.1691 929.636 Q59.1344 929.636 62.0308 933.583 Q64.9272 937.498 64.9272 944.373 Q64.9272 947.237 64.3543 950.356 Q63.8132 953.444 62.6992 956.881 L56.6518 956.881 Q58.3387 953.635 59.198 950.484 Q60.0256 947.333 60.0256 944.245 Q60.0256 940.107 58.6251 937.88 Q57.1929 935.652 54.6147 935.652 Q52.2276 935.652 50.9545 937.275 Q49.6813 938.866 48.5037 944.309 L48.0262 946.346 Q46.8804 951.789 44.5251 954.208 Q42.138 956.627 38.0002 956.627 Q32.9713 956.627 30.2341 953.062 Q27.4968 949.497 27.4968 942.94 Q27.4968 939.694 27.9743 936.829 Q28.4517 933.965 29.4065 931.546 Z" fill="#000000" fill-rule="nonzero" fill-opacity="1" /><path clip-path="url(#clip330)" d="M18.2347 914.517 L28.3562 914.517 L28.3562 902.454 L32.9077 902.454 L32.9077 914.517 L52.2594 914.517 Q56.6199 914.517 57.8613 913.34 Q59.1026 912.13 59.1026 908.47 L59.1026 902.454 L64.0042 902.454 L64.0042 908.47 Q64.0042 915.249 61.4897 917.828 Q58.9434 920.406 52.2594 920.406 L32.9077 920.406 L32.9077 924.702 L28.3562 924.702 L28.3562 920.406 L18.2347 920.406 L18.2347 914.517 Z" fill="#000000" fill-rule="nonzero" fill-opacity="1" /><path clip-path="url(#clip330)" d="M33.7671 850.574 L14.479 850.574 L14.479 844.717 L64.0042 844.717 L64.0042 850.574 L58.657 850.574 Q61.8398 852.42 63.3994 855.253 Q64.9272 858.054 64.9272 862 Q64.9272 868.461 59.771 872.536 Q54.6147 876.578 46.212 876.578 Q37.8093 876.578 32.6531 872.536 Q27.4968 868.461 27.4968 862 Q27.4968 858.054 29.0564 855.253 Q30.5842 852.42 33.7671 850.574 M46.212 870.53 Q52.6732 870.53 56.3653 867.889 Q60.0256 865.215 60.0256 860.568 Q60.0256 855.921 56.3653 853.247 Q52.6732 850.574 46.212 850.574 Q39.7508 850.574 36.0905 853.247 Q32.3984 855.921 32.3984 860.568 Q32.3984 865.215 36.0905 867.889 Q39.7508 870.53 46.212 870.53 Z" fill="#000000" fill-rule="nonzero" fill-opacity="1" /><path clip-path="url(#clip330)" d="M44.7161 802.163 L47.5806 802.163 L47.5806 829.09 Q53.6281 828.708 56.8109 825.461 Q59.9619 822.183 59.9619 816.358 Q59.9619 812.984 59.1344 809.833 Q58.3069 806.65 56.6518 803.531 L62.1899 803.531 Q63.5267 806.682 64.227 809.992 Q64.9272 813.303 64.9272 816.708 Q64.9272 825.238 59.9619 830.235 Q54.9967 835.201 46.5303 835.201 Q37.7774 835.201 32.6531 830.49 Q27.4968 825.748 27.4968 817.727 Q27.4968 810.534 32.1438 806.364 Q36.7589 802.163 44.7161 802.163 M42.9973 808.019 Q38.1912 808.083 35.3266 810.725 Q32.4621 813.334 32.4621 817.663 Q32.4621 822.565 35.2312 825.525 Q38.0002 828.453 43.0292 828.899 L42.9973 808.019 Z" fill="#000000" fill-rule="nonzero" fill-opacity="1" /><path clip-path="url(#clip330)" d="M33.8307 771.894 Q33.2578 772.88 33.0032 774.058 Q32.7167 775.204 32.7167 776.604 Q32.7167 781.57 35.9632 784.243 Q39.1779 786.885 45.2253 786.885 L64.0042 786.885 L64.0042 792.773 L28.3562 792.773 L28.3562 786.885 L33.8944 786.885 Q30.6479 785.039 29.0883 782.079 Q27.4968 779.119 27.4968 774.886 Q27.4968 774.281 27.5923 773.549 Q27.656 772.817 27.8151 771.926 L33.8307 771.894 Z" fill="#000000" fill-rule="nonzero" fill-opacity="1" /><path clip-path="url(#clip330)" d="M28.3562 765.751 L28.3562 759.894 L64.0042 759.894 L64.0042 765.751 L28.3562 765.751 M14.479 765.751 L14.479 759.894 L21.895 759.894 L21.895 765.751 L14.479 765.751 Z" fill="#000000" fill-rule="nonzero" fill-opacity="1" /><path clip-path="url(#clip330)" d="M28.3562 751.842 L28.3562 745.635 L58.275 734.495 L28.3562 723.355 L28.3562 717.149 L64.0042 730.517 L64.0042 738.474 L28.3562 751.842 Z" fill="#000000" fill-rule="nonzero" fill-opacity="1" /><path clip-path="url(#clip330)" d="M14.479 688.344 L14.479 682.487 L64.0042 682.487 L64.0042 688.344 L14.479 688.344 Z" fill="#000000" fill-rule="nonzero" fill-opacity="1" /><path clip-path="url(#clip330)" d="M46.0847 654.033 Q46.0847 661.13 47.7079 663.868 Q49.3312 666.605 53.2461 666.605 Q56.3653 666.605 58.2114 664.568 Q60.0256 662.499 60.0256 658.966 Q60.0256 654.096 56.5881 651.168 Q53.1188 648.208 47.3897 648.208 L46.0847 648.208 L46.0847 654.033 M43.6657 642.352 L64.0042 642.352 L64.0042 648.208 L58.5933 648.208 Q61.8398 650.213 63.3994 653.205 Q64.9272 656.197 64.9272 660.526 Q64.9272 666 61.8716 669.247 Q58.7843 672.461 53.6281 672.461 Q47.6125 672.461 44.5569 668.451 Q41.5014 664.409 41.5014 656.42 L41.5014 648.208 L40.9285 648.208 Q36.8862 648.208 34.6901 650.882 Q32.4621 653.523 32.4621 658.329 Q32.4621 661.385 33.1941 664.281 Q33.9262 667.178 35.3903 669.851 L29.9795 669.851 Q28.7381 666.637 28.1334 663.613 Q27.4968 660.589 27.4968 657.725 Q27.4968 649.99 31.5072 646.171 Q35.5176 642.352 43.6657 642.352 Z" fill="#000000" fill-rule="nonzero" fill-opacity="1" /><path clip-path="url(#clip330)" d="M29.4065 607.563 L34.9447 607.563 Q33.6716 610.046 33.035 612.719 Q32.3984 615.393 32.3984 618.257 Q32.3984 622.618 33.7352 624.814 Q35.072 626.978 37.7456 626.978 Q39.7826 626.978 40.9603 625.419 Q42.1061 623.859 43.1565 619.149 L43.6021 617.143 Q44.9389 610.905 47.3897 608.295 Q49.8086 605.653 54.1691 605.653 Q59.1344 605.653 62.0308 609.6 Q64.9272 613.515 64.9272 620.39 Q64.9272 623.254 64.3543 626.374 Q63.8132 629.461 62.6992 632.898 L56.6518 632.898 Q58.3387 629.652 59.198 626.501 Q60.0256 623.35 60.0256 620.263 Q60.0256 616.125 58.6251 613.897 Q57.1929 611.669 54.6147 611.669 Q52.2276 611.669 50.9545 613.292 Q49.6813 614.884 48.5037 620.326 L48.0262 622.363 Q46.8804 627.806 44.5251 630.225 Q42.138 632.644 38.0002 632.644 Q32.9713 632.644 30.2341 629.079 Q27.4968 625.514 27.4968 618.958 Q27.4968 615.711 27.9743 612.847 Q28.4517 609.982 29.4065 607.563 Z" fill="#000000" fill-rule="nonzero" fill-opacity="1" /><path clip-path="url(#clip330)" d="M18.2347 590.535 L28.3562 590.535 L28.3562 578.472 L32.9077 578.472 L32.9077 590.535 L52.2594 590.535 Q56.6199 590.535 57.8613 589.357 Q59.1026 588.148 59.1026 584.487 L59.1026 578.472 L64.0042 578.472 L64.0042 584.487 Q64.0042 591.267 61.4897 593.845 Q58.9434 596.423 52.2594 596.423 L32.9077 596.423 L32.9077 600.72 L28.3562 600.72 L28.3562 596.423 L18.2347 596.423 L18.2347 590.535 Z" fill="#000000" fill-rule="nonzero" fill-opacity="1" /><path clip-path="url(#clip330)" d="M58.5933 548.107 L58.5933 537.604 L22.3406 537.604 L24.6323 549.03 L18.7758 549.03 L16.4842 537.668 L16.4842 531.238 L58.5933 531.238 L58.5933 520.735 L64.0042 520.735 L64.0042 548.107 L58.5933 548.107 Z" fill="#000000" fill-rule="nonzero" fill-opacity="1" /><path clip-path="url(#clip330)" d="M46.0847 471.655 Q46.0847 478.753 47.7079 481.49 Q49.3312 484.227 53.2461 484.227 Q56.3653 484.227 58.2114 482.19 Q60.0256 480.122 60.0256 476.589 Q60.0256 471.719 56.5881 468.791 Q53.1188 465.831 47.3897 465.831 L46.0847 465.831 L46.0847 471.655 M43.6657 459.974 L64.0042 459.974 L64.0042 465.831 L58.5933 465.831 Q61.8398 467.836 63.3994 470.828 Q64.9272 473.819 64.9272 478.148 Q64.9272 483.623 61.8716 486.869 Q58.7843 490.084 53.6281 490.084 Q47.6125 490.084 44.5569 486.073 Q41.5014 482.031 41.5014 474.042 L41.5014 465.831 L40.9285 465.831 Q36.8862 465.831 34.6901 468.504 Q32.4621 471.146 32.4621 475.952 Q32.4621 479.008 33.1941 481.904 Q33.9262 484.8 35.3903 487.474 L29.9795 487.474 Q28.7381 484.259 28.1334 481.236 Q27.4968 478.212 27.4968 475.347 Q27.4968 467.613 31.5072 463.793 Q35.5176 459.974 43.6657 459.974 Z" fill="#000000" fill-rule="nonzero" fill-opacity="1" /><path clip-path="url(#clip330)" d="M28.3562 452.112 L28.3562 445.906 L58.275 434.766 L28.3562 423.626 L28.3562 417.419 L64.0042 430.787 L64.0042 438.744 L28.3562 452.112 Z" fill="#000000" fill-rule="nonzero" fill-opacity="1" /><path clip-path="url(#clip330)" d="M45.7664 385.877 Q39.4007 385.877 35.8996 388.519 Q32.3984 391.129 32.3984 395.871 Q32.3984 400.582 35.8996 403.224 Q39.4007 405.834 45.7664 405.834 Q52.1003 405.834 55.6014 403.224 Q59.1026 400.582 59.1026 395.871 Q59.1026 391.129 55.6014 388.519 Q52.1003 385.877 45.7664 385.877 M59.58 380.021 Q68.683 380.021 73.1071 384.063 Q77.5631 388.105 77.5631 396.444 Q77.5631 399.532 77.0857 402.269 Q76.6401 405.006 75.6852 407.584 L69.9879 407.584 Q71.3884 405.006 72.0568 402.492 Q72.7252 399.977 72.7252 397.367 Q72.7252 391.606 69.7015 388.742 Q66.7096 385.877 60.6303 385.877 L57.7339 385.877 Q60.885 387.691 62.4446 390.524 Q64.0042 393.357 64.0042 397.304 Q64.0042 403.86 59.0071 407.871 Q54.01 411.881 45.7664 411.881 Q37.491 411.881 32.4939 407.871 Q27.4968 403.86 27.4968 397.304 Q27.4968 393.357 29.0564 390.524 Q30.616 387.691 33.7671 385.877 L28.3562 385.877 L28.3562 380.021 L59.58 380.021 Z" fill="#000000" fill-rule="nonzero" fill-opacity="1" /><path clip-path="url(#clip330)" d="M55.9197 367.13 L55.9197 360.414 L64.0042 360.414 L64.0042 367.13 L55.9197 367.13 Z" fill="#000000" fill-rule="nonzero" fill-opacity="1" /><path clip-path="url(#clip330)" d="M267.462 65.6895 L280.83 65.6895 L280.83 19.5497 L266.288 22.4663 L266.288 15.0127 L280.749 12.096 L288.932 12.096 L288.932 65.6895 L302.3 65.6895 L302.3 72.576 L267.462 72.576 L267.462 65.6895 Z" fill="#000000" fill-rule="nonzero" fill-opacity="1" /><path clip-path="url(#clip330)" d="M346.698 28.5427 L346.698 35.5912 Q343.538 33.9709 340.136 33.1607 Q336.733 32.3505 333.087 32.3505 Q327.537 32.3505 324.742 34.0519 Q321.988 35.7533 321.988 39.156 Q321.988 41.7486 323.972 43.2475 Q325.957 44.7058 331.953 46.0426 L334.505 46.6097 Q342.445 48.3111 345.766 51.4303 Q349.129 54.509 349.129 60.0587 Q349.129 66.3781 344.105 70.0644 Q339.123 73.7508 330.373 73.7508 Q326.727 73.7508 322.757 73.0216 Q318.828 72.3329 314.453 70.9151 L314.453 63.2184 Q318.585 65.3654 322.595 66.4591 Q326.606 67.5124 330.535 67.5124 Q335.801 67.5124 338.637 65.73 Q341.472 63.9071 341.472 60.6258 Q341.472 57.5877 339.406 55.9673 Q337.381 54.3469 330.454 52.8481 L327.861 52.2405 Q320.934 50.7821 317.856 47.7845 Q314.777 44.7463 314.777 39.4801 Q314.777 33.0797 319.314 29.5959 Q323.851 26.1121 332.196 26.1121 Q336.328 26.1121 339.974 26.7198 Q343.619 27.3274 346.698 28.5427 Z" fill="#000000" fill-rule="nonzero" fill-opacity="1" /><path clip-path="url(#clip330)" d="M368.37 14.324 L368.37 27.2059 L383.723 27.2059 L383.723 32.9987 L368.37 32.9987 L368.37 57.6282 Q368.37 63.1779 369.869 64.7578 Q371.409 66.3376 376.067 66.3376 L383.723 66.3376 L383.723 72.576 L376.067 72.576 Q367.439 72.576 364.157 69.3758 Q360.876 66.1351 360.876 57.6282 L360.876 32.9987 L355.408 32.9987 L355.408 27.2059 L360.876 27.2059 L360.876 14.324 L368.37 14.324 Z" fill="#000000" fill-rule="nonzero" fill-opacity="1" /><path clip-path="url(#clip330)" d="M449.753 34.0924 L449.753 9.54393 L457.207 9.54393 L457.207 72.576 L449.753 72.576 L449.753 65.7705 Q447.404 69.8214 443.798 71.8063 Q440.233 73.7508 435.21 73.7508 Q426.987 73.7508 421.802 67.1883 Q416.657 60.6258 416.657 49.9314 Q416.657 39.2371 421.802 32.6746 Q426.987 26.1121 435.21 26.1121 Q440.233 26.1121 443.798 28.0971 Q447.404 30.0415 449.753 34.0924 M424.354 49.9314 Q424.354 58.1548 427.716 62.8538 Q431.119 67.5124 437.033 67.5124 Q442.948 67.5124 446.35 62.8538 Q449.753 58.1548 449.753 49.9314 Q449.753 41.7081 446.35 37.0496 Q442.948 32.3505 437.033 32.3505 Q431.119 32.3505 427.716 37.0496 Q424.354 41.7081 424.354 49.9314 Z" fill="#000000" fill-rule="nonzero" fill-opacity="1" /><path clip-path="url(#clip330)" d="M511.367 48.0275 L511.367 51.6733 L477.097 51.6733 Q477.583 59.3701 481.715 63.421 Q485.887 67.4314 493.3 67.4314 Q497.594 67.4314 501.605 66.3781 Q505.656 65.3249 509.625 63.2184 L509.625 70.267 Q505.615 71.9684 501.402 72.8596 Q497.189 73.7508 492.855 73.7508 Q481.998 73.7508 475.638 67.4314 Q469.319 61.1119 469.319 50.3365 Q469.319 39.1965 475.314 32.6746 Q481.35 26.1121 491.558 26.1121 Q500.713 26.1121 506.02 32.0264 Q511.367 37.9003 511.367 48.0275 M503.914 45.84 Q503.833 39.7232 500.47 36.0774 Q497.149 32.4315 491.639 32.4315 Q485.401 32.4315 481.634 35.9558 Q477.907 39.4801 477.34 45.8805 L503.914 45.84 Z" fill="#000000" fill-rule="nonzero" fill-opacity="1" /><path clip-path="url(#clip330)" d="M549.891 34.1734 Q548.636 33.4443 547.137 33.1202 Q545.678 32.7556 543.896 32.7556 Q537.577 32.7556 534.174 36.8875 Q530.812 40.9789 530.812 48.6757 L530.812 72.576 L523.317 72.576 L523.317 27.2059 L530.812 27.2059 L530.812 34.2544 Q533.161 30.1225 536.929 28.1376 Q540.696 26.1121 546.084 26.1121 Q546.853 26.1121 547.785 26.2337 Q548.717 26.3147 549.851 26.5172 L549.891 34.1734 Z" fill="#000000" fill-rule="nonzero" fill-opacity="1" /><path clip-path="url(#clip330)" d="M557.71 27.2059 L565.163 27.2059 L565.163 72.576 L557.71 72.576 L557.71 27.2059 M557.71 9.54393 L565.163 9.54393 L565.163 18.9825 L557.71 18.9825 L557.71 9.54393 Z" fill="#000000" fill-rule="nonzero" fill-opacity="1" /><path clip-path="url(#clip330)" d="M575.412 27.2059 L583.311 27.2059 L597.49 65.2844 L611.668 27.2059 L619.567 27.2059 L602.553 72.576 L592.426 72.576 L575.412 27.2059 Z" fill="#000000" fill-rule="nonzero" fill-opacity="1" /><path clip-path="url(#clip330)" d="M650.475 49.7694 Q641.442 49.7694 637.958 51.8354 Q634.474 53.9013 634.474 58.8839 Q634.474 62.8538 637.067 65.2034 Q639.7 67.5124 644.196 67.5124 Q650.394 67.5124 654.121 63.1374 Q657.889 58.7219 657.889 51.4303 L657.889 49.7694 L650.475 49.7694 M665.342 46.6907 L665.342 72.576 L657.889 72.576 L657.889 65.6895 Q655.336 69.8214 651.529 71.8063 Q647.721 73.7508 642.212 73.7508 Q635.244 73.7508 631.112 69.8619 Q627.021 65.9325 627.021 59.3701 Q627.021 51.7138 632.125 47.825 Q637.269 43.9361 647.437 43.9361 L657.889 43.9361 L657.889 43.2069 Q657.889 38.0623 654.486 35.2672 Q651.124 32.4315 645.007 32.4315 Q641.118 32.4315 637.431 33.3632 Q633.745 34.295 630.342 36.1584 L630.342 29.2718 Q634.434 27.692 638.282 26.9223 Q642.131 26.1121 645.776 26.1121 Q655.62 26.1121 660.481 31.2163 Q665.342 36.3204 665.342 46.6907 Z" fill="#000000" fill-rule="nonzero" fill-opacity="1" /><path clip-path="url(#clip330)" d="M688.068 14.324 L688.068 27.2059 L703.421 27.2059 L703.421 32.9987 L688.068 32.9987 L688.068 57.6282 Q688.068 63.1779 689.567 64.7578 Q691.106 66.3376 695.764 66.3376 L703.421 66.3376 L703.421 72.576 L695.764 72.576 Q687.136 72.576 683.855 69.3758 Q680.574 66.1351 680.574 57.6282 L680.574 32.9987 L675.105 32.9987 L675.105 27.2059 L680.574 27.2059 L680.574 14.324 L688.068 14.324 Z" fill="#000000" fill-rule="nonzero" fill-opacity="1" /><path clip-path="url(#clip330)" d="M713.224 27.2059 L720.678 27.2059 L720.678 72.576 L713.224 72.576 L713.224 27.2059 M713.224 9.54393 L720.678 9.54393 L720.678 18.9825 L713.224 18.9825 L713.224 9.54393 Z" fill="#000000" fill-rule="nonzero" fill-opacity="1" /><path clip-path="url(#clip330)" d="M730.926 27.2059 L738.826 27.2059 L753.004 65.2844 L767.182 27.2059 L775.081 27.2059 L758.067 72.576 L747.94 72.576 L730.926 27.2059 Z" fill="#000000" fill-rule="nonzero" fill-opacity="1" /><path clip-path="url(#clip330)" d="M824.178 48.0275 L824.178 51.6733 L789.907 51.6733 Q790.394 59.3701 794.526 63.421 Q798.698 67.4314 806.111 67.4314 Q810.405 67.4314 814.415 66.3781 Q818.466 65.3249 822.436 63.2184 L822.436 70.267 Q818.426 71.9684 814.213 72.8596 Q810 73.7508 805.666 73.7508 Q794.809 73.7508 788.449 67.4314 Q782.13 61.1119 782.13 50.3365 Q782.13 39.1965 788.125 32.6746 Q794.161 26.1121 804.369 26.1121 Q813.524 26.1121 818.831 32.0264 Q824.178 37.9003 824.178 48.0275 M816.724 45.84 Q816.643 39.7232 813.281 36.0774 Q809.959 32.4315 804.45 32.4315 Q798.212 32.4315 794.445 35.9558 Q790.718 39.4801 790.151 45.8805 L816.724 45.84 Z" fill="#000000" fill-rule="nonzero" fill-opacity="1" /><path clip-path="url(#clip330)" d="M883.402 49.7694 Q874.369 49.7694 870.885 51.8354 Q867.401 53.9013 867.401 58.8839 Q867.401 62.8538 869.994 65.2034 Q872.627 67.5124 877.123 67.5124 Q883.321 67.5124 887.048 63.1374 Q890.816 58.7219 890.816 51.4303 L890.816 49.7694 L883.402 49.7694 M898.269 46.6907 L898.269 72.576 L890.816 72.576 L890.816 65.6895 Q888.263 69.8214 884.456 71.8063 Q880.648 73.7508 875.139 73.7508 Q868.171 73.7508 864.039 69.8619 Q859.948 65.9325 859.948 59.3701 Q859.948 51.7138 865.052 47.825 Q870.196 43.9361 880.364 43.9361 L890.816 43.9361 L890.816 43.2069 Q890.816 38.0623 887.413 35.2672 Q884.051 32.4315 877.934 32.4315 Q874.045 32.4315 870.358 33.3632 Q866.672 34.295 863.269 36.1584 L863.269 29.2718 Q867.361 27.692 871.209 26.9223 Q875.058 26.1121 878.703 26.1121 Q888.547 26.1121 893.408 31.2163 Q898.269 36.3204 898.269 46.6907 Z" fill="#000000" fill-rule="nonzero" fill-opacity="1" /><path clip-path="url(#clip330)" d="M908.275 27.2059 L916.174 27.2059 L930.352 65.2844 L944.531 27.2059 L952.43 27.2059 L935.416 72.576 L925.289 72.576 L908.275 27.2059 Z" fill="#000000" fill-rule="nonzero" fill-opacity="1" /><path clip-path="url(#clip330)" d="M1001.53 48.0275 L1001.53 51.6733 L967.256 51.6733 Q967.742 59.3701 971.874 63.421 Q976.047 67.4314 983.46 67.4314 Q987.754 67.4314 991.764 66.3781 Q995.815 65.3249 999.785 63.2184 L999.785 70.267 Q995.774 71.9684 991.562 72.8596 Q987.349 73.7508 983.014 73.7508 Q972.158 73.7508 965.798 67.4314 Q959.478 61.1119 959.478 50.3365 Q959.478 39.1965 965.474 32.6746 Q971.51 26.1121 981.718 26.1121 Q990.873 26.1121 996.18 32.0264 Q1001.53 37.9003 1001.53 48.0275 M994.073 45.84 Q993.992 39.7232 990.63 36.0774 Q987.308 32.4315 981.799 32.4315 Q975.56 32.4315 971.793 35.9558 Q968.066 39.4801 967.499 45.8805 L994.073 45.84 Z" fill="#000000" fill-rule="nonzero" fill-opacity="1" /><path clip-path="url(#clip330)" d="M1040.05 34.1734 Q1038.8 33.4443 1037.3 33.1202 Q1035.84 32.7556 1034.06 32.7556 Q1027.74 32.7556 1024.33 36.8875 Q1020.97 40.9789 1020.97 48.6757 L1020.97 72.576 L1013.48 72.576 L1013.48 27.2059 L1020.97 27.2059 L1020.97 34.2544 Q1023.32 30.1225 1027.09 28.1376 Q1030.86 26.1121 1036.24 26.1121 Q1037.01 26.1121 1037.94 26.2337 Q1038.88 26.3147 1040.01 26.5172 L1040.05 34.1734 Z" fill="#000000" fill-rule="nonzero" fill-opacity="1" /><path clip-path="url(#clip330)" d="M1068.49 49.7694 Q1059.45 49.7694 1055.97 51.8354 Q1052.49 53.9013 1052.49 58.8839 Q1052.49 62.8538 1055.08 65.2034 Q1057.71 67.5124 1062.21 67.5124 Q1068.41 67.5124 1072.13 63.1374 Q1075.9 58.7219 1075.9 51.4303 L1075.9 49.7694 L1068.49 49.7694 M1083.35 46.6907 L1083.35 72.576 L1075.9 72.576 L1075.9 65.6895 Q1073.35 69.8214 1069.54 71.8063 Q1065.73 73.7508 1060.22 73.7508 Q1053.26 73.7508 1049.12 69.8619 Q1045.03 65.9325 1045.03 59.3701 Q1045.03 51.7138 1050.14 47.825 Q1055.28 43.9361 1065.45 43.9361 L1075.9 43.9361 L1075.9 43.2069 Q1075.9 38.0623 1072.5 35.2672 Q1069.14 32.4315 1063.02 32.4315 Q1059.13 32.4315 1055.44 33.3632 Q1051.76 34.295 1048.36 36.1584 L1048.36 29.2718 Q1052.45 27.692 1056.29 26.9223 Q1060.14 26.1121 1063.79 26.1121 Q1073.63 26.1121 1078.49 31.2163 Q1083.35 36.3204 1083.35 46.6907 Z" fill="#000000" fill-rule="nonzero" fill-opacity="1" /><path clip-path="url(#clip330)" d="M1128.56 49.3643 Q1128.56 41.2625 1125.2 36.8065 Q1121.88 32.3505 1115.84 32.3505 Q1109.85 32.3505 1106.49 36.8065 Q1103.16 41.2625 1103.16 49.3643 Q1103.16 57.4256 1106.49 61.8816 Q1109.85 66.3376 1115.84 66.3376 Q1121.88 66.3376 1125.2 61.8816 Q1128.56 57.4256 1128.56 49.3643 M1136.02 66.9452 Q1136.02 78.5308 1130.87 84.1616 Q1125.73 89.8329 1115.11 89.8329 Q1111.18 89.8329 1107.7 89.2252 Q1104.22 88.6581 1100.94 87.4428 L1100.94 80.1917 Q1104.22 81.9741 1107.42 82.8248 Q1110.62 83.6755 1113.94 83.6755 Q1121.27 83.6755 1124.92 79.8271 Q1128.56 76.0193 1128.56 68.282 L1128.56 64.5957 Q1126.25 68.6061 1122.65 70.5911 Q1119.04 72.576 1114.02 72.576 Q1105.68 72.576 1100.57 66.2161 Q1095.47 59.8562 1095.47 49.3643 Q1095.47 38.832 1100.57 32.472 Q1105.68 26.1121 1114.02 26.1121 Q1119.04 26.1121 1122.65 28.0971 Q1126.25 30.082 1128.56 34.0924 L1128.56 27.2059 L1136.02 27.2059 L1136.02 66.9452 Z" fill="#000000" fill-rule="nonzero" fill-opacity="1" /><path clip-path="url(#clip330)" d="M1190.18 48.0275 L1190.18 51.6733 L1155.91 51.6733 Q1156.39 59.3701 1160.52 63.421 Q1164.7 67.4314 1172.11 67.4314 Q1176.4 67.4314 1180.41 66.3781 Q1184.47 65.3249 1188.44 63.2184 L1188.44 70.267 Q1184.43 71.9684 1180.21 72.8596 Q1176 73.7508 1171.66 73.7508 Q1160.81 73.7508 1154.45 67.4314 Q1148.13 61.1119 1148.13 50.3365 Q1148.13 39.1965 1154.12 32.6746 Q1160.16 26.1121 1170.37 26.1121 Q1179.52 26.1121 1184.83 32.0264 Q1190.18 37.9003 1190.18 48.0275 M1182.72 45.84 Q1182.64 39.7232 1179.28 36.0774 Q1175.96 32.4315 1170.45 32.4315 Q1164.21 32.4315 1160.44 35.9558 Q1156.72 39.4801 1156.15 45.8805 L1182.72 45.84 Z" fill="#000000" fill-rule="nonzero" fill-opacity="1" /><path clip-path="url(#clip330)" d="M1231.33 28.5427 L1231.33 35.5912 Q1228.17 33.9709 1224.77 33.1607 Q1221.37 32.3505 1217.72 32.3505 Q1212.17 32.3505 1209.38 34.0519 Q1206.62 35.7533 1206.62 39.156 Q1206.62 41.7486 1208.61 43.2475 Q1210.59 44.7058 1216.59 46.0426 L1219.14 46.6097 Q1227.08 48.3111 1230.4 51.4303 Q1233.77 54.509 1233.77 60.0587 Q1233.77 66.3781 1228.74 70.0644 Q1223.76 73.7508 1215.01 73.7508 Q1211.36 73.7508 1207.39 73.0216 Q1203.46 72.3329 1199.09 70.9151 L1199.09 63.2184 Q1203.22 65.3654 1207.23 66.4591 Q1211.24 67.5124 1215.17 67.5124 Q1220.44 67.5124 1223.27 65.73 Q1226.11 63.9071 1226.11 60.6258 Q1226.11 57.5877 1224.04 55.9673 Q1222.02 54.3469 1215.09 52.8481 L1212.5 52.2405 Q1205.57 50.7821 1202.49 47.7845 Q1199.41 44.7463 1199.41 39.4801 Q1199.41 33.0797 1203.95 29.5959 Q1208.49 26.1121 1216.83 26.1121 Q1220.96 26.1121 1224.61 26.7198 Q1228.26 27.3274 1231.33 28.5427 Z" fill="#000000" fill-rule="nonzero" fill-opacity="1" /><path clip-path="url(#clip330)" d="M1289.59 32.4315 Q1283.59 32.4315 1280.11 37.1306 Q1276.62 41.7891 1276.62 49.9314 Q1276.62 58.0738 1280.07 62.7728 Q1283.55 67.4314 1289.59 67.4314 Q1295.54 67.4314 1299.03 62.7323 Q1302.51 58.0333 1302.51 49.9314 Q1302.51 41.8701 1299.03 37.1711 Q1295.54 32.4315 1289.59 32.4315 M1289.59 26.1121 Q1299.31 26.1121 1304.86 32.4315 Q1310.41 38.7509 1310.41 49.9314 Q1310.41 61.0714 1304.86 67.4314 Q1299.31 73.7508 1289.59 73.7508 Q1279.82 73.7508 1274.27 67.4314 Q1268.76 61.0714 1268.76 49.9314 Q1268.76 38.7509 1274.27 32.4315 Q1279.82 26.1121 1289.59 26.1121 Z" fill="#000000" fill-rule="nonzero" fill-opacity="1" /><path clip-path="url(#clip330)" d="M1317.42 27.2059 L1325.32 27.2059 L1339.49 65.2844 L1353.67 27.2059 L1361.57 27.2059 L1344.56 72.576 L1334.43 72.576 L1317.42 27.2059 Z" fill="#000000" fill-rule="nonzero" fill-opacity="1" /><path clip-path="url(#clip330)" d="M1410.67 48.0275 L1410.67 51.6733 L1376.4 51.6733 Q1376.88 59.3701 1381.02 63.421 Q1385.19 67.4314 1392.6 67.4314 Q1396.89 67.4314 1400.91 66.3781 Q1404.96 65.3249 1408.93 63.2184 L1408.93 70.267 Q1404.92 71.9684 1400.7 72.8596 Q1396.49 73.7508 1392.16 73.7508 Q1381.3 73.7508 1374.94 67.4314 Q1368.62 61.1119 1368.62 50.3365 Q1368.62 39.1965 1374.62 32.6746 Q1380.65 26.1121 1390.86 26.1121 Q1400.01 26.1121 1405.32 32.0264 Q1410.67 37.9003 1410.67 48.0275 M1403.21 45.84 Q1403.13 39.7232 1399.77 36.0774 Q1396.45 32.4315 1390.94 32.4315 Q1384.7 32.4315 1380.93 35.9558 Q1377.21 39.4801 1376.64 45.8805 L1403.21 45.84 Z" fill="#000000" fill-rule="nonzero" fill-opacity="1" /><path clip-path="url(#clip330)" d="M1449.19 34.1734 Q1447.94 33.4443 1446.44 33.1202 Q1444.98 32.7556 1443.2 32.7556 Q1436.88 32.7556 1433.47 36.8875 Q1430.11 40.9789 1430.11 48.6757 L1430.11 72.576 L1422.62 72.576 L1422.62 27.2059 L1430.11 27.2059 L1430.11 34.2544 Q1432.46 30.1225 1436.23 28.1376 Q1440 26.1121 1445.38 26.1121 Q1446.15 26.1121 1447.09 26.2337 Q1448.02 26.3147 1449.15 26.5172 L1449.19 34.1734 Z" fill="#000000" fill-rule="nonzero" fill-opacity="1" /><path clip-path="url(#clip330)" d="M1490.75 14.324 L1490.75 27.2059 L1506.11 27.2059 L1506.11 32.9987 L1490.75 32.9987 L1490.75 57.6282 Q1490.75 63.1779 1492.25 64.7578 Q1493.79 66.3376 1498.45 66.3376 L1506.11 66.3376 L1506.11 72.576 L1498.45 72.576 Q1489.82 72.576 1486.54 69.3758 Q1483.26 66.1351 1483.26 57.6282 L1483.26 32.9987 L1477.79 32.9987 L1477.79 27.2059 L1483.26 27.2059 L1483.26 14.324 L1490.75 14.324 Z" fill="#000000" fill-rule="nonzero" fill-opacity="1" /><path clip-path="url(#clip330)" d="M1515.91 27.2059 L1523.36 27.2059 L1523.36 72.576 L1515.91 72.576 L1515.91 27.2059 M1515.91 9.54393 L1523.36 9.54393 L1523.36 18.9825 L1515.91 18.9825 L1515.91 9.54393 Z" fill="#000000" fill-rule="nonzero" fill-opacity="1" /><path clip-path="url(#clip330)" d="M1574.28 35.9153 Q1577.08 30.8922 1580.97 28.5022 Q1584.86 26.1121 1590.12 26.1121 Q1597.21 26.1121 1601.06 31.0947 Q1604.91 36.0368 1604.91 45.1919 L1604.91 72.576 L1597.41 72.576 L1597.41 45.4349 Q1597.41 38.913 1595.11 35.7533 Q1592.8 32.5936 1588.06 32.5936 Q1582.26 32.5936 1578.9 36.4419 Q1575.54 40.2903 1575.54 46.9338 L1575.54 72.576 L1568.05 72.576 L1568.05 45.4349 Q1568.05 38.8725 1565.74 35.7533 Q1563.43 32.5936 1558.61 32.5936 Q1552.9 32.5936 1549.53 36.4824 Q1546.17 40.3308 1546.17 46.9338 L1546.17 72.576 L1538.68 72.576 L1538.68 27.2059 L1546.17 27.2059 L1546.17 34.2544 Q1548.72 30.082 1552.29 28.0971 Q1555.85 26.1121 1560.75 26.1121 Q1565.7 26.1121 1569.14 28.6237 Q1572.62 31.1352 1574.28 35.9153 Z" fill="#000000" fill-rule="nonzero" fill-opacity="1" /><path clip-path="url(#clip330)" d="M1658.58 48.0275 L1658.58 51.6733 L1624.31 51.6733 Q1624.8 59.3701 1628.93 63.421 Q1633.1 67.4314 1640.52 67.4314 Q1644.81 67.4314 1648.82 66.3781 Q1652.87 65.3249 1656.84 63.2184 L1656.84 70.267 Q1652.83 71.9684 1648.62 72.8596 Q1644.41 73.7508 1640.07 73.7508 Q1629.21 73.7508 1622.85 67.4314 Q1616.54 61.1119 1616.54 50.3365 Q1616.54 39.1965 1622.53 32.6746 Q1628.57 26.1121 1638.77 26.1121 Q1647.93 26.1121 1653.24 32.0264 Q1658.58 37.9003 1658.58 48.0275 M1651.13 45.84 Q1651.05 39.7232 1647.69 36.0774 Q1644.36 32.4315 1638.86 32.4315 Q1632.62 32.4315 1628.85 35.9558 Q1625.12 39.4801 1624.56 45.8805 L1651.13 45.84 Z" fill="#000000" fill-rule="nonzero" fill-opacity="1" /><path clip-path="url(#clip330)" d="M1720.16 9.54393 L1720.16 15.7418 L1713.03 15.7418 Q1709.02 15.7418 1707.44 17.3622 Q1705.9 18.9825 1705.9 23.1955 L1705.9 27.2059 L1718.17 27.2059 L1718.17 32.9987 L1705.9 32.9987 L1705.9 72.576 L1698.4 72.576 L1698.4 32.9987 L1691.27 32.9987 L1691.27 27.2059 L1698.4 27.2059 L1698.4 24.0462 Q1698.4 16.471 1701.93 13.0277 Q1705.45 9.54393 1713.11 9.54393 L1720.16 9.54393 Z" fill="#000000" fill-rule="nonzero" fill-opacity="1" /><path clip-path="url(#clip330)" d="M1743.98 32.4315 Q1737.98 32.4315 1734.5 37.1306 Q1731.01 41.7891 1731.01 49.9314 Q1731.01 58.0738 1734.46 62.7728 Q1737.94 67.4314 1743.98 67.4314 Q1749.93 67.4314 1753.42 62.7323 Q1756.9 58.0333 1756.9 49.9314 Q1756.9 41.8701 1753.42 37.1711 Q1749.93 32.4315 1743.98 32.4315 M1743.98 26.1121 Q1753.7 26.1121 1759.25 32.4315 Q1764.8 38.7509 1764.8 49.9314 Q1764.8 61.0714 1759.25 67.4314 Q1753.7 73.7508 1743.98 73.7508 Q1734.21 73.7508 1728.66 67.4314 Q1723.15 61.0714 1723.15 49.9314 Q1723.15 38.7509 1728.66 32.4315 Q1734.21 26.1121 1743.98 26.1121 Z" fill="#000000" fill-rule="nonzero" fill-opacity="1" /><path clip-path="url(#clip330)" d="M1803.44 34.1734 Q1802.19 33.4443 1800.69 33.1202 Q1799.23 32.7556 1797.45 32.7556 Q1791.13 32.7556 1787.73 36.8875 Q1784.36 40.9789 1784.36 48.6757 L1784.36 72.576 L1776.87 72.576 L1776.87 27.2059 L1784.36 27.2059 L1784.36 34.2544 Q1786.71 30.1225 1790.48 28.1376 Q1794.25 26.1121 1799.64 26.1121 Q1800.41 26.1121 1801.34 26.2337 Q1802.27 26.3147 1803.4 26.5172 L1803.44 34.1734 Z" fill="#000000" fill-rule="nonzero" fill-opacity="1" /><path clip-path="url(#clip330)" d="M1811.71 62.2867 L1820.25 62.2867 L1820.25 72.576 L1811.71 72.576 L1811.71 62.2867 M1811.71 29.6769 L1820.25 29.6769 L1820.25 39.9662 L1811.71 39.9662 L1811.71 29.6769 Z" fill="#000000" fill-rule="nonzero" fill-opacity="1" /><path clip-path="url(#clip330)" d="M1871.34 65.7705 L1871.34 89.8329 L1863.84 89.8329 L1863.84 27.2059 L1871.34 27.2059 L1871.34 34.0924 Q1873.69 30.0415 1877.25 28.0971 Q1880.86 26.1121 1885.84 26.1121 Q1894.1 26.1121 1899.25 32.6746 Q1904.43 39.2371 1904.43 49.9314 Q1904.43 60.6258 1899.25 67.1883 Q1894.1 73.7508 1885.84 73.7508 Q1880.86 73.7508 1877.25 71.8063 Q1873.69 69.8214 1871.34 65.7705 M1896.7 49.9314 Q1896.7 41.7081 1893.29 37.0496 Q1889.93 32.3505 1884.02 32.3505 Q1878.1 32.3505 1874.7 37.0496 Q1871.34 41.7081 1871.34 49.9314 Q1871.34 58.1548 1874.7 62.8538 Q1878.1 67.5124 1884.02 67.5124 Q1889.93 67.5124 1893.29 62.8538 Q1896.7 58.1548 1896.7 49.9314 Z" fill="#000000" fill-rule="nonzero" fill-opacity="1" /><path clip-path="url(#clip330)" d="M1943.08 34.1734 Q1941.82 33.4443 1940.32 33.1202 Q1938.87 32.7556 1937.08 32.7556 Q1930.76 32.7556 1927.36 36.8875 Q1924 40.9789 1924 48.6757 L1924 72.576 L1916.5 72.576 L1916.5 27.2059 L1924 27.2059 L1924 34.2544 Q1926.35 30.1225 1930.12 28.1376 Q1933.88 26.1121 1939.27 26.1121 Q1940.04 26.1121 1940.97 26.2337 Q1941.9 26.3147 1943.04 26.5172 L1943.08 34.1734 Z" fill="#000000" fill-rule="nonzero" fill-opacity="1" /><path clip-path="url(#clip330)" d="M1966.65 32.4315 Q1960.66 32.4315 1957.18 37.1306 Q1953.69 41.7891 1953.69 49.9314 Q1953.69 58.0738 1957.14 62.7728 Q1960.62 67.4314 1966.65 67.4314 Q1972.61 67.4314 1976.09 62.7323 Q1979.58 58.0333 1979.58 49.9314 Q1979.58 41.8701 1976.09 37.1711 Q1972.61 32.4315 1966.65 32.4315 M1966.65 26.1121 Q1976.38 26.1121 1981.93 32.4315 Q1987.48 38.7509 1987.48 49.9314 Q1987.48 61.0714 1981.93 67.4314 Q1976.38 73.7508 1966.65 73.7508 Q1956.89 73.7508 1951.34 67.4314 Q1945.83 61.0714 1945.83 49.9314 Q1945.83 38.7509 1951.34 32.4315 Q1956.89 26.1121 1966.65 26.1121 Z" fill="#000000" fill-rule="nonzero" fill-opacity="1" /><path clip-path="url(#clip330)" d="M2022.8 9.54393 L2022.8 15.7418 L2015.67 15.7418 Q2011.66 15.7418 2010.08 17.3622 Q2008.54 18.9825 2008.54 23.1955 L2008.54 27.2059 L2020.82 27.2059 L2020.82 32.9987 L2008.54 32.9987 L2008.54 72.576 L2001.05 72.576 L2001.05 32.9987 L1993.92 32.9987 L1993.92 27.2059 L2001.05 27.2059 L2001.05 24.0462 Q2001.05 16.471 2004.57 13.0277 Q2008.1 9.54393 2015.75 9.54393 L2022.8 9.54393 Z" fill="#000000" fill-rule="nonzero" fill-opacity="1" /><path clip-path="url(#clip330)" d="M2029.04 27.2059 L2036.49 27.2059 L2036.49 72.576 L2029.04 72.576 L2029.04 27.2059 M2029.04 9.54393 L2036.49 9.54393 L2036.49 18.9825 L2029.04 18.9825 L2029.04 9.54393 Z" fill="#000000" fill-rule="nonzero" fill-opacity="1" /><path clip-path="url(#clip330)" d="M2059.46 14.324 L2059.46 27.2059 L2074.81 27.2059 L2074.81 32.9987 L2059.46 32.9987 L2059.46 57.6282 Q2059.46 63.1779 2060.96 64.7578 Q2062.5 66.3376 2067.16 66.3376 L2074.81 66.3376 L2074.81 72.576 L2067.16 72.576 Q2058.53 72.576 2055.25 69.3758 Q2051.97 66.1351 2051.97 57.6282 L2051.97 32.9987 L2046.5 32.9987 L2046.5 27.2059 L2051.97 27.2059 L2051.97 14.324 L2059.46 14.324 Z" fill="#000000" fill-rule="nonzero" fill-opacity="1" /><path clip-path="url(#clip330)" d="M2105.24 49.7694 Q2096.2 49.7694 2092.72 51.8354 Q2089.24 53.9013 2089.24 58.8839 Q2089.24 62.8538 2091.83 65.2034 Q2094.46 67.5124 2098.96 67.5124 Q2105.16 67.5124 2108.88 63.1374 Q2112.65 58.7219 2112.65 51.4303 L2112.65 49.7694 L2105.24 49.7694 M2120.1 46.6907 L2120.1 72.576 L2112.65 72.576 L2112.65 65.6895 Q2110.1 69.8214 2106.29 71.8063 Q2102.48 73.7508 2096.97 73.7508 Q2090 73.7508 2085.87 69.8619 Q2081.78 65.9325 2081.78 59.3701 Q2081.78 51.7138 2086.89 47.825 Q2092.03 43.9361 2102.2 43.9361 L2112.65 43.9361 L2112.65 43.2069 Q2112.65 38.0623 2109.25 35.2672 Q2105.88 32.4315 2099.77 32.4315 Q2095.88 32.4315 2092.19 33.3632 Q2088.51 34.295 2085.1 36.1584 L2085.1 29.2718 Q2089.19 27.692 2093.04 26.9223 Q2096.89 26.1121 2100.54 26.1121 Q2110.38 26.1121 2115.24 31.2163 Q2120.1 36.3204 2120.1 46.6907 Z" fill="#000000" fill-rule="nonzero" fill-opacity="1" /><path clip-path="url(#clip330)" d="M2168.03 49.9314 Q2168.03 41.7081 2164.62 37.0496 Q2161.26 32.3505 2155.35 32.3505 Q2149.43 32.3505 2146.03 37.0496 Q2142.67 41.7081 2142.67 49.9314 Q2142.67 58.1548 2146.03 62.8538 Q2149.43 67.5124 2155.35 67.5124 Q2161.26 67.5124 2164.62 62.8538 Q2168.03 58.1548 2168.03 49.9314 M2142.67 34.0924 Q2145.02 30.0415 2148.58 28.0971 Q2152.19 26.1121 2157.17 26.1121 Q2165.43 26.1121 2170.58 32.6746 Q2175.76 39.2371 2175.76 49.9314 Q2175.76 60.6258 2170.58 67.1883 Q2165.43 73.7508 2157.17 73.7508 Q2152.19 73.7508 2148.58 71.8063 Q2145.02 69.8214 2142.67 65.7705 L2142.67 72.576 L2135.17 72.576 L2135.17 9.54393 L2142.67 9.54393 L2142.67 34.0924 Z" fill="#000000" fill-rule="nonzero" fill-opacity="1" /><path clip-path="url(#clip330)" d="M2188.12 27.2059 L2195.57 27.2059 L2195.57 72.576 L2188.12 72.576 L2188.12 27.2059 M2188.12 9.54393 L2195.57 9.54393 L2195.57 18.9825 L2188.12 18.9825 L2188.12 9.54393 Z" fill="#000000" fill-rule="nonzero" fill-opacity="1" /><path clip-path="url(#clip330)" d="M2211.17 9.54393 L2218.62 9.54393 L2218.62 72.576 L2211.17 72.576 L2211.17 9.54393 Z" fill="#000000" fill-rule="nonzero" fill-opacity="1" /><path clip-path="url(#clip330)" d="M2234.22 27.2059 L2241.67 27.2059 L2241.67 72.576 L2234.22 72.576 L2234.22 27.2059 M2234.22 9.54393 L2241.67 9.54393 L2241.67 18.9825 L2234.22 18.9825 L2234.22 9.54393 Z" fill="#000000" fill-rule="nonzero" fill-opacity="1" /><path clip-path="url(#clip330)" d="M2264.64 14.324 L2264.64 27.2059 L2279.99 27.2059 L2279.99 32.9987 L2264.64 32.9987 L2264.64 57.6282 Q2264.64 63.1779 2266.14 64.7578 Q2267.68 66.3376 2272.34 66.3376 L2279.99 66.3376 L2279.99 72.576 L2272.34 72.576 Q2263.71 72.576 2260.43 69.3758 Q2257.15 66.1351 2257.15 57.6282 L2257.15 32.9987 L2251.68 32.9987 L2251.68 27.2059 L2257.15 27.2059 L2257.15 14.324 L2264.64 14.324 Z" fill="#000000" fill-rule="nonzero" fill-opacity="1" /><path clip-path="url(#clip330)" d="M2308.67 76.7889 Q2305.51 84.8907 2302.52 87.3618 Q2299.52 89.8329 2294.49 89.8329 L2288.54 89.8329 L2288.54 83.5945 L2292.91 83.5945 Q2295.99 83.5945 2297.69 82.1361 Q2299.4 80.6778 2301.46 75.2496 L2302.8 71.8468 L2284.45 27.2059 L2292.35 27.2059 L2306.53 62.6918 L2320.7 27.2059 L2328.6 27.2059 L2308.67 76.7889 Z" fill="#000000" fill-rule="nonzero" fill-opacity="1" /><circle clip-path="url(#clip332)" cx="301.869" cy="765.958" r="14.4" fill="#009af9" fill-rule="evenodd" fill-opacity="1" stroke="#000000" stroke-opacity="1" stroke-width="3.2"/>
<circle clip-path="url(#clip332)" cx="321.982" cy="568.894" r="14.4" fill="#009af9" fill-rule="evenodd" fill-opacity="1" stroke="#000000" stroke-opacity="1" stroke-width="3.2"/>
<circle clip-path="url(#clip332)" cx="342.095" cy="704.956" r="14.4" fill="#009af9" fill-rule="evenodd" fill-opacity="1" stroke="#000000" stroke-opacity="1" stroke-width="3.2"/>
<circle clip-path="url(#clip332)" cx="362.207" cy="829.09" r="14.4" fill="#009af9" fill-rule="evenodd" fill-opacity="1" stroke="#000000" stroke-opacity="1" stroke-width="3.2"/>
<circle clip-path="url(#clip332)" cx="382.32" cy="862.966" r="14.4" fill="#009af9" fill-rule="evenodd" fill-opacity="1" stroke="#000000" stroke-opacity="1" stroke-width="3.2"/>
<circle clip-path="url(#clip332)" cx="402.432" cy="644.521" r="14.4" fill="#009af9" fill-rule="evenodd" fill-opacity="1" stroke="#000000" stroke-opacity="1" stroke-width="3.2"/>
<circle clip-path="url(#clip332)" cx="422.545" cy="866.011" r="14.4" fill="#009af9" fill-rule="evenodd" fill-opacity="1" stroke="#000000" stroke-opacity="1" stroke-width="3.2"/>
<circle clip-path="url(#clip332)" cx="442.658" cy="256.2" r="14.4" fill="#009af9" fill-rule="evenodd" fill-opacity="1" stroke="#000000" stroke-opacity="1" stroke-width="3.2"/>
<circle clip-path="url(#clip332)" cx="462.77" cy="1423.18" r="14.4" fill="#009af9" fill-rule="evenodd" fill-opacity="1" stroke="#000000" stroke-opacity="1" stroke-width="3.2"/>
<circle clip-path="url(#clip332)" cx="482.883" cy="196.581" r="14.4" fill="#009af9" fill-rule="evenodd" fill-opacity="1" stroke="#000000" stroke-opacity="1" stroke-width="3.2"/>
<circle clip-path="url(#clip332)" cx="502.996" cy="1249.19" r="14.4" fill="#009af9" fill-rule="evenodd" fill-opacity="1" stroke="#000000" stroke-opacity="1" stroke-width="3.2"/>
<circle clip-path="url(#clip332)" cx="523.108" cy="692.862" r="14.4" fill="#009af9" fill-rule="evenodd" fill-opacity="1" stroke="#000000" stroke-opacity="1" stroke-width="3.2"/>
<circle clip-path="url(#clip332)" cx="543.221" cy="685.007" r="14.4" fill="#009af9" fill-rule="evenodd" fill-opacity="1" stroke="#000000" stroke-opacity="1" stroke-width="3.2"/>
<circle clip-path="url(#clip332)" cx="563.334" cy="570.81" r="14.4" fill="#009af9" fill-rule="evenodd" fill-opacity="1" stroke="#000000" stroke-opacity="1" stroke-width="3.2"/>
<circle clip-path="url(#clip332)" cx="583.446" cy="526.922" r="14.4" fill="#009af9" fill-rule="evenodd" fill-opacity="1" stroke="#000000" stroke-opacity="1" stroke-width="3.2"/>
<circle clip-path="url(#clip332)" cx="603.559" cy="917.937" r="14.4" fill="#009af9" fill-rule="evenodd" fill-opacity="1" stroke="#000000" stroke-opacity="1" stroke-width="3.2"/>
<circle clip-path="url(#clip332)" cx="623.672" cy="1088.95" r="14.4" fill="#009af9" fill-rule="evenodd" fill-opacity="1" stroke="#000000" stroke-opacity="1" stroke-width="3.2"/>
<circle clip-path="url(#clip332)" cx="643.784" cy="901.572" r="14.4" fill="#009af9" fill-rule="evenodd" fill-opacity="1" stroke="#000000" stroke-opacity="1" stroke-width="3.2"/>
<circle clip-path="url(#clip332)" cx="663.897" cy="202.585" r="14.4" fill="#009af9" fill-rule="evenodd" fill-opacity="1" stroke="#000000" stroke-opacity="1" stroke-width="3.2"/>
<circle clip-path="url(#clip332)" cx="684.01" cy="1299.7" r="14.4" fill="#009af9" fill-rule="evenodd" fill-opacity="1" stroke="#000000" stroke-opacity="1" stroke-width="3.2"/>
<circle clip-path="url(#clip332)" cx="704.122" cy="631.28" r="14.4" fill="#009af9" fill-rule="evenodd" fill-opacity="1" stroke="#000000" stroke-opacity="1" stroke-width="3.2"/>
<circle clip-path="url(#clip332)" cx="724.235" cy="592.063" r="14.4" fill="#009af9" fill-rule="evenodd" fill-opacity="1" stroke="#000000" stroke-opacity="1" stroke-width="3.2"/>
<circle clip-path="url(#clip332)" cx="744.347" cy="905.86" r="14.4" fill="#009af9" fill-rule="evenodd" fill-opacity="1" stroke="#000000" stroke-opacity="1" stroke-width="3.2"/>
<circle clip-path="url(#clip332)" cx="764.46" cy="741.258" r="14.4" fill="#009af9" fill-rule="evenodd" fill-opacity="1" stroke="#000000" stroke-opacity="1" stroke-width="3.2"/>
<circle clip-path="url(#clip332)" cx="784.573" cy="821.901" r="14.4" fill="#009af9" fill-rule="evenodd" fill-opacity="1" stroke="#000000" stroke-opacity="1" stroke-width="3.2"/>
<circle clip-path="url(#clip332)" cx="804.685" cy="676.769" r="14.4" fill="#009af9" fill-rule="evenodd" fill-opacity="1" stroke="#000000" stroke-opacity="1" stroke-width="3.2"/>
<circle clip-path="url(#clip332)" cx="824.798" cy="1035.75" r="14.4" fill="#009af9" fill-rule="evenodd" fill-opacity="1" stroke="#000000" stroke-opacity="1" stroke-width="3.2"/>
<circle clip-path="url(#clip332)" cx="844.911" cy="653.825" r="14.4" fill="#009af9" fill-rule="evenodd" fill-opacity="1" stroke="#000000" stroke-opacity="1" stroke-width="3.2"/>
<circle clip-path="url(#clip332)" cx="865.023" cy="928.876" r="14.4" fill="#009af9" fill-rule="evenodd" fill-opacity="1" stroke="#000000" stroke-opacity="1" stroke-width="3.2"/>
<circle clip-path="url(#clip332)" cx="885.136" cy="291.411" r="14.4" fill="#009af9" fill-rule="evenodd" fill-opacity="1" stroke="#000000" stroke-opacity="1" stroke-width="3.2"/>
<circle clip-path="url(#clip332)" cx="905.249" cy="983.011" r="14.4" fill="#009af9" fill-rule="evenodd" fill-opacity="1" stroke="#000000" stroke-opacity="1" stroke-width="3.2"/>
<circle clip-path="url(#clip332)" cx="925.361" cy="431.792" r="14.4" fill="#009af9" fill-rule="evenodd" fill-opacity="1" stroke="#000000" stroke-opacity="1" stroke-width="3.2"/>
<circle clip-path="url(#clip332)" cx="945.474" cy="1112.99" r="14.4" fill="#009af9" fill-rule="evenodd" fill-opacity="1" stroke="#000000" stroke-opacity="1" stroke-width="3.2"/>
<circle clip-path="url(#clip332)" cx="965.587" cy="776.599" r="14.4" fill="#009af9" fill-rule="evenodd" fill-opacity="1" stroke="#000000" stroke-opacity="1" stroke-width="3.2"/>
<circle clip-path="url(#clip332)" cx="985.699" cy="783.052" r="14.4" fill="#009af9" fill-rule="evenodd" fill-opacity="1" stroke="#000000" stroke-opacity="1" stroke-width="3.2"/>
<circle clip-path="url(#clip332)" cx="1005.81" cy="776.586" r="14.4" fill="#009af9" fill-rule="evenodd" fill-opacity="1" stroke="#000000" stroke-opacity="1" stroke-width="3.2"/>
<circle clip-path="url(#clip332)" cx="1025.92" cy="932.483" r="14.4" fill="#009af9" fill-rule="evenodd" fill-opacity="1" stroke="#000000" stroke-opacity="1" stroke-width="3.2"/>
<circle clip-path="url(#clip332)" cx="1046.04" cy="560.202" r="14.4" fill="#009af9" fill-rule="evenodd" fill-opacity="1" stroke="#000000" stroke-opacity="1" stroke-width="3.2"/>
<circle clip-path="url(#clip332)" cx="1066.15" cy="785.24" r="14.4" fill="#009af9" fill-rule="evenodd" fill-opacity="1" stroke="#000000" stroke-opacity="1" stroke-width="3.2"/>
<circle clip-path="url(#clip332)" cx="1086.26" cy="754.685" r="14.4" fill="#009af9" fill-rule="evenodd" fill-opacity="1" stroke="#000000" stroke-opacity="1" stroke-width="3.2"/>
<circle clip-path="url(#clip332)" cx="1106.38" cy="780.489" r="14.4" fill="#009af9" fill-rule="evenodd" fill-opacity="1" stroke="#000000" stroke-opacity="1" stroke-width="3.2"/>
<circle clip-path="url(#clip332)" cx="1126.49" cy="962.54" r="14.4" fill="#009af9" fill-rule="evenodd" fill-opacity="1" stroke="#000000" stroke-opacity="1" stroke-width="3.2"/>
<circle clip-path="url(#clip332)" cx="1146.6" cy="344.581" r="14.4" fill="#009af9" fill-rule="evenodd" fill-opacity="1" stroke="#000000" stroke-opacity="1" stroke-width="3.2"/>
<circle clip-path="url(#clip332)" cx="1166.71" cy="591.576" r="14.4" fill="#009af9" fill-rule="evenodd" fill-opacity="1" stroke="#000000" stroke-opacity="1" stroke-width="3.2"/>
<circle clip-path="url(#clip332)" cx="1186.83" cy="807.231" r="14.4" fill="#009af9" fill-rule="evenodd" fill-opacity="1" stroke="#000000" stroke-opacity="1" stroke-width="3.2"/>
<circle clip-path="url(#clip332)" cx="1206.94" cy="684.732" r="14.4" fill="#009af9" fill-rule="evenodd" fill-opacity="1" stroke="#000000" stroke-opacity="1" stroke-width="3.2"/>
<circle clip-path="url(#clip332)" cx="1227.05" cy="1260.82" r="14.4" fill="#009af9" fill-rule="evenodd" fill-opacity="1" stroke="#000000" stroke-opacity="1" stroke-width="3.2"/>
<circle clip-path="url(#clip332)" cx="1247.16" cy="553.414" r="14.4" fill="#009af9" fill-rule="evenodd" fill-opacity="1" stroke="#000000" stroke-opacity="1" stroke-width="3.2"/>
<circle clip-path="url(#clip332)" cx="1267.28" cy="1155.19" r="14.4" fill="#009af9" fill-rule="evenodd" fill-opacity="1" stroke="#000000" stroke-opacity="1" stroke-width="3.2"/>
<circle clip-path="url(#clip332)" cx="1287.39" cy="565.772" r="14.4" fill="#009af9" fill-rule="evenodd" fill-opacity="1" stroke="#000000" stroke-opacity="1" stroke-width="3.2"/>
<circle clip-path="url(#clip332)" cx="1307.5" cy="363.634" r="14.4" fill="#009af9" fill-rule="evenodd" fill-opacity="1" stroke="#000000" stroke-opacity="1" stroke-width="3.2"/>
<circle clip-path="url(#clip332)" cx="1327.61" cy="1131.73" r="14.4" fill="#009af9" fill-rule="evenodd" fill-opacity="1" stroke="#000000" stroke-opacity="1" stroke-width="3.2"/>
<circle clip-path="url(#clip332)" cx="1347.73" cy="769.954" r="14.4" fill="#009af9" fill-rule="evenodd" fill-opacity="1" stroke="#000000" stroke-opacity="1" stroke-width="3.2"/>
<circle clip-path="url(#clip332)" cx="1367.84" cy="959.754" r="14.4" fill="#009af9" fill-rule="evenodd" fill-opacity="1" stroke="#000000" stroke-opacity="1" stroke-width="3.2"/>
<circle clip-path="url(#clip332)" cx="1387.95" cy="162.771" r="14.4" fill="#009af9" fill-rule="evenodd" fill-opacity="1" stroke="#000000" stroke-opacity="1" stroke-width="3.2"/>
<circle clip-path="url(#clip332)" cx="1408.06" cy="1295.64" r="14.4" fill="#009af9" fill-rule="evenodd" fill-opacity="1" stroke="#000000" stroke-opacity="1" stroke-width="3.2"/>
<circle clip-path="url(#clip332)" cx="1428.18" cy="621.066" r="14.4" fill="#009af9" fill-rule="evenodd" fill-opacity="1" stroke="#000000" stroke-opacity="1" stroke-width="3.2"/>
<circle clip-path="url(#clip332)" cx="1448.29" cy="1005.14" r="14.4" fill="#009af9" fill-rule="evenodd" fill-opacity="1" stroke="#000000" stroke-opacity="1" stroke-width="3.2"/>
<circle clip-path="url(#clip332)" cx="1468.4" cy="574.657" r="14.4" fill="#009af9" fill-rule="evenodd" fill-opacity="1" stroke="#000000" stroke-opacity="1" stroke-width="3.2"/>
<circle clip-path="url(#clip332)" cx="1488.52" cy="300.522" r="14.4" fill="#009af9" fill-rule="evenodd" fill-opacity="1" stroke="#000000" stroke-opacity="1" stroke-width="3.2"/>
<circle clip-path="url(#clip332)" cx="1508.63" cy="1172.17" r="14.4" fill="#009af9" fill-rule="evenodd" fill-opacity="1" stroke="#000000" stroke-opacity="1" stroke-width="3.2"/>
<circle clip-path="url(#clip332)" cx="1528.74" cy="810.001" r="14.4" fill="#009af9" fill-rule="evenodd" fill-opacity="1" stroke="#000000" stroke-opacity="1" stroke-width="3.2"/>
<circle clip-path="url(#clip332)" cx="1548.85" cy="748.355" r="14.4" fill="#009af9" fill-rule="evenodd" fill-opacity="1" stroke="#000000" stroke-opacity="1" stroke-width="3.2"/>
<circle clip-path="url(#clip332)" cx="1568.97" cy="797.828" r="14.4" fill="#009af9" fill-rule="evenodd" fill-opacity="1" stroke="#000000" stroke-opacity="1" stroke-width="3.2"/>
<circle clip-path="url(#clip332)" cx="1589.08" cy="691.349" r="14.4" fill="#009af9" fill-rule="evenodd" fill-opacity="1" stroke="#000000" stroke-opacity="1" stroke-width="3.2"/>
<circle clip-path="url(#clip332)" cx="1609.19" cy="841.226" r="14.4" fill="#009af9" fill-rule="evenodd" fill-opacity="1" stroke="#000000" stroke-opacity="1" stroke-width="3.2"/>
<circle clip-path="url(#clip332)" cx="1629.3" cy="697.123" r="14.4" fill="#009af9" fill-rule="evenodd" fill-opacity="1" stroke="#000000" stroke-opacity="1" stroke-width="3.2"/>
<circle clip-path="url(#clip332)" cx="1649.42" cy="768.994" r="14.4" fill="#009af9" fill-rule="evenodd" fill-opacity="1" stroke="#000000" stroke-opacity="1" stroke-width="3.2"/>
<circle clip-path="url(#clip332)" cx="1669.53" cy="477.816" r="14.4" fill="#009af9" fill-rule="evenodd" fill-opacity="1" stroke="#000000" stroke-opacity="1" stroke-width="3.2"/>
<circle clip-path="url(#clip332)" cx="1689.64" cy="1079.47" r="14.4" fill="#009af9" fill-rule="evenodd" fill-opacity="1" stroke="#000000" stroke-opacity="1" stroke-width="3.2"/>
<circle clip-path="url(#clip332)" cx="1709.75" cy="768.975" r="14.4" fill="#009af9" fill-rule="evenodd" fill-opacity="1" stroke="#000000" stroke-opacity="1" stroke-width="3.2"/>
<circle clip-path="url(#clip332)" cx="1729.87" cy="791.306" r="14.4" fill="#009af9" fill-rule="evenodd" fill-opacity="1" stroke="#000000" stroke-opacity="1" stroke-width="3.2"/>
<circle clip-path="url(#clip332)" cx="1749.98" cy="917.139" r="14.4" fill="#009af9" fill-rule="evenodd" fill-opacity="1" stroke="#000000" stroke-opacity="1" stroke-width="3.2"/>
<circle clip-path="url(#clip332)" cx="1770.09" cy="123.472" r="14.4" fill="#009af9" fill-rule="evenodd" fill-opacity="1" stroke="#000000" stroke-opacity="1" stroke-width="3.2"/>
<circle clip-path="url(#clip332)" cx="1790.21" cy="1220.65" r="14.4" fill="#009af9" fill-rule="evenodd" fill-opacity="1" stroke="#000000" stroke-opacity="1" stroke-width="3.2"/>
<circle clip-path="url(#clip332)" cx="1810.32" cy="787.094" r="14.4" fill="#009af9" fill-rule="evenodd" fill-opacity="1" stroke="#000000" stroke-opacity="1" stroke-width="3.2"/>
<circle clip-path="url(#clip332)" cx="1830.43" cy="827.708" r="14.4" fill="#009af9" fill-rule="evenodd" fill-opacity="1" stroke="#000000" stroke-opacity="1" stroke-width="3.2"/>
<circle clip-path="url(#clip332)" cx="1850.54" cy="724.553" r="14.4" fill="#009af9" fill-rule="evenodd" fill-opacity="1" stroke="#000000" stroke-opacity="1" stroke-width="3.2"/>
<circle clip-path="url(#clip332)" cx="1870.66" cy="812.637" r="14.4" fill="#009af9" fill-rule="evenodd" fill-opacity="1" stroke="#000000" stroke-opacity="1" stroke-width="3.2"/>
<circle clip-path="url(#clip332)" cx="1890.77" cy="641.469" r="14.4" fill="#009af9" fill-rule="evenodd" fill-opacity="1" stroke="#000000" stroke-opacity="1" stroke-width="3.2"/>
<circle clip-path="url(#clip332)" cx="1910.88" cy="813.29" r="14.4" fill="#009af9" fill-rule="evenodd" fill-opacity="1" stroke="#000000" stroke-opacity="1" stroke-width="3.2"/>
<circle clip-path="url(#clip332)" cx="1930.99" cy="732.964" r="14.4" fill="#009af9" fill-rule="evenodd" fill-opacity="1" stroke="#000000" stroke-opacity="1" stroke-width="3.2"/>
<circle clip-path="url(#clip332)" cx="1951.11" cy="656.127" r="14.4" fill="#009af9" fill-rule="evenodd" fill-opacity="1" stroke="#000000" stroke-opacity="1" stroke-width="3.2"/>
<circle clip-path="url(#clip332)" cx="1971.22" cy="868.835" r="14.4" fill="#009af9" fill-rule="evenodd" fill-opacity="1" stroke="#000000" stroke-opacity="1" stroke-width="3.2"/>
<circle clip-path="url(#clip332)" cx="1991.33" cy="861.38" r="14.4" fill="#009af9" fill-rule="evenodd" fill-opacity="1" stroke="#000000" stroke-opacity="1" stroke-width="3.2"/>
<circle clip-path="url(#clip332)" cx="2011.44" cy="723.006" r="14.4" fill="#009af9" fill-rule="evenodd" fill-opacity="1" stroke="#000000" stroke-opacity="1" stroke-width="3.2"/>
<circle clip-path="url(#clip332)" cx="2031.56" cy="411.118" r="14.4" fill="#009af9" fill-rule="evenodd" fill-opacity="1" stroke="#000000" stroke-opacity="1" stroke-width="3.2"/>
<circle clip-path="url(#clip332)" cx="2051.67" cy="1282.02" r="14.4" fill="#009af9" fill-rule="evenodd" fill-opacity="1" stroke="#000000" stroke-opacity="1" stroke-width="3.2"/>
<circle clip-path="url(#clip332)" cx="2071.78" cy="545.393" r="14.4" fill="#009af9" fill-rule="evenodd" fill-opacity="1" stroke="#000000" stroke-opacity="1" stroke-width="3.2"/>
<circle clip-path="url(#clip332)" cx="2091.89" cy="847.374" r="14.4" fill="#009af9" fill-rule="evenodd" fill-opacity="1" stroke="#000000" stroke-opacity="1" stroke-width="3.2"/>
<circle clip-path="url(#clip332)" cx="2112.01" cy="316.942" r="14.4" fill="#009af9" fill-rule="evenodd" fill-opacity="1" stroke="#000000" stroke-opacity="1" stroke-width="3.2"/>
<circle clip-path="url(#clip332)" cx="2132.12" cy="1047.37" r="14.4" fill="#009af9" fill-rule="evenodd" fill-opacity="1" stroke="#000000" stroke-opacity="1" stroke-width="3.2"/>
<circle clip-path="url(#clip332)" cx="2152.23" cy="894.317" r="14.4" fill="#009af9" fill-rule="evenodd" fill-opacity="1" stroke="#000000" stroke-opacity="1" stroke-width="3.2"/>
<circle clip-path="url(#clip332)" cx="2172.35" cy="504.296" r="14.4" fill="#009af9" fill-rule="evenodd" fill-opacity="1" stroke="#000000" stroke-opacity="1" stroke-width="3.2"/>
<circle clip-path="url(#clip332)" cx="2192.46" cy="1032.81" r="14.4" fill="#009af9" fill-rule="evenodd" fill-opacity="1" stroke="#000000" stroke-opacity="1" stroke-width="3.2"/>
<circle clip-path="url(#clip332)" cx="2212.57" cy="540.886" r="14.4" fill="#009af9" fill-rule="evenodd" fill-opacity="1" stroke="#000000" stroke-opacity="1" stroke-width="3.2"/>
<circle clip-path="url(#clip332)" cx="2232.68" cy="1029.56" r="14.4" fill="#009af9" fill-rule="evenodd" fill-opacity="1" stroke="#000000" stroke-opacity="1" stroke-width="3.2"/>
<circle clip-path="url(#clip332)" cx="2252.8" cy="698.743" r="14.4" fill="#009af9" fill-rule="evenodd" fill-opacity="1" stroke="#000000" stroke-opacity="1" stroke-width="3.2"/>
<circle clip-path="url(#clip332)" cx="2272.91" cy="770.98" r="14.4" fill="#009af9" fill-rule="evenodd" fill-opacity="1" stroke="#000000" stroke-opacity="1" stroke-width="3.2"/>
<circle clip-path="url(#clip332)" cx="2293.02" cy="787.083" r="14.4" fill="#009af9" fill-rule="evenodd" fill-opacity="1" stroke="#000000" stroke-opacity="1" stroke-width="3.2"/>
<path clip-path="url(#clip330)" d="M1977.64 1379.86 L2282.4 1379.86 L2282.4 1276.18 L1977.64 1276.18  Z" fill="#ffffff" fill-rule="evenodd" fill-opacity="1"/>
<polyline clip-path="url(#clip330)" style="stroke:#000000; stroke-linecap:round; stroke-linejoin:round; stroke-width:4; stroke-opacity:1; fill:none" points="1977.64,1379.86 2282.4,1379.86 2282.4,1276.18 1977.64,1276.18 1977.64,1379.86 "/>
<circle clip-path="url(#clip330)" cx="2071.44" cy="1328.02" r="20.48" fill="#009af9" fill-rule="evenodd" fill-opacity="1" stroke="#000000" stroke-opacity="1" stroke-width="4.55111"/>
<path clip-path="url(#clip330)" d="M2165.25 1310.74 L2172.21 1310.74 L2181.03 1334.25 L2189.9 1310.74 L2196.87 1310.74 L2196.87 1345.3 L2192.31 1345.3 L2192.31 1314.95 L2183.4 1338.65 L2178.7 1338.65 L2169.78 1314.95 L2169.78 1345.3 L2165.25 1345.3 L2165.25 1310.74 Z" fill="#000000" fill-rule="nonzero" fill-opacity="1" /><path clip-path="url(#clip330)" d="M2206.15 1310.74 L2210.83 1310.74 L2210.83 1325.34 L2226.33 1310.74 L2232.35 1310.74 L2215.2 1326.85 L2233.58 1345.3 L2227.42 1345.3 L2210.83 1328.65 L2210.83 1345.3 L2206.15 1345.3 L2206.15 1310.74 Z" fill="#000000" fill-rule="nonzero" fill-opacity="1" /><path clip-path="url(#clip330)" d="M2251.82 1326.66 Q2255.18 1327.38 2257.05 1329.65 Q2258.95 1331.92 2258.95 1335.25 Q2258.95 1340.37 2255.43 1343.17 Q2251.91 1345.97 2245.43 1345.97 Q2243.26 1345.97 2240.94 1345.53 Q2238.65 1345.11 2236.2 1344.25 L2236.2 1339.74 Q2238.14 1340.87 2240.46 1341.45 Q2242.77 1342.03 2245.29 1342.03 Q2249.69 1342.03 2251.98 1340.3 Q2254.3 1338.56 2254.3 1335.25 Q2254.3 1332.19 2252.14 1330.48 Q2250.02 1328.75 2246.2 1328.75 L2242.17 1328.75 L2242.17 1324.9 L2246.38 1324.9 Q2249.83 1324.9 2251.66 1323.54 Q2253.49 1322.15 2253.49 1319.56 Q2253.49 1316.89 2251.59 1315.48 Q2249.71 1314.05 2246.2 1314.05 Q2244.27 1314.05 2242.08 1314.46 Q2239.88 1314.88 2237.24 1315.76 L2237.24 1311.59 Q2239.9 1310.85 2242.21 1310.48 Q2244.55 1310.11 2246.61 1310.11 Q2251.94 1310.11 2255.04 1312.54 Q2258.14 1314.95 2258.14 1319.07 Q2258.14 1321.94 2256.5 1323.93 Q2254.85 1325.9 2251.82 1326.66 Z" fill="#000000" fill-rule="nonzero" fill-opacity="1" /></svg>
