<?xml version="1.0" encoding="utf-8"?>
<svg xmlns="http://www.w3.org/2000/svg" xmlns:xlink="http://www.w3.org/1999/xlink" width="600" height="400" viewBox="0 0 2400 1600">
<defs>
  <clipPath id="clip780">
    <rect x="0" y="0" width="2400" height="1600"/>
  </clipPath>
</defs>
<path clip-path="url(#clip780)" d="M0 1600 L2400 1600 L2400 0 L0 0  Z" fill="#ffffff" fill-rule="evenodd" fill-opacity="1"/>
<defs>
  <clipPath id="clip781">
    <rect x="212" y="123" width="2141" height="1301"/>
  </clipPath>
</defs>
<path clip-path="url(#clip780)" d="M241.139 1423.18 L2352.76 1423.18 L2352.76 123.472 L241.139 123.472  Z" fill="#ffffff" fill-rule="evenodd" fill-opacity="1"/>
<defs>
  <clipPath id="clip782">
    <rect x="241" y="123" width="2113" height="1301"/>
  </clipPath>
</defs>
<polyline clip-path="url(#clip782)" style="stroke:#000000; stroke-linecap:round; stroke-linejoin:round; stroke-width:2; stroke-opacity:0.1; fill:none" points="392.841,1423.18 392.841,123.472 "/>
<polyline clip-path="url(#clip782)" style="stroke:#000000; stroke-linecap:round; stroke-linejoin:round; stroke-width:2; stroke-opacity:0.1; fill:none" points="819.957,1423.18 819.957,123.472 "/>
<polyline clip-path="url(#clip782)" style="stroke:#000000; stroke-linecap:round; stroke-linejoin:round; stroke-width:2; stroke-opacity:0.1; fill:none" points="1247.07,1423.18 1247.07,123.472 "/>
<polyline clip-path="url(#clip782)" style="stroke:#000000; stroke-linecap:round; stroke-linejoin:round; stroke-width:2; stroke-opacity:0.1; fill:none" points="1674.19,1423.18 1674.19,123.472 "/>
<polyline clip-path="url(#clip782)" style="stroke:#000000; stroke-linecap:round; stroke-linejoin:round; stroke-width:2; stroke-opacity:0.1; fill:none" points="2101.31,1423.18 2101.31,123.472 "/>
<polyline clip-path="url(#clip782)" style="stroke:#000000; stroke-linecap:round; stroke-linejoin:round; stroke-width:2; stroke-opacity:0.1; fill:none" points="241.139,1346.59 2352.76,1346.59 "/>
<polyline clip-path="url(#clip782)" style="stroke:#000000; stroke-linecap:round; stroke-linejoin:round; stroke-width:2; stroke-opacity:0.1; fill:none" points="241.139,1080.69 2352.76,1080.69 "/>
<polyline clip-path="url(#clip782)" style="stroke:#000000; stroke-linecap:round; stroke-linejoin:round; stroke-width:2; stroke-opacity:0.1; fill:none" points="241.139,814.799 2352.76,814.799 "/>
<polyline clip-path="url(#clip782)" style="stroke:#000000; stroke-linecap:round; stroke-linejoin:round; stroke-width:2; stroke-opacity:0.1; fill:none" points="241.139,548.904 2352.76,548.904 "/>
<polyline clip-path="url(#clip782)" style="stroke:#000000; stroke-linecap:round; stroke-linejoin:round; stroke-width:2; stroke-opacity:0.1; fill:none" points="241.139,283.009 2352.76,283.009 "/>
<polyline clip-path="url(#clip780)" style="stroke:#000000; stroke-linecap:round; stroke-linejoin:round; stroke-width:4; stroke-opacity:1; fill:none" points="241.139,1423.18 2352.76,1423.18 "/>
<polyline clip-path="url(#clip780)" style="stroke:#000000; stroke-linecap:round; stroke-linejoin:round; stroke-width:4; stroke-opacity:1; fill:none" points="392.841,1423.18 392.841,1404.28 "/>
<polyline clip-path="url(#clip780)" style="stroke:#000000; stroke-linecap:round; stroke-linejoin:round; stroke-width:4; stroke-opacity:1; fill:none" points="819.957,1423.18 819.957,1404.28 "/>
<polyline clip-path="url(#clip780)" style="stroke:#000000; stroke-linecap:round; stroke-linejoin:round; stroke-width:4; stroke-opacity:1; fill:none" points="1247.07,1423.18 1247.07,1404.28 "/>
<polyline clip-path="url(#clip780)" style="stroke:#000000; stroke-linecap:round; stroke-linejoin:round; stroke-width:4; stroke-opacity:1; fill:none" points="1674.19,1423.18 1674.19,1404.28 "/>
<polyline clip-path="url(#clip780)" style="stroke:#000000; stroke-linecap:round; stroke-linejoin:round; stroke-width:4; stroke-opacity:1; fill:none" points="2101.31,1423.18 2101.31,1404.28 "/>
<path clip-path="url(#clip780)" d="M324.045 1468.75 L353.721 1468.75 L353.721 1472.69 L324.045 1472.69 L324.045 1468.75 Z" fill="#000000" fill-rule="nonzero" fill-opacity="1" /><path clip-path="url(#clip780)" d="M373.813 1454.1 Q370.202 1454.1 368.373 1457.66 Q366.568 1461.2 366.568 1468.33 Q366.568 1475.44 368.373 1479.01 Q370.202 1482.55 373.813 1482.55 Q377.447 1482.55 379.253 1479.01 Q381.082 1475.44 381.082 1468.33 Q381.082 1461.2 379.253 1457.66 Q377.447 1454.1 373.813 1454.1 M373.813 1450.39 Q379.623 1450.39 382.679 1455 Q385.758 1459.58 385.758 1468.33 Q385.758 1477.06 382.679 1481.67 Q379.623 1486.25 373.813 1486.25 Q368.003 1486.25 364.924 1481.67 Q361.869 1477.06 361.869 1468.33 Q361.869 1459.58 364.924 1455 Q368.003 1450.39 373.813 1450.39 Z" fill="#000000" fill-rule="nonzero" fill-opacity="1" /><path clip-path="url(#clip780)" d="M393.975 1479.7 L398.859 1479.7 L398.859 1485.58 L393.975 1485.58 L393.975 1479.7 Z" fill="#000000" fill-rule="nonzero" fill-opacity="1" /><path clip-path="url(#clip780)" d="M419.044 1454.1 Q415.433 1454.1 413.605 1457.66 Q411.799 1461.2 411.799 1468.33 Q411.799 1475.44 413.605 1479.01 Q415.433 1482.55 419.044 1482.55 Q422.679 1482.55 424.484 1479.01 Q426.313 1475.44 426.313 1468.33 Q426.313 1461.2 424.484 1457.66 Q422.679 1454.1 419.044 1454.1 M419.044 1450.39 Q424.855 1450.39 427.91 1455 Q430.989 1459.58 430.989 1468.33 Q430.989 1477.06 427.91 1481.67 Q424.855 1486.25 419.044 1486.25 Q413.234 1486.25 410.156 1481.67 Q407.1 1477.06 407.1 1468.33 Q407.1 1459.58 410.156 1455 Q413.234 1450.39 419.044 1450.39 Z" fill="#000000" fill-rule="nonzero" fill-opacity="1" /><path clip-path="url(#clip780)" d="M452.054 1455.09 L440.248 1473.54 L452.054 1473.54 L452.054 1455.09 M450.827 1451.02 L456.706 1451.02 L456.706 1473.54 L461.637 1473.54 L461.637 1477.43 L456.706 1477.43 L456.706 1485.58 L452.054 1485.58 L452.054 1477.43 L436.452 1477.43 L436.452 1472.92 L450.827 1451.02 Z" fill="#000000" fill-rule="nonzero" fill-opacity="1" /><path clip-path="url(#clip780)" d="M752.203 1468.75 L781.879 1468.75 L781.879 1472.69 L752.203 1472.69 L752.203 1468.75 Z" fill="#000000" fill-rule="nonzero" fill-opacity="1" /><path clip-path="url(#clip780)" d="M801.971 1454.1 Q798.36 1454.1 796.531 1457.66 Q794.726 1461.2 794.726 1468.33 Q794.726 1475.44 796.531 1479.01 Q798.36 1482.55 801.971 1482.55 Q805.605 1482.55 807.411 1479.01 Q809.239 1475.44 809.239 1468.33 Q809.239 1461.2 807.411 1457.66 Q805.605 1454.1 801.971 1454.1 M801.971 1450.39 Q807.781 1450.39 810.837 1455 Q813.915 1459.58 813.915 1468.33 Q813.915 1477.06 810.837 1481.67 Q807.781 1486.25 801.971 1486.25 Q796.161 1486.25 793.082 1481.67 Q790.027 1477.06 790.027 1468.33 Q790.027 1459.58 793.082 1455 Q796.161 1450.39 801.971 1450.39 Z" fill="#000000" fill-rule="nonzero" fill-opacity="1" /><path clip-path="url(#clip780)" d="M822.133 1479.7 L827.017 1479.7 L827.017 1485.58 L822.133 1485.58 L822.133 1479.7 Z" fill="#000000" fill-rule="nonzero" fill-opacity="1" /><path clip-path="url(#clip780)" d="M847.202 1454.1 Q843.591 1454.1 841.762 1457.66 Q839.957 1461.2 839.957 1468.33 Q839.957 1475.44 841.762 1479.01 Q843.591 1482.55 847.202 1482.55 Q850.836 1482.55 852.642 1479.01 Q854.471 1475.44 854.471 1468.33 Q854.471 1461.2 852.642 1457.66 Q850.836 1454.1 847.202 1454.1 M847.202 1450.39 Q853.012 1450.39 856.068 1455 Q859.147 1459.58 859.147 1468.33 Q859.147 1477.06 856.068 1481.67 Q853.012 1486.25 847.202 1486.25 Q841.392 1486.25 838.313 1481.67 Q835.258 1477.06 835.258 1468.33 Q835.258 1459.58 838.313 1455 Q841.392 1450.39 847.202 1450.39 Z" fill="#000000" fill-rule="nonzero" fill-opacity="1" /><path clip-path="url(#clip780)" d="M871.392 1481.64 L887.711 1481.64 L887.711 1485.58 L865.767 1485.58 L865.767 1481.64 Q868.429 1478.89 873.012 1474.26 Q877.619 1469.61 878.799 1468.27 Q881.045 1465.74 881.924 1464.01 Q882.827 1462.25 882.827 1460.56 Q882.827 1457.8 880.883 1456.07 Q878.961 1454.33 875.859 1454.33 Q873.66 1454.33 871.207 1455.09 Q868.776 1455.86 865.998 1457.41 L865.998 1452.69 Q868.822 1451.55 871.276 1450.97 Q873.73 1450.39 875.767 1450.39 Q881.137 1450.39 884.332 1453.08 Q887.526 1455.77 887.526 1460.26 Q887.526 1462.39 886.716 1464.31 Q885.929 1466.2 883.822 1468.8 Q883.244 1469.47 880.142 1472.69 Q877.04 1475.88 871.392 1481.64 Z" fill="#000000" fill-rule="nonzero" fill-opacity="1" /><path clip-path="url(#clip780)" d="M1209.38 1454.1 Q1205.77 1454.1 1203.94 1457.66 Q1202.13 1461.2 1202.13 1468.33 Q1202.13 1475.44 1203.94 1479.01 Q1205.77 1482.55 1209.38 1482.55 Q1213.01 1482.55 1214.82 1479.01 Q1216.65 1475.44 1216.65 1468.33 Q1216.65 1461.2 1214.82 1457.66 Q1213.01 1454.1 1209.38 1454.1 M1209.38 1450.39 Q1215.19 1450.39 1218.24 1455 Q1221.32 1459.58 1221.32 1468.33 Q1221.32 1477.06 1218.24 1481.67 Q1215.19 1486.25 1209.38 1486.25 Q1203.57 1486.25 1200.49 1481.67 Q1197.43 1477.06 1197.43 1468.33 Q1197.43 1459.58 1200.49 1455 Q1203.57 1450.39 1209.38 1450.39 Z" fill="#000000" fill-rule="nonzero" fill-opacity="1" /><path clip-path="url(#clip780)" d="M1229.54 1479.7 L1234.42 1479.7 L1234.42 1485.58 L1229.54 1485.58 L1229.54 1479.7 Z" fill="#000000" fill-rule="nonzero" fill-opacity="1" /><path clip-path="url(#clip780)" d="M1254.61 1454.1 Q1251 1454.1 1249.17 1457.66 Q1247.36 1461.2 1247.36 1468.33 Q1247.36 1475.44 1249.17 1479.01 Q1251 1482.55 1254.61 1482.55 Q1258.24 1482.55 1260.05 1479.01 Q1261.88 1475.44 1261.88 1468.33 Q1261.88 1461.2 1260.05 1457.66 Q1258.24 1454.1 1254.61 1454.1 M1254.61 1450.39 Q1260.42 1450.39 1263.47 1455 Q1266.55 1459.58 1266.55 1468.33 Q1266.55 1477.06 1263.47 1481.67 Q1260.42 1486.25 1254.61 1486.25 Q1248.8 1486.25 1245.72 1481.67 Q1242.66 1477.06 1242.66 1468.33 Q1242.66 1459.58 1245.72 1455 Q1248.8 1450.39 1254.61 1450.39 Z" fill="#000000" fill-rule="nonzero" fill-opacity="1" /><path clip-path="url(#clip780)" d="M1284.77 1454.1 Q1281.16 1454.1 1279.33 1457.66 Q1277.52 1461.2 1277.52 1468.33 Q1277.52 1475.44 1279.33 1479.01 Q1281.16 1482.55 1284.77 1482.55 Q1288.4 1482.55 1290.21 1479.01 Q1292.04 1475.44 1292.04 1468.33 Q1292.04 1461.2 1290.21 1457.66 Q1288.4 1454.1 1284.77 1454.1 M1284.77 1450.39 Q1290.58 1450.39 1293.64 1455 Q1296.71 1459.58 1296.71 1468.33 Q1296.71 1477.06 1293.64 1481.67 Q1290.58 1486.25 1284.77 1486.25 Q1278.96 1486.25 1275.88 1481.67 Q1272.83 1477.06 1272.83 1468.33 Q1272.83 1459.58 1275.88 1455 Q1278.96 1450.39 1284.77 1450.39 Z" fill="#000000" fill-rule="nonzero" fill-opacity="1" /><path clip-path="url(#clip780)" d="M1637.29 1454.1 Q1633.68 1454.1 1631.85 1457.66 Q1630.05 1461.2 1630.05 1468.33 Q1630.05 1475.44 1631.85 1479.01 Q1633.68 1482.55 1637.29 1482.55 Q1640.93 1482.55 1642.73 1479.01 Q1644.56 1475.44 1644.56 1468.33 Q1644.56 1461.2 1642.73 1457.66 Q1640.93 1454.1 1637.29 1454.1 M1637.29 1450.39 Q1643.1 1450.39 1646.16 1455 Q1649.24 1459.58 1649.24 1468.33 Q1649.24 1477.06 1646.16 1481.67 Q1643.1 1486.25 1637.29 1486.25 Q1631.48 1486.25 1628.4 1481.67 Q1625.35 1477.06 1625.35 1468.33 Q1625.35 1459.58 1628.4 1455 Q1631.48 1450.39 1637.29 1450.39 Z" fill="#000000" fill-rule="nonzero" fill-opacity="1" /><path clip-path="url(#clip780)" d="M1657.45 1479.7 L1662.34 1479.7 L1662.34 1485.58 L1657.45 1485.58 L1657.45 1479.7 Z" fill="#000000" fill-rule="nonzero" fill-opacity="1" /><path clip-path="url(#clip780)" d="M1682.52 1454.1 Q1678.91 1454.1 1677.08 1457.66 Q1675.28 1461.2 1675.28 1468.33 Q1675.28 1475.44 1677.08 1479.01 Q1678.91 1482.55 1682.52 1482.55 Q1686.16 1482.55 1687.96 1479.01 Q1689.79 1475.44 1689.79 1468.33 Q1689.79 1461.2 1687.96 1457.66 Q1686.16 1454.1 1682.52 1454.1 M1682.52 1450.39 Q1688.33 1450.39 1691.39 1455 Q1694.47 1459.58 1694.47 1468.33 Q1694.47 1477.06 1691.39 1481.67 Q1688.33 1486.25 1682.52 1486.25 Q1676.71 1486.25 1673.63 1481.67 Q1670.58 1477.06 1670.58 1468.33 Q1670.58 1459.58 1673.63 1455 Q1676.71 1450.39 1682.52 1450.39 Z" fill="#000000" fill-rule="nonzero" fill-opacity="1" /><path clip-path="url(#clip780)" d="M1706.71 1481.64 L1723.03 1481.64 L1723.03 1485.58 L1701.09 1485.58 L1701.09 1481.64 Q1703.75 1478.89 1708.33 1474.26 Q1712.94 1469.61 1714.12 1468.27 Q1716.37 1465.74 1717.24 1464.01 Q1718.15 1462.25 1718.15 1460.56 Q1718.15 1457.8 1716.2 1456.07 Q1714.28 1454.33 1711.18 1454.33 Q1708.98 1454.33 1706.53 1455.09 Q1704.1 1455.86 1701.32 1457.41 L1701.32 1452.69 Q1704.14 1451.55 1706.6 1450.97 Q1709.05 1450.39 1711.09 1450.39 Q1716.46 1450.39 1719.65 1453.08 Q1722.85 1455.77 1722.85 1460.26 Q1722.85 1462.39 1722.04 1464.31 Q1721.25 1466.2 1719.14 1468.8 Q1718.56 1469.47 1715.46 1472.69 Q1712.36 1475.88 1706.71 1481.64 Z" fill="#000000" fill-rule="nonzero" fill-opacity="1" /><path clip-path="url(#clip780)" d="M2063.37 1454.1 Q2059.75 1454.1 2057.93 1457.66 Q2056.12 1461.2 2056.12 1468.33 Q2056.12 1475.44 2057.93 1479.01 Q2059.75 1482.55 2063.37 1482.55 Q2067 1482.55 2068.81 1479.01 Q2070.63 1475.44 2070.63 1468.33 Q2070.63 1461.2 2068.81 1457.66 Q2067 1454.1 2063.37 1454.1 M2063.37 1450.39 Q2069.18 1450.39 2072.23 1455 Q2075.31 1459.58 2075.31 1468.33 Q2075.31 1477.06 2072.23 1481.67 Q2069.18 1486.25 2063.37 1486.25 Q2057.56 1486.25 2054.48 1481.67 Q2051.42 1477.06 2051.42 1468.33 Q2051.42 1459.58 2054.48 1455 Q2057.56 1450.39 2063.37 1450.39 Z" fill="#000000" fill-rule="nonzero" fill-opacity="1" /><path clip-path="url(#clip780)" d="M2083.53 1479.7 L2088.41 1479.7 L2088.41 1485.58 L2083.53 1485.58 L2083.53 1479.7 Z" fill="#000000" fill-rule="nonzero" fill-opacity="1" /><path clip-path="url(#clip780)" d="M2108.6 1454.1 Q2104.99 1454.1 2103.16 1457.66 Q2101.35 1461.2 2101.35 1468.33 Q2101.35 1475.44 2103.16 1479.01 Q2104.99 1482.55 2108.6 1482.55 Q2112.23 1482.55 2114.04 1479.01 Q2115.87 1475.44 2115.87 1468.33 Q2115.87 1461.2 2114.04 1457.66 Q2112.23 1454.1 2108.6 1454.1 M2108.6 1450.39 Q2114.41 1450.39 2117.46 1455 Q2120.54 1459.58 2120.54 1468.33 Q2120.54 1477.06 2117.46 1481.67 Q2114.41 1486.25 2108.6 1486.25 Q2102.79 1486.25 2099.71 1481.67 Q2096.65 1477.06 2096.65 1468.33 Q2096.65 1459.58 2099.71 1455 Q2102.79 1450.39 2108.6 1450.39 Z" fill="#000000" fill-rule="nonzero" fill-opacity="1" /><path clip-path="url(#clip780)" d="M2141.61 1455.09 L2129.8 1473.54 L2141.61 1473.54 L2141.61 1455.09 M2140.38 1451.02 L2146.26 1451.02 L2146.26 1473.54 L2151.19 1473.54 L2151.19 1477.43 L2146.26 1477.43 L2146.26 1485.58 L2141.61 1485.58 L2141.61 1477.43 L2126 1477.43 L2126 1472.92 L2140.38 1451.02 Z" fill="#000000" fill-rule="nonzero" fill-opacity="1" /><path clip-path="url(#clip780)" d="M739.885 1520.52 L746.314 1520.52 L746.314 1562.63 L769.453 1562.63 L769.453 1568.04 L739.885 1568.04 L739.885 1520.52 Z" fill="#000000" fill-rule="nonzero" fill-opacity="1" /><path clip-path="url(#clip780)" d="M805.292 1548.76 L805.292 1551.62 L778.365 1551.62 Q778.747 1557.67 781.994 1560.85 Q785.272 1564 791.097 1564 Q794.471 1564 797.622 1563.17 Q800.804 1562.35 803.924 1560.69 L803.924 1566.23 Q800.773 1567.57 797.462 1568.27 Q794.152 1568.97 790.747 1568.97 Q782.217 1568.97 777.219 1564 Q772.254 1559.04 772.254 1550.57 Q772.254 1541.82 776.965 1536.69 Q781.707 1531.54 789.728 1531.54 Q796.921 1531.54 801.091 1536.18 Q805.292 1540.8 805.292 1548.76 M799.436 1547.04 Q799.372 1542.23 796.73 1539.37 Q794.12 1536.5 789.792 1536.5 Q784.89 1536.5 781.93 1539.27 Q779.002 1542.04 778.556 1547.07 L799.436 1547.04 Z" fill="#000000" fill-rule="nonzero" fill-opacity="1" /><path clip-path="url(#clip780)" d="M831.105 1550.12 Q824.007 1550.12 821.27 1551.75 Q818.533 1553.37 818.533 1557.29 Q818.533 1560.4 820.57 1562.25 Q822.639 1564.07 826.172 1564.07 Q831.042 1564.07 833.97 1560.63 Q836.93 1557.16 836.93 1551.43 L836.93 1550.12 L831.105 1550.12 M842.786 1547.71 L842.786 1568.04 L836.93 1568.04 L836.93 1562.63 Q834.925 1565.88 831.933 1567.44 Q828.941 1568.97 824.612 1568.97 Q819.138 1568.97 815.891 1565.91 Q812.676 1562.82 812.676 1557.67 Q812.676 1551.65 816.687 1548.6 Q820.729 1545.54 828.718 1545.54 L836.93 1545.54 L836.93 1544.97 Q836.93 1540.93 834.256 1538.73 Q831.614 1536.5 826.808 1536.5 Q823.753 1536.5 820.856 1537.23 Q817.96 1537.97 815.286 1539.43 L815.286 1534.02 Q818.501 1532.78 821.525 1532.17 Q824.549 1531.54 827.413 1531.54 Q835.147 1531.54 838.967 1535.55 Q842.786 1539.56 842.786 1547.71 Z" fill="#000000" fill-rule="nonzero" fill-opacity="1" /><path clip-path="url(#clip780)" d="M878.307 1537.81 L878.307 1518.52 L884.163 1518.52 L884.163 1568.04 L878.307 1568.04 L878.307 1562.7 Q876.461 1565.88 873.628 1567.44 Q870.827 1568.97 866.88 1568.97 Q860.419 1568.97 856.345 1563.81 Q852.303 1558.65 852.303 1550.25 Q852.303 1541.85 856.345 1536.69 Q860.419 1531.54 866.88 1531.54 Q870.827 1531.54 873.628 1533.1 Q876.461 1534.62 878.307 1537.81 M858.35 1550.25 Q858.35 1556.71 860.992 1560.4 Q863.666 1564.07 868.313 1564.07 Q872.96 1564.07 875.633 1560.4 Q878.307 1556.71 878.307 1550.25 Q878.307 1543.79 875.633 1540.13 Q872.96 1536.44 868.313 1536.44 Q863.666 1536.44 860.992 1540.13 Q858.35 1543.79 858.35 1550.25 Z" fill="#000000" fill-rule="nonzero" fill-opacity="1" /><path clip-path="url(#clip780)" d="M926.718 1548.76 L926.718 1551.62 L899.791 1551.62 Q900.173 1557.67 903.42 1560.85 Q906.698 1564 912.523 1564 Q915.896 1564 919.047 1563.17 Q922.23 1562.35 925.349 1560.69 L925.349 1566.23 Q922.198 1567.57 918.888 1568.27 Q915.578 1568.97 912.172 1568.97 Q903.642 1568.97 898.645 1564 Q893.68 1559.04 893.68 1550.57 Q893.68 1541.82 898.391 1536.69 Q903.133 1531.54 911.154 1531.54 Q918.347 1531.54 922.517 1536.18 Q926.718 1540.8 926.718 1548.76 M920.862 1547.04 Q920.798 1542.23 918.156 1539.37 Q915.546 1536.5 911.218 1536.5 Q906.316 1536.5 903.356 1539.27 Q900.428 1542.04 899.982 1547.07 L920.862 1547.04 Z" fill="#000000" fill-rule="nonzero" fill-opacity="1" /><path clip-path="url(#clip780)" d="M956.987 1537.87 Q956 1537.3 954.823 1537.04 Q953.677 1536.76 952.276 1536.76 Q947.311 1536.76 944.638 1540 Q941.996 1543.22 941.996 1549.27 L941.996 1568.04 L936.108 1568.04 L936.108 1532.4 L941.996 1532.4 L941.996 1537.93 Q943.842 1534.69 946.802 1533.13 Q949.762 1531.54 953.995 1531.54 Q954.6 1531.54 955.332 1531.63 Q956.064 1531.7 956.955 1531.85 L956.987 1537.87 Z" fill="#000000" fill-rule="nonzero" fill-opacity="1" /><path clip-path="url(#clip780)" d="M968.668 1520.52 L968.668 1538.19 L963.257 1538.19 L963.257 1520.52 L968.668 1520.52 Z" fill="#000000" fill-rule="nonzero" fill-opacity="1" /><path clip-path="url(#clip780)" d="M1003.77 1533.45 L1003.77 1538.98 Q1001.29 1537.71 998.619 1537.07 Q995.945 1536.44 993.081 1536.44 Q988.72 1536.44 986.524 1537.77 Q984.36 1539.11 984.36 1541.79 Q984.36 1543.82 985.919 1545 Q987.479 1546.15 992.189 1547.2 L994.195 1547.64 Q1000.43 1548.98 1003.04 1551.43 Q1005.68 1553.85 1005.68 1558.21 Q1005.68 1563.17 1001.74 1566.07 Q997.823 1568.97 990.948 1568.97 Q988.084 1568.97 984.964 1568.39 Q981.877 1567.85 978.439 1566.74 L978.439 1560.69 Q981.686 1562.38 984.837 1563.24 Q987.988 1564.07 991.075 1564.07 Q995.213 1564.07 997.441 1562.66 Q999.669 1561.23 999.669 1558.65 Q999.669 1556.27 998.046 1554.99 Q996.454 1553.72 991.012 1552.54 L988.975 1552.07 Q983.532 1550.92 981.113 1548.56 Q978.694 1546.18 978.694 1542.04 Q978.694 1537.01 982.259 1534.27 Q985.824 1531.54 992.38 1531.54 Q995.627 1531.54 998.491 1532.01 Q1001.36 1532.49 1003.77 1533.45 Z" fill="#000000" fill-rule="nonzero" fill-opacity="1" /><path clip-path="url(#clip780)" d="M1041.4 1562.7 L1041.4 1581.6 L1035.51 1581.6 L1035.51 1532.4 L1041.4 1532.4 L1041.4 1537.81 Q1043.24 1534.62 1046.04 1533.1 Q1048.88 1531.54 1052.79 1531.54 Q1059.28 1531.54 1063.33 1536.69 Q1067.4 1541.85 1067.4 1550.25 Q1067.4 1558.65 1063.33 1563.81 Q1059.28 1568.97 1052.79 1568.97 Q1048.88 1568.97 1046.04 1567.44 Q1043.24 1565.88 1041.4 1562.7 M1061.32 1550.25 Q1061.32 1543.79 1058.65 1540.13 Q1056.01 1536.44 1051.36 1536.44 Q1046.71 1536.44 1044.04 1540.13 Q1041.4 1543.79 1041.4 1550.25 Q1041.4 1556.71 1044.04 1560.4 Q1046.71 1564.07 1051.36 1564.07 Q1056.01 1564.07 1058.65 1560.4 Q1061.32 1556.71 1061.32 1550.25 Z" fill="#000000" fill-rule="nonzero" fill-opacity="1" /><path clip-path="url(#clip780)" d="M1097.76 1537.87 Q1096.78 1537.3 1095.6 1537.04 Q1094.45 1536.76 1093.05 1536.76 Q1088.09 1536.76 1085.42 1540 Q1082.77 1543.22 1082.77 1549.27 L1082.77 1568.04 L1076.89 1568.04 L1076.89 1532.4 L1082.77 1532.4 L1082.77 1537.93 Q1084.62 1534.69 1087.58 1533.13 Q1090.54 1531.54 1094.77 1531.54 Q1095.38 1531.54 1096.11 1531.63 Q1096.84 1531.7 1097.73 1531.85 L1097.76 1537.87 Z" fill="#000000" fill-rule="nonzero" fill-opacity="1" /><path clip-path="url(#clip780)" d="M1103.91 1532.4 L1109.76 1532.4 L1109.76 1568.04 L1103.91 1568.04 L1103.91 1532.4 M1103.91 1518.52 L1109.76 1518.52 L1109.76 1525.93 L1103.91 1525.93 L1103.91 1518.52 Z" fill="#000000" fill-rule="nonzero" fill-opacity="1" /><path clip-path="url(#clip780)" d="M1147.67 1533.76 L1147.67 1539.24 Q1145.19 1537.87 1142.67 1537.2 Q1140.19 1536.5 1137.65 1536.5 Q1131.95 1536.5 1128.8 1540.13 Q1125.65 1543.73 1125.65 1550.25 Q1125.65 1556.78 1128.8 1560.4 Q1131.95 1564 1137.65 1564 Q1140.19 1564 1142.67 1563.33 Q1145.19 1562.63 1147.67 1561.26 L1147.67 1566.68 Q1145.22 1567.82 1142.58 1568.39 Q1139.97 1568.97 1137.01 1568.97 Q1128.96 1568.97 1124.21 1563.91 Q1119.47 1558.85 1119.47 1550.25 Q1119.47 1541.53 1124.25 1536.53 Q1129.05 1531.54 1137.39 1531.54 Q1140.1 1531.54 1142.67 1532.11 Q1145.25 1532.65 1147.67 1533.76 Z" fill="#000000" fill-rule="nonzero" fill-opacity="1" /><path clip-path="url(#clip780)" d="M1188.35 1548.76 L1188.35 1551.62 L1161.42 1551.62 Q1161.8 1557.67 1165.05 1560.85 Q1168.33 1564 1174.15 1564 Q1177.53 1564 1180.68 1563.17 Q1183.86 1562.35 1186.98 1560.69 L1186.98 1566.23 Q1183.83 1567.57 1180.52 1568.27 Q1177.21 1568.97 1173.8 1568.97 Q1165.27 1568.97 1160.28 1564 Q1155.31 1559.04 1155.31 1550.57 Q1155.31 1541.82 1160.02 1536.69 Q1164.76 1531.54 1172.78 1531.54 Q1179.98 1531.54 1184.15 1536.18 Q1188.35 1540.8 1188.35 1548.76 M1182.49 1547.04 Q1182.43 1542.23 1179.79 1539.37 Q1177.18 1536.5 1172.85 1536.5 Q1167.95 1536.5 1164.99 1539.27 Q1162.06 1542.04 1161.61 1547.07 L1182.49 1547.04 Z" fill="#000000" fill-rule="nonzero" fill-opacity="1" /><path clip-path="url(#clip780)" d="M1220.62 1562.63 L1231.13 1562.63 L1231.13 1526.38 L1219.7 1528.67 L1219.7 1522.82 L1231.06 1520.52 L1237.49 1520.52 L1237.49 1562.63 L1248 1562.63 L1248 1568.04 L1220.62 1568.04 L1220.62 1562.63 Z" fill="#000000" fill-rule="nonzero" fill-opacity="1" /><path clip-path="url(#clip780)" d="M1282.88 1533.45 L1282.88 1538.98 Q1280.4 1537.71 1277.72 1537.07 Q1275.05 1536.44 1272.19 1536.44 Q1267.82 1536.44 1265.63 1537.77 Q1263.46 1539.11 1263.46 1541.79 Q1263.46 1543.82 1265.02 1545 Q1266.58 1546.15 1271.29 1547.2 L1273.3 1547.64 Q1279.54 1548.98 1282.15 1551.43 Q1284.79 1553.85 1284.79 1558.21 Q1284.79 1563.17 1280.84 1566.07 Q1276.93 1568.97 1270.05 1568.97 Q1267.19 1568.97 1264.07 1568.39 Q1260.98 1567.85 1257.54 1566.74 L1257.54 1560.69 Q1260.79 1562.38 1263.94 1563.24 Q1267.09 1564.07 1270.18 1564.07 Q1274.32 1564.07 1276.55 1562.66 Q1278.77 1561.23 1278.77 1558.65 Q1278.77 1556.27 1277.15 1554.99 Q1275.56 1553.72 1270.12 1552.54 L1268.08 1552.07 Q1262.64 1550.92 1260.22 1548.56 Q1257.8 1546.18 1257.8 1542.04 Q1257.8 1537.01 1261.36 1534.27 Q1264.93 1531.54 1271.48 1531.54 Q1274.73 1531.54 1277.6 1532.01 Q1280.46 1532.49 1282.88 1533.45 Z" fill="#000000" fill-rule="nonzero" fill-opacity="1" /><path clip-path="url(#clip780)" d="M1299.91 1522.27 L1299.91 1532.4 L1311.97 1532.4 L1311.97 1536.95 L1299.91 1536.95 L1299.91 1556.3 Q1299.91 1560.66 1301.09 1561.9 Q1302.29 1563.14 1305.96 1563.14 L1311.97 1563.14 L1311.97 1568.04 L1305.96 1568.04 Q1299.18 1568.04 1296.6 1565.53 Q1294.02 1562.98 1294.02 1556.3 L1294.02 1536.95 L1289.72 1536.95 L1289.72 1532.4 L1294.02 1532.4 L1294.02 1522.27 L1299.91 1522.27 Z" fill="#000000" fill-rule="nonzero" fill-opacity="1" /><path clip-path="url(#clip780)" d="M1363.85 1537.81 L1363.85 1518.52 L1369.71 1518.52 L1369.71 1568.04 L1363.85 1568.04 L1363.85 1562.7 Q1362.01 1565.88 1359.17 1567.44 Q1356.37 1568.97 1352.42 1568.97 Q1345.96 1568.97 1341.89 1563.81 Q1337.85 1558.65 1337.85 1550.25 Q1337.85 1541.85 1341.89 1536.69 Q1345.96 1531.54 1352.42 1531.54 Q1356.37 1531.54 1359.17 1533.1 Q1362.01 1534.62 1363.85 1537.81 M1343.89 1550.25 Q1343.89 1556.71 1346.54 1560.4 Q1349.21 1564.07 1353.86 1564.07 Q1358.5 1564.07 1361.18 1560.4 Q1363.85 1556.71 1363.85 1550.25 Q1363.85 1543.79 1361.18 1540.13 Q1358.5 1536.44 1353.86 1536.44 Q1349.21 1536.44 1346.54 1540.13 Q1343.89 1543.79 1343.89 1550.25 Z" fill="#000000" fill-rule="nonzero" fill-opacity="1" /><path clip-path="url(#clip780)" d="M1412.26 1548.76 L1412.26 1551.62 L1385.34 1551.62 Q1385.72 1557.67 1388.96 1560.85 Q1392.24 1564 1398.07 1564 Q1401.44 1564 1404.59 1563.17 Q1407.77 1562.35 1410.89 1560.69 L1410.89 1566.23 Q1407.74 1567.57 1404.43 1568.27 Q1401.12 1568.97 1397.72 1568.97 Q1389.19 1568.97 1384.19 1564 Q1379.22 1559.04 1379.22 1550.57 Q1379.22 1541.82 1383.93 1536.69 Q1388.68 1531.54 1396.7 1531.54 Q1403.89 1531.54 1408.06 1536.18 Q1412.26 1540.8 1412.26 1548.76 M1406.41 1547.04 Q1406.34 1542.23 1403.7 1539.37 Q1401.09 1536.5 1396.76 1536.5 Q1391.86 1536.5 1388.9 1539.27 Q1385.97 1542.04 1385.53 1547.07 L1406.41 1547.04 Z" fill="#000000" fill-rule="nonzero" fill-opacity="1" /><path clip-path="url(#clip780)" d="M1442.53 1537.87 Q1441.54 1537.3 1440.37 1537.04 Q1439.22 1536.76 1437.82 1536.76 Q1432.86 1536.76 1430.18 1540 Q1427.54 1543.22 1427.54 1549.27 L1427.54 1568.04 L1421.65 1568.04 L1421.65 1532.4 L1427.54 1532.4 L1427.54 1537.93 Q1429.39 1534.69 1432.35 1533.13 Q1435.31 1531.54 1439.54 1531.54 Q1440.14 1531.54 1440.88 1531.63 Q1441.61 1531.7 1442.5 1531.85 L1442.53 1537.87 Z" fill="#000000" fill-rule="nonzero" fill-opacity="1" /><path clip-path="url(#clip780)" d="M1448.67 1532.4 L1454.53 1532.4 L1454.53 1568.04 L1448.67 1568.04 L1448.67 1532.4 M1448.67 1518.52 L1454.53 1518.52 L1454.53 1525.93 L1448.67 1525.93 L1448.67 1518.52 Z" fill="#000000" fill-rule="nonzero" fill-opacity="1" /><path clip-path="url(#clip780)" d="M1462.58 1532.4 L1468.79 1532.4 L1479.93 1562.31 L1491.07 1532.4 L1497.28 1532.4 L1483.91 1568.04 L1475.95 1568.04 L1462.58 1532.4 Z" fill="#000000" fill-rule="nonzero" fill-opacity="1" /><path clip-path="url(#clip780)" d="M1526.08 1518.52 L1531.94 1518.52 L1531.94 1568.04 L1526.08 1568.04 L1526.08 1518.52 Z" fill="#000000" fill-rule="nonzero" fill-opacity="1" /><path clip-path="url(#clip780)" d="M1560.39 1550.12 Q1553.29 1550.12 1550.56 1551.75 Q1547.82 1553.37 1547.82 1557.29 Q1547.82 1560.4 1549.86 1562.25 Q1551.93 1564.07 1555.46 1564.07 Q1560.33 1564.07 1563.26 1560.63 Q1566.22 1557.16 1566.22 1551.43 L1566.22 1550.12 L1560.39 1550.12 M1572.07 1547.71 L1572.07 1568.04 L1566.22 1568.04 L1566.22 1562.63 Q1564.21 1565.88 1561.22 1567.44 Q1558.23 1568.97 1553.9 1568.97 Q1548.42 1568.97 1545.18 1565.91 Q1541.96 1562.82 1541.96 1557.67 Q1541.96 1551.65 1545.97 1548.6 Q1550.02 1545.54 1558.01 1545.54 L1566.22 1545.54 L1566.22 1544.97 Q1566.22 1540.93 1563.54 1538.73 Q1560.9 1536.5 1556.1 1536.5 Q1553.04 1536.5 1550.14 1537.23 Q1547.25 1537.97 1544.57 1539.43 L1544.57 1534.02 Q1547.79 1532.78 1550.81 1532.17 Q1553.84 1531.54 1556.7 1531.54 Q1564.43 1531.54 1568.25 1535.55 Q1572.07 1539.56 1572.07 1547.71 Z" fill="#000000" fill-rule="nonzero" fill-opacity="1" /><path clip-path="url(#clip780)" d="M1606.86 1533.45 L1606.86 1538.98 Q1604.38 1537.71 1601.71 1537.07 Q1599.03 1536.44 1596.17 1536.44 Q1591.81 1536.44 1589.61 1537.77 Q1587.45 1539.11 1587.45 1541.79 Q1587.45 1543.82 1589.01 1545 Q1590.57 1546.15 1595.28 1547.2 L1597.28 1547.64 Q1603.52 1548.98 1606.13 1551.43 Q1608.77 1553.85 1608.77 1558.21 Q1608.77 1563.17 1604.83 1566.07 Q1600.91 1568.97 1594.04 1568.97 Q1591.17 1568.97 1588.05 1568.39 Q1584.96 1567.85 1581.53 1566.74 L1581.53 1560.69 Q1584.77 1562.38 1587.92 1563.24 Q1591.08 1564.07 1594.16 1564.07 Q1598.3 1564.07 1600.53 1562.66 Q1602.76 1561.23 1602.76 1558.65 Q1602.76 1556.27 1601.13 1554.99 Q1599.54 1553.72 1594.1 1552.54 L1592.06 1552.07 Q1586.62 1550.92 1584.2 1548.56 Q1581.78 1546.18 1581.78 1542.04 Q1581.78 1537.01 1585.35 1534.27 Q1588.91 1531.54 1595.47 1531.54 Q1598.71 1531.54 1601.58 1532.01 Q1604.44 1532.49 1606.86 1533.45 Z" fill="#000000" fill-rule="nonzero" fill-opacity="1" /><path clip-path="url(#clip780)" d="M1623.89 1522.27 L1623.89 1532.4 L1635.95 1532.4 L1635.95 1536.95 L1623.89 1536.95 L1623.89 1556.3 Q1623.89 1560.66 1625.07 1561.9 Q1626.28 1563.14 1629.94 1563.14 L1635.95 1563.14 L1635.95 1568.04 L1629.94 1568.04 Q1623.16 1568.04 1620.58 1565.53 Q1618 1562.98 1618 1556.3 L1618 1536.95 L1613.71 1536.95 L1613.71 1532.4 L1618 1532.4 L1618 1522.27 L1623.89 1522.27 Z" fill="#000000" fill-rule="nonzero" fill-opacity="1" /><path clip-path="url(#clip780)" d="M1684.68 1542.42 Q1689.3 1543.41 1691.88 1546.53 Q1694.49 1549.65 1694.49 1554.23 Q1694.49 1561.26 1689.65 1565.12 Q1684.81 1568.97 1675.9 1568.97 Q1672.91 1568.97 1669.72 1568.36 Q1666.57 1567.79 1663.2 1566.61 L1663.2 1560.4 Q1665.87 1561.96 1669.05 1562.76 Q1672.24 1563.56 1675.71 1563.56 Q1681.75 1563.56 1684.91 1561.17 Q1688.09 1558.78 1688.09 1554.23 Q1688.09 1550.03 1685.13 1547.67 Q1682.2 1545.29 1676.95 1545.29 L1671.41 1545.29 L1671.41 1540 L1677.2 1540 Q1681.95 1540 1684.46 1538.13 Q1686.97 1536.22 1686.97 1532.65 Q1686.97 1528.99 1684.36 1527.05 Q1681.79 1525.08 1676.95 1525.08 Q1674.31 1525.08 1671.28 1525.65 Q1668.26 1526.22 1664.63 1527.43 L1664.63 1521.7 Q1668.29 1520.68 1671.47 1520.17 Q1674.69 1519.66 1677.52 1519.66 Q1684.84 1519.66 1689.11 1523.01 Q1693.37 1526.32 1693.37 1531.98 Q1693.37 1535.93 1691.11 1538.67 Q1688.85 1541.37 1684.68 1542.42 Z" fill="#000000" fill-rule="nonzero" fill-opacity="1" /><path clip-path="url(#clip780)" d="M1742.77 1550.12 Q1735.67 1550.12 1732.93 1551.75 Q1730.2 1553.37 1730.2 1557.29 Q1730.2 1560.4 1732.23 1562.25 Q1734.3 1564.07 1737.84 1564.07 Q1742.71 1564.07 1745.63 1560.63 Q1748.59 1557.16 1748.59 1551.43 L1748.59 1550.12 L1742.77 1550.12 M1754.45 1547.71 L1754.45 1568.04 L1748.59 1568.04 L1748.59 1562.63 Q1746.59 1565.88 1743.6 1567.44 Q1740.61 1568.97 1736.28 1568.97 Q1730.8 1568.97 1727.56 1565.91 Q1724.34 1562.82 1724.34 1557.67 Q1724.34 1551.65 1728.35 1548.6 Q1732.39 1545.54 1740.38 1545.54 L1748.59 1545.54 L1748.59 1544.97 Q1748.59 1540.93 1745.92 1538.73 Q1743.28 1536.5 1738.47 1536.5 Q1735.42 1536.5 1732.52 1537.23 Q1729.62 1537.97 1726.95 1539.43 L1726.95 1534.02 Q1730.17 1532.78 1733.19 1532.17 Q1736.21 1531.54 1739.08 1531.54 Q1746.81 1531.54 1750.63 1535.55 Q1754.45 1539.56 1754.45 1547.71 Z" fill="#000000" fill-rule="nonzero" fill-opacity="1" /><path clip-path="url(#clip780)" d="M1762.31 1532.4 L1768.52 1532.4 L1779.66 1562.31 L1790.8 1532.4 L1797.01 1532.4 L1783.64 1568.04 L1775.68 1568.04 L1762.31 1532.4 Z" fill="#000000" fill-rule="nonzero" fill-opacity="1" /><path clip-path="url(#clip780)" d="M1828.55 1549.81 Q1828.55 1543.44 1825.91 1539.94 Q1823.3 1536.44 1818.55 1536.44 Q1813.84 1536.44 1811.2 1539.94 Q1808.59 1543.44 1808.59 1549.81 Q1808.59 1556.14 1811.2 1559.64 Q1813.84 1563.14 1818.55 1563.14 Q1823.3 1563.14 1825.91 1559.64 Q1828.55 1556.14 1828.55 1549.81 M1834.4 1563.62 Q1834.4 1572.72 1830.36 1577.15 Q1826.32 1581.6 1817.98 1581.6 Q1814.89 1581.6 1812.16 1581.13 Q1809.42 1580.68 1806.84 1579.72 L1806.84 1574.03 Q1809.42 1575.43 1811.93 1576.1 Q1814.45 1576.76 1817.06 1576.76 Q1822.82 1576.76 1825.68 1573.74 Q1828.55 1570.75 1828.55 1564.67 L1828.55 1561.77 Q1826.73 1564.92 1823.9 1566.48 Q1821.07 1568.04 1817.12 1568.04 Q1810.56 1568.04 1806.55 1563.05 Q1802.54 1558.05 1802.54 1549.81 Q1802.54 1541.53 1806.55 1536.53 Q1810.56 1531.54 1817.12 1531.54 Q1821.07 1531.54 1823.9 1533.1 Q1826.73 1534.66 1828.55 1537.81 L1828.55 1532.4 L1834.4 1532.4 L1834.4 1563.62 Z" fill="#000000" fill-rule="nonzero" fill-opacity="1" /><path clip-path="url(#clip780)" d="M1847.29 1559.96 L1854.01 1559.96 L1854.01 1568.04 L1847.29 1568.04 L1847.29 1559.96 Z" fill="#000000" fill-rule="nonzero" fill-opacity="1" /><polyline clip-path="url(#clip780)" style="stroke:#000000; stroke-linecap:round; stroke-linejoin:round; stroke-width:4; stroke-opacity:1; fill:none" points="241.139,1423.18 241.139,123.472 "/>
<polyline clip-path="url(#clip780)" style="stroke:#000000; stroke-linecap:round; stroke-linejoin:round; stroke-width:4; stroke-opacity:1; fill:none" points="241.139,1346.59 260.037,1346.59 "/>
<polyline clip-path="url(#clip780)" style="stroke:#000000; stroke-linecap:round; stroke-linejoin:round; stroke-width:4; stroke-opacity:1; fill:none" points="241.139,1080.69 260.037,1080.69 "/>
<polyline clip-path="url(#clip780)" style="stroke:#000000; stroke-linecap:round; stroke-linejoin:round; stroke-width:4; stroke-opacity:1; fill:none" points="241.139,814.799 260.037,814.799 "/>
<polyline clip-path="url(#clip780)" style="stroke:#000000; stroke-linecap:round; stroke-linejoin:round; stroke-width:4; stroke-opacity:1; fill:none" points="241.139,548.904 260.037,548.904 "/>
<polyline clip-path="url(#clip780)" style="stroke:#000000; stroke-linecap:round; stroke-linejoin:round; stroke-width:4; stroke-opacity:1; fill:none" points="241.139,283.009 260.037,283.009 "/>
<path clip-path="url(#clip780)" d="M114.26 1347.04 L143.936 1347.04 L143.936 1350.98 L114.26 1350.98 L114.26 1347.04 Z" fill="#000000" fill-rule="nonzero" fill-opacity="1" /><path clip-path="url(#clip780)" d="M158.056 1359.93 L174.376 1359.93 L174.376 1363.87 L152.431 1363.87 L152.431 1359.93 Q155.093 1357.18 159.677 1352.55 Q164.283 1347.9 165.464 1346.55 Q167.709 1344.03 168.589 1342.29 Q169.491 1340.54 169.491 1338.85 Q169.491 1336.09 167.547 1334.35 Q165.626 1332.62 162.524 1332.62 Q160.325 1332.62 157.871 1333.38 Q155.44 1334.15 152.663 1335.7 L152.663 1330.98 Q155.487 1329.84 157.94 1329.26 Q160.394 1328.68 162.431 1328.68 Q167.802 1328.68 170.996 1331.37 Q174.19 1334.05 174.19 1338.54 Q174.19 1340.67 173.38 1342.6 Q172.593 1344.49 170.487 1347.09 Q169.908 1347.76 166.806 1350.98 Q163.704 1354.17 158.056 1359.93 Z" fill="#000000" fill-rule="nonzero" fill-opacity="1" /><path clip-path="url(#clip780)" d="M184.237 1329.31 L202.593 1329.31 L202.593 1333.24 L188.519 1333.24 L188.519 1341.72 Q189.538 1341.37 190.556 1341.21 Q191.575 1341.02 192.593 1341.02 Q198.38 1341.02 201.76 1344.19 Q205.139 1347.36 205.139 1352.78 Q205.139 1358.36 201.667 1361.46 Q198.195 1364.54 191.875 1364.54 Q189.7 1364.54 187.431 1364.17 Q185.186 1363.8 182.778 1363.06 L182.778 1358.36 Q184.862 1359.49 187.084 1360.05 Q189.306 1360.6 191.783 1360.6 Q195.787 1360.6 198.125 1358.5 Q200.463 1356.39 200.463 1352.78 Q200.463 1349.17 198.125 1347.06 Q195.787 1344.96 191.783 1344.96 Q189.908 1344.96 188.033 1345.37 Q186.181 1345.79 184.237 1346.67 L184.237 1329.31 Z" fill="#000000" fill-rule="nonzero" fill-opacity="1" /><path clip-path="url(#clip780)" d="M193.195 1066.49 Q189.584 1066.49 187.755 1070.06 Q185.95 1073.6 185.95 1080.73 Q185.95 1087.83 187.755 1091.4 Q189.584 1094.94 193.195 1094.94 Q196.829 1094.94 198.635 1091.4 Q200.463 1087.83 200.463 1080.73 Q200.463 1073.6 198.635 1070.06 Q196.829 1066.49 193.195 1066.49 M193.195 1062.79 Q199.005 1062.79 202.061 1067.4 Q205.139 1071.98 205.139 1080.73 Q205.139 1089.46 202.061 1094.06 Q199.005 1098.65 193.195 1098.65 Q187.385 1098.65 184.306 1094.06 Q181.251 1089.46 181.251 1080.73 Q181.251 1071.98 184.306 1067.4 Q187.385 1062.79 193.195 1062.79 Z" fill="#000000" fill-rule="nonzero" fill-opacity="1" /><path clip-path="url(#clip780)" d="M158.056 828.144 L174.376 828.144 L174.376 832.079 L152.431 832.079 L152.431 828.144 Q155.093 825.389 159.677 820.759 Q164.283 816.107 165.464 814.764 Q167.709 812.241 168.589 810.505 Q169.491 808.746 169.491 807.056 Q169.491 804.301 167.547 802.565 Q165.626 800.829 162.524 800.829 Q160.325 800.829 157.871 801.593 Q155.44 802.357 152.663 803.908 L152.663 799.185 Q155.487 798.051 157.94 797.473 Q160.394 796.894 162.431 796.894 Q167.802 796.894 170.996 799.579 Q174.19 802.264 174.19 806.755 Q174.19 808.885 173.38 810.806 Q172.593 812.704 170.487 815.297 Q169.908 815.968 166.806 819.185 Q163.704 822.38 158.056 828.144 Z" fill="#000000" fill-rule="nonzero" fill-opacity="1" /><path clip-path="url(#clip780)" d="M184.237 797.519 L202.593 797.519 L202.593 801.454 L188.519 801.454 L188.519 809.926 Q189.538 809.579 190.556 809.417 Q191.575 809.232 192.593 809.232 Q198.38 809.232 201.76 812.403 Q205.139 815.574 205.139 820.991 Q205.139 826.57 201.667 829.671 Q198.195 832.75 191.875 832.75 Q189.7 832.75 187.431 832.38 Q185.186 832.009 182.778 831.269 L182.778 826.57 Q184.862 827.704 187.084 828.259 Q189.306 828.815 191.783 828.815 Q195.787 828.815 198.125 826.708 Q200.463 824.602 200.463 820.991 Q200.463 817.38 198.125 815.273 Q195.787 813.167 191.783 813.167 Q189.908 813.167 188.033 813.584 Q186.181 814 184.237 814.88 L184.237 797.519 Z" fill="#000000" fill-rule="nonzero" fill-opacity="1" /><path clip-path="url(#clip780)" d="M153.079 531.624 L171.436 531.624 L171.436 535.559 L157.362 535.559 L157.362 544.031 Q158.38 543.684 159.399 543.522 Q160.417 543.337 161.436 543.337 Q167.223 543.337 170.602 546.508 Q173.982 549.679 173.982 555.096 Q173.982 560.675 170.51 563.777 Q167.038 566.855 160.718 566.855 Q158.542 566.855 156.274 566.485 Q154.028 566.115 151.621 565.374 L151.621 560.675 Q153.704 561.809 155.927 562.365 Q158.149 562.92 160.626 562.92 Q164.63 562.92 166.968 560.814 Q169.306 558.707 169.306 555.096 Q169.306 551.485 166.968 549.378 Q164.63 547.272 160.626 547.272 Q158.751 547.272 156.876 547.689 Q155.024 548.105 153.079 548.985 L153.079 531.624 Z" fill="#000000" fill-rule="nonzero" fill-opacity="1" /><path clip-path="url(#clip780)" d="M193.195 534.703 Q189.584 534.703 187.755 538.267 Q185.95 541.809 185.95 548.939 Q185.95 556.045 187.755 559.61 Q189.584 563.152 193.195 563.152 Q196.829 563.152 198.635 559.61 Q200.463 556.045 200.463 548.939 Q200.463 541.809 198.635 538.267 Q196.829 534.703 193.195 534.703 M193.195 530.999 Q199.005 530.999 202.061 535.605 Q205.139 540.189 205.139 548.939 Q205.139 557.665 202.061 562.272 Q199.005 566.855 193.195 566.855 Q187.385 566.855 184.306 562.272 Q181.251 557.665 181.251 548.939 Q181.251 540.189 184.306 535.605 Q187.385 530.999 193.195 530.999 Z" fill="#000000" fill-rule="nonzero" fill-opacity="1" /><path clip-path="url(#clip780)" d="M152.848 265.729 L175.07 265.729 L175.07 267.72 L162.524 300.289 L157.64 300.289 L169.445 269.664 L152.848 269.664 L152.848 265.729 Z" fill="#000000" fill-rule="nonzero" fill-opacity="1" /><path clip-path="url(#clip780)" d="M184.237 265.729 L202.593 265.729 L202.593 269.664 L188.519 269.664 L188.519 278.136 Q189.538 277.789 190.556 277.627 Q191.575 277.442 192.593 277.442 Q198.38 277.442 201.76 280.613 Q205.139 283.785 205.139 289.201 Q205.139 294.78 201.667 297.882 Q198.195 300.96 191.875 300.96 Q189.7 300.96 187.431 300.59 Q185.186 300.22 182.778 299.479 L182.778 294.78 Q184.862 295.914 187.084 296.47 Q189.306 297.025 191.783 297.025 Q195.787 297.025 198.125 294.919 Q200.463 292.812 200.463 289.201 Q200.463 285.59 198.125 283.484 Q195.787 281.377 191.783 281.377 Q189.908 281.377 188.033 281.794 Q186.181 282.21 184.237 283.09 L184.237 265.729 Z" fill="#000000" fill-rule="nonzero" fill-opacity="1" /><path clip-path="url(#clip780)" d="M21.7677 1179.81 L39.6235 1179.81 L39.6235 1171.72 Q39.6235 1167.24 37.3 1164.79 Q34.9765 1162.33 30.6797 1162.33 Q26.4147 1162.33 24.0912 1164.79 Q21.7677 1167.24 21.7677 1171.72 L21.7677 1179.81 M16.4842 1186.24 L16.4842 1171.72 Q16.4842 1163.73 20.1126 1159.66 Q23.7092 1155.55 30.6797 1155.55 Q37.7138 1155.55 41.3104 1159.66 Q44.907 1163.73 44.907 1171.72 L44.907 1179.81 L64.0042 1179.81 L64.0042 1186.24 L16.4842 1186.24 Z" fill="#000000" fill-rule="nonzero" fill-opacity="1" /><path clip-path="url(#clip780)" d="M33.8307 1127.67 Q33.2578 1128.66 33.0032 1129.84 Q32.7167 1130.98 32.7167 1132.38 Q32.7167 1137.35 35.9632 1140.02 Q39.1779 1142.66 45.2253 1142.66 L64.0042 1142.66 L64.0042 1148.55 L28.3562 1148.55 L28.3562 1142.66 L33.8944 1142.66 Q30.6479 1140.82 29.0883 1137.86 Q27.4968 1134.9 27.4968 1130.66 Q27.4968 1130.06 27.5923 1129.33 Q27.656 1128.6 27.8151 1127.7 L33.8307 1127.67 Z" fill="#000000" fill-rule="nonzero" fill-opacity="1" /><path clip-path="url(#clip780)" d="M32.4621 1109.15 Q32.4621 1113.86 36.1542 1116.6 Q39.8145 1119.33 46.212 1119.33 Q52.6095 1119.33 56.3017 1116.63 Q59.9619 1113.89 59.9619 1109.15 Q59.9619 1104.47 56.2698 1101.73 Q52.5777 1099 46.212 1099 Q39.8781 1099 36.186 1101.73 Q32.4621 1104.47 32.4621 1109.15 M27.4968 1109.15 Q27.4968 1101.51 32.4621 1097.15 Q37.4273 1092.79 46.212 1092.79 Q54.9649 1092.79 59.9619 1097.15 Q64.9272 1101.51 64.9272 1109.15 Q64.9272 1116.82 59.9619 1121.18 Q54.9649 1125.51 46.212 1125.51 Q37.4273 1125.51 32.4621 1121.18 Q27.4968 1116.82 27.4968 1109.15 Z" fill="#000000" fill-rule="nonzero" fill-opacity="1" /><path clip-path="url(#clip780)" d="M14.479 1065.03 L19.3487 1065.03 L19.3487 1070.64 Q19.3487 1073.79 20.6219 1075.03 Q21.895 1076.24 25.2052 1076.24 L28.3562 1076.24 L28.3562 1066.59 L32.9077 1066.59 L32.9077 1076.24 L64.0042 1076.24 L64.0042 1082.13 L32.9077 1082.13 L32.9077 1087.73 L28.3562 1087.73 L28.3562 1082.13 L25.8736 1082.13 Q19.9216 1082.13 17.2162 1079.36 Q14.479 1076.59 14.479 1070.57 L14.479 1065.03 Z" fill="#000000" fill-rule="nonzero" fill-opacity="1" /><path clip-path="url(#clip780)" d="M28.3562 1060.13 L28.3562 1054.28 L64.0042 1054.28 L64.0042 1060.13 L28.3562 1060.13 M14.479 1060.13 L14.479 1054.28 L21.895 1054.28 L21.895 1060.13 L14.479 1060.13 Z" fill="#000000" fill-rule="nonzero" fill-opacity="1" /><path clip-path="url(#clip780)" d="M18.2347 1036.23 L28.3562 1036.23 L28.3562 1024.17 L32.9077 1024.17 L32.9077 1036.23 L52.2594 1036.23 Q56.6199 1036.23 57.8613 1035.05 Q59.1026 1033.84 59.1026 1030.18 L59.1026 1024.17 L64.0042 1024.17 L64.0042 1030.18 Q64.0042 1036.96 61.4897 1039.54 Q58.9434 1042.12 52.2594 1042.12 L32.9077 1042.12 L32.9077 1046.41 L28.3562 1046.41 L28.3562 1042.12 L18.2347 1042.12 L18.2347 1036.23 Z" fill="#000000" fill-rule="nonzero" fill-opacity="1" /><path clip-path="url(#clip780)" d="M58.5933 993.802 L58.5933 983.299 L22.3406 983.299 L24.6323 994.725 L18.7758 994.725 L16.4842 983.362 L16.4842 976.933 L58.5933 976.933 L58.5933 966.43 L64.0042 966.43 L64.0042 993.802 L58.5933 993.802 Z" fill="#000000" fill-rule="nonzero" fill-opacity="1" /><path clip-path="url(#clip780)" d="M29.4065 931.546 L34.9447 931.546 Q33.6716 934.028 33.035 936.702 Q32.3984 939.375 32.3984 942.24 Q32.3984 946.601 33.7352 948.797 Q35.072 950.961 37.7456 950.961 Q39.7826 950.961 40.9603 949.401 Q42.1061 947.842 43.1565 943.131 L43.6021 941.126 Q44.9389 934.888 47.3897 932.278 Q49.8086 929.636 54.1691 929.636 Q59.1344 929.636 62.0308 933.583 Q64.9272 937.498 64.9272 944.373 Q64.9272 947.237 64.3543 950.356 Q63.8132 953.444 62.6992 956.881 L56.6518 956.881 Q58.3387 953.635 59.198 950.484 Q60.0256 947.333 60.0256 944.245 Q60.0256 940.107 58.6251 937.88 Q57.1929 935.652 54.6147 935.652 Q52.2276 935.652 50.9545 937.275 Q49.6813 938.866 48.5037 944.309 L48.0262 946.346 Q46.8804 951.789 44.5251 954.208 Q42.138 956.627 38.0002 956.627 Q32.9713 956.627 30.2341 953.062 Q27.4968 949.497 27.4968 942.94 Q27.4968 939.694 27.9743 936.829 Q28.4517 933.965 29.4065 931.546 Z" fill="#000000" fill-rule="nonzero" fill-opacity="1" /><path clip-path="url(#clip780)" d="M18.2347 914.517 L28.3562 914.517 L28.3562 902.454 L32.9077 902.454 L32.9077 914.517 L52.2594 914.517 Q56.6199 914.517 57.8613 913.34 Q59.1026 912.13 59.1026 908.47 L59.1026 902.454 L64.0042 902.454 L64.0042 908.47 Q64.0042 915.249 61.4897 917.828 Q58.9434 920.406 52.2594 920.406 L32.9077 920.406 L32.9077 924.702 L28.3562 924.702 L28.3562 920.406 L18.2347 920.406 L18.2347 914.517 Z" fill="#000000" fill-rule="nonzero" fill-opacity="1" /><path clip-path="url(#clip780)" d="M33.7671 850.574 L14.479 850.574 L14.479 844.717 L64.0042 844.717 L64.0042 850.574 L58.657 850.574 Q61.8398 852.42 63.3994 855.253 Q64.9272 858.054 64.9272 862 Q64.9272 868.461 59.771 872.536 Q54.6147 876.578 46.212 876.578 Q37.8093 876.578 32.6531 872.536 Q27.4968 868.461 27.4968 862 Q27.4968 858.054 29.0564 855.253 Q30.5842 852.42 33.7671 850.574 M46.212 870.53 Q52.6732 870.53 56.3653 867.889 Q60.0256 865.215 60.0256 860.568 Q60.0256 855.921 56.3653 853.247 Q52.6732 850.574 46.212 850.574 Q39.7508 850.574 36.0905 853.247 Q32.3984 855.921 32.3984 860.568 Q32.3984 865.215 36.0905 867.889 Q39.7508 870.53 46.212 870.53 Z" fill="#000000" fill-rule="nonzero" fill-opacity="1" /><path clip-path="url(#clip780)" d="M44.7161 802.163 L47.5806 802.163 L47.5806 829.09 Q53.6281 828.708 56.8109 825.461 Q59.9619 822.183 59.9619 816.358 Q59.9619 812.984 59.1344 809.833 Q58.3069 806.65 56.6518 803.531 L62.1899 803.531 Q63.5267 806.682 64.227 809.992 Q64.9272 813.303 64.9272 816.708 Q64.9272 825.238 59.9619 830.235 Q54.9967 835.201 46.5303 835.201 Q37.7774 835.201 32.6531 830.49 Q27.4968 825.748 27.4968 817.727 Q27.4968 810.534 32.1438 806.364 Q36.7589 802.163 44.7161 802.163 M42.9973 808.019 Q38.1912 808.083 35.3266 810.725 Q32.4621 813.334 32.4621 817.663 Q32.4621 822.565 35.2312 825.525 Q38.0002 828.453 43.0292 828.899 L42.9973 808.019 Z" fill="#000000" fill-rule="nonzero" fill-opacity="1" /><path clip-path="url(#clip780)" d="M33.8307 771.894 Q33.2578 772.88 33.0032 774.058 Q32.7167 775.204 32.7167 776.604 Q32.7167 781.57 35.9632 784.243 Q39.1779 786.885 45.2253 786.885 L64.0042 786.885 L64.0042 792.773 L28.3562 792.773 L28.3562 786.885 L33.8944 786.885 Q30.6479 785.039 29.0883 782.079 Q27.4968 779.119 27.4968 774.886 Q27.4968 774.281 27.5923 773.549 Q27.656 772.817 27.8151 771.926 L33.8307 771.894 Z" fill="#000000" fill-rule="nonzero" fill-opacity="1" /><path clip-path="url(#clip780)" d="M28.3562 765.751 L28.3562 759.894 L64.0042 759.894 L64.0042 765.751 L28.3562 765.751 M14.479 765.751 L14.479 759.894 L21.895 759.894 L21.895 765.751 L14.479 765.751 Z" fill="#000000" fill-rule="nonzero" fill-opacity="1" /><path clip-path="url(#clip780)" d="M28.3562 751.842 L28.3562 745.635 L58.275 734.495 L28.3562 723.355 L28.3562 717.149 L64.0042 730.517 L64.0042 738.474 L28.3562 751.842 Z" fill="#000000" fill-rule="nonzero" fill-opacity="1" /><path clip-path="url(#clip780)" d="M14.479 688.344 L14.479 682.487 L64.0042 682.487 L64.0042 688.344 L14.479 688.344 Z" fill="#000000" fill-rule="nonzero" fill-opacity="1" /><path clip-path="url(#clip780)" d="M46.0847 654.033 Q46.0847 661.13 47.7079 663.868 Q49.3312 666.605 53.2461 666.605 Q56.3653 666.605 58.2114 664.568 Q60.0256 662.499 60.0256 658.966 Q60.0256 654.096 56.5881 651.168 Q53.1188 648.208 47.3897 648.208 L46.0847 648.208 L46.0847 654.033 M43.6657 642.352 L64.0042 642.352 L64.0042 648.208 L58.5933 648.208 Q61.8398 650.213 63.3994 653.205 Q64.9272 656.197 64.9272 660.526 Q64.9272 666 61.8716 669.247 Q58.7843 672.461 53.6281 672.461 Q47.6125 672.461 44.5569 668.451 Q41.5014 664.409 41.5014 656.42 L41.5014 648.208 L40.9285 648.208 Q36.8862 648.208 34.6901 650.882 Q32.4621 653.523 32.4621 658.329 Q32.4621 661.385 33.1941 664.281 Q33.9262 667.178 35.3903 669.851 L29.9795 669.851 Q28.7381 666.637 28.1334 663.613 Q27.4968 660.589 27.4968 657.725 Q27.4968 649.99 31.5072 646.171 Q35.5176 642.352 43.6657 642.352 Z" fill="#000000" fill-rule="nonzero" fill-opacity="1" /><path clip-path="url(#clip780)" d="M29.4065 607.563 L34.9447 607.563 Q33.6716 610.046 33.035 612.719 Q32.3984 615.393 32.3984 618.257 Q32.3984 622.618 33.7352 624.814 Q35.072 626.978 37.7456 626.978 Q39.7826 626.978 40.9603 625.419 Q42.1061 623.859 43.1565 619.149 L43.6021 617.143 Q44.9389 610.905 47.3897 608.295 Q49.8086 605.653 54.1691 605.653 Q59.1344 605.653 62.0308 609.6 Q64.9272 613.515 64.9272 620.39 Q64.9272 623.254 64.3543 626.374 Q63.8132 629.461 62.6992 632.898 L56.6518 632.898 Q58.3387 629.652 59.198 626.501 Q60.0256 623.35 60.0256 620.263 Q60.0256 616.125 58.6251 613.897 Q57.1929 611.669 54.6147 611.669 Q52.2276 611.669 50.9545 613.292 Q49.6813 614.884 48.5037 620.326 L48.0262 622.363 Q46.8804 627.806 44.5251 630.225 Q42.138 632.644 38.0002 632.644 Q32.9713 632.644 30.2341 629.079 Q27.4968 625.514 27.4968 618.958 Q27.4968 615.711 27.9743 612.847 Q28.4517 609.982 29.4065 607.563 Z" fill="#000000" fill-rule="nonzero" fill-opacity="1" /><path clip-path="url(#clip780)" d="M18.2347 590.535 L28.3562 590.535 L28.3562 578.472 L32.9077 578.472 L32.9077 590.535 L52.2594 590.535 Q56.6199 590.535 57.8613 589.357 Q59.1026 588.148 59.1026 584.487 L59.1026 578.472 L64.0042 578.472 L64.0042 584.487 Q64.0042 591.267 61.4897 593.845 Q58.9434 596.423 52.2594 596.423 L32.9077 596.423 L32.9077 600.72 L28.3562 600.72 L28.3562 596.423 L18.2347 596.423 L18.2347 590.535 Z" fill="#000000" fill-rule="nonzero" fill-opacity="1" /><path clip-path="url(#clip780)" d="M38.3822 529.742 Q39.3689 525.127 42.4881 522.549 Q45.6073 519.939 50.1906 519.939 Q57.2247 519.939 61.0759 524.777 Q64.9272 529.615 64.9272 538.527 Q64.9272 541.519 64.3224 544.702 Q63.7495 547.853 62.5719 551.226 L56.3653 551.226 Q57.9249 548.553 58.7206 545.37 Q59.5163 542.187 59.5163 538.718 Q59.5163 532.67 57.1292 529.519 Q54.7421 526.337 50.1906 526.337 Q45.9892 526.337 43.6339 529.297 Q41.2468 532.225 41.2468 537.477 L41.2468 543.015 L35.9632 543.015 L35.9632 537.222 Q35.9632 532.479 34.0853 529.965 Q32.1756 527.451 28.6108 527.451 Q24.9505 527.451 23.009 530.061 Q21.0356 532.639 21.0356 537.477 Q21.0356 540.118 21.6086 543.142 Q22.1815 546.166 23.3909 549.794 L17.6618 549.794 Q16.6433 546.134 16.134 542.951 Q15.6248 539.736 15.6248 536.904 Q15.6248 529.583 18.9668 525.318 Q22.277 521.053 27.9424 521.053 Q31.8892 521.053 34.6264 523.313 Q37.3318 525.573 38.3822 529.742 Z" fill="#000000" fill-rule="nonzero" fill-opacity="1" /><path clip-path="url(#clip780)" d="M46.0847 471.655 Q46.0847 478.753 47.7079 481.49 Q49.3312 484.227 53.2461 484.227 Q56.3653 484.227 58.2114 482.19 Q60.0256 480.122 60.0256 476.589 Q60.0256 471.719 56.5881 468.791 Q53.1188 465.831 47.3897 465.831 L46.0847 465.831 L46.0847 471.655 M43.6657 459.974 L64.0042 459.974 L64.0042 465.831 L58.5933 465.831 Q61.8398 467.836 63.3994 470.828 Q64.9272 473.819 64.9272 478.148 Q64.9272 483.623 61.8716 486.869 Q58.7843 490.084 53.6281 490.084 Q47.6125 490.084 44.5569 486.073 Q41.5014 482.031 41.5014 474.042 L41.5014 465.831 L40.9285 465.831 Q36.8862 465.831 34.6901 468.504 Q32.4621 471.146 32.4621 475.952 Q32.4621 479.008 33.1941 481.904 Q33.9262 484.8 35.3903 487.474 L29.9795 487.474 Q28.7381 484.259 28.1334 481.236 Q27.4968 478.212 27.4968 475.347 Q27.4968 467.613 31.5072 463.793 Q35.5176 459.974 43.6657 459.974 Z" fill="#000000" fill-rule="nonzero" fill-opacity="1" /><path clip-path="url(#clip780)" d="M28.3562 452.112 L28.3562 445.906 L58.275 434.766 L28.3562 423.626 L28.3562 417.419 L64.0042 430.787 L64.0042 438.744 L28.3562 452.112 Z" fill="#000000" fill-rule="nonzero" fill-opacity="1" /><path clip-path="url(#clip780)" d="M45.7664 385.877 Q39.4007 385.877 35.8996 388.519 Q32.3984 391.129 32.3984 395.871 Q32.3984 400.582 35.8996 403.224 Q39.4007 405.834 45.7664 405.834 Q52.1003 405.834 55.6014 403.224 Q59.1026 400.582 59.1026 395.871 Q59.1026 391.129 55.6014 388.519 Q52.1003 385.877 45.7664 385.877 M59.58 380.021 Q68.683 380.021 73.1071 384.063 Q77.5631 388.105 77.5631 396.444 Q77.5631 399.532 77.0857 402.269 Q76.6401 405.006 75.6852 407.584 L69.9879 407.584 Q71.3884 405.006 72.0568 402.492 Q72.7252 399.977 72.7252 397.367 Q72.7252 391.606 69.7015 388.742 Q66.7096 385.877 60.6303 385.877 L57.7339 385.877 Q60.885 387.691 62.4446 390.524 Q64.0042 393.357 64.0042 397.304 Q64.0042 403.86 59.0071 407.871 Q54.01 411.881 45.7664 411.881 Q37.491 411.881 32.4939 407.871 Q27.4968 403.86 27.4968 397.304 Q27.4968 393.357 29.0564 390.524 Q30.616 387.691 33.7671 385.877 L28.3562 385.877 L28.3562 380.021 L59.58 380.021 Z" fill="#000000" fill-rule="nonzero" fill-opacity="1" /><path clip-path="url(#clip780)" d="M55.9197 367.13 L55.9197 360.414 L64.0042 360.414 L64.0042 367.13 L55.9197 367.13 Z" fill="#000000" fill-rule="nonzero" fill-opacity="1" /><path clip-path="url(#clip780)" d="M242.842 65.6895 L256.21 65.6895 L256.21 19.5497 L241.667 22.4663 L241.667 15.0127 L256.129 12.096 L264.311 12.096 L264.311 65.6895 L277.679 65.6895 L277.679 72.576 L242.842 72.576 L242.842 65.6895 Z" fill="#000000" fill-rule="nonzero" fill-opacity="1" /><path clip-path="url(#clip780)" d="M322.077 28.5427 L322.077 35.5912 Q318.918 33.9709 315.515 33.1607 Q312.112 32.3505 308.466 32.3505 Q302.916 32.3505 300.121 34.0519 Q297.367 35.7533 297.367 39.156 Q297.367 41.7486 299.352 43.2475 Q301.337 44.7058 307.332 46.0426 L309.884 46.6097 Q317.824 48.3111 321.146 51.4303 Q324.508 54.509 324.508 60.0587 Q324.508 66.3781 319.485 70.0644 Q314.502 73.7508 305.752 73.7508 Q302.106 73.7508 298.136 73.0216 Q294.207 72.3329 289.832 70.9151 L289.832 63.2184 Q293.964 65.3654 297.974 66.4591 Q301.985 67.5124 305.914 67.5124 Q311.18 67.5124 314.016 65.73 Q316.852 63.9071 316.852 60.6258 Q316.852 57.5877 314.786 55.9673 Q312.76 54.3469 305.833 52.8481 L303.241 52.2405 Q296.313 50.7821 293.235 47.7845 Q290.156 44.7463 290.156 39.4801 Q290.156 33.0797 294.693 29.5959 Q299.23 26.1121 307.575 26.1121 Q311.707 26.1121 315.353 26.7198 Q318.999 27.3274 322.077 28.5427 Z" fill="#000000" fill-rule="nonzero" fill-opacity="1" /><path clip-path="url(#clip780)" d="M343.75 14.324 L343.75 27.2059 L359.103 27.2059 L359.103 32.9987 L343.75 32.9987 L343.75 57.6282 Q343.75 63.1779 345.248 64.7578 Q346.788 66.3376 351.446 66.3376 L359.103 66.3376 L359.103 72.576 L351.446 72.576 Q342.818 72.576 339.537 69.3758 Q336.255 66.1351 336.255 57.6282 L336.255 32.9987 L330.787 32.9987 L330.787 27.2059 L336.255 27.2059 L336.255 14.324 L343.75 14.324 Z" fill="#000000" fill-rule="nonzero" fill-opacity="1" /><path clip-path="url(#clip780)" d="M425.132 34.0924 L425.132 9.54393 L432.586 9.54393 L432.586 72.576 L425.132 72.576 L425.132 65.7705 Q422.783 69.8214 419.177 71.8063 Q415.613 73.7508 410.59 73.7508 Q402.366 73.7508 397.181 67.1883 Q392.036 60.6258 392.036 49.9314 Q392.036 39.2371 397.181 32.6746 Q402.366 26.1121 410.59 26.1121 Q415.613 26.1121 419.177 28.0971 Q422.783 30.0415 425.132 34.0924 M399.733 49.9314 Q399.733 58.1548 403.095 62.8538 Q406.498 67.5124 412.412 67.5124 Q418.327 67.5124 421.729 62.8538 Q425.132 58.1548 425.132 49.9314 Q425.132 41.7081 421.729 37.0496 Q418.327 32.3505 412.412 32.3505 Q406.498 32.3505 403.095 37.0496 Q399.733 41.7081 399.733 49.9314 Z" fill="#000000" fill-rule="nonzero" fill-opacity="1" /><path clip-path="url(#clip780)" d="M486.747 48.0275 L486.747 51.6733 L452.476 51.6733 Q452.962 59.3701 457.094 63.421 Q461.266 67.4314 468.679 67.4314 Q472.973 67.4314 476.984 66.3781 Q481.035 65.3249 485.005 63.2184 L485.005 70.267 Q480.994 71.9684 476.781 72.8596 Q472.568 73.7508 468.234 73.7508 Q457.377 73.7508 451.018 67.4314 Q444.698 61.1119 444.698 50.3365 Q444.698 39.1965 450.693 32.6746 Q456.729 26.1121 466.938 26.1121 Q476.093 26.1121 481.399 32.0264 Q486.747 37.9003 486.747 48.0275 M479.293 45.84 Q479.212 39.7232 475.85 36.0774 Q472.528 32.4315 467.019 32.4315 Q460.78 32.4315 457.013 35.9558 Q453.286 39.4801 452.719 45.8805 L479.293 45.84 Z" fill="#000000" fill-rule="nonzero" fill-opacity="1" /><path clip-path="url(#clip780)" d="M525.271 34.1734 Q524.015 33.4443 522.516 33.1202 Q521.058 32.7556 519.275 32.7556 Q512.956 32.7556 509.553 36.8875 Q506.191 40.9789 506.191 48.6757 L506.191 72.576 L498.697 72.576 L498.697 27.2059 L506.191 27.2059 L506.191 34.2544 Q508.54 30.1225 512.308 28.1376 Q516.075 26.1121 521.463 26.1121 Q522.232 26.1121 523.164 26.2337 Q524.096 26.3147 525.23 26.5172 L525.271 34.1734 Z" fill="#000000" fill-rule="nonzero" fill-opacity="1" /><path clip-path="url(#clip780)" d="M533.089 27.2059 L540.543 27.2059 L540.543 72.576 L533.089 72.576 L533.089 27.2059 M533.089 9.54393 L540.543 9.54393 L540.543 18.9825 L533.089 18.9825 L533.089 9.54393 Z" fill="#000000" fill-rule="nonzero" fill-opacity="1" /><path clip-path="url(#clip780)" d="M550.791 27.2059 L558.691 27.2059 L572.869 65.2844 L587.047 27.2059 L594.946 27.2059 L577.932 72.576 L567.805 72.576 L550.791 27.2059 Z" fill="#000000" fill-rule="nonzero" fill-opacity="1" /><path clip-path="url(#clip780)" d="M625.855 49.7694 Q616.821 49.7694 613.337 51.8354 Q609.853 53.9013 609.853 58.8839 Q609.853 62.8538 612.446 65.2034 Q615.079 67.5124 619.576 67.5124 Q625.774 67.5124 629.5 63.1374 Q633.268 58.7219 633.268 51.4303 L633.268 49.7694 L625.855 49.7694 M640.721 46.6907 L640.721 72.576 L633.268 72.576 L633.268 65.6895 Q630.716 69.8214 626.908 71.8063 Q623.1 73.7508 617.591 73.7508 Q610.623 73.7508 606.491 69.8619 Q602.4 65.9325 602.4 59.3701 Q602.4 51.7138 607.504 47.825 Q612.649 43.9361 622.816 43.9361 L633.268 43.9361 L633.268 43.2069 Q633.268 38.0623 629.865 35.2672 Q626.503 32.4315 620.386 32.4315 Q616.497 32.4315 612.811 33.3632 Q609.124 34.295 605.722 36.1584 L605.722 29.2718 Q609.813 27.692 613.661 26.9223 Q617.51 26.1121 621.156 26.1121 Q630.999 26.1121 635.86 31.2163 Q640.721 36.3204 640.721 46.6907 Z" fill="#000000" fill-rule="nonzero" fill-opacity="1" /><path clip-path="url(#clip780)" d="M663.447 14.324 L663.447 27.2059 L678.8 27.2059 L678.8 32.9987 L663.447 32.9987 L663.447 57.6282 Q663.447 63.1779 664.946 64.7578 Q666.485 66.3376 671.144 66.3376 L678.8 66.3376 L678.8 72.576 L671.144 72.576 Q662.515 72.576 659.234 69.3758 Q655.953 66.1351 655.953 57.6282 L655.953 32.9987 L650.484 32.9987 L650.484 27.2059 L655.953 27.2059 L655.953 14.324 L663.447 14.324 Z" fill="#000000" fill-rule="nonzero" fill-opacity="1" /><path clip-path="url(#clip780)" d="M688.603 27.2059 L696.057 27.2059 L696.057 72.576 L688.603 72.576 L688.603 27.2059 M688.603 9.54393 L696.057 9.54393 L696.057 18.9825 L688.603 18.9825 L688.603 9.54393 Z" fill="#000000" fill-rule="nonzero" fill-opacity="1" /><path clip-path="url(#clip780)" d="M706.306 27.2059 L714.205 27.2059 L728.383 65.2844 L742.561 27.2059 L750.46 27.2059 L733.447 72.576 L723.319 72.576 L706.306 27.2059 Z" fill="#000000" fill-rule="nonzero" fill-opacity="1" /><path clip-path="url(#clip780)" d="M799.557 48.0275 L799.557 51.6733 L765.287 51.6733 Q765.773 59.3701 769.905 63.421 Q774.077 67.4314 781.49 67.4314 Q785.784 67.4314 789.795 66.3781 Q793.846 65.3249 797.815 63.2184 L797.815 70.267 Q793.805 71.9684 789.592 72.8596 Q785.379 73.7508 781.045 73.7508 Q770.188 73.7508 763.828 67.4314 Q757.509 61.1119 757.509 50.3365 Q757.509 39.1965 763.504 32.6746 Q769.54 26.1121 779.748 26.1121 Q788.903 26.1121 794.21 32.0264 Q799.557 37.9003 799.557 48.0275 M792.104 45.84 Q792.023 39.7232 788.66 36.0774 Q785.339 32.4315 779.829 32.4315 Q773.591 32.4315 769.824 35.9558 Q766.097 39.4801 765.53 45.8805 L792.104 45.84 Z" fill="#000000" fill-rule="nonzero" fill-opacity="1" /><path clip-path="url(#clip780)" d="M858.782 49.7694 Q849.748 49.7694 846.264 51.8354 Q842.78 53.9013 842.78 58.8839 Q842.78 62.8538 845.373 65.2034 Q848.006 67.5124 852.503 67.5124 Q858.701 67.5124 862.427 63.1374 Q866.195 58.7219 866.195 51.4303 L866.195 49.7694 L858.782 49.7694 M873.648 46.6907 L873.648 72.576 L866.195 72.576 L866.195 65.6895 Q863.643 69.8214 859.835 71.8063 Q856.027 73.7508 850.518 73.7508 Q843.55 73.7508 839.418 69.8619 Q835.327 65.9325 835.327 59.3701 Q835.327 51.7138 840.431 47.825 Q845.576 43.9361 855.743 43.9361 L866.195 43.9361 L866.195 43.2069 Q866.195 38.0623 862.792 35.2672 Q859.43 32.4315 853.313 32.4315 Q849.424 32.4315 845.738 33.3632 Q842.051 34.295 838.649 36.1584 L838.649 29.2718 Q842.74 27.692 846.588 26.9223 Q850.437 26.1121 854.082 26.1121 Q863.926 26.1121 868.787 31.2163 Q873.648 36.3204 873.648 46.6907 Z" fill="#000000" fill-rule="nonzero" fill-opacity="1" /><path clip-path="url(#clip780)" d="M883.654 27.2059 L891.553 27.2059 L905.732 65.2844 L919.91 27.2059 L927.809 27.2059 L910.795 72.576 L900.668 72.576 L883.654 27.2059 Z" fill="#000000" fill-rule="nonzero" fill-opacity="1" /><path clip-path="url(#clip780)" d="M976.906 48.0275 L976.906 51.6733 L942.635 51.6733 Q943.121 59.3701 947.253 63.421 Q951.426 67.4314 958.839 67.4314 Q963.133 67.4314 967.143 66.3781 Q971.194 65.3249 975.164 63.2184 L975.164 70.267 Q971.154 71.9684 966.941 72.8596 Q962.728 73.7508 958.393 73.7508 Q947.537 73.7508 941.177 67.4314 Q934.858 61.1119 934.858 50.3365 Q934.858 39.1965 940.853 32.6746 Q946.889 26.1121 957.097 26.1121 Q966.252 26.1121 971.559 32.0264 Q976.906 37.9003 976.906 48.0275 M969.452 45.84 Q969.371 39.7232 966.009 36.0774 Q962.687 32.4315 957.178 32.4315 Q950.94 32.4315 947.172 35.9558 Q943.445 39.4801 942.878 45.8805 L969.452 45.84 Z" fill="#000000" fill-rule="nonzero" fill-opacity="1" /><path clip-path="url(#clip780)" d="M1015.43 34.1734 Q1014.17 33.4443 1012.68 33.1202 Q1011.22 32.7556 1009.43 32.7556 Q1003.12 32.7556 999.713 36.8875 Q996.35 40.9789 996.35 48.6757 L996.35 72.576 L988.856 72.576 L988.856 27.2059 L996.35 27.2059 L996.35 34.2544 Q998.7 30.1225 1002.47 28.1376 Q1006.23 26.1121 1011.62 26.1121 Q1012.39 26.1121 1013.32 26.2337 Q1014.26 26.3147 1015.39 26.5172 L1015.43 34.1734 Z" fill="#000000" fill-rule="nonzero" fill-opacity="1" /><path clip-path="url(#clip780)" d="M1043.87 49.7694 Q1034.83 49.7694 1031.35 51.8354 Q1027.87 53.9013 1027.87 58.8839 Q1027.87 62.8538 1030.46 65.2034 Q1033.09 67.5124 1037.59 67.5124 Q1043.79 67.5124 1047.51 63.1374 Q1051.28 58.7219 1051.28 51.4303 L1051.28 49.7694 L1043.87 49.7694 M1058.73 46.6907 L1058.73 72.576 L1051.28 72.576 L1051.28 65.6895 Q1048.73 69.8214 1044.92 71.8063 Q1041.11 73.7508 1035.6 73.7508 Q1028.64 73.7508 1024.5 69.8619 Q1020.41 65.9325 1020.41 59.3701 Q1020.41 51.7138 1025.52 47.825 Q1030.66 43.9361 1040.83 43.9361 L1051.28 43.9361 L1051.28 43.2069 Q1051.28 38.0623 1047.88 35.2672 Q1044.52 32.4315 1038.4 32.4315 Q1034.51 32.4315 1030.82 33.3632 Q1027.14 34.295 1023.73 36.1584 L1023.73 29.2718 Q1027.83 27.692 1031.67 26.9223 Q1035.52 26.1121 1039.17 26.1121 Q1049.01 26.1121 1053.87 31.2163 Q1058.73 36.3204 1058.73 46.6907 Z" fill="#000000" fill-rule="nonzero" fill-opacity="1" /><path clip-path="url(#clip780)" d="M1103.94 49.3643 Q1103.94 41.2625 1100.58 36.8065 Q1097.26 32.3505 1091.22 32.3505 Q1085.23 32.3505 1081.86 36.8065 Q1078.54 41.2625 1078.54 49.3643 Q1078.54 57.4256 1081.86 61.8816 Q1085.23 66.3376 1091.22 66.3376 Q1097.26 66.3376 1100.58 61.8816 Q1103.94 57.4256 1103.94 49.3643 M1111.4 66.9452 Q1111.4 78.5308 1106.25 84.1616 Q1101.11 89.8329 1090.49 89.8329 Q1086.56 89.8329 1083.08 89.2252 Q1079.6 88.6581 1076.32 87.4428 L1076.32 80.1917 Q1079.6 81.9741 1082.8 82.8248 Q1086 83.6755 1089.32 83.6755 Q1096.65 83.6755 1100.3 79.8271 Q1103.94 76.0193 1103.94 68.282 L1103.94 64.5957 Q1101.63 68.6061 1098.03 70.5911 Q1094.42 72.576 1089.4 72.576 Q1081.05 72.576 1075.95 66.2161 Q1070.85 59.8562 1070.85 49.3643 Q1070.85 38.832 1075.95 32.472 Q1081.05 26.1121 1089.4 26.1121 Q1094.42 26.1121 1098.03 28.0971 Q1101.63 30.082 1103.94 34.0924 L1103.94 27.2059 L1111.4 27.2059 L1111.4 66.9452 Z" fill="#000000" fill-rule="nonzero" fill-opacity="1" /><path clip-path="url(#clip780)" d="M1165.56 48.0275 L1165.56 51.6733 L1131.29 51.6733 Q1131.77 59.3701 1135.9 63.421 Q1140.08 67.4314 1147.49 67.4314 Q1151.78 67.4314 1155.79 66.3781 Q1159.84 65.3249 1163.81 63.2184 L1163.81 70.267 Q1159.8 71.9684 1155.59 72.8596 Q1151.38 73.7508 1147.04 73.7508 Q1136.19 73.7508 1129.83 67.4314 Q1123.51 61.1119 1123.51 50.3365 Q1123.51 39.1965 1129.5 32.6746 Q1135.54 26.1121 1145.75 26.1121 Q1154.9 26.1121 1160.21 32.0264 Q1165.56 37.9003 1165.56 48.0275 M1158.1 45.84 Q1158.02 39.7232 1154.66 36.0774 Q1151.34 32.4315 1145.83 32.4315 Q1139.59 32.4315 1135.82 35.9558 Q1132.1 39.4801 1131.53 45.8805 L1158.1 45.84 Z" fill="#000000" fill-rule="nonzero" fill-opacity="1" /><path clip-path="url(#clip780)" d="M1206.71 28.5427 L1206.71 35.5912 Q1203.55 33.9709 1200.15 33.1607 Q1196.75 32.3505 1193.1 32.3505 Q1187.55 32.3505 1184.76 34.0519 Q1182 35.7533 1182 39.156 Q1182 41.7486 1183.99 43.2475 Q1185.97 44.7058 1191.97 46.0426 L1194.52 46.6097 Q1202.46 48.3111 1205.78 51.4303 Q1209.14 54.509 1209.14 60.0587 Q1209.14 66.3781 1204.12 70.0644 Q1199.14 73.7508 1190.39 73.7508 Q1186.74 73.7508 1182.77 73.0216 Q1178.84 72.3329 1174.47 70.9151 L1174.47 63.2184 Q1178.6 65.3654 1182.61 66.4591 Q1186.62 67.5124 1190.55 67.5124 Q1195.82 67.5124 1198.65 65.73 Q1201.49 63.9071 1201.49 60.6258 Q1201.49 57.5877 1199.42 55.9673 Q1197.4 54.3469 1190.47 52.8481 L1187.88 52.2405 Q1180.95 50.7821 1177.87 47.7845 Q1174.79 44.7463 1174.79 39.4801 Q1174.79 33.0797 1179.33 29.5959 Q1183.87 26.1121 1192.21 26.1121 Q1196.34 26.1121 1199.99 26.7198 Q1203.64 27.3274 1206.71 28.5427 Z" fill="#000000" fill-rule="nonzero" fill-opacity="1" /><path clip-path="url(#clip780)" d="M1222.92 62.2867 L1231.46 62.2867 L1231.46 72.576 L1222.92 72.576 L1222.92 62.2867 M1222.92 29.6769 L1231.46 29.6769 L1231.46 39.9662 L1222.92 39.9662 L1222.92 29.6769 Z" fill="#000000" fill-rule="nonzero" fill-opacity="1" /><path clip-path="url(#clip780)" d="M1282.55 65.7705 L1282.55 89.8329 L1275.05 89.8329 L1275.05 27.2059 L1282.55 27.2059 L1282.55 34.0924 Q1284.9 30.0415 1288.46 28.0971 Q1292.07 26.1121 1297.05 26.1121 Q1305.31 26.1121 1310.46 32.6746 Q1315.64 39.2371 1315.64 49.9314 Q1315.64 60.6258 1310.46 67.1883 Q1305.31 73.7508 1297.05 73.7508 Q1292.07 73.7508 1288.46 71.8063 Q1284.9 69.8214 1282.55 65.7705 M1307.91 49.9314 Q1307.91 41.7081 1304.5 37.0496 Q1301.14 32.3505 1295.23 32.3505 Q1289.31 32.3505 1285.91 37.0496 Q1282.55 41.7081 1282.55 49.9314 Q1282.55 58.1548 1285.91 62.8538 Q1289.31 67.5124 1295.23 67.5124 Q1301.14 67.5124 1304.5 62.8538 Q1307.91 58.1548 1307.91 49.9314 Z" fill="#000000" fill-rule="nonzero" fill-opacity="1" /><path clip-path="url(#clip780)" d="M1354.29 34.1734 Q1353.03 33.4443 1351.53 33.1202 Q1350.08 32.7556 1348.29 32.7556 Q1341.97 32.7556 1338.57 36.8875 Q1335.21 40.9789 1335.21 48.6757 L1335.21 72.576 L1327.71 72.576 L1327.71 27.2059 L1335.21 27.2059 L1335.21 34.2544 Q1337.56 30.1225 1341.33 28.1376 Q1345.09 26.1121 1350.48 26.1121 Q1351.25 26.1121 1352.18 26.2337 Q1353.11 26.3147 1354.25 26.5172 L1354.29 34.1734 Z" fill="#000000" fill-rule="nonzero" fill-opacity="1" /><path clip-path="url(#clip780)" d="M1377.86 32.4315 Q1371.87 32.4315 1368.39 37.1306 Q1364.9 41.7891 1364.9 49.9314 Q1364.9 58.0738 1368.34 62.7728 Q1371.83 67.4314 1377.86 67.4314 Q1383.82 67.4314 1387.3 62.7323 Q1390.79 58.0333 1390.79 49.9314 Q1390.79 41.8701 1387.3 37.1711 Q1383.82 32.4315 1377.86 32.4315 M1377.86 26.1121 Q1387.59 26.1121 1393.14 32.4315 Q1398.69 38.7509 1398.69 49.9314 Q1398.69 61.0714 1393.14 67.4314 Q1387.59 73.7508 1377.86 73.7508 Q1368.1 73.7508 1362.55 67.4314 Q1357.04 61.0714 1357.04 49.9314 Q1357.04 38.7509 1362.55 32.4315 Q1368.1 26.1121 1377.86 26.1121 Z" fill="#000000" fill-rule="nonzero" fill-opacity="1" /><path clip-path="url(#clip780)" d="M1434.01 9.54393 L1434.01 15.7418 L1426.88 15.7418 Q1422.87 15.7418 1421.29 17.3622 Q1419.75 18.9825 1419.75 23.1955 L1419.75 27.2059 L1432.03 27.2059 L1432.03 32.9987 L1419.75 32.9987 L1419.75 72.576 L1412.26 72.576 L1412.26 32.9987 L1405.13 32.9987 L1405.13 27.2059 L1412.26 27.2059 L1412.26 24.0462 Q1412.26 16.471 1415.78 13.0277 Q1419.31 9.54393 1426.96 9.54393 L1434.01 9.54393 Z" fill="#000000" fill-rule="nonzero" fill-opacity="1" /><path clip-path="url(#clip780)" d="M1440.25 27.2059 L1447.7 27.2059 L1447.7 72.576 L1440.25 72.576 L1440.25 27.2059 M1440.25 9.54393 L1447.7 9.54393 L1447.7 18.9825 L1440.25 18.9825 L1440.25 9.54393 Z" fill="#000000" fill-rule="nonzero" fill-opacity="1" /><path clip-path="url(#clip780)" d="M1470.67 14.324 L1470.67 27.2059 L1486.02 27.2059 L1486.02 32.9987 L1470.67 32.9987 L1470.67 57.6282 Q1470.67 63.1779 1472.17 64.7578 Q1473.71 66.3376 1478.37 66.3376 L1486.02 66.3376 L1486.02 72.576 L1478.37 72.576 Q1469.74 72.576 1466.46 69.3758 Q1463.18 66.1351 1463.18 57.6282 L1463.18 32.9987 L1457.71 32.9987 L1457.71 27.2059 L1463.18 27.2059 L1463.18 14.324 L1470.67 14.324 Z" fill="#000000" fill-rule="nonzero" fill-opacity="1" /><path clip-path="url(#clip780)" d="M1516.45 49.7694 Q1507.41 49.7694 1503.93 51.8354 Q1500.44 53.9013 1500.44 58.8839 Q1500.44 62.8538 1503.04 65.2034 Q1505.67 67.5124 1510.17 67.5124 Q1516.36 67.5124 1520.09 63.1374 Q1523.86 58.7219 1523.86 51.4303 L1523.86 49.7694 L1516.45 49.7694 M1531.31 46.6907 L1531.31 72.576 L1523.86 72.576 L1523.86 65.6895 Q1521.31 69.8214 1517.5 71.8063 Q1513.69 73.7508 1508.18 73.7508 Q1501.21 73.7508 1497.08 69.8619 Q1492.99 65.9325 1492.99 59.3701 Q1492.99 51.7138 1498.1 47.825 Q1503.24 43.9361 1513.41 43.9361 L1523.86 43.9361 L1523.86 43.2069 Q1523.86 38.0623 1520.46 35.2672 Q1517.09 32.4315 1510.98 32.4315 Q1507.09 32.4315 1503.4 33.3632 Q1499.72 34.295 1496.31 36.1584 L1496.31 29.2718 Q1500.4 27.692 1504.25 26.9223 Q1508.1 26.1121 1511.75 26.1121 Q1521.59 26.1121 1526.45 31.2163 Q1531.31 36.3204 1531.31 46.6907 Z" fill="#000000" fill-rule="nonzero" fill-opacity="1" /><path clip-path="url(#clip780)" d="M1579.23 49.9314 Q1579.23 41.7081 1575.83 37.0496 Q1572.47 32.3505 1566.56 32.3505 Q1560.64 32.3505 1557.24 37.0496 Q1553.88 41.7081 1553.88 49.9314 Q1553.88 58.1548 1557.24 62.8538 Q1560.64 67.5124 1566.56 67.5124 Q1572.47 67.5124 1575.83 62.8538 Q1579.23 58.1548 1579.23 49.9314 M1553.88 34.0924 Q1556.23 30.0415 1559.79 28.0971 Q1563.4 26.1121 1568.38 26.1121 Q1576.64 26.1121 1581.79 32.6746 Q1586.97 39.2371 1586.97 49.9314 Q1586.97 60.6258 1581.79 67.1883 Q1576.64 73.7508 1568.38 73.7508 Q1563.4 73.7508 1559.79 71.8063 Q1556.23 69.8214 1553.88 65.7705 L1553.88 72.576 L1546.38 72.576 L1546.38 9.54393 L1553.88 9.54393 L1553.88 34.0924 Z" fill="#000000" fill-rule="nonzero" fill-opacity="1" /><path clip-path="url(#clip780)" d="M1599.33 27.2059 L1606.78 27.2059 L1606.78 72.576 L1599.33 72.576 L1599.33 27.2059 M1599.33 9.54393 L1606.78 9.54393 L1606.78 18.9825 L1599.33 18.9825 L1599.33 9.54393 Z" fill="#000000" fill-rule="nonzero" fill-opacity="1" /><path clip-path="url(#clip780)" d="M1622.38 9.54393 L1629.83 9.54393 L1629.83 72.576 L1622.38 72.576 L1622.38 9.54393 Z" fill="#000000" fill-rule="nonzero" fill-opacity="1" /><path clip-path="url(#clip780)" d="M1645.43 27.2059 L1652.88 27.2059 L1652.88 72.576 L1645.43 72.576 L1645.43 27.2059 M1645.43 9.54393 L1652.88 9.54393 L1652.88 18.9825 L1645.43 18.9825 L1645.43 9.54393 Z" fill="#000000" fill-rule="nonzero" fill-opacity="1" /><path clip-path="url(#clip780)" d="M1675.85 14.324 L1675.85 27.2059 L1691.2 27.2059 L1691.2 32.9987 L1675.85 32.9987 L1675.85 57.6282 Q1675.85 63.1779 1677.35 64.7578 Q1678.89 66.3376 1683.55 66.3376 L1691.2 66.3376 L1691.2 72.576 L1683.55 72.576 Q1674.92 72.576 1671.64 69.3758 Q1668.35 66.1351 1668.35 57.6282 L1668.35 32.9987 L1662.89 32.9987 L1662.89 27.2059 L1668.35 27.2059 L1668.35 14.324 L1675.85 14.324 Z" fill="#000000" fill-rule="nonzero" fill-opacity="1" /><path clip-path="url(#clip780)" d="M1719.88 76.7889 Q1716.72 84.8907 1713.72 87.3618 Q1710.73 89.8329 1705.7 89.8329 L1699.75 89.8329 L1699.75 83.5945 L1704.12 83.5945 Q1707.2 83.5945 1708.9 82.1361 Q1710.61 80.6778 1712.67 75.2496 L1714.01 71.8468 L1695.66 27.2059 L1703.56 27.2059 L1717.74 62.6918 L1731.91 27.2059 L1739.81 27.2059 L1719.88 76.7889 Z" fill="#000000" fill-rule="nonzero" fill-opacity="1" /><path clip-path="url(#clip780)" d="M1752.01 62.2867 L1760.55 62.2867 L1760.55 69.2543 L1753.91 82.2172 L1748.68 82.2172 L1752.01 69.2543 L1752.01 62.2867 Z" fill="#000000" fill-rule="nonzero" fill-opacity="1" /><path clip-path="url(#clip780)" d="M1802.84 9.54393 L1810.3 9.54393 L1810.3 72.576 L1802.84 72.576 L1802.84 9.54393 Z" fill="#000000" fill-rule="nonzero" fill-opacity="1" /><path clip-path="url(#clip780)" d="M1864.7 48.0275 L1864.7 51.6733 L1830.43 51.6733 Q1830.92 59.3701 1835.05 63.421 Q1839.22 67.4314 1846.64 67.4314 Q1850.93 67.4314 1854.94 66.3781 Q1858.99 65.3249 1862.96 63.2184 L1862.96 70.267 Q1858.95 71.9684 1854.74 72.8596 Q1850.52 73.7508 1846.19 73.7508 Q1835.33 73.7508 1828.97 67.4314 Q1822.65 61.1119 1822.65 50.3365 Q1822.65 39.1965 1828.65 32.6746 Q1834.68 26.1121 1844.89 26.1121 Q1854.05 26.1121 1859.35 32.0264 Q1864.7 37.9003 1864.7 48.0275 M1857.25 45.84 Q1857.17 39.7232 1853.81 36.0774 Q1850.48 32.4315 1844.97 32.4315 Q1838.74 32.4315 1834.97 35.9558 Q1831.24 39.4801 1830.67 45.8805 L1857.25 45.84 Z" fill="#000000" fill-rule="nonzero" fill-opacity="1" /><path clip-path="url(#clip780)" d="M1897.55 49.7694 Q1888.52 49.7694 1885.04 51.8354 Q1881.55 53.9013 1881.55 58.8839 Q1881.55 62.8538 1884.15 65.2034 Q1886.78 67.5124 1891.28 67.5124 Q1897.47 67.5124 1901.2 63.1374 Q1904.97 58.7219 1904.97 51.4303 L1904.97 49.7694 L1897.55 49.7694 M1912.42 46.6907 L1912.42 72.576 L1904.97 72.576 L1904.97 65.6895 Q1902.42 69.8214 1898.61 71.8063 Q1894.8 73.7508 1889.29 73.7508 Q1882.32 73.7508 1878.19 69.8619 Q1874.1 65.9325 1874.1 59.3701 Q1874.1 51.7138 1879.2 47.825 Q1884.35 43.9361 1894.52 43.9361 L1904.97 43.9361 L1904.97 43.2069 Q1904.97 38.0623 1901.57 35.2672 Q1898.2 32.4315 1892.09 32.4315 Q1888.2 32.4315 1884.51 33.3632 Q1880.82 34.295 1877.42 36.1584 L1877.42 29.2718 Q1881.51 27.692 1885.36 26.9223 Q1889.21 26.1121 1892.86 26.1121 Q1902.7 26.1121 1907.56 31.2163 Q1912.42 36.3204 1912.42 46.6907 Z" fill="#000000" fill-rule="nonzero" fill-opacity="1" /><path clip-path="url(#clip780)" d="M1957.63 34.0924 L1957.63 9.54393 L1965.08 9.54393 L1965.08 72.576 L1957.63 72.576 L1957.63 65.7705 Q1955.28 69.8214 1951.67 71.8063 Q1948.11 73.7508 1943.09 73.7508 Q1934.86 73.7508 1929.68 67.1883 Q1924.53 60.6258 1924.53 49.9314 Q1924.53 39.2371 1929.68 32.6746 Q1934.86 26.1121 1943.09 26.1121 Q1948.11 26.1121 1951.67 28.0971 Q1955.28 30.0415 1957.63 34.0924 M1932.23 49.9314 Q1932.23 58.1548 1935.59 62.8538 Q1939 67.5124 1944.91 67.5124 Q1950.82 67.5124 1954.23 62.8538 Q1957.63 58.1548 1957.63 49.9314 Q1957.63 41.7081 1954.23 37.0496 Q1950.82 32.3505 1944.91 32.3505 Q1939 32.3505 1935.59 37.0496 Q1932.23 41.7081 1932.23 49.9314 Z" fill="#000000" fill-rule="nonzero" fill-opacity="1" /><path clip-path="url(#clip780)" d="M2019.24 48.0275 L2019.24 51.6733 L1984.97 51.6733 Q1985.46 59.3701 1989.59 63.421 Q1993.76 67.4314 2001.18 67.4314 Q2005.47 67.4314 2009.48 66.3781 Q2013.53 65.3249 2017.5 63.2184 L2017.5 70.267 Q2013.49 71.9684 2009.28 72.8596 Q2005.07 73.7508 2000.73 73.7508 Q1989.88 73.7508 1983.52 67.4314 Q1977.2 61.1119 1977.2 50.3365 Q1977.2 39.1965 1983.19 32.6746 Q1989.23 26.1121 1999.44 26.1121 Q2008.59 26.1121 2013.9 32.0264 Q2019.24 37.9003 2019.24 48.0275 M2011.79 45.84 Q2011.71 39.7232 2008.35 36.0774 Q2005.03 32.4315 1999.52 32.4315 Q1993.28 32.4315 1989.51 35.9558 Q1985.78 39.4801 1985.22 45.8805 L2011.79 45.84 Z" fill="#000000" fill-rule="nonzero" fill-opacity="1" /><path clip-path="url(#clip780)" d="M2057.77 34.1734 Q2056.51 33.4443 2055.01 33.1202 Q2053.56 32.7556 2051.77 32.7556 Q2045.45 32.7556 2042.05 36.8875 Q2038.69 40.9789 2038.69 48.6757 L2038.69 72.576 L2031.19 72.576 L2031.19 27.2059 L2038.69 27.2059 L2038.69 34.2544 Q2041.04 30.1225 2044.81 28.1376 Q2048.57 26.1121 2053.96 26.1121 Q2054.73 26.1121 2055.66 26.2337 Q2056.59 26.3147 2057.73 26.5172 L2057.77 34.1734 Z" fill="#000000" fill-rule="nonzero" fill-opacity="1" /><path clip-path="url(#clip780)" d="M2072.63 12.096 L2072.63 34.5785 L2065.75 34.5785 L2065.75 12.096 L2072.63 12.096 Z" fill="#000000" fill-rule="nonzero" fill-opacity="1" /><path clip-path="url(#clip780)" d="M2117.32 28.5427 L2117.32 35.5912 Q2114.16 33.9709 2110.75 33.1607 Q2107.35 32.3505 2103.71 32.3505 Q2098.16 32.3505 2095.36 34.0519 Q2092.61 35.7533 2092.61 39.156 Q2092.61 41.7486 2094.59 43.2475 Q2096.58 44.7058 2102.57 46.0426 L2105.12 46.6097 Q2113.06 48.3111 2116.38 51.4303 Q2119.75 54.509 2119.75 60.0587 Q2119.75 66.3781 2114.72 70.0644 Q2109.74 73.7508 2100.99 73.7508 Q2097.35 73.7508 2093.38 73.0216 Q2089.45 72.3329 2085.07 70.9151 L2085.07 63.2184 Q2089.2 65.3654 2093.21 66.4591 Q2097.22 67.5124 2101.15 67.5124 Q2106.42 67.5124 2109.26 65.73 Q2112.09 63.9071 2112.09 60.6258 Q2112.09 57.5877 2110.02 55.9673 Q2108 54.3469 2101.07 52.8481 L2098.48 52.2405 Q2091.55 50.7821 2088.47 47.7845 Q2085.4 44.7463 2085.4 39.4801 Q2085.4 33.0797 2089.93 29.5959 Q2094.47 26.1121 2102.81 26.1121 Q2106.95 26.1121 2110.59 26.7198 Q2114.24 27.3274 2117.32 28.5427 Z" fill="#000000" fill-rule="nonzero" fill-opacity="1" /><path clip-path="url(#clip780)" d="M2165.2 65.7705 L2165.2 89.8329 L2157.7 89.8329 L2157.7 27.2059 L2165.2 27.2059 L2165.2 34.0924 Q2167.55 30.0415 2171.11 28.0971 Q2174.72 26.1121 2179.7 26.1121 Q2187.96 26.1121 2193.11 32.6746 Q2198.29 39.2371 2198.29 49.9314 Q2198.29 60.6258 2193.11 67.1883 Q2187.96 73.7508 2179.7 73.7508 Q2174.72 73.7508 2171.11 71.8063 Q2167.55 69.8214 2165.2 65.7705 M2190.56 49.9314 Q2190.56 41.7081 2187.15 37.0496 Q2183.79 32.3505 2177.88 32.3505 Q2171.96 32.3505 2168.56 37.0496 Q2165.2 41.7081 2165.2 49.9314 Q2165.2 58.1548 2168.56 62.8538 Q2171.96 67.5124 2177.88 67.5124 Q2183.79 67.5124 2187.15 62.8538 Q2190.56 58.1548 2190.56 49.9314 Z" fill="#000000" fill-rule="nonzero" fill-opacity="1" /><path clip-path="url(#clip780)" d="M2236.94 34.1734 Q2235.68 33.4443 2234.19 33.1202 Q2232.73 32.7556 2230.94 32.7556 Q2224.62 32.7556 2221.22 36.8875 Q2217.86 40.9789 2217.86 48.6757 L2217.86 72.576 L2210.37 72.576 L2210.37 27.2059 L2217.86 27.2059 L2217.86 34.2544 Q2220.21 30.1225 2223.98 28.1376 Q2227.74 26.1121 2233.13 26.1121 Q2233.9 26.1121 2234.83 26.2337 Q2235.76 26.3147 2236.9 26.5172 L2236.94 34.1734 Z" fill="#000000" fill-rule="nonzero" fill-opacity="1" /><path clip-path="url(#clip780)" d="M2244.76 27.2059 L2252.21 27.2059 L2252.21 72.576 L2244.76 72.576 L2244.76 27.2059 M2244.76 9.54393 L2252.21 9.54393 L2252.21 18.9825 L2244.76 18.9825 L2244.76 9.54393 Z" fill="#000000" fill-rule="nonzero" fill-opacity="1" /><path clip-path="url(#clip780)" d="M2300.46 28.9478 L2300.46 35.9153 Q2297.3 34.1734 2294.1 33.3227 Q2290.94 32.4315 2287.7 32.4315 Q2280.45 32.4315 2276.44 37.0496 Q2272.43 41.6271 2272.43 49.9314 Q2272.43 58.2358 2276.44 62.8538 Q2280.45 67.4314 2287.7 67.4314 Q2290.94 67.4314 2294.1 66.5807 Q2297.3 65.6895 2300.46 63.9476 L2300.46 70.8341 Q2297.34 72.2924 2293.98 73.0216 Q2290.65 73.7508 2286.89 73.7508 Q2276.64 73.7508 2270.6 67.3098 Q2264.57 60.8689 2264.57 49.9314 Q2264.57 38.832 2270.64 32.472 Q2276.76 26.1121 2287.37 26.1121 Q2290.82 26.1121 2294.1 26.8413 Q2297.38 27.5299 2300.46 28.9478 Z" fill="#000000" fill-rule="nonzero" fill-opacity="1" /><path clip-path="url(#clip780)" d="M2352.23 48.0275 L2352.23 51.6733 L2317.96 51.6733 Q2318.44 59.3701 2322.58 63.421 Q2326.75 67.4314 2334.16 67.4314 Q2338.46 67.4314 2342.47 66.3781 Q2346.52 65.3249 2350.49 63.2184 L2350.49 70.267 Q2346.48 71.9684 2342.26 72.8596 Q2338.05 73.7508 2333.72 73.7508 Q2322.86 73.7508 2316.5 67.4314 Q2310.18 61.1119 2310.18 50.3365 Q2310.18 39.1965 2316.18 32.6746 Q2322.21 26.1121 2332.42 26.1121 Q2341.57 26.1121 2346.88 32.0264 Q2352.23 37.9003 2352.23 48.0275 M2344.77 45.84 Q2344.69 39.7232 2341.33 36.0774 Q2338.01 32.4315 2332.5 32.4315 Q2326.26 32.4315 2322.49 35.9558 Q2318.77 39.4801 2318.2 45.8805 L2344.77 45.84 Z" fill="#000000" fill-rule="nonzero" fill-opacity="1" /><circle clip-path="url(#clip782)" cx="1247.07" cy="1080.69" r="14.4" fill="#009af9" fill-rule="evenodd" fill-opacity="1" stroke="#000000" stroke-opacity="1" stroke-width="3.2"/>
<circle clip-path="url(#clip782)" cx="1247.07" cy="1080.69" r="14.4" fill="#009af9" fill-rule="evenodd" fill-opacity="1" stroke="#000000" stroke-opacity="1" stroke-width="3.2"/>
<circle clip-path="url(#clip782)" cx="1156.71" cy="1084.38" r="14.4" fill="#009af9" fill-rule="evenodd" fill-opacity="1" stroke="#000000" stroke-opacity="1" stroke-width="3.2"/>
<circle clip-path="url(#clip782)" cx="1568.78" cy="1065.05" r="14.4" fill="#009af9" fill-rule="evenodd" fill-opacity="1" stroke="#000000" stroke-opacity="1" stroke-width="3.2"/>
<circle clip-path="url(#clip782)" cx="1089.24" cy="1087.39" r="14.4" fill="#009af9" fill-rule="evenodd" fill-opacity="1" stroke="#000000" stroke-opacity="1" stroke-width="3.2"/>
<circle clip-path="url(#clip782)" cx="1867.28" cy="1051.46" r="14.4" fill="#009af9" fill-rule="evenodd" fill-opacity="1" stroke="#000000" stroke-opacity="1" stroke-width="3.2"/>
<circle clip-path="url(#clip782)" cx="596.798" cy="1110.23" r="14.4" fill="#009af9" fill-rule="evenodd" fill-opacity="1" stroke="#000000" stroke-opacity="1" stroke-width="3.2"/>
<circle clip-path="url(#clip782)" cx="1272.98" cy="1078.83" r="14.4" fill="#009af9" fill-rule="evenodd" fill-opacity="1" stroke="#000000" stroke-opacity="1" stroke-width="3.2"/>
<circle clip-path="url(#clip782)" cx="589.19" cy="1110.43" r="14.4" fill="#009af9" fill-rule="evenodd" fill-opacity="1" stroke="#000000" stroke-opacity="1" stroke-width="3.2"/>
<circle clip-path="url(#clip782)" cx="1645.46" cy="1061.61" r="14.4" fill="#009af9" fill-rule="evenodd" fill-opacity="1" stroke="#000000" stroke-opacity="1" stroke-width="3.2"/>
<circle clip-path="url(#clip782)" cx="1941.39" cy="1047.96" r="14.4" fill="#009af9" fill-rule="evenodd" fill-opacity="1" stroke="#000000" stroke-opacity="1" stroke-width="3.2"/>
<circle clip-path="url(#clip782)" cx="1441.24" cy="1071.06" r="14.4" fill="#009af9" fill-rule="evenodd" fill-opacity="1" stroke="#000000" stroke-opacity="1" stroke-width="3.2"/>
<circle clip-path="url(#clip782)" cx="1215.98" cy="1081.53" r="14.4" fill="#009af9" fill-rule="evenodd" fill-opacity="1" stroke="#000000" stroke-opacity="1" stroke-width="3.2"/>
<circle clip-path="url(#clip782)" cx="1412.55" cy="1072.37" r="14.4" fill="#009af9" fill-rule="evenodd" fill-opacity="1" stroke="#000000" stroke-opacity="1" stroke-width="3.2"/>
<circle clip-path="url(#clip782)" cx="1914.55" cy="1049.12" r="14.4" fill="#009af9" fill-rule="evenodd" fill-opacity="1" stroke="#000000" stroke-opacity="1" stroke-width="3.2"/>
<circle clip-path="url(#clip782)" cx="1255.3" cy="1079.74" r="14.4" fill="#009af9" fill-rule="evenodd" fill-opacity="1" stroke="#000000" stroke-opacity="1" stroke-width="3.2"/>
<circle clip-path="url(#clip782)" cx="719.655" cy="1104.52" r="14.4" fill="#009af9" fill-rule="evenodd" fill-opacity="1" stroke="#000000" stroke-opacity="1" stroke-width="3.2"/>
<circle clip-path="url(#clip782)" cx="499.48" cy="1114.88" r="14.4" fill="#009af9" fill-rule="evenodd" fill-opacity="1" stroke="#000000" stroke-opacity="1" stroke-width="3.2"/>
<circle clip-path="url(#clip782)" cx="1200.48" cy="1082.31" r="14.4" fill="#009af9" fill-rule="evenodd" fill-opacity="1" stroke="#000000" stroke-opacity="1" stroke-width="3.2"/>
<circle clip-path="url(#clip782)" cx="964.404" cy="1093.36" r="14.4" fill="#009af9" fill-rule="evenodd" fill-opacity="1" stroke="#000000" stroke-opacity="1" stroke-width="3.2"/>
<circle clip-path="url(#clip782)" cx="1250.45" cy="1080" r="14.4" fill="#009af9" fill-rule="evenodd" fill-opacity="1" stroke="#000000" stroke-opacity="1" stroke-width="3.2"/>
<circle clip-path="url(#clip782)" cx="1288.18" cy="1078.25" r="14.4" fill="#009af9" fill-rule="evenodd" fill-opacity="1" stroke="#000000" stroke-opacity="1" stroke-width="3.2"/>
<circle clip-path="url(#clip782)" cx="1326.55" cy="1076.46" r="14.4" fill="#009af9" fill-rule="evenodd" fill-opacity="1" stroke="#000000" stroke-opacity="1" stroke-width="3.2"/>
<circle clip-path="url(#clip782)" cx="1332.03" cy="1076.18" r="14.4" fill="#009af9" fill-rule="evenodd" fill-opacity="1" stroke="#000000" stroke-opacity="1" stroke-width="3.2"/>
<circle clip-path="url(#clip782)" cx="1208.7" cy="1081.98" r="14.4" fill="#009af9" fill-rule="evenodd" fill-opacity="1" stroke="#000000" stroke-opacity="1" stroke-width="3.2"/>
<circle clip-path="url(#clip782)" cx="787.524" cy="1101.87" r="14.4" fill="#009af9" fill-rule="evenodd" fill-opacity="1" stroke="#000000" stroke-opacity="1" stroke-width="3.2"/>
<circle clip-path="url(#clip782)" cx="1249.81" cy="1080.05" r="14.4" fill="#009af9" fill-rule="evenodd" fill-opacity="1" stroke="#000000" stroke-opacity="1" stroke-width="3.2"/>
<circle clip-path="url(#clip782)" cx="860.286" cy="1098.51" r="14.4" fill="#009af9" fill-rule="evenodd" fill-opacity="1" stroke="#000000" stroke-opacity="1" stroke-width="3.2"/>
<circle clip-path="url(#clip782)" cx="1224.4" cy="1081.31" r="14.4" fill="#009af9" fill-rule="evenodd" fill-opacity="1" stroke="#000000" stroke-opacity="1" stroke-width="3.2"/>
<circle clip-path="url(#clip782)" cx="2043.4" cy="1042.77" r="14.4" fill="#009af9" fill-rule="evenodd" fill-opacity="1" stroke="#000000" stroke-opacity="1" stroke-width="3.2"/>
<circle clip-path="url(#clip782)" cx="1625.64" cy="1062.29" r="14.4" fill="#009af9" fill-rule="evenodd" fill-opacity="1" stroke="#000000" stroke-opacity="1" stroke-width="3.2"/>
<circle clip-path="url(#clip782)" cx="1630.99" cy="1062.1" r="14.4" fill="#009af9" fill-rule="evenodd" fill-opacity="1" stroke="#000000" stroke-opacity="1" stroke-width="3.2"/>
<circle clip-path="url(#clip782)" cx="349.339" cy="1122.53" r="14.4" fill="#009af9" fill-rule="evenodd" fill-opacity="1" stroke="#000000" stroke-opacity="1" stroke-width="3.2"/>
<circle clip-path="url(#clip782)" cx="1324.98" cy="1076.6" r="14.4" fill="#009af9" fill-rule="evenodd" fill-opacity="1" stroke="#000000" stroke-opacity="1" stroke-width="3.2"/>
<circle clip-path="url(#clip782)" cx="1298.78" cy="1077.8" r="14.4" fill="#009af9" fill-rule="evenodd" fill-opacity="1" stroke="#000000" stroke-opacity="1" stroke-width="3.2"/>
<circle clip-path="url(#clip782)" cx="1043.98" cy="697.689" r="14.4" fill="#009af9" fill-rule="evenodd" fill-opacity="1" stroke="#000000" stroke-opacity="1" stroke-width="3.2"/>
<circle clip-path="url(#clip782)" cx="1171.91" cy="1083.79" r="14.4" fill="#009af9" fill-rule="evenodd" fill-opacity="1" stroke="#000000" stroke-opacity="1" stroke-width="3.2"/>
<circle clip-path="url(#clip782)" cx="1225.15" cy="1081.32" r="14.4" fill="#009af9" fill-rule="evenodd" fill-opacity="1" stroke="#000000" stroke-opacity="1" stroke-width="3.2"/>
<circle clip-path="url(#clip782)" cx="2286.61" cy="1423.18" r="14.4" fill="#009af9" fill-rule="evenodd" fill-opacity="1" stroke="#000000" stroke-opacity="1" stroke-width="3.2"/>
<circle clip-path="url(#clip782)" cx="1021.02" cy="1091.05" r="14.4" fill="#009af9" fill-rule="evenodd" fill-opacity="1" stroke="#000000" stroke-opacity="1" stroke-width="3.2"/>
<circle clip-path="url(#clip782)" cx="922.983" cy="1095.68" r="14.4" fill="#009af9" fill-rule="evenodd" fill-opacity="1" stroke="#000000" stroke-opacity="1" stroke-width="3.2"/>
<circle clip-path="url(#clip782)" cx="479.143" cy="1116.6" r="14.4" fill="#009af9" fill-rule="evenodd" fill-opacity="1" stroke="#000000" stroke-opacity="1" stroke-width="3.2"/>
<circle clip-path="url(#clip782)" cx="2200.6" cy="1035.04" r="14.4" fill="#009af9" fill-rule="evenodd" fill-opacity="1" stroke="#000000" stroke-opacity="1" stroke-width="3.2"/>
<circle clip-path="url(#clip782)" cx="1609.53" cy="1063.01" r="14.4" fill="#009af9" fill-rule="evenodd" fill-opacity="1" stroke="#000000" stroke-opacity="1" stroke-width="3.2"/>
<circle clip-path="url(#clip782)" cx="2025.56" cy="1043.31" r="14.4" fill="#009af9" fill-rule="evenodd" fill-opacity="1" stroke="#000000" stroke-opacity="1" stroke-width="3.2"/>
<circle clip-path="url(#clip782)" cx="1109.71" cy="1086.75" r="14.4" fill="#009af9" fill-rule="evenodd" fill-opacity="1" stroke="#000000" stroke-opacity="1" stroke-width="3.2"/>
<circle clip-path="url(#clip782)" cx="1216.93" cy="1081.81" r="14.4" fill="#009af9" fill-rule="evenodd" fill-opacity="1" stroke="#000000" stroke-opacity="1" stroke-width="3.2"/>
<circle clip-path="url(#clip782)" cx="300.902" cy="1125.43" r="14.4" fill="#009af9" fill-rule="evenodd" fill-opacity="1" stroke="#000000" stroke-opacity="1" stroke-width="3.2"/>
<circle clip-path="url(#clip782)" cx="305.662" cy="1125.28" r="14.4" fill="#009af9" fill-rule="evenodd" fill-opacity="1" stroke="#000000" stroke-opacity="1" stroke-width="3.2"/>
<circle clip-path="url(#clip782)" cx="1334.77" cy="1076.12" r="14.4" fill="#009af9" fill-rule="evenodd" fill-opacity="1" stroke="#000000" stroke-opacity="1" stroke-width="3.2"/>
<circle clip-path="url(#clip782)" cx="2254.84" cy="1032.13" r="14.4" fill="#009af9" fill-rule="evenodd" fill-opacity="1" stroke="#000000" stroke-opacity="1" stroke-width="3.2"/>
<circle clip-path="url(#clip782)" cx="2292.99" cy="1030.14" r="14.4" fill="#009af9" fill-rule="evenodd" fill-opacity="1" stroke="#000000" stroke-opacity="1" stroke-width="3.2"/>
<circle clip-path="url(#clip782)" cx="1272.1" cy="1079.01" r="14.4" fill="#009af9" fill-rule="evenodd" fill-opacity="1" stroke="#000000" stroke-opacity="1" stroke-width="3.2"/>
<circle clip-path="url(#clip782)" cx="376.393" cy="1121.85" r="14.4" fill="#009af9" fill-rule="evenodd" fill-opacity="1" stroke="#000000" stroke-opacity="1" stroke-width="3.2"/>
<circle clip-path="url(#clip782)" cx="418.563" cy="1119.95" r="14.4" fill="#009af9" fill-rule="evenodd" fill-opacity="1" stroke="#000000" stroke-opacity="1" stroke-width="3.2"/>
<circle clip-path="url(#clip782)" cx="1177.27" cy="1083.77" r="14.4" fill="#009af9" fill-rule="evenodd" fill-opacity="1" stroke="#000000" stroke-opacity="1" stroke-width="3.2"/>
<circle clip-path="url(#clip782)" cx="1218.2" cy="1081.79" r="14.4" fill="#009af9" fill-rule="evenodd" fill-opacity="1" stroke="#000000" stroke-opacity="1" stroke-width="3.2"/>
<circle clip-path="url(#clip782)" cx="1394.67" cy="1073.25" r="14.4" fill="#009af9" fill-rule="evenodd" fill-opacity="1" stroke="#000000" stroke-opacity="1" stroke-width="3.2"/>
<circle clip-path="url(#clip782)" cx="1424.67" cy="1071.77" r="14.4" fill="#009af9" fill-rule="evenodd" fill-opacity="1" stroke="#000000" stroke-opacity="1" stroke-width="3.2"/>
<circle clip-path="url(#clip782)" cx="860.684" cy="1098.98" r="14.4" fill="#009af9" fill-rule="evenodd" fill-opacity="1" stroke="#000000" stroke-opacity="1" stroke-width="3.2"/>
<circle clip-path="url(#clip782)" cx="1266.26" cy="1079.48" r="14.4" fill="#009af9" fill-rule="evenodd" fill-opacity="1" stroke="#000000" stroke-opacity="1" stroke-width="3.2"/>
<circle clip-path="url(#clip782)" cx="1041.73" cy="1090.29" r="14.4" fill="#009af9" fill-rule="evenodd" fill-opacity="1" stroke="#000000" stroke-opacity="1" stroke-width="3.2"/>
<circle clip-path="url(#clip782)" cx="1706.64" cy="1058.12" r="14.4" fill="#009af9" fill-rule="evenodd" fill-opacity="1" stroke="#000000" stroke-opacity="1" stroke-width="3.2"/>
<circle clip-path="url(#clip782)" cx="1920.52" cy="1048.01" r="14.4" fill="#009af9" fill-rule="evenodd" fill-opacity="1" stroke="#000000" stroke-opacity="1" stroke-width="3.2"/>
<circle clip-path="url(#clip782)" cx="1308.63" cy="1077.42" r="14.4" fill="#009af9" fill-rule="evenodd" fill-opacity="1" stroke="#000000" stroke-opacity="1" stroke-width="3.2"/>
<circle clip-path="url(#clip782)" cx="1170.33" cy="1084.24" r="14.4" fill="#009af9" fill-rule="evenodd" fill-opacity="1" stroke="#000000" stroke-opacity="1" stroke-width="3.2"/>
<circle clip-path="url(#clip782)" cx="1201.97" cy="1082.39" r="14.4" fill="#009af9" fill-rule="evenodd" fill-opacity="1" stroke="#000000" stroke-opacity="1" stroke-width="3.2"/>
<circle clip-path="url(#clip782)" cx="1241.59" cy="1080.51" r="14.4" fill="#009af9" fill-rule="evenodd" fill-opacity="1" stroke="#000000" stroke-opacity="1" stroke-width="3.2"/>
<circle clip-path="url(#clip782)" cx="935.227" cy="1095.52" r="14.4" fill="#009af9" fill-rule="evenodd" fill-opacity="1" stroke="#000000" stroke-opacity="1" stroke-width="3.2"/>
<circle clip-path="url(#clip782)" cx="602.281" cy="1111.66" r="14.4" fill="#009af9" fill-rule="evenodd" fill-opacity="1" stroke="#000000" stroke-opacity="1" stroke-width="3.2"/>
<circle clip-path="url(#clip782)" cx="1625.85" cy="1062.12" r="14.4" fill="#009af9" fill-rule="evenodd" fill-opacity="1" stroke="#000000" stroke-opacity="1" stroke-width="3.2"/>
<circle clip-path="url(#clip782)" cx="1602.77" cy="1063.04" r="14.4" fill="#009af9" fill-rule="evenodd" fill-opacity="1" stroke="#000000" stroke-opacity="1" stroke-width="3.2"/>
<circle clip-path="url(#clip782)" cx="826.141" cy="1100.63" r="14.4" fill="#009af9" fill-rule="evenodd" fill-opacity="1" stroke="#000000" stroke-opacity="1" stroke-width="3.2"/>
<circle clip-path="url(#clip782)" cx="865.551" cy="1098.84" r="14.4" fill="#009af9" fill-rule="evenodd" fill-opacity="1" stroke="#000000" stroke-opacity="1" stroke-width="3.2"/>
<circle clip-path="url(#clip782)" cx="1249.81" cy="1080.38" r="14.4" fill="#009af9" fill-rule="evenodd" fill-opacity="1" stroke="#000000" stroke-opacity="1" stroke-width="3.2"/>
<circle clip-path="url(#clip782)" cx="1662.52" cy="1060.19" r="14.4" fill="#009af9" fill-rule="evenodd" fill-opacity="1" stroke="#000000" stroke-opacity="1" stroke-width="3.2"/>
<circle clip-path="url(#clip782)" cx="1635.65" cy="1061.63" r="14.4" fill="#009af9" fill-rule="evenodd" fill-opacity="1" stroke="#000000" stroke-opacity="1" stroke-width="3.2"/>
<circle clip-path="url(#clip782)" cx="863.011" cy="1099.01" r="14.4" fill="#009af9" fill-rule="evenodd" fill-opacity="1" stroke="#000000" stroke-opacity="1" stroke-width="3.2"/>
<circle clip-path="url(#clip782)" cx="867.292" cy="1098.92" r="14.4" fill="#009af9" fill-rule="evenodd" fill-opacity="1" stroke="#000000" stroke-opacity="1" stroke-width="3.2"/>
<circle clip-path="url(#clip782)" cx="817.384" cy="1101.39" r="14.4" fill="#009af9" fill-rule="evenodd" fill-opacity="1" stroke="#000000" stroke-opacity="1" stroke-width="3.2"/>
<circle clip-path="url(#clip782)" cx="1393.14" cy="1073.22" r="14.4" fill="#009af9" fill-rule="evenodd" fill-opacity="1" stroke="#000000" stroke-opacity="1" stroke-width="3.2"/>
<circle clip-path="url(#clip782)" cx="1605.72" cy="1063.26" r="14.4" fill="#009af9" fill-rule="evenodd" fill-opacity="1" stroke="#000000" stroke-opacity="1" stroke-width="3.2"/>
<circle clip-path="url(#clip782)" cx="973.869" cy="1093.56" r="14.4" fill="#009af9" fill-rule="evenodd" fill-opacity="1" stroke="#000000" stroke-opacity="1" stroke-width="3.2"/>
<circle clip-path="url(#clip782)" cx="1725.1" cy="1057.26" r="14.4" fill="#009af9" fill-rule="evenodd" fill-opacity="1" stroke="#000000" stroke-opacity="1" stroke-width="3.2"/>
<circle clip-path="url(#clip782)" cx="2142.3" cy="1036.83" r="14.4" fill="#009af9" fill-rule="evenodd" fill-opacity="1" stroke="#000000" stroke-opacity="1" stroke-width="3.2"/>
<circle clip-path="url(#clip782)" cx="1550.42" cy="1065.62" r="14.4" fill="#009af9" fill-rule="evenodd" fill-opacity="1" stroke="#000000" stroke-opacity="1" stroke-width="3.2"/>
<circle clip-path="url(#clip782)" cx="1317.62" cy="1076.94" r="14.4" fill="#009af9" fill-rule="evenodd" fill-opacity="1" stroke="#000000" stroke-opacity="1" stroke-width="3.2"/>
<circle clip-path="url(#clip782)" cx="1154.56" cy="1084.93" r="14.4" fill="#009af9" fill-rule="evenodd" fill-opacity="1" stroke="#000000" stroke-opacity="1" stroke-width="3.2"/>
<circle clip-path="url(#clip782)" cx="877.403" cy="1098.46" r="14.4" fill="#009af9" fill-rule="evenodd" fill-opacity="1" stroke="#000000" stroke-opacity="1" stroke-width="3.2"/>
<circle clip-path="url(#clip782)" cx="925.524" cy="1095.99" r="14.4" fill="#009af9" fill-rule="evenodd" fill-opacity="1" stroke="#000000" stroke-opacity="1" stroke-width="3.2"/>
<circle clip-path="url(#clip782)" cx="1114.78" cy="1086.6" r="14.4" fill="#009af9" fill-rule="evenodd" fill-opacity="1" stroke="#000000" stroke-opacity="1" stroke-width="3.2"/>
<circle clip-path="url(#clip782)" cx="1648.3" cy="1060.79" r="14.4" fill="#009af9" fill-rule="evenodd" fill-opacity="1" stroke="#000000" stroke-opacity="1" stroke-width="3.2"/>
<circle clip-path="url(#clip782)" cx="1301.89" cy="1077.87" r="14.4" fill="#009af9" fill-rule="evenodd" fill-opacity="1" stroke="#000000" stroke-opacity="1" stroke-width="3.2"/>
<circle clip-path="url(#clip782)" cx="625.197" cy="1110.73" r="14.4" fill="#009af9" fill-rule="evenodd" fill-opacity="1" stroke="#000000" stroke-opacity="1" stroke-width="3.2"/>
<circle clip-path="url(#clip782)" cx="1584.56" cy="1063.99" r="14.4" fill="#009af9" fill-rule="evenodd" fill-opacity="1" stroke="#000000" stroke-opacity="1" stroke-width="3.2"/>
<circle clip-path="url(#clip782)" cx="1538.76" cy="1066.12" r="14.4" fill="#009af9" fill-rule="evenodd" fill-opacity="1" stroke="#000000" stroke-opacity="1" stroke-width="3.2"/>
<circle clip-path="url(#clip782)" cx="1901.82" cy="1048.51" r="14.4" fill="#009af9" fill-rule="evenodd" fill-opacity="1" stroke="#000000" stroke-opacity="1" stroke-width="3.2"/>
<circle clip-path="url(#clip782)" cx="806.765" cy="1101.99" r="14.4" fill="#009af9" fill-rule="evenodd" fill-opacity="1" stroke="#000000" stroke-opacity="1" stroke-width="3.2"/>
<circle clip-path="url(#clip782)" cx="870.424" cy="1098.9" r="14.4" fill="#009af9" fill-rule="evenodd" fill-opacity="1" stroke="#000000" stroke-opacity="1" stroke-width="3.2"/>
<circle clip-path="url(#clip782)" cx="589.581" cy="1112.59" r="14.4" fill="#009af9" fill-rule="evenodd" fill-opacity="1" stroke="#000000" stroke-opacity="1" stroke-width="3.2"/>
<path clip-path="url(#clip780)" d="M1978.45 270.476 L2282.37 270.476 L2282.37 166.796 L1978.45 166.796  Z" fill="#ffffff" fill-rule="evenodd" fill-opacity="1"/>
<polyline clip-path="url(#clip780)" style="stroke:#000000; stroke-linecap:round; stroke-linejoin:round; stroke-width:4; stroke-opacity:1; fill:none" points="1978.45,270.476 2282.37,270.476 2282.37,166.796 1978.45,166.796 1978.45,270.476 "/>
<circle clip-path="url(#clip780)" cx="2072.3" cy="218.636" r="20.48" fill="#009af9" fill-rule="evenodd" fill-opacity="1" stroke="#000000" stroke-opacity="1" stroke-width="4.55111"/>
<path clip-path="url(#clip780)" d="M2166.15 201.356 L2173.12 201.356 L2181.94 224.874 L2190.8 201.356 L2197.77 201.356 L2197.77 235.916 L2193.21 235.916 L2193.21 205.569 L2184.3 229.272 L2179.6 229.272 L2170.69 205.569 L2170.69 235.916 L2166.15 235.916 L2166.15 201.356 Z" fill="#000000" fill-rule="nonzero" fill-opacity="1" /><path clip-path="url(#clip780)" d="M2207.05 201.356 L2211.73 201.356 L2211.73 215.962 L2227.24 201.356 L2233.26 201.356 L2216.11 217.467 L2234.49 235.916 L2228.33 235.916 L2211.73 219.272 L2211.73 235.916 L2207.05 235.916 L2207.05 201.356 Z" fill="#000000" fill-rule="nonzero" fill-opacity="1" /><path clip-path="url(#clip780)" d="M2242.59 231.981 L2258.91 231.981 L2258.91 235.916 L2236.96 235.916 L2236.96 231.981 Q2239.62 229.226 2244.21 224.596 Q2248.81 219.944 2249.99 218.601 Q2252.24 216.078 2253.12 214.342 Q2254.02 212.583 2254.02 210.893 Q2254.02 208.138 2252.08 206.402 Q2250.16 204.666 2247.05 204.666 Q2244.86 204.666 2242.4 205.43 Q2239.97 206.194 2237.19 207.745 L2237.19 203.022 Q2240.02 201.888 2242.47 201.309 Q2244.92 200.731 2246.96 200.731 Q2252.33 200.731 2255.53 203.416 Q2258.72 206.101 2258.72 210.592 Q2258.72 212.721 2257.91 214.643 Q2257.12 216.541 2255.02 219.133 Q2254.44 219.805 2251.34 223.022 Q2248.24 226.217 2242.59 231.981 Z" fill="#000000" fill-rule="nonzero" fill-opacity="1" /></svg>
