<?xml version="1.0" encoding="utf-8"?>
<svg xmlns="http://www.w3.org/2000/svg" xmlns:xlink="http://www.w3.org/1999/xlink" width="600" height="400" viewBox="0 0 2400 1600">
<defs>
  <clipPath id="clip970">
    <rect x="0" y="0" width="2400" height="1600"/>
  </clipPath>
</defs>
<path clip-path="url(#clip970)" d="M0 1600 L2400 1600 L2400 0 L0 0  Z" fill="#ffffff" fill-rule="evenodd" fill-opacity="1"/>
<defs>
  <clipPath id="clip971">
    <rect x="257" y="123" width="2097" height="1301"/>
  </clipPath>
</defs>
<path clip-path="url(#clip970)" d="M210.746 1423.18 L2352.76 1423.18 L2352.76 123.472 L210.746 123.472  Z" fill="#ffffff" fill-rule="evenodd" fill-opacity="1"/>
<defs>
  <clipPath id="clip972">
    <rect x="210" y="123" width="2143" height="1301"/>
  </clipPath>
</defs>
<polyline clip-path="url(#clip972)" style="stroke:#000000; stroke-linecap:round; stroke-linejoin:round; stroke-width:2; stroke-opacity:0.1; fill:none" points="272.584,1423.18 272.584,123.472 "/>
<polyline clip-path="url(#clip972)" style="stroke:#000000; stroke-linecap:round; stroke-linejoin:round; stroke-width:2; stroke-opacity:0.1; fill:none" points="753.184,1423.18 753.184,123.472 "/>
<polyline clip-path="url(#clip972)" style="stroke:#000000; stroke-linecap:round; stroke-linejoin:round; stroke-width:2; stroke-opacity:0.1; fill:none" points="1233.78,1423.18 1233.78,123.472 "/>
<polyline clip-path="url(#clip972)" style="stroke:#000000; stroke-linecap:round; stroke-linejoin:round; stroke-width:2; stroke-opacity:0.1; fill:none" points="1714.39,1423.18 1714.39,123.472 "/>
<polyline clip-path="url(#clip972)" style="stroke:#000000; stroke-linecap:round; stroke-linejoin:round; stroke-width:2; stroke-opacity:0.1; fill:none" points="2194.99,1423.18 2194.99,123.472 "/>
<polyline clip-path="url(#clip972)" style="stroke:#000000; stroke-linecap:round; stroke-linejoin:round; stroke-width:2; stroke-opacity:0.1; fill:none" points="210.746,1151.46 2352.76,1151.46 "/>
<polyline clip-path="url(#clip972)" style="stroke:#000000; stroke-linecap:round; stroke-linejoin:round; stroke-width:2; stroke-opacity:0.1; fill:none" points="210.746,812.228 2352.76,812.228 "/>
<polyline clip-path="url(#clip972)" style="stroke:#000000; stroke-linecap:round; stroke-linejoin:round; stroke-width:2; stroke-opacity:0.1; fill:none" points="210.746,472.992 2352.76,472.992 "/>
<polyline clip-path="url(#clip972)" style="stroke:#000000; stroke-linecap:round; stroke-linejoin:round; stroke-width:2; stroke-opacity:0.1; fill:none" points="210.746,133.755 2352.76,133.755 "/>
<polyline clip-path="url(#clip970)" style="stroke:#000000; stroke-linecap:round; stroke-linejoin:round; stroke-width:4; stroke-opacity:1; fill:none" points="210.746,1423.18 2352.76,1423.18 "/>
<polyline clip-path="url(#clip970)" style="stroke:#000000; stroke-linecap:round; stroke-linejoin:round; stroke-width:4; stroke-opacity:1; fill:none" points="272.584,1423.18 272.584,1404.28 "/>
<polyline clip-path="url(#clip970)" style="stroke:#000000; stroke-linecap:round; stroke-linejoin:round; stroke-width:4; stroke-opacity:1; fill:none" points="753.184,1423.18 753.184,1404.28 "/>
<polyline clip-path="url(#clip970)" style="stroke:#000000; stroke-linecap:round; stroke-linejoin:round; stroke-width:4; stroke-opacity:1; fill:none" points="1233.78,1423.18 1233.78,1404.28 "/>
<polyline clip-path="url(#clip970)" style="stroke:#000000; stroke-linecap:round; stroke-linejoin:round; stroke-width:4; stroke-opacity:1; fill:none" points="1714.39,1423.18 1714.39,1404.28 "/>
<polyline clip-path="url(#clip970)" style="stroke:#000000; stroke-linecap:round; stroke-linejoin:round; stroke-width:4; stroke-opacity:1; fill:none" points="2194.99,1423.18 2194.99,1404.28 "/>
<path clip-path="url(#clip970)" d="M204.83 1468.75 L234.506 1468.75 L234.506 1472.69 L204.83 1472.69 L204.83 1468.75 Z" fill="#000000" fill-rule="nonzero" fill-opacity="1" /><path clip-path="url(#clip970)" d="M254.598 1454.1 Q250.987 1454.1 249.158 1457.66 Q247.353 1461.2 247.353 1468.33 Q247.353 1475.44 249.158 1479.01 Q250.987 1482.55 254.598 1482.55 Q258.232 1482.55 260.038 1479.01 Q261.866 1475.44 261.866 1468.33 Q261.866 1461.2 260.038 1457.66 Q258.232 1454.1 254.598 1454.1 M254.598 1450.39 Q260.408 1450.39 263.464 1455 Q266.542 1459.58 266.542 1468.33 Q266.542 1477.06 263.464 1481.67 Q260.408 1486.25 254.598 1486.25 Q248.788 1486.25 245.709 1481.67 Q242.654 1477.06 242.654 1468.33 Q242.654 1459.58 245.709 1455 Q248.788 1450.39 254.598 1450.39 Z" fill="#000000" fill-rule="nonzero" fill-opacity="1" /><path clip-path="url(#clip970)" d="M274.76 1479.7 L279.644 1479.7 L279.644 1485.58 L274.76 1485.58 L274.76 1479.7 Z" fill="#000000" fill-rule="nonzero" fill-opacity="1" /><path clip-path="url(#clip970)" d="M299.829 1454.1 Q296.218 1454.1 294.389 1457.66 Q292.584 1461.2 292.584 1468.33 Q292.584 1475.44 294.389 1479.01 Q296.218 1482.55 299.829 1482.55 Q303.463 1482.55 305.269 1479.01 Q307.098 1475.44 307.098 1468.33 Q307.098 1461.2 305.269 1457.66 Q303.463 1454.1 299.829 1454.1 M299.829 1450.39 Q305.639 1450.39 308.695 1455 Q311.774 1459.58 311.774 1468.33 Q311.774 1477.06 308.695 1481.67 Q305.639 1486.25 299.829 1486.25 Q294.019 1486.25 290.94 1481.67 Q287.885 1477.06 287.885 1468.33 Q287.885 1459.58 290.94 1455 Q294.019 1450.39 299.829 1450.39 Z" fill="#000000" fill-rule="nonzero" fill-opacity="1" /><path clip-path="url(#clip970)" d="M324.019 1481.64 L340.338 1481.64 L340.338 1485.58 L318.394 1485.58 L318.394 1481.64 Q321.056 1478.89 325.639 1474.26 Q330.246 1469.61 331.426 1468.27 Q333.672 1465.74 334.551 1464.01 Q335.454 1462.25 335.454 1460.56 Q335.454 1457.8 333.51 1456.07 Q331.588 1454.33 328.486 1454.33 Q326.287 1454.33 323.834 1455.09 Q321.403 1455.86 318.625 1457.41 L318.625 1452.69 Q321.449 1451.55 323.903 1450.97 Q326.357 1450.39 328.394 1450.39 Q333.764 1450.39 336.959 1453.08 Q340.153 1455.77 340.153 1460.26 Q340.153 1462.39 339.343 1464.31 Q338.556 1466.2 336.449 1468.8 Q335.871 1469.47 332.769 1472.69 Q329.667 1475.88 324.019 1481.64 Z" fill="#000000" fill-rule="nonzero" fill-opacity="1" /><path clip-path="url(#clip970)" d="M685.245 1468.75 L714.921 1468.75 L714.921 1472.69 L685.245 1472.69 L685.245 1468.75 Z" fill="#000000" fill-rule="nonzero" fill-opacity="1" /><path clip-path="url(#clip970)" d="M735.013 1454.1 Q731.402 1454.1 729.573 1457.66 Q727.768 1461.2 727.768 1468.33 Q727.768 1475.44 729.573 1479.01 Q731.402 1482.55 735.013 1482.55 Q738.647 1482.55 740.453 1479.01 Q742.282 1475.44 742.282 1468.33 Q742.282 1461.2 740.453 1457.66 Q738.647 1454.1 735.013 1454.1 M735.013 1450.39 Q740.823 1450.39 743.879 1455 Q746.958 1459.58 746.958 1468.33 Q746.958 1477.06 743.879 1481.67 Q740.823 1486.25 735.013 1486.25 Q729.203 1486.25 726.124 1481.67 Q723.069 1477.06 723.069 1468.33 Q723.069 1459.58 726.124 1455 Q729.203 1450.39 735.013 1450.39 Z" fill="#000000" fill-rule="nonzero" fill-opacity="1" /><path clip-path="url(#clip970)" d="M755.175 1479.7 L760.059 1479.7 L760.059 1485.58 L755.175 1485.58 L755.175 1479.7 Z" fill="#000000" fill-rule="nonzero" fill-opacity="1" /><path clip-path="url(#clip970)" d="M780.244 1454.1 Q776.633 1454.1 774.805 1457.66 Q772.999 1461.2 772.999 1468.33 Q772.999 1475.44 774.805 1479.01 Q776.633 1482.55 780.244 1482.55 Q783.879 1482.55 785.684 1479.01 Q787.513 1475.44 787.513 1468.33 Q787.513 1461.2 785.684 1457.66 Q783.879 1454.1 780.244 1454.1 M780.244 1450.39 Q786.055 1450.39 789.11 1455 Q792.189 1459.58 792.189 1468.33 Q792.189 1477.06 789.11 1481.67 Q786.055 1486.25 780.244 1486.25 Q774.434 1486.25 771.356 1481.67 Q768.3 1477.06 768.3 1468.33 Q768.3 1459.58 771.356 1455 Q774.434 1450.39 780.244 1450.39 Z" fill="#000000" fill-rule="nonzero" fill-opacity="1" /><path clip-path="url(#clip970)" d="M801.217 1481.64 L808.855 1481.64 L808.855 1455.28 L800.545 1456.95 L800.545 1452.69 L808.809 1451.02 L813.485 1451.02 L813.485 1481.64 L821.124 1481.64 L821.124 1485.58 L801.217 1485.58 L801.217 1481.64 Z" fill="#000000" fill-rule="nonzero" fill-opacity="1" /><path clip-path="url(#clip970)" d="M1196.09 1454.1 Q1192.48 1454.1 1190.65 1457.66 Q1188.84 1461.2 1188.84 1468.33 Q1188.84 1475.44 1190.65 1479.01 Q1192.48 1482.55 1196.09 1482.55 Q1199.72 1482.55 1201.53 1479.01 Q1203.36 1475.44 1203.36 1468.33 Q1203.36 1461.2 1201.53 1457.66 Q1199.72 1454.1 1196.09 1454.1 M1196.09 1450.39 Q1201.9 1450.39 1204.95 1455 Q1208.03 1459.58 1208.03 1468.33 Q1208.03 1477.06 1204.95 1481.67 Q1201.9 1486.25 1196.09 1486.25 Q1190.28 1486.25 1187.2 1481.67 Q1184.14 1477.06 1184.14 1468.33 Q1184.14 1459.58 1187.2 1455 Q1190.28 1450.39 1196.09 1450.39 Z" fill="#000000" fill-rule="nonzero" fill-opacity="1" /><path clip-path="url(#clip970)" d="M1216.25 1479.7 L1221.13 1479.7 L1221.13 1485.58 L1216.25 1485.58 L1216.25 1479.7 Z" fill="#000000" fill-rule="nonzero" fill-opacity="1" /><path clip-path="url(#clip970)" d="M1241.32 1454.1 Q1237.71 1454.1 1235.88 1457.66 Q1234.07 1461.2 1234.07 1468.33 Q1234.07 1475.44 1235.88 1479.01 Q1237.71 1482.55 1241.32 1482.55 Q1244.95 1482.55 1246.76 1479.01 Q1248.59 1475.44 1248.59 1468.33 Q1248.59 1461.2 1246.76 1457.66 Q1244.95 1454.1 1241.32 1454.1 M1241.32 1450.39 Q1247.13 1450.39 1250.19 1455 Q1253.26 1459.58 1253.26 1468.33 Q1253.26 1477.06 1250.19 1481.67 Q1247.13 1486.25 1241.32 1486.25 Q1235.51 1486.25 1232.43 1481.67 Q1229.38 1477.06 1229.38 1468.33 Q1229.38 1459.58 1232.43 1455 Q1235.51 1450.39 1241.32 1450.39 Z" fill="#000000" fill-rule="nonzero" fill-opacity="1" /><path clip-path="url(#clip970)" d="M1271.48 1454.1 Q1267.87 1454.1 1266.04 1457.66 Q1264.24 1461.2 1264.24 1468.33 Q1264.24 1475.44 1266.04 1479.01 Q1267.87 1482.55 1271.48 1482.55 Q1275.12 1482.55 1276.92 1479.01 Q1278.75 1475.44 1278.75 1468.33 Q1278.75 1461.2 1276.92 1457.66 Q1275.12 1454.1 1271.48 1454.1 M1271.48 1450.39 Q1277.29 1450.39 1280.35 1455 Q1283.43 1459.58 1283.43 1468.33 Q1283.43 1477.06 1280.35 1481.67 Q1277.29 1486.25 1271.48 1486.25 Q1265.67 1486.25 1262.59 1481.67 Q1259.54 1477.06 1259.54 1468.33 Q1259.54 1459.58 1262.59 1455 Q1265.67 1450.39 1271.48 1450.39 Z" fill="#000000" fill-rule="nonzero" fill-opacity="1" /><path clip-path="url(#clip970)" d="M1677.3 1454.1 Q1673.69 1454.1 1671.86 1457.66 Q1670.06 1461.2 1670.06 1468.33 Q1670.06 1475.44 1671.86 1479.01 Q1673.69 1482.55 1677.3 1482.55 Q1680.94 1482.55 1682.74 1479.01 Q1684.57 1475.44 1684.57 1468.33 Q1684.57 1461.2 1682.74 1457.66 Q1680.94 1454.1 1677.3 1454.1 M1677.3 1450.39 Q1683.11 1450.39 1686.17 1455 Q1689.25 1459.58 1689.25 1468.33 Q1689.25 1477.06 1686.17 1481.67 Q1683.11 1486.25 1677.3 1486.25 Q1671.49 1486.25 1668.41 1481.67 Q1665.36 1477.06 1665.36 1468.33 Q1665.36 1459.58 1668.41 1455 Q1671.49 1450.39 1677.3 1450.39 Z" fill="#000000" fill-rule="nonzero" fill-opacity="1" /><path clip-path="url(#clip970)" d="M1697.46 1479.7 L1702.35 1479.7 L1702.35 1485.58 L1697.46 1485.58 L1697.46 1479.7 Z" fill="#000000" fill-rule="nonzero" fill-opacity="1" /><path clip-path="url(#clip970)" d="M1722.53 1454.1 Q1718.92 1454.1 1717.09 1457.66 Q1715.29 1461.2 1715.29 1468.33 Q1715.29 1475.44 1717.09 1479.01 Q1718.92 1482.55 1722.53 1482.55 Q1726.17 1482.55 1727.97 1479.01 Q1729.8 1475.44 1729.8 1468.33 Q1729.8 1461.2 1727.97 1457.66 Q1726.17 1454.1 1722.53 1454.1 M1722.53 1450.39 Q1728.34 1450.39 1731.4 1455 Q1734.48 1459.58 1734.48 1468.33 Q1734.48 1477.06 1731.4 1481.67 Q1728.34 1486.25 1722.53 1486.25 Q1716.72 1486.25 1713.64 1481.67 Q1710.59 1477.06 1710.59 1468.33 Q1710.59 1459.58 1713.64 1455 Q1716.72 1450.39 1722.53 1450.39 Z" fill="#000000" fill-rule="nonzero" fill-opacity="1" /><path clip-path="url(#clip970)" d="M1743.51 1481.64 L1751.14 1481.64 L1751.14 1455.28 L1742.83 1456.95 L1742.83 1452.69 L1751.1 1451.02 L1755.77 1451.02 L1755.77 1481.64 L1763.41 1481.64 L1763.41 1485.58 L1743.51 1485.58 L1743.51 1481.64 Z" fill="#000000" fill-rule="nonzero" fill-opacity="1" /><path clip-path="url(#clip970)" d="M2158.09 1454.1 Q2154.48 1454.1 2152.65 1457.66 Q2150.84 1461.2 2150.84 1468.33 Q2150.84 1475.44 2152.65 1479.01 Q2154.48 1482.55 2158.09 1482.55 Q2161.72 1482.55 2163.53 1479.01 Q2165.36 1475.44 2165.36 1468.33 Q2165.36 1461.2 2163.53 1457.66 Q2161.72 1454.1 2158.09 1454.1 M2158.09 1450.39 Q2163.9 1450.39 2166.95 1455 Q2170.03 1459.58 2170.03 1468.33 Q2170.03 1477.06 2166.95 1481.67 Q2163.9 1486.25 2158.09 1486.25 Q2152.28 1486.25 2149.2 1481.67 Q2146.14 1477.06 2146.14 1468.33 Q2146.14 1459.58 2149.2 1455 Q2152.28 1450.39 2158.09 1450.39 Z" fill="#000000" fill-rule="nonzero" fill-opacity="1" /><path clip-path="url(#clip970)" d="M2178.25 1479.7 L2183.13 1479.7 L2183.13 1485.58 L2178.25 1485.58 L2178.25 1479.7 Z" fill="#000000" fill-rule="nonzero" fill-opacity="1" /><path clip-path="url(#clip970)" d="M2203.32 1454.1 Q2199.71 1454.1 2197.88 1457.66 Q2196.07 1461.2 2196.07 1468.33 Q2196.07 1475.44 2197.88 1479.01 Q2199.71 1482.55 2203.32 1482.55 Q2206.95 1482.55 2208.76 1479.01 Q2210.59 1475.44 2210.59 1468.33 Q2210.59 1461.2 2208.76 1457.66 Q2206.95 1454.1 2203.32 1454.1 M2203.32 1450.39 Q2209.13 1450.39 2212.18 1455 Q2215.26 1459.58 2215.26 1468.33 Q2215.26 1477.06 2212.18 1481.67 Q2209.13 1486.25 2203.32 1486.25 Q2197.51 1486.25 2194.43 1481.67 Q2191.37 1477.06 2191.37 1468.33 Q2191.37 1459.58 2194.43 1455 Q2197.51 1450.39 2203.32 1450.39 Z" fill="#000000" fill-rule="nonzero" fill-opacity="1" /><path clip-path="url(#clip970)" d="M2227.51 1481.64 L2243.83 1481.64 L2243.83 1485.58 L2221.88 1485.58 L2221.88 1481.64 Q2224.55 1478.89 2229.13 1474.26 Q2233.74 1469.61 2234.92 1468.27 Q2237.16 1465.74 2238.04 1464.01 Q2238.94 1462.25 2238.94 1460.56 Q2238.94 1457.8 2237 1456.07 Q2235.08 1454.33 2231.98 1454.33 Q2229.78 1454.33 2227.32 1455.09 Q2224.89 1455.86 2222.12 1457.41 L2222.12 1452.69 Q2224.94 1451.55 2227.39 1450.97 Q2229.85 1450.39 2231.88 1450.39 Q2237.25 1450.39 2240.45 1453.08 Q2243.64 1455.77 2243.64 1460.26 Q2243.64 1462.39 2242.83 1464.31 Q2242.05 1466.2 2239.94 1468.8 Q2239.36 1469.47 2236.26 1472.69 Q2233.16 1475.88 2227.51 1481.64 Z" fill="#000000" fill-rule="nonzero" fill-opacity="1" /><path clip-path="url(#clip970)" d="M684.536 1520.52 L690.966 1520.52 L690.966 1562.63 L714.105 1562.63 L714.105 1568.04 L684.536 1568.04 L684.536 1520.52 Z" fill="#000000" fill-rule="nonzero" fill-opacity="1" /><path clip-path="url(#clip970)" d="M749.944 1548.76 L749.944 1551.62 L723.017 1551.62 Q723.399 1557.67 726.645 1560.85 Q729.924 1564 735.748 1564 Q739.122 1564 742.273 1563.17 Q745.456 1562.35 748.575 1560.69 L748.575 1566.23 Q745.424 1567.57 742.114 1568.27 Q738.804 1568.97 735.398 1568.97 Q726.868 1568.97 721.871 1564 Q716.906 1559.04 716.906 1550.57 Q716.906 1541.82 721.616 1536.69 Q726.359 1531.54 734.38 1531.54 Q741.573 1531.54 745.743 1536.18 Q749.944 1540.8 749.944 1548.76 M744.087 1547.04 Q744.024 1542.23 741.382 1539.37 Q738.772 1536.5 734.443 1536.5 Q729.542 1536.5 726.582 1539.27 Q723.654 1542.04 723.208 1547.07 L744.087 1547.04 Z" fill="#000000" fill-rule="nonzero" fill-opacity="1" /><path clip-path="url(#clip970)" d="M775.757 1550.12 Q768.659 1550.12 765.922 1551.75 Q763.185 1553.37 763.185 1557.29 Q763.185 1560.4 765.222 1562.25 Q767.29 1564.07 770.823 1564.07 Q775.693 1564.07 778.621 1560.63 Q781.581 1557.16 781.581 1551.43 L781.581 1550.12 L775.757 1550.12 M787.438 1547.71 L787.438 1568.04 L781.581 1568.04 L781.581 1562.63 Q779.576 1565.88 776.584 1567.44 Q773.592 1568.97 769.264 1568.97 Q763.789 1568.97 760.543 1565.91 Q757.328 1562.82 757.328 1557.67 Q757.328 1551.65 761.338 1548.6 Q765.381 1545.54 773.37 1545.54 L781.581 1545.54 L781.581 1544.97 Q781.581 1540.93 778.908 1538.73 Q776.266 1536.5 771.46 1536.5 Q768.404 1536.5 765.508 1537.23 Q762.612 1537.97 759.938 1539.43 L759.938 1534.02 Q763.153 1532.78 766.176 1532.17 Q769.2 1531.54 772.065 1531.54 Q779.799 1531.54 783.618 1535.55 Q787.438 1539.56 787.438 1547.71 Z" fill="#000000" fill-rule="nonzero" fill-opacity="1" /><path clip-path="url(#clip970)" d="M822.959 1537.81 L822.959 1518.52 L828.815 1518.52 L828.815 1568.04 L822.959 1568.04 L822.959 1562.7 Q821.112 1565.88 818.28 1567.44 Q815.479 1568.97 811.532 1568.97 Q805.071 1568.97 800.997 1563.81 Q796.955 1558.65 796.955 1550.25 Q796.955 1541.85 800.997 1536.69 Q805.071 1531.54 811.532 1531.54 Q815.479 1531.54 818.28 1533.1 Q821.112 1534.62 822.959 1537.81 M803.002 1550.25 Q803.002 1556.71 805.644 1560.4 Q808.317 1564.07 812.964 1564.07 Q817.611 1564.07 820.285 1560.4 Q822.959 1556.71 822.959 1550.25 Q822.959 1543.79 820.285 1540.13 Q817.611 1536.44 812.964 1536.44 Q808.317 1536.44 805.644 1540.13 Q803.002 1543.79 803.002 1550.25 Z" fill="#000000" fill-rule="nonzero" fill-opacity="1" /><path clip-path="url(#clip970)" d="M871.37 1548.76 L871.37 1551.62 L844.443 1551.62 Q844.825 1557.67 848.071 1560.85 Q851.35 1564 857.174 1564 Q860.548 1564 863.699 1563.17 Q866.882 1562.35 870.001 1560.69 L870.001 1566.23 Q866.85 1567.57 863.54 1568.27 Q860.23 1568.97 856.824 1568.97 Q848.294 1568.97 843.297 1564 Q838.332 1559.04 838.332 1550.57 Q838.332 1541.82 843.042 1536.69 Q847.785 1531.54 855.806 1531.54 Q862.999 1531.54 867.168 1536.18 Q871.37 1540.8 871.37 1548.76 M865.513 1547.04 Q865.45 1542.23 862.808 1539.37 Q860.198 1536.5 855.869 1536.5 Q850.968 1536.5 848.008 1539.27 Q845.079 1542.04 844.634 1547.07 L865.513 1547.04 Z" fill="#000000" fill-rule="nonzero" fill-opacity="1" /><path clip-path="url(#clip970)" d="M901.639 1537.87 Q900.652 1537.3 899.474 1537.04 Q898.329 1536.76 896.928 1536.76 Q891.963 1536.76 889.289 1540 Q886.647 1543.22 886.647 1549.27 L886.647 1568.04 L880.759 1568.04 L880.759 1532.4 L886.647 1532.4 L886.647 1537.93 Q888.493 1534.69 891.454 1533.13 Q894.414 1531.54 898.647 1531.54 Q899.252 1531.54 899.984 1531.63 Q900.716 1531.7 901.607 1531.85 L901.639 1537.87 Z" fill="#000000" fill-rule="nonzero" fill-opacity="1" /><path clip-path="url(#clip970)" d="M913.32 1520.52 L913.32 1538.19 L907.909 1538.19 L907.909 1520.52 L913.32 1520.52 Z" fill="#000000" fill-rule="nonzero" fill-opacity="1" /><path clip-path="url(#clip970)" d="M948.427 1533.45 L948.427 1538.98 Q945.944 1537.71 943.27 1537.07 Q940.597 1536.44 937.732 1536.44 Q933.372 1536.44 931.176 1537.77 Q929.011 1539.11 929.011 1541.79 Q929.011 1543.82 930.571 1545 Q932.13 1546.15 936.841 1547.2 L938.846 1547.64 Q945.085 1548.98 947.695 1551.43 Q950.336 1553.85 950.336 1558.21 Q950.336 1563.17 946.39 1566.07 Q942.475 1568.97 935.6 1568.97 Q932.735 1568.97 929.616 1568.39 Q926.529 1567.85 923.091 1566.74 L923.091 1560.69 Q926.338 1562.38 929.489 1563.24 Q932.64 1564.07 935.727 1564.07 Q939.865 1564.07 942.093 1562.66 Q944.321 1561.23 944.321 1558.65 Q944.321 1556.27 942.697 1554.99 Q941.106 1553.72 935.663 1552.54 L933.626 1552.07 Q928.184 1550.92 925.765 1548.56 Q923.346 1546.18 923.346 1542.04 Q923.346 1537.01 926.911 1534.27 Q930.475 1531.54 937.032 1531.54 Q940.279 1531.54 943.143 1532.01 Q946.008 1532.49 948.427 1533.45 Z" fill="#000000" fill-rule="nonzero" fill-opacity="1" /><path clip-path="url(#clip970)" d="M986.048 1562.7 L986.048 1581.6 L980.16 1581.6 L980.16 1532.4 L986.048 1532.4 L986.048 1537.81 Q987.894 1534.62 990.695 1533.1 Q993.528 1531.54 997.443 1531.54 Q1003.94 1531.54 1007.98 1536.69 Q1012.05 1541.85 1012.05 1550.25 Q1012.05 1558.65 1007.98 1563.81 Q1003.94 1568.97 997.443 1568.97 Q993.528 1568.97 990.695 1567.44 Q987.894 1565.88 986.048 1562.7 M1005.97 1550.25 Q1005.97 1543.79 1003.3 1540.13 Q1000.66 1536.44 996.01 1536.44 Q991.363 1536.44 988.69 1540.13 Q986.048 1543.79 986.048 1550.25 Q986.048 1556.71 988.69 1560.4 Q991.363 1564.07 996.01 1564.07 Q1000.66 1564.07 1003.3 1560.4 Q1005.97 1556.71 1005.97 1550.25 Z" fill="#000000" fill-rule="nonzero" fill-opacity="1" /><path clip-path="url(#clip970)" d="M1042.42 1537.87 Q1041.43 1537.3 1040.25 1537.04 Q1039.11 1536.76 1037.71 1536.76 Q1032.74 1536.76 1030.07 1540 Q1027.43 1543.22 1027.43 1549.27 L1027.43 1568.04 L1021.54 1568.04 L1021.54 1532.4 L1027.43 1532.4 L1027.43 1537.93 Q1029.27 1534.69 1032.23 1533.13 Q1035.19 1531.54 1039.42 1531.54 Q1040.03 1531.54 1040.76 1531.63 Q1041.49 1531.7 1042.38 1531.85 L1042.42 1537.87 Z" fill="#000000" fill-rule="nonzero" fill-opacity="1" /><path clip-path="url(#clip970)" d="M1048.56 1532.4 L1054.42 1532.4 L1054.42 1568.04 L1048.56 1568.04 L1048.56 1532.4 M1048.56 1518.52 L1054.42 1518.52 L1054.42 1525.93 L1048.56 1525.93 L1048.56 1518.52 Z" fill="#000000" fill-rule="nonzero" fill-opacity="1" /><path clip-path="url(#clip970)" d="M1092.32 1533.76 L1092.32 1539.24 Q1089.84 1537.87 1087.33 1537.2 Q1084.84 1536.5 1082.3 1536.5 Q1076.6 1536.5 1073.45 1540.13 Q1070.3 1543.73 1070.3 1550.25 Q1070.3 1556.78 1073.45 1560.4 Q1076.6 1564 1082.3 1564 Q1084.84 1564 1087.33 1563.33 Q1089.84 1562.63 1092.32 1561.26 L1092.32 1566.68 Q1089.87 1567.82 1087.23 1568.39 Q1084.62 1568.97 1081.66 1568.97 Q1073.61 1568.97 1068.87 1563.91 Q1064.12 1558.85 1064.12 1550.25 Q1064.12 1541.53 1068.9 1536.53 Q1073.7 1531.54 1082.04 1531.54 Q1084.75 1531.54 1087.33 1532.11 Q1089.9 1532.65 1092.32 1533.76 Z" fill="#000000" fill-rule="nonzero" fill-opacity="1" /><path clip-path="url(#clip970)" d="M1133 1548.76 L1133 1551.62 L1106.07 1551.62 Q1106.46 1557.67 1109.7 1560.85 Q1112.98 1564 1118.8 1564 Q1122.18 1564 1125.33 1563.17 Q1128.51 1562.35 1131.63 1560.69 L1131.63 1566.23 Q1128.48 1567.57 1125.17 1568.27 Q1121.86 1568.97 1118.45 1568.97 Q1109.92 1568.97 1104.93 1564 Q1099.96 1559.04 1099.96 1550.57 Q1099.96 1541.82 1104.67 1536.69 Q1109.42 1531.54 1117.44 1531.54 Q1124.63 1531.54 1128.8 1536.18 Q1133 1540.8 1133 1548.76 M1127.14 1547.04 Q1127.08 1542.23 1124.44 1539.37 Q1121.83 1536.5 1117.5 1536.5 Q1112.6 1536.5 1109.64 1539.27 Q1106.71 1542.04 1106.26 1547.07 L1127.14 1547.04 Z" fill="#000000" fill-rule="nonzero" fill-opacity="1" /><path clip-path="url(#clip970)" d="M1169.7 1562.63 L1192.14 1562.63 L1192.14 1568.04 L1161.96 1568.04 L1161.96 1562.63 Q1165.62 1558.85 1171.93 1552.48 Q1178.26 1546.08 1179.88 1544.24 Q1182.97 1540.77 1184.18 1538.38 Q1185.42 1535.96 1185.42 1533.64 Q1185.42 1529.85 1182.75 1527.46 Q1180.11 1525.08 1175.84 1525.08 Q1172.82 1525.08 1169.44 1526.13 Q1166.1 1527.18 1162.28 1529.31 L1162.28 1522.82 Q1166.17 1521.26 1169.54 1520.46 Q1172.91 1519.66 1175.71 1519.66 Q1183.1 1519.66 1187.49 1523.36 Q1191.88 1527.05 1191.88 1533.22 Q1191.88 1536.15 1190.77 1538.79 Q1189.69 1541.4 1186.79 1544.97 Q1185.99 1545.89 1181.73 1550.32 Q1177.46 1554.71 1169.7 1562.63 Z" fill="#000000" fill-rule="nonzero" fill-opacity="1" /><path clip-path="url(#clip970)" d="M1234.44 1546.53 L1234.44 1568.04 L1228.58 1568.04 L1228.58 1546.72 Q1228.58 1541.66 1226.61 1539.14 Q1224.63 1536.63 1220.69 1536.63 Q1215.95 1536.63 1213.21 1539.65 Q1210.47 1542.68 1210.47 1547.9 L1210.47 1568.04 L1204.58 1568.04 L1204.58 1532.4 L1210.47 1532.4 L1210.47 1537.93 Q1212.57 1534.72 1215.4 1533.13 Q1218.27 1531.54 1221.99 1531.54 Q1228.14 1531.54 1231.29 1535.36 Q1234.44 1539.14 1234.44 1546.53 Z" fill="#000000" fill-rule="nonzero" fill-opacity="1" /><path clip-path="url(#clip970)" d="M1269.58 1537.81 L1269.58 1518.52 L1275.43 1518.52 L1275.43 1568.04 L1269.58 1568.04 L1269.58 1562.7 Q1267.73 1565.88 1264.9 1567.44 Q1262.1 1568.97 1258.15 1568.97 Q1251.69 1568.97 1247.61 1563.81 Q1243.57 1558.65 1243.57 1550.25 Q1243.57 1541.85 1247.61 1536.69 Q1251.69 1531.54 1258.15 1531.54 Q1262.1 1531.54 1264.9 1533.1 Q1267.73 1534.62 1269.58 1537.81 M1249.62 1550.25 Q1249.62 1556.71 1252.26 1560.4 Q1254.94 1564.07 1259.58 1564.07 Q1264.23 1564.07 1266.9 1560.4 Q1269.58 1556.71 1269.58 1550.25 Q1269.58 1543.79 1266.9 1540.13 Q1264.23 1536.44 1259.58 1536.44 Q1254.94 1536.44 1252.26 1540.13 Q1249.62 1543.79 1249.62 1550.25 Z" fill="#000000" fill-rule="nonzero" fill-opacity="1" /><path clip-path="url(#clip970)" d="M1331.67 1537.81 L1331.67 1518.52 L1337.53 1518.52 L1337.53 1568.04 L1331.67 1568.04 L1331.67 1562.7 Q1329.83 1565.88 1327 1567.44 Q1324.19 1568.97 1320.25 1568.97 Q1313.79 1568.97 1309.71 1563.81 Q1305.67 1558.65 1305.67 1550.25 Q1305.67 1541.85 1309.71 1536.69 Q1313.79 1531.54 1320.25 1531.54 Q1324.19 1531.54 1327 1533.1 Q1329.83 1534.62 1331.67 1537.81 M1311.72 1550.25 Q1311.72 1556.71 1314.36 1560.4 Q1317.03 1564.07 1321.68 1564.07 Q1326.33 1564.07 1329 1560.4 Q1331.67 1556.71 1331.67 1550.25 Q1331.67 1543.79 1329 1540.13 Q1326.33 1536.44 1321.68 1536.44 Q1317.03 1536.44 1314.36 1540.13 Q1311.72 1543.79 1311.72 1550.25 Z" fill="#000000" fill-rule="nonzero" fill-opacity="1" /><path clip-path="url(#clip970)" d="M1380.09 1548.76 L1380.09 1551.62 L1353.16 1551.62 Q1353.54 1557.67 1356.79 1560.85 Q1360.07 1564 1365.89 1564 Q1369.26 1564 1372.41 1563.17 Q1375.6 1562.35 1378.72 1560.69 L1378.72 1566.23 Q1375.57 1567.57 1372.26 1568.27 Q1368.95 1568.97 1365.54 1568.97 Q1357.01 1568.97 1352.01 1564 Q1347.05 1559.04 1347.05 1550.57 Q1347.05 1541.82 1351.76 1536.69 Q1356.5 1531.54 1364.52 1531.54 Q1371.71 1531.54 1375.88 1536.18 Q1380.09 1540.8 1380.09 1548.76 M1374.23 1547.04 Q1374.17 1542.23 1371.52 1539.37 Q1368.91 1536.5 1364.58 1536.5 Q1359.68 1536.5 1356.72 1539.27 Q1353.79 1542.04 1353.35 1547.07 L1374.23 1547.04 Z" fill="#000000" fill-rule="nonzero" fill-opacity="1" /><path clip-path="url(#clip970)" d="M1410.35 1537.87 Q1409.37 1537.3 1408.19 1537.04 Q1407.04 1536.76 1405.64 1536.76 Q1400.68 1536.76 1398 1540 Q1395.36 1543.22 1395.36 1549.27 L1395.36 1568.04 L1389.47 1568.04 L1389.47 1532.4 L1395.36 1532.4 L1395.36 1537.93 Q1397.21 1534.69 1400.17 1533.13 Q1403.13 1531.54 1407.36 1531.54 Q1407.97 1531.54 1408.7 1531.63 Q1409.43 1531.7 1410.32 1531.85 L1410.35 1537.87 Z" fill="#000000" fill-rule="nonzero" fill-opacity="1" /><path clip-path="url(#clip970)" d="M1416.5 1532.4 L1422.35 1532.4 L1422.35 1568.04 L1416.5 1568.04 L1416.5 1532.4 M1416.5 1518.52 L1422.35 1518.52 L1422.35 1525.93 L1416.5 1525.93 L1416.5 1518.52 Z" fill="#000000" fill-rule="nonzero" fill-opacity="1" /><path clip-path="url(#clip970)" d="M1430.41 1532.4 L1436.61 1532.4 L1447.75 1562.31 L1458.89 1532.4 L1465.1 1532.4 L1451.73 1568.04 L1443.77 1568.04 L1430.41 1532.4 Z" fill="#000000" fill-rule="nonzero" fill-opacity="1" /><path clip-path="url(#clip970)" d="M1468.95 1559.96 L1475.67 1559.96 L1475.67 1568.04 L1468.95 1568.04 L1468.95 1559.96 Z" fill="#000000" fill-rule="nonzero" fill-opacity="1" /><path clip-path="url(#clip970)" d="M1509.56 1518.52 L1515.42 1518.52 L1515.42 1568.04 L1509.56 1568.04 L1509.56 1518.52 Z" fill="#000000" fill-rule="nonzero" fill-opacity="1" /><path clip-path="url(#clip970)" d="M1543.87 1550.12 Q1536.78 1550.12 1534.04 1551.75 Q1531.3 1553.37 1531.3 1557.29 Q1531.3 1560.4 1533.34 1562.25 Q1535.41 1564.07 1538.94 1564.07 Q1543.81 1564.07 1546.74 1560.63 Q1549.7 1557.16 1549.7 1551.43 L1549.7 1550.12 L1543.87 1550.12 M1555.56 1547.71 L1555.56 1568.04 L1549.7 1568.04 L1549.7 1562.63 Q1547.69 1565.88 1544.7 1567.44 Q1541.71 1568.97 1537.38 1568.97 Q1531.91 1568.97 1528.66 1565.91 Q1525.45 1562.82 1525.45 1557.67 Q1525.45 1551.65 1529.46 1548.6 Q1533.5 1545.54 1541.49 1545.54 L1549.7 1545.54 L1549.7 1544.97 Q1549.7 1540.93 1547.03 1538.73 Q1544.38 1536.5 1539.58 1536.5 Q1536.52 1536.5 1533.63 1537.23 Q1530.73 1537.97 1528.06 1539.43 L1528.06 1534.02 Q1531.27 1532.78 1534.29 1532.17 Q1537.32 1531.54 1540.18 1531.54 Q1547.92 1531.54 1551.74 1535.55 Q1555.56 1539.56 1555.56 1547.71 Z" fill="#000000" fill-rule="nonzero" fill-opacity="1" /><path clip-path="url(#clip970)" d="M1590.34 1533.45 L1590.34 1538.98 Q1587.86 1537.71 1585.19 1537.07 Q1582.51 1536.44 1579.65 1536.44 Q1575.29 1536.44 1573.09 1537.77 Q1570.93 1539.11 1570.93 1541.79 Q1570.93 1543.82 1572.49 1545 Q1574.05 1546.15 1578.76 1547.2 L1580.76 1547.64 Q1587 1548.98 1589.61 1551.43 Q1592.25 1553.85 1592.25 1558.21 Q1592.25 1563.17 1588.31 1566.07 Q1584.39 1568.97 1577.52 1568.97 Q1574.65 1568.97 1571.53 1568.39 Q1568.45 1567.85 1565.01 1566.74 L1565.01 1560.69 Q1568.26 1562.38 1571.41 1563.24 Q1574.56 1564.07 1577.64 1564.07 Q1581.78 1564.07 1584.01 1562.66 Q1586.24 1561.23 1586.24 1558.65 Q1586.24 1556.27 1584.62 1554.99 Q1583.02 1553.72 1577.58 1552.54 L1575.54 1552.07 Q1570.1 1550.92 1567.68 1548.56 Q1565.26 1546.18 1565.26 1542.04 Q1565.26 1537.01 1568.83 1534.27 Q1572.39 1531.54 1578.95 1531.54 Q1582.2 1531.54 1585.06 1532.01 Q1587.93 1532.49 1590.34 1533.45 Z" fill="#000000" fill-rule="nonzero" fill-opacity="1" /><path clip-path="url(#clip970)" d="M1607.37 1522.27 L1607.37 1532.4 L1619.44 1532.4 L1619.44 1536.95 L1607.37 1536.95 L1607.37 1556.3 Q1607.37 1560.66 1608.55 1561.9 Q1609.76 1563.14 1613.42 1563.14 L1619.44 1563.14 L1619.44 1568.04 L1613.42 1568.04 Q1606.64 1568.04 1604.06 1565.53 Q1601.48 1562.98 1601.48 1556.3 L1601.48 1536.95 L1597.19 1536.95 L1597.19 1532.4 L1601.48 1532.4 L1601.48 1522.27 L1607.37 1522.27 Z" fill="#000000" fill-rule="nonzero" fill-opacity="1" /><path clip-path="url(#clip970)" d="M1649.8 1562.63 L1660.3 1562.63 L1660.3 1526.38 L1648.88 1528.67 L1648.88 1522.82 L1660.24 1520.52 L1666.67 1520.52 L1666.67 1562.63 L1677.17 1562.63 L1677.17 1568.04 L1649.8 1568.04 L1649.8 1562.63 Z" fill="#000000" fill-rule="nonzero" fill-opacity="1" /><path clip-path="url(#clip970)" d="M1703.91 1524.76 Q1698.94 1524.76 1696.43 1529.66 Q1693.95 1534.53 1693.95 1544.33 Q1693.95 1554.1 1696.43 1559 Q1698.94 1563.87 1703.91 1563.87 Q1708.91 1563.87 1711.39 1559 Q1713.9 1554.1 1713.9 1544.33 Q1713.9 1534.53 1711.39 1529.66 Q1708.91 1524.76 1703.91 1524.76 M1703.91 1519.66 Q1711.9 1519.66 1716.1 1526 Q1720.33 1532.3 1720.33 1544.33 Q1720.33 1556.33 1716.1 1562.66 Q1711.9 1568.97 1703.91 1568.97 Q1695.92 1568.97 1691.69 1562.66 Q1687.49 1556.33 1687.49 1544.33 Q1687.49 1532.3 1691.69 1526 Q1695.92 1519.66 1703.91 1519.66 Z" fill="#000000" fill-rule="nonzero" fill-opacity="1" /><path clip-path="url(#clip970)" d="M1767.72 1550.12 Q1760.63 1550.12 1757.89 1551.75 Q1755.15 1553.37 1755.15 1557.29 Q1755.15 1560.4 1757.19 1562.25 Q1759.26 1564.07 1762.79 1564.07 Q1767.66 1564.07 1770.59 1560.63 Q1773.55 1557.16 1773.55 1551.43 L1773.55 1550.12 L1767.72 1550.12 M1779.41 1547.71 L1779.41 1568.04 L1773.55 1568.04 L1773.55 1562.63 Q1771.54 1565.88 1768.55 1567.44 Q1765.56 1568.97 1761.23 1568.97 Q1755.76 1568.97 1752.51 1565.91 Q1749.3 1562.82 1749.3 1557.67 Q1749.3 1551.65 1753.31 1548.6 Q1757.35 1545.54 1765.34 1545.54 L1773.55 1545.54 L1773.55 1544.97 Q1773.55 1540.93 1770.88 1538.73 Q1768.23 1536.5 1763.43 1536.5 Q1760.37 1536.5 1757.48 1537.23 Q1754.58 1537.97 1751.91 1539.43 L1751.91 1534.02 Q1755.12 1532.78 1758.14 1532.17 Q1761.17 1531.54 1764.03 1531.54 Q1771.77 1531.54 1775.59 1535.55 Q1779.41 1539.56 1779.41 1547.71 Z" fill="#000000" fill-rule="nonzero" fill-opacity="1" /><path clip-path="url(#clip970)" d="M1787.27 1532.4 L1793.47 1532.4 L1804.61 1562.31 L1815.75 1532.4 L1821.96 1532.4 L1808.59 1568.04 L1800.64 1568.04 L1787.27 1532.4 Z" fill="#000000" fill-rule="nonzero" fill-opacity="1" /><path clip-path="url(#clip970)" d="M1853.5 1549.81 Q1853.5 1543.44 1850.86 1539.94 Q1848.25 1536.44 1843.51 1536.44 Q1838.8 1536.44 1836.16 1539.94 Q1833.55 1543.44 1833.55 1549.81 Q1833.55 1556.14 1836.16 1559.64 Q1838.8 1563.14 1843.51 1563.14 Q1848.25 1563.14 1850.86 1559.64 Q1853.5 1556.14 1853.5 1549.81 M1859.36 1563.62 Q1859.36 1572.72 1855.32 1577.15 Q1851.27 1581.6 1842.94 1581.6 Q1839.85 1581.6 1837.11 1581.13 Q1834.37 1580.68 1831.8 1579.72 L1831.8 1574.03 Q1834.37 1575.43 1836.89 1576.1 Q1839.4 1576.76 1842.01 1576.76 Q1847.77 1576.76 1850.64 1573.74 Q1853.5 1570.75 1853.5 1564.67 L1853.5 1561.77 Q1851.69 1564.92 1848.86 1566.48 Q1846.02 1568.04 1842.08 1568.04 Q1835.52 1568.04 1831.51 1563.05 Q1827.5 1558.05 1827.5 1549.81 Q1827.5 1541.53 1831.51 1536.53 Q1835.52 1531.54 1842.08 1531.54 Q1846.02 1531.54 1848.86 1533.1 Q1851.69 1534.66 1853.5 1537.81 L1853.5 1532.4 L1859.36 1532.4 L1859.36 1563.62 Z" fill="#000000" fill-rule="nonzero" fill-opacity="1" /><path clip-path="url(#clip970)" d="M1872.25 1559.96 L1878.97 1559.96 L1878.97 1568.04 L1872.25 1568.04 L1872.25 1559.96 Z" fill="#000000" fill-rule="nonzero" fill-opacity="1" /><polyline clip-path="url(#clip970)" style="stroke:#000000; stroke-linecap:round; stroke-linejoin:round; stroke-width:4; stroke-opacity:1; fill:none" points="210.746,1423.18 210.746,123.472 "/>
<polyline clip-path="url(#clip970)" style="stroke:#000000; stroke-linecap:round; stroke-linejoin:round; stroke-width:4; stroke-opacity:1; fill:none" points="210.746,1151.46 229.644,1151.46 "/>
<polyline clip-path="url(#clip970)" style="stroke:#000000; stroke-linecap:round; stroke-linejoin:round; stroke-width:4; stroke-opacity:1; fill:none" points="210.746,812.228 229.644,812.228 "/>
<polyline clip-path="url(#clip970)" style="stroke:#000000; stroke-linecap:round; stroke-linejoin:round; stroke-width:4; stroke-opacity:1; fill:none" points="210.746,472.992 229.644,472.992 "/>
<polyline clip-path="url(#clip970)" style="stroke:#000000; stroke-linecap:round; stroke-linejoin:round; stroke-width:4; stroke-opacity:1; fill:none" points="210.746,133.755 229.644,133.755 "/>
<path clip-path="url(#clip970)" d="M114.26 1151.92 L143.936 1151.92 L143.936 1155.85 L114.26 1155.85 L114.26 1151.92 Z" fill="#000000" fill-rule="nonzero" fill-opacity="1" /><path clip-path="url(#clip970)" d="M154.839 1164.81 L162.477 1164.81 L162.477 1138.44 L154.167 1140.11 L154.167 1135.85 L162.431 1134.18 L167.107 1134.18 L167.107 1164.81 L174.746 1164.81 L174.746 1168.74 L154.839 1168.74 L154.839 1164.81 Z" fill="#000000" fill-rule="nonzero" fill-opacity="1" /><path clip-path="url(#clip970)" d="M162.802 798.027 Q159.19 798.027 157.362 801.592 Q155.556 805.133 155.556 812.263 Q155.556 819.369 157.362 822.934 Q159.19 826.476 162.802 826.476 Q166.436 826.476 168.241 822.934 Q170.07 819.369 170.07 812.263 Q170.07 805.133 168.241 801.592 Q166.436 798.027 162.802 798.027 M162.802 794.323 Q168.612 794.323 171.667 798.93 Q174.746 803.513 174.746 812.263 Q174.746 820.99 171.667 825.596 Q168.612 830.179 162.802 830.179 Q156.991 830.179 153.913 825.596 Q150.857 820.99 150.857 812.263 Q150.857 803.513 153.913 798.93 Q156.991 794.323 162.802 794.323 Z" fill="#000000" fill-rule="nonzero" fill-opacity="1" /><path clip-path="url(#clip970)" d="M154.839 486.337 L162.477 486.337 L162.477 459.971 L154.167 461.638 L154.167 457.378 L162.431 455.712 L167.107 455.712 L167.107 486.337 L174.746 486.337 L174.746 490.272 L154.839 490.272 L154.839 486.337 Z" fill="#000000" fill-rule="nonzero" fill-opacity="1" /><path clip-path="url(#clip970)" d="M158.427 147.1 L174.746 147.1 L174.746 151.035 L152.802 151.035 L152.802 147.1 Q155.464 144.346 160.047 139.716 Q164.653 135.063 165.834 133.721 Q168.079 131.198 168.959 129.461 Q169.862 127.702 169.862 126.012 Q169.862 123.258 167.917 121.522 Q165.996 119.786 162.894 119.786 Q160.695 119.786 158.241 120.549 Q155.811 121.313 153.033 122.864 L153.033 118.142 Q155.857 117.008 158.311 116.429 Q160.765 115.85 162.802 115.85 Q168.172 115.85 171.366 118.536 Q174.561 121.221 174.561 125.711 Q174.561 127.841 173.751 129.762 Q172.964 131.66 170.857 134.253 Q170.278 134.924 167.177 138.142 Q164.075 141.336 158.427 147.1 Z" fill="#000000" fill-rule="nonzero" fill-opacity="1" /><path clip-path="url(#clip970)" d="M21.7677 1219.96 L39.6235 1219.96 L39.6235 1211.88 Q39.6235 1207.39 37.3 1204.94 Q34.9765 1202.49 30.6797 1202.49 Q26.4147 1202.49 24.0912 1204.94 Q21.7677 1207.39 21.7677 1211.88 L21.7677 1219.96 M16.4842 1226.39 L16.4842 1211.88 Q16.4842 1203.89 20.1126 1199.81 Q23.7092 1195.71 30.6797 1195.71 Q37.7138 1195.71 41.3104 1199.81 Q44.907 1203.89 44.907 1211.88 L44.907 1219.96 L64.0042 1219.96 L64.0042 1226.39 L16.4842 1226.39 Z" fill="#000000" fill-rule="nonzero" fill-opacity="1" /><path clip-path="url(#clip970)" d="M33.8307 1167.82 Q33.2578 1168.81 33.0032 1169.99 Q32.7167 1171.13 32.7167 1172.54 Q32.7167 1177.5 35.9632 1180.17 Q39.1779 1182.82 45.2253 1182.82 L64.0042 1182.82 L64.0042 1188.7 L28.3562 1188.7 L28.3562 1182.82 L33.8944 1182.82 Q30.6479 1180.97 29.0883 1178.01 Q27.4968 1175.05 27.4968 1170.82 Q27.4968 1170.21 27.5923 1169.48 Q27.656 1168.75 27.8151 1167.86 L33.8307 1167.82 Z" fill="#000000" fill-rule="nonzero" fill-opacity="1" /><path clip-path="url(#clip970)" d="M32.4621 1149.3 Q32.4621 1154.01 36.1542 1156.75 Q39.8145 1159.49 46.212 1159.49 Q52.6095 1159.49 56.3017 1156.78 Q59.9619 1154.04 59.9619 1149.3 Q59.9619 1144.62 56.2698 1141.88 Q52.5777 1139.15 46.212 1139.15 Q39.8781 1139.15 36.186 1141.88 Q32.4621 1144.62 32.4621 1149.3 M27.4968 1149.3 Q27.4968 1141.66 32.4621 1137.3 Q37.4273 1132.94 46.212 1132.94 Q54.9649 1132.94 59.9619 1137.3 Q64.9272 1141.66 64.9272 1149.3 Q64.9272 1156.97 59.9619 1161.33 Q54.9649 1165.66 46.212 1165.66 Q37.4273 1165.66 32.4621 1161.33 Q27.4968 1156.97 27.4968 1149.3 Z" fill="#000000" fill-rule="nonzero" fill-opacity="1" /><path clip-path="url(#clip970)" d="M14.479 1105.19 L19.3487 1105.19 L19.3487 1110.79 Q19.3487 1113.94 20.6219 1115.18 Q21.895 1116.39 25.2052 1116.39 L28.3562 1116.39 L28.3562 1106.75 L32.9077 1106.75 L32.9077 1116.39 L64.0042 1116.39 L64.0042 1122.28 L32.9077 1122.28 L32.9077 1127.88 L28.3562 1127.88 L28.3562 1122.28 L25.8736 1122.28 Q19.9216 1122.28 17.2162 1119.51 Q14.479 1116.74 14.479 1110.72 L14.479 1105.19 Z" fill="#000000" fill-rule="nonzero" fill-opacity="1" /><path clip-path="url(#clip970)" d="M28.3562 1100.28 L28.3562 1094.43 L64.0042 1094.43 L64.0042 1100.28 L28.3562 1100.28 M14.479 1100.28 L14.479 1094.43 L21.895 1094.43 L21.895 1100.28 L14.479 1100.28 Z" fill="#000000" fill-rule="nonzero" fill-opacity="1" /><path clip-path="url(#clip970)" d="M18.2347 1076.38 L28.3562 1076.38 L28.3562 1064.32 L32.9077 1064.32 L32.9077 1076.38 L52.2594 1076.38 Q56.6199 1076.38 57.8613 1075.2 Q59.1026 1073.99 59.1026 1070.33 L59.1026 1064.32 L64.0042 1064.32 L64.0042 1070.33 Q64.0042 1077.11 61.4897 1079.69 Q58.9434 1082.27 52.2594 1082.27 L32.9077 1082.27 L32.9077 1086.57 L28.3562 1086.57 L28.3562 1082.27 L18.2347 1082.27 L18.2347 1076.38 Z" fill="#000000" fill-rule="nonzero" fill-opacity="1" /><path clip-path="url(#clip970)" d="M58.5933 1029.53 L58.5933 1007.09 L64.0042 1007.09 L64.0042 1037.26 L58.5933 1037.26 Q54.8057 1033.6 48.44 1027.3 Q42.0425 1020.97 40.1964 1019.34 Q36.7271 1016.26 34.34 1015.05 Q31.921 1013.81 29.5975 1013.81 Q25.8099 1013.81 23.4228 1016.48 Q21.0356 1019.12 21.0356 1023.39 Q21.0356 1026.41 22.086 1029.78 Q23.1363 1033.13 25.2688 1036.95 L18.7758 1036.95 Q17.2162 1033.06 16.4205 1029.69 Q15.6248 1026.32 15.6248 1023.51 Q15.6248 1016.13 19.3169 1011.74 Q23.009 1007.35 29.1837 1007.35 Q32.112 1007.35 34.7537 1008.46 Q37.3637 1009.54 40.9285 1012.44 Q41.8515 1013.23 46.2757 1017.5 Q50.668 1021.76 58.5933 1029.53 Z" fill="#000000" fill-rule="nonzero" fill-opacity="1" /><path clip-path="url(#clip970)" d="M42.4881 964.791 L64.0042 964.791 L64.0042 970.647 L42.679 970.647 Q37.6183 970.647 35.1038 972.62 Q32.5894 974.594 32.5894 978.54 Q32.5894 983.283 35.6131 986.02 Q38.6368 988.757 43.8567 988.757 L64.0042 988.757 L64.0042 994.646 L28.3562 994.646 L28.3562 988.757 L33.8944 988.757 Q30.6797 986.657 29.0883 983.824 Q27.4968 980.959 27.4968 977.235 Q27.4968 971.093 31.3163 967.942 Q35.1038 964.791 42.4881 964.791 Z" fill="#000000" fill-rule="nonzero" fill-opacity="1" /><path clip-path="url(#clip970)" d="M33.7671 929.652 L14.479 929.652 L14.479 923.795 L64.0042 923.795 L64.0042 929.652 L58.657 929.652 Q61.8398 931.498 63.3994 934.331 Q64.9272 937.132 64.9272 941.078 Q64.9272 947.539 59.771 951.614 Q54.6147 955.656 46.212 955.656 Q37.8093 955.656 32.6531 951.614 Q27.4968 947.539 27.4968 941.078 Q27.4968 937.132 29.0564 934.331 Q30.5842 931.498 33.7671 929.652 M46.212 949.608 Q52.6732 949.608 56.3653 946.967 Q60.0256 944.293 60.0256 939.646 Q60.0256 934.999 56.3653 932.325 Q52.6732 929.652 46.212 929.652 Q39.7508 929.652 36.0905 932.325 Q32.3984 934.999 32.3984 939.646 Q32.3984 944.293 36.0905 946.967 Q39.7508 949.608 46.212 949.608 Z" fill="#000000" fill-rule="nonzero" fill-opacity="1" /><path clip-path="url(#clip970)" d="M33.7671 867.554 L14.479 867.554 L14.479 861.698 L64.0042 861.698 L64.0042 867.554 L58.657 867.554 Q61.8398 869.4 63.3994 872.233 Q64.9272 875.034 64.9272 878.981 Q64.9272 885.442 59.771 889.516 Q54.6147 893.558 46.212 893.558 Q37.8093 893.558 32.6531 889.516 Q27.4968 885.442 27.4968 878.981 Q27.4968 875.034 29.0564 872.233 Q30.5842 869.4 33.7671 867.554 M46.212 887.511 Q52.6732 887.511 56.3653 884.869 Q60.0256 882.195 60.0256 877.549 Q60.0256 872.902 56.3653 870.228 Q52.6732 867.554 46.212 867.554 Q39.7508 867.554 36.0905 870.228 Q32.3984 872.902 32.3984 877.549 Q32.3984 882.195 36.0905 884.869 Q39.7508 887.511 46.212 887.511 Z" fill="#000000" fill-rule="nonzero" fill-opacity="1" /><path clip-path="url(#clip970)" d="M44.7161 819.143 L47.5806 819.143 L47.5806 846.07 Q53.6281 845.688 56.8109 842.442 Q59.9619 839.163 59.9619 833.339 Q59.9619 829.965 59.1344 826.814 Q58.3069 823.631 56.6518 820.512 L62.1899 820.512 Q63.5267 823.663 64.227 826.973 Q64.9272 830.283 64.9272 833.689 Q64.9272 842.219 59.9619 847.216 Q54.9967 852.181 46.5303 852.181 Q37.7774 852.181 32.6531 847.471 Q27.4968 842.728 27.4968 834.707 Q27.4968 827.514 32.1438 823.345 Q36.7589 819.143 44.7161 819.143 M42.9973 825 Q38.1912 825.063 35.3266 827.705 Q32.4621 830.315 32.4621 834.644 Q32.4621 839.545 35.2312 842.505 Q38.0002 845.434 43.0292 845.879 L42.9973 825 Z" fill="#000000" fill-rule="nonzero" fill-opacity="1" /><path clip-path="url(#clip970)" d="M33.8307 788.874 Q33.2578 789.861 33.0032 791.039 Q32.7167 792.184 32.7167 793.585 Q32.7167 798.55 35.9632 801.224 Q39.1779 803.865 45.2253 803.865 L64.0042 803.865 L64.0042 809.754 L28.3562 809.754 L28.3562 803.865 L33.8944 803.865 Q30.6479 802.019 29.0883 799.059 Q27.4968 796.099 27.4968 791.866 Q27.4968 791.261 27.5923 790.529 Q27.656 789.797 27.8151 788.906 L33.8307 788.874 Z" fill="#000000" fill-rule="nonzero" fill-opacity="1" /><path clip-path="url(#clip970)" d="M28.3562 782.731 L28.3562 776.875 L64.0042 776.875 L64.0042 782.731 L28.3562 782.731 M14.479 782.731 L14.479 776.875 L21.895 776.875 L21.895 782.731 L14.479 782.731 Z" fill="#000000" fill-rule="nonzero" fill-opacity="1" /><path clip-path="url(#clip970)" d="M28.3562 768.822 L28.3562 762.616 L58.275 751.476 L28.3562 740.336 L28.3562 734.129 L64.0042 747.497 L64.0042 755.454 L28.3562 768.822 Z" fill="#000000" fill-rule="nonzero" fill-opacity="1" /><path clip-path="url(#clip970)" d="M55.9197 730.278 L55.9197 723.562 L64.0042 723.562 L64.0042 730.278 L55.9197 730.278 Z" fill="#000000" fill-rule="nonzero" fill-opacity="1" /><path clip-path="url(#clip970)" d="M14.479 689.665 L14.479 683.808 L64.0042 683.808 L64.0042 689.665 L14.479 689.665 Z" fill="#000000" fill-rule="nonzero" fill-opacity="1" /><path clip-path="url(#clip970)" d="M46.0847 655.354 Q46.0847 662.451 47.7079 665.189 Q49.3312 667.926 53.2461 667.926 Q56.3653 667.926 58.2114 665.889 Q60.0256 663.82 60.0256 660.287 Q60.0256 655.417 56.5881 652.489 Q53.1188 649.529 47.3897 649.529 L46.0847 649.529 L46.0847 655.354 M43.6657 643.672 L64.0042 643.672 L64.0042 649.529 L58.5933 649.529 Q61.8398 651.534 63.3994 654.526 Q64.9272 657.518 64.9272 661.847 Q64.9272 667.321 61.8716 670.568 Q58.7843 673.782 53.6281 673.782 Q47.6125 673.782 44.5569 669.772 Q41.5014 665.73 41.5014 657.741 L41.5014 649.529 L40.9285 649.529 Q36.8862 649.529 34.6901 652.203 Q32.4621 654.844 32.4621 659.65 Q32.4621 662.706 33.1941 665.602 Q33.9262 668.499 35.3903 671.172 L29.9795 671.172 Q28.7381 667.958 28.1334 664.934 Q27.4968 661.91 27.4968 659.046 Q27.4968 651.311 31.5072 647.492 Q35.5176 643.672 43.6657 643.672 Z" fill="#000000" fill-rule="nonzero" fill-opacity="1" /><path clip-path="url(#clip970)" d="M29.4065 608.884 L34.9447 608.884 Q33.6716 611.366 33.035 614.04 Q32.3984 616.714 32.3984 619.578 Q32.3984 623.939 33.7352 626.135 Q35.072 628.299 37.7456 628.299 Q39.7826 628.299 40.9603 626.74 Q42.1061 625.18 43.1565 620.469 L43.6021 618.464 Q44.9389 612.226 47.3897 609.616 Q49.8086 606.974 54.1691 606.974 Q59.1344 606.974 62.0308 610.921 Q64.9272 614.836 64.9272 621.711 Q64.9272 624.575 64.3543 627.695 Q63.8132 630.782 62.6992 634.219 L56.6518 634.219 Q58.3387 630.973 59.198 627.822 Q60.0256 624.671 60.0256 621.583 Q60.0256 617.446 58.6251 615.218 Q57.1929 612.99 54.6147 612.99 Q52.2276 612.99 50.9545 614.613 Q49.6813 616.204 48.5037 621.647 L48.0262 623.684 Q46.8804 629.127 44.5251 631.546 Q42.138 633.965 38.0002 633.965 Q32.9713 633.965 30.2341 630.4 Q27.4968 626.835 27.4968 620.278 Q27.4968 617.032 27.9743 614.167 Q28.4517 611.303 29.4065 608.884 Z" fill="#000000" fill-rule="nonzero" fill-opacity="1" /><path clip-path="url(#clip970)" d="M18.2347 591.856 L28.3562 591.856 L28.3562 579.793 L32.9077 579.793 L32.9077 591.856 L52.2594 591.856 Q56.6199 591.856 57.8613 590.678 Q59.1026 589.468 59.1026 585.808 L59.1026 579.793 L64.0042 579.793 L64.0042 585.808 Q64.0042 592.588 61.4897 595.166 Q58.9434 597.744 52.2594 597.744 L32.9077 597.744 L32.9077 602.041 L28.3562 602.041 L28.3562 597.744 L18.2347 597.744 L18.2347 591.856 Z" fill="#000000" fill-rule="nonzero" fill-opacity="1" /><path clip-path="url(#clip970)" d="M58.5933 549.428 L58.5933 538.925 L22.3406 538.925 L24.6323 550.351 L18.7758 550.351 L16.4842 538.988 L16.4842 532.559 L58.5933 532.559 L58.5933 522.056 L64.0042 522.056 L64.0042 549.428 L58.5933 549.428 Z" fill="#000000" fill-rule="nonzero" fill-opacity="1" /><path clip-path="url(#clip970)" d="M20.7174 495.32 Q20.7174 500.285 25.6189 502.799 Q30.4887 505.282 40.2919 505.282 Q50.0633 505.282 54.9649 502.799 Q59.8346 500.285 59.8346 495.32 Q59.8346 490.323 54.9649 487.84 Q50.0633 485.326 40.2919 485.326 Q30.4887 485.326 25.6189 487.84 Q20.7174 490.323 20.7174 495.32 M15.6248 495.32 Q15.6248 487.331 21.9587 483.129 Q28.2607 478.896 40.2919 478.896 Q52.2913 478.896 58.6251 483.129 Q64.9272 487.331 64.9272 495.32 Q64.9272 503.309 58.6251 507.542 Q52.2913 511.743 40.2919 511.743 Q28.2607 511.743 21.9587 507.542 Q15.6248 503.309 15.6248 495.32 Z" fill="#000000" fill-rule="nonzero" fill-opacity="1" /><path clip-path="url(#clip970)" d="M46.0847 431.503 Q46.0847 438.601 47.7079 441.338 Q49.3312 444.076 53.2461 444.076 Q56.3653 444.076 58.2114 442.039 Q60.0256 439.97 60.0256 436.437 Q60.0256 431.567 56.5881 428.639 Q53.1188 425.679 47.3897 425.679 L46.0847 425.679 L46.0847 431.503 M43.6657 419.822 L64.0042 419.822 L64.0042 425.679 L58.5933 425.679 Q61.8398 427.684 63.3994 430.676 Q64.9272 433.668 64.9272 437.996 Q64.9272 443.471 61.8716 446.717 Q58.7843 449.932 53.6281 449.932 Q47.6125 449.932 44.5569 445.922 Q41.5014 441.88 41.5014 433.891 L41.5014 425.679 L40.9285 425.679 Q36.8862 425.679 34.6901 428.352 Q32.4621 430.994 32.4621 435.8 Q32.4621 438.856 33.1941 441.752 Q33.9262 444.649 35.3903 447.322 L29.9795 447.322 Q28.7381 444.108 28.1334 441.084 Q27.4968 438.06 27.4968 435.196 Q27.4968 427.461 31.5072 423.642 Q35.5176 419.822 43.6657 419.822 Z" fill="#000000" fill-rule="nonzero" fill-opacity="1" /><path clip-path="url(#clip970)" d="M28.3562 411.961 L28.3562 405.754 L58.275 394.614 L28.3562 383.474 L28.3562 377.268 L64.0042 390.636 L64.0042 398.593 L28.3562 411.961 Z" fill="#000000" fill-rule="nonzero" fill-opacity="1" /><path clip-path="url(#clip970)" d="M45.7664 345.726 Q39.4007 345.726 35.8996 348.367 Q32.3984 350.977 32.3984 355.72 Q32.3984 360.43 35.8996 363.072 Q39.4007 365.682 45.7664 365.682 Q52.1003 365.682 55.6014 363.072 Q59.1026 360.43 59.1026 355.72 Q59.1026 350.977 55.6014 348.367 Q52.1003 345.726 45.7664 345.726 M59.58 339.869 Q68.683 339.869 73.1071 343.911 Q77.5631 347.954 77.5631 356.293 Q77.5631 359.38 77.0857 362.117 Q76.6401 364.855 75.6852 367.433 L69.9879 367.433 Q71.3884 364.855 72.0568 362.34 Q72.7252 359.826 72.7252 357.216 Q72.7252 351.455 69.7015 348.59 Q66.7096 345.726 60.6303 345.726 L57.7339 345.726 Q60.885 347.54 62.4446 350.373 Q64.0042 353.205 64.0042 357.152 Q64.0042 363.709 59.0071 367.719 Q54.01 371.729 45.7664 371.729 Q37.491 371.729 32.4939 367.719 Q27.4968 363.709 27.4968 357.152 Q27.4968 353.205 29.0564 350.373 Q30.616 347.54 33.7671 345.726 L28.3562 345.726 L28.3562 339.869 L59.58 339.869 Z" fill="#000000" fill-rule="nonzero" fill-opacity="1" /><path clip-path="url(#clip970)" d="M55.9197 326.979 L55.9197 320.263 L64.0042 320.263 L64.0042 326.979 L55.9197 326.979 Z" fill="#000000" fill-rule="nonzero" fill-opacity="1" /><path clip-path="url(#clip970)" d="M220.049 65.6895 L248.608 65.6895 L248.608 72.576 L210.206 72.576 L210.206 65.6895 Q214.864 60.8689 222.885 52.7671 Q230.946 44.6248 233.012 42.2752 Q236.942 37.8598 238.481 34.8216 Q240.061 31.7429 240.061 28.7857 Q240.061 23.9651 236.658 20.927 Q233.296 17.8888 227.868 17.8888 Q224.019 17.8888 219.725 19.2256 Q215.472 20.5624 210.611 23.2765 L210.611 15.0127 Q215.553 13.0277 219.847 12.015 Q224.141 11.0023 227.706 11.0023 Q237.104 11.0023 242.694 15.7013 Q248.284 20.4004 248.284 28.2591 Q248.284 31.9859 246.866 35.3482 Q245.489 38.6699 241.803 43.2069 Q240.79 44.3817 235.362 50.0125 Q229.934 55.6027 220.049 65.6895 Z" fill="#000000" fill-rule="nonzero" fill-opacity="1" /><path clip-path="url(#clip970)" d="M302.445 45.1919 L302.445 72.576 L294.991 72.576 L294.991 45.4349 Q294.991 38.994 292.48 35.7938 Q289.968 32.5936 284.945 32.5936 Q278.909 32.5936 275.425 36.4419 Q271.942 40.2903 271.942 46.9338 L271.942 72.576 L264.447 72.576 L264.447 27.2059 L271.942 27.2059 L271.942 34.2544 Q274.615 30.163 278.22 28.1376 Q281.866 26.1121 286.606 26.1121 Q294.424 26.1121 298.434 30.9732 Q302.445 35.7938 302.445 45.1919 Z" fill="#000000" fill-rule="nonzero" fill-opacity="1" /><path clip-path="url(#clip970)" d="M347.167 34.0924 L347.167 9.54393 L354.62 9.54393 L354.62 72.576 L347.167 72.576 L347.167 65.7705 Q344.817 69.8214 341.212 71.8063 Q337.647 73.7508 332.624 73.7508 Q324.401 73.7508 319.216 67.1883 Q314.071 60.6258 314.071 49.9314 Q314.071 39.2371 319.216 32.6746 Q324.401 26.1121 332.624 26.1121 Q337.647 26.1121 341.212 28.0971 Q344.817 30.0415 347.167 34.0924 M321.768 49.9314 Q321.768 58.1548 325.13 62.8538 Q328.533 67.5124 334.447 67.5124 Q340.361 67.5124 343.764 62.8538 Q347.167 58.1548 347.167 49.9314 Q347.167 41.7081 343.764 37.0496 Q340.361 32.3505 334.447 32.3505 Q328.533 32.3505 325.13 37.0496 Q321.768 41.7081 321.768 49.9314 Z" fill="#000000" fill-rule="nonzero" fill-opacity="1" /><path clip-path="url(#clip970)" d="M426.2 34.0924 L426.2 9.54393 L433.654 9.54393 L433.654 72.576 L426.2 72.576 L426.2 65.7705 Q423.85 69.8214 420.245 71.8063 Q416.68 73.7508 411.657 73.7508 Q403.434 73.7508 398.249 67.1883 Q393.104 60.6258 393.104 49.9314 Q393.104 39.2371 398.249 32.6746 Q403.434 26.1121 411.657 26.1121 Q416.68 26.1121 420.245 28.0971 Q423.85 30.0415 426.2 34.0924 M400.801 49.9314 Q400.801 58.1548 404.163 62.8538 Q407.566 67.5124 413.48 67.5124 Q419.394 67.5124 422.797 62.8538 Q426.2 58.1548 426.2 49.9314 Q426.2 41.7081 422.797 37.0496 Q419.394 32.3505 413.48 32.3505 Q407.566 32.3505 404.163 37.0496 Q400.801 41.7081 400.801 49.9314 Z" fill="#000000" fill-rule="nonzero" fill-opacity="1" /><path clip-path="url(#clip970)" d="M487.814 48.0275 L487.814 51.6733 L453.544 51.6733 Q454.03 59.3701 458.162 63.421 Q462.334 67.4314 469.747 67.4314 Q474.041 67.4314 478.052 66.3781 Q482.102 65.3249 486.072 63.2184 L486.072 70.267 Q482.062 71.9684 477.849 72.8596 Q473.636 73.7508 469.302 73.7508 Q458.445 73.7508 452.085 67.4314 Q445.766 61.1119 445.766 50.3365 Q445.766 39.1965 451.761 32.6746 Q457.797 26.1121 468.005 26.1121 Q477.16 26.1121 482.467 32.0264 Q487.814 37.9003 487.814 48.0275 M480.361 45.84 Q480.28 39.7232 476.917 36.0774 Q473.596 32.4315 468.086 32.4315 Q461.848 32.4315 458.081 35.9558 Q454.354 39.4801 453.787 45.8805 L480.361 45.84 Z" fill="#000000" fill-rule="nonzero" fill-opacity="1" /><path clip-path="url(#clip970)" d="M526.338 34.1734 Q525.083 33.4443 523.584 33.1202 Q522.125 32.7556 520.343 32.7556 Q514.024 32.7556 510.621 36.8875 Q507.259 40.9789 507.259 48.6757 L507.259 72.576 L499.764 72.576 L499.764 27.2059 L507.259 27.2059 L507.259 34.2544 Q509.608 30.1225 513.375 28.1376 Q517.143 26.1121 522.53 26.1121 Q523.3 26.1121 524.232 26.2337 Q525.164 26.3147 526.298 26.5172 L526.338 34.1734 Z" fill="#000000" fill-rule="nonzero" fill-opacity="1" /><path clip-path="url(#clip970)" d="M534.157 27.2059 L541.61 27.2059 L541.61 72.576 L534.157 72.576 L534.157 27.2059 M534.157 9.54393 L541.61 9.54393 L541.61 18.9825 L534.157 18.9825 L534.157 9.54393 Z" fill="#000000" fill-rule="nonzero" fill-opacity="1" /><path clip-path="url(#clip970)" d="M551.859 27.2059 L559.758 27.2059 L573.936 65.2844 L588.115 27.2059 L596.014 27.2059 L579 72.576 L568.873 72.576 L551.859 27.2059 Z" fill="#000000" fill-rule="nonzero" fill-opacity="1" /><path clip-path="url(#clip970)" d="M626.922 49.7694 Q617.889 49.7694 614.405 51.8354 Q610.921 53.9013 610.921 58.8839 Q610.921 62.8538 613.514 65.2034 Q616.147 67.5124 620.643 67.5124 Q626.841 67.5124 630.568 63.1374 Q634.335 58.7219 634.335 51.4303 L634.335 49.7694 L626.922 49.7694 M641.789 46.6907 L641.789 72.576 L634.335 72.576 L634.335 65.6895 Q631.783 69.8214 627.975 71.8063 Q624.168 73.7508 618.658 73.7508 Q611.691 73.7508 607.559 69.8619 Q603.468 65.9325 603.468 59.3701 Q603.468 51.7138 608.572 47.825 Q613.716 43.9361 623.884 43.9361 L634.335 43.9361 L634.335 43.2069 Q634.335 38.0623 630.933 35.2672 Q627.57 32.4315 621.454 32.4315 Q617.565 32.4315 613.878 33.3632 Q610.192 34.295 606.789 36.1584 L606.789 29.2718 Q610.881 27.692 614.729 26.9223 Q618.577 26.1121 622.223 26.1121 Q632.067 26.1121 636.928 31.2163 Q641.789 36.3204 641.789 46.6907 Z" fill="#000000" fill-rule="nonzero" fill-opacity="1" /><path clip-path="url(#clip970)" d="M664.515 14.324 L664.515 27.2059 L679.868 27.2059 L679.868 32.9987 L664.515 32.9987 L664.515 57.6282 Q664.515 63.1779 666.013 64.7578 Q667.553 66.3376 672.211 66.3376 L679.868 66.3376 L679.868 72.576 L672.211 72.576 Q663.583 72.576 660.302 69.3758 Q657.02 66.1351 657.02 57.6282 L657.02 32.9987 L651.552 32.9987 L651.552 27.2059 L657.02 27.2059 L657.02 14.324 L664.515 14.324 Z" fill="#000000" fill-rule="nonzero" fill-opacity="1" /><path clip-path="url(#clip970)" d="M689.671 27.2059 L697.124 27.2059 L697.124 72.576 L689.671 72.576 L689.671 27.2059 M689.671 9.54393 L697.124 9.54393 L697.124 18.9825 L689.671 18.9825 L689.671 9.54393 Z" fill="#000000" fill-rule="nonzero" fill-opacity="1" /><path clip-path="url(#clip970)" d="M707.373 27.2059 L715.272 27.2059 L729.451 65.2844 L743.629 27.2059 L751.528 27.2059 L734.514 72.576 L724.387 72.576 L707.373 27.2059 Z" fill="#000000" fill-rule="nonzero" fill-opacity="1" /><path clip-path="url(#clip970)" d="M800.625 48.0275 L800.625 51.6733 L766.354 51.6733 Q766.84 59.3701 770.972 63.421 Q775.145 67.4314 782.558 67.4314 Q786.852 67.4314 790.862 66.3781 Q794.913 65.3249 798.883 63.2184 L798.883 70.267 Q794.873 71.9684 790.66 72.8596 Q786.447 73.7508 782.112 73.7508 Q771.256 73.7508 764.896 67.4314 Q758.577 61.1119 758.577 50.3365 Q758.577 39.1965 764.572 32.6746 Q770.608 26.1121 780.816 26.1121 Q789.971 26.1121 795.278 32.0264 Q800.625 37.9003 800.625 48.0275 M793.171 45.84 Q793.09 39.7232 789.728 36.0774 Q786.406 32.4315 780.897 32.4315 Q774.659 32.4315 770.891 35.9558 Q767.165 39.4801 766.597 45.8805 L793.171 45.84 Z" fill="#000000" fill-rule="nonzero" fill-opacity="1" /><path clip-path="url(#clip970)" d="M859.849 49.7694 Q850.816 49.7694 847.332 51.8354 Q843.848 53.9013 843.848 58.8839 Q843.848 62.8538 846.441 65.2034 Q849.074 67.5124 853.57 67.5124 Q859.768 67.5124 863.495 63.1374 Q867.262 58.7219 867.262 51.4303 L867.262 49.7694 L859.849 49.7694 M874.716 46.6907 L874.716 72.576 L867.262 72.576 L867.262 65.6895 Q864.71 69.8214 860.902 71.8063 Q857.095 73.7508 851.585 73.7508 Q844.618 73.7508 840.486 69.8619 Q836.395 65.9325 836.395 59.3701 Q836.395 51.7138 841.499 47.825 Q846.643 43.9361 856.811 43.9361 L867.262 43.9361 L867.262 43.2069 Q867.262 38.0623 863.86 35.2672 Q860.497 32.4315 854.381 32.4315 Q850.492 32.4315 846.805 33.3632 Q843.119 34.295 839.716 36.1584 L839.716 29.2718 Q843.808 27.692 847.656 26.9223 Q851.504 26.1121 855.15 26.1121 Q864.994 26.1121 869.855 31.2163 Q874.716 36.3204 874.716 46.6907 Z" fill="#000000" fill-rule="nonzero" fill-opacity="1" /><path clip-path="url(#clip970)" d="M884.722 27.2059 L892.621 27.2059 L906.799 65.2844 L920.977 27.2059 L928.877 27.2059 L911.863 72.576 L901.736 72.576 L884.722 27.2059 Z" fill="#000000" fill-rule="nonzero" fill-opacity="1" /><path clip-path="url(#clip970)" d="M977.974 48.0275 L977.974 51.6733 L943.703 51.6733 Q944.189 59.3701 948.321 63.421 Q952.493 67.4314 959.907 67.4314 Q964.201 67.4314 968.211 66.3781 Q972.262 65.3249 976.232 63.2184 L976.232 70.267 Q972.221 71.9684 968.008 72.8596 Q963.795 73.7508 959.461 73.7508 Q948.605 73.7508 942.245 67.4314 Q935.925 61.1119 935.925 50.3365 Q935.925 39.1965 941.921 32.6746 Q947.956 26.1121 958.165 26.1121 Q967.32 26.1121 972.626 32.0264 Q977.974 37.9003 977.974 48.0275 M970.52 45.84 Q970.439 39.7232 967.077 36.0774 Q963.755 32.4315 958.246 32.4315 Q952.007 32.4315 948.24 35.9558 Q944.513 39.4801 943.946 45.8805 L970.52 45.84 Z" fill="#000000" fill-rule="nonzero" fill-opacity="1" /><path clip-path="url(#clip970)" d="M1016.5 34.1734 Q1015.24 33.4443 1013.74 33.1202 Q1012.28 32.7556 1010.5 32.7556 Q1004.18 32.7556 1000.78 36.8875 Q997.418 40.9789 997.418 48.6757 L997.418 72.576 L989.924 72.576 L989.924 27.2059 L997.418 27.2059 L997.418 34.2544 Q999.767 30.1225 1003.53 28.1376 Q1007.3 26.1121 1012.69 26.1121 Q1013.46 26.1121 1014.39 26.2337 Q1015.32 26.3147 1016.46 26.5172 L1016.5 34.1734 Z" fill="#000000" fill-rule="nonzero" fill-opacity="1" /><path clip-path="url(#clip970)" d="M1044.94 49.7694 Q1035.9 49.7694 1032.42 51.8354 Q1028.93 53.9013 1028.93 58.8839 Q1028.93 62.8538 1031.53 65.2034 Q1034.16 67.5124 1038.66 67.5124 Q1044.85 67.5124 1048.58 63.1374 Q1052.35 58.7219 1052.35 51.4303 L1052.35 49.7694 L1044.94 49.7694 M1059.8 46.6907 L1059.8 72.576 L1052.35 72.576 L1052.35 65.6895 Q1049.8 69.8214 1045.99 71.8063 Q1042.18 73.7508 1036.67 73.7508 Q1029.7 73.7508 1025.57 69.8619 Q1021.48 65.9325 1021.48 59.3701 Q1021.48 51.7138 1026.58 47.825 Q1031.73 43.9361 1041.9 43.9361 L1052.35 43.9361 L1052.35 43.2069 Q1052.35 38.0623 1048.95 35.2672 Q1045.58 32.4315 1039.47 32.4315 Q1035.58 32.4315 1031.89 33.3632 Q1028.2 34.295 1024.8 36.1584 L1024.8 29.2718 Q1028.89 27.692 1032.74 26.9223 Q1036.59 26.1121 1040.24 26.1121 Q1050.08 26.1121 1054.94 31.2163 Q1059.8 36.3204 1059.8 46.6907 Z" fill="#000000" fill-rule="nonzero" fill-opacity="1" /><path clip-path="url(#clip970)" d="M1105.01 49.3643 Q1105.01 41.2625 1101.65 36.8065 Q1098.33 32.3505 1092.29 32.3505 Q1086.29 32.3505 1082.93 36.8065 Q1079.61 41.2625 1079.61 49.3643 Q1079.61 57.4256 1082.93 61.8816 Q1086.29 66.3376 1092.29 66.3376 Q1098.33 66.3376 1101.65 61.8816 Q1105.01 57.4256 1105.01 49.3643 M1112.46 66.9452 Q1112.46 78.5308 1107.32 84.1616 Q1102.17 89.8329 1091.56 89.8329 Q1087.63 89.8329 1084.15 89.2252 Q1080.66 88.6581 1077.38 87.4428 L1077.38 80.1917 Q1080.66 81.9741 1083.86 82.8248 Q1087.06 83.6755 1090.39 83.6755 Q1097.72 83.6755 1101.36 79.8271 Q1105.01 76.0193 1105.01 68.282 L1105.01 64.5957 Q1102.7 68.6061 1099.1 70.5911 Q1095.49 72.576 1090.47 72.576 Q1082.12 72.576 1077.02 66.2161 Q1071.91 59.8562 1071.91 49.3643 Q1071.91 38.832 1077.02 32.472 Q1082.12 26.1121 1090.47 26.1121 Q1095.49 26.1121 1099.1 28.0971 Q1102.7 30.082 1105.01 34.0924 L1105.01 27.2059 L1112.46 27.2059 L1112.46 66.9452 Z" fill="#000000" fill-rule="nonzero" fill-opacity="1" /><path clip-path="url(#clip970)" d="M1166.62 48.0275 L1166.62 51.6733 L1132.35 51.6733 Q1132.84 59.3701 1136.97 63.421 Q1141.14 67.4314 1148.56 67.4314 Q1152.85 67.4314 1156.86 66.3781 Q1160.91 65.3249 1164.88 63.2184 L1164.88 70.267 Q1160.87 71.9684 1156.66 72.8596 Q1152.45 73.7508 1148.11 73.7508 Q1137.26 73.7508 1130.9 67.4314 Q1124.58 61.1119 1124.58 50.3365 Q1124.58 39.1965 1130.57 32.6746 Q1136.61 26.1121 1146.82 26.1121 Q1155.97 26.1121 1161.28 32.0264 Q1166.62 37.9003 1166.62 48.0275 M1159.17 45.84 Q1159.09 39.7232 1155.73 36.0774 Q1152.41 32.4315 1146.9 32.4315 Q1140.66 32.4315 1136.89 35.9558 Q1133.16 39.4801 1132.6 45.8805 L1159.17 45.84 Z" fill="#000000" fill-rule="nonzero" fill-opacity="1" /><path clip-path="url(#clip970)" d="M1207.78 28.5427 L1207.78 35.5912 Q1204.62 33.9709 1201.22 33.1607 Q1197.82 32.3505 1194.17 32.3505 Q1188.62 32.3505 1185.83 34.0519 Q1183.07 35.7533 1183.07 39.156 Q1183.07 41.7486 1185.06 43.2475 Q1187.04 44.7058 1193.04 46.0426 L1195.59 46.6097 Q1203.53 48.3111 1206.85 51.4303 Q1210.21 54.509 1210.21 60.0587 Q1210.21 66.3781 1205.19 70.0644 Q1200.21 73.7508 1191.46 73.7508 Q1187.81 73.7508 1183.84 73.0216 Q1179.91 72.3329 1175.54 70.9151 L1175.54 63.2184 Q1179.67 65.3654 1183.68 66.4591 Q1187.69 67.5124 1191.62 67.5124 Q1196.88 67.5124 1199.72 65.73 Q1202.56 63.9071 1202.56 60.6258 Q1202.56 57.5877 1200.49 55.9673 Q1198.46 54.3469 1191.54 52.8481 L1188.94 52.2405 Q1182.02 50.7821 1178.94 47.7845 Q1175.86 44.7463 1175.86 39.4801 Q1175.86 33.0797 1180.4 29.5959 Q1184.93 26.1121 1193.28 26.1121 Q1197.41 26.1121 1201.06 26.7198 Q1204.7 27.3274 1207.78 28.5427 Z" fill="#000000" fill-rule="nonzero" fill-opacity="1" /><path clip-path="url(#clip970)" d="M1223.99 62.2867 L1232.53 62.2867 L1232.53 72.576 L1223.99 72.576 L1223.99 62.2867 M1223.99 29.6769 L1232.53 29.6769 L1232.53 39.9662 L1223.99 39.9662 L1223.99 29.6769 Z" fill="#000000" fill-rule="nonzero" fill-opacity="1" /><path clip-path="url(#clip970)" d="M1283.61 65.7705 L1283.61 89.8329 L1276.12 89.8329 L1276.12 27.2059 L1283.61 27.2059 L1283.61 34.0924 Q1285.96 30.0415 1289.53 28.0971 Q1293.13 26.1121 1298.12 26.1121 Q1306.38 26.1121 1311.53 32.6746 Q1316.71 39.2371 1316.71 49.9314 Q1316.71 60.6258 1311.53 67.1883 Q1306.38 73.7508 1298.12 73.7508 Q1293.13 73.7508 1289.53 71.8063 Q1285.96 69.8214 1283.61 65.7705 M1308.97 49.9314 Q1308.97 41.7081 1305.57 37.0496 Q1302.21 32.3505 1296.29 32.3505 Q1290.38 32.3505 1286.98 37.0496 Q1283.61 41.7081 1283.61 49.9314 Q1283.61 58.1548 1286.98 62.8538 Q1290.38 67.5124 1296.29 67.5124 Q1302.21 67.5124 1305.57 62.8538 Q1308.97 58.1548 1308.97 49.9314 Z" fill="#000000" fill-rule="nonzero" fill-opacity="1" /><path clip-path="url(#clip970)" d="M1355.36 34.1734 Q1354.1 33.4443 1352.6 33.1202 Q1351.14 32.7556 1349.36 32.7556 Q1343.04 32.7556 1339.64 36.8875 Q1336.28 40.9789 1336.28 48.6757 L1336.28 72.576 L1328.78 72.576 L1328.78 27.2059 L1336.28 27.2059 L1336.28 34.2544 Q1338.63 30.1225 1342.39 28.1376 Q1346.16 26.1121 1351.55 26.1121 Q1352.32 26.1121 1353.25 26.2337 Q1354.18 26.3147 1355.32 26.5172 L1355.36 34.1734 Z" fill="#000000" fill-rule="nonzero" fill-opacity="1" /><path clip-path="url(#clip970)" d="M1378.93 32.4315 Q1372.94 32.4315 1369.45 37.1306 Q1365.97 41.7891 1365.97 49.9314 Q1365.97 58.0738 1369.41 62.7728 Q1372.9 67.4314 1378.93 67.4314 Q1384.89 67.4314 1388.37 62.7323 Q1391.85 58.0333 1391.85 49.9314 Q1391.85 41.8701 1388.37 37.1711 Q1384.89 32.4315 1378.93 32.4315 M1378.93 26.1121 Q1388.65 26.1121 1394.2 32.4315 Q1399.75 38.7509 1399.75 49.9314 Q1399.75 61.0714 1394.2 67.4314 Q1388.65 73.7508 1378.93 73.7508 Q1369.17 73.7508 1363.62 67.4314 Q1358.11 61.0714 1358.11 49.9314 Q1358.11 38.7509 1363.62 32.4315 Q1369.17 26.1121 1378.93 26.1121 Z" fill="#000000" fill-rule="nonzero" fill-opacity="1" /><path clip-path="url(#clip970)" d="M1435.08 9.54393 L1435.08 15.7418 L1427.95 15.7418 Q1423.94 15.7418 1422.36 17.3622 Q1420.82 18.9825 1420.82 23.1955 L1420.82 27.2059 L1433.09 27.2059 L1433.09 32.9987 L1420.82 32.9987 L1420.82 72.576 L1413.32 72.576 L1413.32 32.9987 L1406.19 32.9987 L1406.19 27.2059 L1413.32 27.2059 L1413.32 24.0462 Q1413.32 16.471 1416.85 13.0277 Q1420.37 9.54393 1428.03 9.54393 L1435.08 9.54393 Z" fill="#000000" fill-rule="nonzero" fill-opacity="1" /><path clip-path="url(#clip970)" d="M1441.32 27.2059 L1448.77 27.2059 L1448.77 72.576 L1441.32 72.576 L1441.32 27.2059 M1441.32 9.54393 L1448.77 9.54393 L1448.77 18.9825 L1441.32 18.9825 L1441.32 9.54393 Z" fill="#000000" fill-rule="nonzero" fill-opacity="1" /><path clip-path="url(#clip970)" d="M1471.74 14.324 L1471.74 27.2059 L1487.09 27.2059 L1487.09 32.9987 L1471.74 32.9987 L1471.74 57.6282 Q1471.74 63.1779 1473.24 64.7578 Q1474.78 66.3376 1479.44 66.3376 L1487.09 66.3376 L1487.09 72.576 L1479.44 72.576 Q1470.81 72.576 1467.53 69.3758 Q1464.24 66.1351 1464.24 57.6282 L1464.24 32.9987 L1458.78 32.9987 L1458.78 27.2059 L1464.24 27.2059 L1464.24 14.324 L1471.74 14.324 Z" fill="#000000" fill-rule="nonzero" fill-opacity="1" /><path clip-path="url(#clip970)" d="M1517.51 49.7694 Q1508.48 49.7694 1505 51.8354 Q1501.51 53.9013 1501.51 58.8839 Q1501.51 62.8538 1504.11 65.2034 Q1506.74 67.5124 1511.23 67.5124 Q1517.43 67.5124 1521.16 63.1374 Q1524.93 58.7219 1524.93 51.4303 L1524.93 49.7694 L1517.51 49.7694 M1532.38 46.6907 L1532.38 72.576 L1524.93 72.576 L1524.93 65.6895 Q1522.37 69.8214 1518.57 71.8063 Q1514.76 73.7508 1509.25 73.7508 Q1502.28 73.7508 1498.15 69.8619 Q1494.06 65.9325 1494.06 59.3701 Q1494.06 51.7138 1499.16 47.825 Q1504.31 43.9361 1514.48 43.9361 L1524.93 43.9361 L1524.93 43.2069 Q1524.93 38.0623 1521.52 35.2672 Q1518.16 32.4315 1512.04 32.4315 Q1508.16 32.4315 1504.47 33.3632 Q1500.78 34.295 1497.38 36.1584 L1497.38 29.2718 Q1501.47 27.692 1505.32 26.9223 Q1509.17 26.1121 1512.81 26.1121 Q1522.66 26.1121 1527.52 31.2163 Q1532.38 36.3204 1532.38 46.6907 Z" fill="#000000" fill-rule="nonzero" fill-opacity="1" /><path clip-path="url(#clip970)" d="M1580.3 49.9314 Q1580.3 41.7081 1576.9 37.0496 Q1573.54 32.3505 1567.62 32.3505 Q1561.71 32.3505 1558.31 37.0496 Q1554.94 41.7081 1554.94 49.9314 Q1554.94 58.1548 1558.31 62.8538 Q1561.71 67.5124 1567.62 67.5124 Q1573.54 67.5124 1576.9 62.8538 Q1580.3 58.1548 1580.3 49.9314 M1554.94 34.0924 Q1557.29 30.0415 1560.86 28.0971 Q1564.46 26.1121 1569.45 26.1121 Q1577.71 26.1121 1582.85 32.6746 Q1588.04 39.2371 1588.04 49.9314 Q1588.04 60.6258 1582.85 67.1883 Q1577.71 73.7508 1569.45 73.7508 Q1564.46 73.7508 1560.86 71.8063 Q1557.29 69.8214 1554.94 65.7705 L1554.94 72.576 L1547.45 72.576 L1547.45 9.54393 L1554.94 9.54393 L1554.94 34.0924 Z" fill="#000000" fill-rule="nonzero" fill-opacity="1" /><path clip-path="url(#clip970)" d="M1600.4 27.2059 L1607.85 27.2059 L1607.85 72.576 L1600.4 72.576 L1600.4 27.2059 M1600.4 9.54393 L1607.85 9.54393 L1607.85 18.9825 L1600.4 18.9825 L1600.4 9.54393 Z" fill="#000000" fill-rule="nonzero" fill-opacity="1" /><path clip-path="url(#clip970)" d="M1623.44 9.54393 L1630.9 9.54393 L1630.9 72.576 L1623.44 72.576 L1623.44 9.54393 Z" fill="#000000" fill-rule="nonzero" fill-opacity="1" /><path clip-path="url(#clip970)" d="M1646.49 27.2059 L1653.95 27.2059 L1653.95 72.576 L1646.49 72.576 L1646.49 27.2059 M1646.49 9.54393 L1653.95 9.54393 L1653.95 18.9825 L1646.49 18.9825 L1646.49 9.54393 Z" fill="#000000" fill-rule="nonzero" fill-opacity="1" /><path clip-path="url(#clip970)" d="M1676.92 14.324 L1676.92 27.2059 L1692.27 27.2059 L1692.27 32.9987 L1676.92 32.9987 L1676.92 57.6282 Q1676.92 63.1779 1678.42 64.7578 Q1679.95 66.3376 1684.61 66.3376 L1692.27 66.3376 L1692.27 72.576 L1684.61 72.576 Q1675.98 72.576 1672.7 69.3758 Q1669.42 66.1351 1669.42 57.6282 L1669.42 32.9987 L1663.95 32.9987 L1663.95 27.2059 L1669.42 27.2059 L1669.42 14.324 L1676.92 14.324 Z" fill="#000000" fill-rule="nonzero" fill-opacity="1" /><path clip-path="url(#clip970)" d="M1720.95 76.7889 Q1717.79 84.8907 1714.79 87.3618 Q1711.79 89.8329 1706.77 89.8329 L1700.82 89.8329 L1700.82 83.5945 L1705.19 83.5945 Q1708.27 83.5945 1709.97 82.1361 Q1711.67 80.6778 1713.74 75.2496 L1715.08 71.8468 L1696.73 27.2059 L1704.62 27.2059 L1718.8 62.6918 L1732.98 27.2059 L1740.88 27.2059 L1720.95 76.7889 Z" fill="#000000" fill-rule="nonzero" fill-opacity="1" /><path clip-path="url(#clip970)" d="M1753.07 62.2867 L1761.62 62.2867 L1761.62 69.2543 L1754.98 82.2172 L1749.75 82.2172 L1753.07 69.2543 L1753.07 62.2867 Z" fill="#000000" fill-rule="nonzero" fill-opacity="1" /><path clip-path="url(#clip970)" d="M1803.91 9.54393 L1811.37 9.54393 L1811.37 72.576 L1803.91 72.576 L1803.91 9.54393 Z" fill="#000000" fill-rule="nonzero" fill-opacity="1" /><path clip-path="url(#clip970)" d="M1865.77 48.0275 L1865.77 51.6733 L1831.5 51.6733 Q1831.99 59.3701 1836.12 63.421 Q1840.29 67.4314 1847.7 67.4314 Q1852 67.4314 1856.01 66.3781 Q1860.06 65.3249 1864.03 63.2184 L1864.03 70.267 Q1860.02 71.9684 1855.8 72.8596 Q1851.59 73.7508 1847.26 73.7508 Q1836.4 73.7508 1830.04 67.4314 Q1823.72 61.1119 1823.72 50.3365 Q1823.72 39.1965 1829.72 32.6746 Q1835.75 26.1121 1845.96 26.1121 Q1855.12 26.1121 1860.42 32.0264 Q1865.77 37.9003 1865.77 48.0275 M1858.32 45.84 Q1858.24 39.7232 1854.87 36.0774 Q1851.55 32.4315 1846.04 32.4315 Q1839.8 32.4315 1836.04 35.9558 Q1832.31 39.4801 1831.74 45.8805 L1858.32 45.84 Z" fill="#000000" fill-rule="nonzero" fill-opacity="1" /><path clip-path="url(#clip970)" d="M1898.62 49.7694 Q1889.59 49.7694 1886.11 51.8354 Q1882.62 53.9013 1882.62 58.8839 Q1882.62 62.8538 1885.21 65.2034 Q1887.85 67.5124 1892.34 67.5124 Q1898.54 67.5124 1902.27 63.1374 Q1906.04 58.7219 1906.04 51.4303 L1906.04 49.7694 L1898.62 49.7694 M1913.49 46.6907 L1913.49 72.576 L1906.04 72.576 L1906.04 65.6895 Q1903.48 69.8214 1899.68 71.8063 Q1895.87 73.7508 1890.36 73.7508 Q1883.39 73.7508 1879.26 69.8619 Q1875.17 65.9325 1875.17 59.3701 Q1875.17 51.7138 1880.27 47.825 Q1885.42 43.9361 1895.58 43.9361 L1906.04 43.9361 L1906.04 43.2069 Q1906.04 38.0623 1902.63 35.2672 Q1899.27 32.4315 1893.15 32.4315 Q1889.27 32.4315 1885.58 33.3632 Q1881.89 34.295 1878.49 36.1584 L1878.49 29.2718 Q1882.58 27.692 1886.43 26.9223 Q1890.28 26.1121 1893.92 26.1121 Q1903.77 26.1121 1908.63 31.2163 Q1913.49 36.3204 1913.49 46.6907 Z" fill="#000000" fill-rule="nonzero" fill-opacity="1" /><path clip-path="url(#clip970)" d="M1958.7 34.0924 L1958.7 9.54393 L1966.15 9.54393 L1966.15 72.576 L1958.7 72.576 L1958.7 65.7705 Q1956.35 69.8214 1952.74 71.8063 Q1949.18 73.7508 1944.15 73.7508 Q1935.93 73.7508 1930.75 67.1883 Q1925.6 60.6258 1925.6 49.9314 Q1925.6 39.2371 1930.75 32.6746 Q1935.93 26.1121 1944.15 26.1121 Q1949.18 26.1121 1952.74 28.0971 Q1956.35 30.0415 1958.7 34.0924 M1933.3 49.9314 Q1933.3 58.1548 1936.66 62.8538 Q1940.06 67.5124 1945.98 67.5124 Q1951.89 67.5124 1955.29 62.8538 Q1958.7 58.1548 1958.7 49.9314 Q1958.7 41.7081 1955.29 37.0496 Q1951.89 32.3505 1945.98 32.3505 Q1940.06 32.3505 1936.66 37.0496 Q1933.3 41.7081 1933.3 49.9314 Z" fill="#000000" fill-rule="nonzero" fill-opacity="1" /><path clip-path="url(#clip970)" d="M2020.31 48.0275 L2020.31 51.6733 L1986.04 51.6733 Q1986.53 59.3701 1990.66 63.421 Q1994.83 67.4314 2002.24 67.4314 Q2006.54 67.4314 2010.55 66.3781 Q2014.6 65.3249 2018.57 63.2184 L2018.57 70.267 Q2014.56 71.9684 2010.35 72.8596 Q2006.13 73.7508 2001.8 73.7508 Q1990.94 73.7508 1984.58 67.4314 Q1978.26 61.1119 1978.26 50.3365 Q1978.26 39.1965 1984.26 32.6746 Q1990.29 26.1121 2000.5 26.1121 Q2009.66 26.1121 2014.96 32.0264 Q2020.31 37.9003 2020.31 48.0275 M2012.86 45.84 Q2012.78 39.7232 2009.41 36.0774 Q2006.09 32.4315 2000.58 32.4315 Q1994.35 32.4315 1990.58 35.9558 Q1986.85 39.4801 1986.28 45.8805 L2012.86 45.84 Z" fill="#000000" fill-rule="nonzero" fill-opacity="1" /><path clip-path="url(#clip970)" d="M2058.84 34.1734 Q2057.58 33.4443 2056.08 33.1202 Q2054.62 32.7556 2052.84 32.7556 Q2046.52 32.7556 2043.12 36.8875 Q2039.76 40.9789 2039.76 48.6757 L2039.76 72.576 L2032.26 72.576 L2032.26 27.2059 L2039.76 27.2059 L2039.76 34.2544 Q2042.11 30.1225 2045.87 28.1376 Q2049.64 26.1121 2055.03 26.1121 Q2055.8 26.1121 2056.73 26.2337 Q2057.66 26.3147 2058.8 26.5172 L2058.84 34.1734 Z" fill="#000000" fill-rule="nonzero" fill-opacity="1" /><path clip-path="url(#clip970)" d="M2073.7 12.096 L2073.7 34.5785 L2066.82 34.5785 L2066.82 12.096 L2073.7 12.096 Z" fill="#000000" fill-rule="nonzero" fill-opacity="1" /><path clip-path="url(#clip970)" d="M2118.38 28.5427 L2118.38 35.5912 Q2115.22 33.9709 2111.82 33.1607 Q2108.42 32.3505 2104.77 32.3505 Q2099.22 32.3505 2096.43 34.0519 Q2093.67 35.7533 2093.67 39.156 Q2093.67 41.7486 2095.66 43.2475 Q2097.64 44.7058 2103.64 46.0426 L2106.19 46.6097 Q2114.13 48.3111 2117.45 51.4303 Q2120.81 54.509 2120.81 60.0587 Q2120.81 66.3781 2115.79 70.0644 Q2110.81 73.7508 2102.06 73.7508 Q2098.41 73.7508 2094.44 73.0216 Q2090.51 72.3329 2086.14 70.9151 L2086.14 63.2184 Q2090.27 65.3654 2094.28 66.4591 Q2098.29 67.5124 2102.22 67.5124 Q2107.49 67.5124 2110.32 65.73 Q2113.16 63.9071 2113.16 60.6258 Q2113.16 57.5877 2111.09 55.9673 Q2109.07 54.3469 2102.14 52.8481 L2099.55 52.2405 Q2092.62 50.7821 2089.54 47.7845 Q2086.46 44.7463 2086.46 39.4801 Q2086.46 33.0797 2091 29.5959 Q2095.54 26.1121 2103.88 26.1121 Q2108.01 26.1121 2111.66 26.7198 Q2115.31 27.3274 2118.38 28.5427 Z" fill="#000000" fill-rule="nonzero" fill-opacity="1" /><path clip-path="url(#clip970)" d="M2166.27 65.7705 L2166.27 89.8329 L2158.77 89.8329 L2158.77 27.2059 L2166.27 27.2059 L2166.27 34.0924 Q2168.62 30.0415 2172.18 28.0971 Q2175.79 26.1121 2180.77 26.1121 Q2189.03 26.1121 2194.18 32.6746 Q2199.36 39.2371 2199.36 49.9314 Q2199.36 60.6258 2194.18 67.1883 Q2189.03 73.7508 2180.77 73.7508 Q2175.79 73.7508 2172.18 71.8063 Q2168.62 69.8214 2166.27 65.7705 M2191.62 49.9314 Q2191.62 41.7081 2188.22 37.0496 Q2184.86 32.3505 2178.95 32.3505 Q2173.03 32.3505 2169.63 37.0496 Q2166.27 41.7081 2166.27 49.9314 Q2166.27 58.1548 2169.63 62.8538 Q2173.03 67.5124 2178.95 67.5124 Q2184.86 67.5124 2188.22 62.8538 Q2191.62 58.1548 2191.62 49.9314 Z" fill="#000000" fill-rule="nonzero" fill-opacity="1" /><path clip-path="url(#clip970)" d="M2238.01 34.1734 Q2236.75 33.4443 2235.25 33.1202 Q2233.79 32.7556 2232.01 32.7556 Q2225.69 32.7556 2222.29 36.8875 Q2218.93 40.9789 2218.93 48.6757 L2218.93 72.576 L2211.43 72.576 L2211.43 27.2059 L2218.93 27.2059 L2218.93 34.2544 Q2221.28 30.1225 2225.04 28.1376 Q2228.81 26.1121 2234.2 26.1121 Q2234.97 26.1121 2235.9 26.2337 Q2236.83 26.3147 2237.97 26.5172 L2238.01 34.1734 Z" fill="#000000" fill-rule="nonzero" fill-opacity="1" /><path clip-path="url(#clip970)" d="M2245.83 27.2059 L2253.28 27.2059 L2253.28 72.576 L2245.83 72.576 L2245.83 27.2059 M2245.83 9.54393 L2253.28 9.54393 L2253.28 18.9825 L2245.83 18.9825 L2245.83 9.54393 Z" fill="#000000" fill-rule="nonzero" fill-opacity="1" /><path clip-path="url(#clip970)" d="M2301.53 28.9478 L2301.53 35.9153 Q2298.37 34.1734 2295.17 33.3227 Q2292.01 32.4315 2288.77 32.4315 Q2281.51 32.4315 2277.5 37.0496 Q2273.49 41.6271 2273.49 49.9314 Q2273.49 58.2358 2277.5 62.8538 Q2281.51 67.4314 2288.77 67.4314 Q2292.01 67.4314 2295.17 66.5807 Q2298.37 65.6895 2301.53 63.9476 L2301.53 70.8341 Q2298.41 72.2924 2295.04 73.0216 Q2291.72 73.7508 2287.96 73.7508 Q2277.71 73.7508 2271.67 67.3098 Q2265.63 60.8689 2265.63 49.9314 Q2265.63 38.832 2271.71 32.472 Q2277.83 26.1121 2288.44 26.1121 Q2291.88 26.1121 2295.17 26.8413 Q2298.45 27.5299 2301.53 28.9478 Z" fill="#000000" fill-rule="nonzero" fill-opacity="1" /><path clip-path="url(#clip970)" d="M2353.3 48.0275 L2353.3 51.6733 L2319.03 51.6733 Q2319.51 59.3701 2323.64 63.421 Q2327.82 67.4314 2335.23 67.4314 Q2339.52 67.4314 2343.53 66.3781 Q2347.58 65.3249 2351.55 63.2184 L2351.55 70.267 Q2347.54 71.9684 2343.33 72.8596 Q2339.12 73.7508 2334.78 73.7508 Q2323.93 73.7508 2317.57 67.4314 Q2311.25 61.1119 2311.25 50.3365 Q2311.25 39.1965 2317.24 32.6746 Q2323.28 26.1121 2333.49 26.1121 Q2342.64 26.1121 2347.95 32.0264 Q2353.3 37.9003 2353.3 48.0275 M2345.84 45.84 Q2345.76 39.7232 2342.4 36.0774 Q2339.08 32.4315 2333.57 32.4315 Q2327.33 32.4315 2323.56 35.9558 Q2319.84 39.4801 2319.27 45.8805 L2345.84 45.84 Z" fill="#000000" fill-rule="nonzero" fill-opacity="1" /><circle clip-path="url(#clip972)" cx="1233.78" cy="812.228" r="14.4" fill="#009af9" fill-rule="evenodd" fill-opacity="1" stroke="#000000" stroke-opacity="1" stroke-width="3.2"/>
<circle clip-path="url(#clip972)" cx="1233.78" cy="812.228" r="14.4" fill="#009af9" fill-rule="evenodd" fill-opacity="1" stroke="#000000" stroke-opacity="1" stroke-width="3.2"/>
<circle clip-path="url(#clip972)" cx="1233.78" cy="812.228" r="14.4" fill="#009af9" fill-rule="evenodd" fill-opacity="1" stroke="#000000" stroke-opacity="1" stroke-width="3.2"/>
<circle clip-path="url(#clip972)" cx="1233.78" cy="812.228" r="14.4" fill="#009af9" fill-rule="evenodd" fill-opacity="1" stroke="#000000" stroke-opacity="1" stroke-width="3.2"/>
<circle clip-path="url(#clip972)" cx="1233.78" cy="812.228" r="14.4" fill="#009af9" fill-rule="evenodd" fill-opacity="1" stroke="#000000" stroke-opacity="1" stroke-width="3.2"/>
<circle clip-path="url(#clip972)" cx="1233.78" cy="812.228" r="14.4" fill="#009af9" fill-rule="evenodd" fill-opacity="1" stroke="#000000" stroke-opacity="1" stroke-width="3.2"/>
<circle clip-path="url(#clip972)" cx="1233.78" cy="812.228" r="14.4" fill="#009af9" fill-rule="evenodd" fill-opacity="1" stroke="#000000" stroke-opacity="1" stroke-width="3.2"/>
<circle clip-path="url(#clip972)" cx="1233.78" cy="812.228" r="14.4" fill="#009af9" fill-rule="evenodd" fill-opacity="1" stroke="#000000" stroke-opacity="1" stroke-width="3.2"/>
<circle clip-path="url(#clip972)" cx="1233.78" cy="812.228" r="14.4" fill="#009af9" fill-rule="evenodd" fill-opacity="1" stroke="#000000" stroke-opacity="1" stroke-width="3.2"/>
<circle clip-path="url(#clip972)" cx="1646.28" cy="544.471" r="14.4" fill="#009af9" fill-rule="evenodd" fill-opacity="1" stroke="#000000" stroke-opacity="1" stroke-width="3.2"/>
<circle clip-path="url(#clip972)" cx="714.617" cy="1140.19" r="14.4" fill="#009af9" fill-rule="evenodd" fill-opacity="1" stroke="#000000" stroke-opacity="1" stroke-width="3.2"/>
<circle clip-path="url(#clip972)" cx="1574.27" cy="614.658" r="14.4" fill="#009af9" fill-rule="evenodd" fill-opacity="1" stroke="#000000" stroke-opacity="1" stroke-width="3.2"/>
<circle clip-path="url(#clip972)" cx="941.324" cy="988.035" r="14.4" fill="#009af9" fill-rule="evenodd" fill-opacity="1" stroke="#000000" stroke-opacity="1" stroke-width="3.2"/>
<circle clip-path="url(#clip972)" cx="1573.81" cy="591.844" r="14.4" fill="#009af9" fill-rule="evenodd" fill-opacity="1" stroke="#000000" stroke-opacity="1" stroke-width="3.2"/>
<circle clip-path="url(#clip972)" cx="698.351" cy="1165.85" r="14.4" fill="#009af9" fill-rule="evenodd" fill-opacity="1" stroke="#000000" stroke-opacity="1" stroke-width="3.2"/>
<circle clip-path="url(#clip972)" cx="1608.04" cy="563.126" r="14.4" fill="#009af9" fill-rule="evenodd" fill-opacity="1" stroke="#000000" stroke-opacity="1" stroke-width="3.2"/>
<circle clip-path="url(#clip972)" cx="1024.61" cy="941.143" r="14.4" fill="#009af9" fill-rule="evenodd" fill-opacity="1" stroke="#000000" stroke-opacity="1" stroke-width="3.2"/>
<circle clip-path="url(#clip972)" cx="1524.15" cy="648.698" r="14.4" fill="#009af9" fill-rule="evenodd" fill-opacity="1" stroke="#000000" stroke-opacity="1" stroke-width="3.2"/>
<circle clip-path="url(#clip972)" cx="973.118" cy="971.422" r="14.4" fill="#009af9" fill-rule="evenodd" fill-opacity="1" stroke="#000000" stroke-opacity="1" stroke-width="3.2"/>
<circle clip-path="url(#clip972)" cx="967.718" cy="982.705" r="14.4" fill="#009af9" fill-rule="evenodd" fill-opacity="1" stroke="#000000" stroke-opacity="1" stroke-width="3.2"/>
<circle clip-path="url(#clip972)" cx="1589.56" cy="579.615" r="14.4" fill="#009af9" fill-rule="evenodd" fill-opacity="1" stroke="#000000" stroke-opacity="1" stroke-width="3.2"/>
<circle clip-path="url(#clip972)" cx="1037.99" cy="929.762" r="14.4" fill="#009af9" fill-rule="evenodd" fill-opacity="1" stroke="#000000" stroke-opacity="1" stroke-width="3.2"/>
<circle clip-path="url(#clip972)" cx="1090.37" cy="891.623" r="14.4" fill="#009af9" fill-rule="evenodd" fill-opacity="1" stroke="#000000" stroke-opacity="1" stroke-width="3.2"/>
<circle clip-path="url(#clip972)" cx="1234.19" cy="833.67" r="14.4" fill="#009af9" fill-rule="evenodd" fill-opacity="1" stroke="#000000" stroke-opacity="1" stroke-width="3.2"/>
<circle clip-path="url(#clip972)" cx="1542.04" cy="614.301" r="14.4" fill="#009af9" fill-rule="evenodd" fill-opacity="1" stroke="#000000" stroke-opacity="1" stroke-width="3.2"/>
<circle clip-path="url(#clip972)" cx="1755.09" cy="485.425" r="14.4" fill="#009af9" fill-rule="evenodd" fill-opacity="1" stroke="#000000" stroke-opacity="1" stroke-width="3.2"/>
<circle clip-path="url(#clip972)" cx="904.529" cy="1024.95" r="14.4" fill="#009af9" fill-rule="evenodd" fill-opacity="1" stroke="#000000" stroke-opacity="1" stroke-width="3.2"/>
<circle clip-path="url(#clip972)" cx="950.257" cy="971.714" r="14.4" fill="#009af9" fill-rule="evenodd" fill-opacity="1" stroke="#000000" stroke-opacity="1" stroke-width="3.2"/>
<circle clip-path="url(#clip972)" cx="1268.9" cy="789.523" r="14.4" fill="#009af9" fill-rule="evenodd" fill-opacity="1" stroke="#000000" stroke-opacity="1" stroke-width="3.2"/>
<circle clip-path="url(#clip972)" cx="1504.05" cy="651.993" r="14.4" fill="#009af9" fill-rule="evenodd" fill-opacity="1" stroke="#000000" stroke-opacity="1" stroke-width="3.2"/>
<circle clip-path="url(#clip972)" cx="1469.77" cy="670.485" r="14.4" fill="#009af9" fill-rule="evenodd" fill-opacity="1" stroke="#000000" stroke-opacity="1" stroke-width="3.2"/>
<circle clip-path="url(#clip972)" cx="867.873" cy="1026.93" r="14.4" fill="#009af9" fill-rule="evenodd" fill-opacity="1" stroke="#000000" stroke-opacity="1" stroke-width="3.2"/>
<circle clip-path="url(#clip972)" cx="929.742" cy="1035.21" r="14.4" fill="#009af9" fill-rule="evenodd" fill-opacity="1" stroke="#000000" stroke-opacity="1" stroke-width="3.2"/>
<circle clip-path="url(#clip972)" cx="1645.68" cy="526.142" r="14.4" fill="#009af9" fill-rule="evenodd" fill-opacity="1" stroke="#000000" stroke-opacity="1" stroke-width="3.2"/>
<circle clip-path="url(#clip972)" cx="754.276" cy="1124.15" r="14.4" fill="#009af9" fill-rule="evenodd" fill-opacity="1" stroke="#000000" stroke-opacity="1" stroke-width="3.2"/>
<circle clip-path="url(#clip972)" cx="667.847" cy="1178.66" r="14.4" fill="#009af9" fill-rule="evenodd" fill-opacity="1" stroke="#000000" stroke-opacity="1" stroke-width="3.2"/>
<circle clip-path="url(#clip972)" cx="1994.8" cy="309.099" r="14.4" fill="#009af9" fill-rule="evenodd" fill-opacity="1" stroke="#000000" stroke-opacity="1" stroke-width="3.2"/>
<circle clip-path="url(#clip972)" cx="1233.62" cy="803.427" r="14.4" fill="#009af9" fill-rule="evenodd" fill-opacity="1" stroke="#000000" stroke-opacity="1" stroke-width="3.2"/>
<circle clip-path="url(#clip972)" cx="1891.78" cy="406.533" r="14.4" fill="#009af9" fill-rule="evenodd" fill-opacity="1" stroke="#000000" stroke-opacity="1" stroke-width="3.2"/>
<circle clip-path="url(#clip972)" cx="271.369" cy="1423.18" r="14.4" fill="#009af9" fill-rule="evenodd" fill-opacity="1" stroke="#000000" stroke-opacity="1" stroke-width="3.2"/>
<circle clip-path="url(#clip972)" cx="1151.93" cy="857.615" r="14.4" fill="#009af9" fill-rule="evenodd" fill-opacity="1" stroke="#000000" stroke-opacity="1" stroke-width="3.2"/>
<circle clip-path="url(#clip972)" cx="1725.18" cy="527.706" r="14.4" fill="#009af9" fill-rule="evenodd" fill-opacity="1" stroke="#000000" stroke-opacity="1" stroke-width="3.2"/>
<circle clip-path="url(#clip972)" cx="1493.64" cy="623.86" r="14.4" fill="#009af9" fill-rule="evenodd" fill-opacity="1" stroke="#000000" stroke-opacity="1" stroke-width="3.2"/>
<circle clip-path="url(#clip972)" cx="1092.96" cy="911.059" r="14.4" fill="#009af9" fill-rule="evenodd" fill-opacity="1" stroke="#000000" stroke-opacity="1" stroke-width="3.2"/>
<circle clip-path="url(#clip972)" cx="1890.79" cy="370.114" r="14.4" fill="#009af9" fill-rule="evenodd" fill-opacity="1" stroke="#000000" stroke-opacity="1" stroke-width="3.2"/>
<circle clip-path="url(#clip972)" cx="399.638" cy="1359.43" r="14.4" fill="#009af9" fill-rule="evenodd" fill-opacity="1" stroke="#000000" stroke-opacity="1" stroke-width="3.2"/>
<circle clip-path="url(#clip972)" cx="1351.95" cy="746.315" r="14.4" fill="#009af9" fill-rule="evenodd" fill-opacity="1" stroke="#000000" stroke-opacity="1" stroke-width="3.2"/>
<circle clip-path="url(#clip972)" cx="687.035" cy="1181.06" r="14.4" fill="#009af9" fill-rule="evenodd" fill-opacity="1" stroke="#000000" stroke-opacity="1" stroke-width="3.2"/>
<circle clip-path="url(#clip972)" cx="1124.56" cy="864.175" r="14.4" fill="#009af9" fill-rule="evenodd" fill-opacity="1" stroke="#000000" stroke-opacity="1" stroke-width="3.2"/>
<circle clip-path="url(#clip972)" cx="2292.13" cy="123.472" r="14.4" fill="#009af9" fill-rule="evenodd" fill-opacity="1" stroke="#000000" stroke-opacity="1" stroke-width="3.2"/>
<circle clip-path="url(#clip972)" cx="678.598" cy="1184.92" r="14.4" fill="#009af9" fill-rule="evenodd" fill-opacity="1" stroke="#000000" stroke-opacity="1" stroke-width="3.2"/>
<circle clip-path="url(#clip972)" cx="1609.74" cy="561.289" r="14.4" fill="#009af9" fill-rule="evenodd" fill-opacity="1" stroke="#000000" stroke-opacity="1" stroke-width="3.2"/>
<circle clip-path="url(#clip972)" cx="1331" cy="755.318" r="14.4" fill="#009af9" fill-rule="evenodd" fill-opacity="1" stroke="#000000" stroke-opacity="1" stroke-width="3.2"/>
<circle clip-path="url(#clip972)" cx="713.498" cy="1123.69" r="14.4" fill="#009af9" fill-rule="evenodd" fill-opacity="1" stroke="#000000" stroke-opacity="1" stroke-width="3.2"/>
<circle clip-path="url(#clip972)" cx="1032.37" cy="965.835" r="14.4" fill="#009af9" fill-rule="evenodd" fill-opacity="1" stroke="#000000" stroke-opacity="1" stroke-width="3.2"/>
<circle clip-path="url(#clip972)" cx="1807.88" cy="445.804" r="14.4" fill="#009af9" fill-rule="evenodd" fill-opacity="1" stroke="#000000" stroke-opacity="1" stroke-width="3.2"/>
<circle clip-path="url(#clip972)" cx="971.772" cy="974.976" r="14.4" fill="#009af9" fill-rule="evenodd" fill-opacity="1" stroke="#000000" stroke-opacity="1" stroke-width="3.2"/>
<circle clip-path="url(#clip972)" cx="926.58" cy="1007.11" r="14.4" fill="#009af9" fill-rule="evenodd" fill-opacity="1" stroke="#000000" stroke-opacity="1" stroke-width="3.2"/>
<circle clip-path="url(#clip972)" cx="1492.24" cy="649.569" r="14.4" fill="#009af9" fill-rule="evenodd" fill-opacity="1" stroke="#000000" stroke-opacity="1" stroke-width="3.2"/>
<circle clip-path="url(#clip972)" cx="682.545" cy="1171.61" r="14.4" fill="#009af9" fill-rule="evenodd" fill-opacity="1" stroke="#000000" stroke-opacity="1" stroke-width="3.2"/>
<circle clip-path="url(#clip972)" cx="1878.33" cy="383.766" r="14.4" fill="#009af9" fill-rule="evenodd" fill-opacity="1" stroke="#000000" stroke-opacity="1" stroke-width="3.2"/>
<circle clip-path="url(#clip972)" cx="795.735" cy="1095.89" r="14.4" fill="#009af9" fill-rule="evenodd" fill-opacity="1" stroke="#000000" stroke-opacity="1" stroke-width="3.2"/>
<circle clip-path="url(#clip972)" cx="1157.17" cy="847.83" r="14.4" fill="#009af9" fill-rule="evenodd" fill-opacity="1" stroke="#000000" stroke-opacity="1" stroke-width="3.2"/>
<circle clip-path="url(#clip972)" cx="1405.02" cy="734.416" r="14.4" fill="#009af9" fill-rule="evenodd" fill-opacity="1" stroke="#000000" stroke-opacity="1" stroke-width="3.2"/>
<circle clip-path="url(#clip972)" cx="997.292" cy="952.415" r="14.4" fill="#009af9" fill-rule="evenodd" fill-opacity="1" stroke="#000000" stroke-opacity="1" stroke-width="3.2"/>
<circle clip-path="url(#clip972)" cx="1814.77" cy="429.394" r="14.4" fill="#009af9" fill-rule="evenodd" fill-opacity="1" stroke="#000000" stroke-opacity="1" stroke-width="3.2"/>
<circle clip-path="url(#clip972)" cx="1166.53" cy="858.423" r="14.4" fill="#009af9" fill-rule="evenodd" fill-opacity="1" stroke="#000000" stroke-opacity="1" stroke-width="3.2"/>
<circle clip-path="url(#clip972)" cx="1496.58" cy="644.796" r="14.4" fill="#009af9" fill-rule="evenodd" fill-opacity="1" stroke="#000000" stroke-opacity="1" stroke-width="3.2"/>
<circle clip-path="url(#clip972)" cx="969.776" cy="972.506" r="14.4" fill="#009af9" fill-rule="evenodd" fill-opacity="1" stroke="#000000" stroke-opacity="1" stroke-width="3.2"/>
<circle clip-path="url(#clip972)" cx="1132.07" cy="883.971" r="14.4" fill="#009af9" fill-rule="evenodd" fill-opacity="1" stroke="#000000" stroke-opacity="1" stroke-width="3.2"/>
<circle clip-path="url(#clip972)" cx="1790.9" cy="463.912" r="14.4" fill="#009af9" fill-rule="evenodd" fill-opacity="1" stroke="#000000" stroke-opacity="1" stroke-width="3.2"/>
<circle clip-path="url(#clip972)" cx="758.034" cy="1102.52" r="14.4" fill="#009af9" fill-rule="evenodd" fill-opacity="1" stroke="#000000" stroke-opacity="1" stroke-width="3.2"/>
<circle clip-path="url(#clip972)" cx="1527.35" cy="635.689" r="14.4" fill="#009af9" fill-rule="evenodd" fill-opacity="1" stroke="#000000" stroke-opacity="1" stroke-width="3.2"/>
<circle clip-path="url(#clip972)" cx="1240.3" cy="801.666" r="14.4" fill="#009af9" fill-rule="evenodd" fill-opacity="1" stroke="#000000" stroke-opacity="1" stroke-width="3.2"/>
<circle clip-path="url(#clip972)" cx="1240.45" cy="810.711" r="14.4" fill="#009af9" fill-rule="evenodd" fill-opacity="1" stroke="#000000" stroke-opacity="1" stroke-width="3.2"/>
<circle clip-path="url(#clip972)" cx="903.509" cy="1014.66" r="14.4" fill="#009af9" fill-rule="evenodd" fill-opacity="1" stroke="#000000" stroke-opacity="1" stroke-width="3.2"/>
<circle clip-path="url(#clip972)" cx="1277.66" cy="782.658" r="14.4" fill="#009af9" fill-rule="evenodd" fill-opacity="1" stroke="#000000" stroke-opacity="1" stroke-width="3.2"/>
<circle clip-path="url(#clip972)" cx="1265.24" cy="804.347" r="14.4" fill="#009af9" fill-rule="evenodd" fill-opacity="1" stroke="#000000" stroke-opacity="1" stroke-width="3.2"/>
<circle clip-path="url(#clip972)" cx="1746.65" cy="487.073" r="14.4" fill="#009af9" fill-rule="evenodd" fill-opacity="1" stroke="#000000" stroke-opacity="1" stroke-width="3.2"/>
<circle clip-path="url(#clip972)" cx="853.838" cy="1049.92" r="14.4" fill="#009af9" fill-rule="evenodd" fill-opacity="1" stroke="#000000" stroke-opacity="1" stroke-width="3.2"/>
<circle clip-path="url(#clip972)" cx="578.066" cy="1232.86" r="14.4" fill="#009af9" fill-rule="evenodd" fill-opacity="1" stroke="#000000" stroke-opacity="1" stroke-width="3.2"/>
<circle clip-path="url(#clip972)" cx="1751.03" cy="490.461" r="14.4" fill="#009af9" fill-rule="evenodd" fill-opacity="1" stroke="#000000" stroke-opacity="1" stroke-width="3.2"/>
<circle clip-path="url(#clip972)" cx="924.123" cy="1016.31" r="14.4" fill="#009af9" fill-rule="evenodd" fill-opacity="1" stroke="#000000" stroke-opacity="1" stroke-width="3.2"/>
<circle clip-path="url(#clip972)" cx="1236.06" cy="800.545" r="14.4" fill="#009af9" fill-rule="evenodd" fill-opacity="1" stroke="#000000" stroke-opacity="1" stroke-width="3.2"/>
<circle clip-path="url(#clip972)" cx="1491.22" cy="648.078" r="14.4" fill="#009af9" fill-rule="evenodd" fill-opacity="1" stroke="#000000" stroke-opacity="1" stroke-width="3.2"/>
<circle clip-path="url(#clip972)" cx="1299.24" cy="765.183" r="14.4" fill="#009af9" fill-rule="evenodd" fill-opacity="1" stroke="#000000" stroke-opacity="1" stroke-width="3.2"/>
<circle clip-path="url(#clip972)" cx="1173.88" cy="856.093" r="14.4" fill="#009af9" fill-rule="evenodd" fill-opacity="1" stroke="#000000" stroke-opacity="1" stroke-width="3.2"/>
<circle clip-path="url(#clip972)" cx="1172.38" cy="847.69" r="14.4" fill="#009af9" fill-rule="evenodd" fill-opacity="1" stroke="#000000" stroke-opacity="1" stroke-width="3.2"/>
<circle clip-path="url(#clip972)" cx="697.476" cy="1161.79" r="14.4" fill="#009af9" fill-rule="evenodd" fill-opacity="1" stroke="#000000" stroke-opacity="1" stroke-width="3.2"/>
<circle clip-path="url(#clip972)" cx="1692.53" cy="517.049" r="14.4" fill="#009af9" fill-rule="evenodd" fill-opacity="1" stroke="#000000" stroke-opacity="1" stroke-width="3.2"/>
<circle clip-path="url(#clip972)" cx="1850.63" cy="392.179" r="14.4" fill="#009af9" fill-rule="evenodd" fill-opacity="1" stroke="#000000" stroke-opacity="1" stroke-width="3.2"/>
<circle clip-path="url(#clip972)" cx="1083.01" cy="925.681" r="14.4" fill="#009af9" fill-rule="evenodd" fill-opacity="1" stroke="#000000" stroke-opacity="1" stroke-width="3.2"/>
<circle clip-path="url(#clip972)" cx="959.784" cy="981.742" r="14.4" fill="#009af9" fill-rule="evenodd" fill-opacity="1" stroke="#000000" stroke-opacity="1" stroke-width="3.2"/>
<circle clip-path="url(#clip972)" cx="1478.82" cy="650.492" r="14.4" fill="#009af9" fill-rule="evenodd" fill-opacity="1" stroke="#000000" stroke-opacity="1" stroke-width="3.2"/>
<circle clip-path="url(#clip972)" cx="952.299" cy="993.727" r="14.4" fill="#009af9" fill-rule="evenodd" fill-opacity="1" stroke="#000000" stroke-opacity="1" stroke-width="3.2"/>
<circle clip-path="url(#clip972)" cx="1402.02" cy="718.76" r="14.4" fill="#009af9" fill-rule="evenodd" fill-opacity="1" stroke="#000000" stroke-opacity="1" stroke-width="3.2"/>
<circle clip-path="url(#clip972)" cx="1065.12" cy="925.07" r="14.4" fill="#009af9" fill-rule="evenodd" fill-opacity="1" stroke="#000000" stroke-opacity="1" stroke-width="3.2"/>
<circle clip-path="url(#clip972)" cx="1772.83" cy="447.427" r="14.4" fill="#009af9" fill-rule="evenodd" fill-opacity="1" stroke="#000000" stroke-opacity="1" stroke-width="3.2"/>
<circle clip-path="url(#clip972)" cx="787.418" cy="1095.94" r="14.4" fill="#009af9" fill-rule="evenodd" fill-opacity="1" stroke="#000000" stroke-opacity="1" stroke-width="3.2"/>
<circle clip-path="url(#clip972)" cx="1306.17" cy="776.121" r="14.4" fill="#009af9" fill-rule="evenodd" fill-opacity="1" stroke="#000000" stroke-opacity="1" stroke-width="3.2"/>
<path clip-path="url(#clip970)" d="M282.146 270.476 L589.472 270.476 L589.472 166.796 L282.146 166.796  Z" fill="#ffffff" fill-rule="evenodd" fill-opacity="1"/>
<polyline clip-path="url(#clip970)" style="stroke:#000000; stroke-linecap:round; stroke-linejoin:round; stroke-width:4; stroke-opacity:1; fill:none" points="282.146,270.476 589.472,270.476 589.472,166.796 282.146,166.796 282.146,270.476 "/>
<circle clip-path="url(#clip970)" cx="377.347" cy="218.636" r="20.48" fill="#009af9" fill-rule="evenodd" fill-opacity="1" stroke="#000000" stroke-opacity="1" stroke-width="4.55111"/>
<path clip-path="url(#clip970)" d="M472.547 201.356 L479.515 201.356 L488.334 224.874 L497.2 201.356 L504.167 201.356 L504.167 235.916 L499.607 235.916 L499.607 205.569 L490.695 229.272 L485.996 229.272 L477.084 205.569 L477.084 235.916 L472.547 235.916 L472.547 201.356 Z" fill="#000000" fill-rule="nonzero" fill-opacity="1" /><path clip-path="url(#clip970)" d="M513.45 201.356 L518.126 201.356 L518.126 215.962 L533.635 201.356 L539.653 201.356 L522.501 217.467 L540.88 235.916 L534.723 235.916 L518.126 219.272 L518.126 235.916 L513.45 235.916 L513.45 201.356 Z" fill="#000000" fill-rule="nonzero" fill-opacity="1" /><path clip-path="url(#clip970)" d="M545.764 231.981 L553.403 231.981 L553.403 205.615 L545.093 207.282 L545.093 203.022 L553.357 201.356 L558.033 201.356 L558.033 231.981 L565.672 231.981 L565.672 235.916 L545.764 235.916 L545.764 231.981 Z" fill="#000000" fill-rule="nonzero" fill-opacity="1" /></svg>
