<?xml version="1.0" encoding="utf-8"?>
<svg xmlns="http://www.w3.org/2000/svg" xmlns:xlink="http://www.w3.org/1999/xlink" width="600" height="400" viewBox="0 0 2400 1600">
<defs>
  <clipPath id="clip410">
    <rect x="0" y="0" width="2400" height="1600"/>
  </clipPath>
</defs>
<path clip-path="url(#clip410)" d="M0 1600 L2400 1600 L2400 0 L0 0  Z" fill="#ffffff" fill-rule="evenodd" fill-opacity="1"/>
<defs>
  <clipPath id="clip411">
    <rect x="242" y="123" width="2112" height="1301"/>
  </clipPath>
</defs>
<path clip-path="url(#clip410)" d="M204.218 1423.18 L2352.76 1423.18 L2352.76 123.472 L204.218 123.472  Z" fill="#ffffff" fill-rule="evenodd" fill-opacity="1"/>
<defs>
  <clipPath id="clip412">
    <rect x="204" y="123" width="2150" height="1301"/>
  </clipPath>
</defs>
<polyline clip-path="url(#clip412)" style="stroke:#000000; stroke-linecap:round; stroke-linejoin:round; stroke-width:2; stroke-opacity:0.1; fill:none" points="645.473,1423.18 645.473,123.472 "/>
<polyline clip-path="url(#clip412)" style="stroke:#000000; stroke-linecap:round; stroke-linejoin:round; stroke-width:2; stroke-opacity:0.1; fill:none" points="1194.48,1423.18 1194.48,123.472 "/>
<polyline clip-path="url(#clip412)" style="stroke:#000000; stroke-linecap:round; stroke-linejoin:round; stroke-width:2; stroke-opacity:0.1; fill:none" points="1743.49,1423.18 1743.49,123.472 "/>
<polyline clip-path="url(#clip412)" style="stroke:#000000; stroke-linecap:round; stroke-linejoin:round; stroke-width:2; stroke-opacity:0.1; fill:none" points="2292.5,1423.18 2292.5,123.472 "/>
<polyline clip-path="url(#clip412)" style="stroke:#000000; stroke-linecap:round; stroke-linejoin:round; stroke-width:2; stroke-opacity:0.1; fill:none" points="204.218,1299.53 2352.76,1299.53 "/>
<polyline clip-path="url(#clip412)" style="stroke:#000000; stroke-linecap:round; stroke-linejoin:round; stroke-width:2; stroke-opacity:0.1; fill:none" points="204.218,918.319 2352.76,918.319 "/>
<polyline clip-path="url(#clip412)" style="stroke:#000000; stroke-linecap:round; stroke-linejoin:round; stroke-width:2; stroke-opacity:0.1; fill:none" points="204.218,537.112 2352.76,537.112 "/>
<polyline clip-path="url(#clip412)" style="stroke:#000000; stroke-linecap:round; stroke-linejoin:round; stroke-width:2; stroke-opacity:0.1; fill:none" points="204.218,155.904 2352.76,155.904 "/>
<polyline clip-path="url(#clip410)" style="stroke:#000000; stroke-linecap:round; stroke-linejoin:round; stroke-width:4; stroke-opacity:1; fill:none" points="204.218,1423.18 2352.76,1423.18 "/>
<polyline clip-path="url(#clip410)" style="stroke:#000000; stroke-linecap:round; stroke-linejoin:round; stroke-width:4; stroke-opacity:1; fill:none" points="645.473,1423.18 645.473,1404.28 "/>
<polyline clip-path="url(#clip410)" style="stroke:#000000; stroke-linecap:round; stroke-linejoin:round; stroke-width:4; stroke-opacity:1; fill:none" points="1194.48,1423.18 1194.48,1404.28 "/>
<polyline clip-path="url(#clip410)" style="stroke:#000000; stroke-linecap:round; stroke-linejoin:round; stroke-width:4; stroke-opacity:1; fill:none" points="1743.49,1423.18 1743.49,1404.28 "/>
<polyline clip-path="url(#clip410)" style="stroke:#000000; stroke-linecap:round; stroke-linejoin:round; stroke-width:4; stroke-opacity:1; fill:none" points="2292.5,1423.18 2292.5,1404.28 "/>
<path clip-path="url(#clip410)" d="M598.043 1481.64 L605.682 1481.64 L605.682 1455.28 L597.372 1456.95 L597.372 1452.69 L605.635 1451.02 L610.311 1451.02 L610.311 1481.64 L617.95 1481.64 L617.95 1485.58 L598.043 1485.58 L598.043 1481.64 Z" fill="#000000" fill-rule="nonzero" fill-opacity="1" /><path clip-path="url(#clip410)" d="M627.394 1479.7 L632.279 1479.7 L632.279 1485.58 L627.394 1485.58 L627.394 1479.7 Z" fill="#000000" fill-rule="nonzero" fill-opacity="1" /><path clip-path="url(#clip410)" d="M641.283 1451.02 L663.505 1451.02 L663.505 1453.01 L650.959 1485.58 L646.075 1485.58 L657.88 1454.96 L641.283 1454.96 L641.283 1451.02 Z" fill="#000000" fill-rule="nonzero" fill-opacity="1" /><path clip-path="url(#clip410)" d="M672.672 1451.02 L691.028 1451.02 L691.028 1454.96 L676.954 1454.96 L676.954 1463.43 Q677.973 1463.08 678.991 1462.92 Q680.01 1462.73 681.028 1462.73 Q686.815 1462.73 690.195 1465.9 Q693.575 1469.08 693.575 1474.49 Q693.575 1480.07 690.102 1483.17 Q686.63 1486.25 680.311 1486.25 Q678.135 1486.25 675.866 1485.88 Q673.621 1485.51 671.214 1484.77 L671.214 1480.07 Q673.297 1481.2 675.519 1481.76 Q677.741 1482.32 680.218 1482.32 Q684.223 1482.32 686.561 1480.21 Q688.899 1478.1 688.899 1474.49 Q688.899 1470.88 686.561 1468.77 Q684.223 1466.67 680.218 1466.67 Q678.343 1466.67 676.468 1467.08 Q674.616 1467.5 672.672 1468.38 L672.672 1451.02 Z" fill="#000000" fill-rule="nonzero" fill-opacity="1" /><path clip-path="url(#clip410)" d="M1146.55 1481.64 L1154.19 1481.64 L1154.19 1455.28 L1145.88 1456.95 L1145.88 1452.69 L1154.15 1451.02 L1158.82 1451.02 L1158.82 1481.64 L1166.46 1481.64 L1166.46 1485.58 L1146.55 1485.58 L1146.55 1481.64 Z" fill="#000000" fill-rule="nonzero" fill-opacity="1" /><path clip-path="url(#clip410)" d="M1175.91 1479.7 L1180.79 1479.7 L1180.79 1485.58 L1175.91 1485.58 L1175.91 1479.7 Z" fill="#000000" fill-rule="nonzero" fill-opacity="1" /><path clip-path="url(#clip410)" d="M1200.97 1469.17 Q1197.64 1469.17 1195.72 1470.95 Q1193.82 1472.73 1193.82 1475.86 Q1193.82 1478.98 1195.72 1480.77 Q1197.64 1482.55 1200.97 1482.55 Q1204.31 1482.55 1206.23 1480.77 Q1208.15 1478.96 1208.15 1475.86 Q1208.15 1472.73 1206.23 1470.95 Q1204.33 1469.17 1200.97 1469.17 M1196.3 1467.18 Q1193.29 1466.44 1191.6 1464.38 Q1189.93 1462.32 1189.93 1459.35 Q1189.93 1455.21 1192.87 1452.8 Q1195.84 1450.39 1200.97 1450.39 Q1206.14 1450.39 1209.08 1452.8 Q1212.02 1455.21 1212.02 1459.35 Q1212.02 1462.32 1210.33 1464.38 Q1208.66 1466.44 1205.67 1467.18 Q1209.05 1467.96 1210.93 1470.26 Q1212.83 1472.55 1212.83 1475.86 Q1212.83 1480.88 1209.75 1483.57 Q1206.69 1486.25 1200.97 1486.25 Q1195.26 1486.25 1192.18 1483.57 Q1189.12 1480.88 1189.12 1475.86 Q1189.12 1472.55 1191.02 1470.26 Q1192.92 1467.96 1196.3 1467.18 M1194.59 1459.79 Q1194.59 1462.48 1196.25 1463.98 Q1197.94 1465.49 1200.97 1465.49 Q1203.98 1465.49 1205.67 1463.98 Q1207.39 1462.48 1207.39 1459.79 Q1207.39 1457.11 1205.67 1455.6 Q1203.98 1454.1 1200.97 1454.1 Q1197.94 1454.1 1196.25 1455.6 Q1194.59 1457.11 1194.59 1459.79 Z" fill="#000000" fill-rule="nonzero" fill-opacity="1" /><path clip-path="url(#clip410)" d="M1231.14 1454.1 Q1227.53 1454.1 1225.7 1457.66 Q1223.89 1461.2 1223.89 1468.33 Q1223.89 1475.44 1225.7 1479.01 Q1227.53 1482.55 1231.14 1482.55 Q1234.77 1482.55 1236.58 1479.01 Q1238.41 1475.44 1238.41 1468.33 Q1238.41 1461.2 1236.58 1457.66 Q1234.77 1454.1 1231.14 1454.1 M1231.14 1450.39 Q1236.95 1450.39 1240 1455 Q1243.08 1459.58 1243.08 1468.33 Q1243.08 1477.06 1240 1481.67 Q1236.95 1486.25 1231.14 1486.25 Q1225.33 1486.25 1222.25 1481.67 Q1219.19 1477.06 1219.19 1468.33 Q1219.19 1459.58 1222.25 1455 Q1225.33 1450.39 1231.14 1450.39 Z" fill="#000000" fill-rule="nonzero" fill-opacity="1" /><path clip-path="url(#clip410)" d="M1696.06 1481.64 L1703.7 1481.64 L1703.7 1455.28 L1695.39 1456.95 L1695.39 1452.69 L1703.65 1451.02 L1708.33 1451.02 L1708.33 1481.64 L1715.97 1481.64 L1715.97 1485.58 L1696.06 1485.58 L1696.06 1481.64 Z" fill="#000000" fill-rule="nonzero" fill-opacity="1" /><path clip-path="url(#clip410)" d="M1725.41 1479.7 L1730.3 1479.7 L1730.3 1485.58 L1725.41 1485.58 L1725.41 1479.7 Z" fill="#000000" fill-rule="nonzero" fill-opacity="1" /><path clip-path="url(#clip410)" d="M1750.48 1469.17 Q1747.15 1469.17 1745.23 1470.95 Q1743.33 1472.73 1743.33 1475.86 Q1743.33 1478.98 1745.23 1480.77 Q1747.15 1482.55 1750.48 1482.55 Q1753.81 1482.55 1755.74 1480.77 Q1757.66 1478.96 1757.66 1475.86 Q1757.66 1472.73 1755.74 1470.95 Q1753.84 1469.17 1750.48 1469.17 M1745.81 1467.18 Q1742.8 1466.44 1741.11 1464.38 Q1739.44 1462.32 1739.44 1459.35 Q1739.44 1455.21 1742.38 1452.8 Q1745.34 1450.39 1750.48 1450.39 Q1755.64 1450.39 1758.58 1452.8 Q1761.52 1455.21 1761.52 1459.35 Q1761.52 1462.32 1759.83 1464.38 Q1758.17 1466.44 1755.18 1467.18 Q1758.56 1467.96 1760.43 1470.26 Q1762.33 1472.55 1762.33 1475.86 Q1762.33 1480.88 1759.25 1483.57 Q1756.2 1486.25 1750.48 1486.25 Q1744.76 1486.25 1741.68 1483.57 Q1738.63 1480.88 1738.63 1475.86 Q1738.63 1472.55 1740.53 1470.26 Q1742.43 1467.96 1745.81 1467.18 M1744.09 1459.79 Q1744.09 1462.48 1745.76 1463.98 Q1747.45 1465.49 1750.48 1465.49 Q1753.49 1465.49 1755.18 1463.98 Q1756.89 1462.48 1756.89 1459.79 Q1756.89 1457.11 1755.18 1455.6 Q1753.49 1454.1 1750.48 1454.1 Q1747.45 1454.1 1745.76 1455.6 Q1744.09 1457.11 1744.09 1459.79 Z" fill="#000000" fill-rule="nonzero" fill-opacity="1" /><path clip-path="url(#clip410)" d="M1770.69 1451.02 L1789.05 1451.02 L1789.05 1454.96 L1774.97 1454.96 L1774.97 1463.43 Q1775.99 1463.08 1777.01 1462.92 Q1778.03 1462.73 1779.05 1462.73 Q1784.83 1462.73 1788.21 1465.9 Q1791.59 1469.08 1791.59 1474.49 Q1791.59 1480.07 1788.12 1483.17 Q1784.65 1486.25 1778.33 1486.25 Q1776.15 1486.25 1773.88 1485.88 Q1771.64 1485.51 1769.23 1484.77 L1769.23 1480.07 Q1771.31 1481.2 1773.54 1481.76 Q1775.76 1482.32 1778.24 1482.32 Q1782.24 1482.32 1784.58 1480.21 Q1786.92 1478.1 1786.92 1474.49 Q1786.92 1470.88 1784.58 1468.77 Q1782.24 1466.67 1778.24 1466.67 Q1776.36 1466.67 1774.49 1467.08 Q1772.63 1467.5 1770.69 1468.38 L1770.69 1451.02 Z" fill="#000000" fill-rule="nonzero" fill-opacity="1" /><path clip-path="url(#clip410)" d="M2244.57 1481.64 L2252.21 1481.64 L2252.21 1455.28 L2243.9 1456.95 L2243.9 1452.69 L2252.16 1451.02 L2256.84 1451.02 L2256.84 1481.64 L2264.48 1481.64 L2264.48 1485.58 L2244.57 1485.58 L2244.57 1481.64 Z" fill="#000000" fill-rule="nonzero" fill-opacity="1" /><path clip-path="url(#clip410)" d="M2273.92 1479.7 L2278.81 1479.7 L2278.81 1485.58 L2273.92 1485.58 L2273.92 1479.7 Z" fill="#000000" fill-rule="nonzero" fill-opacity="1" /><path clip-path="url(#clip410)" d="M2289.13 1484.86 L2289.13 1480.6 Q2290.89 1481.44 2292.7 1481.88 Q2294.5 1482.32 2296.24 1482.32 Q2300.87 1482.32 2303.3 1479.21 Q2305.75 1476.09 2306.1 1469.75 Q2304.76 1471.74 2302.7 1472.8 Q2300.64 1473.87 2298.14 1473.87 Q2292.95 1473.87 2289.92 1470.74 Q2286.91 1467.59 2286.91 1462.15 Q2286.91 1456.83 2290.06 1453.61 Q2293.21 1450.39 2298.44 1450.39 Q2304.43 1450.39 2307.58 1455 Q2310.75 1459.58 2310.75 1468.33 Q2310.75 1476.51 2306.86 1481.39 Q2303 1486.25 2296.45 1486.25 Q2294.69 1486.25 2292.88 1485.9 Q2291.08 1485.56 2289.13 1484.86 M2298.44 1470.21 Q2301.58 1470.21 2303.41 1468.06 Q2305.27 1465.9 2305.27 1462.15 Q2305.27 1458.43 2303.41 1456.27 Q2301.58 1454.1 2298.44 1454.1 Q2295.29 1454.1 2293.44 1456.27 Q2291.61 1458.43 2291.61 1462.15 Q2291.61 1465.9 2293.44 1468.06 Q2295.29 1470.21 2298.44 1470.21 Z" fill="#000000" fill-rule="nonzero" fill-opacity="1" /><path clip-path="url(#clip410)" d="M2329.15 1454.1 Q2325.54 1454.1 2323.71 1457.66 Q2321.91 1461.2 2321.91 1468.33 Q2321.91 1475.44 2323.71 1479.01 Q2325.54 1482.55 2329.15 1482.55 Q2332.79 1482.55 2334.59 1479.01 Q2336.42 1475.44 2336.42 1468.33 Q2336.42 1461.2 2334.59 1457.66 Q2332.79 1454.1 2329.15 1454.1 M2329.15 1450.39 Q2334.96 1450.39 2338.02 1455 Q2341.1 1459.58 2341.1 1468.33 Q2341.1 1477.06 2338.02 1481.67 Q2334.96 1486.25 2329.15 1486.25 Q2323.34 1486.25 2320.27 1481.67 Q2317.21 1477.06 2317.21 1468.33 Q2317.21 1459.58 2320.27 1455 Q2323.34 1450.39 2329.15 1450.39 Z" fill="#000000" fill-rule="nonzero" fill-opacity="1" /><path clip-path="url(#clip410)" d="M1054.26 1520.52 L1060.68 1520.52 L1060.68 1562.63 L1083.82 1562.63 L1083.82 1568.04 L1054.26 1568.04 L1054.26 1520.52 Z" fill="#000000" fill-rule="nonzero" fill-opacity="1" /><path clip-path="url(#clip410)" d="M1119.66 1548.76 L1119.66 1551.62 L1092.74 1551.62 Q1093.12 1557.67 1096.36 1560.85 Q1099.64 1564 1105.47 1564 Q1108.84 1564 1111.99 1563.17 Q1115.17 1562.35 1118.29 1560.69 L1118.29 1566.23 Q1115.14 1567.57 1111.83 1568.27 Q1108.52 1568.97 1105.12 1568.97 Q1096.59 1568.97 1091.59 1564 Q1086.62 1559.04 1086.62 1550.57 Q1086.62 1541.82 1091.34 1536.69 Q1096.08 1531.54 1104.1 1531.54 Q1111.29 1531.54 1115.46 1536.18 Q1119.66 1540.8 1119.66 1548.76 M1113.81 1547.04 Q1113.74 1542.23 1111.1 1539.37 Q1108.49 1536.5 1104.16 1536.5 Q1099.26 1536.5 1096.3 1539.27 Q1093.37 1542.04 1092.93 1547.07 L1113.81 1547.04 Z" fill="#000000" fill-rule="nonzero" fill-opacity="1" /><path clip-path="url(#clip410)" d="M1145.48 1550.12 Q1138.38 1550.12 1135.64 1551.75 Q1132.9 1553.37 1132.9 1557.29 Q1132.9 1560.4 1134.94 1562.25 Q1137.01 1564.07 1140.54 1564.07 Q1145.41 1564.07 1148.34 1560.63 Q1151.3 1557.16 1151.3 1551.43 L1151.3 1550.12 L1145.48 1550.12 M1157.16 1547.71 L1157.16 1568.04 L1151.3 1568.04 L1151.3 1562.63 Q1149.3 1565.88 1146.3 1567.44 Q1143.31 1568.97 1138.98 1568.97 Q1133.51 1568.97 1130.26 1565.91 Q1127.05 1562.82 1127.05 1557.67 Q1127.05 1551.65 1131.06 1548.6 Q1135.1 1545.54 1143.09 1545.54 L1151.3 1545.54 L1151.3 1544.97 Q1151.3 1540.93 1148.63 1538.73 Q1145.98 1536.5 1141.18 1536.5 Q1138.12 1536.5 1135.23 1537.23 Q1132.33 1537.97 1129.66 1539.43 L1129.66 1534.02 Q1132.87 1532.78 1135.9 1532.17 Q1138.92 1531.54 1141.78 1531.54 Q1149.52 1531.54 1153.34 1535.55 Q1157.16 1539.56 1157.16 1547.71 Z" fill="#000000" fill-rule="nonzero" fill-opacity="1" /><path clip-path="url(#clip410)" d="M1192.68 1537.81 L1192.68 1518.52 L1198.53 1518.52 L1198.53 1568.04 L1192.68 1568.04 L1192.68 1562.7 Q1190.83 1565.88 1188 1567.44 Q1185.2 1568.97 1181.25 1568.97 Q1174.79 1568.97 1170.72 1563.81 Q1166.67 1558.65 1166.67 1550.25 Q1166.67 1541.85 1170.72 1536.69 Q1174.79 1531.54 1181.25 1531.54 Q1185.2 1531.54 1188 1533.1 Q1190.83 1534.62 1192.68 1537.81 M1172.72 1550.25 Q1172.72 1556.71 1175.36 1560.4 Q1178.04 1564.07 1182.68 1564.07 Q1187.33 1564.07 1190 1560.4 Q1192.68 1556.71 1192.68 1550.25 Q1192.68 1543.79 1190 1540.13 Q1187.33 1536.44 1182.68 1536.44 Q1178.04 1536.44 1175.36 1540.13 Q1172.72 1543.79 1172.72 1550.25 Z" fill="#000000" fill-rule="nonzero" fill-opacity="1" /><path clip-path="url(#clip410)" d="M1241.09 1548.76 L1241.09 1551.62 L1214.16 1551.62 Q1214.54 1557.67 1217.79 1560.85 Q1221.07 1564 1226.89 1564 Q1230.27 1564 1233.42 1563.17 Q1236.6 1562.35 1239.72 1560.69 L1239.72 1566.23 Q1236.57 1567.57 1233.26 1568.27 Q1229.95 1568.97 1226.54 1568.97 Q1218.01 1568.97 1213.02 1564 Q1208.05 1559.04 1208.05 1550.57 Q1208.05 1541.82 1212.76 1536.69 Q1217.5 1531.54 1225.52 1531.54 Q1232.72 1531.54 1236.89 1536.18 Q1241.09 1540.8 1241.09 1548.76 M1235.23 1547.04 Q1235.17 1542.23 1232.53 1539.37 Q1229.92 1536.5 1225.59 1536.5 Q1220.69 1536.5 1217.73 1539.27 Q1214.8 1542.04 1214.35 1547.07 L1235.23 1547.04 Z" fill="#000000" fill-rule="nonzero" fill-opacity="1" /><path clip-path="url(#clip410)" d="M1271.36 1537.87 Q1270.37 1537.3 1269.19 1537.04 Q1268.05 1536.76 1266.65 1536.76 Q1261.68 1536.76 1259.01 1540 Q1256.37 1543.22 1256.37 1549.27 L1256.37 1568.04 L1250.48 1568.04 L1250.48 1532.4 L1256.37 1532.4 L1256.37 1537.93 Q1258.21 1534.69 1261.17 1533.13 Q1264.13 1531.54 1268.37 1531.54 Q1268.97 1531.54 1269.7 1531.63 Q1270.43 1531.7 1271.33 1531.85 L1271.36 1537.87 Z" fill="#000000" fill-rule="nonzero" fill-opacity="1" /><path clip-path="url(#clip410)" d="M1283.04 1520.52 L1283.04 1538.19 L1277.63 1538.19 L1277.63 1520.52 L1283.04 1520.52 Z" fill="#000000" fill-rule="nonzero" fill-opacity="1" /><path clip-path="url(#clip410)" d="M1318.15 1533.45 L1318.15 1538.98 Q1315.66 1537.71 1312.99 1537.07 Q1310.32 1536.44 1307.45 1536.44 Q1303.09 1536.44 1300.89 1537.77 Q1298.73 1539.11 1298.73 1541.79 Q1298.73 1543.82 1300.29 1545 Q1301.85 1546.15 1306.56 1547.2 L1308.57 1547.64 Q1314.8 1548.98 1317.41 1551.43 Q1320.06 1553.85 1320.06 1558.21 Q1320.06 1563.17 1316.11 1566.07 Q1312.19 1568.97 1305.32 1568.97 Q1302.45 1568.97 1299.33 1568.39 Q1296.25 1567.85 1292.81 1566.74 L1292.81 1560.69 Q1296.06 1562.38 1299.21 1563.24 Q1302.36 1564.07 1305.45 1564.07 Q1309.58 1564.07 1311.81 1562.66 Q1314.04 1561.23 1314.04 1558.65 Q1314.04 1556.27 1312.42 1554.99 Q1310.82 1553.72 1305.38 1552.54 L1303.35 1552.07 Q1297.9 1550.92 1295.48 1548.56 Q1293.06 1546.18 1293.06 1542.04 Q1293.06 1537.01 1296.63 1534.27 Q1300.19 1531.54 1306.75 1531.54 Q1310 1531.54 1312.86 1532.01 Q1315.73 1532.49 1318.15 1533.45 Z" fill="#000000" fill-rule="nonzero" fill-opacity="1" /><path clip-path="url(#clip410)" d="M1355.77 1562.7 L1355.77 1581.6 L1349.88 1581.6 L1349.88 1532.4 L1355.77 1532.4 L1355.77 1537.81 Q1357.61 1534.62 1360.41 1533.1 Q1363.25 1531.54 1367.16 1531.54 Q1373.65 1531.54 1377.7 1536.69 Q1381.77 1541.85 1381.77 1550.25 Q1381.77 1558.65 1377.7 1563.81 Q1373.65 1568.97 1367.16 1568.97 Q1363.25 1568.97 1360.41 1567.44 Q1357.61 1565.88 1355.77 1562.7 M1375.69 1550.25 Q1375.69 1543.79 1373.02 1540.13 Q1370.38 1536.44 1365.73 1536.44 Q1361.08 1536.44 1358.41 1540.13 Q1355.77 1543.79 1355.77 1550.25 Q1355.77 1556.71 1358.41 1560.4 Q1361.08 1564.07 1365.73 1564.07 Q1370.38 1564.07 1373.02 1560.4 Q1375.69 1556.71 1375.69 1550.25 Z" fill="#000000" fill-rule="nonzero" fill-opacity="1" /><path clip-path="url(#clip410)" d="M1412.14 1537.87 Q1411.15 1537.3 1409.97 1537.04 Q1408.82 1536.76 1407.42 1536.76 Q1402.46 1536.76 1399.79 1540 Q1397.14 1543.22 1397.14 1549.27 L1397.14 1568.04 L1391.26 1568.04 L1391.26 1532.4 L1397.14 1532.4 L1397.14 1537.93 Q1398.99 1534.69 1401.95 1533.13 Q1404.91 1531.54 1409.14 1531.54 Q1409.75 1531.54 1410.48 1531.63 Q1411.21 1531.7 1412.1 1531.85 L1412.14 1537.87 Z" fill="#000000" fill-rule="nonzero" fill-opacity="1" /><path clip-path="url(#clip410)" d="M1418.28 1532.4 L1424.13 1532.4 L1424.13 1568.04 L1418.28 1568.04 L1418.28 1532.4 M1418.28 1518.52 L1424.13 1518.52 L1424.13 1525.93 L1418.28 1525.93 L1418.28 1518.52 Z" fill="#000000" fill-rule="nonzero" fill-opacity="1" /><path clip-path="url(#clip410)" d="M1462.04 1533.76 L1462.04 1539.24 Q1459.56 1537.87 1457.05 1537.2 Q1454.56 1536.5 1452.02 1536.5 Q1446.32 1536.5 1443.17 1540.13 Q1440.02 1543.73 1440.02 1550.25 Q1440.02 1556.78 1443.17 1560.4 Q1446.32 1564 1452.02 1564 Q1454.56 1564 1457.05 1563.33 Q1459.56 1562.63 1462.04 1561.26 L1462.04 1566.68 Q1459.59 1567.82 1456.95 1568.39 Q1454.34 1568.97 1451.38 1568.97 Q1443.33 1568.97 1438.58 1563.91 Q1433.84 1558.85 1433.84 1550.25 Q1433.84 1541.53 1438.62 1536.53 Q1443.42 1531.54 1451.76 1531.54 Q1454.47 1531.54 1457.05 1532.11 Q1459.62 1532.65 1462.04 1533.76 Z" fill="#000000" fill-rule="nonzero" fill-opacity="1" /><path clip-path="url(#clip410)" d="M1502.72 1548.76 L1502.72 1551.62 L1475.79 1551.62 Q1476.17 1557.67 1479.42 1560.85 Q1482.7 1564 1488.52 1564 Q1491.9 1564 1495.05 1563.17 Q1498.23 1562.35 1501.35 1560.69 L1501.35 1566.23 Q1498.2 1567.57 1494.89 1568.27 Q1491.58 1568.97 1488.17 1568.97 Q1479.64 1568.97 1474.65 1564 Q1469.68 1559.04 1469.68 1550.57 Q1469.68 1541.82 1474.39 1536.69 Q1479.13 1531.54 1487.15 1531.54 Q1494.35 1531.54 1498.52 1536.18 Q1502.72 1540.8 1502.72 1548.76 M1496.86 1547.04 Q1496.8 1542.23 1494.16 1539.37 Q1491.55 1536.5 1487.22 1536.5 Q1482.32 1536.5 1479.36 1539.27 Q1476.43 1542.04 1475.98 1547.07 L1496.86 1547.04 Z" fill="#000000" fill-rule="nonzero" fill-opacity="1" /><polyline clip-path="url(#clip410)" style="stroke:#000000; stroke-linecap:round; stroke-linejoin:round; stroke-width:4; stroke-opacity:1; fill:none" points="204.218,1423.18 204.218,123.472 "/>
<polyline clip-path="url(#clip410)" style="stroke:#000000; stroke-linecap:round; stroke-linejoin:round; stroke-width:4; stroke-opacity:1; fill:none" points="204.218,1299.53 223.116,1299.53 "/>
<polyline clip-path="url(#clip410)" style="stroke:#000000; stroke-linecap:round; stroke-linejoin:round; stroke-width:4; stroke-opacity:1; fill:none" points="204.218,918.319 223.116,918.319 "/>
<polyline clip-path="url(#clip410)" style="stroke:#000000; stroke-linecap:round; stroke-linejoin:round; stroke-width:4; stroke-opacity:1; fill:none" points="204.218,537.112 223.116,537.112 "/>
<polyline clip-path="url(#clip410)" style="stroke:#000000; stroke-linecap:round; stroke-linejoin:round; stroke-width:4; stroke-opacity:1; fill:none" points="204.218,155.904 223.116,155.904 "/>
<path clip-path="url(#clip410)" d="M114.931 1282.25 L137.154 1282.25 L137.154 1284.24 L124.607 1316.81 L119.723 1316.81 L131.529 1286.18 L114.931 1286.18 L114.931 1282.25 Z" fill="#000000" fill-rule="nonzero" fill-opacity="1" /><path clip-path="url(#clip410)" d="M156.274 1285.33 Q152.663 1285.33 150.834 1288.89 Q149.028 1292.43 149.028 1299.56 Q149.028 1306.67 150.834 1310.23 Q152.663 1313.77 156.274 1313.77 Q159.908 1313.77 161.714 1310.23 Q163.542 1306.67 163.542 1299.56 Q163.542 1292.43 161.714 1288.89 Q159.908 1285.33 156.274 1285.33 M156.274 1281.62 Q162.084 1281.62 165.14 1286.23 Q168.218 1290.81 168.218 1299.56 Q168.218 1308.29 165.14 1312.89 Q162.084 1317.48 156.274 1317.48 Q150.464 1317.48 147.385 1312.89 Q144.329 1308.29 144.329 1299.56 Q144.329 1290.81 147.385 1286.23 Q150.464 1281.62 156.274 1281.62 Z" fill="#000000" fill-rule="nonzero" fill-opacity="1" /><path clip-path="url(#clip410)" d="M115.927 901.039 L138.149 901.039 L138.149 903.03 L125.603 935.599 L120.718 935.599 L132.524 904.974 L115.927 904.974 L115.927 901.039 Z" fill="#000000" fill-rule="nonzero" fill-opacity="1" /><path clip-path="url(#clip410)" d="M147.316 901.039 L165.672 901.039 L165.672 904.974 L151.598 904.974 L151.598 913.447 Q152.616 913.099 153.635 912.937 Q154.653 912.752 155.672 912.752 Q161.459 912.752 164.839 915.923 Q168.218 919.095 168.218 924.511 Q168.218 930.09 164.746 933.192 Q161.274 936.271 154.954 936.271 Q152.778 936.271 150.51 935.9 Q148.265 935.53 145.857 934.789 L145.857 930.09 Q147.941 931.224 150.163 931.78 Q152.385 932.335 154.862 932.335 Q158.866 932.335 161.204 930.229 Q163.542 928.122 163.542 924.511 Q163.542 920.9 161.204 918.794 Q158.866 916.687 154.862 916.687 Q152.987 916.687 151.112 917.104 Q149.26 917.521 147.316 918.4 L147.316 901.039 Z" fill="#000000" fill-rule="nonzero" fill-opacity="1" /><path clip-path="url(#clip410)" d="M126.112 537.98 Q122.779 537.98 120.857 539.762 Q118.959 541.545 118.959 544.67 Q118.959 547.795 120.857 549.577 Q122.779 551.359 126.112 551.359 Q129.445 551.359 131.367 549.577 Q133.288 547.771 133.288 544.67 Q133.288 541.545 131.367 539.762 Q129.468 537.98 126.112 537.98 M121.436 535.989 Q118.427 535.248 116.737 533.188 Q115.07 531.128 115.07 528.165 Q115.07 524.022 118.01 521.614 Q120.973 519.207 126.112 519.207 Q131.274 519.207 134.214 521.614 Q137.154 524.022 137.154 528.165 Q137.154 531.128 135.464 533.188 Q133.797 535.248 130.811 535.989 Q134.191 536.776 136.066 539.068 Q137.964 541.359 137.964 544.67 Q137.964 549.693 134.885 552.378 Q131.83 555.063 126.112 555.063 Q120.394 555.063 117.316 552.378 Q114.26 549.693 114.26 544.67 Q114.26 541.359 116.158 539.068 Q118.056 536.776 121.436 535.989 M119.723 528.605 Q119.723 531.29 121.39 532.795 Q123.08 534.299 126.112 534.299 Q129.121 534.299 130.811 532.795 Q132.524 531.29 132.524 528.605 Q132.524 525.92 130.811 524.415 Q129.121 522.91 126.112 522.91 Q123.08 522.91 121.39 524.415 Q119.723 525.92 119.723 528.605 Z" fill="#000000" fill-rule="nonzero" fill-opacity="1" /><path clip-path="url(#clip410)" d="M156.274 522.91 Q152.663 522.91 150.834 526.475 Q149.028 530.017 149.028 537.147 Q149.028 544.253 150.834 547.818 Q152.663 551.359 156.274 551.359 Q159.908 551.359 161.714 547.818 Q163.542 544.253 163.542 537.147 Q163.542 530.017 161.714 526.475 Q159.908 522.91 156.274 522.91 M156.274 519.207 Q162.084 519.207 165.14 523.813 Q168.218 528.397 168.218 537.147 Q168.218 545.873 165.14 550.48 Q162.084 555.063 156.274 555.063 Q150.464 555.063 147.385 550.48 Q144.329 545.873 144.329 537.147 Q144.329 528.397 147.385 523.813 Q150.464 519.207 156.274 519.207 Z" fill="#000000" fill-rule="nonzero" fill-opacity="1" /><path clip-path="url(#clip410)" d="M127.107 156.772 Q123.774 156.772 121.853 158.555 Q119.955 160.337 119.955 163.462 Q119.955 166.587 121.853 168.369 Q123.774 170.152 127.107 170.152 Q130.441 170.152 132.362 168.369 Q134.283 166.564 134.283 163.462 Q134.283 160.337 132.362 158.555 Q130.464 156.772 127.107 156.772 M122.431 154.782 Q119.422 154.041 117.732 151.981 Q116.066 149.921 116.066 146.958 Q116.066 142.814 119.006 140.407 Q121.968 137.999 127.107 137.999 Q132.269 137.999 135.209 140.407 Q138.149 142.814 138.149 146.958 Q138.149 149.921 136.459 151.981 Q134.792 154.041 131.806 154.782 Q135.186 155.569 137.061 157.86 Q138.959 160.152 138.959 163.462 Q138.959 168.485 135.88 171.17 Q132.825 173.856 127.107 173.856 Q121.39 173.856 118.311 171.17 Q115.256 168.485 115.256 163.462 Q115.256 160.152 117.154 157.86 Q119.052 155.569 122.431 154.782 M120.718 147.397 Q120.718 150.083 122.385 151.587 Q124.075 153.092 127.107 153.092 Q130.117 153.092 131.806 151.587 Q133.519 150.083 133.519 147.397 Q133.519 144.712 131.806 143.208 Q130.117 141.703 127.107 141.703 Q124.075 141.703 122.385 143.208 Q120.718 144.712 120.718 147.397 Z" fill="#000000" fill-rule="nonzero" fill-opacity="1" /><path clip-path="url(#clip410)" d="M147.316 138.624 L165.672 138.624 L165.672 142.559 L151.598 142.559 L151.598 151.032 Q152.616 150.684 153.635 150.522 Q154.653 150.337 155.672 150.337 Q161.459 150.337 164.839 153.508 Q168.218 156.68 168.218 162.096 Q168.218 167.675 164.746 170.777 Q161.274 173.856 154.954 173.856 Q152.778 173.856 150.51 173.485 Q148.265 173.115 145.857 172.374 L145.857 167.675 Q147.941 168.809 150.163 169.365 Q152.385 169.92 154.862 169.92 Q158.866 169.92 161.204 167.814 Q163.542 165.707 163.542 162.096 Q163.542 158.485 161.204 156.379 Q158.866 154.272 154.862 154.272 Q152.987 154.272 151.112 154.689 Q149.26 155.106 147.316 155.985 L147.316 138.624 Z" fill="#000000" fill-rule="nonzero" fill-opacity="1" /><path clip-path="url(#clip410)" d="M21.7677 847.932 L39.6235 847.932 L39.6235 839.848 Q39.6235 835.36 37.3 832.909 Q34.9765 830.458 30.6797 830.458 Q26.4147 830.458 24.0912 832.909 Q21.7677 835.36 21.7677 839.848 L21.7677 847.932 M16.4842 854.361 L16.4842 839.848 Q16.4842 831.859 20.1126 827.785 Q23.7092 823.679 30.6797 823.679 Q37.7138 823.679 41.3104 827.785 Q44.907 831.859 44.907 839.848 L44.907 847.932 L64.0042 847.932 L64.0042 854.361 L16.4842 854.361 Z" fill="#000000" fill-rule="nonzero" fill-opacity="1" /><path clip-path="url(#clip410)" d="M33.8307 795.797 Q33.2578 796.784 33.0032 797.961 Q32.7167 799.107 32.7167 800.508 Q32.7167 805.473 35.9632 808.146 Q39.1779 810.788 45.2253 810.788 L64.0042 810.788 L64.0042 816.676 L28.3562 816.676 L28.3562 810.788 L33.8944 810.788 Q30.6479 808.942 29.0883 805.982 Q27.4968 803.022 27.4968 798.789 Q27.4968 798.184 27.5923 797.452 Q27.656 796.72 27.8151 795.829 L33.8307 795.797 Z" fill="#000000" fill-rule="nonzero" fill-opacity="1" /><path clip-path="url(#clip410)" d="M32.4621 777.273 Q32.4621 781.983 36.1542 784.721 Q39.8145 787.458 46.212 787.458 Q52.6095 787.458 56.3017 784.752 Q59.9619 782.015 59.9619 777.273 Q59.9619 772.594 56.2698 769.857 Q52.5777 767.119 46.212 767.119 Q39.8781 767.119 36.186 769.857 Q32.4621 772.594 32.4621 777.273 M27.4968 777.273 Q27.4968 769.634 32.4621 765.273 Q37.4273 760.913 46.212 760.913 Q54.9649 760.913 59.9619 765.273 Q64.9272 769.634 64.9272 777.273 Q64.9272 784.943 59.9619 789.304 Q54.9649 793.633 46.212 793.633 Q37.4273 793.633 32.4621 789.304 Q27.4968 784.943 27.4968 777.273 Z" fill="#000000" fill-rule="nonzero" fill-opacity="1" /><path clip-path="url(#clip410)" d="M14.479 733.158 L19.3487 733.158 L19.3487 738.76 Q19.3487 741.911 20.6219 743.153 Q21.895 744.362 25.2052 744.362 L28.3562 744.362 L28.3562 734.718 L32.9077 734.718 L32.9077 744.362 L64.0042 744.362 L64.0042 750.25 L32.9077 750.25 L32.9077 755.852 L28.3562 755.852 L28.3562 750.25 L25.8736 750.25 Q19.9216 750.25 17.2162 747.481 Q14.479 744.712 14.479 738.697 L14.479 733.158 Z" fill="#000000" fill-rule="nonzero" fill-opacity="1" /><path clip-path="url(#clip410)" d="M28.3562 728.257 L28.3562 722.4 L64.0042 722.4 L64.0042 728.257 L28.3562 728.257 M14.479 728.257 L14.479 722.4 L21.895 722.4 L21.895 728.257 L14.479 728.257 Z" fill="#000000" fill-rule="nonzero" fill-opacity="1" /><path clip-path="url(#clip410)" d="M18.2347 704.354 L28.3562 704.354 L28.3562 692.291 L32.9077 692.291 L32.9077 704.354 L52.2594 704.354 Q56.6199 704.354 57.8613 703.176 Q59.1026 701.966 59.1026 698.306 L59.1026 692.291 L64.0042 692.291 L64.0042 698.306 Q64.0042 705.086 61.4897 707.664 Q58.9434 710.242 52.2594 710.242 L32.9077 710.242 L32.9077 714.539 L28.3562 714.539 L28.3562 710.242 L18.2347 710.242 L18.2347 704.354 Z" fill="#000000" fill-rule="nonzero" fill-opacity="1" /><path clip-path="url(#clip410)" d="M400.636 16.7545 L400.636 25.383 Q396.504 21.5346 391.805 19.6307 Q387.146 17.7268 381.88 17.7268 Q371.51 17.7268 366.001 24.0867 Q360.491 30.4061 360.491 42.3968 Q360.491 54.3469 366.001 60.7069 Q371.51 67.0263 381.88 67.0263 Q387.146 67.0263 391.805 65.1223 Q396.504 63.2184 400.636 59.3701 L400.636 67.9175 Q396.342 70.8341 391.521 72.2924 Q386.741 73.7508 381.394 73.7508 Q367.661 73.7508 359.762 65.3654 Q351.863 56.9395 351.863 42.3968 Q351.863 27.8135 359.762 19.4281 Q367.661 11.0023 381.394 11.0023 Q386.822 11.0023 391.602 12.4606 Q396.423 13.8784 400.636 16.7545 Z" fill="#000000" fill-rule="nonzero" fill-opacity="1" /><path clip-path="url(#clip410)" d="M430.532 32.4315 Q424.536 32.4315 421.052 37.1306 Q417.569 41.7891 417.569 49.9314 Q417.569 58.0738 421.012 62.7728 Q424.496 67.4314 430.532 67.4314 Q436.486 67.4314 439.97 62.7323 Q443.454 58.0333 443.454 49.9314 Q443.454 41.8701 439.97 37.1711 Q436.486 32.4315 430.532 32.4315 M430.532 26.1121 Q440.254 26.1121 445.803 32.4315 Q451.353 38.7509 451.353 49.9314 Q451.353 61.0714 445.803 67.4314 Q440.254 73.7508 430.532 73.7508 Q420.769 73.7508 415.219 67.4314 Q409.71 61.0714 409.71 49.9314 Q409.71 38.7509 415.219 32.4315 Q420.769 26.1121 430.532 26.1121 Z" fill="#000000" fill-rule="nonzero" fill-opacity="1" /><path clip-path="url(#clip410)" d="M489.999 34.1734 Q488.743 33.4443 487.244 33.1202 Q485.786 32.7556 484.003 32.7556 Q477.684 32.7556 474.281 36.8875 Q470.919 40.9789 470.919 48.6757 L470.919 72.576 L463.425 72.576 L463.425 27.2059 L470.919 27.2059 L470.919 34.2544 Q473.269 30.1225 477.036 28.1376 Q480.803 26.1121 486.191 26.1121 Q486.961 26.1121 487.892 26.2337 Q488.824 26.3147 489.958 26.5172 L489.999 34.1734 Z" fill="#000000" fill-rule="nonzero" fill-opacity="1" /><path clip-path="url(#clip410)" d="M522.649 34.1734 Q521.393 33.4443 519.894 33.1202 Q518.436 32.7556 516.654 32.7556 Q510.334 32.7556 506.932 36.8875 Q503.569 40.9789 503.569 48.6757 L503.569 72.576 L496.075 72.576 L496.075 27.2059 L503.569 27.2059 L503.569 34.2544 Q505.919 30.1225 509.686 28.1376 Q513.454 26.1121 518.841 26.1121 Q519.611 26.1121 520.543 26.2337 Q521.474 26.3147 522.609 26.5172 L522.649 34.1734 Z" fill="#000000" fill-rule="nonzero" fill-opacity="1" /><path clip-path="url(#clip410)" d="M567.452 48.0275 L567.452 51.6733 L533.181 51.6733 Q533.668 59.3701 537.799 63.421 Q541.972 67.4314 549.385 67.4314 Q553.679 67.4314 557.689 66.3781 Q561.74 65.3249 565.71 63.2184 L565.71 70.267 Q561.7 71.9684 557.487 72.8596 Q553.274 73.7508 548.939 73.7508 Q538.083 73.7508 531.723 67.4314 Q525.404 61.1119 525.404 50.3365 Q525.404 39.1965 531.399 32.6746 Q537.435 26.1121 547.643 26.1121 Q556.798 26.1121 562.105 32.0264 Q567.452 37.9003 567.452 48.0275 M559.998 45.84 Q559.917 39.7232 556.555 36.0774 Q553.233 32.4315 547.724 32.4315 Q541.486 32.4315 537.718 35.9558 Q533.992 39.4801 533.424 45.8805 L559.998 45.84 Z" fill="#000000" fill-rule="nonzero" fill-opacity="1" /><path clip-path="url(#clip410)" d="M600.305 49.7694 Q591.271 49.7694 587.788 51.8354 Q584.304 53.9013 584.304 58.8839 Q584.304 62.8538 586.896 65.2034 Q589.53 67.5124 594.026 67.5124 Q600.224 67.5124 603.951 63.1374 Q607.718 58.7219 607.718 51.4303 L607.718 49.7694 L600.305 49.7694 M615.172 46.6907 L615.172 72.576 L607.718 72.576 L607.718 65.6895 Q605.166 69.8214 601.358 71.8063 Q597.55 73.7508 592.041 73.7508 Q585.074 73.7508 580.942 69.8619 Q576.85 65.9325 576.85 59.3701 Q576.85 51.7138 581.954 47.825 Q587.099 43.9361 597.267 43.9361 L607.718 43.9361 L607.718 43.2069 Q607.718 38.0623 604.315 35.2672 Q600.953 32.4315 594.836 32.4315 Q590.947 32.4315 587.261 33.3632 Q583.575 34.295 580.172 36.1584 L580.172 29.2718 Q584.263 27.692 588.112 26.9223 Q591.96 26.1121 595.606 26.1121 Q605.45 26.1121 610.311 31.2163 Q615.172 36.3204 615.172 46.6907 Z" fill="#000000" fill-rule="nonzero" fill-opacity="1" /><path clip-path="url(#clip410)" d="M630.525 9.54393 L637.978 9.54393 L637.978 72.576 L630.525 72.576 L630.525 9.54393 Z" fill="#000000" fill-rule="nonzero" fill-opacity="1" /><path clip-path="url(#clip410)" d="M660.947 14.324 L660.947 27.2059 L676.3 27.2059 L676.3 32.9987 L660.947 32.9987 L660.947 57.6282 Q660.947 63.1779 662.446 64.7578 Q663.985 66.3376 668.644 66.3376 L676.3 66.3376 L676.3 72.576 L668.644 72.576 Q660.015 72.576 656.734 69.3758 Q653.453 66.1351 653.453 57.6282 L653.453 32.9987 L647.984 32.9987 L647.984 27.2059 L653.453 27.2059 L653.453 14.324 L660.947 14.324 Z" fill="#000000" fill-rule="nonzero" fill-opacity="1" /><path clip-path="url(#clip410)" d="M686.103 27.2059 L693.557 27.2059 L693.557 72.576 L686.103 72.576 L686.103 27.2059 M686.103 9.54393 L693.557 9.54393 L693.557 18.9825 L686.103 18.9825 L686.103 9.54393 Z" fill="#000000" fill-rule="nonzero" fill-opacity="1" /><path clip-path="url(#clip410)" d="M726.734 32.4315 Q720.738 32.4315 717.255 37.1306 Q713.771 41.7891 713.771 49.9314 Q713.771 58.0738 717.214 62.7728 Q720.698 67.4314 726.734 67.4314 Q732.688 67.4314 736.172 62.7323 Q739.656 58.0333 739.656 49.9314 Q739.656 41.8701 736.172 37.1711 Q732.688 32.4315 726.734 32.4315 M726.734 26.1121 Q736.456 26.1121 742.006 32.4315 Q747.555 38.7509 747.555 49.9314 Q747.555 61.0714 742.006 67.4314 Q736.456 73.7508 726.734 73.7508 Q716.971 73.7508 711.421 67.4314 Q705.912 61.0714 705.912 49.9314 Q705.912 38.7509 711.421 32.4315 Q716.971 26.1121 726.734 26.1121 Z" fill="#000000" fill-rule="nonzero" fill-opacity="1" /><path clip-path="url(#clip410)" d="M797.624 45.1919 L797.624 72.576 L790.171 72.576 L790.171 45.4349 Q790.171 38.994 787.659 35.7938 Q785.148 32.5936 780.125 32.5936 Q774.089 32.5936 770.605 36.4419 Q767.121 40.2903 767.121 46.9338 L767.121 72.576 L759.627 72.576 L759.627 27.2059 L767.121 27.2059 L767.121 34.2544 Q769.795 30.163 773.4 28.1376 Q777.046 26.1121 781.785 26.1121 Q789.604 26.1121 793.614 30.9732 Q797.624 35.7938 797.624 45.1919 Z" fill="#000000" fill-rule="nonzero" fill-opacity="1" /><path clip-path="url(#clip410)" d="M871.432 49.9314 Q871.432 41.7081 868.029 37.0496 Q864.667 32.3505 858.753 32.3505 Q852.838 32.3505 849.436 37.0496 Q846.073 41.7081 846.073 49.9314 Q846.073 58.1548 849.436 62.8538 Q852.838 67.5124 858.753 67.5124 Q864.667 67.5124 868.029 62.8538 Q871.432 58.1548 871.432 49.9314 M846.073 34.0924 Q848.423 30.0415 851.988 28.0971 Q855.593 26.1121 860.576 26.1121 Q868.839 26.1121 873.984 32.6746 Q879.169 39.2371 879.169 49.9314 Q879.169 60.6258 873.984 67.1883 Q868.839 73.7508 860.576 73.7508 Q855.593 73.7508 851.988 71.8063 Q848.423 69.8214 846.073 65.7705 L846.073 72.576 L838.579 72.576 L838.579 9.54393 L846.073 9.54393 L846.073 34.0924 Z" fill="#000000" fill-rule="nonzero" fill-opacity="1" /><path clip-path="url(#clip410)" d="M930.332 48.0275 L930.332 51.6733 L896.061 51.6733 Q896.548 59.3701 900.679 63.421 Q904.852 67.4314 912.265 67.4314 Q916.559 67.4314 920.569 66.3781 Q924.62 65.3249 928.59 63.2184 L928.59 70.267 Q924.58 71.9684 920.367 72.8596 Q916.154 73.7508 911.819 73.7508 Q900.963 73.7508 894.603 67.4314 Q888.284 61.1119 888.284 50.3365 Q888.284 39.1965 894.279 32.6746 Q900.315 26.1121 910.523 26.1121 Q919.678 26.1121 924.985 32.0264 Q930.332 37.9003 930.332 48.0275 M922.878 45.84 Q922.797 39.7232 919.435 36.0774 Q916.113 32.4315 910.604 32.4315 Q904.366 32.4315 900.598 35.9558 Q896.872 39.4801 896.304 45.8805 L922.878 45.84 Z" fill="#000000" fill-rule="nonzero" fill-opacity="1" /><path clip-path="url(#clip410)" d="M949.938 14.324 L949.938 27.2059 L965.291 27.2059 L965.291 32.9987 L949.938 32.9987 L949.938 57.6282 Q949.938 63.1779 951.437 64.7578 Q952.977 66.3376 957.635 66.3376 L965.291 66.3376 L965.291 72.576 L957.635 72.576 Q949.007 72.576 945.726 69.3758 Q942.444 66.1351 942.444 57.6282 L942.444 32.9987 L936.976 32.9987 L936.976 27.2059 L942.444 27.2059 L942.444 14.324 L949.938 14.324 Z" fill="#000000" fill-rule="nonzero" fill-opacity="1" /><path clip-path="url(#clip410)" d="M970.76 27.2059 L978.214 27.2059 L987.531 62.6108 L996.807 27.2059 L1005.6 27.2059 L1014.91 62.6108 L1024.19 27.2059 L1031.65 27.2059 L1019.78 72.576 L1010.99 72.576 L1001.22 35.3887 L991.42 72.576 L982.629 72.576 L970.76 27.2059 Z" fill="#000000" fill-rule="nonzero" fill-opacity="1" /><path clip-path="url(#clip410)" d="M1081.75 48.0275 L1081.75 51.6733 L1047.48 51.6733 Q1047.97 59.3701 1052.1 63.421 Q1056.27 67.4314 1063.69 67.4314 Q1067.98 67.4314 1071.99 66.3781 Q1076.04 65.3249 1080.01 63.2184 L1080.01 70.267 Q1076 71.9684 1071.79 72.8596 Q1067.58 73.7508 1063.24 73.7508 Q1052.39 73.7508 1046.03 67.4314 Q1039.71 61.1119 1039.71 50.3365 Q1039.71 39.1965 1045.7 32.6746 Q1051.74 26.1121 1061.95 26.1121 Q1071.1 26.1121 1076.41 32.0264 Q1081.75 37.9003 1081.75 48.0275 M1074.3 45.84 Q1074.22 39.7232 1070.86 36.0774 Q1067.54 32.4315 1062.03 32.4315 Q1055.79 32.4315 1052.02 35.9558 Q1048.29 39.4801 1047.73 45.8805 L1074.3 45.84 Z" fill="#000000" fill-rule="nonzero" fill-opacity="1" /><path clip-path="url(#clip410)" d="M1132.8 48.0275 L1132.8 51.6733 L1098.53 51.6733 Q1099.01 59.3701 1103.14 63.421 Q1107.32 67.4314 1114.73 67.4314 Q1119.02 67.4314 1123.03 66.3781 Q1127.08 65.3249 1131.05 63.2184 L1131.05 70.267 Q1127.04 71.9684 1122.83 72.8596 Q1118.62 73.7508 1114.28 73.7508 Q1103.43 73.7508 1097.07 67.4314 Q1090.75 61.1119 1090.75 50.3365 Q1090.75 39.1965 1096.74 32.6746 Q1102.78 26.1121 1112.99 26.1121 Q1122.14 26.1121 1127.45 32.0264 Q1132.8 37.9003 1132.8 48.0275 M1125.34 45.84 Q1125.26 39.7232 1121.9 36.0774 Q1118.58 32.4315 1113.07 32.4315 Q1106.83 32.4315 1103.06 35.9558 Q1099.34 39.4801 1098.77 45.8805 L1125.34 45.84 Z" fill="#000000" fill-rule="nonzero" fill-opacity="1" /><path clip-path="url(#clip410)" d="M1182.74 45.1919 L1182.74 72.576 L1175.29 72.576 L1175.29 45.4349 Q1175.29 38.994 1172.78 35.7938 Q1170.27 32.5936 1165.24 32.5936 Q1159.21 32.5936 1155.72 36.4419 Q1152.24 40.2903 1152.24 46.9338 L1152.24 72.576 L1144.75 72.576 L1144.75 27.2059 L1152.24 27.2059 L1152.24 34.2544 Q1154.91 30.163 1158.52 28.1376 Q1162.17 26.1121 1166.9 26.1121 Q1174.72 26.1121 1178.73 30.9732 Q1182.74 35.7938 1182.74 45.1919 Z" fill="#000000" fill-rule="nonzero" fill-opacity="1" /><path clip-path="url(#clip410)" d="M1223.98 9.54393 L1231.44 9.54393 L1231.44 72.576 L1223.98 72.576 L1223.98 9.54393 Z" fill="#000000" fill-rule="nonzero" fill-opacity="1" /><path clip-path="url(#clip410)" d="M1285.84 48.0275 L1285.84 51.6733 L1251.57 51.6733 Q1252.05 59.3701 1256.19 63.421 Q1260.36 67.4314 1267.77 67.4314 Q1272.07 67.4314 1276.08 66.3781 Q1280.13 65.3249 1284.1 63.2184 L1284.1 70.267 Q1280.09 71.9684 1275.87 72.8596 Q1271.66 73.7508 1267.33 73.7508 Q1256.47 73.7508 1250.11 67.4314 Q1243.79 61.1119 1243.79 50.3365 Q1243.79 39.1965 1249.79 32.6746 Q1255.82 26.1121 1266.03 26.1121 Q1275.19 26.1121 1280.49 32.0264 Q1285.84 37.9003 1285.84 48.0275 M1278.39 45.84 Q1278.3 39.7232 1274.94 36.0774 Q1271.62 32.4315 1266.11 32.4315 Q1259.87 32.4315 1256.11 35.9558 Q1252.38 39.4801 1251.81 45.8805 L1278.39 45.84 Z" fill="#000000" fill-rule="nonzero" fill-opacity="1" /><path clip-path="url(#clip410)" d="M1318.69 49.7694 Q1309.66 49.7694 1306.17 51.8354 Q1302.69 53.9013 1302.69 58.8839 Q1302.69 62.8538 1305.28 65.2034 Q1307.92 67.5124 1312.41 67.5124 Q1318.61 67.5124 1322.34 63.1374 Q1326.11 58.7219 1326.11 51.4303 L1326.11 49.7694 L1318.69 49.7694 M1333.56 46.6907 L1333.56 72.576 L1326.11 72.576 L1326.11 65.6895 Q1323.55 69.8214 1319.75 71.8063 Q1315.94 73.7508 1310.43 73.7508 Q1303.46 73.7508 1299.33 69.8619 Q1295.24 65.9325 1295.24 59.3701 Q1295.24 51.7138 1300.34 47.825 Q1305.49 43.9361 1315.65 43.9361 L1326.11 43.9361 L1326.11 43.2069 Q1326.11 38.0623 1322.7 35.2672 Q1319.34 32.4315 1313.22 32.4315 Q1309.33 32.4315 1305.65 33.3632 Q1301.96 34.295 1298.56 36.1584 L1298.56 29.2718 Q1302.65 27.692 1306.5 26.9223 Q1310.35 26.1121 1313.99 26.1121 Q1323.84 26.1121 1328.7 31.2163 Q1333.56 36.3204 1333.56 46.6907 Z" fill="#000000" fill-rule="nonzero" fill-opacity="1" /><path clip-path="url(#clip410)" d="M1378.77 34.0924 L1378.77 9.54393 L1386.22 9.54393 L1386.22 72.576 L1378.77 72.576 L1378.77 65.7705 Q1376.42 69.8214 1372.81 71.8063 Q1369.25 73.7508 1364.22 73.7508 Q1356 73.7508 1350.82 67.1883 Q1345.67 60.6258 1345.67 49.9314 Q1345.67 39.2371 1350.82 32.6746 Q1356 26.1121 1364.22 26.1121 Q1369.25 26.1121 1372.81 28.0971 Q1376.42 30.0415 1378.77 34.0924 M1353.37 49.9314 Q1353.37 58.1548 1356.73 62.8538 Q1360.13 67.5124 1366.05 67.5124 Q1371.96 67.5124 1375.36 62.8538 Q1378.77 58.1548 1378.77 49.9314 Q1378.77 41.7081 1375.36 37.0496 Q1371.96 32.3505 1366.05 32.3505 Q1360.13 32.3505 1356.73 37.0496 Q1353.37 41.7081 1353.37 49.9314 Z" fill="#000000" fill-rule="nonzero" fill-opacity="1" /><path clip-path="url(#clip410)" d="M1440.38 48.0275 L1440.38 51.6733 L1406.11 51.6733 Q1406.6 59.3701 1410.73 63.421 Q1414.9 67.4314 1422.31 67.4314 Q1426.61 67.4314 1430.62 66.3781 Q1434.67 65.3249 1438.64 63.2184 L1438.64 70.267 Q1434.63 71.9684 1430.42 72.8596 Q1426.2 73.7508 1421.87 73.7508 Q1411.01 73.7508 1404.65 67.4314 Q1398.33 61.1119 1398.33 50.3365 Q1398.33 39.1965 1404.33 32.6746 Q1410.36 26.1121 1420.57 26.1121 Q1429.73 26.1121 1435.03 32.0264 Q1440.38 37.9003 1440.38 48.0275 M1432.93 45.84 Q1432.85 39.7232 1429.48 36.0774 Q1426.16 32.4315 1420.65 32.4315 Q1414.42 32.4315 1410.65 35.9558 Q1406.92 39.4801 1406.35 45.8805 L1432.93 45.84 Z" fill="#000000" fill-rule="nonzero" fill-opacity="1" /><path clip-path="url(#clip410)" d="M1478.91 34.1734 Q1477.65 33.4443 1476.15 33.1202 Q1474.69 32.7556 1472.91 32.7556 Q1466.59 32.7556 1463.19 36.8875 Q1459.83 40.9789 1459.83 48.6757 L1459.83 72.576 L1452.33 72.576 L1452.33 27.2059 L1459.83 27.2059 L1459.83 34.2544 Q1462.18 30.1225 1465.94 28.1376 Q1469.71 26.1121 1475.1 26.1121 Q1475.87 26.1121 1476.8 26.2337 Q1477.73 26.3147 1478.87 26.5172 L1478.91 34.1734 Z" fill="#000000" fill-rule="nonzero" fill-opacity="1" /><path clip-path="url(#clip410)" d="M1493.77 12.096 L1493.77 34.5785 L1486.89 34.5785 L1486.89 12.096 L1493.77 12.096 Z" fill="#000000" fill-rule="nonzero" fill-opacity="1" /><path clip-path="url(#clip410)" d="M1538.45 28.5427 L1538.45 35.5912 Q1535.29 33.9709 1531.89 33.1607 Q1528.49 32.3505 1524.84 32.3505 Q1519.29 32.3505 1516.5 34.0519 Q1513.74 35.7533 1513.74 39.156 Q1513.74 41.7486 1515.73 43.2475 Q1517.71 44.7058 1523.71 46.0426 L1526.26 46.6097 Q1534.2 48.3111 1537.52 51.4303 Q1540.88 54.509 1540.88 60.0587 Q1540.88 66.3781 1535.86 70.0644 Q1530.88 73.7508 1522.13 73.7508 Q1518.48 73.7508 1514.51 73.0216 Q1510.58 72.3329 1506.21 70.9151 L1506.21 63.2184 Q1510.34 65.3654 1514.35 66.4591 Q1518.36 67.5124 1522.29 67.5124 Q1527.56 67.5124 1530.39 65.73 Q1533.23 63.9071 1533.23 60.6258 Q1533.23 57.5877 1531.16 55.9673 Q1529.14 54.3469 1522.21 52.8481 L1519.62 52.2405 Q1512.69 50.7821 1509.61 47.7845 Q1506.53 44.7463 1506.53 39.4801 Q1506.53 33.0797 1511.07 29.5959 Q1515.61 26.1121 1523.95 26.1121 Q1528.08 26.1121 1531.73 26.7198 Q1535.38 27.3274 1538.45 28.5427 Z" fill="#000000" fill-rule="nonzero" fill-opacity="1" /><path clip-path="url(#clip410)" d="M1586.34 65.7705 L1586.34 89.8329 L1578.84 89.8329 L1578.84 27.2059 L1586.34 27.2059 L1586.34 34.0924 Q1588.69 30.0415 1592.25 28.0971 Q1595.86 26.1121 1600.84 26.1121 Q1609.1 26.1121 1614.25 32.6746 Q1619.43 39.2371 1619.43 49.9314 Q1619.43 60.6258 1614.25 67.1883 Q1609.1 73.7508 1600.84 73.7508 Q1595.86 73.7508 1592.25 71.8063 Q1588.69 69.8214 1586.34 65.7705 M1611.69 49.9314 Q1611.69 41.7081 1608.29 37.0496 Q1604.93 32.3505 1599.01 32.3505 Q1593.1 32.3505 1589.7 37.0496 Q1586.34 41.7081 1586.34 49.9314 Q1586.34 58.1548 1589.7 62.8538 Q1593.1 67.5124 1599.01 67.5124 Q1604.93 67.5124 1608.29 62.8538 Q1611.69 58.1548 1611.69 49.9314 Z" fill="#000000" fill-rule="nonzero" fill-opacity="1" /><path clip-path="url(#clip410)" d="M1658.08 34.1734 Q1656.82 33.4443 1655.32 33.1202 Q1653.86 32.7556 1652.08 32.7556 Q1645.76 32.7556 1642.36 36.8875 Q1639 40.9789 1639 48.6757 L1639 72.576 L1631.5 72.576 L1631.5 27.2059 L1639 27.2059 L1639 34.2544 Q1641.35 30.1225 1645.11 28.1376 Q1648.88 26.1121 1654.27 26.1121 Q1655.04 26.1121 1655.97 26.2337 Q1656.9 26.3147 1658.04 26.5172 L1658.08 34.1734 Z" fill="#000000" fill-rule="nonzero" fill-opacity="1" /><path clip-path="url(#clip410)" d="M1665.9 27.2059 L1673.35 27.2059 L1673.35 72.576 L1665.9 72.576 L1665.9 27.2059 M1665.9 9.54393 L1673.35 9.54393 L1673.35 18.9825 L1665.9 18.9825 L1665.9 9.54393 Z" fill="#000000" fill-rule="nonzero" fill-opacity="1" /><path clip-path="url(#clip410)" d="M1721.6 28.9478 L1721.6 35.9153 Q1718.44 34.1734 1715.24 33.3227 Q1712.08 32.4315 1708.83 32.4315 Q1701.58 32.4315 1697.57 37.0496 Q1693.56 41.6271 1693.56 49.9314 Q1693.56 58.2358 1697.57 62.8538 Q1701.58 67.4314 1708.83 67.4314 Q1712.08 67.4314 1715.24 66.5807 Q1718.44 65.6895 1721.6 63.9476 L1721.6 70.8341 Q1718.48 72.2924 1715.11 73.0216 Q1711.79 73.7508 1708.02 73.7508 Q1697.78 73.7508 1691.74 67.3098 Q1685.7 60.8689 1685.7 49.9314 Q1685.7 38.832 1691.78 32.472 Q1697.9 26.1121 1708.51 26.1121 Q1711.95 26.1121 1715.24 26.8413 Q1718.52 27.5299 1721.6 28.9478 Z" fill="#000000" fill-rule="nonzero" fill-opacity="1" /><path clip-path="url(#clip410)" d="M1773.37 48.0275 L1773.37 51.6733 L1739.1 51.6733 Q1739.58 59.3701 1743.71 63.421 Q1747.89 67.4314 1755.3 67.4314 Q1759.59 67.4314 1763.6 66.3781 Q1767.65 65.3249 1771.62 63.2184 L1771.62 70.267 Q1767.61 71.9684 1763.4 72.8596 Q1759.19 73.7508 1754.85 73.7508 Q1744 73.7508 1737.64 67.4314 Q1731.32 61.1119 1731.32 50.3365 Q1731.32 39.1965 1737.31 32.6746 Q1743.35 26.1121 1753.56 26.1121 Q1762.71 26.1121 1768.02 32.0264 Q1773.37 37.9003 1773.37 48.0275 M1765.91 45.84 Q1765.83 39.7232 1762.47 36.0774 Q1759.15 32.4315 1753.64 32.4315 Q1747.4 32.4315 1743.63 35.9558 Q1739.91 39.4801 1739.34 45.8805 L1765.91 45.84 Z" fill="#000000" fill-rule="nonzero" fill-opacity="1" /><path clip-path="url(#clip410)" d="M1832.59 49.7694 Q1823.56 49.7694 1820.07 51.8354 Q1816.59 53.9013 1816.59 58.8839 Q1816.59 62.8538 1819.18 65.2034 Q1821.81 67.5124 1826.31 67.5124 Q1832.51 67.5124 1836.24 63.1374 Q1840 58.7219 1840 51.4303 L1840 49.7694 L1832.59 49.7694 M1847.46 46.6907 L1847.46 72.576 L1840 72.576 L1840 65.6895 Q1837.45 69.8214 1833.64 71.8063 Q1829.84 73.7508 1824.33 73.7508 Q1817.36 73.7508 1813.23 69.8619 Q1809.14 65.9325 1809.14 59.3701 Q1809.14 51.7138 1814.24 47.825 Q1819.38 43.9361 1829.55 43.9361 L1840 43.9361 L1840 43.2069 Q1840 38.0623 1836.6 35.2672 Q1833.24 32.4315 1827.12 32.4315 Q1823.23 32.4315 1819.55 33.3632 Q1815.86 34.295 1812.46 36.1584 L1812.46 29.2718 Q1816.55 27.692 1820.4 26.9223 Q1824.25 26.1121 1827.89 26.1121 Q1837.73 26.1121 1842.6 31.2163 Q1847.46 36.3204 1847.46 46.6907 Z" fill="#000000" fill-rule="nonzero" fill-opacity="1" /><path clip-path="url(#clip410)" d="M1900.52 45.1919 L1900.52 72.576 L1893.07 72.576 L1893.07 45.4349 Q1893.07 38.994 1890.56 35.7938 Q1888.05 32.5936 1883.02 32.5936 Q1876.99 32.5936 1873.5 36.4419 Q1870.02 40.2903 1870.02 46.9338 L1870.02 72.576 L1862.53 72.576 L1862.53 27.2059 L1870.02 27.2059 L1870.02 34.2544 Q1872.69 30.163 1876.3 28.1376 Q1879.95 26.1121 1884.68 26.1121 Q1892.5 26.1121 1896.51 30.9732 Q1900.52 35.7938 1900.52 45.1919 Z" fill="#000000" fill-rule="nonzero" fill-opacity="1" /><path clip-path="url(#clip410)" d="M1945.25 34.0924 L1945.25 9.54393 L1952.7 9.54393 L1952.7 72.576 L1945.25 72.576 L1945.25 65.7705 Q1942.9 69.8214 1939.29 71.8063 Q1935.73 73.7508 1930.7 73.7508 Q1922.48 73.7508 1917.29 67.1883 Q1912.15 60.6258 1912.15 49.9314 Q1912.15 39.2371 1917.29 32.6746 Q1922.48 26.1121 1930.7 26.1121 Q1935.73 26.1121 1939.29 28.0971 Q1942.9 30.0415 1945.25 34.0924 M1919.85 49.9314 Q1919.85 58.1548 1923.21 62.8538 Q1926.61 67.5124 1932.53 67.5124 Q1938.44 67.5124 1941.84 62.8538 Q1945.25 58.1548 1945.25 49.9314 Q1945.25 41.7081 1941.84 37.0496 Q1938.44 32.3505 1932.53 32.3505 Q1926.61 32.3505 1923.21 37.0496 Q1919.85 41.7081 1919.85 49.9314 Z" fill="#000000" fill-rule="nonzero" fill-opacity="1" /><path clip-path="url(#clip410)" d="M2001.63 65.7705 L2001.63 89.8329 L1994.14 89.8329 L1994.14 27.2059 L2001.63 27.2059 L2001.63 34.0924 Q2003.98 30.0415 2007.55 28.0971 Q2011.15 26.1121 2016.14 26.1121 Q2024.4 26.1121 2029.54 32.6746 Q2034.73 39.2371 2034.73 49.9314 Q2034.73 60.6258 2029.54 67.1883 Q2024.4 73.7508 2016.14 73.7508 Q2011.15 73.7508 2007.55 71.8063 Q2003.98 69.8214 2001.63 65.7705 M2026.99 49.9314 Q2026.99 41.7081 2023.59 37.0496 Q2020.23 32.3505 2014.31 32.3505 Q2008.4 32.3505 2005 37.0496 Q2001.63 41.7081 2001.63 49.9314 Q2001.63 58.1548 2005 62.8538 Q2008.4 67.5124 2014.31 67.5124 Q2020.23 67.5124 2023.59 62.8538 Q2026.99 58.1548 2026.99 49.9314 Z" fill="#000000" fill-rule="nonzero" fill-opacity="1" /><path clip-path="url(#clip410)" d="M2073.38 34.1734 Q2072.12 33.4443 2070.62 33.1202 Q2069.16 32.7556 2067.38 32.7556 Q2061.06 32.7556 2057.66 36.8875 Q2054.3 40.9789 2054.3 48.6757 L2054.3 72.576 L2046.8 72.576 L2046.8 27.2059 L2054.3 27.2059 L2054.3 34.2544 Q2056.65 30.1225 2060.41 28.1376 Q2064.18 26.1121 2069.57 26.1121 Q2070.34 26.1121 2071.27 26.2337 Q2072.2 26.3147 2073.34 26.5172 L2073.38 34.1734 Z" fill="#000000" fill-rule="nonzero" fill-opacity="1" /><path clip-path="url(#clip410)" d="M2096.95 32.4315 Q2090.96 32.4315 2087.47 37.1306 Q2083.99 41.7891 2083.99 49.9314 Q2083.99 58.0738 2087.43 62.7728 Q2090.92 67.4314 2096.95 67.4314 Q2102.91 67.4314 2106.39 62.7323 Q2109.87 58.0333 2109.87 49.9314 Q2109.87 41.8701 2106.39 37.1711 Q2102.91 32.4315 2096.95 32.4315 M2096.95 26.1121 Q2106.67 26.1121 2112.22 32.4315 Q2117.77 38.7509 2117.77 49.9314 Q2117.77 61.0714 2112.22 67.4314 Q2106.67 73.7508 2096.95 73.7508 Q2087.19 73.7508 2081.64 67.4314 Q2076.13 61.0714 2076.13 49.9314 Q2076.13 38.7509 2081.64 32.4315 Q2087.19 26.1121 2096.95 26.1121 Z" fill="#000000" fill-rule="nonzero" fill-opacity="1" /><path clip-path="url(#clip410)" d="M2153.1 9.54393 L2153.1 15.7418 L2145.97 15.7418 Q2141.96 15.7418 2140.38 17.3622 Q2138.84 18.9825 2138.84 23.1955 L2138.84 27.2059 L2151.11 27.2059 L2151.11 32.9987 L2138.84 32.9987 L2138.84 72.576 L2131.34 72.576 L2131.34 32.9987 L2124.21 32.9987 L2124.21 27.2059 L2131.34 27.2059 L2131.34 24.0462 Q2131.34 16.471 2134.87 13.0277 Q2138.39 9.54393 2146.05 9.54393 L2153.1 9.54393 Z" fill="#000000" fill-rule="nonzero" fill-opacity="1" /><path clip-path="url(#clip410)" d="M2159.34 27.2059 L2166.79 27.2059 L2166.79 72.576 L2159.34 72.576 L2159.34 27.2059 M2159.34 9.54393 L2166.79 9.54393 L2166.79 18.9825 L2159.34 18.9825 L2159.34 9.54393 Z" fill="#000000" fill-rule="nonzero" fill-opacity="1" /><path clip-path="url(#clip410)" d="M2189.76 14.324 L2189.76 27.2059 L2205.11 27.2059 L2205.11 32.9987 L2189.76 32.9987 L2189.76 57.6282 Q2189.76 63.1779 2191.26 64.7578 Q2192.8 66.3376 2197.45 66.3376 L2205.11 66.3376 L2205.11 72.576 L2197.45 72.576 Q2188.83 72.576 2185.55 69.3758 Q2182.26 66.1351 2182.26 57.6282 L2182.26 32.9987 L2176.8 32.9987 L2176.8 27.2059 L2182.26 27.2059 L2182.26 14.324 L2189.76 14.324 Z" fill="#000000" fill-rule="nonzero" fill-opacity="1" /><circle clip-path="url(#clip412)" cx="983.466" cy="985.412" r="14.4" fill="#009af9" fill-rule="evenodd" fill-opacity="1" stroke="#000000" stroke-opacity="1" stroke-width="3.2"/>
<circle clip-path="url(#clip412)" cx="434.4" cy="1306.75" r="14.4" fill="#009af9" fill-rule="evenodd" fill-opacity="1" stroke="#000000" stroke-opacity="1" stroke-width="3.2"/>
<circle clip-path="url(#clip412)" cx="1488.34" cy="673.081" r="14.4" fill="#009af9" fill-rule="evenodd" fill-opacity="1" stroke="#000000" stroke-opacity="1" stroke-width="3.2"/>
<circle clip-path="url(#clip412)" cx="300.375" cy="1422.64" r="14.4" fill="#009af9" fill-rule="evenodd" fill-opacity="1" stroke="#000000" stroke-opacity="1" stroke-width="3.2"/>
<circle clip-path="url(#clip412)" cx="1449.85" cy="673.073" r="14.4" fill="#009af9" fill-rule="evenodd" fill-opacity="1" stroke="#000000" stroke-opacity="1" stroke-width="3.2"/>
<circle clip-path="url(#clip412)" cx="575.612" cy="1213.74" r="14.4" fill="#009af9" fill-rule="evenodd" fill-opacity="1" stroke="#000000" stroke-opacity="1" stroke-width="3.2"/>
<circle clip-path="url(#clip412)" cx="536.696" cy="1266.41" r="14.4" fill="#009af9" fill-rule="evenodd" fill-opacity="1" stroke="#000000" stroke-opacity="1" stroke-width="3.2"/>
<circle clip-path="url(#clip412)" cx="1745.23" cy="480.649" r="14.4" fill="#009af9" fill-rule="evenodd" fill-opacity="1" stroke="#000000" stroke-opacity="1" stroke-width="3.2"/>
<circle clip-path="url(#clip412)" cx="1053.28" cy="934.789" r="14.4" fill="#009af9" fill-rule="evenodd" fill-opacity="1" stroke="#000000" stroke-opacity="1" stroke-width="3.2"/>
<circle clip-path="url(#clip412)" cx="1995.71" cy="333.019" r="14.4" fill="#009af9" fill-rule="evenodd" fill-opacity="1" stroke="#000000" stroke-opacity="1" stroke-width="3.2"/>
<circle clip-path="url(#clip412)" cx="809.58" cy="1070.1" r="14.4" fill="#009af9" fill-rule="evenodd" fill-opacity="1" stroke="#000000" stroke-opacity="1" stroke-width="3.2"/>
<circle clip-path="url(#clip412)" cx="1038.42" cy="947.413" r="14.4" fill="#009af9" fill-rule="evenodd" fill-opacity="1" stroke="#000000" stroke-opacity="1" stroke-width="3.2"/>
<circle clip-path="url(#clip412)" cx="1424.18" cy="708.863" r="14.4" fill="#009af9" fill-rule="evenodd" fill-opacity="1" stroke="#000000" stroke-opacity="1" stroke-width="3.2"/>
<circle clip-path="url(#clip412)" cx="1013.06" cy="963.123" r="14.4" fill="#009af9" fill-rule="evenodd" fill-opacity="1" stroke="#000000" stroke-opacity="1" stroke-width="3.2"/>
<circle clip-path="url(#clip412)" cx="939.241" cy="1008.3" r="14.4" fill="#009af9" fill-rule="evenodd" fill-opacity="1" stroke="#000000" stroke-opacity="1" stroke-width="3.2"/>
<circle clip-path="url(#clip412)" cx="920.056" cy="989.122" r="14.4" fill="#009af9" fill-rule="evenodd" fill-opacity="1" stroke="#000000" stroke-opacity="1" stroke-width="3.2"/>
<circle clip-path="url(#clip412)" cx="403.25" cy="1331.52" r="14.4" fill="#009af9" fill-rule="evenodd" fill-opacity="1" stroke="#000000" stroke-opacity="1" stroke-width="3.2"/>
<circle clip-path="url(#clip412)" cx="2275.19" cy="178.237" r="14.4" fill="#009af9" fill-rule="evenodd" fill-opacity="1" stroke="#000000" stroke-opacity="1" stroke-width="3.2"/>
<circle clip-path="url(#clip412)" cx="987.694" cy="990.156" r="14.4" fill="#009af9" fill-rule="evenodd" fill-opacity="1" stroke="#000000" stroke-opacity="1" stroke-width="3.2"/>
<circle clip-path="url(#clip412)" cx="1322.24" cy="771.523" r="14.4" fill="#009af9" fill-rule="evenodd" fill-opacity="1" stroke="#000000" stroke-opacity="1" stroke-width="3.2"/>
<circle clip-path="url(#clip412)" cx="948.957" cy="985.824" r="14.4" fill="#009af9" fill-rule="evenodd" fill-opacity="1" stroke="#000000" stroke-opacity="1" stroke-width="3.2"/>
<circle clip-path="url(#clip412)" cx="730.474" cy="1127.28" r="14.4" fill="#009af9" fill-rule="evenodd" fill-opacity="1" stroke="#000000" stroke-opacity="1" stroke-width="3.2"/>
<circle clip-path="url(#clip412)" cx="788.587" cy="1067.17" r="14.4" fill="#009af9" fill-rule="evenodd" fill-opacity="1" stroke="#000000" stroke-opacity="1" stroke-width="3.2"/>
<circle clip-path="url(#clip412)" cx="378.383" cy="1369.62" r="14.4" fill="#009af9" fill-rule="evenodd" fill-opacity="1" stroke="#000000" stroke-opacity="1" stroke-width="3.2"/>
<circle clip-path="url(#clip412)" cx="1008.83" cy="969.967" r="14.4" fill="#009af9" fill-rule="evenodd" fill-opacity="1" stroke="#000000" stroke-opacity="1" stroke-width="3.2"/>
<circle clip-path="url(#clip412)" cx="2180.65" cy="216.316" r="14.4" fill="#009af9" fill-rule="evenodd" fill-opacity="1" stroke="#000000" stroke-opacity="1" stroke-width="3.2"/>
<circle clip-path="url(#clip412)" cx="911.601" cy="1036.81" r="14.4" fill="#009af9" fill-rule="evenodd" fill-opacity="1" stroke="#000000" stroke-opacity="1" stroke-width="3.2"/>
<circle clip-path="url(#clip412)" cx="2135.77" cy="241.953" r="14.4" fill="#009af9" fill-rule="evenodd" fill-opacity="1" stroke="#000000" stroke-opacity="1" stroke-width="3.2"/>
<circle clip-path="url(#clip412)" cx="928.511" cy="1002.84" r="14.4" fill="#009af9" fill-rule="evenodd" fill-opacity="1" stroke="#000000" stroke-opacity="1" stroke-width="3.2"/>
<circle clip-path="url(#clip412)" cx="1880.53" cy="424.092" r="14.4" fill="#009af9" fill-rule="evenodd" fill-opacity="1" stroke="#000000" stroke-opacity="1" stroke-width="3.2"/>
<circle clip-path="url(#clip412)" cx="2046.39" cy="319.835" r="14.4" fill="#009af9" fill-rule="evenodd" fill-opacity="1" stroke="#000000" stroke-opacity="1" stroke-width="3.2"/>
<circle clip-path="url(#clip412)" cx="991.921" cy="943.824" r="14.4" fill="#009af9" fill-rule="evenodd" fill-opacity="1" stroke="#000000" stroke-opacity="1" stroke-width="3.2"/>
<circle clip-path="url(#clip412)" cx="355.395" cy="1384.85" r="14.4" fill="#009af9" fill-rule="evenodd" fill-opacity="1" stroke="#000000" stroke-opacity="1" stroke-width="3.2"/>
<circle clip-path="url(#clip412)" cx="886.237" cy="1044.34" r="14.4" fill="#009af9" fill-rule="evenodd" fill-opacity="1" stroke="#000000" stroke-opacity="1" stroke-width="3.2"/>
<circle clip-path="url(#clip412)" cx="421.16" cy="1345.71" r="14.4" fill="#009af9" fill-rule="evenodd" fill-opacity="1" stroke="#000000" stroke-opacity="1" stroke-width="3.2"/>
<circle clip-path="url(#clip412)" cx="299.994" cy="1415.61" r="14.4" fill="#009af9" fill-rule="evenodd" fill-opacity="1" stroke="#000000" stroke-opacity="1" stroke-width="3.2"/>
<circle clip-path="url(#clip412)" cx="769.612" cy="1105.34" r="14.4" fill="#009af9" fill-rule="evenodd" fill-opacity="1" stroke="#000000" stroke-opacity="1" stroke-width="3.2"/>
<circle clip-path="url(#clip412)" cx="1993.4" cy="290.708" r="14.4" fill="#009af9" fill-rule="evenodd" fill-opacity="1" stroke="#000000" stroke-opacity="1" stroke-width="3.2"/>
<circle clip-path="url(#clip412)" cx="2289.44" cy="139.822" r="14.4" fill="#009af9" fill-rule="evenodd" fill-opacity="1" stroke="#000000" stroke-opacity="1" stroke-width="3.2"/>
<circle clip-path="url(#clip412)" cx="1042.65" cy="934.151" r="14.4" fill="#009af9" fill-rule="evenodd" fill-opacity="1" stroke="#000000" stroke-opacity="1" stroke-width="3.2"/>
<circle clip-path="url(#clip412)" cx="1021.51" cy="931.899" r="14.4" fill="#009af9" fill-rule="evenodd" fill-opacity="1" stroke="#000000" stroke-opacity="1" stroke-width="3.2"/>
<circle clip-path="url(#clip412)" cx="1089.71" cy="916.439" r="14.4" fill="#009af9" fill-rule="evenodd" fill-opacity="1" stroke="#000000" stroke-opacity="1" stroke-width="3.2"/>
<circle clip-path="url(#clip412)" cx="1046.88" cy="934.118" r="14.4" fill="#009af9" fill-rule="evenodd" fill-opacity="1" stroke="#000000" stroke-opacity="1" stroke-width="3.2"/>
<circle clip-path="url(#clip412)" cx="1255.97" cy="815.723" r="14.4" fill="#009af9" fill-rule="evenodd" fill-opacity="1" stroke="#000000" stroke-opacity="1" stroke-width="3.2"/>
<circle clip-path="url(#clip412)" cx="265.026" cy="1423.18" r="14.4" fill="#009af9" fill-rule="evenodd" fill-opacity="1" stroke="#000000" stroke-opacity="1" stroke-width="3.2"/>
<circle clip-path="url(#clip412)" cx="1004.6" cy="964.779" r="14.4" fill="#009af9" fill-rule="evenodd" fill-opacity="1" stroke="#000000" stroke-opacity="1" stroke-width="3.2"/>
<circle clip-path="url(#clip412)" cx="979.239" cy="979.081" r="14.4" fill="#009af9" fill-rule="evenodd" fill-opacity="1" stroke="#000000" stroke-opacity="1" stroke-width="3.2"/>
<circle clip-path="url(#clip412)" cx="1025.74" cy="944.943" r="14.4" fill="#009af9" fill-rule="evenodd" fill-opacity="1" stroke="#000000" stroke-opacity="1" stroke-width="3.2"/>
<circle clip-path="url(#clip412)" cx="2196.93" cy="191.33" r="14.4" fill="#009af9" fill-rule="evenodd" fill-opacity="1" stroke="#000000" stroke-opacity="1" stroke-width="3.2"/>
<circle clip-path="url(#clip412)" cx="907.374" cy="1026.69" r="14.4" fill="#009af9" fill-rule="evenodd" fill-opacity="1" stroke="#000000" stroke-opacity="1" stroke-width="3.2"/>
<circle clip-path="url(#clip412)" cx="1834.51" cy="447.259" r="14.4" fill="#009af9" fill-rule="evenodd" fill-opacity="1" stroke="#000000" stroke-opacity="1" stroke-width="3.2"/>
<circle clip-path="url(#clip412)" cx="2013.78" cy="337.035" r="14.4" fill="#009af9" fill-rule="evenodd" fill-opacity="1" stroke="#000000" stroke-opacity="1" stroke-width="3.2"/>
<circle clip-path="url(#clip412)" cx="1034.19" cy="918.63" r="14.4" fill="#009af9" fill-rule="evenodd" fill-opacity="1" stroke="#000000" stroke-opacity="1" stroke-width="3.2"/>
<circle clip-path="url(#clip412)" cx="1610" cy="571.601" r="14.4" fill="#009af9" fill-rule="evenodd" fill-opacity="1" stroke="#000000" stroke-opacity="1" stroke-width="3.2"/>
<circle clip-path="url(#clip412)" cx="894.692" cy="1047.79" r="14.4" fill="#009af9" fill-rule="evenodd" fill-opacity="1" stroke="#000000" stroke-opacity="1" stroke-width="3.2"/>
<circle clip-path="url(#clip412)" cx="1035.65" cy="955.157" r="14.4" fill="#009af9" fill-rule="evenodd" fill-opacity="1" stroke="#000000" stroke-opacity="1" stroke-width="3.2"/>
<circle clip-path="url(#clip412)" cx="308.427" cy="1407.43" r="14.4" fill="#009af9" fill-rule="evenodd" fill-opacity="1" stroke="#000000" stroke-opacity="1" stroke-width="3.2"/>
<circle clip-path="url(#clip412)" cx="945.42" cy="1007.73" r="14.4" fill="#009af9" fill-rule="evenodd" fill-opacity="1" stroke="#000000" stroke-opacity="1" stroke-width="3.2"/>
<circle clip-path="url(#clip412)" cx="857.209" cy="1061.81" r="14.4" fill="#009af9" fill-rule="evenodd" fill-opacity="1" stroke="#000000" stroke-opacity="1" stroke-width="3.2"/>
<circle clip-path="url(#clip412)" cx="1040.22" cy="934.223" r="14.4" fill="#009af9" fill-rule="evenodd" fill-opacity="1" stroke="#000000" stroke-opacity="1" stroke-width="3.2"/>
<circle clip-path="url(#clip412)" cx="966.557" cy="992.311" r="14.4" fill="#009af9" fill-rule="evenodd" fill-opacity="1" stroke="#000000" stroke-opacity="1" stroke-width="3.2"/>
<circle clip-path="url(#clip412)" cx="970.784" cy="962.101" r="14.4" fill="#009af9" fill-rule="evenodd" fill-opacity="1" stroke="#000000" stroke-opacity="1" stroke-width="3.2"/>
<circle clip-path="url(#clip412)" cx="382.418" cy="1368.82" r="14.4" fill="#009af9" fill-rule="evenodd" fill-opacity="1" stroke="#000000" stroke-opacity="1" stroke-width="3.2"/>
<circle clip-path="url(#clip412)" cx="417.908" cy="1336.85" r="14.4" fill="#009af9" fill-rule="evenodd" fill-opacity="1" stroke="#000000" stroke-opacity="1" stroke-width="3.2"/>
<circle clip-path="url(#clip412)" cx="1029.97" cy="952.639" r="14.4" fill="#009af9" fill-rule="evenodd" fill-opacity="1" stroke="#000000" stroke-opacity="1" stroke-width="3.2"/>
<circle clip-path="url(#clip412)" cx="1017.29" cy="963.827" r="14.4" fill="#009af9" fill-rule="evenodd" fill-opacity="1" stroke="#000000" stroke-opacity="1" stroke-width="3.2"/>
<circle clip-path="url(#clip412)" cx="890.465" cy="1039.81" r="14.4" fill="#009af9" fill-rule="evenodd" fill-opacity="1" stroke="#000000" stroke-opacity="1" stroke-width="3.2"/>
<circle clip-path="url(#clip412)" cx="924.283" cy="1000.32" r="14.4" fill="#009af9" fill-rule="evenodd" fill-opacity="1" stroke="#000000" stroke-opacity="1" stroke-width="3.2"/>
<circle clip-path="url(#clip412)" cx="603.691" cy="1215.64" r="14.4" fill="#009af9" fill-rule="evenodd" fill-opacity="1" stroke="#000000" stroke-opacity="1" stroke-width="3.2"/>
<circle clip-path="url(#clip412)" cx="2059.52" cy="305.232" r="14.4" fill="#009af9" fill-rule="evenodd" fill-opacity="1" stroke="#000000" stroke-opacity="1" stroke-width="3.2"/>
<circle clip-path="url(#clip412)" cx="898.919" cy="1015.74" r="14.4" fill="#009af9" fill-rule="evenodd" fill-opacity="1" stroke="#000000" stroke-opacity="1" stroke-width="3.2"/>
<circle clip-path="url(#clip412)" cx="1573.85" cy="588.765" r="14.4" fill="#009af9" fill-rule="evenodd" fill-opacity="1" stroke="#000000" stroke-opacity="1" stroke-width="3.2"/>
<circle clip-path="url(#clip412)" cx="1000.38" cy="971.743" r="14.4" fill="#009af9" fill-rule="evenodd" fill-opacity="1" stroke="#000000" stroke-opacity="1" stroke-width="3.2"/>
<circle clip-path="url(#clip412)" cx="1051.1" cy="936.367" r="14.4" fill="#009af9" fill-rule="evenodd" fill-opacity="1" stroke="#000000" stroke-opacity="1" stroke-width="3.2"/>
<circle clip-path="url(#clip412)" cx="908.589" cy="1007.11" r="14.4" fill="#009af9" fill-rule="evenodd" fill-opacity="1" stroke="#000000" stroke-opacity="1" stroke-width="3.2"/>
<circle clip-path="url(#clip412)" cx="996.148" cy="951.837" r="14.4" fill="#009af9" fill-rule="evenodd" fill-opacity="1" stroke="#000000" stroke-opacity="1" stroke-width="3.2"/>
<circle clip-path="url(#clip412)" cx="941.193" cy="1010.11" r="14.4" fill="#009af9" fill-rule="evenodd" fill-opacity="1" stroke="#000000" stroke-opacity="1" stroke-width="3.2"/>
<circle clip-path="url(#clip412)" cx="2146.75" cy="239.852" r="14.4" fill="#009af9" fill-rule="evenodd" fill-opacity="1" stroke="#000000" stroke-opacity="1" stroke-width="3.2"/>
<circle clip-path="url(#clip412)" cx="958.102" cy="989.37" r="14.4" fill="#009af9" fill-rule="evenodd" fill-opacity="1" stroke="#000000" stroke-opacity="1" stroke-width="3.2"/>
<circle clip-path="url(#clip412)" cx="915.829" cy="1024.3" r="14.4" fill="#009af9" fill-rule="evenodd" fill-opacity="1" stroke="#000000" stroke-opacity="1" stroke-width="3.2"/>
<circle clip-path="url(#clip412)" cx="936.965" cy="1011.66" r="14.4" fill="#009af9" fill-rule="evenodd" fill-opacity="1" stroke="#000000" stroke-opacity="1" stroke-width="3.2"/>
<circle clip-path="url(#clip412)" cx="904.418" cy="1043.35" r="14.4" fill="#009af9" fill-rule="evenodd" fill-opacity="1" stroke="#000000" stroke-opacity="1" stroke-width="3.2"/>
<circle clip-path="url(#clip412)" cx="336.134" cy="1400.07" r="14.4" fill="#009af9" fill-rule="evenodd" fill-opacity="1" stroke="#000000" stroke-opacity="1" stroke-width="3.2"/>
<circle clip-path="url(#clip412)" cx="975.012" cy="995.775" r="14.4" fill="#009af9" fill-rule="evenodd" fill-opacity="1" stroke="#000000" stroke-opacity="1" stroke-width="3.2"/>
<circle clip-path="url(#clip412)" cx="982.04" cy="960.784" r="14.4" fill="#009af9" fill-rule="evenodd" fill-opacity="1" stroke="#000000" stroke-opacity="1" stroke-width="3.2"/>
<circle clip-path="url(#clip412)" cx="932.738" cy="1004.1" r="14.4" fill="#009af9" fill-rule="evenodd" fill-opacity="1" stroke="#000000" stroke-opacity="1" stroke-width="3.2"/>
<circle clip-path="url(#clip412)" cx="737.5" cy="1142.07" r="14.4" fill="#009af9" fill-rule="evenodd" fill-opacity="1" stroke="#000000" stroke-opacity="1" stroke-width="3.2"/>
<circle clip-path="url(#clip412)" cx="717.765" cy="1157.44" r="14.4" fill="#009af9" fill-rule="evenodd" fill-opacity="1" stroke="#000000" stroke-opacity="1" stroke-width="3.2"/>
<circle clip-path="url(#clip412)" cx="577.206" cy="1243.55" r="14.4" fill="#009af9" fill-rule="evenodd" fill-opacity="1" stroke="#000000" stroke-opacity="1" stroke-width="3.2"/>
<circle clip-path="url(#clip412)" cx="1944.22" cy="334.452" r="14.4" fill="#009af9" fill-rule="evenodd" fill-opacity="1" stroke="#000000" stroke-opacity="1" stroke-width="3.2"/>
<circle clip-path="url(#clip412)" cx="1620.88" cy="576.783" r="14.4" fill="#009af9" fill-rule="evenodd" fill-opacity="1" stroke="#000000" stroke-opacity="1" stroke-width="3.2"/>
<circle clip-path="url(#clip412)" cx="962.33" cy="989.45" r="14.4" fill="#009af9" fill-rule="evenodd" fill-opacity="1" stroke="#000000" stroke-opacity="1" stroke-width="3.2"/>
<circle clip-path="url(#clip412)" cx="953.875" cy="982.678" r="14.4" fill="#009af9" fill-rule="evenodd" fill-opacity="1" stroke="#000000" stroke-opacity="1" stroke-width="3.2"/>
<circle clip-path="url(#clip412)" cx="949.648" cy="986.292" r="14.4" fill="#009af9" fill-rule="evenodd" fill-opacity="1" stroke="#000000" stroke-opacity="1" stroke-width="3.2"/>
<circle clip-path="url(#clip412)" cx="1341.03" cy="741.238" r="14.4" fill="#009af9" fill-rule="evenodd" fill-opacity="1" stroke="#000000" stroke-opacity="1" stroke-width="3.2"/>
<circle clip-path="url(#clip412)" cx="906.39" cy="1038.16" r="14.4" fill="#009af9" fill-rule="evenodd" fill-opacity="1" stroke="#000000" stroke-opacity="1" stroke-width="3.2"/>
<circle clip-path="url(#clip412)" cx="1942.69" cy="356.259" r="14.4" fill="#009af9" fill-rule="evenodd" fill-opacity="1" stroke="#000000" stroke-opacity="1" stroke-width="3.2"/>
<circle clip-path="url(#clip412)" cx="903.147" cy="1009.25" r="14.4" fill="#009af9" fill-rule="evenodd" fill-opacity="1" stroke="#000000" stroke-opacity="1" stroke-width="3.2"/>
<circle clip-path="url(#clip412)" cx="927.962" cy="1014.22" r="14.4" fill="#009af9" fill-rule="evenodd" fill-opacity="1" stroke="#000000" stroke-opacity="1" stroke-width="3.2"/>
<path clip-path="url(#clip410)" d="M275.836 270.476 L793.026 270.476 L793.026 166.796 L275.836 166.796  Z" fill="#ffffff" fill-rule="evenodd" fill-opacity="1"/>
<polyline clip-path="url(#clip410)" style="stroke:#000000; stroke-linecap:round; stroke-linejoin:round; stroke-width:4; stroke-opacity:1; fill:none" points="275.836,270.476 793.026,270.476 793.026,166.796 275.836,166.796 275.836,270.476 "/>
<circle clip-path="url(#clip410)" cx="371.327" cy="218.636" r="20.48" fill="#009af9" fill-rule="evenodd" fill-opacity="1" stroke="#000000" stroke-opacity="1" stroke-width="4.55111"/>
<path clip-path="url(#clip410)" d="M466.817 201.356 L473.785 201.356 L482.604 224.874 L491.47 201.356 L498.437 201.356 L498.437 235.916 L493.877 235.916 L493.877 205.569 L484.965 229.272 L480.266 229.272 L471.354 205.569 L471.354 235.916 L466.817 235.916 L466.817 201.356 Z" fill="#000000" fill-rule="nonzero" fill-opacity="1" /><path clip-path="url(#clip410)" d="M507.72 201.356 L512.396 201.356 L512.396 215.962 L527.905 201.356 L533.923 201.356 L516.771 217.467 L535.15 235.916 L528.993 235.916 L512.396 219.272 L512.396 235.916 L507.72 235.916 L507.72 201.356 Z" fill="#000000" fill-rule="nonzero" fill-opacity="1" /><path clip-path="url(#clip410)" d="M540.034 231.981 L547.673 231.981 L547.673 205.615 L539.363 207.282 L539.363 203.022 L547.627 201.356 L552.303 201.356 L552.303 231.981 L559.942 231.981 L559.942 235.916 L540.034 235.916 L540.034 231.981 Z" fill="#000000" fill-rule="nonzero" fill-opacity="1" /><path clip-path="url(#clip410)" d="M569.872 230.036 L574.756 230.036 L574.756 234.018 L570.96 241.425 L567.974 241.425 L569.872 234.018 L569.872 230.036 Z" fill="#000000" fill-rule="nonzero" fill-opacity="1" /><path clip-path="url(#clip410)" d="M617.534 222.976 Q617.534 218.277 615.59 215.615 Q613.668 212.93 610.289 212.93 Q606.909 212.93 604.965 215.615 Q603.043 218.277 603.043 222.976 Q603.043 227.675 604.965 230.36 Q606.909 233.022 610.289 233.022 Q613.668 233.022 615.59 230.36 Q617.534 227.675 617.534 222.976 M603.043 213.925 Q604.386 211.61 606.423 210.499 Q608.483 209.365 611.33 209.365 Q616.053 209.365 618.992 213.115 Q621.955 216.865 621.955 222.976 Q621.955 229.087 618.992 232.837 Q616.053 236.587 611.33 236.587 Q608.483 236.587 606.423 235.476 Q604.386 234.342 603.043 232.027 L603.043 235.916 L598.761 235.916 L598.761 199.897 L603.043 199.897 L603.043 213.925 Z" fill="#000000" fill-rule="nonzero" fill-opacity="1" /><path clip-path="url(#clip410)" d="M640.798 222.883 Q635.636 222.883 633.645 224.064 Q631.654 225.244 631.654 228.092 Q631.654 230.36 633.136 231.703 Q634.64 233.022 637.21 233.022 Q640.752 233.022 642.881 230.522 Q645.034 227.999 645.034 223.832 L645.034 222.883 L640.798 222.883 M649.293 221.124 L649.293 235.916 L645.034 235.916 L645.034 231.981 Q643.576 234.342 641.4 235.476 Q639.224 236.587 636.076 236.587 Q632.094 236.587 629.733 234.365 Q627.395 232.119 627.395 228.369 Q627.395 223.994 630.312 221.772 Q633.252 219.55 639.062 219.55 L645.034 219.55 L645.034 219.133 Q645.034 216.194 643.089 214.596 Q641.168 212.976 637.673 212.976 Q635.451 212.976 633.344 213.508 Q631.238 214.041 629.293 215.106 L629.293 211.17 Q631.631 210.268 633.83 209.828 Q636.029 209.365 638.113 209.365 Q643.738 209.365 646.515 212.282 Q649.293 215.198 649.293 221.124 Z" fill="#000000" fill-rule="nonzero" fill-opacity="1" /><path clip-path="url(#clip410)" d="M662.279 202.629 L662.279 209.99 L671.052 209.99 L671.052 213.3 L662.279 213.3 L662.279 227.374 Q662.279 230.545 663.136 231.448 Q664.015 232.351 666.677 232.351 L671.052 232.351 L671.052 235.916 L666.677 235.916 Q661.747 235.916 659.872 234.087 Q657.997 232.235 657.997 227.374 L657.997 213.3 L654.872 213.3 L654.872 209.99 L657.997 209.99 L657.997 202.629 L662.279 202.629 Z" fill="#000000" fill-rule="nonzero" fill-opacity="1" /><path clip-path="url(#clip410)" d="M695.311 210.985 L695.311 214.967 Q693.506 213.971 691.677 213.485 Q689.872 212.976 688.02 212.976 Q683.876 212.976 681.585 215.615 Q679.293 218.231 679.293 222.976 Q679.293 227.721 681.585 230.36 Q683.876 232.976 688.02 232.976 Q689.872 232.976 691.677 232.49 Q693.506 231.981 695.311 230.985 L695.311 234.92 Q693.529 235.754 691.608 236.17 Q689.71 236.587 687.557 236.587 Q681.7 236.587 678.251 232.906 Q674.802 229.226 674.802 222.976 Q674.802 216.633 678.274 212.999 Q681.77 209.365 687.835 209.365 Q689.802 209.365 691.677 209.782 Q693.552 210.175 695.311 210.985 Z" fill="#000000" fill-rule="nonzero" fill-opacity="1" /><path clip-path="url(#clip410)" d="M724.27 220.268 L724.27 235.916 L720.01 235.916 L720.01 220.407 Q720.01 216.726 718.575 214.897 Q717.14 213.069 714.27 213.069 Q710.821 213.069 708.83 215.268 Q706.839 217.467 706.839 221.263 L706.839 235.916 L702.557 235.916 L702.557 199.897 L706.839 199.897 L706.839 214.018 Q708.367 211.68 710.427 210.522 Q712.51 209.365 715.219 209.365 Q719.686 209.365 721.978 212.143 Q724.27 214.897 724.27 220.268 Z" fill="#000000" fill-rule="nonzero" fill-opacity="1" /><path clip-path="url(#clip410)" d="M749.246 231.981 L756.885 231.981 L756.885 205.615 L748.575 207.282 L748.575 203.022 L756.839 201.356 L761.515 201.356 L761.515 231.981 L769.154 231.981 L769.154 235.916 L749.246 235.916 L749.246 231.981 Z" fill="#000000" fill-rule="nonzero" fill-opacity="1" /></svg>
